<svg width="1440" height="1309" viewBox="0 0 1440 1309" fill="none" xmlns="http://www.w3.org/2000/svg">
<path d="M720.031 0L0 1309H501.852L525.318 1262.5L686.499 943.18L662.655 933.867C601.442 910.021 561.933 852.197 561.933 786.507C561.933 699.299 632.835 628.388 720.031 628.388C807.228 628.388 878.13 699.299 878.13 786.507C878.13 852.197 838.558 910.021 777.345 933.867L753.501 943.18L914.682 1262.5L938.148 1309H1440L720.031 0ZM302.168 1262.5L524.877 848.673C530.98 868.115 539.976 886.362 551.426 902.973L361.935 1262.56H302.168V1262.5ZM584.393 940.034C595.905 950.164 608.677 959.099 622.58 966.586L473.164 1262.5H414.403L584.33 940.034H584.393ZM720.031 581.89C700.654 581.89 681.97 584.658 664.228 589.692L720.031 486.062L775.772 589.692C758.03 584.658 739.346 581.89 720.031 581.89ZM966.774 1262.5L817.357 966.586C831.26 959.099 844.032 950.164 855.545 940.034L1025.47 1262.5H966.711H966.774ZM1078.07 1262.5L888.574 902.911C900.024 886.362 908.957 868.115 915.123 848.61L1137.83 1262.44H1078.07V1262.5ZM1190.62 1262.5L923.553 766.31C918.079 710.688 890.209 661.547 849.128 628.01L719.969 387.968L590.747 628.01C549.665 661.547 521.795 710.625 516.321 766.31L249.259 1262.5H191.191L720.031 292.832L1248.75 1262.5H1190.68H1190.62ZM720.031 195.683L138.344 1262.5H78.7033L720.031 96.4573L1361.36 1262.44H1301.72L720.031 195.683Z" fill="#0053CE"/>
</svg>
