<?xml version="1.0" encoding="utf-8"?>
<!-- Generator: Adobe Illustrator 25.3.1, SVG Export Plug-In . SVG Version: 6.00 Build 0)  -->
<svg version="1.1" id="Слой_2" xmlns="http://www.w3.org/2000/svg" xmlns:xlink="http://www.w3.org/1999/xlink" x="0px" y="0px"
	 viewBox="0 0 628.6 667.1" style="enable-background:new 0 0 628.6 667.1;" xml:space="preserve">
<style type="text/css">
	.st0{fill:#35363C;}
	.st1{fill:#222328;}
	.st2{fill:#FFCBB3;}
	.st3{fill:#602E1C;}
	.st4{fill:#FF7749;}
	.st5{fill:#A2B3DD;}
	.st6{fill:#CED3F4;}
	.st7{fill:#4E31B5;}
	.st8{fill:#2B2B7D;}
	.st9{fill:#D48975;}
	.st10{fill:none;stroke:#D48975;stroke-linecap:round;stroke-linejoin:round;stroke-miterlimit:10;}
	.st11{fill:none;stroke:#35363C;stroke-linecap:round;stroke-linejoin:round;stroke-miterlimit:10;}
	.st12{fill:#B76447;}
	.st13{fill:#FFD57E;}
	.st14{fill:#E2FCFF;}
	.st15{fill:#74D8E6;}
	.st16{fill:#E674E4;}
	.st17{fill:#F2AE7F;}
	.st18{fill:#6C9D5C;}
	.st19{fill:#00C7FF;}
	.st20{fill:#008AB1;}
	.st21{fill:#E9C3B5;}
	.st22{fill:none;stroke:#B76447;stroke-linecap:round;stroke-linejoin:round;stroke-miterlimit:10;}
	.st23{fill:#D3EA79;}
	.st24{fill:#7FD100;}
</style>
<g id="girl">
	<g id="hair">
		<path class="st0" d="M337.42,126.26c21.6-2.52,40.37,12.51,42.61,31.1c1.82,15.06-7.42,30.67-23.01,37.49
			c-0.26,2.35-0.53,6.3,0.03,11.07c3.81,32.59,39.5,47.1,35.33,62.2c-0.83,3.02-3.58,7.21-13.21,10.65
			c1.94,1.33,13.22,9.34,15.34,24.28c2.73,19.28-12.33,32.09-13.21,32.8c0.11,0.75,1.48,11.66-6.82,18.75
			c-6.25,5.34-13.66,4.82-15.12,4.69c-0.48,1.36-3.88,10.62-13.85,14.49c-11.68,4.53-21.81-2.43-22.58-2.98
			c-1.38,1.07-10.85,8.15-23.43,5.54c-10.54-2.19-16.19-9.71-17.47-11.5c-1.67,0.63-8.6,3.02-15.76-0.24
			c-7.65-3.49-12.45-12.03-11.93-21.49c-4.47-0.98-25.76-6.15-36.21-25.14c-12.03-21.85-4.96-53.39,19.6-73.7
			c-1.31-3.55-2.77-8.97-2.13-15.34c2.49-24.83,32.93-24.93,46.01-54.53c7.49-16.94,4.21-32.06,18.59-43.02
			c3.55-2.71,6.99-4.25,9.32-5.12c-2.06-1.09-5.07-3-7.88-6.21c-1.95-2.23-3.22-4.42-4.06-6.15c1.2,0.71,2.83,1.52,4.86,2.12
			c1.81,0.54,3.44,0.77,4.73,0.86c-0.75-0.65-1.74-1.67-2.55-3.16c-1.51-2.79-1.4-5.48-1.29-6.64c1.32,1.83,3.49,4.39,6.8,6.64
			c2.32,1.58,4.53,2.56,6.28,3.17c-0.42-1.25-1.06-3.69-0.61-6.72c0.13-0.86,0.59-3.92,2.17-5.65c4.92-5.38,22,0.55,22.62,6.52
			c0.25,2.43-2.36,3.61-3.26,8.7C336.87,122.43,337.13,124.73,337.42,126.26z"/>
		<path class="st1" d="M307.13,146.92c1.7-9.61,16.79-16,20.07-12.89c2,1.89-0.35,7.29-1.52,9.43c-4.22,7.71-14.38,11.74-17.56,9.05
			C306.4,151.05,306.97,147.82,307.13,146.92z"/>
		<path class="st1" d="M339.23,136.52c7.98-3.18,21.62,3.29,28.14,14.02c6.06,9.95,6.53,24.5-0.59,31.6
			c-0.95,0.95-3.9,3.89-7.19,3.39c-5.24-0.79-9.4-9.98-9.91-23.62c-2.35,0.3-6.21,0.34-9.64-1.9c-7.17-4.69-8.45-16.77-3.8-21.58
			C336.48,138.17,337.41,137.24,339.23,136.52z"/>
	</g>
	<g id="arm2">
		<path class="st2" d="M276.47,260.6l-2.02,12.67l-5.46,34.23c-0.73,4.61-4.91,7.86-9.56,7.44l-0.59-0.05
			c-5.15-0.48-8.81-5.24-7.94-10.34l6.21-36.09l1.85-10.76c0.75-4.32,4.49-7.37,8.73-7.37c0.53,0,1.07,0.05,1.62,0.15
			C274.05,251.36,277.22,255.85,276.47,260.6z"/>
		<path class="st2" d="M256.93,369.69c0.86,2.98-1.14,5.84-3.62,6.16c-2.14,0.28-4.48-1.36-5.01-3.94
			c-0.7-12.3-0.81-25.89,0.11-40.55c0.53-8.44,1.35-16.44,2.36-23.98c1.55-4.49,6.28-6.99,10.6-5.84c3.93,1.04,6.7,4.88,6.45,9.16
			c-0.46,3.26-1.26,8.33-2.56,14.49c-2.28,10.79-4.03,15.1-5.75,23.42C258.52,353.46,257.33,360.64,256.93,369.69z"/>
		<path class="st2" d="M263.65,399.58c-0.63,0.72-1.69,1.92-3.08,1.88c-6.52-0.2-11.33-27.45-11.33-27.45l0,0
			c-1.17-2.54,0.22-5.43,2.5-6.11c2.14-0.64,4.72,0.75,5.37,3.28c2.65,3.9,4.23,7.4,5.18,9.87
			C264.28,386.17,267.69,395,263.65,399.58z"/>
		<path class="st3" d="M276.47,260.6l-2.02,12.67c-1.94-1.47-4.22-2.96-6.61-4.07c-3.01-1.4-7.11-1.29-10.73-0.74
			c0.11-0.85,0.23-1.72,0.36-2.59c0.42-2.84,0.93-5.57,1.49-8.17c0.47-0.97,3.6-7.37,8.73-7.37c0.53,0,1.07,0.05,1.62,0.15
			C274.05,251.36,277.22,255.85,276.47,260.6z"/>
	</g>
	<g id="arm1">
		<path class="st2" d="M353.06,310.76l-0.55,0.09c-4.34,0.64-8.43-2.41-9.36-6.97l-4.44-21.93l-4.97-24.55
			c-0.95-4.71,1.8-9.35,6.2-10.45c0.64-0.16,1.28-0.24,1.91-0.24c3.82,0,7.29,2.81,8.17,6.95l4.74,22.1l5.22,24.3
			C361.06,305.11,357.87,310.05,353.06,310.76z"/>
		<path class="st2" d="M353.07,365.46c0.37,4.42,3.52,6.94,5.71,6.54c1.51-0.27,2.75-1.97,3.3-3.97c0.23-1.16,5.02-25.63,3.43-40.97
			c-0.67-6.51-2.14-13.94-2.14-13.94c-0.79-3.97-1.59-7.26-2.2-9.59c-1.45-4.49-5.9-6.99-9.96-5.84c-3.69,1.04-6.29,4.88-6.06,9.16
			c0.29,5.31,0.67,8.76,2.4,14.49c1.64,5.44,2.44,11.54,4.03,23.75C352.19,349.89,352.9,356.86,353.07,365.46z"/>
		<path class="st2" d="M353.51,397.53c0.74,0.58,1.96,1.54,3.23,1.22c5.95-1.5,4.55-29.09,4.55-29.09l0,0
			c0.54-2.72-1.36-5.26-3.6-5.47c-2.1-0.2-4.18,1.68-4.23,4.28c-1.6,4.34-2.31,8.08-2.66,10.68
			C350.07,384.56,348.83,393.86,353.51,397.53z"/>
		<path class="st3" d="M354.76,275.76c-1.83,0.46-3.76,1.02-5.75,1.7c-3.92,1.35-7.36,2.92-10.3,4.49l-4.97-24.55
			c-0.95-4.71,1.8-9.35,6.2-10.45c0.64-0.16,1.28-0.24,1.91-0.24c3.82,0,7.29,2.81,8.17,6.95c1.55,6.53,3,13.19,4.33,19.97
			C354.49,274.35,354.63,275.06,354.76,275.76z"/>
	</g>
	<g id="leg1_2_">
		<path class="st4" d="M259.7,581.34c0.58,0.79,1.91,2.57,3.74,2.61c2.14,0.04,3.76-2.35,4.44-3.36c4.6-6.79,3.29-31.44,3.05-35.68
			c0.79-6.02-1.93-10.31-4.25-10.52c-2.11-0.19-5,2.87-6.08,7.57c-1.47,5.37-2.31,9.86-2.8,12.95
			C254.87,573.1,258.1,579.14,259.7,581.34z"/>
		<path class="st5" d="M272.71,454.28c-1.41,3.64-3.35,9.07-5.1,15.81c-2.48,9.54-3.54,17.68-4.98,37.38
			c-0.69,9.41-1.43,21.05-2.04,34.48c0.3,2.65,2.26,4.77,4.73,5.21c2.09,0.37,4.25-0.51,5.6-2.26c1.11-3.79,2.76-9.46,4.76-16.36
			c7.41-25.55,6.92-24.37,7.75-26.66c4.3-11.83,10.1-23.28,11.93-31.55c0.86-3.9,1.59-7.98,1.59-7.98c0.49-2.78,0.85-5.15,1.1-6.93
			c-0.85-5.06-4.02-9.31-8.33-10.76C283.57,442.59,275.61,446.41,272.71,454.28z"/>
		<path class="st6" d="M299,451.46c-0.56,7.12-6.68,12.46-13.46,12.41c-5.73-0.04-11.05-3.92-12.84-9.59
			c-1.67-21.2-2.35-44.85-1.23-70.52c0.89-20.38,2.8-39.32,5.28-56.66c3.06-7.44,10.27-11.98,16.86-11.35
			c8.74,0.85,16.61,10.83,13.68,22.06c-2.05,15.2-3.8,31.06-5.17,47.56C300.21,408.51,299.25,430.58,299,451.46z"/>
	</g>
	<g id="leg1_1_">
		<path class="st4" d="M368.92,572.28c-0.64,0.79-2.13,2.57-4.17,2.61c-2.38,0.04-4.19-2.35-4.95-3.36
			c-5.13-6.79-3.67-31.44-3.4-35.68c-0.89-6.02,2.15-10.31,4.74-10.52c2.35-0.19,5.58,2.87,6.78,7.57
			c1.63,5.37,2.57,9.86,3.13,12.95C374.31,564.04,370.71,570.09,368.92,572.28z"/>
		<path class="st5" d="M354.52,534.37c-4.71-12.15-9.5-27.69-12.32-46.11c-2.21-14.39-2.73-27.35-2.48-38.28
			c-0.47-6.89,4.02-12.49,8.93-13.26c5.81-0.91,12.96,4.85,12.75,13.36c1.53,14.96,2.59,27,3.29,35.32
			c0.72,8.66,1.36,17.16,2.62,30.58c0.62,6.59,1.16,11.99,1.52,15.54c-0.94,3.31-3.74,5.71-7.01,6.05
			C357.46,538.01,354.69,534.58,354.52,534.37z"/>
		<path class="st6" d="M307.92,330.22c-0.18,3.16-0.22,8.21,0.84,14.28c0.83,4.75,2,8.18,2.45,9.5c0.22,0.65,5.98,19.76,17.5,57.98
			c2.39,7.94,5.81,19.78,9.49,34.52c0.61,1.93,2.22,5.96,6.26,8.61c4.92,3.23,12.49,3.76,15.49,0.29c1.62-1.87,1.53-4.44,1.44-5.32
			c-2.14-21.39-5.04-38.43-7.17-49.51c-6.89-36.04-17.87-73.8-17.87-73.81c-0.01-0.01-11.55-14.78-18.78-12.5
			C311.59,316.14,307.27,322.78,307.92,330.22z"/>
	</g>
	<g id="waist">
		<path class="st6" d="M336.62,329.09c0.11,3.43-1.11,6.83-3.6,9.38c-0.58,0.6-1.25,1.17-2.01,1.7c-4.79,3.29-11.75,3.54-18.06,0.65
			c-3.05-1.4-6.5-1.72-9.78-0.91c-3.78,0.94-9.16,1.47-14.98-0.51c-2.03-0.69-3.79-1.58-5.3-2.54c-4.3-2.72-6.65-7.44-6.31-12.29
			c0-0.12,0.01-0.23,0.02-0.35c0.53-5.68,1.06-11.36,1.59-17.04c0.36-3.83,0.72-7.65,1.08-11.48c0.31-3.32,1.87-6.43,4.41-8.75
			c3.99-3.64,10.88-8.19,20.55-8.39c9.6-0.19,16.65,4.02,20.69,7.33c2.44,2,4.06,4.75,4.67,7.75c0.8,3.9,1.59,7.8,2.39,11.69
			c1.46,7.14,2.91,14.28,4.37,21.42C336.51,327.53,336.6,328.31,336.62,329.09z"/>
		<path class="st3" d="M337.02,329.07c-6.38-2.16-14.19-4.21-23.21-5.37c-15.07-1.94-27.96-0.67-37.24,1.04
			c0.01-0.33,0.01-0.65,0.02-0.98c0.16-5.73,0.72-11.26,1.6-16.58l53.79-1.85c1.48,7.02,2.97,14.06,4.47,21.09
			C336.54,326.82,336.93,328.68,337.02,329.07z"/>
	</g>
	<g id="neck">
		<path class="st2" d="M336.58,220.31c0,0-7.06,8.62-26.47,9.21c-19.4,0.59-26.85-14.7-26.85-14.7l17.49-13.85
			c0.86-0.68,1.46-1.63,1.71-2.7c0.82-2.99,1.61-6.09,2.37-9.3c0.78-3.3,1.47-6.51,2.08-9.63c1.32-1.02,6.33-4.61,11.35-3.19
			c6.05,1.71,10.5,9.83,8.1,18.86c-1.11,3.15-2.23,6.31-3.34,9.46c-0.32,0.92-0.22,1.91,0.27,2.72c0.13,0.24,0.31,0.47,0.52,0.67
			C328.06,212.01,332.32,216.16,336.58,220.31z"/>
		<path class="st3" d="M323.1,204.48c-0.07,0.21-0.24,0.77-0.17,1.47c0.05,0.52,0.22,0.95,0.37,1.24c-1.48,0.87-4.88,2.57-8.8,1.78
			c-5.92-1.19-10.7-7.6-10.9-15.77c0.28-1.2,0.57-2.4,0.85-3.6c0.82-3.43,1.64-6.85,2.47-10.26c0.81-0.71,2.11-1.6,3.85-2.38
			c2.07-0.93,4.75-1.59,7.5-0.81c6.22,1.76,10.75,12.7,8.1,18.86C325.59,196.8,324.76,199.36,323.1,204.48z"/>
	</g>
	<g id="bogy">
		<path class="st7" d="M355.47,308.84l2.02,9.83c-15.2-0.96-32.22-1.24-50.75-0.26c-17.14,0.91-32.86,2.76-46.96,5.05
			c2.02-19.69,4.04-39.38,6.06-59.07c-2.63-0.34-6.05-1.04-9.84-2.52c-3.84-1.5-6.86-3.33-9.04-4.87
			c5.27-6.99,9.99-13.15,14.01-18.33c0.54-0.7,1.07-1.38,1.59-2.05c6.18-7.93,9.16-11.62,13.47-16.08
			c4.31-4.47,8.18-7.88,10.92-10.17c4.92,2.89,14.25,7.49,26.81,8.4c9.18,0.67,16.72-0.87,21.62-2.3c0.78,1.17,1.9,2.91,3.18,5.06
			c2.41,4.05,6.16,10.91,11.65,25.97c2.12,5.81,4.69,13.37,7.28,22.39c-3.07,1.37-6.13,2.73-9.2,4.1L355.47,308.84z"/>
		<path class="st8" d="M357.49,318.67c-15.2-0.96-32.22-1.24-50.75-0.26c-17.14,0.91-32.86,2.76-46.96,5.05
			c2.02-19.69,4.04-39.38,6.06-59.07c-2.63-0.34-6.05-1.04-9.84-2.52c-3.84-1.5-6.86-3.33-9.04-4.87
			c5.27-6.99,9.99-13.15,14.01-18.33c9.36,19.94,28.77,50.5,64.38,63.87c10.7,4.02,20.98,5.77,30.12,6.3L357.49,318.67z"/>
	</g>
	<g id="head_1_">
		<path class="st2" d="M330.16,143.43c-0.24,0.68-2.87,8.53,2.22,15.51c4.73,6.49,12.21,6.84,13.1,6.86
			c-0.43,3.81-0.58,8.87,0.41,14.68c0.6,3.5,1.49,6.56,2.41,9.1c-1.74,2.56-5.03,6.67-10.44,9.84c-2.59,1.51-11.74,6.87-20.09,3.8
			c-8.44-3.1-14.09-14.07-12.79-26.75c-1.16-0.1-2.64-0.42-3.95-1.41c-5.66-4.28-3.45-17.54,0.3-18.57
			c1.21-0.33,3.17,0.45,6.46,4.95c2.7-0.5,7.12-1.68,11.65-4.8C326.04,152.1,329.02,146.11,330.16,143.43z"/>
		
			<ellipse transform="matrix(0.6041 -0.7969 0.7969 0.6041 -18.3509 322.4485)" class="st9" cx="315.35" cy="179.69" rx="4.31" ry="7.15"/>
		
			<ellipse transform="matrix(0.6041 -0.7969 0.7969 0.6041 -22.1304 342.3657)" class="st9" cx="333.5" cy="193.46" rx="3.51" ry="5.83"/>
	</g>
</g>
<g id="face1">
	<path class="st9" d="M322.22,193.34L322.22,193.34c-1.11-0.84-1.33-2.42-0.49-3.53l1.69-2.23c0.84-1.11,2.42-1.33,3.53-0.49l0,0
		c1.11,0.84,1.33,2.42,0.49,3.53l-1.69,2.23C324.91,193.96,323.33,194.18,322.22,193.34z"/>
	<path class="st10" d="M317.49,191.22c0,0.34,0.09,3.46,2.75,5.39c2.33,1.69,4.89,1.2,5.31,1.12"/>
	<circle class="st0" cx="322.47" cy="173.47" r="2.26"/>
	<circle class="st0" cx="336.08" cy="183.84" r="2.26"/>
	<path class="st11" d="M317.44,168.25c0.41-0.27,4.34-2.8,8.69-1.12c2.58,1,3.95,2.95,4.44,3.73"/>
	<path class="st11" d="M337.74,176.06c2.24,0.43,4.07,1.93,4.73,3.95c0.63,1.92-0.02,3.6-0.23,4.09"/>
</g>
<g id="coloured_things">
	<g id="coffee_1_">
		<g>
			<path class="st3" d="M509.16,158.85c-0.84-1.66,0.1-4,1.28-5.34c2.78-3.15,7.97-1.95,8.37-1.85c4.42,1.09,7.04,5,8.6,7.32
				c2.66,3.98,1.95,5.41,3.71,6.38c3.84,2.11,7.98-4.3,14.85-3.84c5.26,0.35,11.57,4.69,11.64,9.97c0.07,5.01-5.51,9-10.09,9.93
				c-0.47,0.09-5.4,1.03-9.66-1.72c-3.46-2.24-3.85-5.21-6.68-5.51c-2.46-0.26-3.08,1.89-5.56,1.67c-2.9-0.26-4.92-3.46-6.81-6.45
				c-2.82-4.46-2.15-6.09-4.57-7.81C511.91,159.95,510.02,160.54,509.16,158.85z"/>
			<path class="st3" d="M531.4,145.01c1.03-0.4,1.57,0.73,4.44,1.08c1.6,0.2,2.2-0.05,3.01,0.51c0.86,0.6,1.55,1.82,1.25,2.88
				c-0.11,0.37-0.43,1.07-2.28,1.83c-1.83,0.75-5.72,2.35-7.5,0.29C528.67,149.7,529.71,145.67,531.4,145.01z"/>
			<path class="st3" d="M554.58,146.93c5.46,1.4,4.38,7.23,0.42,5.98C551.03,151.66,549.99,145.75,554.58,146.93z"/>
		</g>
		<g>
			<path class="st3" d="M511.47,181.07c0,0,6.48,5.91,5.69,10.49c-0.79,4.59-5.91,10.5-11.86,9.8c-5.95-0.69-11.07-4.43-11.07-4.43
				c1.32-1.53,2.64-3.06,3.95-4.59c3.48,4.02,8.14,5.55,11.4,4.02c0.23-0.11,2.84-1.38,3.25-3.88c0.47-2.9-2.18-6.45-6.89-7.88
				C507.78,183.43,509.63,182.25,511.47,181.07z"/>
			<path class="st12" d="M516.51,180.69c-3.3,3.54-6.66,7.28-10.05,11.22c-3.47,4.04-6.73,8.01-9.79,11.9
				c-2.71-0.39-7.07-1.35-11.75-4.05c-5-2.88-8.14-6.44-9.83-8.67c0.19-0.42,0.38-0.83,0.56-1.25c4.77-10.5,9.52-21,14.28-31.5
				c1.76-0.04,11.76-0.13,19.45,7.71c4.91,4.99,6.45,10.71,6.96,13.63C516.42,180.07,516.47,180.41,516.51,180.69z"/>
			<path class="st3" d="M516.51,180.69c-6.61,7.7-13.23,15.41-19.84,23.12c-2.71-0.39-7.07-1.35-11.75-4.05
				c-5-2.88-8.14-6.44-9.83-8.67c0.19-0.42,0.38-0.83,0.56-1.25c3.86,0.98,9.94,1.99,17.22,0.94c12.11-1.75,20.18-8.15,23.47-11.1
				C516.4,180.02,516.45,180.36,516.51,180.69z"/>
		</g>
	</g>
	<g id="clock_1_">
		<g>
			<path class="st13" d="M496.89,342.25c2.48,1.61,7.4,5.34,9.71,11.83c3.74,10.51-0.72,24.45-10.64,28.85
				c-4.9,2.18-9.79,1.42-12.36,0.8C488.03,369.9,492.46,356.08,496.89,342.25z"/>
			<path class="st14" d="M497.88,348.34c1.85,1.4,4.12,3.62,5.41,6.87c4.33,10.94-5.3,26.55-12.7,26.45c-1.24-0.02-2.28-0.47-3-0.9
				C491.02,369.96,494.45,359.15,497.88,348.34z"/>
		</g>
		
			<ellipse transform="matrix(0.1807 -0.9835 0.9835 0.1807 33.8849 754.4935)" class="st13" cx="469.82" cy="356.91" rx="26.3" ry="19.88"/>
		<path class="st13" d="M475.02,331.13c2.27,0.35,4.78,0.89,7.46,1.74c6.62,2.1,11.68,5.24,15.18,7.9
			c1.23,3.1,4.65,12.87,1.35,24.76c-3.04,10.96-10.02,17.33-12.67,19.53c-3.11,0.46-7.39,0.73-12.38,0
			c-3.47-0.51-6.42-1.39-8.76-2.27C468.48,365.57,471.75,348.35,475.02,331.13z"/>
		<path class="st13" d="M468.9,332.71c-0.34-0.58-1.88-3.32-0.98-6.61c0.72-2.65,3.03-5.68,6.46-5.9c3.8-0.25,7.22,3.04,7.59,6.75
			c0.38,3.82-2.64,6.44-2.93,6.68C475.66,333.32,472.28,333.02,468.9,332.71z"/>
		<path class="st13" d="M484.22,335c-0.12-0.75-0.61-4.26,1.68-7.35c1.84-2.49,5.51-4.72,9.22-3.55c4.1,1.3,6.34,6.16,5.21,10.21
			c-1.17,4.18-5.42,5.68-5.83,5.82C491.08,338.42,487.65,336.71,484.22,335z"/>
		<path class="st13" d="M461,377.57c-1.17,0.36-3.72,1.33-5.92,3.79c-1.78,2-2.53,4.07-2.85,5.22c3.16,1.55,6.69,3.07,10.59,4.43
			c9.02,3.15,17.28,4.51,24.03,5.06c0.5-1.37,1.43-4.52,0.63-8.38c-0.59-2.85-1.86-4.9-2.69-6.02
			C476.87,380.3,468.93,378.94,461,377.57z"/>
		
			<ellipse transform="matrix(0.1807 -0.9835 0.9835 0.1807 33.8849 754.4935)" class="st14" cx="469.82" cy="356.91" rx="22.87" ry="17.28"/>
		
			<rect x="466.65" y="356" transform="matrix(0.9835 0.1807 -0.1807 0.9835 73.3678 -78.452)" class="st3" width="1.17" height="14.85"/>
		
			<rect x="464.35" y="346.61" transform="matrix(0.7071 -0.7071 0.7071 0.7071 -113.0681 432.0005)" class="st3" width="1.17" height="11.75"/>
		<circle class="st3" cx="468.39" cy="356.6" r="2.35"/>
		<circle class="st3" cx="472.26" cy="339.17" r="2"/>
		<circle class="st3" cx="464.36" cy="375.57" r="2"/>
		<circle class="st3" cx="482.09" cy="359.93" r="2"/>
		<circle class="st3" cx="456.66" cy="354.25" r="2"/>
	</g>
	<g id="pens_1_">
		<g>
			<path class="st15" d="M528.94,470.33L528.94,470.33c-2.6-1.79-3.27-5.34-1.48-7.95l19.98-29.15c1.79-2.6,5.34-3.27,7.95-1.48l0,0
				c2.6,1.79,3.27,5.34,1.48,7.95l-19.98,29.15C535.11,471.45,531.55,472.12,528.94,470.33z"/>
			<path class="st15" d="M526.58,464.44c-0.07,0.41-4.1,14.02-4.1,14.02l12.82-8.05L526.58,464.44z"/>
			<polygon class="st7" points="526.78,463.74 525.91,466.82 532.96,471.87 535.3,470.41 			"/>
		</g>
		<path class="st16" d="M564.54,474.43c-0.11-0.11-0.24-0.19-0.37-0.26c-0.09-0.15-0.18-0.29-0.31-0.41l-0.88-0.88
			c-0.09-0.09-0.18-0.16-0.28-0.23l2.81-2.81c0.61-0.61,0.61-1.61,0-2.23l-1.54-1.54c-0.61-0.61-1.61-0.61-2.23,0l-36.47,36.47
			c-0.3,0.3-0.45,0.69-0.46,1.08l-6.48,9.62l10.16-6.58c0.2-0.08,0.38-0.19,0.54-0.35l30.83-30.83c0.07,0.1,0.14,0.19,0.23,0.28
			l0.44,0.44l-10.57,10.57c-0.61,0.61-0.61,1.61,0,2.23c0.61,0.61,1.61,0.61,2.23,0l12.33-12.33
			C565.16,476.04,565.16,475.05,564.54,474.43z"/>
	</g>
	<g id="food_1_">
		<path class="st17" d="M100.16,494.03c0,0,3.44,14.2,8.59,15.92c5.15,1.72,20.96-2.23,27.66-8.94c6.7-6.7,6.36-8.25,9.62-11.17
			c3.26-2.92,5.15-7.9,3.61-10.14s-18.21-2.23-18.21-2.23L100.16,494.03z"/>
		<path class="st18" d="M92.6,491.06c2.06,1.37-0.52,13.54,3.61,13.21c4.12-0.33,6.19-4.11,9.11-3.25c2.92,0.86,5.33,7.56,8.94,4.81
			s2.41-6.19,6.36-6.19c3.95,0,8.08-1.77,10.48-5.61c2.41-3.84,4.12-0.92,7.04-2.98s2.12-4.64,4.58-5.67
			c2.46-1.03,8.13-2.75,5.21-6.01s-4.81-3.21-3.95-6.59c0.86-3.38,0.69-4.92-3.26-4.92c-3.95,0-0.52-5.5-4.3-5.84
			c-3.78-0.34-0.69-1.08-8.94,1.44S92.6,491.06,92.6,491.06z"/>
		<path class="st17" d="M142.71,478.84c0,0-23.73,16.32-28,18.54c-4.26,2.23-16.13,0.56-19.65,0c-1.27-0.2-2.56-1.02-3.66-2.17
			c-1.96-2.04-3.31-5.11-2.83-7.48c0.74-3.7,10.94-13.53,14.09-17.42c3.15-3.9,17.99-13.46,24.66-13.13
			c6.68,0.33,7.05,1.26,7.05,1.26s-5.56,4.27-2.41,5.01c3.15,0.74,5.38,1.61,5.38,1.61s-6.16,7.33-3.18,9.35
			c0.3,0.2,0.63,0.41,0.98,0.62C138.22,476.89,142.71,478.84,142.71,478.84z"/>
	</g>
	<g id="toothbrush">
		<g>
			<path class="st19" d="M163.12,178.35c-0.82,0.56-3.03,2.5-4.14,2.64c-0.95,0.12-4.23-2.7-5.77-3.43
				c-0.26-0.14-0.47-0.2-0.61-0.18c-0.97,0.14-3.46,1.11-4.99,0.7c-0.43-0.12-2.04-1.6-4.14-3.7c-0.85-0.84-1.76-1.78-2.71-2.77
				c-5.16-5.38-11.3-12.29-11.3-13.22c0-1.52,0.13-2.63,0.13-2.63s-2.21,1.66-5.68-1.52c-3.46-3.19-9.56-9.84-9.84-11.37
				c-0.28-1.52,0-4.3,4.44-6.51c4.43-2.22,18.43-10.81,20.79-10.4c2.35,0.42,3.32,3.19,2.21,4.71c-0.23,0.32-0.45,0.61-0.65,0.89
				c-0.76,1.05-1.29,1.75-1.29,1.75l0.3,0.57l4.83,9.27c0,0,3.74,0.55,4.44,3.6c0.69,3.05,0,5.41,0,5.41s3.68,4.03,7.25,8.13
				c0.99,1.13,1.96,2.26,2.84,3.31c2.02,2.41,3.59,4.41,3.77,5.05c0.55,1.94-0.97,4.3-0.97,4.3S163.93,177.8,163.12,178.35z"/>
			
				<ellipse transform="matrix(0.8213 -0.5705 0.5705 0.8213 -61.7434 106.9526)" class="st14" cx="139.85" cy="152.03" rx="6.43" ry="8.75"/>
			<path class="st14" d="M159.23,163.6c-2.33,0.72-5.14,1.88-8.05,3.76c-3.45,2.24-5.96,4.81-7.71,7.02
				c-0.85-0.84-1.76-1.78-2.71-2.77c1.62-2.24,4.1-5.04,7.72-7.49c2.86-1.93,5.64-3.11,7.91-3.83
				C157.38,161.42,158.35,162.55,159.23,163.6z"/>
			<path class="st20" d="M139.57,133.31l0.3,0.57c-2.37,0.87-4.84,1.86-7.38,2.98c-4.8,2.1-9.08,4.34-12.83,6.53v-1.84
				c3.22-2.24,7.35-4.71,12.37-6.87c3.15-1.36,6.13-2.37,8.83-3.12C140.1,132.61,139.57,133.31,139.57,133.31z"/>
			<path class="st20" d="M163.12,178.35c-0.82,0.56-3.03,2.5-4.14,2.64c-0.95,0.12-4.23-2.7-5.77-3.43v-0.01
				c0.32-0.65,1.47-2.74,4.02-3.92c2.11-0.98,4.03-0.8,4.8-0.68C162.03,172.95,163.93,177.8,163.12,178.35z"/>
		</g>
		<g>
			<path class="st19" d="M135.03,190.99l-69.12-23.47c-1.29-0.44-1.97-1.83-1.54-3.12l0,0c0.44-1.29,1.83-1.97,3.12-1.54
				l69.12,23.47c1.29,0.44,1.97,1.83,1.54,3.12l0,0C137.71,190.74,136.32,191.43,135.03,190.99z"/>
			<path class="st19" d="M74.26,177.91l-9.52-3.23c-1.9-0.65-2.92-2.71-2.28-4.62l2.07-6.08l16.42,5.58l-2.07,6.08
				C78.23,177.54,76.16,178.55,74.26,177.91z"/>
			<path class="st14" d="M73.54,176.44l-7.33-2.49c-1.68-0.57-2.58-2.4-2.01-4.08v0c0.75-2.21,2.95-3.6,5.26-3.3
				c1.05,0.13,2.2,0.38,3.42,0.83c0.98,0.36,1.85,0.78,2.61,1.23c2,1.17,2.88,3.61,2.13,5.81l0,0
				C77.05,176.11,75.22,177.01,73.54,176.44z"/>
		</g>
	</g>
	<g id="documents_1_">
		<g>
			<path class="st21" d="M199.58,360.1c-0.06,1.37-0.14,2.73-0.23,4.07c-8.58-0.37-17.16-0.74-25.73-1.1l-8.89-57.74
				c3.13,0.51,6.47,1.16,10,1.99c2.14,0.5,4.35,1.07,6.61,1.71c6.31,1.81,11.94,3.87,16.84,5.95c0.65,5.74,1.16,11.8,1.46,18.17
				C200.1,342.74,200.01,351.75,199.58,360.1z"/>
			<path class="st9" d="M199.58,360.1c-0.06,1.37-0.14,2.73-0.23,4.07c-8.58-0.37-17.16-0.74-25.73-1.1l-8.89-57.74
				c3.13,0.51,6.47,1.16,10,1.99c4.24,12.56,6.94,22.47,8.73,29.84c1.36,5.6,2.87,12.5,8.8,18.09
				C194.61,357.46,197.16,359.02,199.58,360.1z"/>
		</g>
		<g>
			<path class="st21" d="M154.37,364.17c-2.38-0.29-5.08-0.48-8.05-0.44c-1.94,0.02-3.76,0.13-5.44,0.3
				c-0.44,0.04-0.88,0.09-1.3,0.14c-6.86-11.43-15.49-24.11-26.32-37.2c-8.15-9.85-16.26-18.39-23.92-25.71
				c3.64-3.08,8.84-6.82,15.66-9.96c8.09-3.73,15.45-5.23,20.66-5.87c1.21,1.69,2.44,3.49,3.69,5.4
				c4.36,6.67,8.85,14.66,12.84,23.96C150.44,334.06,153.35,351.59,154.37,364.17z"/>
			<path class="st9" d="M154.37,364.17c-2.38-0.29-5.08-0.48-8.05-0.44c-1.94,0.02-3.76,0.13-5.44,0.3
				c-2.29-9.02-5.94-19.93-11.88-31.65c-7.2-14.22-15.44-25.03-22.16-32.62c3.6-1.86,7.68-3.75,12.23-5.5
				c3.61-1.38,7.05-2.51,10.28-3.43c4.36,6.67,8.85,14.66,12.84,23.96C150.44,334.06,153.35,351.59,154.37,364.17z"/>
		</g>
		<g>
			<path class="st21" d="M58.44,364.17c1.41-7.79,3.72-17.11,7.57-27.28c3.99-10.53,8.63-19.28,12.87-26.19
				c8.07,4.94,17.82,11.99,27.52,21.9c15.39,15.73,24.13,32,29.03,43.29c-0.56,1.08-1.22,2.23-2.02,3.41
				c-1.91,2.83-3.98,4.99-5.81,6.6c-12.15-6.89-28.43-14.24-48.48-18.58C71.78,365.73,64.85,364.74,58.44,364.17z"/>
			<g>
				<line class="st22" x1="86.96" y1="328.88" x2="76.49" y2="355.34"/>
				<line class="st22" x1="94.74" y1="334.55" x2="85.21" y2="358.67"/>
				<line class="st22" x1="100.2" y1="338.85" x2="91.34" y2="361.31"/>
				<line class="st22" x1="105.56" y1="342.5" x2="97.33" y2="363.37"/>
				<line class="st22" x1="109.82" y1="346.25" x2="102.13" y2="365.79"/>
			</g>
		</g>
		<g>
			<path class="st21" d="M111.3,301.26c6.38,7.73,13.24,17.15,19.79,28.33c8.89,15.17,14.76,29.43,18.7,41.32
				c4.73-1.7,11.34-3.49,19.36-3.91c5.46-0.29,10.26,0.13,14.14,0.75c-1.01-13.59-3.46-30.05-8.92-48.16
				c-3.19-10.6-6.9-20.04-10.66-28.27c-5.78-0.73-13.22-1.08-21.75,0C128.41,293.03,117.93,297.65,111.3,301.26z"/>
			<g>
				<path class="st22" d="M131.12,310.51c4.5-1.79,10.04-3.51,16.52-4.57c5.08-0.83,9.75-1.1,13.84-1.06"/>
				<path class="st22" d="M135.74,320.9c4.3-1.63,9.59-3.2,15.76-4.18c4.83-0.77,9.26-1.02,13.14-1"/>
				<path class="st22" d="M141.03,330.23c4.13-1.49,9.19-2.93,15.07-3.84c4.61-0.71,8.82-0.95,12.51-0.94"/>
				<path class="st22" d="M144.2,338.82c3.96-1.37,8.81-2.7,14.42-3.54c4.4-0.66,8.42-0.89,11.94-0.89"/>
				<path class="st22" d="M147.4,346.65c3.8-1.27,8.45-2.5,13.83-3.28c4.21-0.61,8.05-0.84,11.41-0.85"/>
			</g>
		</g>
	</g>
</g>
<g id="green1">
	<path class="st23" d="M340.57,57.3L340.57,57.3v-1.96c0-2.64-2.14-4.78-4.78-4.78h-47.74c-2.64,0-4.78,2.14-4.78,4.78v16.4
		c0,2.64,2.14,4.78,4.78,4.78h47.74c2.64,0,4.78-2.14,4.78-4.78v-1.97l0,0c3.41,0,6.18-2.77,6.18-6.18v-0.11
		C346.75,60.07,343.99,57.3,340.57,57.3z"/>
	<path class="st24" d="M295.5,72.63h-3.66c-1.58,0-2.86-1.28-2.86-2.86V57.76c0-1.58,1.28-2.86,2.86-2.86h3.66
		c1.58,0,2.86,1.28,2.86,2.86v12.01C298.35,71.35,297.08,72.63,295.5,72.63z"/>
	<path class="st24" d="M331.96,72.63h-3.66c-1.58,0-2.86-1.28-2.86-2.86V57.76c0-1.58,1.28-2.86,2.86-2.86h3.66
		c1.58,0,2.86,1.28,2.86,2.86v12.01C334.81,71.35,333.53,72.63,331.96,72.63z"/>
	<path class="st24" d="M319.99,72.63h-3.66c-1.58,0-2.86-1.28-2.86-2.86V57.76c0-1.58,1.28-2.86,2.86-2.86h3.66
		c1.58,0,2.86,1.28,2.86,2.86v12.01C322.85,71.35,321.57,72.63,319.99,72.63z"/>
	<path class="st24" d="M307.75,72.63h-3.66c-1.58,0-2.86-1.28-2.86-2.86V57.76c0-1.58,1.28-2.86,2.86-2.86h3.66
		c1.58,0,2.86,1.28,2.86,2.86v12.01C310.6,71.35,309.32,72.63,307.75,72.63z"/>
</g>
</svg>
