<svg xmlns="http://www.w3.org/2000/svg" xmlns:xlink="http://www.w3.org/1999/xlink" viewBox="0 0 386.49 206.5"><defs><style>.cls-1{isolation:isolate;}.cls-2{fill:url(#linear-gradient);}.cls-3{fill:url(#linear-gradient-2);}.cls-4{fill:url(#linear-gradient-3);}.cls-5{fill:#fff;}.cls-10,.cls-14,.cls-6{fill:none;stroke-miterlimit:10;}.cls-6{stroke:#eb6361;}.cls-7{fill:#d8d8d8;}.cls-20,.cls-7{mix-blend-mode:multiply;}.cls-8{fill:#eb6361;}.cls-9{fill:url(#linear-gradient-4);}.cls-10{stroke:#009752;}.cls-11{fill:#ffbd9f;}.cls-12{fill:url(#linear-gradient-5);}.cls-13{fill:url(#linear-gradient-6);}.cls-14{stroke:#386ab0;}.cls-15{fill:#386ab0;}.cls-16{fill:#009752;}.cls-17{fill:#7e3d3e;}.cls-18{fill:url(#linear-gradient-7);}.cls-19{fill:url(#linear-gradient-8);}.cls-20{fill:#e6e6e6;}.cls-21{fill:url(#linear-gradient-9);}</style><linearGradient id="linear-gradient" x1="157.77" y1="44.6" x2="331.11" y2="154.99" gradientTransform="translate(-3.5 -0.78) rotate(-0.14)" gradientUnits="userSpaceOnUse"><stop offset="0" stop-color="#e8e8e8"/><stop offset="1" stop-color="#dcdcdc"/></linearGradient><linearGradient id="linear-gradient-2" x1="100.78" y1="117.3" x2="215.3" y2="117.3" gradientTransform="translate(-36.72 88.93) rotate(-28.3)" xlink:href="#linear-gradient"/><linearGradient id="linear-gradient-3" x1="166.67" y1="168.19" x2="263.53" y2="168.19" gradientTransform="translate(39.84 -41.19) rotate(12.05)" xlink:href="#linear-gradient"/><linearGradient id="linear-gradient-4" x1="-79.19" y1="31.58" x2="4.72" y2="31.58" gradientTransform="translate(110.39 137.65) rotate(9.33)" xlink:href="#linear-gradient"/><linearGradient id="linear-gradient-5" x1="321.73" y1="160.78" x2="393.76" y2="160.78" gradientTransform="translate(-3.5 -0.78) rotate(-0.14)" gradientUnits="userSpaceOnUse"><stop offset="0" stop-color="#ffad88"/><stop offset="1" stop-color="#ff9786"/></linearGradient><linearGradient id="linear-gradient-6" x1="294.58" y1="148.56" x2="347.81" y2="148.56" xlink:href="#linear-gradient-5"/><linearGradient id="linear-gradient-7" x1="-72.62" y1="4.48" x2="-43.53" y2="36.17" gradientTransform="translate(110.39 137.65) rotate(9.33)" gradientUnits="userSpaceOnUse"><stop offset="0" stop-color="#8b5151"/><stop offset="1" stop-color="#7e3d3e"/></linearGradient><linearGradient id="linear-gradient-8" x1="-4.46" y1="34.75" x2="-105.7" y2="28.9" gradientTransform="translate(110.39 137.65) rotate(9.33)" gradientUnits="userSpaceOnUse"><stop offset="0" stop-color="#4c2837"/><stop offset="0.17" stop-color="#542c38"/><stop offset="1" stop-color="#7e3d3e"/></linearGradient><linearGradient id="linear-gradient-9" x1="289.75" y1="114.6" x2="316.34" y2="114.6" xlink:href="#linear-gradient-5"/></defs><title>beginners</title><g class="cls-1"><g id="Layer_1" data-name="Layer 1"><path class="cls-2" d="M322.59,197.94c-9.45-3.49-11.74-4.69-20.81-9.08a46.62,46.62,0,0,1-19.72-18.43,20.1,20.1,0,0,0-3.21-3.53s-14.47,3.17-16.53,3.7c-2.87.74-5.9,0.84-8.8,1.67-3.9,1.11-8.14,2.15-11.9,3.64-2.61,1-6.06,4-8.9,1.79a6.66,6.66,0,0,1-1.92-3.83,331.68,331.68,0,0,1-7.68-43.79c-0.69-6.44-2.62-11.91-4-18.21-1.51-7-2.86-14-3.81-21.15C214,80.39,211.26,70,211,59.6a6.59,6.59,0,0,1,.81-4c2.63-3.71,11.9-3.78,15.91-4.83a158.93,158.93,0,0,1,21.08-3.92c14.07-1.69,28.27-1.78,42.42-1.4-0.78,0,13.15,44,14.84,47.85,6.74,15.53,14.77,30.45,22.76,45.35,6.68,12.45,48.27,79.12,29.76,90.17C342.47,238.42,343.11,205.53,322.59,197.94Z" transform="translate(-4.29 -26)"/><rect class="cls-3" x="118.99" y="66.16" width="78.09" height="102.28" rx="3.83" ry="3.83" transform="translate(70.2 -86.9) rotate(28.3)"/><rect class="cls-4" x="175.81" y="116.73" width="78.58" height="102.92" rx="3.94" ry="3.94" transform="translate(-34.65 22.6) rotate(-12.05)"/><rect class="cls-5" x="175.55" y="116.98" width="76.47" height="100.17" rx="3.83" ry="3.83" transform="translate(-34.45 22.3) rotate(-12.05)"/><rect class="cls-6" x="180.93" y="121.82" width="67.25" height="90.15" rx="2.66" ry="2.66" transform="translate(-34.4 22.45) rotate(-12.05)"/><path class="cls-7" d="M200.24,118.74l-30.87,6.59a3.51,3.51,0,0,0-2.7,4.16l7.89,37Z" transform="translate(-4.29 -26)"/><path class="cls-8" d="M233.27,176.13c2,9.36-2.18,16.94-15.43,19.77-4.94,1.06-11.51,1.28-15.24.29L201,188.8a34.29,34.29,0,0,0,14.86.21c8.9-1.9,10.76-6.09,9.76-10.77-1.17-5.47-3.76-6.3-10.6-5.73-12.39,1.06-17.76-1.17-19.69-10.21-1.55-7.25,1-15.18,14.48-18,6.39-1.37,11.12-1.2,13.89-.48l1.53,7.19a33.54,33.54,0,0,0-13.54.2c-7.71,1.65-9.68,5.37-8.78,9.59,1.14,5.34,4.37,5.62,11.08,5.08C224.62,165,231.12,166,233.27,176.13Z" transform="translate(-4.29 -26)"/><path class="cls-7" d="M241.46,113.53a3.51,3.51,0,0,0-4.16-2.7L208.51,117q0.47,2.31,1,4.62c1.36,6.31,3.29,11.78,4,18.21a331.68,331.68,0,0,0,7.68,43.79,6.65,6.65,0,0,0,1.92,3.83c2.84,2.23,6.3-.75,8.9-1.79,3.76-1.5,8-2.53,11.9-3.64,2.9-.83,5.93-0.93,8.8-1.67,0.46-.12,1.53-0.36,2.91-0.68Z" transform="translate(-4.29 -26)"/><path class="cls-9" d="M20.11,198.77c3.14-1.55,13.78-1.5,17-.2s6.25,3.23,9.58,4.32c5.34,1.75,11.22,1.21,16.55-.56s10.19-4.71,14.88-7.79c4.2-2.76,8.8-6.64,8.3-11.64-0.22-2.2-1.46-4.28-1.21-6.47a9.41,9.41,0,0,1,1.62-3.81c9.2-14.76,21.24-30.45,30-45.45-0.68-.94-2.14-0.55-3.19-0.06-15.36,7.26-28.71,18.1-41.77,29a115.55,115.55,0,0,1-14.3,10.74c-5.16,3.09-10.78,5.34-15.93,8.44-5.92,3.57-11.1,8.2-16.25,12.81" transform="translate(-4.29 -26)"/><rect class="cls-5" x="117.17" y="61.59" width="78.09" height="102.28" rx="3.83" ry="3.83" transform="translate(67.81 -86.58) rotate(28.3)"/><rect class="cls-10" x="121.91" y="66.7" width="68.61" height="92.06" rx="1.82" ry="1.82" transform="translate(67.81 -86.58) rotate(28.3)"/><path class="cls-7" d="M114.48,124.62c-1.85-1.1-4.95,2.84-6.16,3.9A40.24,40.24,0,0,0,102,135a20.12,20.12,0,0,0-2.78,5.4l9.32,4.78c1.53-6.33,9-19,9.27-20.11C118.19,123.36,116.36,125.74,114.48,124.62Z" transform="translate(-4.29 -26)"/><path class="cls-11" d="M390.78,208.15A129.53,129.53,0,0,1,354,139c-1.13-6.21-1.82-12.57-4.15-18.43a53,53,0,0,0-7.07-12,112.31,112.31,0,0,0-14.61-16c-3.78-3.42-7.8-6.58-11.44-10.14-4.15-4-7.86-8.64-12.7-11.83s-11.29-4.77-16.45-2.13c-4.62,2.36-7.11,7.42-9,12.26-1.28,3.33-2.42,6.83-2.1,10.38,0.35,3.81,2.35,7.23,4.31,10.52,2.44,4.1,5.87,7.34,6.72,12,1.89,10.48,3.8,21,7.54,31s9.46,19.43,17.81,26c4.4,3.48,9.49,6.15,13.31,10.27s6,9.2,7.91,14.38c4.88,13.41,14.18,37,14.18,37C377.67,234.08,390.78,208.15,390.78,208.15Z" transform="translate(-4.29 -26)"/><path class="cls-12" d="M349.83,120.6a53,53,0,0,0-7.07-12,112.31,112.31,0,0,0-14.61-16c-1.86-1.68-3.78-3.3-5.68-4.94a20.55,20.55,0,0,0-3.37,6.42c-3.23,10.61,6.83,25.32,12,33.73a37.19,37.19,0,0,0,5.78,7.74c2.79,2.63,7.08,10.43,9,7.12,6.71-11.65,5.94,14.41,6.41,22.31a298.93,298.93,0,0,0,9.92,60.66c0.45,1.66.92,3.32,1.43,5,18.63-5.7,27.12-22.47,27.12-22.47A129.53,129.53,0,0,1,354,139C352.86,132.82,352.17,126.46,349.83,120.6Z" transform="translate(-4.29 -26)"/><path class="cls-13" d="M339.46,136.25c-4.58-6.47-13.15-8.7-21.06-9.12-9.26-.49-18.84,1-26.86,5.61l-0.13.08a109.58,109.58,0,0,0,3.64,11.88c3.08,8.2,7.5,16.06,13.62,22.27,0.19-1.7.33-3.43,1.45-4.67,5-5.51,19.24,4.25,25.47,4.53,10.73,0.47,9.79-12.84,8-20.18C342.66,143,341.63,139.31,339.46,136.25Z" transform="translate(-4.29 -26)"/><rect class="cls-5" x="231.26" y="30.19" width="97.87" height="128.2" rx="3.83" ry="3.83" transform="translate(-12.29 2.4) rotate(-5.72)"/><rect class="cls-14" x="237.5" y="36.6" width="85.4" height="115.38" rx="2.67" ry="2.67" transform="translate(-12.29 2.4) rotate(-5.72)"/><path class="cls-15" d="M304,104.92c1.18,12.53-5.43,21.78-23.16,23.45-6.62.62-15.23-.08-19.94-1.95L260,116.55a45.08,45.08,0,0,0,19.37,2.54c11.91-1.12,15-6.31,14.39-12.57-0.69-7.32-3.94-8.8-13-9.1-16.34-.51-23-4.24-24.14-16.33-0.91-9.7,3.67-19.66,21.66-21.35,8.56-.81,14.7.13,18.21,1.49l0.91,9.62a44.05,44.05,0,0,0-17.7-1.8c-10.32,1-13.45,5.54-12.92,11.18,0.67,7.15,4.85,8,13.69,8.32C294.46,89.09,302.78,91.43,304,104.92Z" transform="translate(-4.29 -26)"/><path class="cls-16" d="M137.64,103.88c6.76-13.1,15.31-22.39,30.2-14.7s12.28,20,5.52,33.13S158,144.69,143.15,137,130.88,117,137.64,103.88Zm7.11,3.67c-5.68,11-7.11,18.63,1.66,23.16s14.17-1.06,19.84-12.06,7.11-18.63-1.67-23.16S150.42,96.54,144.74,107.54Z" transform="translate(-4.29 -26)"/><path class="cls-7" d="M290.23,115a7.08,7.08,0,0,0,1.92,2.47c2.22,1.61,5.38.54,8,1.28,2.46,0.69,4.21,2.91,5.22,5.25s1.45,4.89,2.31,7.3c1.72,4.83,5,8.91,8.28,12.87,2.75,3.35,6,7,10.32,7.29,2.11-8.88,1.83-18.19.44-27.21-0.89-5.77-2.35-11.73-6.18-16.14-5-5.79-13-7.8-19.67-11.56-3.75-2.11-11.69-7.24-14.36-1.07C284.16,101,287.6,110.18,290.23,115Z" transform="translate(-4.29 -26)"/><path class="cls-11" d="M334.35,166.94a43.72,43.72,0,0,1-21.48-34.12c-0.29-4,0-8-.75-11.86s-2.6-7.84-6.05-9.79-8.13-1.53-11.52-3.94c-2.69-1.91-4.48-5.46-5.65-8.42l-2-4.93a4.25,4.25,0,0,1-.44-2.22,3.8,3.8,0,0,1,1.31-2c6.94-6.53,10.5-2.2,16.93,2.34s13.1,9.22,19.61,13.88a97.76,97.76,0,0,1,12.76,10.25,49.42,49.42,0,0,1,14.19,34.14c0,4.78-.78,9.85-3.92,13.45C344,167.61,338.84,169.51,334.35,166.94Z" transform="translate(-4.29 -26)"/><path class="cls-17" d="M117.91,120c-1.21-1.86-3.2-2.71-4.9-1.09s-17.9,12.69-24.1,19.3-10,6.71-10,6.71c0.61-4.15-5.62-6.24-7.35-6.9s-0.49-4.8-3.67-6-6.7-.39-7.81-4.43-6.59-6.11-15.59,2-15.87,16.74-19.87,31.7L4.29,169.81s11.34,16,12,31.71c5.57-4.07,12.27-8.71,16.74-11,9-4.53,17.2,1.55,22.94,2.07a6.1,6.1,0,0,0,1.23,0c14.64,2.3,15.22-3.92,23.34-10.08,7.45-5.64,6.93-12.94,3.68-16.73,11.88-15.79,30.31-34.4,33.2-37.57C120.48,124.85,119.13,121.88,117.91,120Z" transform="translate(-4.29 -26)"/><path class="cls-18" d="M68.85,135.14a4.37,4.37,0,0,1,.22,2,6,6,0,0,0,4,5.45,27.16,27.16,0,0,1,3.12.81,2.27,2.27,0,0,1,1.47,2.55,10.08,10.08,0,0,0,1.23-1.47c0.09-3.83-5.71-5.8-7.38-6.43s-0.49-4.8-3.67-6-6.7-.39-7.81-4.43-6.59-6.11-15.59,2C35.77,137.52,29.05,145.87,25,160a226.89,226.89,0,0,1,15.49-22.44c2.6-3.32,5.46-6.69,9.37-8.26s9.14-.67,11.14,3a5.25,5.25,0,0,0,1,1.55C63.84,135.51,67.71,133,68.85,135.14Z" transform="translate(-4.29 -26)"/><path class="cls-19" d="M118.76,126.22l-0.27-.09L85,156.65a64.82,64.82,0,0,1-7.42,6.13,64.83,64.83,0,0,1-9.52,5c-7,3.18-14.29,6.42-22,6.62-4.8.13-9.65-.93-14.37-0.08a36,36,0,0,0-5.89,1.77l-15,5.46c2.63,5.71,5.11,12.88,5.41,20,5.57-4.07,12.27-8.71,16.74-11,9-4.53,17.2,1.55,22.94,2.07a6.1,6.1,0,0,0,1.23,0c14.64,2.3,15.22-3.92,23.34-10.08,7.45-5.64,6.93-12.94,3.68-16.73,11.88-15.79,30.31-34.4,33.2-37.57A7.8,7.8,0,0,0,118.76,126.22Z" transform="translate(-4.29 -26)"/><path class="cls-20" d="M84.21,165.78s-10.4,14.16-20.21,19,5.66,5.4,16.54-2.27C88,176.86,87.47,169.56,84.21,165.78Z" transform="translate(-4.29 -26)"/><path class="cls-21" d="M313.16,133.29l-0.44-17.95c-0.12-5-.52-10.61-4.3-13.88-4.91-4.25-12.86-2.26-18.4-5.64a6.58,6.58,0,0,1-3.08-5.15,2.58,2.58,0,0,0-.42,1,4.25,4.25,0,0,0,.44,2.22l2,4.93c1.17,3,3,6.52,5.65,8.42,3.39,2.41,7.93,1.91,11.52,3.94s5.34,5.89,6.05,9.79,0.46,7.9.75,11.86q0.1,1.32.28,2.64C313.18,134.74,313.18,134,313.16,133.29Z" transform="translate(-4.29 -26)"/></g></g></svg>