<svg xmlns="http://www.w3.org/2000/svg" xmlns:xlink="http://www.w3.org/1999/xlink" viewBox="0 0 412.9 236.9"><defs><style>.cls-1{isolation:isolate;}.cls-2{fill:url(#linear-gradient);}.cls-3{fill:#015072;}.cls-4{fill:#f3f3f3;}.cls-5{fill:#d8d8d8;}.cls-15,.cls-5{mix-blend-mode:multiply;}.cls-6{fill:url(#linear-gradient-2);}.cls-7{fill:#ffa838;}.cls-8{fill:#ffbd9f;}.cls-9{fill:url(#linear-gradient-3);}.cls-10{fill:url(#linear-gradient-4);}.cls-11{fill:#973333;}.cls-12{fill:#7e3d3e;}.cls-13{fill:url(#linear-gradient-5);}.cls-14{fill:url(#linear-gradient-6);}.cls-15{fill:#e6e6e6;}.cls-16{fill:url(#linear-gradient-7);}</style><linearGradient id="linear-gradient" x1="151.48" y1="23.37" x2="350.4" y2="150.05" gradientTransform="translate(-3.48 -0.74) rotate(-0.14)" gradientUnits="userSpaceOnUse"><stop offset="0" stop-color="#e8e8e8"/><stop offset="1" stop-color="#dcdcdc"/></linearGradient><linearGradient id="linear-gradient-2" x1="30.15" y1="168.68" x2="121.87" y2="168.68" xlink:href="#linear-gradient"/><linearGradient id="linear-gradient-3" x1="342.05" y1="160.58" x2="420.79" y2="160.58" gradientTransform="translate(-3.48 -0.74) rotate(-0.14)" gradientUnits="userSpaceOnUse"><stop offset="0" stop-color="#ffad88"/><stop offset="1" stop-color="#ff9786"/></linearGradient><linearGradient id="linear-gradient-4" x1="312.38" y1="147.22" x2="370.56" y2="147.22" xlink:href="#linear-gradient-3"/><linearGradient id="linear-gradient-5" x1="37.32" y1="139.07" x2="69.12" y2="173.71" gradientTransform="translate(-3.48 -0.74) rotate(-0.14)" gradientUnits="userSpaceOnUse"><stop offset="0" stop-color="#8b5151"/><stop offset="1" stop-color="#7e3d3e"/></linearGradient><linearGradient id="linear-gradient-6" x1="111.84" y1="172.15" x2="1.17" y2="165.75" gradientTransform="translate(-3.48 -0.74) rotate(-0.14)" gradientUnits="userSpaceOnUse"><stop offset="0" stop-color="#4c2837"/><stop offset="0.17" stop-color="#542c38"/><stop offset="1" stop-color="#7e3d3e"/></linearGradient><linearGradient id="linear-gradient-7" x1="307.09" y1="110.1" x2="336.16" y2="110.1" xlink:href="#linear-gradient-3"/></defs><title>beginners</title><g class="cls-1"><g id="Layer_1" data-name="Layer 1"><path class="cls-2" d="M341.09,199.56c-10.84-4-13.48-5.39-23.88-10.42A53.5,53.5,0,0,1,294.58,168a23.06,23.06,0,0,0-3.68-4.05s-16.6,3.64-19,4.25c-3.3.85-6.77,1-10.1,1.91-4.48,1.27-9.35,2.46-13.66,4.18-3,1.19-7,4.62-10.22,2.06-1.31-1-1.8-2.77-2.2-4.4a380.61,380.61,0,0,1-8.81-50.25c-0.79-7.39-3-13.66-4.57-20.9-1.73-8-3.28-16.12-4.37-24.27-1.58-11.86-4.68-23.73-5-35.71a7.56,7.56,0,0,1,.93-4.63c3-4.26,13.65-4.34,18.25-5.54a182.38,182.38,0,0,1,24.19-4.5c16.14-1.94,32.44-2,48.68-1.61-0.89,0,15.09,50.44,17,54.91,7.74,17.82,16.94,34.94,26.12,52,7.67,14.29,55.39,90.8,34.15,103.47C363.9,246,364.64,208.27,341.09,199.56Z" transform="translate(-4.94 -2.22)"/><rect class="cls-3" x="172.35" y="106.65" width="87.75" height="114.94" rx="4.02" ry="4.02" transform="translate(-34.43 46.52) rotate(-12.05)"/><path class="cls-4" d="M238.59,174.53c2.29,10.74-2.5,19.44-17.7,22.68-5.67,1.21-13.21,1.47-17.49.33l-1.81-8.47a39.35,39.35,0,0,0,17.06.24c10.21-2.18,12.35-7,11.21-12.36-1.34-6.28-4.31-7.23-12.16-6.58-14.22,1.21-20.38-1.35-22.59-11.71-1.78-8.32,1.19-17.42,16.62-20.71,7.34-1.57,12.76-1.38,15.94-.55l1.76,8.25a38.49,38.49,0,0,0-15.54.23c-8.85,1.89-11.1,6.17-10.07,11,1.31,6.13,5,6.45,12.71,5.83C228.67,161.78,236.12,163,238.59,174.53Z" transform="translate(-4.94 -2.22)"/><path class="cls-5" d="M248,102.69a4,4,0,0,0-4.77-3.1l-33,7q0.54,2.65,1.1,5.3c1.56,7.24,3.78,13.51,4.57,20.9a380.62,380.62,0,0,0,8.81,50.25c0.4,1.62.88,3.36,2.2,4.4,3.26,2.56,7.22-.87,10.22-2.06,4.31-1.72,9.18-2.91,13.66-4.18,3.33-.95,6.8-1.07,10.1-1.91,0.52-.13,1.75-0.42,3.34-0.78Z" transform="translate(-4.94 -2.22)"/><path class="cls-6" d="M27.2,215.27c3.11-2.24,14.59-4.1,18.34-3.28s7.31,2.36,11.1,2.94c6.07,0.93,12.32-.71,17.75-3.58S84.52,204.44,89,200.28c4-3.73,8.3-8.74,6.85-14-0.63-2.33-2.34-4.35-2.47-6.76a10.29,10.29,0,0,1,1.07-4.4c7.27-17.57,17.43-36.66,24.22-54.41-0.9-.89-2.41-0.21-3.45.51-15.26,10.59-27.7,24.68-39.82,38.75-4.26,4.94-8.51,9.93-13.48,14.16s-10.67,7.69-15.66,12c-5.74,4.91-10.5,10.84-15.22,16.74" transform="translate(-4.94 -2.22)"/><rect class="cls-7" x="105.35" y="43.09" width="89.61" height="117.38" rx="4.02" ry="4.02" transform="translate(61.25 -61.23) rotate(28.3)"/><path class="cls-5" d="M115.48,121.21c-2.21-1.31-5.89,3.38-7.34,4.64a47.94,47.94,0,0,0-7.56,7.67A24,24,0,0,0,97.28,140l15,8.07c1.82-7.54,6.83-25,7.16-26.33C119.91,119.7,117.73,122.54,115.48,121.21Z" transform="translate(-4.94 -2.22)"/><path class="cls-8" d="M417.84,212.49a141.59,141.59,0,0,1-40.22-75.55c-1.23-6.79-2-13.74-4.54-20.15a58,58,0,0,0-7.73-13.08,122.77,122.77,0,0,0-16-17.52c-4.13-3.74-8.52-7.19-12.51-11.08-4.54-4.43-8.59-9.45-13.88-12.93S310.65,57,305,59.85c-5,2.58-7.78,8.11-9.81,13.4-1.4,3.64-2.65,7.47-2.29,11.35,0.38,4.16,2.57,7.91,4.71,11.5,2.67,4.49,6.41,8,7.34,13.16,2.07,11.45,4.15,23,8.24,33.87s10.34,21.24,19.47,28.46c4.81,3.81,10.37,6.73,14.55,11.23s6.58,10.06,8.64,15.72c5.34,14.65,15.5,40.49,15.5,40.49C403.52,240.84,417.84,212.49,417.84,212.49Z" transform="translate(-4.94 -2.22)"/><path class="cls-9" d="M373.08,116.79a58,58,0,0,0-7.73-13.08,122.76,122.76,0,0,0-16-17.52c-2-1.84-4.13-3.61-6.21-5.4a22.46,22.46,0,0,0-3.69,7C336,99.42,347,115.5,352.64,124.69a40.66,40.66,0,0,0,6.31,8.46c3,2.87,7.74,11.41,9.83,7.78,7.34-12.74,6.49,15.75,7,24.38a326.76,326.76,0,0,0,10.84,66.31c0.49,1.81,1,3.63,1.57,5.44,20.37-6.23,29.64-24.57,29.64-24.57a141.59,141.59,0,0,1-40.22-75.55C376.39,130.15,375.64,123.2,373.08,116.79Z" transform="translate(-4.94 -2.22)"/><path class="cls-10" d="M361.75,133.9c-5-7.07-14.37-9.51-23-10-10.13-.54-20.59,1-29.36,6.13l-0.15.09a119.79,119.79,0,0,0,4,13c3.37,9,8.2,17.55,14.89,24.34,0.21-1.86.37-3.75,1.59-5.1,5.45-6,21,4.65,27.84,4.95,11.73,0.51,10.7-14,8.71-22.06C365.25,141.29,364.11,137.24,361.75,133.9Z" transform="translate(-4.94 -2.22)"/><rect class="cls-11" x="236.29" y="7.07" width="112.31" height="147.11" rx="4.02" ry="4.02" transform="translate(-11.52 27.33) rotate(-5.72)"/><path class="cls-4" d="M319.81,92.82c1.35,14.37-6.23,25-26.57,26.91-7.59.71-17.47-.09-22.88-2.24l-1.07-11.34a51.73,51.73,0,0,0,22.23,2.91c13.67-1.29,17.19-7.24,16.51-14.42-0.79-8.4-4.53-10.09-14.87-10.45-18.75-.58-26.4-4.87-27.71-18.74-1-11.14,4.21-22.56,24.86-24.5,9.82-.92,16.87.15,20.89,1.71l1,11a50.55,50.55,0,0,0-20.32-2.07C280.08,52.74,276.49,58,277.1,64.46c0.77,8.2,5.56,9.18,15.71,9.55C308.8,74.65,318.35,77.33,319.81,92.82Z" transform="translate(-4.94 -2.22)"/><path class="cls-4" d="M128.85,91.62c7.76-15,17.56-25.69,34.66-16.87s14.09,23,6.33,38-17.57,25.69-34.66,16.87S121.09,106.65,128.85,91.62ZM137,95.83c-6.51,12.62-8.16,21.38,1.91,26.58s16.26-1.22,22.77-13.84,8.16-21.38-1.91-26.58S143.51,83.2,137,95.83Z" transform="translate(-4.94 -2.22)"/><path class="cls-5" d="M307.93,110.69a7.74,7.74,0,0,0,2.1,2.7c2.43,1.76,5.88.59,8.76,1.4,2.69,0.76,4.6,3.18,5.71,5.74s1.59,5.35,2.52,8c1.88,5.28,5.5,9.74,9.06,14.07,3,3.67,6.55,7.63,11.28,8,2.31-9.71,2-19.88.48-29.74-1-6.31-2.57-12.82-6.75-17.65-5.48-6.33-14.2-8.52-21.5-12.63-4.1-2.31-12.78-7.91-15.69-1.17C301.3,95.39,305.06,105.4,307.93,110.69Z" transform="translate(-4.94 -2.22)"/><path class="cls-8" d="M356.16,167.45a47.79,47.79,0,0,1-23.48-37.29c-0.32-4.32,0-8.7-.82-13s-2.84-8.57-6.61-10.7c-3.92-2.22-8.89-1.67-12.6-4.3-2.94-2.09-4.89-6-6.18-9.21l-2.13-5.39a4.65,4.65,0,0,1-.48-2.42,4.16,4.16,0,0,1,1.43-2.2c7.58-7.14,11.48-2.4,18.51,2.56s14.32,10.08,21.44,15.17a106.87,106.87,0,0,1,14,11.21,54,54,0,0,1,15.51,37.32c0,5.22-.85,10.77-4.29,14.7C366.69,168.18,361.07,170.26,356.16,167.45Z" transform="translate(-4.94 -2.22)"/><path class="cls-12" d="M118.49,112.78c-1.64-1.79-3.94-2.35-5.48-.3s-17,16.9-22.51,25.14-9.58,9-9.58,9c-0.09-4.58-7.18-5.72-9.17-6.11s-1.4-5.09-5-5.81-7.29.79-9.22-3.37-8.2-5.4-16.44,5S27,157.25,25.33,174.1L4.94,186.89s15.1,15.16,18.64,32c5.28-5.39,11.66-11.6,16.08-14.84,8.84-6.49,18.83-1.42,25.1-1.89a6.67,6.67,0,0,0,1.32-.25c16.2-.15,15.7-7,23.35-15.06,7-7.43,5.15-15.2,1-18.7,10-19.16,26.49-42.54,29-46.48C122.13,117.52,120.14,114.56,118.49,112.78Z" transform="translate(-4.94 -2.22)"/><path class="cls-13" d="M68.31,137.9a4.78,4.78,0,0,1,.6,2.11,6.51,6.51,0,0,0,5.34,5.15,29.68,29.68,0,0,1,3.51.31c1.14,0.3,2.24,1.32,2,2.48a11,11,0,0,0,1.06-1.81c-0.59-4.15-7.2-5.23-9.11-5.6s-1.4-5.09-5-5.81-7.29.79-9.22-3.37-8.2-5.4-16.44,5c-8,10.07-13.73,20.27-15.55,36.23a248,248,0,0,1,12.67-27c2.21-4,4.69-8.19,8.62-10.59s9.73-2.37,12.56,1.27a5.74,5.74,0,0,0,1.34,1.49C63,139.2,66.69,135.75,68.31,137.9Z" transform="translate(-4.94 -2.22)"/><path class="cls-14" d="M120.52,119.31l-0.31-.05L89.64,158.18a70.86,70.86,0,0,1-6.9,7.94,70.87,70.87,0,0,1-9.37,7.06c-7,4.69-14.26,9.49-22.53,11.1-5.15,1-10.57.73-15.51,2.5a39.38,39.38,0,0,0-6,3l-15.15,8.58c3.86,5.69,7.83,13,9.43,20.59,5.28-5.39,11.66-11.6,16.08-14.84,8.84-6.49,18.83-1.42,25.1-1.89a6.67,6.67,0,0,0,1.32-.25c16.2-.15,15.7-7,23.35-15.06,7-7.43,5.15-15.2,1-18.7,10-19.16,26.49-42.54,29-46.48A8.53,8.53,0,0,0,120.52,119.31Z" transform="translate(-4.94 -2.22)"/><path class="cls-15" d="M90.38,168.18S81.72,185.32,72,192.29s7.08,4.8,17.42-5.42C96.45,179.45,94.58,171.67,90.38,168.18Z" transform="translate(-4.94 -2.22)"/><path class="cls-16" d="M333,130.67L332.51,111c-0.13-5.46-.57-11.6-4.7-15.17-5.37-4.65-14.05-2.47-20.11-6.16a7.2,7.2,0,0,1-3.37-5.63,2.83,2.83,0,0,0-.46,1.09,4.65,4.65,0,0,0,.48,2.42L306.48,93c1.28,3.24,3.24,7.12,6.18,9.21,3.71,2.63,8.67,2.09,12.6,4.3,3.77,2.13,5.84,6.44,6.61,10.7s0.5,8.64.82,13q0.11,1.45.31,2.88C333,132.25,333,131.45,333,130.67Z" transform="translate(-4.94 -2.22)"/></g></g></svg>