<svg xmlns="http://www.w3.org/2000/svg" xmlns:xlink="http://www.w3.org/1999/xlink" viewBox="0 0 301.32 266.64"><defs><style>.cls-1{isolation:isolate;}.cls-10,.cls-2{fill:#e5e5e5;}.cls-3{fill:url(#linear-gradient);}.cls-4{fill:url(#linear-gradient-2);}.cls-5{fill:#fb8a75;}.cls-6{fill:url(#linear-gradient-3);}.cls-7{fill:#dd7270;}.cls-8{fill:url(#linear-gradient-4);}.cls-9{fill:url(#linear-gradient-5);}.cls-10,.cls-13,.cls-17{mix-blend-mode:multiply;}.cls-11{fill:url(#linear-gradient-6);}.cls-12{fill:url(#linear-gradient-7);}.cls-14{fill:url(#linear-gradient-8);}.cls-15{fill:url(#linear-gradient-9);}.cls-16{fill:#fff;}.cls-17{fill:#4b5e6c;}.cls-18{fill:#00a97b;}.cls-19{fill:url(#linear-gradient-10);}.cls-20{fill:#85d34b;}.cls-21{fill:url(#linear-gradient-11);}.cls-22{fill:url(#linear-gradient-12);}.cls-23{fill:url(#linear-gradient-13);}.cls-24{fill:url(#linear-gradient-14);}.cls-25{fill:url(#linear-gradient-15);}.cls-26{fill:url(#linear-gradient-16);}.cls-27{fill:url(#linear-gradient-17);}.cls-28{fill:url(#linear-gradient-18);}.cls-29{fill:url(#linear-gradient-19);}.cls-30{fill:url(#linear-gradient-20);}</style><linearGradient id="linear-gradient" x1="76.76" y1="157.27" x2="114.34" y2="197.74" gradientUnits="userSpaceOnUse"><stop offset="0" stop-color="#cfcfcf"/><stop offset="1" stop-color="#e5e5e5"/></linearGradient><linearGradient id="linear-gradient-2" x1="313.07" y1="173.23" x2="286.08" y2="240.11" xlink:href="#linear-gradient"/><linearGradient id="linear-gradient-3" x1="82.72" y1="135.3" x2="110.78" y2="172.86" gradientUnits="userSpaceOnUse"><stop offset="0" stop-color="#fc846f"/><stop offset="1" stop-color="#ee6e62"/></linearGradient><linearGradient id="linear-gradient-4" x1="278.25" y1="185.26" x2="337.47" y2="148.15" gradientUnits="userSpaceOnUse"><stop offset="0" stop-color="#ad6369"/><stop offset="1" stop-color="#dd7270"/></linearGradient><linearGradient id="linear-gradient-5" x1="233.45" y1="207.73" x2="267.84" y2="239.22" xlink:href="#linear-gradient-4"/><linearGradient id="linear-gradient-6" x1="278.37" y1="217.18" x2="190.86" y2="309.36" xlink:href="#linear-gradient-4"/><linearGradient id="linear-gradient-7" x1="132.36" y1="235" x2="162.89" y2="205.66" xlink:href="#linear-gradient-3"/><linearGradient id="linear-gradient-8" x1="121.97" y1="262.92" x2="115.77" y2="215.04" xlink:href="#linear-gradient-3"/><linearGradient id="linear-gradient-9" x1="300.24" y1="220.7" x2="288.96" y2="181.08" xlink:href="#linear-gradient-4"/><linearGradient id="linear-gradient-10" x1="136.07" y1="61.41" x2="239.77" y2="184.45" gradientUnits="userSpaceOnUse"><stop offset="0" stop-color="#009c69"/><stop offset="1" stop-color="#009c69"/></linearGradient><linearGradient id="linear-gradient-11" x1="183.2" y1="204.99" x2="191.44" y2="221.71" gradientUnits="userSpaceOnUse"><stop offset="0" stop-color="#43bb45"/><stop offset="1" stop-color="#6fab12"/></linearGradient><linearGradient id="linear-gradient-12" x1="208.75" y1="154.32" x2="215.11" y2="154.32" xlink:href="#linear-gradient-11"/><linearGradient id="linear-gradient-13" x1="229.02" y1="176.42" x2="238.45" y2="176.42" xlink:href="#linear-gradient-11"/><linearGradient id="linear-gradient-14" x1="200.19" y1="198.49" x2="205.28" y2="198.49" xlink:href="#linear-gradient-11"/><linearGradient id="linear-gradient-15" x1="201.07" y1="192.01" x2="205" y2="192.01" xlink:href="#linear-gradient-11"/><linearGradient id="linear-gradient-16" x1="199.54" y1="106.06" x2="213.44" y2="130.5" xlink:href="#linear-gradient-11"/><linearGradient id="linear-gradient-17" x1="131.7" y1="144.62" x2="145.6" y2="169.06" xlink:href="#linear-gradient-11"/><linearGradient id="linear-gradient-18" x1="164.3" y1="128.91" x2="177.66" y2="152.41" xlink:href="#linear-gradient-11"/><linearGradient id="linear-gradient-19" x1="259.94" y1="150.46" x2="277.18" y2="170.79" xlink:href="#linear-gradient-11"/><linearGradient id="linear-gradient-20" x1="245.67" y1="133.21" x2="270.43" y2="133.21" xlink:href="#linear-gradient-11"/></defs><title>best-practices</title><g class="cls-1"><g id="Layer_1" data-name="Layer 1"><path class="cls-2" d="M80.61,142.62c-1.75-.11-8.89,1.5-10.57,4.68-7.6,14.41,1.31,37.56,3.61,53.23,3.48,23.7,1,39.24,10,61.84,1,2.55,3.23,5.69,6.28,5a473.57,473.57,0,0,0,13.55-73c0.47-4.47.88-8.94,0.91-13.43,0.07-9.88-1.55-19.79-3.54-29.51C98.86,141.45,91.28,143.3,80.61,142.62Z" transform="translate(-49.94 -3.02)"/><path class="cls-3" d="M80.61,142.62c-1.75-.11-8.89,1.5-10.57,4.68-3.67,7-3.49,15.95-2.06,25.15a102.28,102.28,0,0,0,12.47,18.44,24.87,24.87,0,0,1,2.36,3.05,35.79,35.79,0,0,1,1.91,4.17c2.6,5.84,7.58,10.64,12.45,15.31,1.13,1.08,2.27,2.17,3.46,3.22,1.14-7.4,2.12-14.83,2.9-22.26,0.47-4.47.88-8.94,0.91-13.43,0.07-9.88-1.55-19.79-3.54-29.51C98.86,141.45,91.28,143.3,80.61,142.62Z" transform="translate(-49.94 -3.02)"/><path class="cls-2" d="M318.57,142.62a14.84,14.84,0,0,1,5.2.28,9.16,9.16,0,0,1,5.36,4.4c4.24,8,6.4,30.45,4.1,46.13-3.48,23.7-8.71,46.34-17.76,69-1,2.55-3.23,5.69-6.28,5a473.57,473.57,0,0,1-13.55-73c-0.47-4.47-.88-8.94-0.91-13.43-0.07-9.88,1.55-19.79,3.54-29.51C300.31,141.45,307.9,143.3,318.57,142.62Z" transform="translate(-49.94 -3.02)"/><path class="cls-4" d="M329.13,147.29a9.16,9.16,0,0,0-5.36-4.4,14.84,14.84,0,0,0-5.2-.28c-10.67.69-18.25-1.17-20.29,8.81-2,9.72-3.61,19.63-3.54,29.51,0,4.48.44,9,.91,13.43a472.19,472.19,0,0,0,9,54.53c4.87-6.62,7.83-14.3,10.06-21.94,3-10.21,4.87-20.71,9.45-30.48A130,130,0,0,1,330.52,185a32.06,32.06,0,0,1,3.65-4.87C334.26,167,332.27,153.2,329.13,147.29Z" transform="translate(-49.94 -3.02)"/><path class="cls-5" d="M106.47,195.73c-6.74-7.55-18.58-7.67-27-13.34a23.59,23.59,0,0,1-9.9-15.29c-0.68-3.88-1.55-7.64-1.17-11.56,0.33-3.47,1.41-7.09,4.05-9.37,2.9-2.51,7-2.91,10.87-2.83a61.76,61.76,0,0,1,24.82,5.79,26.4,26.4,0,0,1,9.48,6.74c1.54,1.87,2.64,4.06,4,6a38.8,38.8,0,0,0,6.16,6.64,79.84,79.84,0,0,0,12.24,8.94c2.49,1.48,5.42,3.4,5.36,6.29a6.1,6.1,0,0,1-1.58,3.6c-2.95,3.62-7.52,5.42-11.88,7.07-5,1.88-10.2,3.79-15.45,3C113.62,197,109.41,196,106.47,195.73Z" transform="translate(-49.94 -3.02)"/><path class="cls-6" d="M140.1,177.49a79.84,79.84,0,0,1-12.24-8.94,38.8,38.8,0,0,1-6.16-6.64c-1.39-2-2.5-4.17-4-6a26.4,26.4,0,0,0-9.48-6.74,61.61,61.61,0,0,0-12.94-4.36c0.61,0.72,1.27,1.39,1.93,2.05,4.27,4.22,9.43,7.89,10.75,14a9.18,9.18,0,0,1,.25,2.87c-0.3,3-2.75,5.2-4.74,7.44a31.47,31.47,0,0,0-5.68,9.18c-1.07,2.67-1,6.27-2.67,8.55,2.09,1,4.26,1.68,6.28,2.83a22.38,22.38,0,0,1,2.94,2c0.41,0.33,1.74,2,2.17,2.06,2.93,0.25,7.15,1.28,10.06,1.72,5.25,0.79,10.49-1.12,15.45-3,4.36-1.65,8.94-3.45,11.88-7.07a6.1,6.1,0,0,0,1.58-3.6C145.52,180.88,142.59,179,140.1,177.49Z" transform="translate(-49.94 -3.02)"/><path class="cls-7" d="M291.08,195.73c6.74-7.55,18.58-7.67,27-13.34a23.59,23.59,0,0,0,9.9-15.29c0.68-3.88,1.55-7.64,1.17-11.56-0.33-3.47-1.41-7.09-4.05-9.37-2.9-2.51-7-2.91-10.87-2.83a61.76,61.76,0,0,0-24.82,5.79,26.4,26.4,0,0,0-9.48,6.74c-1.54,1.87-2.64,4.06-4,6a38.8,38.8,0,0,1-6.16,6.64,79.84,79.84,0,0,1-12.24,8.94c-2.49,1.48-5.42,3.4-5.36,6.29a6.1,6.1,0,0,0,1.58,3.6c2.95,3.62,7.52,5.42,11.88,7.07,5,1.88,10.2,3.79,15.45,3C283.93,197,288.14,196,291.08,195.73Z" transform="translate(-49.94 -3.02)"/><path class="cls-8" d="M321.06,150c-2.5,1.89-4.24,4.89-6.35,7.62-3.69,4.76-7.58,9.69-13,12.22a8.61,8.61,0,0,1-3.45.93,13.07,13.07,0,0,1-4.68-1.23A38.75,38.75,0,0,0,273,167.9a11,11,0,0,0-3.33.69c-1.42.73-2.76,2.36-4,3.36a79.83,79.83,0,0,1-8.15,5.54c-2.49,1.48-5.42,3.4-5.36,6.29a6.1,6.1,0,0,0,1.58,3.6c2.95,3.62,7.52,5.42,11.88,7.07,5,1.88,10.2,3.79,15.45,3,2.91-.44,7.13-1.47,10.06-1.72,6.74-7.55,18.58-7.67,27-13.34a23.59,23.59,0,0,0,9.9-15.29c0.68-3.88,1.55-7.64,1.17-11.56a16.05,16.05,0,0,0-2.34-7.39A9.1,9.1,0,0,0,321.06,150Z" transform="translate(-49.94 -3.02)"/><path class="cls-7" d="M248.3,179.95c12.14-8.31,35.66-12.62,42.6-3.16s10.1,18,12.62,33.45-4.42,14.83-4.73,22.72-5.68,6.94-9.47,6.31-6.31-6.94-6.63-12.94a346,346,0,0,1-24.91,24.61c-9.71,8.52-22.41,17.24-30.31,18.62-2.63.46-10.39-.6-8-3.77,6.91-9.17,31-30.31,31-30.31S209.8,261,200,258.83c-6.43-1.45-4.32-3.79-7.19-5.68s-6.5-6.63,3-11.36,25-11.84,28.48-26.43A59.33,59.33,0,0,1,248.3,179.95Z" transform="translate(-49.94 -3.02)"/><path class="cls-9" d="M290.56,180.76a11.59,11.59,0,0,0,.95-3.09l-0.62-.87c-6.94-9.47-30.46-5.15-42.6,3.16a59.33,59.33,0,0,0-24,35.42c-3.47,14.59-18.93,21.7-28.48,26.43s-5.92,9.47-3,11.36,0.75,4.23,7.19,5.68c7.46,1.68,32.75-12.67,44.47-19.66l2.53-1.81c6.27-4.49,11.21-12.07,16.34-17.85,3-3.34,6-6.8,7.52-11,0.7-1.93,1.06-4,1.91-5.84a23.8,23.8,0,0,1,4.09-5.63l10.39-11.71A20.5,20.5,0,0,0,290.56,180.76Z" transform="translate(-49.94 -3.02)"/><path class="cls-10" d="M196,257.24a9.82,9.82,0,0,0,4,1.59c8.71,2,41.73-17.93,49.07-22.45,3-2.38,6-5.13,6.79-8.83C242.27,237,197.34,257,196,257.24Z" transform="translate(-49.94 -3.02)"/><path class="cls-11" d="M279.28,202.29c4.56,10.14.82,20.1-6.93,27.06-5.63,5.05-11.26,10.11-16.41,15.65-2.46,2.64-4.81,5.39-7.4,7.9a58.48,58.48,0,0,1-23.05,13.76c-1.05.33-2.26,0.77-2.6,1.82a1.09,1.09,0,0,0,.13.9,14.38,14.38,0,0,0,4.46.18c7.9-1.38,20.59-10.1,30.31-18.62a346,346,0,0,0,24.91-24.61c0,0.07,0,.13,0,0.2a18.83,18.83,0,0,0,.67-2.17,20.83,20.83,0,0,0,.33-6.15A41.5,41.5,0,0,0,279.28,202.29Z" transform="translate(-49.94 -3.02)"/><path class="cls-5" d="M149.1,179.8c-12.14-8.31-35.66-12.62-42.6-3.16s-10.1,18-12.62,33.45,4.42,14.83,4.73,22.72,5.68,6.94,9.47,6.31,6.31-6.94,6.63-12.94a346,346,0,0,0,24.91,24.61c9.71,8.52,21,17.37,29,16.53,3.78-.4,7.88-2.44,6.83-6.3,20.38,11.07,29.69-9.23,22.3-11.6-11.17-3.6-28.49-18.53-28.49-18.53s6.57,5.5,19.9,7.92c6.25,1.14,11.22-7,5.16-8.54-10.31-2.67-18.65-3.53-21.19-15.07A58.16,58.16,0,0,0,149.1,179.8Z" transform="translate(-49.94 -3.02)"/><path class="cls-5" d="M149.1,179.8c-12.14-8.31-35.66-12.62-42.6-3.16s-10.1,18-12.62,33.45,4.42,14.83,4.73,22.72,5.68,6.94,9.47,6.31,6.31-6.94,6.63-12.94a346,346,0,0,0,24.91,24.61c9.71,8.52,21,17.37,29,16.53,3.78-.4,7.88-2.44,6.83-6.3,20.38,11.07,29.69-9.23,22.3-11.6-11.17-3.6-28.49-18.53-28.49-18.53s6.57,5.5,19.9,7.92c6.25,1.14,11.22-7,5.16-8.54-10.31-2.67-18.65-3.53-21.19-15.07A58.16,58.16,0,0,0,149.1,179.8Z" transform="translate(-49.94 -3.02)"/><path class="cls-12" d="M197.71,249.43c-11.17-3.6-28.49-18.53-28.49-18.53s6.57,5.5,19.9,7.92c6.25,1.14,11.22-7,5.16-8.54-10.31-2.67-18.65-3.53-21.19-15.07a58.16,58.16,0,0,0-24-35.42,52,52,0,0,0-23.67-8.28,36.52,36.52,0,0,0-11.89.59,11.7,11.7,0,0,0-7.45,5.11c0.07,2.94,2.36,5.4,4.26,7.64a119.78,119.78,0,0,0,13.27,13.39c4.41,3.8,9.13,7.3,13,11.65,1.65,1.85,2.55,3.83,3.87,5.82,1.52,2.31,3.88,3.85,5.21,6.36,1.12,2.11,1.66,4.61,3.41,6.24,2,1.82,4.87,2,7.38,2.95,2.9,1.07,5.3,3.13,7.76,5,3.34,2.55,6.89,4.83,10.43,7.1l8.83,5.66c2.59,1.66,5.33,3.37,8.41,3.52a27,27,0,0,1,4.34.09c0.87,0.18,1.69.58,2.57,0.69a4,4,0,0,0,1.38-.08A3.73,3.73,0,0,0,197.71,249.43Z" transform="translate(-49.94 -3.02)"/><g class="cls-13"><path class="cls-2" d="M169.47,231.1c1.28,1,7.78,5.57,19.65,7.72a7.08,7.08,0,0,0,6.44-2.26c-1.64-.43-9.27-0.59-16.33-3.67-8.46-3.69-13.31-7.43-18-15.41A27.29,27.29,0,0,0,169.47,231.1Z" transform="translate(-49.94 -3.02)"/><path class="cls-2" d="M169.68,231.29c0.44,0.41.89,0.81,1.34,1.2,0.84,0.71,1.71,1.37,2.59,2C171.75,233,170.36,231.87,169.68,231.29Z" transform="translate(-49.94 -3.02)"/></g><path class="cls-14" d="M118.35,222.33c-2-6.06-1-10.67,4.22-17.42-6.07,0-14.17,7-16.29,20.12-1,6.11-2.2,8.55-7,11.25,1.58,4.09,5.73,3.36,8.84,2.85,3.79-.63,6.31-6.94,6.63-12.94a346,346,0,0,0,24.91,24.61C140.78,251.81,122.08,233.46,118.35,222.33Z" transform="translate(-49.94 -3.02)"/><path class="cls-15" d="M298.51,190.37h-0.14l1.2,12c0.39,3.93.75,8.08-1,11.64-1.28,2.66-3.66,4.81-4.29,7.7-0.66,3,.77,6.1,2,9a15.45,15.45,0,0,1,1.57,6.34,9.81,9.81,0,0,0,.89-4.05c0.32-7.89,7.26-7.26,4.73-22.72A95.41,95.41,0,0,0,298.51,190.37Z" transform="translate(-49.94 -3.02)"/><path class="cls-16" d="M350.19,93.07A6.89,6.89,0,0,0,345,90.21a0.71,0.71,0,0,0-1-.46,19.66,19.66,0,0,0-1.47-2.29,10.3,10.3,0,0,0,1.17-.68,3.14,3.14,0,0,0,1.21-1.4,2.88,2.88,0,0,0-1-3,6.9,6.9,0,0,0-3.07-1.65c-0.84-.22-2-0.4-2.67.27a1.77,1.77,0,0,0-.27,1.81q-1.15-.9-2.38-1.69a3.19,3.19,0,0,0,1.84-1.34,2.79,2.79,0,0,0-.46-3.06,6.59,6.59,0,0,0-2.9-2.12,2.64,2.64,0,0,0-2.73.17c-1,.94-0.48,2.68.09,4-1.26-.61-2.53-1.17-3.8-1.67l0,0a6,6,0,0,0-.69-0.55c2.05-1,3.49-3.23,1.57-5.52-1.68-2-4.34-2.57-6-.95a4.7,4.7,0,0,0-.94,5h0c-0.44-.13-0.88-0.23-1.32-0.34l0-.06c0.1-.2.2-0.41,0.27-0.59a3.45,3.45,0,0,0,.18-1.93,3.17,3.17,0,0,0-2.08-2.33,1.76,1.76,0,0,0-2.28.83c-0.51,1,.24,2.49.92,3.51-9.21-1.25-18.67,1.72-26.7,5.92-5.26,2.75-9.72,6.57-14,10.73,1.73-1.92,3.4-3.87,5-5.81a48.29,48.29,0,0,0,5.41-8.24c0.81,1.4,2.26,3.26,3.71,3.07s1.75-1.86,1.92-3.14a16.22,16.22,0,0,0-.19-5c-0.19-1-.6-2.93-1.83-3H290.5c0.39-1.08.77-2.16,1.11-3.26a5.14,5.14,0,0,0,1.85,2.71,3.87,3.87,0,0,0,5-.2c1.15-1.27.46-3.54-.89-4.67a3.44,3.44,0,0,0,2.58-2.53c0.14-1.4-1-2.89-1.94-3.82a6.62,6.62,0,0,0-3.91-1.92c0.28-1.3.58-2.6,0.83-3.91,0.35,0.29.7,0.56,1,.79,1.82,1.25,4.11,1.67,5.26-.17a2.59,2.59,0,0,0-1.15-4,7,7,0,0,0-3-.51,9.41,9.41,0,0,0,2.23-4.72c0.28-1.59-.21-4.28-2.27-3.91-2.24.4-2.9,2.91-3.07,5.22a4.69,4.69,0,0,0,.08,1.07,2.63,2.63,0,0,0-1.58-.48,3.09,3.09,0,0,0-2.52,2.1,2.75,2.75,0,0,0,.45,3.07,2.65,2.65,0,0,0,3.09.11,9,9,0,0,0,.63.71c-0.48,1.86-1,3.7-1.44,5.54-1.37-2.79-3.91-5.34-5.08-1.19a3.71,3.71,0,0,0,0,2.41c-1.4-.42-3.3-0.42-3.53,1.14-0.43,2.84,3.71,5.51,6.35,5.38q-0.7,2.2-1.5,4.34a5.23,5.23,0,0,0-2.41-3.12,2.27,2.27,0,0,0-3,1.11,4.22,4.22,0,0,0,.12,4,5.4,5.4,0,0,0,3.41,2.47,54.68,54.68,0,0,1-5.61,9.8c-9.38,12.91-22.65,22.07-36.38,31.09-0.59.39,0.06,1.5,0.7,1.21a79.71,79.71,0,0,0,18.64-12.07c-1.94,1.8-3.91,3.57-5.94,5.3-2.37,2-7.14,7-10.81,6.31a0.23,0.23,0,0,0-.15.42c3,2.57,8.8-3.09,10.69-4.56a184.84,184.84,0,0,0,18.38-17.08c10.59-10.86,25.74-18,40.16-16.88a3.49,3.49,0,0,0-.9,2.7,5.18,5.18,0,0,0,2.3,4c1.44,0.85,2.73-.21,3.21-1.61A3.55,3.55,0,0,0,324,82.72a4.5,4.5,0,0,0,4.16-1.37c-0.51,2.19,1.84,4.18,3.43,4.89,1.77,0.78,3.76.28,4.36-1.74a3.49,3.49,0,0,0,.1-1.34c0.81,0.61,1.6,1.28,2.38,2a2.42,2.42,0,0,0-1.54.72c-1.39,1.48.31,3.76,1.57,4.82s3.2,1.46,4.16,0a2.38,2.38,0,0,0,.32-0.84l0.46,0.54a0.74,0.74,0,0,0,.33,1.12c0.19,3.47,2.91,6.3,5.22,8.43a0.49,0.49,0,0,0,.66.07A5.13,5.13,0,0,0,350.19,93.07Zm-20.89-2.16a3.41,3.41,0,0,0,.22-0.44,2.78,2.78,0,0,0,.11-1.1c0.46,0.33.91,0.69,1.35,1A2.41,2.41,0,0,0,329.29,90.92Z" transform="translate(-49.94 -3.02)"/><path class="cls-16" d="M250.22,96.84s12.3-.48,20.83-9.05c0,0-12.55-8.32-20.9,2.13A32.26,32.26,0,0,1,262.51,89S254.74,91.52,250.22,96.84Z" transform="translate(-49.94 -3.02)"/><path class="cls-16" d="M249.24,84s15.14,0.88,24.57-16.46c0,0-15.48-3.41-24.62,12.29A34.89,34.89,0,0,1,259.86,75S252.6,79.16,249.24,84Z" transform="translate(-49.94 -3.02)"/><path class="cls-16" d="M249.62,72.75a25.29,25.29,0,0,0,18-20.46s-14.45,2.88-18.51,16.06c0,0,2.76-3.62,9.34-7.14C258.42,61.22,252.49,66.86,249.62,72.75Z" transform="translate(-49.94 -3.02)"/><path class="cls-16" d="M248.66,61.13a25.64,25.64,0,0,0,14.24-21S250.46,44.8,247.22,58.3a27.3,27.3,0,0,1,8.72-8.93A40.81,40.81,0,0,0,248.66,61.13Z" transform="translate(-49.94 -3.02)"/><path class="cls-16" d="M246.29,50.34s10.18-4.43,14.48-20.85c0,0-15,2.23-16.13,18.72a24.75,24.75,0,0,1,7.8-9.81A62.36,62.36,0,0,0,246.29,50.34Z" transform="translate(-49.94 -3.02)"/><path class="cls-16" d="M242.31,44.29s7.2-9.59,8-24.74c0,0-9.72,4.41-9.91,18.11a33.66,33.66,0,0,1,5.33-9.15A42.14,42.14,0,0,0,242.31,44.29Z" transform="translate(-49.94 -3.02)"/><path class="cls-16" d="M237.92,36.29a38.78,38.78,0,0,1,4.79-13.61s2.51-5.59-.62-15.73c0,0-12.88,6.92-7.1,25.89a24.69,24.69,0,0,1,3.63-12.53A74.87,74.87,0,0,0,237.92,36.29Z" transform="translate(-49.94 -3.02)"/><path class="cls-16" d="M230.28,25.29s4.3-10.38-2.34-22.27c0,0-6,7.53-.3,19.44a37.37,37.37,0,0,0,.07-9.89S229.64,16.19,230.28,25.29Z" transform="translate(-49.94 -3.02)"/><path class="cls-16" d="M221.68,20.41A26.37,26.37,0,0,1,207.46,5.27s12-1.43,16.36,12.68a29.49,29.49,0,0,0-9.18-7.41A30.52,30.52,0,0,1,221.68,20.41Z" transform="translate(-49.94 -3.02)"/><path class="cls-16" d="M228.32,31.15s-8.71-14.09-24.81-8.89c0,0,6.51,9.72,22.73,9.81A39,39,0,0,0,216,25.94,32.41,32.41,0,0,1,228.32,31.15Z" transform="translate(-49.94 -3.02)"/><path class="cls-16" d="M233.75,40S222.16,28.3,209,33.82a25.71,25.71,0,0,0,11.56,6.48c7.32,2,11.84,3,15.68,5.42,0,0-5.24-6.32-17.31-10.2C218.89,35.51,227.25,36.32,233.75,40Z" transform="translate(-49.94 -3.02)"/><path class="cls-16" d="M238,51.5s-11.75-15.62-27.42-6.65a56.77,56.77,0,0,0,14.51,5.69c7.43,1.6,12.38,3.86,14.55,5.49A33.66,33.66,0,0,0,224.31,47S232.15,47.54,238,51.5Z" transform="translate(-49.94 -3.02)"/><path class="cls-16" d="M240.75,62.26s-8.21-15.36-28.18-7.11A41.08,41.08,0,0,0,227.82,63c8.87,2.33,13.81,7.11,14.39,7.93,0,0-4.15-9-17-14C225.2,56.93,232.32,57,240.75,62.26Z" transform="translate(-49.94 -3.02)"/><path class="cls-16" d="M241.05,86.91A37.23,37.23,0,0,0,231,77c-6.72-4.46-10.58-9.67-11.52-12,0,0,14.72-1.79,22.86,13.36a38.2,38.2,0,0,0-10.2-7.19S238.21,76.5,241.05,86.91Z" transform="translate(-49.94 -3.02)"/><path class="cls-16" d="M240.86,92.22s-2.49-14.47-23.46-16.3c0,0,5.59,11.75,20.13,19.73A36.47,36.47,0,0,0,227,81.07S235,82.85,240.86,92.22Z" transform="translate(-49.94 -3.02)"/><path class="cls-16" d="M242.61,93.45l0-.18,0.12-.52c0.1-.47.24-1.18,0.39-2.1s0.33-2,.48-3.33,0.29-2.77.39-4.39,0.19-3.38.18-5.26c0-.94,0-1.9,0-2.89s-0.08-2-.16-3-0.16-2.08-.29-3.15-0.24-2.14-.39-3.23-0.35-2.18-.53-3.28-0.43-2.2-.68-3.31-0.5-2.21-.82-3.3l-0.45-1.64c-0.15-.55-0.33-1.08-0.5-1.62l-0.51-1.61L239.28,49l-0.55-1.57-0.61-1.53-0.6-1.51L236.87,43l-0.62-1.44c-0.21-.47-0.45-0.93-0.66-1.38l-0.65-1.35-0.32-.66-0.34-.64L233,35l-1.28-2.23c-0.4-.71-0.79-1.39-1.19-2l-1.08-1.75-0.48-.78-0.47-.69c-0.6-.88-1.07-1.58-1.38-2.06l-0.49-.74,0.58,0.66c0.38,0.43.92,1.06,1.61,1.87L229.35,28l0.57,0.72,1.28,1.63c0.46,0.58.91,1.22,1.38,1.91s1,1.39,1.49,2.15c1,1.54,2,3.18,3,5,0.25,0.45.52,0.91,0.76,1.38l0.73,1.44,0.74,1.47L240,45.18l0.7,1.55,0.65,1.59L242,49.94l0.58,1.65c0.19,0.55.4,1.1,0.57,1.66l0.52,1.68c0.37,1.12.64,2.26,1,3.4s0.54,2.28.8,3.42,0.46,2.27.64,3.4c0.39,2.25.66,4.47,0.83,6.62,0.09,1.07.15,2.13,0.21,3.16s0.08,2,.08,3c0,2,0,3.79-.12,5.48s-0.26,3.22-.43,4.58-0.35,2.53-.52,3.49-0.34,1.71-.46,2.23l-0.15.6-0.05.2Z" transform="translate(-49.94 -3.02)"/><path class="cls-16" d="M122.36,123.71a27.56,27.56,0,0,0-7.45-14.28s-4.4,8.32,3,14.15a23.61,23.61,0,0,1-1.54-8.26S118.61,120.59,122.36,123.71Z" transform="translate(-49.94 -3.02)"/><path class="cls-16" d="M114.23,124s-0.67-10.1-13-17.18c0,0-.71,10.58,10.36,17.1a29,29,0,0,1-4.07-7.24S110.81,121.67,114.23,124Z" transform="translate(-49.94 -3.02)"/><path class="cls-16" d="M106.92,123.47A21.8,21.8,0,0,0,91.58,110.7s3.51,10,12.54,13a26.45,26.45,0,0,1-5.6-6.44A41.78,41.78,0,0,0,106.92,123.47Z" transform="translate(-49.94 -3.02)"/><path class="cls-16" d="M99.46,123.8a22.26,22.26,0,0,0-15.53-10.22s4.61,8.59,13.83,11.1a24.22,24.22,0,0,1-6.82-6.06A35.25,35.25,0,0,0,99.46,123.8Z" transform="translate(-49.94 -3.02)"/><path class="cls-16" d="M92.65,125.08S88.58,118.15,77,114.73c0,0,3.43,10.24,14.43,11.39a22,22,0,0,1-7.38-5.45A53.54,53.54,0,0,0,92.65,125.08Z" transform="translate(-49.94 -3.02)"/><path class="cls-16" d="M89.14,127.54a39.85,39.85,0,0,0-17.43-6A17.42,17.42,0,0,0,85,128.6a29.39,29.39,0,0,1-6.7-3.74A32.64,32.64,0,0,0,89.14,127.54Z" transform="translate(-49.94 -3.02)"/><path class="cls-16" d="M84.41,130.21a31.37,31.37,0,0,1-9.57-3.48s-4.07-1.81-10.42,0A17,17,0,0,0,82.51,132a19.32,19.32,0,0,1-8.7-2.66A52.31,52.31,0,0,0,84.41,130.21Z" transform="translate(-49.94 -3.02)"/><path class="cls-16" d="M78.16,134.87s-7.38-3-14.3,1a13.43,13.43,0,0,0,12.79.62,25.66,25.66,0,0,0-6.47-.26S72.3,135.08,78.16,134.87Z" transform="translate(-49.94 -3.02)"/><path class="cls-16" d="M76.09,140.21a11.9,11.9,0,0,1-7.88,8.49s-2.58-7.41,6-9.89a13.11,13.11,0,0,0-3.59,5.58A13.88,13.88,0,0,1,76.09,140.21Z" transform="translate(-49.94 -3.02)"/><path class="cls-16" d="M82.21,136.25s-8,5.19-2.69,15.12c0,0,5.37-3.76,3.53-13.79a18.21,18.21,0,0,0-2.7,6.27A16.5,16.5,0,0,1,82.21,136.25Z" transform="translate(-49.94 -3.02)"/><path class="cls-16" d="M87.32,133s-6.21,7.09-1.14,15.3a12.06,12.06,0,0,0,2.82-7c0.44-4.54.59-7.39,1.75-9.79,0,0-3.51,3.21-4.62,10.71A23.53,23.53,0,0,1,87.32,133Z" transform="translate(-49.94 -3.02)"/><path class="cls-16" d="M94.3,130.5s-8.78,7.14-1.36,17a28.55,28.55,0,0,0,2.09-8.8c0.26-4.65,1.2-7.76,2-9.13a16.62,16.62,0,0,0-4.22,9.55S92.37,134.17,94.3,130.5Z" transform="translate(-49.94 -3.02)"/><path class="cls-16" d="M101,129s-9.06,4.91-1.79,17.48a20.19,20.19,0,0,0,3.5-9.23c0.65-5.56,3.26-8.62,3.74-9,0,0-5.36,2.46-7.34,10.49A18.71,18.71,0,0,1,101,129Z" transform="translate(-49.94 -3.02)"/><path class="cls-16" d="M116.71,129.4a18.51,18.51,0,0,0-5.48,6.18c-2.24,4.09-5.17,6.37-6.52,6.9,0,0-2.49-9.23,6.46-14.09a19.22,19.22,0,0,0-3.7,6.34S110.33,131,116.71,129.4Z" transform="translate(-49.94 -3.02)"/><path class="cls-16" d="M120.09,129.65s-9,1.25-8.4,14.28c0,0,6.85-3.19,10.8-12.08a18.49,18.49,0,0,0-8.36,6.26S114.61,133.17,120.09,129.65Z" transform="translate(-49.94 -3.02)"/><path class="cls-16" d="M120.74,128.56l-0.12,0-0.34-.09c-0.31-.08-0.77-0.18-1.36-0.3s-1.32-.26-2.15-0.39-1.79-.25-2.83-0.36-2.18-.2-3.38-0.24c-0.6,0-1.22,0-1.85,0s-1.28,0-1.94,0-1.33,0-2,.11-1.36.11-2,.18-1.38.18-2.07,0.26-1.38.23-2.07,0.36-1.38.27-2.05,0.45l-1,.25c-0.34.08-.67,0.19-1,0.28l-1,.29-1,.33-1,.32-0.92.36-0.91.35-0.88.38-0.86.37c-0.28.12-.55,0.27-0.82,0.39l-0.8.39-0.39.19-0.38.2-1.45.78-1.3.77c-0.42.24-.81,0.47-1.16,0.72l-1,.65-0.45.29-0.39.28-1.16.83-0.42.29,0.36-.35,1-1,0.35-.33,0.4-.35,0.91-.78c0.32-.28.69-0.56,1.07-0.84s0.78-.6,1.22-0.91c0.89-.58,1.83-1.24,2.91-1.83,0.27-.15.53-0.32,0.81-0.46l0.85-.44,0.87-.44,0.92-.41,0.93-.41,1-.38,1-.38,1-.34c0.34-.11.68-0.23,1-0.33l1-.3c0.69-.21,1.41-0.36,2.11-0.54s1.43-.3,2.14-0.44,1.43-.25,2.15-0.33c1.42-.2,2.84-0.32,4.21-0.37,0.68,0,1.36,0,2-.05s1.3,0,1.93,0c1.25,0,2.44.12,3.53,0.22s2.08,0.25,3,.4,1.64,0.29,2.27.43,1.12,0.27,1.45.36l0.39,0.11,0.13,0Z" transform="translate(-49.94 -3.02)"/><path class="cls-16" d="M154.74,11.51A4.83,4.83,0,0,0,151.4,15a0.54,0.54,0,0,0-.57.7,12,12,0,0,0-2.08.38,13,13,0,0,0-.28-1.31,4,4,0,0,0-.83-1.64,2,2,0,0,0-2.53-.37,4.72,4.72,0,0,0-1.92,2.06,2.92,2.92,0,0,0-.34,2.47,1.71,1.71,0,0,0,1.35,1,20.23,20.23,0,0,0-1.79,1.41,4,4,0,0,0-.66-2.15,2.2,2.2,0,0,0-2.47-.83A4.14,4.14,0,0,0,137,18.33a2.6,2.6,0,0,0-.4,2.46c0.54,1.21,2,1.48,3.13,1.51-0.72.85-1.4,1.73-2,2.63h0a3.61,3.61,0,0,0-.56.38c-0.36-2.16-1.82-4.3-4-3.53a3.38,3.38,0,0,0-1.86,4.77A4.65,4.65,0,0,0,135,29.29h0c-0.18.32-.35,0.66-0.51,1h-0.05c-0.14-.16-0.27-0.32-0.4-0.46a3.23,3.23,0,0,0-1.45-.9,1.94,1.94,0,0,0-2.18.87,1.88,1.88,0,0,0,.22,2.25,3,3,0,0,0,2.86.57c-2.66,7.19-2.13,15.95-.47,23.77a64.26,64.26,0,0,0,5.24,14.3Q136.64,67.8,135,65a51.76,51.76,0,0,0-5.06-7c1.17-.14,2.8-0.62,2.92-1.81s-1.06-2-2-2.61A13.63,13.63,0,0,0,127.08,52c-0.78-.21-2.3-0.57-2.59.37,0,0,0,0,0,0-0.74-.69-1.49-1.38-2.26-2a3.12,3.12,0,0,0,2.35-.5,3.28,3.28,0,0,0,.72-4.11,2.73,2.73,0,0,0-3.7-1,4,4,0,0,0-1.5-3,3.52,3.52,0,0,0-3.26.18,4.1,4.1,0,0,0-2.11,2.49c-1-.71-1.91-1.43-2.88-2.11a8.1,8.1,0,0,0,.77-0.55,3.07,3.07,0,0,0,.71-4.41c-1-1.35-2.41-1.76-3.32-.56a5.25,5.25,0,0,0-.87,2.3,11.2,11.2,0,0,0-3.35-3.64c-1.21-.84-3.41-1.45-3.42.42s1.86,3.51,3.64,4.52a4.1,4.1,0,0,0,.84.33,1.76,1.76,0,0,0-.61,1.12,3.65,3.65,0,0,0,1.25,2.83,2.25,2.25,0,0,0,2.44.76c0.79-.43.79-1.51,0.57-2.47a5.1,5.1,0,0,0,.65-0.25l4,3.2c-2.35.09-4.71,1.21-1.72,3.65a3.27,3.27,0,0,0,1.84.85c-0.54,1-.84,2.47.3,3.21,2.07,1.34,4.76-1,5.09-3.12q1.54,1.34,3,2.73A3.11,3.11,0,0,0,121,54a2.18,2.18,0,0,0,.34,2.71,3.59,3.59,0,0,0,3,1.31,3.16,3.16,0,0,0,2.41-1.8,58.66,58.66,0,0,1,6.22,7.69c7.56,11.27,11.51,23.64,15.12,35.75,0.15,0.5,1,.4.94-0.11A70.21,70.21,0,0,0,144.23,83c0.89,1.93,1.74,3.87,2.55,5.82,0.93,2.26,3.4,7,2.27,9.29a0.18,0.18,0,0,0,.25.22c2.29-1.29-.44-6.91-1.09-8.67a179,179,0,0,0-8.5-18.58c-5.91-11.66-8.46-26.15-5-37.61a3.68,3.68,0,0,0,1.88,1.77,3.29,3.29,0,0,0,3.46-.42c0.93-.88.38-2.37-0.59-3.3a2.23,2.23,0,0,0,1.81-1.34,4.89,4.89,0,0,0-.22-4.07c1.58,1.29,3.57.05,4.43-1a3.26,3.26,0,0,0-.43-4.46,3.19,3.19,0,0,0-1-.62,23.07,23.07,0,0,1,2-1.3,2.9,2.9,0,0,0,.23,1.63c0.85,1.8,2.95,1.22,4,.54a2.57,2.57,0,0,0,.3-4.27l0.52-.19a0.55,0.55,0,0,0,.93.16c2.7,1.22,5.46,0,7.61-1.22a0.44,0.44,0,0,0,.2-0.55C158.89,12.54,157.1,10.93,154.74,11.51ZM140.33,25.22A3.13,3.13,0,0,0,140,25a2,2,0,0,0-.79-0.28c0.25-.32.52-0.63,0.79-0.94A2.58,2.58,0,0,0,140.33,25.22Z" transform="translate(-49.94 -3.02)"/><path class="cls-16" d="M255.61,106.86c1.55,1.69,4.75,2.09,8.15,2.06-2,.54-4,1.11-6,1.67a1,1,0,0,0,.52,1.93c6.06-1.57,12.13-3.38,18.09-4.12,9.19,0.69,16,4,19.37,13.8a0.77,0.77,0,0,0,.12.9l0.27,0.23,0,0a0.37,0.37,0,0,0-.27-0.1c-6,.13-8.44,6.16-8,12.37a0.47,0.47,0,0,0,.45.5,0.61,0.61,0,0,0,.6.62c3.51-.06,7.27-3.05,9.27-6.07,1.83-2.76,1.57-6.1-.86-7.93-0.95-7.39-5.53-12-11.47-14.42a26.46,26.46,0,0,1,12.43,5,0.88,0.88,0,0,0-.11.29c-1.11,5.41,1.74,9.39,5.7,12.08,3,2.06,7.93,4.35,11.83,4.34,0,0.71.75,1.06,1.14,0.42,0.11-.18.19-0.36,0.28-0.54s0.36-.06.53-0.11c0.57-.15.48-1.07,0-1.28,1.06-4.24-2-9.19-4.67-12-3.47-3.67-9.07-6.76-13.77-4.95-7.51-5.63-15.4-6.43-23.5-5.34-2.89-.17-5.81-0.12-8.72-0.09s-8.88-1.36-11.43.49a0.11,0.11,0,0,0,0,.17" transform="translate(-49.94 -3.02)"/><path class="cls-16" d="M143.28,93.63c-8.76-1.89-18.69-4.62-27.86-4.48-2,0-4,.17-5.92.37a1.14,1.14,0,0,0-.45-1.25c-14.66-11.44-29.14-2.06-46-5.67A1,1,0,0,0,62,84.05c10.76,17,35.4,9,49.62,7.22s30.86,4.55,44.29,6.59a0.22,0.22,0,0,0,.22-0.33C154.59,94.55,146,94.22,143.28,93.63Z" transform="translate(-49.94 -3.02)"/><path class="cls-16" d="M201.47,50.32c-1.69-5.2-3.08-11.24-6.69-15.81a31.64,31.64,0,0,0-2.57-2.83,1.23,1.23,0,0,0,.94-0.66c4.55-11.05-9-15-12-24.27-0.15-.47-1.22-0.47-1.66,0-11.31,10.67,5,20.17,12,26.65s7.74,17.38,11.15,25.17a0.27,0.27,0,0,0,.38,0C205.06,56.55,202,52,201.47,50.32Z" transform="translate(-49.94 -3.02)"/><path class="cls-16" d="M200.74,45.94a0.69,0.69,0,0,0,.75.4C214,43.36,204.54,26.62,198,20c-0.39-.4-1.19-0.31-1.07.35,0.81,4.53-5.24,21,1.95,23.27a0.61,0.61,0,0,0,0,.1c5.25,13.28,5.48,27.77-6.05,35.18-0.69.44,0.06,1.62,0.76,1.23C205.44,73.62,205.52,58.78,200.74,45.94Z" transform="translate(-49.94 -3.02)"/><path class="cls-16" d="M84.65,45.53a34.07,34.07,0,0,0-16.39-2.44,9.36,9.36,0,0,0-3.7-.78c-1,0-5,3.53-5.54,3.69-0.06,0,0,0,0,0a7.92,7.92,0,0,0-4,5.6c-0.77,3.46.41,9.23-2.5,11.73a12.65,12.65,0,0,0-2.35,1.19c-0.72.48,0.15,1.67,1,1.46a6.72,6.72,0,0,0,3.16-1.65c7-2.8,16.37-.89,18.7-9.19,1-3.72.13-8.35-3-10.91a41,41,0,0,1,12.59,2.32c7.71,2.65,12.3,7.87,18.35,12.54,0.68,0.52,1.64,0,1.18-.79C98.79,52.48,90.95,48.14,84.65,45.53Z" transform="translate(-49.94 -3.02)"/><path class="cls-16" d="M273.31,23.6c0,0.88,0,1.75,0,2.63-1-1.79-2-3.57-3-5.31-0.57-1-1.89-.91-2,0.21a16.33,16.33,0,0,0,2.06,10.17c0.68,1.16,1.35,2.48,2.63,2.7a1.18,1.18,0,0,0,.27,0c0,0.94-.12,1.88-0.18,2.82A17,17,0,0,0,266,32.38a1,1,0,0,0-1.3,1.21,10.47,10.47,0,0,0,5.1,7.85,6,6,0,0,0,2,1.26,0.8,0.8,0,0,0,.85-0.07c-0.14,1.31-.26,2.62-0.43,3.92a18.47,18.47,0,0,0-1.31-1.86,6.19,6.19,0,0,0-2.7-2.12,3.26,3.26,0,0,0-4.09,2.1,6.08,6.08,0,0,0,.55,5.57c1.65,2.35,4.24,2.78,6.56,2.57h0c-0.48,2.73-1.07,5.41-1.71,8.07-0.65-1.08-1.33-2.15-2.06-3.17-1.18-1.63-3.74-5.5-5.94-4.79-2.65.85-1.73,5.53-.23,7.46,1.65,2.11,4.64,4.2,7.19,4.06l0.07,0.14c-0.63,2.31-1.34,4.58-2.08,6.84a31.8,31.8,0,0,0-1.84-2.69c-1.63-2.12-4.59-5.34-7.16-3.67-5.64,3.67.68,13.14,6.19,14-0.66,1.64-1.4,3.23-2.12,4.83a24.81,24.81,0,0,0-1.77-2.6c-1.6-2.05-4.22-4.92-6.8-3.77-3.14,1.39-2.8,6.25-.92,8.94,1.27,1.81,5,4.25,6.88,2.77-0.78,1.52-1.6,3-2.45,4.5a14.3,14.3,0,0,0-9.49-9.6,1.21,1.21,0,0,0-1.52,1.08c-0.73,6.13,2.86,11,6.71,15.46a0.77,0.77,0,0,0-.13.22c-0.3.44-.62,0.87-0.92,1.3a17.11,17.11,0,0,1,.9,2.3c0.33-.49.66-1,1-1.47,3.29,4.77,12.1,9.9,13.86,2.7,1-3.89-6.3-5.46-10.64-5.83a8.63,8.63,0,0,0,.65-3.18c1.32-2.29,2.59-4.6,3.78-7,0,5.37,7.86,8.35,11.52,6.81A1.46,1.46,0,0,0,273,95a7.39,7.39,0,0,0-4.65-6.95,13.12,13.12,0,0,0-5.44-1,9.64,9.64,0,0,0-.42-1.26c1.05-2.27,2.06-4.56,3-6.89a3.62,3.62,0,0,0,.49-0.17,1,1,0,0,0,.06.08c-0.61,1.75,1.49,3,2.9,3.45a13.73,13.73,0,0,0,7.53.43,1.35,1.35,0,0,0,.81-1.46c-0.28-2.88-1.79-5.08-4.45-5.52a10.41,10.41,0,0,0-3.58.14l-0.83.15a11.21,11.21,0,0,0-.9-2.62c0.82-2.34,1.59-4.69,2.28-7.09,2.06,3.58,6.8,2.69,9.09.05,1-1.15,1.71-3.43.25-4.81-2-1.86-5.35-1.08-7.38-.37a0.64,0.64,0,0,0-.24.15l-0.43,0c0.66-2.63,1.27-5.28,1.76-8,4.23,2.48,8.94,3.19,12-.73a1.72,1.72,0,0,0-.21-2.1A8.47,8.47,0,0,0,278.93,48c-1.68,0-3.87,0-5.35.94,0.34-2.34.63-4.7,0.85-7.09a0.83,0.83,0,0,0,.21-0.12,0.89,0.89,0,0,0,.18.17c4.24,2.87,8.48,3.08,10.41-2a1.51,1.51,0,0,0-.81-1.88,16.66,16.66,0,0,0-9.7,0c0.07-1.22.15-2.44,0.2-3.67,2.59,1.88,6.35.15,8.27-1.45a1.5,1.5,0,0,0-.22-2.27c-2.61-2.14-5.22-1.8-7.9-1.1L275,29.44c0-1.4,0-2.8-.05-4.21a0.89,0.89,0,0,0,.91.12c5-2.39,4.55-9.34,1.27-14.42a1.34,1.34,0,0,0-1.38-.74,5.39,5.39,0,0,0-4.81,5.3A13.69,13.69,0,0,0,273.31,23.6Z" transform="translate(-49.94 -3.02)"/><path class="cls-16" d="M70,117.66c0.56-.35,1.13-0.68,1.7-1-0.54,1.32-1,2.67-1.53,4a1.06,1.06,0,0,0,1.44,1.23,9.16,9.16,0,0,0,5.28-5.17c0.32-.88.76-1.81,0.1-2.74a1.38,1.38,0,0,0-.18-0.17c0.64-.33,1.3-0.64,1.94-1a12.1,12.1,0,0,0,1.59,6.29,1.1,1.1,0,0,0,1.58.37,5.72,5.72,0,0,0,1.9-6.24,4.24,4.24,0,0,0-.4-1.77,0.91,0.91,0,0,0-.57-0.54c0.93-.4,1.86-0.82,2.8-1.19a10,10,0,0,0-.39,1.56,4.06,4.06,0,0,0,.29,2.56,3.76,3.76,0,0,0,3.81,1.86,3.68,3.68,0,0,0,3.21-2.43c0.51-1.95-.76-3.8-2.29-5.25l0,0c2-.7,4.11-1.32,6.19-1.88a24.13,24.13,0,0,0-.8,2.54c-0.34,1.38-1.28,4.47.46,5.63,2.07,1.38,4.48-.93,4.82-2.6a7.4,7.4,0,0,0-1.6-6.2l0-.1c1.83-.44,3.68-0.81,5.53-1.15a17.78,17.78,0,0,0-.64,2.2c-0.41,1.84-.73,4.94,1.75,6,5.39,2.24,7.77-5.22,5.25-9.12,1.39-.16,2.79-0.26,4.18-0.37a14.06,14.06,0,0,0-.65,2.1c-0.4,1.78-.74,4.5,1.36,5.73,2.53,1.48,5.31-.48,6-2.64,0.44-1.46,0-4.74-2-5.43,1.35,0,2.71,0,4.06,0a8.89,8.89,0,0,0-.88,9.49,1.15,1.15,0,0,0,1.44.56c4.06-1.73,5.19-5.73,5.9-9.76a0.63,0.63,0,0,0,.2,0l1.26,0.13a9.51,9.51,0,0,1,.93-1.4l-1.39-.11c1.22-3.85-.16-11.56-5.55-10.15-2.93.77,0,6.2,2,9.18a5.91,5.91,0,0,0-2.28.72c-2.1,0-4.19,0-6.29,0,3.33-1.94.95-8.29-2-10.22a1.26,1.26,0,0,0-1.43,0,4.49,4.49,0,0,0-1.8,5.72,12.54,12.54,0,0,0,2.39,4,5.29,5.29,0,0,0-.55.73c-2,.14-4,0.31-6,0.55a4.14,4.14,0,0,0-.38-0.26,0.56,0.56,0,0,0,0-.07c1.44-.24,1.06-2.1.54-3.21a14.48,14.48,0,0,0-4-5.29,1.21,1.21,0,0,0-1.41,0,3.53,3.53,0,0,0-1,5.1,11.45,11.45,0,0,0,2.15,2.36l0.57,0.5a6.1,6.1,0,0,0-1.15,1.56c-1.95.32-3.89,0.67-5.81,1.11,1.08-2.71-2.29-5.6-5.36-6.18-1.34-.25-3.27.11-3.27,1.64,0,2,2.54,4,4.21,5.14a0.76,0.76,0,0,0,.24.1l0.25,0.29c-2.08.54-4.15,1.12-6.18,1.81-1-3.78-3.42-7.27-7.93-7.91a1.07,1.07,0,0,0-1.25.94,7.33,7.33,0,0,0,2,4.9,12.2,12.2,0,0,0,3.93,3.25c-1.72.66-3.43,1.35-5.12,2.11A1.05,1.05,0,0,0,81,109.9a0.55,0.55,0,0,0,0-.18c-0.79-3.94-3.36-6.91-8-6.29a0.88,0.88,0,0,0-.72,1.28,16.23,16.23,0,0,0,3.94,4.79,18.55,18.55,0,0,0,2.3,1.75c-0.84.41-1.69,0.82-2.51,1.26-0.42-2.44-4-4.31-6.3-5a1,1,0,0,0-1.36,1c0.3,2.59,2.22,4.2,4.42,5.71l0,0.1c-0.91.53-1.83,1.07-2.72,1.64a0.93,0.93,0,0,0-.52-0.64c-4.88-2.42-9.19.57-10.36,4.69a1,1,0,0,0,.44,1.18c2,1.55,4.42,2.13,6.67,1.08A7.32,7.32,0,0,0,70,117.66Z" transform="translate(-49.94 -3.02)"/><path class="cls-16" d="M265,101.32a7.21,7.21,0,0,0,.27.72l-0.85.37a2.43,2.43,0,0,0,1.13,1l0.33-.15,0.19,0.33a0.55,0.55,0,0,1,.19.34c2,3.42,5.76,7.56,7.71,3.42,1.08-2.29-1.26-4.55-3.76-5.79h0c0.86-.31,1.74-0.58,2.61-0.84a0.36,0.36,0,0,0,.13,0c1.42,3,3.1,6,6.2,6.75a0.68,0.68,0,0,0,.82-0.64,8.48,8.48,0,0,0-2.75-7.19c0.9-.19,1.79-0.35,2.69-0.5-1.11.77-.67,3.36-0.05,4.43,0.91,1.57,3.17,2.68,4.47,1.21,1.07-1.21.25-3.23-.41-4.53a13.71,13.71,0,0,0-.89-1.52c0.92-.1,1.84-0.2,2.77-0.25-0.75,3.28,2.43,8.59,5.32,6.18,1.32-1.1.44-3.37-.21-4.69a17.26,17.26,0,0,0-.88-1.56c1.23,0,2.45.07,3.67,0.17l0.05,0.07a6.43,6.43,0,0,0,.36,4.8c0.57,1.2,2.53,2.58,3.49,1.29,0.8-1.08-.43-3.23-0.93-4.2-0.31-.61-0.67-1.2-1-1.78,1.38,0.16,2.76.36,4.12,0.63v0a4.54,4.54,0,0,0-.25,4.13A2.6,2.6,0,0,0,302,104.9a2,2,0,0,0,1.85-1.84,3.74,3.74,0,0,0-.36-1.89,9.7,9.7,0,0,0-.56-1.08c0.63,0.16,1.25.34,1.88,0.52a0.56,0.56,0,0,0-.22.46,3.79,3.79,0,0,0,.14,1.33,5.22,5.22,0,0,0,2.39,4.25,0.56,0.56,0,0,0,.83-0.47,10.67,10.67,0,0,0-.39-4.71c0.44,0.15.87,0.28,1.31,0.44a0.82,0.82,0,0,0-.07.15,2.53,2.53,0,0,0,.62,1.95,6.68,6.68,0,0,0,4,3,0.65,0.65,0,0,0,.55-1.05c-0.54-.85-1.09-1.75-1.66-2.62,0.38,0.17.77,0.33,1.15,0.51a5.66,5.66,0,0,0,3,2.78c1.43,0.45,2.61-.26,3.4-1.6a0.85,0.85,0,0,0,0-.88c-1.45-2.73-4.39-4.31-6.6-2a0.63,0.63,0,0,0-.16.52c-0.61-.29-1.23-0.56-1.86-0.83l0-.06a5.74,5.74,0,0,0,1.31-4.57,0.66,0.66,0,0,0-1-.57c-1.16.76-2.79,2.51-2.53,4.3-0.56-.21-1.13-0.4-1.69-0.6a10.3,10.3,0,0,0,1-1.53,10.72,10.72,0,0,0,1.26-3.87,0.73,0.73,0,0,0-.67-0.83c-2.77.07-3.63,2.51-3.27,5.44a0.51,0.51,0,0,0,0,.13l-0.1.09c-1.13-.34-2.28-0.64-3.43-0.91A7.06,7.06,0,0,0,303.72,96a5.94,5.94,0,0,0,.13-3.77,0.77,0.77,0,0,0-.93-0.55c-2.52,1-3.23,3.79-3,6.67-1.36-.26-2.72-0.44-4.1-0.58l0.09-.25a0.39,0.39,0,0,0,.12-0.1c0.78-1,1.88-2.77,1.44-4.27a1.63,1.63,0,0,0-2.33-.84c-1.75.78-3.2,3.31-1.95,5.2-1.28-.09-2.56-0.12-3.85-0.12a5.47,5.47,0,0,0-1.06-1l0.25-.44a7.44,7.44,0,0,0,.83-2,3.31,3.31,0,0,0-1.72-3.72,0.66,0.66,0,0,0-.88.17,10,10,0,0,0-1.38,4.46c-0.09.9,0.08,2.36,1.06,2.36a0.48,0.48,0,0,0,0,.05,2.43,2.43,0,0,0-.18.24c-1.32.06-2.63,0.18-3.95,0.32a4.8,4.8,0,0,0-.52-0.49,9.39,9.39,0,0,0,.66-3.33A4.31,4.31,0,0,0,280,89.79a0.72,0.72,0,0,0-.93.18c-1.52,1.83-1.64,7,1,8.09-1.4.2-2.79,0.47-4.18,0.77a4,4,0,0,0-1.7-.27c0.68-2.58,1.37-7.13-.78-7.39-4-.48-3.15,5.75-1.41,8.61-1.21.34-2.42,0.7-3.61,1.1a7.56,7.56,0,0,0-.85-0.2c0.72-2.44,1.37-6.85-1.43-7.08C262.41,93.3,263.46,98.75,265,101.32Z" transform="translate(-49.94 -3.02)"/><path class="cls-16" d="M79.67,26a0.73,0.73,0,0,0,.75-0.21c0.45,1.13.93,2.24,1.41,3.36,0,0,0,.08,0,0.12-2.57-.19-5-0.09-6.5,2a1.25,1.25,0,0,0,.6,1.86c2.24,1,6.11,1.81,7.68-.07,0.46,1,.95,1.92,1.43,2.87a14.89,14.89,0,0,0-2.77,0,12.57,12.57,0,0,0-5.65,1.52,1.07,1.07,0,0,0-.05,1.64C80,42.87,83.65,42,86.28,39a0.54,0.54,0,0,0,.09-0.16l0.22,0.07c1,1.85,2.05,3.66,3.14,5.45a9.78,9.78,0,0,0-4.86.16,6,6,0,0,0-4.1,3,1.42,1.42,0,0,0,.55,1.71c4,2.58,7.79,1.16,10.5-1.53,1.32,2,2.72,4,4.16,5.92l-0.35.09a0.72,0.72,0,0,0-.25-0.07c-1.92-.19-5-0.18-6,1.65-0.77,1.36.63,3,1.86,3.74,2.81,1.62,7,1.4,7.51-1.77,1.36,1.73,2.78,3.4,4.21,5a8.19,8.19,0,0,0,.15,2.2l-0.72,0a8.91,8.91,0,0,0-3,.61c-2,.89-2.53,2.92-1.78,5.22a1.37,1.37,0,0,0,1.16,1,11.25,11.25,0,0,0,6-1.93c1-.62,2.23-2,1.17-3.24,0,0,0-.05,0-0.07a3.7,3.7,0,0,0,.44,0c1.5,1.6,3,3.13,4.62,4.64a7.1,7.1,0,0,0,.09,1,9.84,9.84,0,0,0-4,1.89c-1.88,1.48-2.42,3.84-1.41,6.37a1.43,1.43,0,0,0,1.19,1c3.41,0.34,8.56-3.68,6.8-7.73,1.68,1.53,3.4,3,5.14,4.43A7.83,7.83,0,0,0,120.36,80c-3.17,1.25-8.27,4.09-6.25,6.82,3.71,5,8.73-.91,9.66-5.2,1.55,1.15,3.11,2.27,4.7,3.34,0.21,0.41.43,0.79,0.66,1.13-3,1.1-7.82,3.83-5.19,7.21,3.44,4.42,7.45-1,8.3-4.82a7.5,7.5,0,0,0,.4-0.87c1.22,0.74,2.44,1.44,3.67,2.12-2.12,1.5-4.86,4.36-1.51,6.3,2.86,1.66,4.65-1,4.87-3.59a1.08,1.08,0,0,0,.19-0.42c0-.11.05-0.24,0.08-0.36a138.45,138.45,0,0,0,17.15,7.25q0.52-.82,1-1.67c-1.11-.37-2.23-0.72-3.34-1.11a119.56,119.56,0,0,1-14.44-6.31c0.63-3.74,1-9.45-2.17-11-2.21-1.1-3.75,1.63-3.71,3.54a14.38,14.38,0,0,0,1.08,4.91c-0.76-.43-1.54-0.84-2.3-1.29,1.39-4.92,2-13.7-4.23-12.71-3.28.52-3,5.1-1.67,9l0,0c-1.16-.77-2.31-1.57-3.45-2.4a0.69,0.69,0,0,0-.16-0.14c1.45-4.1,2.52-8.46.06-12.83a1.08,1.08,0,0,0-1.46-.5,9.33,9.33,0,0,0-4.05,9.09q-1.67-1.4-3.32-2.87c1.92,0.72,4-1.88,4.34-3.49,0.55-2.38-.74-6.06-3.56-6.51-2.34-.37-3.43,2.3-4,4.17a16.35,16.35,0,0,0-.53,2.33c-1.09-1.07-2.19-2.13-3.25-3.24,4-1.72,5.83-10,.28-11.8-2.56-.81-3.85,2.18-4.45,4.11a21,21,0,0,0-.58,2.41c-1.35-1.59-2.68-3.21-4-4.88,0,0,0-.08,0-0.12,2.11-.36,3.81-2.51,4.43-4.42,0.57-1.73-.25-5.46-2.64-5.68-2-.18-2.79,3.23-3.21,4.7A27.52,27.52,0,0,0,97.14,53C95.72,51,94.33,49,93,47h0c2-.23,4-1,4.52-3.09a5,5,0,0,0-1.42-4.4,3.39,3.39,0,0,0-4.06-1,3.77,3.77,0,0,0-1.53,2.08,11.4,11.4,0,0,0-.47,1.67c-0.58-1-1.13-2-1.69-3a0.73,0.73,0,0,0,.74-0.08,3.75,3.75,0,0,0,1.22-1.3c1.82-1.54,2.29-4.23,1.58-6.89a1.11,1.11,0,0,0-1.48-.76A10.5,10.5,0,0,0,86,34.72c-0.37-.73-0.76-1.46-1.12-2.2a0.93,0.93,0,0,0,.24,0c1-.36,1.12-1.5,1.3-2.5a12.56,12.56,0,0,0-1.73-8.28c-0.5-.87-1.66-0.79-1.8.09-0.24,1.51-.52,3.05-0.75,4.6-0.29-.7-0.6-1.39-0.88-2.09a9.83,9.83,0,0,0-.76-6.73,6.65,6.65,0,0,0-6-3.67,0.89,0.89,0,0,0-1,.75C72.43,19.13,74.45,24.79,79.67,26Z" transform="translate(-49.94 -3.02)"/><path class="cls-16" d="M256.88,126.24a15.57,15.57,0,0,1,2.51-1.62s15.51-3.77,24.66,11.48a16.82,16.82,0,0,0-6.12-8.49,7.83,7.83,0,0,1,2.28-.37s3.13,0.32,3.07-.71-4-.46-5.88-0.17-4.62-.53-5.32-2.13,2.2-2.46,3.67-2.62a6.21,6.21,0,0,0,3.84-2.22,4.86,4.86,0,0,0-4.28.12c-2.08,1.21-3.32,4.84-9.08,3.68,0,0-.64-1.93,2.51-4.11s3.89-4.88,3.47-6.22c0,0-2.49-.21-4.22,3.52s-3,6-4.88,6.53-3.1-.36-2.29-2.06,2.27-5.24.68-8.08c0,0-1.49,1.17-1.69,4.28s0.66,4.35-.69,6a4.88,4.88,0,0,0-1.35-4.3s-3.56-4.32,4.11-10.84c0,0,3.73,2.54,3.44,5.66s-3.27,6.39-3.27,6.39a1.41,1.41,0,0,0,1.09,1.41c1.09,0.17,2.05-2.49,2.64-5.17s2-6.9,8.2-7.32c0,0,2.9,4.48-.23,7.6s-6,3.55-5.07,5.18,4.1-2.52,5-3.7,5-4,9.62,1.28c0,0-.29,2.68-3.78,3.42s-3.87,1.3-3.87,1.3,1,1.3,4.29.67,6.25-1.2,8.13,3.26a2.91,2.91,0,0,1-3.43,1.39c-2.48-.62-2.17-1.37-3.74-1.22,0,0-.18.79,1,1.57s8.67,2.56,3.57,11.25c0,0-4-.26-5.57-3.32s-1.06-7.53-3.88-8.1c0,0-.43.6,0.42,2.72s1.37,5.72-2.72,8.76c0,0-4.57-2.18-2.9-7s0.87-7.6-1.69-8.19c0,0-1.08.74,0.44,3.77s-0.09,7.68-3.35,10.57c0,0-5.32-1.86-3.05-7.09s2.55-7.12.5-7.57c0,0-.73.4-0.32,2.8s-1.64,6.08-5.14,7.54a3.76,3.76,0,0,0-.85,2.23,5.26,5.26,0,0,1-2.69-2.73,5.06,5.06,0,0,1,2.56-7.23A1.34,1.34,0,0,0,256.88,126.24Z" transform="translate(-49.94 -3.02)"/><path class="cls-16" d="M164.6,82.42a47.39,47.39,0,0,1-3.56-5.7s-11.17-35,14.9-50.43c0,0-8.6,1-14.2,10.88a24.87,24.87,0,0,1-1.29-5.28s-0.23-7-2.16-7.27,0.2,9,1.26,13.34,0.23,10.14-2.54,11.2-5.21-5.71-5.93-9.08-3.74-8.37-5.35-9.52a13.33,13.33,0,0,0,1.48,9.81c2.9,5.09,10,9,9.42,21.3,0,0-3.39.82-8.35-6.74s-10.43-10.26-12.9-9.77c0,0,.38,5.55,8,10.58s12.13,8.33,13.55,12.59,0.16,6.52-3.17,4.33-10.38-6.39-15.25-3.75a15,15,0,0,0,8.5,4.86c5.78,1.28,7.83-.22,11.29,3.11,0,0-4.35-1.83-7.51,1.71,0,0-7,6.4-21.59-11.91,0,0,3.68-7.48,9.73-5.9s12.92,9,12.92,9a1.91,1.91,0,0,0,2.3-1.95c0-2.3-5.18-5.18-10.39-7.26S130,53.89,127.12,39.76c0,0,7.81-5.13,14.81,3.09s8.44,14.41,11.25,13-5.89-9.9-8.41-12.39-9.17-12.84-.4-21.63c0,0,5.25,1.66,7.68,10S155.57,41,155.57,41s2.16-1.91.08-9.48-4-14.89,4-17.59a9.85,9.85,0,0,1,3.54,8.48c-0.51,5.47-2,4.48-1.3,8.13,0,0,1.53.69,2.67-1.74s2.59-19.07,19.87-4.11c0,0,.39,8.94-4.79,11.34S166,35.84,165.7,42c0,0,1.22,1.15,4.9,0s10.09-1.16,16.4,8.74c0,0-2.9,9.17-11.84,4.15C166,49.7,161.07,50.56,160.65,56c0,0,1.63,2.58,6.8.19s13.84,2.48,19.64,10.27c0,0-2.14,10.62-11.86,4.47-9.93-6.28-13.46-7.46-13.75-3.19,0,0,.92,1.68,5.16,1.47S177.88,74.37,181.22,82a8.23,8.23,0,0,0,4.06,2.31s-0.47,2.95-4.18,4.83-10.28.27-13.32-7.1A2.06,2.06,0,0,0,164.6,82.42Z" transform="translate(-49.94 -3.02)"/><path class="cls-17" d="M117.35,138.53a2,2,0,0,1,.09-0.49,11.7,11.7,0,0,1,.85-1.17,7.12,7.12,0,0,0,.28-2.58c0-.8.25-4.73,1.52-4.24a1.28,1.28,0,0,1,.6.93,1,1,0,0,0,.69.84,0.84,0.84,0,0,0,.8-0.79c0.22-1.33.12-2.75,0.33-4.12l0.75-5a5.4,5.4,0,0,1,1.17-3.1,7.24,7.24,0,0,1,2-1.17,7.46,7.46,0,0,0,3.95-4.29q0.65-2,1.1-4.08a1.67,1.67,0,0,1,.19-0.55,1.08,1.08,0,0,1,.4-0.35,2.34,2.34,0,0,1,2.55.51,1.23,1.23,0,0,1,.33.39,1.44,1.44,0,0,1,.1.53,12.55,12.55,0,0,1,0,2.33c-0.08.64-.53,1.51-0.31,2.16,0.62,1.78,1.71-.71,2.18-1.36a2.52,2.52,0,0,1,1.7-1.21,2.12,2.12,0,0,1,1.62.8,10.82,10.82,0,0,0,1.54,1.71c0.8,0.58,1.8,1,2.66,1.49a50.94,50.94,0,0,1,5,3.44,7.57,7.57,0,0,1,2.1,2.19c0.91,1.65.58,3.68,0.15,5.52-2.75,11.77-8.85,23.06-18.51,30.33a17.15,17.15,0,0,1-5.52,3,2.91,2.91,0,0,1-2.18,0,3.24,3.24,0,0,1-1.1-1.25,61.13,61.13,0,0,1-4.85-10,34.42,34.42,0,0,1-1.73-5.28,17.2,17.2,0,0,1-.26-2.8A22.75,22.75,0,0,1,117.35,138.53Z" transform="translate(-49.94 -3.02)"/><path class="cls-17" d="M182.4,57.36c-0.29-.2-0.65.3-0.47,0.61a1.21,1.21,0,0,0,.92.46l9.1,1.51a8.14,8.14,0,0,0-4.15,2.62l6.56,0.32c-1.55,2-4.26,2.54-6.73,3s-5.16,1-7.76,1.26A1.3,1.3,0,0,1,179,67a1,1,0,0,1,0-1.48,15.72,15.72,0,0,1,1.33-1,2.45,2.45,0,0,0,.69-1.07,0.29,0.29,0,0,0,0-.25,0.29,0.29,0,0,0-.23-0.09,5.48,5.48,0,0,0-2.87.9,26.33,26.33,0,0,0-7.52,6.33c-0.2.24-.8,0.77-0.56,1a3.78,3.78,0,0,0,1.78,0c1.09-.17,2.15-0.92,1.76.74a1.27,1.27,0,0,0,.16,1.17,1.31,1.31,0,0,0,1.52,0c1.33-.71,2.45-1.84,3.9-2.24a12.35,12.35,0,0,1,2.6-.24c2.09-.12,4.11-0.71,6.16-1a13.5,13.5,0,0,1,3.07-.18,6.42,6.42,0,0,1,2.69,1.13c1.76,1,4,1.79,5.69.62a20.36,20.36,0,0,1,4.14,13.15c0,0.76,0,1.72.72,2a2.11,2.11,0,0,0,1.24-.1,5.47,5.47,0,0,1,5.64,2.12c0.54,0.77,1,1.77,1.89,2,1.27,0.33,2.33-1.06,3.62-1.31,1.59-.3,2.92,1.15,3.85,2.47A17.46,17.46,0,0,0,224,95.83c3.72,2.7,8.85,1.71,13.32.61a5.54,5.54,0,0,0,1.2-.39,4.52,4.52,0,0,0,1.94-2.46c1.12-2.78,1.15-5.95,3.17-8.4a4.63,4.63,0,0,1,3.1-1.75c3.06-.27,4.51,2.79,6.67,4.6a1.23,1.23,0,0,0,1.86-.4c0.91-1.75,3.61-2.64,5.17-1.26,0.23-3.44-1.7-6.75-4.31-9s-5.84-3.65-9-5c-13.79-5.68-27.92-10.66-42.49-13.85a32.1,32.1,0,0,0-9.25-1,1,1,0,0,1-1.05-.36c-0.15-.37.69-0.54,0.54-0.17" transform="translate(-49.94 -3.02)"/><path class="cls-17" d="M269.31,96.33h-0.23a3,3,0,0,0-2.27-3.58,73,73,0,0,0,1.25,14.12,2.91,2.91,0,0,1-2,.2c-0.21-1.95-1-4.47-3-4.36-1.23.07-2.1,1.26-2.49,2.44a15.07,15.07,0,0,1-1.18,3.5c-1,1.52-2.86,2.16-4.17,3.4-2.65,2.49-2.43,6.74-1.62,10.29s2,7.32.7,10.72c-1,2.67-3.56,4.82-3.64,7.69,0,1.8.91,3.45,1.49,5.16,1.71,5,.42,11.21,4,15.14,3.06,3.38,8.26,3.41,12.82,3.19a12.14,12.14,0,0,0,5.09-1c2.31-1.21,3.59-3.77,4.23-6.3s0.8-5.17,1.63-7.64c1.16-3.46,3.61-6.62,3.55-10.27,0-2.12-.94-4.14-1.15-6.25a49.6,49.6,0,0,1,.13-5.3c0-4.36-1.71-8.52-3.52-12.49C275.88,108.35,272.84,102.67,269.31,96.33Z" transform="translate(-49.94 -3.02)"/><path class="cls-17" d="M154.26,196a19,19,0,0,0,.61,2.64,13.26,13.26,0,0,0,1.38,2.49c0.55,0.8,1.2,1.52,1.77,2.3a7.78,7.78,0,0,0,.53.77c0.29,0.31.74,0.53,0.47,1a1.15,1.15,0,0,1-.38.4,2.78,2.78,0,0,1-1.64.11c-0.66,0-1.31-.08-2-0.15-1.21-.12-2.42-0.27-3.62-0.48,2.17,1.85,6.71,4.07,9.25,5.37a72.59,72.59,0,0,0,11.51,4.3l7.6,2.36a5,5,0,0,0,6.31-1.72c1.78-1.76,3.68-4.39,2.33-6.5a15,15,0,0,1-1-1.33c-0.48-1-.12-2.12.08-3.19,2-11.09-10.64-14.44-18.71-15.37-2.5-.29-7.77-2.75-10.16-1.57-1.43.71-1,1.31-1,2.72-0.07,1.78-.59,4.5.06,6.18C156.54,196.33,155.39,196.17,154.26,196Z" transform="translate(-49.94 -3.02)"/><path class="cls-17" d="M206.14,213.69l2.85-1.79a2.08,2.08,0,0,1,.57-0.28,2.22,2.22,0,0,1,1.9.91,17.5,17.5,0,0,0,9,5,2.63,2.63,0,0,1,1.15.37,0.8,0.8,0,0,1,.26,1.06,1.17,1.17,0,0,1-1,.3,140.92,140.92,0,0,0-18.44,1c-2.14.26-6.53-2.36-3.78-4.4,0.69-.51,2.61-0.08,3.45-0.25A12.55,12.55,0,0,0,206.14,213.69Z" transform="translate(-49.94 -3.02)"/><path class="cls-17" d="M218.65,205.18c2,0.1,3.42,1.75,4.74,3.21a1.62,1.62,0,0,0,.78.57,1.64,1.64,0,0,0,1-.22c1.39-.64,7-2.27,7.49-3.74s-3.81-2.42-5.1-2.84a8.78,8.78,0,0,0-5.59-.07C221.49,202.23,216,205,218.65,205.18Z" transform="translate(-49.94 -3.02)"/><path class="cls-18" d="M280.26,142a1.45,1.45,0,0,0-.51-1.39c0-.74.06-1.49,0.06-2.24a78.41,78.41,0,0,0-10.59-39.44,14.68,14.68,0,0,1-.72-4.23,1.5,1.5,0,0,0-.18-1l0-.09a1.44,1.44,0,0,0-.25-1.09c-0.38-.53-0.41-0.55-3.77-1.07a79.12,79.12,0,0,0-28.7-23.88,25.92,25.92,0,0,1-2.54-2.76,1.45,1.45,0,0,0-.23-0.5c-0.44-.61-0.61-0.64-5-1.31l-0.27,0a1.62,1.62,0,0,0-.27-0.95c-0.65-.89-1.87-1.22-13.28-2.73-3.56-.47-8-1.05-9.07-1.37a1.44,1.44,0,0,0-2.3.88,1.51,1.51,0,0,0,.12.82c-0.58,0-1.15,0-1.74,0a78.57,78.57,0,0,0-28.25,5.24,4.35,4.35,0,0,0-1.32.52,79,79,0,0,0-35.13,28.08c-4.19,3-5.11,4-5.26,4.86a1.44,1.44,0,0,0,.26,1.11,1.35,1.35,0,0,0,.47.41c-0.85,2-2.6,5.55-4.07,8.58-3.55,7.31-5.24,10.88-5.46,12.11a1.44,1.44,0,0,0,.28,1.13,1.36,1.36,0,0,0,.72.49l-0.32,3c-0.72,6.6-2.2,20.34-2.31,21a1.44,1.44,0,0,0,.3,1.16,1.37,1.37,0,0,0,.46.38c-0.46,1.43-1.23,3.73-2,6-2.71,8.18,3.06,6,2.94,6.67a1.47,1.47,0,0,0,.26,1.11c0.42,0.58.9,0.69,3.52,1,0.69,0.87-4.77,7.94-1.84,10.61,3.28,3,9.34,8.52,9.83,10.11a1.52,1.52,0,0,0,.31,1,2,2,0,0,0,1.5.7c0.67,2.11,3.31,4.56,8,7.79a78.82,78.82,0,0,0,31.27,20.18,3.59,3.59,0,0,1,.93,1.18,1.66,1.66,0,0,0,.29,1c0.61,0.84,1.48,1.22,14.28,3,2.06,0.28,4.38.6,5,.73a1.47,1.47,0,0,0,.34.1l0.25,0a1.42,1.42,0,0,0,1.31-.91c0.47,0.08,1.11.18,2.09,0.32,1.18,0.17,3.11.45,3.71,0.6a1.46,1.46,0,0,0,.46.16l0.25,0a1.44,1.44,0,0,0,1.41-1.19v-0.11h0.19c10.87,0.4,13.3.33,13.75-1.45,5.92-.4,8.07-0.78,8.38-2.51a1.52,1.52,0,0,0-.29-1.16l0,0a79,79,0,0,0,41.16-33.79c3.24-2.42,5.15-4.43,5.47-6.22a1.45,1.45,0,0,0-.58-1.43c0.74-1.32,1.93-3.24,2.55-4.23,1.16-1.85,1.25-2,1.32-2.38a1.43,1.43,0,0,0,0-.69,1.9,1.9,0,0,0,.69-1.1,1.48,1.48,0,0,0-.28-1.13,1.52,1.52,0,0,0-.81-0.54c0-.41,0-1,0-1.66A78.57,78.57,0,0,0,279.66,143,1.28,1.28,0,0,0,280.26,142Z" transform="translate(-49.94 -3.02)"/><path class="cls-19" d="M279.75,140.57c0-.74.06-1.49,0.06-2.24a78.41,78.41,0,0,0-10.59-39.44,14.68,14.68,0,0,1-.72-4.23,1.49,1.49,0,0,0-.18-1l0-.09a1.44,1.44,0,0,0-.25-1.09c-0.38-.53-0.41-0.55-3.77-1.07a79.12,79.12,0,0,0-28.7-23.88,25.92,25.92,0,0,1-2.54-2.76,1.46,1.46,0,0,0-.23-0.5c-0.44-.61-0.61-0.64-5-1.31l-0.27,0a1.62,1.62,0,0,0-.27-0.95c-0.65-.89-1.87-1.22-13.28-2.73-2.44-.32-5.26-0.69-7.16-1,2.79,4.73,5.25,10.15,10.45,11l8,10.4c5,6.43,11.45,13.54,19.51,12.74,0.6,1.27,1.2,2.54,1.73,3.81a44.09,44.09,0,0,1,3,22.36c-0.58,4.52-1.87,9-1.31,13.56,0.65,5.25,3.57,11.22.21,15.31a7.14,7.14,0,0,1-.67.67,15.66,15.66,0,0,1-4.25-8.9c-0.18-2.39.41-4.77,0.39-7.17-0.05-9.36-9-16.16-17.81-19.46A11,11,0,0,1,233,123.54c-8.6-5.11-17.58-10.34-27.54-11.21-10.81-.94-21.46,3.44-30.56,9.36S157.81,135.1,149,141.4a121.38,121.38,0,0,1-30.27,15.66c-0.09,4,3.76,2.61,3.66,3.18a1.47,1.47,0,0,0,.26,1.11c0.42,0.58.9,0.69,3.52,1,0.69,0.87-4.77,7.94-1.84,10.61,3.28,3,9.34,8.52,9.83,10.11a1.52,1.52,0,0,0,.31,1,2,2,0,0,0,1.5.7s0,0.1.06,0.14c3.48-3.81,6.79-7.8,10.22-11.37q6.5-6.76,13.55-13c3-2.63,6.24-5.27,10.16-6,2.46-.44,5-0.09,7.42-0.86,3-1,5.16-3.52,8-4.87s7.23-.58,7.62,2.53c5.25-.6,9.71-6.78,14.6-4.78,1.54,0.63,2.66,2,4.12,2.77,2.56,1.38,5.71.84,8.53,1.56,4.45,1.14,7.44,5.18,10.18,8.88q3.12,4.21,6.46,8.24c-2.23,6.92-5.14,13.49-11.31,16.85-2.64,1.44-5.75,2.18-7.84,4.35-1.7,1.77-2.65,4.42-4.92,5.34-1.48.6-3.14,0.29-4.73,0.28-8.78,0-15.06,9-23.66,10.79-7.09,1.45-14.07-2.3-20.53-5.57A98.33,98.33,0,0,0,143.1,192l0.8,0.57a78.82,78.82,0,0,0,31.27,20.18,3.59,3.59,0,0,1,.93,1.18,1.66,1.66,0,0,0,.29,1c0.61,0.84,1.48,1.22,14.28,3,2.06,0.28,4.38.6,5,.73a1.46,1.46,0,0,0,.34.1l0.25,0a1.42,1.42,0,0,0,1.31-.91c0.47,0.08,1.11.18,2.09,0.32,1.18,0.17,3.11.45,3.71,0.6a1.46,1.46,0,0,0,.46.16l0.25,0a1.44,1.44,0,0,0,1.41-1.19v-0.11h0.19c10.87,0.4,13.3.33,13.75-1.45,5.92-.4,8.07-0.78,8.38-2.51a1.52,1.52,0,0,0-.29-1.16l0,0a79,79,0,0,0,41.16-33.79c3.24-2.42,5.15-4.43,5.47-6.22a1.45,1.45,0,0,0-.58-1.43c0.74-1.32,1.93-3.24,2.55-4.23,1.16-1.85,1.25-2,1.32-2.38a1.43,1.43,0,0,0,0-.69,1.9,1.9,0,0,0,.69-1.1,1.48,1.48,0,0,0-.28-1.13,1.52,1.52,0,0,0-.81-0.54c0-.41,0-1,0-1.66A78.57,78.57,0,0,0,279.66,143a1.28,1.28,0,0,0,.6-1A1.45,1.45,0,0,0,279.75,140.57Z" transform="translate(-49.94 -3.02)"/><path class="cls-20" d="M185.18,75.42c1.2,0.49,2.4,1.12,3.48,1.62a86.79,86.79,0,0,1,12.74,7.29c8.16,5.57,15.5,12.25,22.6,19.09,1.29,1.24,6.15,6.22,7.93,4.06,1-1.18.34-2.6,1.71-3.8a9.81,9.81,0,0,1,5.9-2.26,2.94,2.94,0,0,1,1.34.18,3.25,3.25,0,0,1,1.16,1.06,47.62,47.62,0,0,0,3.44,4.45c2.24,2.3,4.91,3.89,6.89,6.47a9,9,0,0,0,2.05,2.1c1.57,1.09,1.92,1,3-.31,0.43-.55,1.29-0.24,2-0.1,0.52,0.11,1.06.1,1.57,0.23a1.5,1.5,0,0,1,1.15,1c3.09,2.87,5,6.39,7.11,10,0.77,1.34,1.56,2.87,1.13,4.35s-2.81,2.22-3.49.83a7.32,7.32,0,0,1-7.06,5.05,3.87,3.87,0,0,0-2.3-3.77,11.34,11.34,0,0,0-4.61-.87l0.27,6.73a2.62,2.62,0,0,1-2.32-1.06,9.19,9.19,0,0,0-.16,8.63c1,1.84,2.54,3.33,3.27,5.27a12.48,12.48,0,0,1,3.48-5,3.15,3.15,0,0,1,2.4-1c1.76,0.27,2,2.67,1.78,4.43s-0.36,4.06,1.27,4.76c1,0.44,2.19-.07,3.19-0.56l0.3-.15c1.83-.91,3.77-1.94,4.67-3.76a9.42,9.42,0,0,0,.68-3.94,40.22,40.22,0,0,0-.45-5.16,3.27,3.27,0,0,1,.12-1.68,1.13,1.13,0,0,1,1.38-.67,1.56,1.56,0,0,1,.65.76c1.36,2.63,2,5.76,4.19,7.75a2.66,2.66,0,0,0,1.88.83c2.34-.16,1.95-3.05,2.23-4.61a37.71,37.71,0,0,0,.4-7.65l-0.2-7.79a39.89,39.89,0,0,0-.46-6c-0.17-.95-2.24-6.47-2.55-7.39,5.41,10.64,6.75,28.18,3.68,39.7-1.57,5.88-3.88,11.61-4.6,17.66a8.83,8.83,0,0,1-1.18,4.3c-0.66.9-1.72,1.53-2.1,2.59s0,2.08-.24,3.09c-0.59,2.63-4.42,3.36-5.26,5.93a5.14,5.14,0,0,1-.61,1.74,3.82,3.82,0,0,1-1.78.9c-2.44.9-3.83,3.37-5.46,5.4a20.19,20.19,0,0,1-6.91,5.52c-1.74-4.81,5-9.16,3.59-14.07a0.82,0.82,0,0,0-.25-0.44c-0.68-.51-1.12,1.18-2,1.23a1.16,1.16,0,0,1-.95-0.86,32.55,32.55,0,0,0-1.67-3.81c-1.23-2-2.91-2-4.83-2.81a23.29,23.29,0,0,1-6-3.3c-2.92-2.55-3.08-6.93-3.88-10.73s-2.81-9.92-6.38-11.85c-1.85-1-2.93-1.29-4.19-3.2-1.05-1.59-2-3.49-3.76-4.37a5,5,0,0,1-4.66,1.36l-0.6-3.48c-1.72-.07-2.14-2.4-2.21-4.12a8.05,8.05,0,0,0-1.47-4.87c-1.1-1.33-3.23-1.93-4.6-.88-1.16.88-1.6,2.71-3,3-2.17.49-2.56-2.12-3.51-3.38a7.44,7.44,0,0,0-2.88-2,4.32,4.32,0,0,0-5.53,1.65c-0.71,1.37-.14,3.2-0.61,4.69-0.94,3-4.92,7.41-8.4,5.69a10.84,10.84,0,0,0-1.9-1.12c-1.81-.47-3,1.82-4.31,3.11a4.91,4.91,0,0,1-5.29.89c-1.24-.57-2.28-1.68-3.64-1.8-2.46-.22-3.85,2.7-5.82,4.19-2.23,1.69-5.54,1.63-7.51,3.62a9.59,9.59,0,0,0-1.86,3.29l-2.89,7.22a9.4,9.4,0,0,1-1.55,2.86,8.14,8.14,0,0,1-3.89,2.05,5.1,5.1,0,0,0-2.84,2,26.39,26.39,0,0,0-5,7.94,32.21,32.21,0,0,0-1.39,6.77c-0.16,1.25-.07,3.08-0.74,4.15-2.74-1.12-3.84-6-6.22-7.9-1-.8-2.21-1.31-3.19-2.13-2.9-2.45-3.18-7.21-6.35-9.31a2.83,2.83,0,0,1-1-.87,5.28,5.28,0,0,1-.23-1.67c-0.3-1.67-2.59-2.5-2.69-4.19a4.29,4.29,0,0,1,.4-1.67c2.73-7.61-3-16-1.32-23.94a16.8,16.8,0,0,0,5.93,6.38c1.32-2,2.08-5.69,5.25-3.95,1,0.57,2,2.6,3.16,2.11s1-2.42.33-3.12a5.55,5.55,0,0,1-1.77-4.51c0.26-2.33,1.27-2.34,3-3.06,3-1.24,5.7-6.16,7.05-9,1.68-3.44,2-6.71,2.23-10.45a23.7,23.7,0,0,1,.08-3.44c0.51-1.06,2.67-.92,3.64-1.54,1.79-1.14,1.67-3.71,1.42-5.54A9.67,9.67,0,0,1,149.19,96a7.23,7.23,0,0,1,2.29-2.47A9.93,9.93,0,0,1,156,92.46c1.92-.15,4-0.26,5.61.75a9.16,9.16,0,0,1,2.23,2.23L168,100.8a6.7,6.7,0,0,1,1.67,3.15c0.16,1.27-.88,3.66.35,4.64s2-.57,2.74-1.49a17.69,17.69,0,0,0,3.76-8.1c0.18-1-.78-0.57-1.67-1.11a1.29,1.29,0,0,1-.57-0.5,1.06,1.06,0,0,1,0-.72c0.54-1.84,1.56-3.55,1.75-5.46s-0.89-4.18-2.8-4.34c-2.84-.23-3.42,3.4-5.73,4-2.93.72-3.09-5.18-2.45-6.94a8.94,8.94,0,0,1,3.68-4,31.47,31.47,0,0,1,8.5-4.25c1.75-.53,3.73-1.22,5.59-0.92A10.63,10.63,0,0,1,185.18,75.42Z" transform="translate(-49.94 -3.02)"/><path class="cls-21" d="M156.27,208.94a5.61,5.61,0,0,1,2,.93,10.84,10.84,0,0,1,1,1.37c1.11,1.41,3.07,1.75,4.67,2.56,2.78,1.41,4.64,4.36,7.58,5.41a7.59,7.59,0,0,1,2.83,1.21c0.62,0.59,1.26,1.61,2,1.25a5.53,5.53,0,0,1,.86-0.59,1.18,1.18,0,0,1,.73.15c2.22,1,4.56,2.05,5.87,4.09-0.45-.62.26-1.5,1-1.64s1.54,0.11,2.3,0a7.16,7.16,0,0,0,1.9-.78c2.9-1.37,6.29-.75,9.48-0.5,6.46,0.51,12.92-.59,19.31-1.69,1.69-.29,3.67-0.8,4.3-2.4A42.59,42.59,0,0,1,206,213.66a6.1,6.1,0,0,1-2.51-2,2.31,2.31,0,0,1,.27-2.95,7.82,7.82,0,0,1-4.1-7.8,3.13,3.13,0,0,0,0-1.57c-0.52-1.31-2.46-.93-3.75-0.36a60.5,60.5,0,0,1-10.67,3.55c-3.21.75-6.4,0.76-9.55,1.46a0.55,0.55,0,0,0-.51.41,0.52,0.52,0,0,0,.1.26c1.09,1.77,2.78,1.77,4.11,3,0.49,0.44,2,5,1.43,4.89a40.79,40.79,0,0,1-13.4-5.25,11.68,11.68,0,0,0-4.3-2c-0.61.85-.26,2.23-1.08,2.88-0.66.52-1.43,0.17-2.12,0a17.11,17.11,0,0,1-2.51-.83c-2-.82-4-1.51-6-2.2a0.28,0.28,0,1,0-.23.49A17.86,17.86,0,0,0,156.27,208.94Z" transform="translate(-49.94 -3.02)"/><path class="cls-20" d="M262.83,85.26c0.7,1.69-.49,3.54-2.09,1.86a11.48,11.48,0,0,1-1.62-2.82,13.31,13.31,0,0,0-3.37-3.91A14.21,14.21,0,0,0,251.35,78a84.26,84.26,0,0,1-7.68-3.57,2.1,2.1,0,0,0-3,2.15l0,0.35a1.43,1.43,0,0,1-2.13,1.45h0a1.44,1.44,0,0,0-2.13,1,19.92,19.92,0,0,0,0,7.4,17.49,17.49,0,0,1,.57,4,4.79,4.79,0,0,1-.34,1.56,1,1,0,0,1-1.83,0,8.13,8.13,0,0,0-3-3.19c-1.74-1.17-3.74-2.5-4-4.58A15.19,15.19,0,0,1,228,81.9a10,10,0,0,0-1.19-4.76,26.38,26.38,0,0,0-8.2-9.91l-0.31,3.38-2.76-.89c-0.34-1.52-1.91-2.41-3.39-2.88s-3.1-.73-4.28-1.74c-0.5-.43-0.89-1-1.41-1.37a6.6,6.6,0,0,0-1.94-.9l-14.78-5a9.11,9.11,0,0,0-2.7-.61,20.24,20.24,0,0,0-3.7.68c-0.24-2.71,15-3,17.39-3a5.1,5.1,0,0,0,1.51-.18,2.5,2.5,0,0,0,1.27-1c0.26,1,1.5,1.36,2.53,1.44A16.28,16.28,0,0,0,213.34,54c1.68,2.37,5,2.81,7.89,2.58,1.19-.09,2.61-0.18,3.36.76,1-.85,2.43-1.74,3.59-1.08a4,4,0,0,1,1.12,1.21,15.11,15.11,0,0,0,7.35,5c1.56,0.55,3.32,1,4.18,2.45a5.28,5.28,0,0,0,1.09,1.7,3.62,3.62,0,0,0,1.63.46c3,0.48,5.24,2.81,7.35,4.84a26,26,0,0,0,3.59,3,13.89,13.89,0,0,1,4,3.34c1.07,1.5,1.71,3.28,2.8,4.76A11.23,11.23,0,0,1,262.83,85.26Z" transform="translate(-49.94 -3.02)"/><path class="cls-20" d="M137.86,89.52c-0.12.79,0,1.59-.09,2.39s-0.06,1.71-.09,2.56a0.88,0.88,0,0,0,1.48.94,11.87,11.87,0,0,0,2.38-2.32c0.56-.72,1-1.51,1.62-2.21a19.08,19.08,0,0,0,1.32-1.6c0.45-.69.6-1.53,1.06-2.2a2.63,2.63,0,0,0,.56-1.42c0-1.2-1.26-1.37-2.2-1.34-1.73.06-2,1.25-3,2.06C139.56,87.39,138.17,87.45,137.86,89.52Z" transform="translate(-49.94 -3.02)"/><path class="cls-20" d="M147.43,75.23c-1.83.65-3.52,1.71-3.93,3.76a0.94,0.94,0,0,0,.05.67,0.91,0.91,0,0,0,1,.27,5,5,0,0,0,1.9-.88,15,15,0,0,0,1.89-1.53,3.07,3.07,0,0,0,.69-0.86,1.2,1.2,0,0,0,0-1.07,0.76,0.76,0,0,0-.94-0.36" transform="translate(-49.94 -3.02)"/><path class="cls-20" d="M168.1,61.61A7.63,7.63,0,0,0,164.32,63a1.36,1.36,0,0,0-.54.61,0.94,0.94,0,0,0,.43,1.05,1.74,1.74,0,0,0,1.19.18,3.11,3.11,0,0,0,2.16-1.44c0.54-.9.73-2.17,1.71-2.54" transform="translate(-49.94 -3.02)"/><path class="cls-20" d="M182.76,69.23l-2,1.73a1.41,1.41,0,0,0-.68,1.53,1,1,0,0,0,1.07.4,5.1,5.1,0,0,0,1.13-.48,14.48,14.48,0,0,1,2.41-.77,11,11,0,0,0,2.41-1.08,2.4,2.4,0,0,0,.63-0.44,1.21,1.21,0,0,0-1-2L185.25,68A3.65,3.65,0,0,0,182.76,69.23Z" transform="translate(-49.94 -3.02)"/><path class="cls-20" d="M155.33,77.47a4,4,0,0,0-.53.16,6.44,6.44,0,0,0-2.36,1.77,1.07,1.07,0,0,0-.12,1.15c0.38,0.37,1.23-.14,1.55-0.35,0.74-.48,2.93-1.62,2.52-2.71A1.17,1.17,0,0,0,155.33,77.47Z" transform="translate(-49.94 -3.02)"/><path class="cls-20" d="M147.44,196.18a7.67,7.67,0,0,0-3-1.5c-0.43-.13-0.89-0.18-1.3-0.33A3.53,3.53,0,0,0,142,194a0.58,0.58,0,0,0-.58.24,0.65,0.65,0,0,0,.16.61,23.56,23.56,0,0,0,2.8,3.81,22.17,22.17,0,0,0,2.22,1.9,8.64,8.64,0,0,0,2.39,1.6c0.82,0.25,1.77-.17,1.43-1.12a4.19,4.19,0,0,0-.58-1.18c-0.19-.24-0.43-0.44-0.64-0.66a5,5,0,0,1-.95-1.5,3.87,3.87,0,0,0-.68-1.42Z" transform="translate(-49.94 -3.02)"/><path class="cls-20" d="M145.62,190.93c-1.15-1.13-3.24-2.44-3.7-2-0.77.74,1.29,3,1.81,3.45a2.45,2.45,0,0,0,1.45.6,1.21,1.21,0,0,0,1.21-.85A1.89,1.89,0,0,0,145.62,190.93Z" transform="translate(-49.94 -3.02)"/><path class="cls-20" d="M143.62,184.43a1.08,1.08,0,0,0-1.41.39,0.92,0.92,0,0,0,.55,1.29,0.8,0.8,0,0,0,.91-1" transform="translate(-49.94 -3.02)"/><path class="cls-20" d="M233.69,208.21a0.82,0.82,0,0,1,.08.4,0.78,0.78,0,0,1-.63.76l-1.44.64a3.1,3.1,0,0,1-1.35.52c-0.71-.17.16-1.36,0.4-1.6A4.14,4.14,0,0,1,233,208,0.59,0.59,0,0,1,233.69,208.21Z" transform="translate(-49.94 -3.02)"/><path class="cls-20" d="M238.15,208.89l1.1-.71a0.44,0.44,0,0,0,.13-0.11,0.37,0.37,0,0,0-.13-0.44,1.25,1.25,0,0,1-.35-0.36,0.52,0.52,0,0,1,.13-0.55,1.54,1.54,0,0,1,.51-0.31l3.55-1.56a2.83,2.83,0,0,1,1.7-.36,0.71,0.71,0,0,1,.54.39,0.75,0.75,0,0,1-.24.74,3.51,3.51,0,0,1-.87.6l-2.07,1.14a0.32,0.32,0,0,0-.18.17,0.26,0.26,0,0,0,.17.27,1.86,1.86,0,0,1,.32.14,0.8,0.8,0,0,1,.07,1,8.19,8.19,0,0,1-.73,1.21,6.56,6.56,0,0,1-1.91,1.56,19.76,19.76,0,0,1-4.59,1.93c-0.72.21-2.51,0.62-3-.25a1,1,0,0,1,.06-0.94,2.49,2.49,0,0,1,.69-0.7,16,16,0,0,1,4-2.12,7.44,7.44,0,0,0,1.25-.55,0.16,0.16,0,0,0,.08-0.08A0.29,0.29,0,0,0,238.15,208.89Z" transform="translate(-49.94 -3.02)"/><path class="cls-20" d="M251.36,202.9a23.18,23.18,0,0,1-2.82.88c-0.92.36-1.78,1.3-1.48,2.24a7.63,7.63,0,0,0,5.39-2.21,0.64,0.64,0,0,0-1-.47" transform="translate(-49.94 -3.02)"/><path class="cls-20" d="M197,140.68c-0.52-.31-1,0.44-1.15,1l-0.33,1.39a3.29,3.29,0,0,0-.09,1.79,1.13,1.13,0,0,0,1.41.78c0.36-.17.57-0.58,1-0.72a1.34,1.34,0,0,0,.59-0.22,0.71,0.71,0,0,0,0-.72l-0.92-2.4" transform="translate(-49.94 -3.02)"/><path class="cls-20" d="M209.85,141.66a2.63,2.63,0,0,0-2.41-.83,0.5,0.5,0,0,0-.49.61,5.38,5.38,0,0,0,1.6,3,3.23,3.23,0,0,0,1.27,1.05,1.11,1.11,0,0,0,1.41-.52c0.33-.93-1.09-1.85-0.7-2.75" transform="translate(-49.94 -3.02)"/><path class="cls-22" d="M213.32,151.23a4.47,4.47,0,0,0-2.05-1.18,2.22,2.22,0,0,0-2.17.68,2,2,0,0,0,.91,2.91,3.88,3.88,0,0,1,1.07.41,1.82,1.82,0,0,1,.39,1.83,3.28,3.28,0,0,0-.08,1.94c0.44,1,2,1,2.83.26a4.07,4.07,0,0,0,.89-3.13,5.56,5.56,0,0,0-.61-2.49,2.72,2.72,0,0,0-2-1.43" transform="translate(-49.94 -3.02)"/><path class="cls-20" d="M201.44,147.38a2.53,2.53,0,0,0-2-.94,0.64,0.64,0,0,0-.43.13,0.66,0.66,0,0,0-.16.44,3.76,3.76,0,0,0,2.88,3.91,17.23,17.23,0,0,0-.19-3.28" transform="translate(-49.94 -3.02)"/><path class="cls-20" d="M212.34,164.89c-0.8.53-1.83-.2-2.42-0.95s-1.31-1.66-2.26-1.54a1.72,1.72,0,0,0-1.29,1.89,4.54,4.54,0,0,0,1.07,2.26,7,7,0,0,0,2.19,2.11,2.77,2.77,0,0,0,2.9-.07,3,3,0,0,0,1-1.61c0.27-1,.11-2.24-0.82-2.61a0.71,0.71,0,0,0-1,.42" transform="translate(-49.94 -3.02)"/><path class="cls-23" d="M234.72,173.42a2.27,2.27,0,0,0-1.75-.67,0.93,0.93,0,0,0-.62,1.44c-1,.32-2.41-0.56-3.1.27a1.7,1.7,0,0,0,.21,1.94,8.28,8.28,0,0,0,7.42,3.69,2,2,0,0,0,1.17-.38,1.5,1.5,0,0,0,.24-1.72,4.4,4.4,0,0,0-1.2-1.4L234.15,174" transform="translate(-49.94 -3.02)"/><path class="cls-24" d="M202.66,197.86a6.1,6.1,0,0,0-1.77-1.69,0.51,0.51,0,0,0-.41-0.11,0.54,0.54,0,0,0-.25.53,7.18,7.18,0,0,0,.18,2.56,2.44,2.44,0,0,0,1.75,1.73c1.09,0.19,2.09-.63,2.84-1.46a1,1,0,0,0,.29-0.48,1,1,0,0,0-.64-0.86,6,6,0,0,0-2.69-.71" transform="translate(-49.94 -3.02)"/><path class="cls-20" d="M269,100.32c0.49,0.55,1.22.83,1.71,1.37,0.82,0.9.81,2.29,1.44,3.34,0.54,0.89,1.54,1.56,1.68,2.59a10.89,10.89,0,0,0,.07,1.2,2.49,2.49,0,0,0,.72,1.07,42.11,42.11,0,0,0,3.35,3.19c0.13-1.33-1.29-3.6-1.87-4.8l-3-6.18c-0.79-1.61-3.53-9.73-6.32-9.35C266.63,94.16,267.94,99.11,269,100.32Z" transform="translate(-49.94 -3.02)"/><path class="cls-20" d="M135.11,82.23a4.6,4.6,0,0,0-.52,2.88,0.54,0.54,0,0,0,.33.52,0.48,0.48,0,0,0,.26-0.06c1.44-.65,2.23-2.16,3.23-3.38A10.39,10.39,0,0,1,141,79.92a2.12,2.12,0,0,0,.89-0.79c0.64-1.34-1.55-.63-2.07-0.48A9.32,9.32,0,0,0,137.07,80,6.61,6.61,0,0,0,135.11,82.23Z" transform="translate(-49.94 -3.02)"/><path class="cls-20" d="M141.78,95.55a0.61,0.61,0,0,0-.16.39,0.5,0.5,0,0,0,.15.3,1.42,1.42,0,0,0,1.52.2A2.87,2.87,0,0,0,144.87,95a1.38,1.38,0,0,0,.13-1c-0.32-1-1.08-.27-1.52.1A9.81,9.81,0,0,0,141.78,95.55Z" transform="translate(-49.94 -3.02)"/><path class="cls-20" d="M140.57,82.29q-0.68.52-1.31,1.1a0.68,0.68,0,0,0-.26.4,0.47,0.47,0,0,0,.45.45,1.22,1.22,0,0,0,.67-0.21,16,16,0,0,0,1.41-.93,3.55,3.55,0,0,0,.69-0.58c0.28-.34.67-1.08,0-1.08A3.34,3.34,0,0,0,140.57,82.29Z" transform="translate(-49.94 -3.02)"/><path class="cls-20" d="M151.39,76.13a1.31,1.31,0,0,0-.32.74,0.34,0.34,0,0,0,.1.26,0.38,0.38,0,0,0,.22.08,2.13,2.13,0,0,0,1.57-.85c0.34-.35,1.79-2,0.7-2.2S151.85,75.49,151.39,76.13Z" transform="translate(-49.94 -3.02)"/><path class="cls-20" d="M156.45,74.19a2.2,2.2,0,0,0-.79.38,1.07,1.07,0,0,0-.42.75,0.31,0.31,0,0,0,0,.2,0.36,0.36,0,0,0,.34.09,4.25,4.25,0,0,0,1.63-.5,1.29,1.29,0,0,0,.42-0.32C158.39,73.83,156.82,74.09,156.45,74.19Z" transform="translate(-49.94 -3.02)"/><path class="cls-20" d="M165.17,72.9A5,5,0,0,0,163.71,74l-2.6,2.59A1,1,0,0,1,160,77a0.63,0.63,0,0,1-.18-0.64,1.8,1.8,0,0,1,.34-0.62,12.48,12.48,0,0,1,2.12-2.35,5.14,5.14,0,0,1,2.88-1.21c0.28,0,1.43,0,1.38.42C166.47,72.82,165.41,72.8,165.17,72.9Z" transform="translate(-49.94 -3.02)"/><path class="cls-17" d="M127,100.8a35.07,35.07,0,0,0-2.57,3.28,3.59,3.59,0,0,0-.35,4.43,2.58,2.58,0,0,0,.48.88,0.88,0.88,0,0,0,.91.26l4.1-8.58c0.27-.56,1.36-2.86.13-3C129.07,98,127.4,100.32,127,100.8Z" transform="translate(-49.94 -3.02)"/><path class="cls-17" d="M121.54,115.48a1.45,1.45,0,0,0,0,.75,0.53,0.53,0,0,0,.58.37,0.71,0.71,0,0,0,.31-0.2,7.28,7.28,0,0,0,.88-1.1c0.51-.74,2.58-4.21.61-4.56C122.46,110.49,121.71,114.5,121.54,115.48Z" transform="translate(-49.94 -3.02)"/><path class="cls-20" d="M149.68,193.44a0.51,0.51,0,0,0,.09.22,4.58,4.58,0,0,0,.73,1c0.28,0.26.63,0.45,0.91,0.72s0.39,0.48.6,0.7a1.11,1.11,0,0,0,.81.39,0.34,0.34,0,0,0,.19-0.06,0.41,0.41,0,0,0,.12-0.22c0.24-.83.55-2.56-0.48-3C152.19,193,149.62,192.7,149.68,193.44Z" transform="translate(-49.94 -3.02)"/><path class="cls-25" d="M203.64,191.14l-2.16-.12a0.43,0.43,0,0,0-.26,0,0.35,0.35,0,0,0-.14.25,1.47,1.47,0,0,0,.93,1.38,3.51,3.51,0,0,0,1.34.39,2,2,0,0,0,1-.16,1.06,1.06,0,0,0,.61-0.82,1.17,1.17,0,0,0-1-1.12,3.4,3.4,0,0,0-1.61.19" transform="translate(-49.94 -3.02)"/><path class="cls-20" d="M264.38,86.25a1.16,1.16,0,0,0,.12.85c0.38,0.81,1,1.47,1.39,2.29a4.2,4.2,0,0,0,1,1.85,0.65,0.65,0,0,0,.53.15,0.6,0.6,0,0,0,.38-0.63,2.73,2.73,0,0,0-.22-0.76,1,1,0,0,1,0-.77c0.08-.17.24-0.3,0.31-0.48a1.1,1.1,0,0,0-.58-1.11C266.83,87.3,264.74,85.22,264.38,86.25Z" transform="translate(-49.94 -3.02)"/><path class="cls-20" d="M262.91,90.56a0.2,0.2,0,0,0-.12,0,0.18,0.18,0,0,0-.11.07,1.11,1.11,0,0,0-.23.9,5,5,0,0,0,.27.92,22.58,22.58,0,0,0,.68,2.18A2.29,2.29,0,0,0,265.05,96a0.72,0.72,0,0,0,.34,0,0.7,0.7,0,0,0,.36-0.36,1.91,1.91,0,0,0-.24-1.82c-0.34-.54-0.83-1-1.21-1.49A5.77,5.77,0,0,0,262.91,90.56Z" transform="translate(-49.94 -3.02)"/><path class="cls-26" d="M199.86,107.47c0.94,1,1.84,2.14,2.69,3.27A5.6,5.6,0,0,0,199.86,107.47Z" transform="translate(-49.94 -3.02)"/><path class="cls-27" d="M134.46,150.43l2.06,1.71A6.58,6.58,0,0,0,134.46,150.43Z" transform="translate(-49.94 -3.02)"/><path class="cls-28" d="M234.54,154.55a5,5,0,0,0-1.4-2c-1.36-1.66-.42-2.86-0.7-4.56-0.18-1.06-1.3-2-2.54-2.6-1.84-.88-4.16-0.36-5.92-1.4a7.54,7.54,0,0,1-2.3-2.59c-1.06-1.66-2.17-3.59-1.64-5.49a7,7,0,0,1,1.25-2.2c1.65-2.23,4.17-4,3.77-7.12a14.13,14.13,0,0,0-1.5-3.84,14.23,14.23,0,0,1-1.25-5.57,4.15,4.15,0,0,0-.4-2.23,3.62,3.62,0,0,0-1.7-1.17c-2-.88-4.22-1.77-6.38-1.32a5.54,5.54,0,0,0-3.73,2.92c-0.09.17-1.64,3.86-1.77,3.55-0.85-2-.06-4.66.17-6.72a27.58,27.58,0,0,0-.05-6.6,3.36,3.36,0,0,0-.36-1.31c-0.74-1.24-2.54-1.14-3.95-.81q-1.62.38-3.2,0.9a1.72,1.72,0,0,0-.88.5,1.6,1.6,0,0,0-.23,1c0,1.72.55,3.51-.09,5.1a3.78,3.78,0,0,1-2.63,2.23c-0.87.19-1.95,0.17-2.41,0.93a2.34,2.34,0,0,0,.24,2.12c1.82,3.89,4.15,6.95.24,10.31a37,37,0,0,1-8.17,5.33,16.23,16.23,0,0,1-8.06,1.93c-6.81-.5-9.32-9.08-11.51-14.42a2.5,2.5,0,0,0-1-1.41,2.36,2.36,0,0,0-1.36-.09,32.85,32.85,0,0,0-4.65,1,3.69,3.69,0,0,0-1.78.91,4.23,4.23,0,0,0-.79,1.81,25.08,25.08,0,0,1-4.48,8.91c4.31,1.35,9.05,4.72,11.33,8.71,0.87,1.52.92,3.77-.71,4.78-1.2.75-2.82,0.38-4,1.25-1.69,1.23-2.47,3.84-4.78,4.2-2.92.45-5.09-1.62-8.19-.84a19.12,19.12,0,0,0-8.74,4.9c-1,1-2,2.45-1.37,3.74a3,3,0,0,0,2.17,1.47c0.88,0.2,1.81.22,2.67,0.49a4.71,4.71,0,0,1,3.1,3.39c0.62,2.76-.69,3.77-3,3.29-1.19-.25-1.36-0.63-2.43.51a9.33,9.33,0,0,0-1.45,2.87c-0.66,1.61-2.36,3.35-3.87,2.47a4.59,4.59,0,0,1-1.34,4.42,15.26,15.26,0,0,0-7.6-2.89l-0.43.78c1.2,2.19,2,4.78,3.88,6.39,1,0.83,2.19,1.33,3.19,2.13,2.73,2.21,3.6,5.91,6.3,8.16a3.64,3.64,0,0,1,.77-4.34,1.93,1.93,0,0,0,.59-0.65,2.83,2.83,0,0,0-.24-1.53c-0.23-1.23.83-2,1.22-3s0.36-2.08.71-3.07a15.4,15.4,0,0,1,4-6.17,17.77,17.77,0,0,1,2.64-2.37c1.41-.81,2.91-0.78,4.1-2.1a9.4,9.4,0,0,0,1.55-2.86l2.89-7.22a9.59,9.59,0,0,1,1.86-3.29c2-2,5.28-1.93,7.51-3.62,2-1.5,3.35-4.41,5.82-4.19,1.36,0.12,2.4,1.23,3.64,1.8a4.91,4.91,0,0,0,5.29-.89c1.36-1.29,2.49-3.58,4.31-3.11a10.84,10.84,0,0,1,1.9,1.12c3.44,1.7,7.88-3.14,8.52-6.15s0.63-7.85,5.32-5.93c2.11,0.86,4.81,5.95,7.08,5.44,1.42-.32,1.86-2.15,3-3,1.37-1,3.5-.45,4.6.88a8.05,8.05,0,0,1,1.47,4.87c0.07,1.72.49,4,2.21,4.12l0.6,3.48a5,5,0,0,0,4.66-1.36c3.16,1.54,3.76,6.46,7.11,7.48a2.22,2.22,0,0,1,1.05.47,2.42,2.42,0,0,1,.39,1.15,4.38,4.38,0,0,0,2,2.52,2.62,2.62,0,0,1-.68-1.73C234,156.46,234.72,155.53,234.54,154.55Z" transform="translate(-49.94 -3.02)"/><path class="cls-29" d="M278.88,115c0.3,0.91,2.38,6.44,2.55,7.39a39.87,39.87,0,0,1,.46,6l0.2,7.79a37.71,37.71,0,0,1-.4,7.65c-0.28,1.56.11,4.45-2.23,4.61a2.66,2.66,0,0,1-1.88-.83c-2.19-2-2.83-5.12-4.19-7.75a1.56,1.56,0,0,0-.65-0.76,1.13,1.13,0,0,0-1.38.67,3.27,3.27,0,0,0-.12,1.68,40.21,40.21,0,0,1,.45,5.16,9.42,9.42,0,0,1-.68,3.94c-0.9,1.83-2.85,2.86-4.67,3.77-1.52.76-3.25,0.79-4.58,1.85-1.76,1.4-2.82,2.76-5,3.69s-4.7,2-5.44,4.32a5,5,0,0,0,.39,3.74,39.06,39.06,0,0,1,2.06,3.44c1,2.63-.48,5.37-2.17,7.34-0.83,1-2,1.45-1.36,2.66,0.5,0.94,2.28,1.45,2.94,2.54a32.54,32.54,0,0,1,1.67,3.81,1.16,1.16,0,0,0,.95.86c0.85,0,1.29-1.74,2-1.23a0.81,0.81,0,0,1,.25.44c1.43,4.91-5.33,9.26-3.59,14.07a20.19,20.19,0,0,0,6.91-5.52c1.62-2,3-4.5,5.46-5.4a3.82,3.82,0,0,0,1.78-.9,5.14,5.14,0,0,0,.61-1.74c0.84-2.56,4.67-3.29,5.26-5.93,0.23-1-.11-2.11.24-3.09s1.44-1.68,2.1-2.59a8.83,8.83,0,0,0,1.18-4.3c0.72-6,3-11.77,4.6-17.66C285.63,143.13,284.28,125.59,278.88,115Z" transform="translate(-49.94 -3.02)"/><path class="cls-30" d="M250.65,146.44a9.19,9.19,0,0,1,.16-8.63,2.62,2.62,0,0,0,2.32,1.06l-0.27-6.73a11.34,11.34,0,0,1,4.61.87,3.87,3.87,0,0,1,2.3,3.77,7.32,7.32,0,0,0,7.06-5.05c0.68,1.39,3.06.65,3.49-.83s-0.36-3-1.13-4.35c-2.09-3.66-4-7.18-7.11-10a1.39,1.39,0,0,0-.95-0.91,15.64,15.64,0,0,0,1.8,5.88c0.87,1.51,2.3,3.11,1.73,5a1.35,1.35,0,0,1-.54.79,1.68,1.68,0,0,1-.83.17,16.42,16.42,0,0,1-7.37-1.54c-1.34-.63-2.84-1.46-4.2-0.88a4.56,4.56,0,0,0-1.42,1.14l-3.79,4a2.22,2.22,0,0,0-.7,2.55c0.65,3.3,1.32,6.58,2.16,9.82s3.25,6,5.57,8.38C252.7,149.3,251.45,148,250.65,146.44Z" transform="translate(-49.94 -3.02)"/></g></g></svg>