<svg xmlns="http://www.w3.org/2000/svg" xmlns:xlink="http://www.w3.org/1999/xlink" viewBox="0 0 313.5 277.42"><defs><style>.cls-1{isolation:isolate;}.cls-10,.cls-2{fill:#e5e5e5;}.cls-3{fill:url(#linear-gradient);}.cls-4{fill:url(#linear-gradient-2);}.cls-5{fill:#fb8a75;}.cls-6{fill:url(#linear-gradient-3);}.cls-7{fill:#dd7270;}.cls-8{fill:url(#linear-gradient-4);}.cls-9{fill:url(#linear-gradient-5);}.cls-10,.cls-13,.cls-17{mix-blend-mode:multiply;}.cls-11{fill:url(#linear-gradient-6);}.cls-12{fill:url(#linear-gradient-7);}.cls-14{fill:url(#linear-gradient-8);}.cls-15{fill:url(#linear-gradient-9);}.cls-16{fill:#fff;}.cls-17{fill:#4b5e6c;}.cls-18{fill:#00a97b;}.cls-19{fill:url(#linear-gradient-10);}.cls-20{fill:#85d34b;}.cls-21{fill:url(#linear-gradient-11);}.cls-22{fill:url(#linear-gradient-12);}.cls-23{fill:url(#linear-gradient-13);}.cls-24{fill:url(#linear-gradient-14);}.cls-25{fill:url(#linear-gradient-15);}.cls-26{fill:url(#linear-gradient-16);}.cls-27{fill:url(#linear-gradient-17);}.cls-28{fill:url(#linear-gradient-18);}.cls-29{fill:url(#linear-gradient-19);}.cls-30{fill:url(#linear-gradient-20);}</style><linearGradient id="linear-gradient" x1="31.43" y1="165.4" x2="70.53" y2="207.51" gradientUnits="userSpaceOnUse"><stop offset="0" stop-color="#cfcfcf"/><stop offset="1" stop-color="#e5e5e5"/></linearGradient><linearGradient id="linear-gradient-2" x1="277.29" y1="182.01" x2="249.21" y2="251.58" xlink:href="#linear-gradient"/><linearGradient id="linear-gradient-3" x1="37.62" y1="142.54" x2="66.82" y2="181.62" gradientUnits="userSpaceOnUse"><stop offset="0" stop-color="#fc846f"/><stop offset="1" stop-color="#ee6e62"/></linearGradient><linearGradient id="linear-gradient-4" x1="241.07" y1="194.52" x2="302.68" y2="155.91" gradientUnits="userSpaceOnUse"><stop offset="0" stop-color="#ad6369"/><stop offset="1" stop-color="#dd7270"/></linearGradient><linearGradient id="linear-gradient-5" x1="194.45" y1="217.9" x2="230.23" y2="250.66" xlink:href="#linear-gradient-4"/><linearGradient id="linear-gradient-6" x1="241.19" y1="227.72" x2="150.14" y2="323.63" xlink:href="#linear-gradient-4"/><linearGradient id="linear-gradient-7" x1="89.27" y1="246.27" x2="121.04" y2="215.74" xlink:href="#linear-gradient-3"/><linearGradient id="linear-gradient-8" x1="78.46" y1="275.31" x2="72.02" y2="225.5" xlink:href="#linear-gradient-3"/><linearGradient id="linear-gradient-9" x1="263.94" y1="231.39" x2="252.21" y2="190.17" xlink:href="#linear-gradient-4"/><linearGradient id="linear-gradient-10" x1="93.14" y1="65.66" x2="201.03" y2="193.68" gradientUnits="userSpaceOnUse"><stop offset="0" stop-color="#009c69"/><stop offset="1" stop-color="#009c69"/></linearGradient><linearGradient id="linear-gradient-11" x1="142.17" y1="215.04" x2="150.74" y2="232.44" gradientUnits="userSpaceOnUse"><stop offset="0" stop-color="#43bb45"/><stop offset="1" stop-color="#6fab12"/></linearGradient><linearGradient id="linear-gradient-12" x1="168.76" y1="162.32" x2="175.37" y2="162.32" xlink:href="#linear-gradient-11"/><linearGradient id="linear-gradient-13" x1="189.84" y1="185.32" x2="199.65" y2="185.32" xlink:href="#linear-gradient-11"/><linearGradient id="linear-gradient-14" x1="159.84" y1="208.28" x2="165.14" y2="208.28" xlink:href="#linear-gradient-11"/><linearGradient id="linear-gradient-15" x1="160.76" y1="201.55" x2="164.85" y2="201.55" xlink:href="#linear-gradient-11"/><linearGradient id="linear-gradient-16" x1="159.17" y1="112.11" x2="173.63" y2="137.55" xlink:href="#linear-gradient-11"/><linearGradient id="linear-gradient-17" x1="88.59" y1="152.23" x2="103.05" y2="177.67" xlink:href="#linear-gradient-11"/><linearGradient id="linear-gradient-18" x1="122.51" y1="135.89" x2="136.41" y2="160.34" xlink:href="#linear-gradient-11"/><linearGradient id="linear-gradient-19" x1="222.01" y1="158.31" x2="239.95" y2="179.46" xlink:href="#linear-gradient-11"/><linearGradient id="linear-gradient-20" x1="207.16" y1="140.36" x2="232.93" y2="140.36" xlink:href="#linear-gradient-11"/></defs><title>best-practices</title><g class="cls-1"><g id="Layer_1" data-name="Layer 1"><path class="cls-2" d="M35.43,150.15c-1.82-.12-9.25,1.56-11,4.87-7.91,15,1.37,39.07,3.76,55.39,3.62,24.66,1,40.82,10.45,64.34,1.06,2.66,3.36,5.91,6.53,5.17A492.72,492.72,0,0,0,59.28,204c0.49-4.65.91-9.31,0.94-14,0.07-10.28-1.61-20.59-3.68-30.7C54.42,148.94,46.54,150.87,35.43,150.15Z" transform="translate(-3.53 -4.91)"/><path class="cls-3" d="M35.43,150.15c-1.82-.12-9.25,1.56-11,4.86-3.82,7.24-3.63,16.59-2.14,26.17a106.42,106.42,0,0,0,13,19.18,25.88,25.88,0,0,1,2.45,3.18,37.23,37.23,0,0,1,2,4.34c2.71,6.07,7.88,11.07,13,15.93,1.18,1.13,2.37,2.26,3.6,3.35,1.18-7.7,2.21-15.43,3-23.16,0.49-4.65.91-9.31,0.94-14,0.07-10.28-1.61-20.59-3.68-30.7C54.42,148.94,46.54,150.87,35.43,150.15Z" transform="translate(-3.53 -4.91)"/><path class="cls-2" d="M283,150.15a15.44,15.44,0,0,1,5.41.29A9.53,9.53,0,0,1,294,155c4.41,8.33,6.66,31.68,4.27,48-3.62,24.66-9.06,48.22-18.48,71.74-1.06,2.66-3.36,5.91-6.53,5.17A492.72,492.72,0,0,1,259.16,204c-0.49-4.65-.91-9.31-0.94-14-0.07-10.28,1.61-20.59,3.68-30.7C264,148.94,271.91,150.87,283,150.15Z" transform="translate(-3.53 -4.91)"/><path class="cls-4" d="M294,155a9.54,9.54,0,0,0-5.58-4.58,15.44,15.44,0,0,0-5.41-.29c-11.1.72-19-1.21-21.11,9.16-2.07,10.11-3.75,20.42-3.68,30.7,0,4.67.46,9.32,0.94,14a491.28,491.28,0,0,0,9.36,56.73c5.06-6.89,8.15-14.88,10.46-22.83,3.09-10.62,5.06-21.55,9.83-31.71a135.28,135.28,0,0,1,6.62-11.94,33.35,33.35,0,0,1,3.8-5.07C299.34,175.52,297.26,161.17,294,155Z" transform="translate(-3.53 -4.91)"/><path class="cls-5" d="M62.34,205.41c-7-7.86-19.33-8-28.06-13.88A24.54,24.54,0,0,1,24,175.62c-0.7-4-1.61-7.95-1.22-12,0.34-3.61,1.47-7.38,4.21-9.75,3-2.61,7.32-3,11.31-2.94a64.26,64.26,0,0,1,25.82,6c3.69,1.73,7.29,3.87,9.86,7,1.6,1.95,2.75,4.22,4.2,6.28a40.37,40.37,0,0,0,6.41,6.91,83.07,83.07,0,0,0,12.74,9.3C99.92,188,103,190,102.9,193a6.35,6.35,0,0,1-1.64,3.74c-3.07,3.76-7.82,5.64-12.36,7.35-5.17,2-10.62,3.94-16.08,3.12C69.78,206.75,65.4,205.67,62.34,205.41Z" transform="translate(-3.53 -4.91)"/><path class="cls-6" d="M97.33,186.43a83.07,83.07,0,0,1-12.74-9.3,40.37,40.37,0,0,1-6.41-6.91c-1.45-2.06-2.6-4.34-4.2-6.28-2.58-3.15-6.18-5.29-9.86-7a64.1,64.1,0,0,0-13.46-4.54c0.63,0.74,1.32,1.45,2,2.13,4.44,4.39,9.81,8.21,11.19,14.56a9.55,9.55,0,0,1,.26,3c-0.32,3.1-2.86,5.41-4.94,7.74a32.74,32.74,0,0,0-5.91,9.56c-1.12,2.78-1.06,6.52-2.77,8.89,2.18,1,4.44,1.74,6.53,2.94a23.29,23.29,0,0,1,3.06,2.07c0.43,0.35,1.81,2.11,2.26,2.14,3.05,0.26,7.44,1.33,10.47,1.79,5.46,0.82,10.91-1.17,16.08-3.12,4.54-1.72,9.3-3.59,12.37-7.35A6.35,6.35,0,0,0,102.9,193C103,190,99.92,188,97.33,186.43Z" transform="translate(-3.53 -4.91)"/><path class="cls-7" d="M254.41,205.41c7-7.86,19.33-8,28.06-13.88a24.54,24.54,0,0,0,10.3-15.91c0.7-4,1.61-7.95,1.22-12-0.34-3.61-1.47-7.38-4.21-9.75-3-2.61-7.32-3-11.31-2.94a64.26,64.26,0,0,0-25.82,6c-3.69,1.73-7.29,3.87-9.86,7-1.6,1.95-2.75,4.22-4.2,6.28a40.37,40.37,0,0,1-6.41,6.91,83.07,83.07,0,0,1-12.74,9.3c-2.59,1.54-5.64,3.53-5.57,6.55a6.35,6.35,0,0,0,1.64,3.74c3.07,3.76,7.82,5.64,12.36,7.35,5.17,2,10.62,3.94,16.08,3.12C247,206.75,251.36,205.67,254.41,205.41Z" transform="translate(-3.53 -4.91)"/><path class="cls-8" d="M285.6,157.88c-2.6,2-4.41,5.09-6.61,7.93-3.84,4.95-7.89,10.08-13.57,12.71a9,9,0,0,1-3.59,1A13.6,13.6,0,0,1,257,178.2a40.31,40.31,0,0,0-21.37-1.75,11.48,11.48,0,0,0-3.47.71c-1.48.76-2.88,2.46-4.21,3.49a83.06,83.06,0,0,1-8.48,5.77c-2.59,1.54-5.64,3.53-5.57,6.55a6.35,6.35,0,0,0,1.64,3.74c3.07,3.76,7.82,5.64,12.36,7.35,5.17,2,10.62,3.94,16.08,3.12,3-.45,7.42-1.53,10.47-1.79,7-7.86,19.33-8,28.06-13.88a24.54,24.54,0,0,0,10.3-15.91c0.7-4,1.61-7.95,1.22-12a16.7,16.7,0,0,0-2.44-7.69A9.47,9.47,0,0,0,285.6,157.88Z" transform="translate(-3.53 -4.91)"/><path class="cls-7" d="M209.9,189c12.63-8.64,37.1-13.13,44.32-3.28s10.51,18.71,13.13,34.8-4.6,15.43-4.92,23.64-5.91,7.22-9.85,6.57-6.57-7.22-6.89-13.46a360,360,0,0,1-25.92,25.61c-10.11,8.86-23.31,17.94-31.53,19.37-2.74.48-10.81-.62-8.33-3.92,7.19-9.54,32.3-31.54,32.3-31.54s-42.35,26.59-52.57,24.29c-6.69-1.5-4.49-3.94-7.48-5.91s-6.76-6.89,3.17-11.82,26-12.32,29.63-27.5A61.72,61.72,0,0,1,209.9,189Z" transform="translate(-3.53 -4.91)"/><path class="cls-9" d="M253.87,189.83a12.05,12.05,0,0,0,1-3.22l-0.65-.91c-7.22-9.85-31.69-5.36-44.32,3.28a61.72,61.72,0,0,0-25,36.85c-3.61,15.18-19.7,22.57-29.63,27.5s-6.16,9.85-3.17,11.82,0.79,4.4,7.48,5.91c7.77,1.75,34.08-13.19,46.27-20.46l2.63-1.89c6.52-4.67,11.67-12.56,17-18.58,3.09-3.48,6.24-7.07,7.82-11.45,0.72-2,1.1-4.14,2-6.08a24.77,24.77,0,0,1,4.25-5.86l10.81-12.18A21.33,21.33,0,0,0,253.87,189.83Z" transform="translate(-3.53 -4.91)"/><path class="cls-10" d="M155.51,269.41a10.22,10.22,0,0,0,4.12,1.65c9.07,2,43.42-18.66,51.05-23.35,3.1-2.48,6.24-5.33,7.06-9.19C203.63,248.36,156.89,269.12,155.51,269.41Z" transform="translate(-3.53 -4.91)"/><path class="cls-11" d="M242.13,212.24c4.74,10.55.85,20.91-7.21,28.15-5.85,5.26-11.72,10.52-17.08,16.28-2.56,2.75-5,5.61-7.69,8.22a60.84,60.84,0,0,1-24,14.32c-1.09.34-2.35,0.8-2.71,1.89a1.13,1.13,0,0,0,.13.93,15,15,0,0,0,4.64.19c8.22-1.43,21.42-10.51,31.53-19.37a360,360,0,0,0,25.92-25.61c0,0.07,0,.14,0,0.21a19.59,19.59,0,0,0,.7-2.25,21.67,21.67,0,0,0,.35-6.4A43.17,43.17,0,0,0,242.13,212.24Z" transform="translate(-3.53 -4.91)"/><path class="cls-5" d="M106.7,188.84c-12.63-8.64-37.1-13.13-44.32-3.28s-10.51,18.71-13.13,34.8,4.6,15.43,4.92,23.64,5.91,7.22,9.85,6.57,6.57-7.22,6.89-13.46A360,360,0,0,0,96.83,262.7c10.11,8.86,21.83,18.07,30.13,17.2,3.93-.41,8.2-2.53,7.1-6.55,21.2,11.52,30.89-9.6,23.2-12.07C145.65,257.54,127.62,242,127.62,242s6.83,5.72,20.7,8.24c6.5,1.18,11.67-7.25,5.37-8.88-10.73-2.78-19.4-3.67-22.05-15.68A60.51,60.51,0,0,0,106.7,188.84Z" transform="translate(-3.53 -4.91)"/><path class="cls-5" d="M106.7,188.84c-12.63-8.64-37.1-13.13-44.32-3.28s-10.51,18.71-13.13,34.8,4.6,15.43,4.92,23.64,5.91,7.22,9.85,6.57,6.57-7.22,6.89-13.46A360,360,0,0,0,96.83,262.7c10.11,8.86,21.83,18.07,30.13,17.2,3.93-.41,8.2-2.53,7.1-6.55,21.2,11.52,30.89-9.6,23.2-12.07C145.65,257.54,127.62,242,127.62,242s6.83,5.72,20.7,8.24c6.5,1.18,11.67-7.25,5.37-8.88-10.73-2.78-19.4-3.67-22.05-15.68A60.51,60.51,0,0,0,106.7,188.84Z" transform="translate(-3.53 -4.91)"/><path class="cls-12" d="M157.27,261.28C145.65,257.54,127.62,242,127.62,242s6.83,5.72,20.7,8.24c6.5,1.18,11.67-7.25,5.37-8.88-10.73-2.78-19.4-3.67-22.05-15.68a60.52,60.52,0,0,0-24.95-36.85,54.08,54.08,0,0,0-24.63-8.62,38,38,0,0,0-12.37.61,12.18,12.18,0,0,0-7.75,5.31c0.08,3.06,2.46,5.61,4.43,7.95A124.62,124.62,0,0,0,80.18,208c4.58,4,9.5,7.59,13.54,12.12,1.72,1.93,2.65,4,4,6.06,1.59,2.4,4,4,5.43,6.62,1.16,2.19,1.73,4.8,3.55,6.49,2,1.89,5.06,2.1,7.67,3.07,3,1.11,5.52,3.26,8.07,5.21,3.48,2.66,7.16,5,10.85,7.38l9.19,5.89c2.69,1.73,5.55,3.51,8.75,3.66a28.13,28.13,0,0,1,4.51.09c0.9,0.19,1.76.61,2.67,0.72a4.19,4.19,0,0,0,1.44-.09A3.88,3.88,0,0,0,157.27,261.28Z" transform="translate(-3.53 -4.91)"/><g class="cls-13"><path class="cls-2" d="M127.88,242.21c1.34,1,8.09,5.79,20.44,8a7.36,7.36,0,0,0,6.7-2.35c-1.71-.45-9.65-0.62-17-3.82-8.8-3.84-13.84-7.74-18.69-16A28.4,28.4,0,0,0,127.88,242.21Z" transform="translate(-3.53 -4.91)"/><path class="cls-2" d="M128.1,242.41c0.46,0.43.92,0.85,1.4,1.25,0.87,0.74,1.78,1.43,2.7,2.09C130.26,244.22,128.81,243,128.1,242.41Z" transform="translate(-3.53 -4.91)"/></g><path class="cls-14" d="M74.7,233.08c-2.11-6.31-1-11.1,4.39-18.13-6.32,0-14.75,7.32-16.95,20.93-1,6.35-2.28,8.89-7.32,11.7,1.64,4.25,6,3.5,9.19,3,3.94-.66,6.57-7.22,6.89-13.46A360,360,0,0,0,96.83,262.7C98,263.76,78.58,244.67,74.7,233.08Z" transform="translate(-3.53 -4.91)"/><path class="cls-15" d="M262.14,199.84l-0.14,0,1.24,12.47c0.41,4.08.78,8.41-1,12.11-1.33,2.77-3.81,5-4.46,8-0.69,3.17.8,6.35,2.09,9.33a16.08,16.08,0,0,1,1.64,6.59,10.21,10.21,0,0,0,.92-4.22c0.33-8.21,7.55-7.55,4.92-23.64C266,212,264.38,205.52,262.14,199.84Z" transform="translate(-3.53 -4.91)"/><path class="cls-16" d="M315.91,98.6a7.17,7.17,0,0,0-5.38-3,0.74,0.74,0,0,0-1-.48A20.45,20.45,0,0,0,308,92.76a10.71,10.71,0,0,0,1.22-.71,3.26,3.26,0,0,0,1.26-1.46,3,3,0,0,0-1-3.12,7.17,7.17,0,0,0-3.19-1.72c-0.87-.23-2.11-0.41-2.78.28a1.84,1.84,0,0,0-.28,1.88Q302,87,300.71,86.16a3.32,3.32,0,0,0,1.92-1.4,2.9,2.9,0,0,0-.48-3.19,6.86,6.86,0,0,0-3-2.2,2.75,2.75,0,0,0-2.84.18c-1,1-.5,2.79.1,4.18-1.31-.64-2.63-1.22-4-1.74l0,0a6.2,6.2,0,0,0-.71-0.57c2.14-1,3.63-3.36,1.63-5.74-1.75-2.07-4.51-2.68-6.19-1a4.89,4.89,0,0,0-1,5.18h0c-0.46-.13-0.92-0.24-1.38-0.35l0-.06c0.11-.21.2-0.42,0.28-0.62a3.59,3.59,0,0,0,.19-2A3.3,3.3,0,0,0,283,74.4a1.83,1.83,0,0,0-2.37.86c-0.53,1.08.25,2.59,1,3.65-9.58-1.3-19.42,1.79-27.78,6.16-5.48,2.86-10.11,6.84-14.59,11.16,1.8-2,3.54-4,5.21-6a50.24,50.24,0,0,0,5.63-8.57c0.84,1.45,2.35,3.39,3.86,3.19s1.82-1.93,2-3.27a16.88,16.88,0,0,0-.2-5.22c-0.2-1-.63-3.05-1.9-3.16H253.8c0.41-1.12.8-2.25,1.16-3.39a5.35,5.35,0,0,0,1.92,2.82,4,4,0,0,0,5.24-.21c1.19-1.32.48-3.68-.92-4.86a3.58,3.58,0,0,0,2.68-2.63c0.15-1.45-1-3-2-4a6.89,6.89,0,0,0-4.07-2c0.29-1.36.6-2.7,0.86-4.07,0.36,0.3.73,0.58,1.07,0.82,1.9,1.3,4.28,1.73,5.47-.17A2.7,2.7,0,0,0,264,51.3a7.31,7.31,0,0,0-3.12-.53,9.79,9.79,0,0,0,2.32-4.91c0.29-1.65-.22-4.46-2.37-4.07-2.33.42-3,3-3.2,5.43a4.88,4.88,0,0,0,.08,1.11,2.73,2.73,0,0,0-1.65-.5A3.22,3.22,0,0,0,253.46,50a2.86,2.86,0,0,0,.47,3.19,2.75,2.75,0,0,0,3.21.12,9.31,9.31,0,0,0,.66.74c-0.5,1.94-1,3.85-1.5,5.76-1.42-2.9-4.07-5.56-5.28-1.24a3.86,3.86,0,0,0,0,2.51c-1.46-.44-3.43-0.43-3.68,1.19-0.45,3,3.86,5.73,6.61,5.59q-0.73,2.28-1.56,4.51a5.44,5.44,0,0,0-2.51-3.24,2.36,2.36,0,0,0-3.09,1.15,4.39,4.39,0,0,0,.13,4.21,5.62,5.62,0,0,0,3.55,2.57,56.89,56.89,0,0,1-5.83,10.19c-9.76,13.43-23.57,23-37.86,32.35-0.61.4,0.06,1.56,0.73,1.26a82.93,82.93,0,0,0,19.39-12.56c-2,1.87-4.07,3.72-6.18,5.51-2.47,2.09-7.43,7.26-11.24,6.56a0.23,0.23,0,0,0-.15.43c3.16,2.67,9.15-3.21,11.12-4.75a192.32,192.32,0,0,0,19.12-17.77c11-11.3,26.78-18.7,41.78-17.56a3.63,3.63,0,0,0-.93,2.8,5.39,5.39,0,0,0,2.4,4.13c1.5,0.89,2.84-.22,3.34-1.67a3.7,3.7,0,0,0,2.48,1.84A4.68,4.68,0,0,0,293,86.41c-0.53,2.28,1.91,4.35,3.57,5.08,1.84,0.81,3.91.3,4.53-1.81a3.64,3.64,0,0,0,.11-1.39c0.84,0.64,1.67,1.33,2.48,2.06a2.52,2.52,0,0,0-1.6.75c-1.45,1.54.33,3.92,1.63,5s3.33,1.52,4.33,0a2.48,2.48,0,0,0,.33-0.87l0.48,0.57a0.77,0.77,0,0,0,.34,1.16c0.2,3.61,3,6.55,5.43,8.77a0.51,0.51,0,0,0,.69.07A5.34,5.34,0,0,0,315.91,98.6Zm-21.74-2.24a3.55,3.55,0,0,0,.23-0.46,2.89,2.89,0,0,0,.11-1.15c0.48,0.35.94,0.72,1.41,1.09A2.51,2.51,0,0,0,294.17,96.36Z" transform="translate(-3.53 -4.91)"/><path class="cls-16" d="M211.9,102.52s12.8-.5,21.67-9.42c0,0-13.06-8.65-21.74,2.21a33.56,33.56,0,0,1,12.86-.94S216.61,97,211.9,102.52Z" transform="translate(-3.53 -4.91)"/><path class="cls-16" d="M210.88,89.2s15.75,0.91,25.57-17.13c0,0-16.1-3.54-25.61,12.79a36.3,36.3,0,0,1,11.09-5S214.37,84.12,210.88,89.2Z" transform="translate(-3.53 -4.91)"/><path class="cls-16" d="M211.27,77.46s15.5-3.52,18.71-21.28c0,0-15,3-19.26,16.71,0,0,2.87-3.77,9.71-7.43C220.43,65.46,214.26,71.33,211.27,77.46Z" transform="translate(-3.53 -4.91)"/><path class="cls-16" d="M210.27,65.37a26.67,26.67,0,0,0,14.82-21.87s-12.94,4.87-16.31,18.91a28.4,28.4,0,0,1,9.07-9.29A42.46,42.46,0,0,0,210.27,65.37Z" transform="translate(-3.53 -4.91)"/><path class="cls-16" d="M207.81,54.14s10.59-4.61,15.06-21.69c0,0-15.64,2.32-16.78,19.48a25.75,25.75,0,0,1,8.11-10.2A64.88,64.88,0,0,0,207.81,54.14Z" transform="translate(-3.53 -4.91)"/><path class="cls-16" d="M203.67,47.85s7.49-10,8.36-25.74c0,0-10.12,4.58-10.31,18.85a35,35,0,0,1,5.54-9.52A43.84,43.84,0,0,0,203.67,47.85Z" transform="translate(-3.53 -4.91)"/><path class="cls-16" d="M199.1,39.53a40.35,40.35,0,0,1,5-14.16s2.61-5.82-.64-16.36c0,0-13.4,7.2-7.39,26.94a25.69,25.69,0,0,1,3.77-13A77.89,77.89,0,0,0,199.1,39.53Z" transform="translate(-3.53 -4.91)"/><path class="cls-16" d="M191.15,28.08s4.48-10.8-2.43-23.17c0,0-6.22,7.84-.32,20.22a38.88,38.88,0,0,0,.07-10.29S190.49,18.62,191.15,28.08Z" transform="translate(-3.53 -4.91)"/><path class="cls-16" d="M182.21,23s-10.1-3.59-14.79-15.76c0,0,12.43-1.49,17,13.19a30.68,30.68,0,0,0-9.55-7.71A31.75,31.75,0,0,1,182.21,23Z" transform="translate(-3.53 -4.91)"/><path class="cls-16" d="M189.12,34.17s-9.06-14.66-25.81-9.25c0,0,6.77,10.11,23.65,10.2a40.55,40.55,0,0,0-10.66-6.37A33.72,33.72,0,0,1,189.12,34.17Z" transform="translate(-3.53 -4.91)"/><path class="cls-16" d="M194.76,43.4S182.7,31.21,169,37a26.75,26.75,0,0,0,12,6.74c7.62,2,12.32,3.08,16.32,5.64,0,0-5.45-6.58-18-10.62C179.31,38.72,188,39.56,194.76,43.4Z" transform="translate(-3.53 -4.91)"/><path class="cls-16" d="M199.22,55.36S187,39.1,170.69,48.43a59.07,59.07,0,0,0,15.09,5.92c7.73,1.67,12.88,4,15.14,5.71a35,35,0,0,0-16-9.42S193.1,51.23,199.22,55.36Z" transform="translate(-3.53 -4.91)"/><path class="cls-16" d="M202,66.54s-8.54-16-29.32-7.4a42.74,42.74,0,0,0,15.87,8.18c9.23,2.42,14.37,7.4,15,8.25,0,0-4.32-9.31-17.69-14.57C185.87,61,193.28,61.12,202,66.54Z" transform="translate(-3.53 -4.91)"/><path class="cls-16" d="M202.36,92.19a38.73,38.73,0,0,0-10.51-10.34c-7-4.64-11-10.06-12-12.44,0,0,15.31-1.86,23.79,13.9A39.74,39.74,0,0,0,193,75.83S199.41,81.36,202.36,92.19Z" transform="translate(-3.53 -4.91)"/><path class="cls-16" d="M202.16,97.72s-2.59-15.06-24.41-17c0,0,5.81,12.22,20.94,20.53a37.94,37.94,0,0,0-10.91-15.17S196,88,202.16,97.72Z" transform="translate(-3.53 -4.91)"/><path class="cls-16" d="M204,99l0-.19,0.12-.55c0.1-.49.25-1.23,0.4-2.18s0.34-2.12.5-3.47,0.3-2.88.4-4.57,0.19-3.52.18-5.47c0-1,0-2,0-3s-0.09-2.09-.17-3.16-0.16-2.17-.3-3.27-0.25-2.23-.41-3.36-0.37-2.27-.55-3.42-0.45-2.29-.71-3.44-0.52-2.3-.85-3.43l-0.47-1.71c-0.15-.57-0.35-1.12-0.52-1.68l-0.53-1.67-0.59-1.64-0.58-1.63-0.63-1.59L198.68,48,198,46.47,197.37,45c-0.22-.49-0.46-1-0.69-1.44L196,42.14l-0.33-.69-0.35-.66L194,38.23l-1.33-2.32c-0.42-.74-0.82-1.45-1.24-2.08L190.27,32l-0.5-.82-0.49-.72c-0.62-.91-1.11-1.64-1.43-2.14l-0.51-.77,0.6,0.68c0.39,0.44,1,1.1,1.68,1.94l0.56,0.67,0.59,0.75,1.33,1.7c0.48,0.6.95,1.27,1.44,2s1,1.44,1.55,2.23c1,1.6,2.13,3.31,3.15,5.22,0.26,0.47.54,0.94,0.79,1.43l0.76,1.49,0.77,1.53,0.72,1.59L202,50.39,202.68,52l0.67,1.68,0.61,1.71c0.2,0.57.42,1.15,0.59,1.73l0.54,1.75c0.38,1.17.67,2.36,1,3.54s0.56,2.37.84,3.56,0.48,2.36.66,3.54c0.4,2.34.68,4.66,0.87,6.89,0.1,1.12.15,2.21,0.21,3.28s0.09,2.12.08,3.13c0,2,0,3.94-.13,5.7s-0.27,3.35-.45,4.76-0.36,2.63-.54,3.63-0.36,1.78-.48,2.32L207,99.9l-0.05.21Z" transform="translate(-3.53 -4.91)"/><path class="cls-16" d="M78.87,130.48a28.68,28.68,0,0,0-7.75-14.86s-4.58,8.65,3.15,14.72a24.56,24.56,0,0,1-1.61-8.6S75,127.23,78.87,130.48Z" transform="translate(-3.53 -4.91)"/><path class="cls-16" d="M70.41,130.8s-0.7-10.5-13.57-17.87c0,0-.74,11,10.78,17.79a30.16,30.16,0,0,1-4.24-7.53S66.85,128.36,70.41,130.8Z" transform="translate(-3.53 -4.91)"/><path class="cls-16" d="M62.81,130.23a22.68,22.68,0,0,0-16-13.29s3.65,10.36,13,13.54a27.52,27.52,0,0,1-5.83-6.7A43.47,43.47,0,0,0,62.81,130.23Z" transform="translate(-3.53 -4.91)"/><path class="cls-16" d="M55,130.57a23.16,23.16,0,0,0-16.16-10.64s4.8,8.94,14.39,11.55a25.2,25.2,0,0,1-7.09-6.31A36.67,36.67,0,0,0,55,130.57Z" transform="translate(-3.53 -4.91)"/><path class="cls-16" d="M48,131.91s-4.24-7.21-16.27-10.78c0,0,3.57,10.66,15,11.85A22.88,22.88,0,0,1,39,127.31,55.7,55.7,0,0,0,48,131.91Z" transform="translate(-3.53 -4.91)"/><path class="cls-16" d="M44.3,134.46a41.46,41.46,0,0,0-18.13-6.23A18.12,18.12,0,0,0,40,135.57a30.58,30.58,0,0,1-7-3.89A34,34,0,0,0,44.3,134.46Z" transform="translate(-3.53 -4.91)"/><path class="cls-16" d="M39.39,137.24a32.64,32.64,0,0,1-10-3.62s-4.24-1.88-10.84,0a17.69,17.69,0,0,0,18.83,5.49,20.1,20.1,0,0,1-9-2.76A54.43,54.43,0,0,0,39.39,137.24Z" transform="translate(-3.53 -4.91)"/><path class="cls-16" d="M32.89,142.1s-7.68-3.13-14.88,1a14,14,0,0,0,13.31.64,26.7,26.7,0,0,0-6.73-.27S26.78,142.31,32.89,142.1Z" transform="translate(-3.53 -4.91)"/><path class="cls-16" d="M30.73,147.65a12.38,12.38,0,0,1-8.2,8.84s-2.69-7.71,6.25-10.29A13.64,13.64,0,0,0,25,152,14.44,14.44,0,0,1,30.73,147.65Z" transform="translate(-3.53 -4.91)"/><path class="cls-16" d="M37.1,143.52s-8.35,5.4-2.8,15.73c0,0,5.59-3.91,3.68-14.34a19,19,0,0,0-2.81,6.52A17.17,17.17,0,0,1,37.1,143.52Z" transform="translate(-3.53 -4.91)"/><path class="cls-16" d="M42.42,140.13S36,147.5,41.23,156.05a12.55,12.55,0,0,0,2.93-7.24c0.46-4.72.61-7.68,1.82-10.19,0,0-3.65,3.34-4.81,11.14A24.48,24.48,0,0,1,42.42,140.13Z" transform="translate(-3.53 -4.91)"/><path class="cls-16" d="M49.67,137.54s-9.14,7.43-1.41,17.67a29.7,29.7,0,0,0,2.18-9.16c0.27-4.84,1.24-8.08,2.11-9.5a17.29,17.29,0,0,0-4.39,9.94S47.66,141.37,49.67,137.54Z" transform="translate(-3.53 -4.91)"/><path class="cls-16" d="M56.61,136s-9.42,5.11-1.86,18.19a21,21,0,0,0,3.64-9.61c0.68-5.79,3.39-9,3.89-9.34,0,0-5.58,2.56-7.64,10.91A19.47,19.47,0,0,1,56.61,136Z" transform="translate(-3.53 -4.91)"/><path class="cls-16" d="M73,136.4a19.26,19.26,0,0,0-5.7,6.43c-2.33,4.26-5.37,6.63-6.78,7.18,0,0-2.59-9.6,6.72-14.66a20,20,0,0,0-3.85,6.6S66.35,138,73,136.4Z" transform="translate(-3.53 -4.91)"/><path class="cls-16" d="M76.51,136.66s-9.35,1.3-8.74,14.86c0,0,7.13-3.31,11.24-12.57a19.23,19.23,0,0,0-8.7,6.51S70.81,140.32,76.51,136.66Z" transform="translate(-3.53 -4.91)"/><path class="cls-16" d="M77.19,135.52l-0.12,0-0.35-.09c-0.32-.08-0.8-0.19-1.41-0.31s-1.37-.27-2.24-0.41-1.86-.26-2.94-0.37-2.27-.21-3.52-0.25c-0.63,0-1.27,0-1.93,0s-1.33,0-2,0-1.38.05-2.08,0.11-1.41.11-2.13,0.18-1.43.18-2.15,0.27-1.44.24-2.16,0.38-1.44.28-2.14,0.47l-1.06.26c-0.35.09-.69,0.2-1,0.3l-1,.3-1,.34-1,.33-1,.37-1,.36-0.91.4-0.9.38c-0.29.13-.57,0.28-0.86,0.41l-0.83.4-0.41.2-0.39.21-1.5.81-1.35.8c-0.43.25-.84,0.49-1.2,0.74l-1,.68-0.47.3-0.41.29-1.21.86-0.43.3,0.37-.37,1.05-1,0.36-.34,0.42-.36,0.94-.81c0.33-.29.71-0.58,1.12-0.88s0.82-.62,1.27-0.94c0.92-.61,1.91-1.29,3-1.91,0.28-.16.55-0.33,0.84-0.48l0.89-.46,0.91-.46,1-.43,1-.43,1-.4,1-.39,1.05-.35c0.35-.11.7-0.24,1.06-0.35l1.08-.31c0.72-.22,1.46-0.38,2.2-0.56s1.49-.31,2.23-0.46,1.49-.26,2.23-0.34c1.48-.2,2.95-0.33,4.38-0.39,0.71,0,1.41,0,2.1-.06s1.36,0,2,0c1.3,0,2.54.12,3.67,0.23s2.17,0.26,3.08.41,1.71,0.3,2.36.44,1.16,0.28,1.51.37l0.41,0.11,0.14,0Z" transform="translate(-3.53 -4.91)"/><path class="cls-16" d="M112.56,13.74a5,5,0,0,0-3.48,3.58,0.56,0.56,0,0,0-.6.73,12.49,12.49,0,0,0-2.17.39,13.49,13.49,0,0,0-.29-1.36,4.11,4.11,0,0,0-.86-1.71,2.13,2.13,0,0,0-2.64-.38,4.91,4.91,0,0,0-2,2.14,3,3,0,0,0-.35,2.57,1.77,1.77,0,0,0,1.4,1,21,21,0,0,0-1.87,1.47A4.16,4.16,0,0,0,99,19.92a2.29,2.29,0,0,0-2.57-.86,4.31,4.31,0,0,0-2.32,1.78,2.71,2.71,0,0,0-.42,2.56C94.29,24.66,95.79,24.94,97,25c-0.75.88-1.46,1.8-2.12,2.73h0a3.75,3.75,0,0,0-.58.39c-0.37-2.25-1.9-4.47-4.13-3.67a3.51,3.51,0,0,0-1.94,5A4.84,4.84,0,0,0,92,32.24h0c-0.19.34-.36,0.69-0.53,1l-0.05,0C91.27,33.12,91.13,33,91,32.81a3.36,3.36,0,0,0-1.51-.94,2,2,0,0,0-2.27.9,2,2,0,0,0,.23,2.34c0.73,0.86,2,.78,3,0.59-2.77,7.48-2.22,16.59-.49,24.73a66.86,66.86,0,0,0,5.45,14.88q-1.66-3-3.41-5.92a53.86,53.86,0,0,0-5.26-7.24c1.22-.15,2.92-0.65,3-1.89s-1.1-2.1-2.06-2.71a14.18,14.18,0,0,0-3.92-1.69c-0.82-.22-2.39-0.59-2.69.38,0,0,0,0,0,0-0.77-.72-1.55-1.43-2.35-2.13a3.24,3.24,0,0,0,2.45-.52,3.41,3.41,0,0,0,.74-4.28,2.84,2.84,0,0,0-3.85-1,4.17,4.17,0,0,0-1.56-3.15,3.67,3.67,0,0,0-3.39.19,4.26,4.26,0,0,0-2.19,2.59c-1-.73-2-1.48-3-2.2a8.42,8.42,0,0,0,.8-0.58,3.2,3.2,0,0,0,.74-4.59C68.42,39.18,67,38.75,66,40a5.46,5.46,0,0,0-.9,2.39,11.65,11.65,0,0,0-3.49-3.78c-1.26-.87-3.55-1.51-3.56.44,0,2.11,1.94,3.65,3.79,4.7a4.27,4.27,0,0,0,.88.35,1.83,1.83,0,0,0-.64,1.17,3.8,3.8,0,0,0,1.3,2.95c0.67,0.68,1.73,1.22,2.54.79s0.82-1.57.59-2.57a5.31,5.31,0,0,0,.68-0.26l4.19,3.33c-2.45.1-4.9,1.26-1.79,3.8a3.4,3.4,0,0,0,1.91.88c-0.57,1-.87,2.57.31,3.34,2.15,1.4,4.95-1,5.3-3.25q1.6,1.39,3.13,2.84a3.24,3.24,0,0,0-2.85.83,2.26,2.26,0,0,0,.35,2.82,3.73,3.73,0,0,0,3.15,1.37,3.29,3.29,0,0,0,2.51-1.87,61,61,0,0,1,6.47,8c7.87,11.72,12,24.6,15.73,37.2,0.16,0.53,1.06.42,1-.12a73.05,73.05,0,0,0-5-17.18c0.92,2,1.81,4,2.65,6.05,1,2.35,3.54,7.3,2.36,9.66a0.19,0.19,0,0,0,.26.23c2.39-1.34-.46-7.19-1.13-9a186.27,186.27,0,0,0-8.84-19.34c-6.15-12.13-8.8-27.21-5.16-39.13a3.82,3.82,0,0,0,2,1.84A3.42,3.42,0,0,0,97.31,38c1-.92.39-2.46-0.62-3.43a2.32,2.32,0,0,0,1.89-1.39A5.09,5.09,0,0,0,98.35,29c1.64,1.34,3.71.06,4.61-1.08a3.39,3.39,0,0,0-.45-4.64,3.32,3.32,0,0,0-1-.64,24,24,0,0,1,2.1-1.35,3,3,0,0,0,.24,1.7c0.88,1.87,3.07,1.27,4.18.56a2.67,2.67,0,0,0,.32-4.44l0.54-.19a0.58,0.58,0,0,0,1,.17c2.81,1.27,5.68,0,7.91-1.27a0.46,0.46,0,0,0,.21-0.58C116.87,14.82,115,13.14,112.56,13.74ZM97.56,28a3.26,3.26,0,0,0-.32-0.27,2.06,2.06,0,0,0-.82-0.29c0.26-.34.54-0.66,0.82-1A2.68,2.68,0,0,0,97.56,28Z" transform="translate(-3.53 -4.91)"/><path class="cls-16" d="M217.5,113c1.61,1.76,4.94,2.18,8.48,2.14-2.07.57-4.15,1.16-6.23,1.74-1.12.31-.59,2.3,0.54,2,6.31-1.63,12.62-3.51,18.82-4.29,9.56,0.72,16.61,4.21,20.15,14.35a0.8,0.8,0,0,0,.12.94l0.28,0.24,0,0a0.38,0.38,0,0,0-.28-0.11c-6.27.14-8.78,6.41-8.3,12.87a0.49,0.49,0,0,0,.47.52,0.63,0.63,0,0,0,.63.64c3.65-.06,7.56-3.17,9.65-6.31,1.91-2.87,1.63-6.35-.9-8.25-1-7.69-5.76-12.53-11.93-15A27.53,27.53,0,0,1,262,119.71a0.91,0.91,0,0,0-.12.3c-1.16,5.63,1.81,9.77,5.93,12.56,3.17,2.15,8.25,4.53,12.31,4.52,0,0.74.78,1.1,1.19,0.44,0.11-.18.2-0.37,0.29-0.56,0.19,0,.38-0.06.56-0.11,0.59-.15.5-1.12,0-1.34,1.1-4.41-2.12-9.56-4.86-12.45-3.61-3.81-9.44-7-14.32-5.15-7.82-5.86-16-6.69-24.45-5.56-3-.18-6-0.13-9.07-0.1-3.17,0-9.24-1.41-11.89.51a0.12,0.12,0,0,0,0,.17" transform="translate(-3.53 -4.91)"/><path class="cls-16" d="M100.64,99.18c-9.11-2-19.45-4.81-29-4.66-2.07,0-4.12.18-6.16,0.39a1.18,1.18,0,0,0-.47-1.3c-15.25-11.9-30.32-2.15-47.84-5.9a1,1,0,0,0-1.1,1.52c11.2,17.69,36.84,9.37,51.63,7.52s32.1,4.74,46.08,6.85a0.23,0.23,0,0,0,.23-0.34C112.4,100.14,103.51,99.8,100.64,99.18Z" transform="translate(-3.53 -4.91)"/><path class="cls-16" d="M161.18,54.12c-1.76-5.42-3.2-11.7-7-16.45a32.92,32.92,0,0,0-2.68-2.95,1.28,1.28,0,0,0,1-.68c4.73-11.5-9.4-15.63-12.49-25.25-0.16-.49-1.26-0.49-1.73,0-11.77,11.1,5.23,21,12.45,27.73s8.05,18.09,11.6,26.19a0.28,0.28,0,0,0,.4,0C164.91,60.6,161.74,55.84,161.18,54.12Z" transform="translate(-3.53 -4.91)"/><path class="cls-16" d="M160.42,49.56a0.72,0.72,0,0,0,.78.42c13.06-3.1,3.18-20.52-3.63-27.41-0.41-.41-1.23-0.32-1.11.37,0.85,4.71-5.45,21.84,2,24.21a0.64,0.64,0,0,0,0,.11c5.46,13.82,5.7,28.89-6.3,36.6-0.72.46,0.06,1.69,0.79,1.28C165.31,78.37,165.39,62.92,160.42,49.56Z" transform="translate(-3.53 -4.91)"/><path class="cls-16" d="M39.64,49.14a35.44,35.44,0,0,0-17-2.54,9.74,9.74,0,0,0-3.85-.81c-1,0-5.2,3.67-5.76,3.83-0.06,0-.05,0,0,0a8.24,8.24,0,0,0-4.14,5.82c-0.8,3.6.43,9.6-2.6,12.2A13.16,13.16,0,0,0,3.8,68.9c-0.75.5,0.16,1.74,1,1.52a7,7,0,0,0,3.29-1.71c7.32-2.92,17-.93,19.46-9.56,1.09-3.87.14-8.69-3.08-11.35a42.64,42.64,0,0,1,13.1,2.41c8,2.76,12.8,8.19,19.09,13,0.71,0.54,1.71,0,1.23-.83C54.34,56.37,46.19,51.86,39.64,49.14Z" transform="translate(-3.53 -4.91)"/><path class="cls-16" d="M235.93,26.32c0,0.91,0,1.82,0,2.73-1-1.86-2.11-3.71-3.13-5.53-0.6-1.06-2-.94-2.12.22a17,17,0,0,0,2.14,10.58c0.71,1.21,1.4,2.58,2.73,2.81a1.22,1.22,0,0,0,.28,0c0,1-.12,2-0.18,2.93a17.7,17.7,0,0,0-7.4-4.6,1.07,1.07,0,0,0-1.35,1.26c0.51,3.45,2.42,6.68,5.31,8.17a6.21,6.21,0,0,0,2,1.31,0.83,0.83,0,0,0,.88-0.07c-0.14,1.36-.27,2.73-0.45,4.08a19.22,19.22,0,0,0-1.36-1.93,6.44,6.44,0,0,0-2.81-2.2,3.39,3.39,0,0,0-4.26,2.18,6.33,6.33,0,0,0,.57,5.8c1.72,2.45,4.41,2.9,6.83,2.67h0c-0.5,2.84-1.11,5.63-1.78,8.4-0.68-1.13-1.38-2.24-2.15-3.3-1.23-1.7-3.89-5.72-6.18-5-2.76.89-1.8,5.76-.24,7.76,1.72,2.2,4.82,4.37,7.48,4.23L231,69c-0.65,2.4-1.39,4.76-2.17,7.11a33.09,33.09,0,0,0-1.91-2.79c-1.69-2.21-4.78-5.55-7.45-3.82-5.87,3.81.7,13.67,6.44,14.53-0.69,1.7-1.45,3.36-2.21,5a25.81,25.81,0,0,0-1.84-2.71c-1.67-2.13-4.39-5.12-7.07-3.92-3.27,1.45-2.91,6.51-1,9.3,1.32,1.88,5.2,4.42,7.16,2.88-0.82,1.58-1.67,3.14-2.54,4.68a14.88,14.88,0,0,0-9.87-10A1.26,1.26,0,0,0,207,90.38c-0.75,6.38,3,11.49,7,16.09a0.8,0.8,0,0,0-.13.23c-0.31.46-.64,0.9-1,1.36a17.81,17.81,0,0,1,.94,2.39c0.34-.51.68-1,1-1.53,3.43,5,12.59,10.3,14.42,2.81,1-4-6.56-5.68-11.07-6.07a9,9,0,0,0,.67-3.3c1.37-2.38,2.7-4.78,3.93-7.25,0,5.59,8.18,8.69,12,7.09a1.52,1.52,0,0,0,.88-1.59,7.69,7.69,0,0,0-4.84-7.23,13.65,13.65,0,0,0-5.66-1,10,10,0,0,0-.43-1.31c1.09-2.36,2.14-4.74,3.1-7.17a3.77,3.77,0,0,0,.51-0.18,1,1,0,0,0,.07.08c-0.63,1.83,1.55,3.14,3,3.59a14.29,14.29,0,0,0,7.83.45,1.41,1.41,0,0,0,.85-1.52c-0.29-3-1.86-5.28-4.63-5.75a10.83,10.83,0,0,0-3.73.15l-0.86.16a11.66,11.66,0,0,0-.93-2.73c0.85-2.43,1.66-4.88,2.37-7.37,2.15,3.72,7.08,2.79,9.46.05,1-1.19,1.78-3.57.26-5-2.05-1.93-5.56-1.12-7.68-.38a0.66,0.66,0,0,0-.25.16l-0.45,0c0.69-2.74,1.32-5.49,1.83-8.3,4.4,2.58,9.3,3.32,12.5-.76a1.79,1.79,0,0,0-.21-2.18,8.82,8.82,0,0,0-6-2.61c-1.75,0-4,0-5.57,1,0.35-2.44.66-4.89,0.88-7.38a0.86,0.86,0,0,0,.22-0.13,0.93,0.93,0,0,0,.19.18c4.41,3,8.82,3.2,10.83-2.1a1.58,1.58,0,0,0-.84-2,17.33,17.33,0,0,0-10.09,0c0.08-1.27.16-2.53,0.2-3.81,2.7,2,6.61.15,8.6-1.51a1.56,1.56,0,0,0-.23-2.36c-2.71-2.23-5.43-1.88-8.22-1.14l-0.07-.14c0-1.45,0-2.91-.05-4.38a0.93,0.93,0,0,0,.95.12c5.22-2.49,4.73-9.72,1.32-15a1.4,1.4,0,0,0-1.43-.77,5.61,5.61,0,0,0-5,5.52A14.24,14.24,0,0,0,235.93,26.32Z" transform="translate(-3.53 -4.91)"/><path class="cls-16" d="M24.43,124.19c0.58-.37,1.18-0.71,1.77-1.06-0.56,1.37-1.07,2.78-1.59,4.13a1.1,1.1,0,0,0,1.5,1.28,9.53,9.53,0,0,0,5.5-5.38c0.33-.92.79-1.89,0.1-2.85a1.44,1.44,0,0,0-.19-0.18c0.66-.35,1.35-0.66,2-1a12.59,12.59,0,0,0,1.65,6.54,1.14,1.14,0,0,0,1.64.39,6,6,0,0,0,2-6.49,4.42,4.42,0,0,0-.42-1.84,1,1,0,0,0-.59-0.56c1-.42,1.93-0.85,2.91-1.24a10.44,10.44,0,0,0-.41,1.63,4.22,4.22,0,0,0,.3,2.67,3.91,3.91,0,0,0,4,1.94,3.83,3.83,0,0,0,3.34-2.52c0.53-2-.79-4-2.38-5.46l0,0c2.12-.73,4.27-1.37,6.44-2a25.11,25.11,0,0,0-.84,2.65c-0.36,1.44-1.34,4.66.48,5.86,2.16,1.43,4.66-1,5-2.71a7.7,7.7,0,0,0-1.66-6.45l0.05-.1c1.9-.46,3.83-0.84,5.75-1.2a18.49,18.49,0,0,0-.67,2.29c-0.42,1.92-.76,5.14,1.82,6.22,5.61,2.33,8.09-5.43,5.46-9.49,1.45-.17,2.9-0.27,4.35-0.38a14.63,14.63,0,0,0-.67,2.19c-0.41,1.86-.77,4.69,1.41,6,2.63,1.54,5.52-.5,6.19-2.74,0.45-1.52,0-4.94-2-5.65,1.41,0,2.82,0,4.23,0a9.25,9.25,0,0,0-.91,9.87,1.2,1.2,0,0,0,1.5.58c4.22-1.8,5.4-6,6.14-10.15a0.66,0.66,0,0,0,.21,0L89.05,109a9.89,9.89,0,0,1,1-1.46l-1.44-.11c1.27-4-.17-12-5.77-10.56-3,.8,0,6.45,2.07,9.55a6.15,6.15,0,0,0-2.37.75c-2.18,0-4.36,0-6.54,0,3.46-2,1-8.63-2.1-10.64a1.31,1.31,0,0,0-1.49,0,4.67,4.67,0,0,0-1.87,6A13,13,0,0,0,73,106.68a5.51,5.51,0,0,0-.58.76c-2.07.14-4.14,0.32-6.2,0.57a4.31,4.31,0,0,0-.4-0.27,0.58,0.58,0,0,0,0-.07c1.5-.25,1.1-2.19.56-3.34a15.07,15.07,0,0,0-4.17-5.5,1.26,1.26,0,0,0-1.46,0,3.67,3.67,0,0,0-1,5.31A11.91,11.91,0,0,0,62,106.57l0.59,0.52a6.35,6.35,0,0,0-1.19,1.63c-2,.33-4,0.7-6,1.15,1.12-2.82-2.38-5.82-5.58-6.43-1.4-.26-3.4.12-3.4,1.7,0,2.13,2.64,4.2,4.38,5.34a0.79,0.79,0,0,0,.25.11l0.26,0.3c-2.16.56-4.31,1.17-6.43,1.88-1-3.93-3.56-7.56-8.26-8.23a1.12,1.12,0,0,0-1.31,1,7.62,7.62,0,0,0,2.07,5.1A12.69,12.69,0,0,0,41.43,114c-1.79.68-3.57,1.41-5.33,2.2a1.1,1.1,0,0,0-.22-0.1,0.57,0.57,0,0,0,0-.19c-0.83-4.1-3.49-7.19-8.31-6.54a0.92,0.92,0,0,0-.75,1.33,16.89,16.89,0,0,0,4.1,5,19.3,19.3,0,0,0,2.4,1.83c-0.88.43-1.75,0.85-2.62,1.31-0.44-2.54-4.15-4.49-6.56-5.2a1,1,0,0,0-1.42,1.06c0.31,2.69,2.31,4.37,4.6,5.94l0,0.1c-1,.55-1.9,1.11-2.83,1.7a1,1,0,0,0-.54-0.67c-5.08-2.52-9.56.59-10.78,4.88a1.08,1.08,0,0,0,.45,1.23c2.13,1.61,4.6,2.22,6.94,1.13A7.62,7.62,0,0,0,24.43,124.19Z" transform="translate(-3.53 -4.91)"/><path class="cls-16" d="M227.3,107.19a7.5,7.5,0,0,0,.28.75l-0.88.38a2.53,2.53,0,0,0,1.17,1.08l0.34-.15,0.2,0.35a0.57,0.57,0,0,1,.2.36c2.1,3.55,6,7.86,8,3.56,1.13-2.39-1.31-4.73-3.91-6h0c0.9-.32,1.81-0.61,2.72-0.88a0.37,0.37,0,0,0,.14,0c1.47,3.17,3.22,6.23,6.45,7a0.71,0.71,0,0,0,.85-0.66,8.82,8.82,0,0,0-2.86-7.48c0.93-.19,1.87-0.37,2.8-0.52-1.15.81-.7,3.5-0.05,4.61,0.95,1.63,3.29,2.79,4.65,1.26,1.12-1.26.26-3.36-.42-4.72a14.26,14.26,0,0,0-.92-1.58c1-.1,1.92-0.2,2.88-0.26-0.78,3.41,2.52,8.94,5.53,6.43,1.37-1.14.46-3.5-.22-4.88a18,18,0,0,0-.92-1.63c1.28,0,2.55.08,3.82,0.18l0.05,0.07a6.69,6.69,0,0,0,.38,5c0.59,1.25,2.63,2.69,3.63,1.34,0.83-1.12-.44-3.36-1-4.37-0.33-.64-0.7-1.25-1.07-1.85,1.44,0.17,2.87.38,4.29,0.65v0a4.72,4.72,0,0,0-.26,4.3,2.7,2.7,0,0,0,2.52,1.41,2.08,2.08,0,0,0,1.92-1.92,3.89,3.89,0,0,0-.38-2,10.09,10.09,0,0,0-.58-1.13c0.66,0.16,1.31.36,2,.54a0.58,0.58,0,0,0-.23.48,3.94,3.94,0,0,0,.14,1.38,5.43,5.43,0,0,0,2.49,4.42,0.58,0.58,0,0,0,.86-0.49,11.1,11.1,0,0,0-.4-4.9c0.45,0.15.91,0.29,1.36,0.46a0.86,0.86,0,0,0-.07.15,2.64,2.64,0,0,0,.64,2,7,7,0,0,0,4.19,3.12,0.67,0.67,0,0,0,.58-1.09c-0.56-.89-1.13-1.82-1.72-2.72,0.4,0.18.8,0.35,1.2,0.53a5.89,5.89,0,0,0,3.12,2.89c1.49,0.47,2.71-.27,3.54-1.66a0.88,0.88,0,0,0,0-.91c-1.51-2.84-4.57-4.48-6.86-2.1a0.65,0.65,0,0,0-.16.54c-0.64-.31-1.28-0.58-1.93-0.86l0-.07a6,6,0,0,0,1.37-4.76,0.68,0.68,0,0,0-1-.59c-1.2.79-2.9,2.61-2.63,4.48-0.58-.22-1.17-0.42-1.76-0.62a10.71,10.71,0,0,0,1-1.6,11.15,11.15,0,0,0,1.31-4,0.76,0.76,0,0,0-.7-0.86c-2.88.07-3.78,2.61-3.41,5.66a0.53,0.53,0,0,0,0,.14l-0.11.1c-1.18-.36-2.37-0.67-3.56-0.95a7.34,7.34,0,0,0,1.69-2.93,6.18,6.18,0,0,0,.14-3.92,0.8,0.8,0,0,0-1-.57c-2.62,1-3.36,3.95-3.13,6.94-1.41-.27-2.83-0.45-4.26-0.61l0.09-.26a0.41,0.41,0,0,0,.13-0.11c0.81-1,2-2.88,1.5-4.44a1.69,1.69,0,0,0-2.42-.87c-1.82.81-3.33,3.45-2,5.41-1.33-.09-2.67-0.12-4-0.12a5.69,5.69,0,0,0-1.11-1.08l0.26-.46a7.74,7.74,0,0,0,.86-2.11,3.44,3.44,0,0,0-1.79-3.87,0.69,0.69,0,0,0-.92.18,10.35,10.35,0,0,0-1.43,4.64c-0.09.93,0.09,2.45,1.1,2.45a0.5,0.5,0,0,0,0,.05,2.53,2.53,0,0,0-.19.25c-1.37.06-2.74,0.18-4.11,0.34a5,5,0,0,0-.55-0.51,9.77,9.77,0,0,0,.68-3.46,4.48,4.48,0,0,0-2.56-4.33,0.75,0.75,0,0,0-1,.19c-1.58,1.9-1.71,7.3,1,8.41-1.45.21-2.9,0.49-4.35,0.8a4.16,4.16,0,0,0-1.77-.28c0.71-2.68,1.42-7.42-.81-7.69-4.16-.5-3.27,6-1.47,9-1.26.35-2.51,0.72-3.76,1.15a7.86,7.86,0,0,0-.88-0.21c0.75-2.54,1.42-7.13-1.49-7.36C224.58,98.84,225.67,104.51,227.3,107.19Z" transform="translate(-3.53 -4.91)"/><path class="cls-16" d="M34.46,28.85a0.76,0.76,0,0,0,.78-0.22c0.46,1.18,1,2.34,1.47,3.49,0,0,0,.08,0,0.12-2.67-.19-5.16-0.09-6.77,2.09a1.3,1.3,0,0,0,.63,1.93c2.33,1,6.35,1.89,8-.07,0.48,1,1,2,1.49,3a15.5,15.5,0,0,0-2.88,0,13.08,13.08,0,0,0-5.87,1.58,1.12,1.12,0,0,0-.05,1.71c3.63,3.93,7.37,3,10.11,0a0.56,0.56,0,0,0,.1-0.17l0.23,0.07c1,1.92,2.13,3.81,3.26,5.67a10.17,10.17,0,0,0-5.06.16,6.29,6.29,0,0,0-4.26,3.11A1.48,1.48,0,0,0,36.18,53c4.19,2.68,8.11,1.21,10.92-1.59,1.37,2.11,2.83,4.15,4.32,6.16l-0.36.09a0.74,0.74,0,0,0-.26-0.08c-2-.2-5.21-0.19-6.28,1.71-0.8,1.42.65,3.15,1.93,3.9,2.93,1.69,7.31,1.45,7.82-1.85,1.42,1.8,2.89,3.53,4.38,5.24a8.52,8.52,0,0,0,.16,2.28l-0.75.05a9.27,9.27,0,0,0-3.07.64c-2.12.93-2.64,3-1.86,5.43a1.43,1.43,0,0,0,1.21,1,11.7,11.7,0,0,0,6.2-2c1-.65,2.32-2.1,1.22-3.37,0,0,0-.05,0-0.08a3.85,3.85,0,0,0,.46,0c1.56,1.66,3.17,3.26,4.8,4.83a7.38,7.38,0,0,0,.09,1.08,10.24,10.24,0,0,0-4.13,2c-2,1.54-2.51,4-1.46,6.62a1.49,1.49,0,0,0,1.24,1c3.55,0.36,8.91-3.82,7.08-8,1.75,1.59,3.54,3.12,5.35,4.61A8.15,8.15,0,0,0,76.79,85c-3.3,1.3-8.61,4.25-6.5,7.1,3.86,5.23,9.09-.94,10.05-5.41,1.61,1.2,3.23,2.37,4.89,3.48,0.22,0.42.45,0.82,0.69,1.18-3.13,1.14-8.14,4-5.4,7.5,3.58,4.6,7.75-1.07,8.64-5a7.8,7.8,0,0,0,.42-0.91c1.27,0.77,2.54,1.5,3.82,2.21-2.2,1.56-5.05,4.54-1.57,6.56,3,1.73,4.83-1,5.07-3.74a1.13,1.13,0,0,0,.2-0.44c0-.11.05-0.25,0.08-0.38A144,144,0,0,0,115,104.68q0.54-.85,1-1.73c-1.16-.38-2.32-0.75-3.48-1.16a124.39,124.39,0,0,1-15-6.56c0.65-3.89,1-9.83-2.25-11.48-2.3-1.15-3.9,1.7-3.86,3.68a15,15,0,0,0,1.13,5.1c-0.79-.45-1.6-0.88-2.39-1.34,1.45-5.12,2.09-14.25-4.4-13.22-3.41.54-3.15,5.3-1.74,9.39l0,0c-1.21-.8-2.4-1.64-3.59-2.5a0.72,0.72,0,0,0-.17-0.14c1.5-4.26,2.63-8.8.06-13.35a1.13,1.13,0,0,0-1.52-.52,9.71,9.71,0,0,0-4.22,9.45q-1.74-1.46-3.45-3c2,0.75,4.13-2,4.51-3.63,0.58-2.47-.77-6.31-3.7-6.77-2.44-.38-3.57,2.39-4.16,4.34a17,17,0,0,0-.55,2.42C66,72.53,64.9,71.42,63.8,70.27c4.2-1.79,6.06-10.45.3-12.28-2.67-.85-4,2.27-4.63,4.28a21.8,21.8,0,0,0-.6,2.51c-1.41-1.66-2.79-3.34-4.12-5.08,0,0,0-.09,0-0.13,2.2-.38,4-2.61,4.61-4.59,0.59-1.8-.26-5.69-2.75-5.91-2.09-.19-2.91,3.36-3.34,4.89a28.64,28.64,0,0,0-.64,2.94c-1.48-2-2.93-4.1-4.3-6.23h0c2.07-.24,4.12-1,4.7-3.21a5.23,5.23,0,0,0-1.47-4.58,3.53,3.53,0,0,0-4.23-1A3.92,3.92,0,0,0,45.79,44a11.86,11.86,0,0,0-.48,1.73c-0.6-1-1.18-2.08-1.76-3.13a0.76,0.76,0,0,0,.76-0.09,3.91,3.91,0,0,0,1.27-1.35c1.89-1.6,2.39-4.4,1.64-7.16a1.15,1.15,0,0,0-1.54-.8A10.92,10.92,0,0,0,41,37.89c-0.39-.76-0.79-1.52-1.16-2.29a1,1,0,0,0,.25,0C41.17,35.2,41.29,34,41.48,33a13.07,13.07,0,0,0-1.8-8.62c-0.52-.9-1.73-0.82-1.87.09C37.55,26,37.26,27.61,37,29.22c-0.3-.72-0.62-1.44-0.91-2.17a10.23,10.23,0,0,0-.79-7,6.92,6.92,0,0,0-6.25-3.82,0.92,0.92,0,0,0-1,.78C26.92,21.67,29,27.56,34.46,28.85Z" transform="translate(-3.53 -4.91)"/><path class="cls-16" d="M218.83,133.11a16.2,16.2,0,0,1,2.61-1.69s16.14-3.93,25.66,11.94a17.5,17.5,0,0,0-6.37-8.83,8.15,8.15,0,0,1,2.37-.38s3.26,0.33,3.19-.74-4.15-.48-6.12-0.18-4.8-.56-5.54-2.21,2.29-2.56,3.82-2.73a6.46,6.46,0,0,0,4-2.31,5.06,5.06,0,0,0-4.45.12c-2.17,1.26-3.45,5-9.44,3.83,0,0-.66-2,2.61-4.28s4-5.07,3.61-6.48c0,0-2.59-.21-4.39,3.66s-3.09,6.29-5.08,6.8-3.22-.37-2.38-2.14,2.36-5.46.71-8.41c0,0-1.55,1.22-1.76,4.45s0.69,4.52-.71,6.28a5.08,5.08,0,0,0-1.4-4.48s-3.7-4.5,4.28-11.28c0,0,3.88,2.64,3.58,5.89s-3.4,6.65-3.4,6.65a1.46,1.46,0,0,0,1.13,1.46c1.13,0.18,2.14-2.59,2.75-5.38s2.12-7.18,8.53-7.61c0,0,3,4.66-.24,7.91s-6.19,3.69-5.27,5.39,4.26-2.62,5.23-3.85,5.22-4.12,10,1.34c0,0-.3,2.78-3.93,3.56s-4,1.35-4,1.35,1.08,1.36,4.46.69,6.5-1.24,8.46,3.39a3,3,0,0,1-3.57,1.44c-2.58-.64-2.25-1.42-3.89-1.27,0,0-.19.82,1,1.63s9,2.67,3.72,11.7c0,0-4.19-.27-5.79-3.45s-1.1-7.84-4-8.43c0,0-.44.63,0.43,2.83s1.43,6-2.83,9.11c0,0-4.75-2.27-3-7.26s0.91-7.91-1.76-8.53c0,0-1.13.76,0.46,3.93s-0.09,8-3.49,11c0,0-5.53-1.93-3.18-7.38s2.65-7.41.52-7.87c0,0-.76.42-0.33,2.92s-1.71,6.32-5.35,7.85a3.91,3.91,0,0,0-.88,2.32,5.47,5.47,0,0,1-2.8-2.84c-1.25-2.38-.88-6.22,2.67-7.53A1.4,1.4,0,0,0,218.83,133.11Z" transform="translate(-3.53 -4.91)"/><path class="cls-16" d="M122.82,87.52a49.31,49.31,0,0,1-3.7-5.93s-11.63-36.42,15.51-52.47c0,0-9,1.05-14.77,11.32a25.88,25.88,0,0,1-1.34-5.49s-0.24-7.32-2.24-7.56,0.21,9.32,1.31,13.88,0.24,10.55-2.65,11.65-5.42-5.94-6.17-9.44-3.89-8.71-5.57-9.91a13.87,13.87,0,0,0,1.54,10.2c3,5.3,10.45,9.38,9.8,22.16,0,0-3.53.85-8.69-7S95,48.23,92.42,48.74c0,0,.4,5.77,8.34,11s12.62,8.66,14.09,13.1,0.17,6.79-3.3,4.5-10.8-6.65-15.86-3.91a15.59,15.59,0,0,0,8.84,5.06c6,1.33,8.15-.23,11.74,3.23,0,0-4.53-1.91-7.81,1.77,0,0-7.25,6.66-22.46-12.4,0,0,3.83-7.78,10.12-6.14s13.44,9.35,13.44,9.35a2,2,0,0,0,2.39-2c0-2.39-5.39-5.39-10.81-7.55S86.79,57.83,83.83,43.14c0,0,8.13-5.34,15.41,3.21s8.78,15,11.7,13.48-6.12-10.3-8.75-12.89-9.54-13.36-.42-22.5c0,0,5.46,1.73,8,10.37s3.67,9.59,3.67,9.59,2.25-2,.08-9.86-4.2-15.49,4.12-18.3a10.25,10.25,0,0,1,3.68,8.82c-0.53,5.69-2.09,4.66-1.36,8.46,0,0,1.59.72,2.78-1.81s2.7-19.84,20.68-4.27c0,0,.41,9.3-5,11.8s-14.11-.18-14.46,6.19c0,0,1.27,1.2,5.1,0s10.49-1.21,17.06,9.1c0,0-3,9.54-12.32,4.32-9.48-5.33-14.65-4.43-15.1,1.24,0,0,1.7,2.69,7.08.2s14.4,2.58,20.43,10.68c0,0-2.23,11-12.34,4.65-10.33-6.54-14-7.76-14.3-3.32,0,0,1,1.75,5.37,1.53s11.69,5.35,15.16,13.31a8.56,8.56,0,0,0,4.23,2.4s-0.49,3.07-4.35,5-10.7.28-13.86-7.38A2.15,2.15,0,0,0,122.82,87.52Z" transform="translate(-3.53 -4.91)"/><path class="cls-17" d="M73.66,145.9a2,2,0,0,1,.09-0.51,12.18,12.18,0,0,1,.88-1.22,7.41,7.41,0,0,0,.29-2.68c0-.83.26-4.92,1.58-4.42a1.33,1.33,0,0,1,.62,1,1.07,1.07,0,0,0,.71.87,0.87,0.87,0,0,0,.83-0.82c0.23-1.38.13-2.86,0.34-4.28l0.79-5.21A5.62,5.62,0,0,1,81,125.36a7.53,7.53,0,0,1,2-1.22,7.76,7.76,0,0,0,4.11-4.46q0.68-2.1,1.15-4.25a1.74,1.74,0,0,1,.2-0.57,1.13,1.13,0,0,1,.41-0.37,2.43,2.43,0,0,1,2.65.53,1.28,1.28,0,0,1,.34.41,1.5,1.5,0,0,1,.1.56,13.06,13.06,0,0,1,0,2.42c-0.09.67-.55,1.57-0.32,2.25,0.64,1.85,1.77-.74,2.27-1.41A2.62,2.62,0,0,1,95.72,118a2.2,2.2,0,0,1,1.69.83A11.25,11.25,0,0,0,99,120.6c0.84,0.6,1.88,1,2.77,1.55a53,53,0,0,1,5.22,3.58,7.88,7.88,0,0,1,2.19,2.28c0.95,1.72.6,3.83,0.16,5.74-2.86,12.25-9.21,24-19.26,31.56a17.84,17.84,0,0,1-5.74,3.11,3,3,0,0,1-2.27,0,3.37,3.37,0,0,1-1.14-1.3,63.6,63.6,0,0,1-5-10.39,35.81,35.81,0,0,1-1.79-5.5,17.9,17.9,0,0,1-.27-2.91A23.67,23.67,0,0,1,73.66,145.9Z" transform="translate(-3.53 -4.91)"/><path class="cls-17" d="M141.34,61.45c-0.3-.21-0.67.31-0.49,0.63a1.26,1.26,0,0,0,1,.47l9.47,1.57A8.47,8.47,0,0,0,147,66.84l6.82,0.33c-1.62,2.05-4.43,2.64-7,3.09s-5.37,1-8.07,1.31a1.35,1.35,0,0,1-.92-0.13,1.07,1.07,0,0,1,0-1.54,16.35,16.35,0,0,1,1.38-1.06,2.55,2.55,0,0,0,.72-1.11,0.3,0.3,0,0,0,0-.26,0.3,0.3,0,0,0-.24-0.09,5.7,5.7,0,0,0-3,.94,27.39,27.39,0,0,0-7.83,6.58c-0.2.25-.83,0.8-0.58,1a3.93,3.93,0,0,0,1.85,0c1.14-.17,2.24-1,1.83.77a1.32,1.32,0,0,0,.16,1.21,1.36,1.36,0,0,0,1.59,0c1.38-.73,2.55-1.91,4.06-2.33a12.85,12.85,0,0,1,2.71-.25c2.17-.12,4.27-0.74,6.41-1.08a14,14,0,0,1,3.19-.18,6.68,6.68,0,0,1,2.8,1.17c1.83,1,4.21,1.86,5.92.64A21.18,21.18,0,0,1,163.1,89.5c0,0.79,0,1.79.75,2.07a2.2,2.2,0,0,0,1.3-.1,5.69,5.69,0,0,1,5.87,2.2c0.56,0.8,1,1.84,2,2.09,1.32,0.34,2.43-1.1,3.77-1.36,1.65-.32,3,1.19,4,2.57a18.17,18.17,0,0,0,3.89,4.5c3.87,2.81,9.21,1.78,13.86.64a5.77,5.77,0,0,0,1.25-.41,4.71,4.71,0,0,0,2-2.56c1.17-2.89,1.19-6.19,3.29-8.74a4.82,4.82,0,0,1,3.23-1.82c3.19-.28,4.69,2.9,6.94,4.78a1.28,1.28,0,0,0,1.94-.41c0.95-1.82,3.75-2.74,5.38-1.31,0.23-3.58-1.77-7-4.48-9.37s-6.07-3.8-9.39-5.16c-14.35-5.91-29-11.09-44.21-14.41a33.4,33.4,0,0,0-9.62-1.06,1,1,0,0,1-1.09-.37c-0.16-.38.72-0.56,0.56-0.18" transform="translate(-3.53 -4.91)"/><path class="cls-17" d="M231.76,102h-0.24a3.12,3.12,0,0,0-2.36-3.73,75.91,75.91,0,0,0,1.3,14.69,3,3,0,0,1-2.1.2c-0.22-2-1.08-4.65-3.12-4.54-1.28.07-2.18,1.32-2.59,2.53a15.68,15.68,0,0,1-1.23,3.64c-1,1.58-3,2.25-4.34,3.53-2.76,2.6-2.53,7-1.68,10.7s2.1,7.62.73,11.15c-1.08,2.78-3.71,5-3.78,8-0.05,1.87.94,3.59,1.55,5.37,1.78,5.21.43,11.67,4.13,15.75,3.18,3.52,8.6,3.55,13.34,3.32a12.63,12.63,0,0,0,5.3-1c2.4-1.26,3.74-3.92,4.4-6.55s0.83-5.38,1.69-8c1.2-3.6,3.76-6.88,3.7-10.68,0-2.21-1-4.31-1.2-6.5a51.6,51.6,0,0,1,.14-5.52c0-4.54-1.78-8.87-3.66-13C238.59,114.5,235.43,108.59,231.76,102Z" transform="translate(-3.53 -4.91)"/><path class="cls-17" d="M112.06,205.74a19.71,19.71,0,0,0,.64,2.75,13.8,13.8,0,0,0,1.43,2.59c0.57,0.83,1.24,1.58,1.84,2.39a8.09,8.09,0,0,0,.55.8c0.3,0.32.77,0.55,0.49,1.07a1.19,1.19,0,0,1-.4.41,2.89,2.89,0,0,1-1.71.12c-0.68,0-1.37-.09-2-0.15-1.26-.12-2.52-0.28-3.76-0.5,2.26,1.93,7,4.23,9.63,5.58a75.52,75.52,0,0,0,12,4.47l7.91,2.45a5.15,5.15,0,0,0,6.57-1.79c1.85-1.83,3.83-4.57,2.43-6.76a15.64,15.64,0,0,1-1-1.38c-0.5-1-.12-2.21.08-3.32,2.1-11.53-11.07-15-19.46-16-2.6-.3-8.09-2.86-10.57-1.63-1.49.74-1,1.36-1.09,2.83-0.07,1.85-.62,4.68.06,6.43C114.43,206,113.24,205.87,112.06,205.74Z" transform="translate(-3.53 -4.91)"/><path class="cls-17" d="M166,224.09l3-1.86a2.16,2.16,0,0,1,.59-0.29,2.31,2.31,0,0,1,2,.95,18.2,18.2,0,0,0,9.37,5.15,2.74,2.74,0,0,1,1.19.38,0.83,0.83,0,0,1,.27,1.1,1.21,1.21,0,0,1-1,.32,146.62,146.62,0,0,0-19.18,1.06c-2.23.27-6.8-2.45-3.93-4.58,0.72-.53,2.72-0.08,3.59-0.26A13.05,13.05,0,0,0,166,224.09Z" transform="translate(-3.53 -4.91)"/><path class="cls-17" d="M179.06,215.25c2,0.11,3.56,1.83,4.93,3.34a1.68,1.68,0,0,0,.81.59,1.71,1.71,0,0,0,1.07-.23c1.44-.67,7.3-2.36,7.79-3.89s-4-2.52-5.31-3a9.13,9.13,0,0,0-5.82-.07C182,212.18,176.33,215.1,179.06,215.25Z" transform="translate(-3.53 -4.91)"/><path class="cls-18" d="M243.15,149.46a1.51,1.51,0,0,0-.53-1.45c0-.77.06-1.55,0.06-2.33a81.58,81.58,0,0,0-11-41,15.27,15.27,0,0,1-.75-4.4,1.56,1.56,0,0,0-.19-1l0-.09a1.5,1.5,0,0,0-.26-1.13c-0.4-.55-0.42-0.58-3.92-1.11A82.32,82.32,0,0,0,196.71,72a27,27,0,0,1-2.64-2.87,1.51,1.51,0,0,0-.24-0.52c-0.46-.64-0.64-0.67-5.24-1.36l-0.28,0a1.69,1.69,0,0,0-.28-1c-0.68-.92-1.94-1.27-13.82-2.84-3.71-.49-8.28-1.09-9.43-1.43a1.49,1.49,0,0,0-2.39.92,1.57,1.57,0,0,0,.13.85c-0.6,0-1.2,0-1.81,0a81.75,81.75,0,0,0-29.39,5.45,4.52,4.52,0,0,0-1.37.54A82.23,82.23,0,0,0,93.39,98.91C89,102,88.08,103.06,87.92,104a1.5,1.5,0,0,0,.27,1.15,1.41,1.41,0,0,0,.49.42c-0.89,2-2.7,5.77-4.23,8.93-3.69,7.6-5.45,11.32-5.68,12.6a1.5,1.5,0,0,0,.29,1.18,1.42,1.42,0,0,0,.75.51l-0.33,3.08c-0.74,6.87-2.29,21.17-2.4,21.88a1.5,1.5,0,0,0,.31,1.2,1.43,1.43,0,0,0,.48.39c-0.48,1.48-1.28,3.88-2.05,6.22C73,170,79,167.76,78.87,168.48a1.53,1.53,0,0,0,.27,1.16c0.44,0.6.93,0.72,3.66,1.08,0.72,0.91-5,8.27-1.92,11,3.41,3.11,9.72,8.86,10.23,10.52a1.58,1.58,0,0,0,.32,1A2.12,2.12,0,0,0,93,194c0.69,2.19,3.44,4.75,8.28,8.11a82,82,0,0,0,32.53,21,3.73,3.73,0,0,1,1,1.23,1.72,1.72,0,0,0,.3,1.09c0.64,0.87,1.53,1.26,14.85,3.08,2.14,0.29,4.55.62,5.19,0.76a1.52,1.52,0,0,0,.35.11l0.26,0a1.48,1.48,0,0,0,1.36-.95c0.48,0.09,1.15.19,2.18,0.33,1.23,0.18,3.23.47,3.86,0.62a1.52,1.52,0,0,0,.48.17l0.26,0a1.5,1.5,0,0,0,1.47-1.24v-0.11h0.19c11.31,0.42,13.84.35,14.31-1.51,6.16-.41,8.4-0.81,8.72-2.61a1.58,1.58,0,0,0-.3-1.21l0,0a82.22,82.22,0,0,0,42.82-35.15c3.37-2.52,5.36-4.61,5.69-6.47a1.51,1.51,0,0,0-.61-1.48c0.77-1.37,2-3.37,2.65-4.4,1.2-1.93,1.3-2.09,1.37-2.47a1.49,1.49,0,0,0,0-.72,2,2,0,0,0,.72-1.14,1.54,1.54,0,0,0-.29-1.18,1.58,1.58,0,0,0-.84-0.56c0-.43,0-1,0-1.72a81.75,81.75,0,0,0,2.84-17.1A1.33,1.33,0,0,0,243.15,149.46Z" transform="translate(-3.53 -4.91)"/><path class="cls-19" d="M242.63,148c0-.77.06-1.55,0.06-2.33a81.58,81.58,0,0,0-11-41,15.27,15.27,0,0,1-.75-4.4,1.56,1.56,0,0,0-.19-1l0-.09a1.5,1.5,0,0,0-.26-1.13c-0.4-.55-0.42-0.58-3.92-1.11A82.32,82.32,0,0,0,196.71,72a27,27,0,0,1-2.64-2.87,1.51,1.51,0,0,0-.24-0.52c-0.46-.64-0.64-0.67-5.24-1.36l-0.28,0a1.69,1.69,0,0,0-.28-1c-0.68-.92-1.94-1.27-13.82-2.84-2.54-.33-5.48-0.72-7.45-1,2.91,4.93,5.46,10.56,10.87,11.47L186,84.66c5.17,6.69,11.92,14.08,20.3,13.26,0.62,1.32,1.25,2.64,1.8,4a45.87,45.87,0,0,1,3.12,23.27c-0.6,4.7-1.95,9.4-1.37,14.11,0.67,5.46,3.71,11.67.22,15.93a7.43,7.43,0,0,1-.7.7,16.3,16.3,0,0,1-4.42-9.26c-0.19-2.49.42-5,.41-7.46-0.06-9.74-9.41-16.82-18.53-20.24A11.4,11.4,0,0,1,194,130.31c-8.95-5.31-18.29-10.76-28.66-11.66-11.25-1-22.33,3.58-31.79,9.74s-17.77,13.94-27,20.49a126.28,126.28,0,0,1-31.49,16.29c-0.09,4.13,3.91,2.72,3.81,3.3a1.53,1.53,0,0,0,.27,1.16c0.44,0.6.94,0.72,3.66,1.08,0.72,0.91-5,8.27-1.92,11,3.41,3.11,9.72,8.86,10.23,10.52a1.58,1.58,0,0,0,.32,1A2.12,2.12,0,0,0,93,194s0,0.1.06,0.15c3.62-4,7.06-8.12,10.63-11.83q6.76-7,14.1-13.49c3.11-2.73,6.5-5.48,10.57-6.22,2.56-.46,5.25-0.1,7.72-0.9,3.1-1,5.37-3.66,8.31-5.07s7.52-.6,7.93,2.63c5.46-.62,10.11-7.05,15.19-5,1.6,0.65,2.77,2.06,4.29,2.88,2.66,1.44,5.94.87,8.87,1.62,4.63,1.19,7.74,5.39,10.6,9.23q3.25,4.38,6.73,8.58c-2.32,7.2-5.35,14-11.77,17.54-2.75,1.5-6,2.27-8.15,4.53-1.77,1.84-2.76,4.6-5.12,5.56-1.54.62-3.27,0.3-4.92,0.29-9.13,0-15.67,9.39-24.61,11.23-7.38,1.51-14.64-2.39-21.36-5.8a102.3,102.3,0,0,0-21.6-8.45l0.83,0.59a82,82,0,0,0,32.53,21,3.73,3.73,0,0,1,1,1.23,1.72,1.72,0,0,0,.3,1.09c0.64,0.87,1.53,1.26,14.85,3.08,2.14,0.29,4.55.62,5.19,0.76a1.52,1.52,0,0,0,.35.11l0.26,0a1.48,1.48,0,0,0,1.36-.95c0.48,0.09,1.15.19,2.18,0.33,1.23,0.18,3.23.47,3.86,0.62a1.52,1.52,0,0,0,.48.17l0.26,0a1.5,1.5,0,0,0,1.47-1.24v-0.11h0.19c11.31,0.42,13.84.35,14.31-1.51,6.16-.41,8.4-0.81,8.72-2.61a1.58,1.58,0,0,0-.3-1.21l0,0a82.22,82.22,0,0,0,42.82-35.15c3.37-2.52,5.36-4.61,5.69-6.47a1.51,1.51,0,0,0-.61-1.48c0.77-1.37,2-3.37,2.65-4.4,1.2-1.93,1.3-2.09,1.37-2.47a1.49,1.49,0,0,0-.05-0.72,2,2,0,0,0,.72-1.14,1.54,1.54,0,0,0-.29-1.18,1.58,1.58,0,0,0-.84-0.56c0-.43,0-1,0-1.72a81.75,81.75,0,0,0,2.84-17.1,1.33,1.33,0,0,0,.62-1.05A1.51,1.51,0,0,0,242.63,148Z" transform="translate(-3.53 -4.91)"/><path class="cls-20" d="M144.23,80.24c1.25,0.51,2.5,1.17,3.62,1.68a90.3,90.3,0,0,1,13.26,7.58c8.49,5.8,16.13,12.74,23.52,19.86,1.34,1.29,6.4,6.47,8.25,4.22,1-1.23.35-2.7,1.78-4a10.2,10.2,0,0,1,6.14-2.35,3.06,3.06,0,0,1,1.39.19,3.38,3.38,0,0,1,1.2,1.11,49.55,49.55,0,0,0,3.58,4.63c2.33,2.4,5.11,4,7.17,6.73a9.36,9.36,0,0,0,2.14,2.19c1.63,1.14,2,1.08,3.08-.32,0.44-.58,1.34-0.25,2-0.1,0.54,0.12,1.1.1,1.63,0.24a1.56,1.56,0,0,1,1.19,1c3.21,3,5.22,6.65,7.4,10.45,0.8,1.39,1.62,3,1.18,4.53s-2.93,2.31-3.63.87a7.62,7.62,0,0,1-7.35,5.25,4,4,0,0,0-2.39-3.92,11.8,11.8,0,0,0-4.79-.91l0.29,7a2.72,2.72,0,0,1-2.41-1.1,9.56,9.56,0,0,0-.17,9c1,1.91,2.64,3.47,3.4,5.49a13,13,0,0,1,3.62-5.16,3.28,3.28,0,0,1,2.5-1c1.83,0.28,2.13,2.78,1.86,4.61s-0.38,4.22,1.32,5c1.07,0.46,2.28-.07,3.32-0.59l0.31-.15c1.9-.94,3.93-2,4.86-3.92a9.8,9.8,0,0,0,.7-4.1,41.85,41.85,0,0,0-.47-5.37,3.41,3.41,0,0,1,.13-1.75,1.17,1.17,0,0,1,1.44-.69,1.62,1.62,0,0,1,.68.79c1.41,2.74,2.08,6,4.36,8.07a2.77,2.77,0,0,0,2,.87c2.43-.17,2-3.18,2.32-4.8a39.23,39.23,0,0,0,.41-8l-0.21-8.11a41.5,41.5,0,0,0-.48-6.22c-0.18-1-2.33-6.74-2.65-7.68,5.63,11.07,7,29.31,3.83,41.31-1.63,6.12-4,12.08-4.79,18.37-0.19,1.56-.3,3.21-1.23,4.48-0.69.94-1.79,1.59-2.18,2.69s0,2.16-.25,3.21c-0.61,2.74-4.59,3.5-5.47,6.17a5.35,5.35,0,0,1-.63,1.81,4,4,0,0,1-1.85.93c-2.54.93-4,3.51-5.68,5.62a21,21,0,0,1-7.19,5.75c-1.81-5,5.23-9.53,3.74-14.64a0.85,0.85,0,0,0-.26-0.46c-0.7-.53-1.17,1.23-2,1.28a1.21,1.21,0,0,1-1-.89,33.86,33.86,0,0,0-1.74-4c-1.28-2.1-3-2.08-5-2.92a24.23,24.23,0,0,1-6.25-3.44c-3-2.66-3.2-7.21-4-11.16s-2.92-10.32-6.64-12.33c-1.93-1-3-1.34-4.36-3.33-1.09-1.66-2-3.63-3.91-4.54a5.15,5.15,0,0,1-4.85,1.42l-0.62-3.63c-1.79-.07-2.22-2.49-2.3-4.29a8.38,8.38,0,0,0-1.53-5.07c-1.15-1.38-3.36-2-4.79-.92-1.2.92-1.67,2.82-3.14,3.16-2.26.51-2.66-2.2-3.65-3.52a7.74,7.74,0,0,0-3-2.09,4.49,4.49,0,0,0-5.75,1.72c-0.74,1.42-.14,3.33-0.63,4.88-1,3.08-5.12,7.71-8.74,5.92a11.27,11.27,0,0,0-2-1.16c-1.89-.49-3.07,1.89-4.48,3.24a5.11,5.11,0,0,1-5.51.92c-1.29-.59-2.37-1.74-3.79-1.87-2.56-.23-4,2.81-6.05,4.36-2.32,1.76-5.76,1.7-7.82,3.77a10,10,0,0,0-1.94,3.43l-3,7.51a9.78,9.78,0,0,1-1.61,3,8.47,8.47,0,0,1-4,2.13,5.31,5.31,0,0,0-3,2.13,27.46,27.46,0,0,0-5.23,8.26,33.51,33.51,0,0,0-1.45,7c-0.17,1.3-.07,3.2-0.77,4.32-2.85-1.17-4-6.22-6.47-8.22-1-.84-2.3-1.36-3.31-2.22-3-2.55-3.31-7.5-6.61-9.69a3,3,0,0,1-1.06-.9,5.49,5.49,0,0,1-.24-1.74c-0.31-1.74-2.7-2.6-2.8-4.36a4.46,4.46,0,0,1,.42-1.73c2.85-7.92-3.13-16.68-1.37-24.91a17.48,17.48,0,0,0,6.16,6.63c1.37-2.12,2.16-5.92,5.47-4.11,1.08,0.59,2.06,2.7,3.29,2.19s1.06-2.51.34-3.25A5.77,5.77,0,0,1,87.07,143c0.27-2.42,1.32-2.43,3.13-3.18,3.12-1.29,5.93-6.41,7.34-9.31,1.74-3.58,2.09-7,2.32-10.87a24.66,24.66,0,0,1,.08-3.58c0.53-1.1,2.77-1,3.78-1.61,1.86-1.19,1.74-3.86,1.48-5.77a10.07,10.07,0,0,1,1.58-7,7.52,7.52,0,0,1,2.38-2.56A10.33,10.33,0,0,1,113.84,98c2-.15,4.14-0.27,5.84.78a9.53,9.53,0,0,1,2.32,2.32l4.41,5.58a7,7,0,0,1,1.74,3.27c0.17,1.33-.91,3.8.37,4.82s2.09-.59,2.85-1.55a18.4,18.4,0,0,0,3.91-8.42c0.18-1.07-.81-0.59-1.74-1.16a1.34,1.34,0,0,1-.59-0.52,1.1,1.1,0,0,1,0-.75c0.57-1.91,1.62-3.7,1.82-5.68s-0.92-4.35-2.91-4.51c-3-.24-3.56,3.54-6,4.13-3,.75-3.22-5.39-2.55-7.22a9.3,9.3,0,0,1,3.82-4.14A32.74,32.74,0,0,1,136,80.49c1.82-.55,3.88-1.27,5.81-1A11.06,11.06,0,0,1,144.23,80.24Z" transform="translate(-3.53 -4.91)"/><path class="cls-21" d="M114.16,219.16a5.84,5.84,0,0,1,2.08,1,11.28,11.28,0,0,1,1.06,1.43c1.16,1.46,3.19,1.82,4.86,2.66,2.9,1.47,4.83,4.53,7.89,5.63A7.9,7.9,0,0,1,133,231.1c0.65,0.61,1.32,1.68,2.13,1.3a5.76,5.76,0,0,1,.89-0.62,1.23,1.23,0,0,1,.76.15c2.31,1,4.75,2.13,6.1,4.26-0.47-.64.27-1.56,1.05-1.71s1.6,0.11,2.39,0a7.45,7.45,0,0,0,2-.81c3-1.42,6.54-.78,9.86-0.52,6.72,0.53,13.45-.62,20.09-1.76,1.76-.3,3.82-0.83,4.47-2.5a44.32,44.32,0,0,1-16.84-4.83,6.34,6.34,0,0,1-2.61-2.07,2.4,2.4,0,0,1,.28-3.07,8.14,8.14,0,0,1-4.27-8.12,3.26,3.26,0,0,0,0-1.63c-0.54-1.36-2.56-1-3.9-.38a63,63,0,0,1-11.1,3.69c-3.34.78-6.66,0.79-9.94,1.51a0.57,0.57,0,0,0-.54.42,0.54,0.54,0,0,0,.1.27c1.14,1.85,2.89,1.84,4.28,3.1,0.51,0.46,2.08,5.21,1.48,5.09a42.44,42.44,0,0,1-13.94-5.46,12.15,12.15,0,0,0-4.47-2.07c-0.63.88-.27,2.32-1.12,3-0.68.54-1.48,0.18-2.21,0a17.8,17.8,0,0,1-2.61-.86c-2-.86-4.13-1.58-6.23-2.29a0.29,0.29,0,1,0-.23.51A18.58,18.58,0,0,0,114.16,219.16Z" transform="translate(-3.53 -4.91)"/><path class="cls-20" d="M225,90.48c0.73,1.76-.5,3.69-2.17,1.94a11.94,11.94,0,0,1-1.68-2.93,13.85,13.85,0,0,0-3.5-4.07,14.79,14.79,0,0,0-4.59-2.49,87.67,87.67,0,0,1-8-3.72,2.18,2.18,0,0,0-3.17,2.23l0,0.36a1.49,1.49,0,0,1-2.22,1.51h0a1.5,1.5,0,0,0-2.22,1,20.73,20.73,0,0,0,0,7.7,18.2,18.2,0,0,1,.59,4.15,5,5,0,0,1-.35,1.62,1,1,0,0,1-1.9,0,8.46,8.46,0,0,0-3.15-3.31c-1.81-1.21-3.89-2.6-4.14-4.76a15.81,15.81,0,0,1,.19-2.73,10.37,10.37,0,0,0-1.24-5A27.45,27.45,0,0,0,179,71.71l-0.33,3.52-2.87-.92c-0.35-1.58-2-2.51-3.53-3s-3.23-.76-4.46-1.81c-0.52-.45-0.93-1-1.47-1.43a6.87,6.87,0,0,0-2-.94L148.92,62a9.48,9.48,0,0,0-2.81-.64,21.06,21.06,0,0,0-3.85.71C142,59.23,157.89,59,160.35,58.91a5.3,5.3,0,0,0,1.58-.19,2.6,2.6,0,0,0,1.33-1c0.27,1,1.56,1.42,2.64,1.49A16.94,16.94,0,0,0,173.53,58c1.74,2.46,5.2,2.92,8.21,2.69,1.24-.1,2.71-0.19,3.49.79,1.07-.88,2.53-1.81,3.74-1.12a4.12,4.12,0,0,1,1.17,1.26,15.72,15.72,0,0,0,7.65,5.22c1.62,0.57,3.46,1.08,4.35,2.55a5.49,5.49,0,0,0,1.13,1.77,3.77,3.77,0,0,0,1.7.48c3.15,0.5,5.45,2.92,7.65,5a27.07,27.07,0,0,0,3.74,3.11,14.45,14.45,0,0,1,4.15,3.47c1.12,1.56,1.78,3.41,2.92,5A11.69,11.69,0,0,1,225,90.48Z" transform="translate(-3.53 -4.91)"/><path class="cls-20" d="M95,94.9c-0.13.82,0,1.66-.1,2.48s-0.06,1.78-.1,2.66a0.92,0.92,0,0,0,1.54,1,12.35,12.35,0,0,0,2.48-2.41c0.58-.75,1.08-1.57,1.68-2.3a19.85,19.85,0,0,0,1.37-1.66c0.47-.72.63-1.59,1.1-2.29a2.73,2.73,0,0,0,.58-1.48c0-1.24-1.31-1.42-2.29-1.39-1.8.06-2.12,1.3-3.17,2.14C96.77,92.7,95.32,92.75,95,94.9Z" transform="translate(-3.53 -4.91)"/><path class="cls-20" d="M105,80c-1.9.67-3.66,1.78-4.09,3.91a1,1,0,0,0,.05.7,0.94,0.94,0,0,0,1,.28,5.23,5.23,0,0,0,2-.92,15.56,15.56,0,0,0,2-1.59,3.2,3.2,0,0,0,.72-0.9,1.25,1.25,0,0,0,0-1.11,0.79,0.79,0,0,0-1-.38" transform="translate(-3.53 -4.91)"/><path class="cls-20" d="M126.46,65.87a7.94,7.94,0,0,0-3.93,1.45A1.42,1.42,0,0,0,122,68a1,1,0,0,0,.45,1.09,1.81,1.81,0,0,0,1.24.19,3.24,3.24,0,0,0,2.25-1.5c0.56-.93.76-2.25,1.78-2.64" transform="translate(-3.53 -4.91)"/><path class="cls-20" d="M141.72,73.8l-2.08,1.8a1.47,1.47,0,0,0-.71,1.59,1,1,0,0,0,1.12.42,5.3,5.3,0,0,0,1.18-.5,15.07,15.07,0,0,1,2.5-.8,11.46,11.46,0,0,0,2.5-1.12,2.49,2.49,0,0,0,.66-0.46,1.26,1.26,0,0,0-1.06-2.11l-1.51-.09A3.8,3.8,0,0,0,141.72,73.8Z" transform="translate(-3.53 -4.91)"/><path class="cls-20" d="M113.17,82.37a4.17,4.17,0,0,0-.55.17,6.7,6.7,0,0,0-2.45,1.84,1.12,1.12,0,0,0-.13,1.2c0.4,0.39,1.28-.14,1.61-0.36,0.77-.5,3-1.69,2.63-2.82A1.22,1.22,0,0,0,113.17,82.37Z" transform="translate(-3.53 -4.91)"/><path class="cls-20" d="M105,205.88a8,8,0,0,0-3.12-1.56c-0.44-.13-0.93-0.19-1.35-0.35a3.67,3.67,0,0,0-1.22-.37,0.61,0.61,0,0,0-.6.25,0.68,0.68,0,0,0,.17.64,24.51,24.51,0,0,0,2.91,4,23.07,23.07,0,0,0,2.31,2,9,9,0,0,0,2.48,1.66c0.86,0.26,1.85-.18,1.48-1.17a4.36,4.36,0,0,0-.6-1.22c-0.2-.25-0.45-0.46-0.67-0.69a5.25,5.25,0,0,1-1-1.56A4,4,0,0,0,105,206Z" transform="translate(-3.53 -4.91)"/><path class="cls-20" d="M103.07,200.42c-1.2-1.17-3.37-2.53-3.85-2.07-0.8.77,1.34,3.16,1.88,3.59a2.55,2.55,0,0,0,1.51.63,1.26,1.26,0,0,0,1.26-.89A2,2,0,0,0,103.07,200.42Z" transform="translate(-3.53 -4.91)"/><path class="cls-20" d="M101,193.65a1.12,1.12,0,0,0-1.47.4,1,1,0,0,0,.57,1.34,0.84,0.84,0,0,0,.95-1" transform="translate(-3.53 -4.91)"/><path class="cls-20" d="M194.7,218.39a0.85,0.85,0,0,1,.08.42,0.81,0.81,0,0,1-.66.79l-1.5.67a3.22,3.22,0,0,1-1.41.54c-0.74-.17.17-1.42,0.41-1.66a4.31,4.31,0,0,1,2.34-.95A0.61,0.61,0,0,1,194.7,218.39Z" transform="translate(-3.53 -4.91)"/><path class="cls-20" d="M199.34,219.11l1.15-.74a0.45,0.45,0,0,0,.14-0.12,0.38,0.38,0,0,0-.13-0.46,1.3,1.3,0,0,1-.37-0.37,0.54,0.54,0,0,1,.14-0.57,1.6,1.6,0,0,1,.53-0.32l3.69-1.63a3,3,0,0,1,1.77-.37,0.74,0.74,0,0,1,.56.41,0.78,0.78,0,0,1-.25.77,3.65,3.65,0,0,1-.91.62l-2.16,1.18a0.33,0.33,0,0,0-.18.18,0.27,0.27,0,0,0,.18.28,1.94,1.94,0,0,1,.33.14,0.83,0.83,0,0,1,.07,1.09,8.52,8.52,0,0,1-.76,1.26,6.83,6.83,0,0,1-2,1.62,20.56,20.56,0,0,1-4.78,2c-0.75.21-2.61,0.65-3.11-.26a1,1,0,0,1,.06-1,2.59,2.59,0,0,1,.71-0.73,16.63,16.63,0,0,1,4.14-2.2,7.74,7.74,0,0,0,1.3-.58,0.16,0.16,0,0,0,.08-0.09A0.3,0.3,0,0,0,199.34,219.11Z" transform="translate(-3.53 -4.91)"/><path class="cls-20" d="M213.09,212.87a24.12,24.12,0,0,1-2.93.92c-1,.38-1.85,1.35-1.54,2.33a7.93,7.93,0,0,0,5.61-2.29,0.66,0.66,0,0,0-1.07-.49" transform="translate(-3.53 -4.91)"/><path class="cls-20" d="M156.58,148.14c-0.54-.32-1,0.46-1.19,1.07L155,150.65a3.42,3.42,0,0,0-.09,1.87,1.18,1.18,0,0,0,1.47.82c0.38-.17.6-0.6,1-0.74a1.39,1.39,0,0,0,.62-0.23,0.74,0.74,0,0,0,0-.75l-1-2.5" transform="translate(-3.53 -4.91)"/><path class="cls-20" d="M169.9,149.15a2.74,2.74,0,0,0-2.51-.87,0.52,0.52,0,0,0-.51.63,5.59,5.59,0,0,0,1.66,3.11,3.36,3.36,0,0,0,1.33,1.1,1.16,1.16,0,0,0,1.47-.54c0.35-1-1.14-1.93-.73-2.86" transform="translate(-3.53 -4.91)"/><path class="cls-22" d="M173.5,159.11a4.65,4.65,0,0,0-2.14-1.22,2.31,2.31,0,0,0-2.26.7,2.06,2.06,0,0,0,.94,3,4,4,0,0,1,1.11.43,1.89,1.89,0,0,1,.4,1.9,3.41,3.41,0,0,0-.08,2c0.46,1.07,2.12,1.09,2.95.27a4.24,4.24,0,0,0,.93-3.25,5.78,5.78,0,0,0-.63-2.59,2.83,2.83,0,0,0-2.12-1.49" transform="translate(-3.53 -4.91)"/><path class="cls-20" d="M161.14,155.11a2.64,2.64,0,0,0-2.07-1,0.66,0.66,0,0,0-.45.13,0.69,0.69,0,0,0-.17.45,3.91,3.91,0,0,0,3,4.07,17.92,17.92,0,0,0-.19-3.41" transform="translate(-3.53 -4.91)"/><path class="cls-20" d="M172.49,173.33c-0.83.55-1.9-.21-2.52-1s-1.36-1.73-2.35-1.6a1.79,1.79,0,0,0-1.35,2,4.72,4.72,0,0,0,1.11,2.35,7.23,7.23,0,0,0,2.28,2.19,2.88,2.88,0,0,0,3-.07,3.11,3.11,0,0,0,1-1.68c0.28-1,.11-2.33-0.85-2.72a0.74,0.74,0,0,0-1,.44" transform="translate(-3.53 -4.91)"/><path class="cls-23" d="M195.78,182.2a2.36,2.36,0,0,0-1.82-.69,1,1,0,0,0-.65,1.49c-1.07.33-2.5-.58-3.23,0.28a1.77,1.77,0,0,0,.22,2,8.61,8.61,0,0,0,7.72,3.83,2,2,0,0,0,1.22-.4,1.56,1.56,0,0,0,.25-1.79,4.58,4.58,0,0,0-1.25-1.45l-3.06-2.69" transform="translate(-3.53 -4.91)"/><path class="cls-24" d="M162.41,207.63a6.35,6.35,0,0,0-1.84-1.76,0.53,0.53,0,0,0-.43-0.11,0.56,0.56,0,0,0-.26.55,7.47,7.47,0,0,0,.19,2.67,2.54,2.54,0,0,0,1.82,1.8c1.14,0.2,2.18-.66,3-1.52a1,1,0,0,0,.3-0.5,1,1,0,0,0-.66-0.89,6.19,6.19,0,0,0-2.8-.73" transform="translate(-3.53 -4.91)"/><path class="cls-20" d="M231.47,106.14c0.51,0.57,1.27.86,1.78,1.43,0.86,0.94.85,2.39,1.5,3.48,0.56,0.93,1.6,1.62,1.75,2.7a11.33,11.33,0,0,0,.08,1.25,2.59,2.59,0,0,0,.75,1.11,43.81,43.81,0,0,0,3.49,3.32c0.14-1.38-1.34-3.75-1.95-5L235.73,108c-0.82-1.68-3.68-10.13-6.58-9.72C229,99.73,230.34,104.89,231.47,106.14Z" transform="translate(-3.53 -4.91)"/><path class="cls-20" d="M92.14,87.33a4.78,4.78,0,0,0-.54,3,0.56,0.56,0,0,0,.35.54,0.5,0.5,0,0,0,.27-0.06c1.5-.67,2.32-2.24,3.36-3.51a10.81,10.81,0,0,1,2.71-2.37,2.2,2.2,0,0,0,.93-0.82c0.66-1.4-1.62-.66-2.15-0.5A9.7,9.7,0,0,0,94.17,85,6.88,6.88,0,0,0,92.14,87.33Z" transform="translate(-3.53 -4.91)"/><path class="cls-20" d="M99.08,101.18a0.63,0.63,0,0,0-.16.4,0.52,0.52,0,0,0,.15.31,1.48,1.48,0,0,0,1.58.21,3,3,0,0,0,1.65-1.51,1.44,1.44,0,0,0,.14-1c-0.34-1.06-1.12-.28-1.58.1A10.2,10.2,0,0,0,99.08,101.18Z" transform="translate(-3.53 -4.91)"/><path class="cls-20" d="M97.82,87.38q-0.71.54-1.37,1.14a0.71,0.71,0,0,0-.27.41,0.48,0.48,0,0,0,.47.47,1.27,1.27,0,0,0,.7-0.22,16.63,16.63,0,0,0,1.47-1,3.69,3.69,0,0,0,.71-0.61c0.3-.35.7-1.13,0-1.12A3.47,3.47,0,0,0,97.82,87.38Z" transform="translate(-3.53 -4.91)"/><path class="cls-20" d="M109.08,81a1.36,1.36,0,0,0-.33.77,0.36,0.36,0,0,0,.1.27,0.4,0.4,0,0,0,.23.08,2.21,2.21,0,0,0,1.64-.89c0.35-.37,1.86-2.06.73-2.29S109.55,80.31,109.08,81Z" transform="translate(-3.53 -4.91)"/><path class="cls-20" d="M114.34,79a2.29,2.29,0,0,0-.83.39,1.11,1.11,0,0,0-.43.78,0.32,0.32,0,0,0,0,.2,0.38,0.38,0,0,0,.35.09,4.42,4.42,0,0,0,1.69-.52,1.34,1.34,0,0,0,.43-0.34C116.36,78.58,114.72,78.85,114.34,79Z" transform="translate(-3.53 -4.91)"/><path class="cls-20" d="M123.41,77.62a5.24,5.24,0,0,0-1.52,1.18l-2.71,2.7a1,1,0,0,1-1.2.39,0.65,0.65,0,0,1-.19-0.67,1.87,1.87,0,0,1,.35-0.64,13,13,0,0,1,2.21-2.45,5.35,5.35,0,0,1,3-1.26c0.29,0,1.49,0,1.44.43C124.76,77.53,123.66,77.51,123.41,77.62Z" transform="translate(-3.53 -4.91)"/><path class="cls-17" d="M83.66,106.64A36.49,36.49,0,0,0,81,110.06a3.74,3.74,0,0,0-.36,4.61,2.68,2.68,0,0,0,.5.91,0.91,0.91,0,0,0,1,.27l4.27-8.92c0.28-.58,1.41-3,0.14-3.11C85.85,103.75,84.12,106.15,83.66,106.64Z" transform="translate(-3.53 -4.91)"/><path class="cls-17" d="M78,121.92a1.51,1.51,0,0,0,0,.78,0.55,0.55,0,0,0,.6.39,0.74,0.74,0,0,0,.32-0.21,7.58,7.58,0,0,0,.92-1.14c0.53-.77,2.68-4.38.64-4.75C79,116.72,78.2,120.89,78,121.92Z" transform="translate(-3.53 -4.91)"/><path class="cls-20" d="M107.29,203a0.53,0.53,0,0,0,.1.23,4.77,4.77,0,0,0,.76,1c0.3,0.27.66,0.47,0.95,0.75s0.4,0.5.63,0.73a1.16,1.16,0,0,0,.84.4,0.35,0.35,0,0,0,.2-0.06,0.43,0.43,0,0,0,.13-0.23c0.25-.86.57-2.66-0.49-3.11C109.9,202.53,107.23,202.26,107.29,203Z" transform="translate(-3.53 -4.91)"/><path class="cls-25" d="M163.43,200.64l-2.25-.13a0.45,0.45,0,0,0-.27,0,0.37,0.37,0,0,0-.14.26,1.53,1.53,0,0,0,1,1.43,3.65,3.65,0,0,0,1.4.41,2.05,2.05,0,0,0,1.08-.16,1.11,1.11,0,0,0,.63-0.85,1.21,1.21,0,0,0-1-1.17,3.54,3.54,0,0,0-1.68.2" transform="translate(-3.53 -4.91)"/><path class="cls-20" d="M226.63,91.51a1.21,1.21,0,0,0,.12.88c0.39,0.85,1.07,1.53,1.44,2.39a4.38,4.38,0,0,0,1,1.93,0.67,0.67,0,0,0,.55.15,0.63,0.63,0,0,0,.39-0.65,2.84,2.84,0,0,0-.23-0.79,1.08,1.08,0,0,1,0-.8c0.08-.18.25-0.32,0.32-0.5a1.14,1.14,0,0,0-.6-1.15C229.18,92.6,227,90.43,226.63,91.51Z" transform="translate(-3.53 -4.91)"/><path class="cls-20" d="M225.1,96a0.21,0.21,0,0,0-.12,0,0.19,0.19,0,0,0-.11.07,1.15,1.15,0,0,0-.24.94,5.16,5.16,0,0,0,.28,1,23.49,23.49,0,0,0,.7,2.26,2.39,2.39,0,0,0,1.72,1.48,0.75,0.75,0,0,0,.35,0,0.72,0.72,0,0,0,.38-0.38,2,2,0,0,0-.25-1.9c-0.36-.56-0.86-1-1.26-1.55A6,6,0,0,0,225.1,96Z" transform="translate(-3.53 -4.91)"/><path class="cls-26" d="M159.5,113.58c1,1.09,1.91,2.23,2.8,3.4A5.83,5.83,0,0,0,159.5,113.58Z" transform="translate(-3.53 -4.91)"/><path class="cls-27" d="M91.46,158.28l2.15,1.78A6.85,6.85,0,0,0,91.46,158.28Z" transform="translate(-3.53 -4.91)"/><path class="cls-28" d="M195.58,162.57a5.2,5.2,0,0,0-1.46-2.09c-1.41-1.73-.43-3-0.73-4.75-0.18-1.1-1.35-2.08-2.65-2.7-1.92-.91-4.33-0.37-6.16-1.45a7.85,7.85,0,0,1-2.39-2.7c-1.11-1.73-2.26-3.73-1.71-5.71a7.32,7.32,0,0,1,1.3-2.29c1.72-2.32,4.34-4.14,3.92-7.41a14.7,14.7,0,0,0-1.56-4,14.81,14.81,0,0,1-1.3-5.8,4.32,4.32,0,0,0-.41-2.32,3.77,3.77,0,0,0-1.77-1.22c-2.11-.91-4.39-1.84-6.64-1.37a5.76,5.76,0,0,0-3.88,3c-0.09.18-1.71,4-1.84,3.69-0.88-2-.06-4.85.18-7a28.7,28.7,0,0,0-.05-6.87,3.5,3.5,0,0,0-.38-1.36c-0.77-1.29-2.65-1.19-4.11-.84q-1.68.4-3.33,0.93a1.79,1.79,0,0,0-.91.52,1.66,1.66,0,0,0-.24,1.05c0,1.79.57,3.65-.1,5.31a3.93,3.93,0,0,1-2.74,2.32c-0.9.2-2,.17-2.5,1a2.43,2.43,0,0,0,.25,2.21c1.89,4,4.32,7.23.25,10.73a38.47,38.47,0,0,1-8.5,5.55,16.88,16.88,0,0,1-8.38,2c-7.09-.52-9.7-9.45-12-15a2.6,2.6,0,0,0-1.07-1.47,2.46,2.46,0,0,0-1.41-.1,34.18,34.18,0,0,0-4.84,1,3.84,3.84,0,0,0-1.85.94,4.4,4.4,0,0,0-.82,1.89,26.1,26.1,0,0,1-4.66,9.27c4.48,1.4,9.42,4.91,11.78,9.06,0.9,1.59,1,3.92-.74,5-1.25.78-2.93,0.4-4.18,1.3-1.76,1.28-2.57,4-5,4.37-3,.47-5.3-1.68-8.52-0.88a19.9,19.9,0,0,0-9.09,5.1c-1,1-2,2.55-1.42,3.89a3.14,3.14,0,0,0,2.26,1.53c0.92,0.21,1.88.23,2.78,0.51a4.9,4.9,0,0,1,3.22,3.52c0.65,2.87-.71,3.92-3.13,3.42-1.24-.26-1.42-0.66-2.52.53a9.7,9.7,0,0,0-1.51,3c-0.69,1.68-2.46,3.48-4,2.57a4.77,4.77,0,0,1-1.39,4.6,15.87,15.87,0,0,0-7.9-3l-0.45.81c1.25,2.28,2.06,5,4,6.65,1,0.86,2.28,1.38,3.31,2.22,2.84,2.3,3.75,6.15,6.56,8.49a3.78,3.78,0,0,1,.8-4.51,2,2,0,0,0,.61-0.67,2.94,2.94,0,0,0-.25-1.59c-0.24-1.28.87-2,1.27-3.12s0.38-2.17.74-3.19a16,16,0,0,1,4.17-6.42,18.48,18.48,0,0,1,2.75-2.46c1.46-.85,3-0.81,4.26-2.19a9.78,9.78,0,0,0,1.61-3l3-7.51a10,10,0,0,1,1.94-3.43c2.05-2.07,5.49-2,7.82-3.77,2-1.56,3.49-4.59,6.05-4.36,1.42,0.13,2.5,1.28,3.79,1.87a5.11,5.11,0,0,0,5.51-.92c1.41-1.34,2.59-3.73,4.48-3.24a11.28,11.28,0,0,1,2,1.16c3.58,1.77,8.2-3.27,8.86-6.4s0.65-8.16,5.53-6.17c2.19,0.9,5,6.19,7.37,5.66,1.48-.33,1.94-2.24,3.14-3.16,1.43-1.09,3.64-.47,4.79.92a8.38,8.38,0,0,1,1.53,5.07c0.08,1.79.51,4.21,2.3,4.29l0.62,3.63a5.15,5.15,0,0,0,4.85-1.42c3.29,1.6,3.91,6.72,7.4,7.78a2.31,2.31,0,0,1,1.1.49,2.52,2.52,0,0,1,.4,1.2,4.55,4.55,0,0,0,2,2.62,2.72,2.72,0,0,1-.71-1.8C195,164.55,195.77,163.59,195.58,162.57Z" transform="translate(-3.53 -4.91)"/><path class="cls-29" d="M241.71,121.37c0.32,0.95,2.48,6.7,2.65,7.68a41.48,41.48,0,0,1,.48,6.22l0.21,8.11a39.23,39.23,0,0,1-.41,8c-0.29,1.62.12,4.63-2.32,4.8a2.77,2.77,0,0,1-2-.87c-2.28-2.07-2.95-5.33-4.36-8.07a1.62,1.62,0,0,0-.68-0.79,1.17,1.17,0,0,0-1.44.69,3.41,3.41,0,0,0-.13,1.75,41.84,41.84,0,0,1,.47,5.37,9.8,9.8,0,0,1-.7,4.1c-0.94,1.9-3,3-4.86,3.92-1.59.79-3.38,0.82-4.76,1.92-1.83,1.45-2.94,2.88-5.22,3.84s-4.89,2.13-5.66,4.49a5.2,5.2,0,0,0,.41,3.89,40.64,40.64,0,0,1,2.14,3.58c1,2.73-.5,5.59-2.25,7.63-0.86,1-2.08,1.51-1.42,2.77,0.52,1,2.37,1.51,3.06,2.64a33.85,33.85,0,0,1,1.74,4,1.21,1.21,0,0,0,1,.89c0.88-.05,1.34-1.81,2-1.28a0.85,0.85,0,0,1,.26.46c1.49,5.11-5.55,9.63-3.74,14.64a21,21,0,0,0,7.19-5.75c1.69-2.11,3.14-4.68,5.68-5.62a4,4,0,0,0,1.85-.93,5.35,5.35,0,0,0,.63-1.81c0.88-2.67,4.86-3.43,5.47-6.17,0.23-1.05-.11-2.2.25-3.21s1.49-1.75,2.18-2.69c0.93-1.26,1-2.92,1.23-4.48,0.75-6.29,3.16-12.25,4.79-18.37C248.74,150.69,247.34,132.44,241.71,121.37Z" transform="translate(-3.53 -4.91)"/><path class="cls-30" d="M212.34,154.13a9.56,9.56,0,0,1,.17-9,2.72,2.72,0,0,0,2.41,1.1l-0.29-7a11.79,11.79,0,0,1,4.79.91,4,4,0,0,1,2.39,3.92,7.62,7.62,0,0,0,7.35-5.25c0.7,1.44,3.18.68,3.63-.87s-0.38-3.14-1.18-4.53c-2.18-3.8-4.19-7.47-7.4-10.45a1.45,1.45,0,0,0-1-.95,16.27,16.27,0,0,0,1.87,6.12c0.9,1.57,2.39,3.23,1.8,5.18a1.4,1.4,0,0,1-.56.82,1.74,1.74,0,0,1-.86.18,17.08,17.08,0,0,1-7.67-1.61c-1.39-.65-3-1.52-4.37-0.91A4.74,4.74,0,0,0,212,133L208,137.12a2.31,2.31,0,0,0-.73,2.65c0.67,3.44,1.38,6.85,2.24,10.22s3.38,6.21,5.79,8.71C214.48,157.1,213.18,155.74,212.34,154.13Z" transform="translate(-3.53 -4.91)"/></g></g></svg>