<svg xmlns="http://www.w3.org/2000/svg" id="Layer_1" data-name="Layer 1" viewBox="0 0 79.86 35.55"><defs><style>.cls-1{fill:#e07eff}.cls-2{fill:#43003d}.cls-3{fill:#700068}.cls-4{fill:#7c0e73}.cls-5{fill:#e70048}.cls-6{fill:#380035}.cls-7{fill:#1d001b}.cls-8{fill:#de64d6}.cls-9{fill:#6a0061}.cls-10{fill:none;stroke:#41003d;stroke-linecap:round;stroke-miterlimit:10;stroke-width:.43px}</style></defs><title>bird</title><path d="M16.69,40.42A20.72,20.72,0,0,0,29.3,44.17c7.39-.32,13.62-3.8,18.2-6.95s9.77-7.6,9.54-7.82-6.79.48-11.44,1.3-30.44,3.57-30.44,3.57Z" class="cls-1" transform="translate(-2.41 -13.21)"/><path d="M74.58,26.81a9.07,9.07,0,0,1-4.81,2.42c-2.93.44-15.19,3.57-23.09,1.25L49.44,29Z" class="cls-2" transform="translate(-2.41 -13.21)"/><path d="M53.88,26.3s9.82-.49,16-2.2,12.78-3,12.34-1.67-6.61,3.44-6.61,3.44,0.63,0.3-.6,1S54,31.24,47.21,30.52Z" class="cls-3" transform="translate(-2.41 -13.21)"/><path d="M7.61,15.91s2.4-3.43,6.71-.6,3.2,6.6,8.71,6.36,8.27-1.17,17.52,1.28S56,25.57,56.16,26s-1.43,2.13-6.06,4.13S41.27,32.86,34.73,34,21.86,39,16.32,35.13a24.1,24.1,0,0,1-9.07-13A13.52,13.52,0,0,1,7.61,15.91Z" class="cls-4" transform="translate(-2.41 -13.21)"/><path d="M6.64,15.87a0.89,0.89,0,0,1,1-1.06,0.87,0.87,0,0,1,.8,1.13,2.25,2.25,0,0,1,.88,1c0,0.44-.27,2,0.28,2.32s1.93-.44,3.42,1.57,1.09,4.16-.59,5.26a2.85,2.85,0,0,0,1.63-.43c1.1-.54,1.78-1,1.77-0.79a6,6,0,0,1-2.22,2.27C12.26,28,12,28,12,28.06s2.52,0.71,3.69,2,0.54,5.16,3.39,8,3.08,3.93,2.1,4.19-5-.78-9.45-5.74-4.33-8.87-4.33-8.87-5-5-1.83-10.74Z" class="cls-5" transform="translate(-2.41 -13.21)"/><circle cx="9.05" cy="18.57" r="1.21" class="cls-6" transform="translate(-11.94 -3.66) rotate(-38.11)"/><circle cx="9.05" cy="18.57" r=".69" class="cls-7" transform="translate(-11.94 -3.66) rotate(-38.11)"/><circle cx="9.78" cy="18.68" r=".37" class="cls-8" transform="translate(-11.85 -3.19) rotate(-38.11)"/><path d="M7,15.75a4.13,4.13,0,0,1-.36,1.47,1.92,1.92,0,0,1-1.34.1l-2.9-4.11A8.55,8.55,0,0,1,7,15.75Z" class="cls-6" transform="translate(-2.41 -13.21)"/><path d="M21,26.72c-3.59,1.54-5.13,5.1-3.09,8.35s7.81,8.08,19.79,5.39,20.64-5.31,19.88-6.29-10.32-3-10.32-3,1.11-.81.21-1.24-9.4-2.21-9.4-2.21,0.5-.51-0.67-1.22S27.5,23.93,21,26.72Z" class="cls-9" transform="translate(-2.41 -13.21)"/><line x1="33.33" x2="26.97" y1="33.02" y2="35.08" class="cls-10"/><path d="M25.89,48a1.91,1.91,0,0,1,2.66-.37,2.24,2.24,0,0,1,.79.87" class="cls-10" transform="translate(-2.41 -13.21)"/><path d="M27.41,43.91s7.68,3,9,2.75-0.1-2.9-4.29-4.15S27.41,43.91,27.41,43.91Z" class="cls-1" transform="translate(-2.41 -13.21)"/></svg>