<svg xmlns="http://www.w3.org/2000/svg" xmlns:xlink="http://www.w3.org/1999/xlink" id="Layer_1" data-name="Layer 1" viewBox="0 0 394.89 211"><defs><style>.cls-1{fill:#fff}.cls-2{fill:#b8c0d7}.cls-3{fill:#e18173}.cls-4{fill:#d1725f}.cls-5{fill:#dee6fd}.cls-6{fill:#a6aec5}.cls-7{fill:url(#linear-gradient)}.cls-8{fill:url(#linear-gradient-2)}.cls-9{fill:#472f5b}.cls-10{fill:url(#linear-gradient-3)}.cls-11{fill:url(#linear-gradient-4)}.cls-12{fill:#29163a}.cls-13{fill:url(#linear-gradient-5)}.cls-14{fill:url(#linear-gradient-6)}.cls-15{fill:url(#linear-gradient-7)}.cls-16{fill:#6e425a}.cls-17{fill:url(#linear-gradient-8)}.cls-18{fill:#b1615f}.cls-19{fill:#aa504b}.cls-20{fill:#b97577}.cls-21{fill:url(#linear-gradient-9)}.cls-22{fill:url(#linear-gradient-10)}.cls-23{fill:url(#linear-gradient-11)}.cls-24{fill:#283047}.cls-25{fill:#bf6e73}.cls-26{fill:#210e26}.cls-27{fill:url(#linear-gradient-12)}.cls-28{fill:url(#linear-gradient-13)}.cls-29{fill:url(#linear-gradient-14)}.cls-30{fill:url(#linear-gradient-15)}.cls-31{fill:url(#linear-gradient-16)}.cls-32{fill:#020025}.cls-33{fill:url(#linear-gradient-17)}.cls-34{fill:#1d002e}.cls-35{fill:#e8aa5d}.cls-36{fill:#66263f}.cls-37{fill:url(#linear-gradient-18)}.cls-38{fill:url(#linear-gradient-19)}.cls-39{fill:#d2d1c9}.cls-40{fill:url(#linear-gradient-20)}.cls-41{fill:#51102e}.cls-42{fill:#351a48}.cls-43{fill:url(#linear-gradient-21)}.cls-44{fill:url(#linear-gradient-22)}.cls-45{fill:#e9c35f}.cls-46{fill:url(#linear-gradient-23)}.cls-47{fill:#99660a}.cls-145,.cls-48,.cls-62,.cls-65,.cls-81{fill:none}.cls-48,.cls-65{stroke:#99660a;stroke-width:.44px}.cls-145,.cls-48,.cls-62{stroke-miterlimit:10}.cls-49{fill:#3c93be}.cls-50{fill:url(#linear-gradient-24)}.cls-51{fill:#281547}.cls-52{fill:#e5f0ff}.cls-53{fill:#b8c8e9}.cls-54{fill:#c8d6f3}.cls-55{fill:url(#linear-gradient-25)}.cls-56{fill:#190e30}.cls-57{fill:url(#linear-gradient-26)}.cls-58{fill:url(#linear-gradient-27)}.cls-59{fill:url(#linear-gradient-28)}.cls-60{fill:#1f1a66}.cls-61{fill:#2d68be}.cls-62{stroke:#1f1a66;stroke-width:.37px}.cls-63{fill:#8aa1cc;fill-rule:evenodd}.cls-64{fill:#5f223e}.cls-65,.cls-81{stroke-linejoin:round}.cls-66{fill:url(#linear-gradient-29)}.cls-67{fill:#dae0f1}.cls-68{fill:#6c3e2f}.cls-69{fill:#23001a}.cls-70{fill:#ed5e41}.cls-71{fill:#e8225e}.cls-72{fill:url(#linear-gradient-30)}.cls-73{fill:#622f20}.cls-74{fill:url(#linear-gradient-31)}.cls-75{fill:#e20040}.cls-76{fill:#c280b6}.cls-77{fill:url(#linear-gradient-32)}.cls-78{fill:url(#linear-gradient-33)}.cls-79{fill:#d8b2d4}.cls-80{fill:url(#linear-gradient-34)}.cls-81{stroke:#d8b2d4;stroke-width:.79px}.cls-145,.cls-81{stroke-linecap:round}.cls-82{fill:url(#linear-gradient-35)}.cls-83{fill:#ece3de}.cls-84{fill:url(#linear-gradient-36)}.cls-85{fill:#efb94b}.cls-86{fill:url(#linear-gradient-37)}.cls-87{fill:url(#linear-gradient-38)}.cls-88{fill:#e9043e}.cls-89{fill:#176498}.cls-90{fill:url(#linear-gradient-39)}.cls-91{fill:#a26200}.cls-92{fill:#2a001e}.cls-93{fill:#f0e6ed}.cls-94{fill:#8a0e2f}.cls-95{fill:#133963}.cls-96{fill:#d8d0ca}.cls-97{fill:#ed7652}.cls-98{fill:#de4a6c}.cls-99{fill:url(#linear-gradient-40)}.cls-100{fill:url(#linear-gradient-41)}.cls-101{fill:url(#linear-gradient-42)}.cls-102{fill:#e05b7b}.cls-103{fill:#c6a9a1}.cls-104{fill:url(#linear-gradient-43)}.cls-105{fill:#ee8b6f}.cls-106{fill:url(#linear-gradient-44)}.cls-107{fill:#d46655}.cls-108{fill:url(#linear-gradient-45)}.cls-109{fill:#254870}.cls-110{fill:url(#linear-gradient-46)}.cls-111{fill:url(#linear-gradient-47)}.cls-112{fill:#e6e4eb}.cls-113{fill:url(#linear-gradient-48)}.cls-114{fill:url(#linear-gradient-49)}.cls-115{fill:url(#linear-gradient-50)}.cls-116{fill:url(#linear-gradient-51)}.cls-117{fill:#001e3c}.cls-118{fill:url(#linear-gradient-52)}.cls-119{fill:#d8c570}.cls-120{fill:#d8c670}.cls-121{fill:url(#linear-gradient-53)}.cls-122{fill:#d67d67}.cls-123{fill:url(#linear-gradient-54)}.cls-124{fill:#d67c67}.cls-125{fill:#06061d}.cls-126{fill:url(#linear-gradient-55)}.cls-127{fill:#d56348}.cls-128{fill:#d67b67}.cls-129{fill:#160828}.cls-130{fill:#392034}.cls-131{fill:#ddedf7}.cls-132{fill:#4d2839}.cls-133{fill:#d67066}.cls-134{fill:#ca2f79}.cls-135{fill:url(#linear-gradient-56)}.cls-136{fill:url(#linear-gradient-57)}.cls-137{fill:url(#linear-gradient-58)}.cls-138{fill:url(#linear-gradient-59)}.cls-139{fill:url(#linear-gradient-60)}.cls-140{fill:url(#linear-gradient-61)}.cls-141{fill:#662234}.cls-142{fill:#170829}.cls-143{fill:url(#linear-gradient-62)}.cls-144{fill:#03030d}.cls-145{stroke:#d9bf6b;stroke-width:.45px}.cls-146{fill:#ccaa38}.cls-147{fill:#d9bf6b}.cls-148{fill:#792c29}.cls-149{fill:#ac5642}.cls-150{fill:url(#linear-gradient-63)}.cls-151{fill:#e4b17f}.cls-152{fill:url(#linear-gradient-64)}.cls-153{fill:url(#linear-gradient-65)}.cls-154{fill:url(#linear-gradient-66)}.cls-155{fill:url(#linear-gradient-67)}.cls-156{fill:#926948}.cls-157{fill:url(#linear-gradient-68)}.cls-158{fill:#340c10}.cls-159{fill:#40151c}.cls-160{fill:url(#linear-gradient-69)}</style><linearGradient id="linear-gradient" x1="257.24" x2="262.09" y1="132.03" y2="132.03" gradientTransform="matrix(1, 0.04, 0, 1, 27.21, -17.4)" gradientUnits="userSpaceOnUse"><stop offset="0" stop-color="#c36750"/><stop offset="1" stop-color="#e17c6c"/></linearGradient><linearGradient id="linear-gradient-2" x1="259.48" x2="261.89" y1="142.34" y2="134.81" xlink:href="#linear-gradient"/><linearGradient id="linear-gradient-3" x1="291.48" x2="306.1" y1="186.75" y2="244.08" gradientTransform="matrix(1, 0, 0.02, 1, -1.52, -0.03)" gradientUnits="userSpaceOnUse"><stop offset="0" stop-color="#472f5b"/><stop offset="1" stop-color="#301342"/></linearGradient><linearGradient id="linear-gradient-4" x1="295.21" x2="334.03" y1="221.18" y2="221.18" gradientTransform="matrix(1, 0, 0.04, 1, -3.49, 0.17)" xlink:href="#linear-gradient-3"/><linearGradient id="linear-gradient-5" x1="260.93" x2="272.13" y1="170.36" y2="170.36" gradientTransform="matrix(1, 0.04, 0, 1, 27.21, -17.4)" gradientUnits="userSpaceOnUse"><stop offset=".01" stop-color="#b8c0d7"/><stop offset="1" stop-color="#a7afc6"/></linearGradient><linearGradient id="linear-gradient-6" x1="296.19" x2="298.25" y1="187.03" y2="160.53" xlink:href="#linear-gradient-5"/><linearGradient id="linear-gradient-7" x1="284.6" x2="281.11" y1="143.66" y2="160.42" gradientTransform="matrix(1, 0.04, 0, 1, 27.21, -78.34)" gradientUnits="userSpaceOnUse"><stop offset=".01" stop-color="#b8c0d7"/><stop offset="1" stop-color="#d4dcf3"/></linearGradient><linearGradient id="linear-gradient-8" x1="280.95" x2="288.88" y1="121.87" y2="119.65" gradientTransform="matrix(1, 0.04, 0, 1, 27.21, -17.4)" gradientUnits="userSpaceOnUse"><stop offset="0" stop-color="#673850"/><stop offset="1" stop-color="#55215a"/></linearGradient><linearGradient id="linear-gradient-9" x1="295.67" x2="295.77" y1="177.6" y2="184.08" xlink:href="#linear-gradient"/><linearGradient id="linear-gradient-10" x1="297.28" x2="304.98" y1="168.09" y2="154.6" xlink:href="#linear-gradient-5"/><linearGradient id="linear-gradient-11" x1="260.83" x2="262.71" y1="139.26" y2="147.74" xlink:href="#linear-gradient-5"/><linearGradient id="linear-gradient-12" x1="283.08" x2="282.39" y1="134.46" y2="137.11" xlink:href="#linear-gradient"/><linearGradient id="linear-gradient-13" x1="280.83" x2="280.83" y1="134.15" y2="134.15" gradientTransform="matrix(1, 0.04, 0, 1, 27.21, -78.34)" xlink:href="#linear-gradient"/><linearGradient id="linear-gradient-14" x1="287.52" x2="285" y1="108.31" y2="105.58" gradientTransform="matrix(1, 0.04, 0, 1, 27.21, -17.4)" gradientUnits="userSpaceOnUse"><stop offset=".01" stop-color="#b8c0d7"/><stop offset=".56" stop-color="#c7cfe6"/><stop offset="1" stop-color="#d4dcf3"/></linearGradient><linearGradient id="linear-gradient-15" x1="297.42" x2="298.95" y1="122.43" y2="116.57" gradientTransform="matrix(1, 0.04, 0, 1, 27.21, -17.4)" gradientUnits="userSpaceOnUse"><stop offset=".01" stop-color="#b3bbd2"/><stop offset="1" stop-color="#a7afc6"/></linearGradient><linearGradient id="linear-gradient-16" x1="290.59" x2="299.53" y1="106.33" y2="106.33" xlink:href="#linear-gradient-15"/><linearGradient id="linear-gradient-17" x1="320.5" x2="315.99" y1="131.82" y2="129.8" gradientTransform="matrix(1, 0, 0.02, 1, -1.98, 0.2)" xlink:href="#linear-gradient-5"/><linearGradient id="linear-gradient-18" x1="229.22" x2="233.06" y1="103.03" y2="100.98" gradientUnits="userSpaceOnUse"><stop offset="0" stop-color="#5a1d3b"/><stop offset="1" stop-color="#51102e"/></linearGradient><linearGradient id="linear-gradient-19" x1="228.66" x2="226.87" y1="131.59" y2="124.42" xlink:href="#linear-gradient-18"/><linearGradient id="linear-gradient-20" x1="223.13" x2="227.89" y1="100.69" y2="99.89" gradientUnits="userSpaceOnUse"><stop offset="0" stop-color="#cfcdc1"/><stop offset="1" stop-color="#bcb38e"/></linearGradient><linearGradient id="linear-gradient-21" x1="231.1" x2="262.61" y1="130.78" y2="130.78" gradientUnits="userSpaceOnUse"><stop offset="0" stop-color="#e9c35f"/><stop offset="1" stop-color="#e8a35c"/></linearGradient><linearGradient id="linear-gradient-22" x1="264.21" x2="240.9" y1="128.56" y2="136.27" gradientUnits="userSpaceOnUse"><stop offset="0" stop-color="#e8851c"/><stop offset="1" stop-color="#e8a35c"/></linearGradient><linearGradient id="linear-gradient-23" x1="238.57" x2="221.57" y1="180.09" y2="142.02" gradientUnits="userSpaceOnUse"><stop offset="0" stop-color="#e89e5b"/><stop offset="1" stop-color="#e8a35c"/></linearGradient><linearGradient id="linear-gradient-24" x1="235.93" x2="244.75" y1="214.44" y2="192.83" gradientUnits="userSpaceOnUse"><stop offset="0" stop-color="#0b78a9"/><stop offset="1" stop-color="#2e8bb8"/></linearGradient><linearGradient id="linear-gradient-25" x1="234.02" x2="229.51" y1="141.1" y2="146.32" xlink:href="#linear-gradient-18"/><linearGradient id="linear-gradient-26" x1="237.74" x2="245.38" y1="110.57" y2="110.57" xlink:href="#linear-gradient-18"/><linearGradient id="linear-gradient-27" x1="208.06" x2="217.53" y1="150.88" y2="150.88" xlink:href="#linear-gradient-21"/><linearGradient id="linear-gradient-28" x1="206.71" x2="226.68" y1="160.56" y2="160.56" xlink:href="#linear-gradient-21"/><linearGradient id="linear-gradient-29" x1="225.91" x2="241.05" y1="91.53" y2="103.44" gradientUnits="userSpaceOnUse"><stop offset="0" stop-color="#351a48"/><stop offset="1" stop-color="#1d002e"/></linearGradient><linearGradient id="linear-gradient-30" x1="123.77" x2="130.19" y1="205.71" y2="190.89" gradientUnits="userSpaceOnUse"><stop offset="0" stop-color="#ed5e41"/><stop offset="1" stop-color="#cd4a41"/></linearGradient><linearGradient id="linear-gradient-31" x1="127.76" x2="122.74" y1="224.14" y2="250.44" gradientUnits="userSpaceOnUse"><stop offset="0" stop-color="#5a2614"/><stop offset="1" stop-color="#5a2614"/></linearGradient><linearGradient id="linear-gradient-32" x1="144.89" x2="130.18" y1="255.36" y2="225.45" gradientUnits="userSpaceOnUse"><stop offset="0" stop-color="#663526"/><stop offset="1" stop-color="#622f20"/></linearGradient><linearGradient id="linear-gradient-33" x1="124.91" x2="133.4" y1="204.81" y2="213.71" gradientUnits="userSpaceOnUse"><stop offset="0" stop-color="#e8225e"/><stop offset="1" stop-color="#a2225e"/></linearGradient><linearGradient id="linear-gradient-34" x1="93.22" x2="115.07" y1="147.16" y2="176.03" gradientUnits="userSpaceOnUse"><stop offset="0" stop-color="#6c3e2f"/><stop offset="1" stop-color="#592613"/></linearGradient><linearGradient id="linear-gradient-35" x1="113.11" x2="117.11" y1="200.09" y2="189.06" xlink:href="#linear-gradient-30"/><linearGradient id="linear-gradient-36" x1="143.23" x2="147.42" y1="250.71" y2="265.43" gradientUnits="userSpaceOnUse"><stop offset="0" stop-color="#ece3de"/><stop offset="1" stop-color="#e5dab6"/></linearGradient><linearGradient id="linear-gradient-37" x1="152.6" x2="148.37" y1="268.53" y2="266.06" gradientUnits="userSpaceOnUse"><stop offset="0" stop-color="#efb94b"/><stop offset="1" stop-color="#ef9c32"/></linearGradient><linearGradient id="linear-gradient-38" x1="124.26" x2="117.56" y1="253.34" y2="262.67" xlink:href="#linear-gradient-36"/><linearGradient id="linear-gradient-39" x1="124.39" x2="118.17" y1="272.13" y2="268.22" xlink:href="#linear-gradient-37"/><linearGradient id="linear-gradient-40" x1="171.58" x2="154.28" y1="229.01" y2="251.2" gradientUnits="userSpaceOnUse"><stop offset="0" stop-color="#c1447b"/><stop offset="1" stop-color="#de4a6c"/></linearGradient><linearGradient id="linear-gradient-41" x1="168.04" x2="171.92" y1="222.36" y2="218.09" gradientUnits="userSpaceOnUse"><stop offset="0" stop-color="#d8d0ca"/><stop offset="1" stop-color="#cbbfaf"/></linearGradient><linearGradient id="linear-gradient-42" x1="171.37" x2="175.94" y1="271.74" y2="265.16" gradientUnits="userSpaceOnUse"><stop offset="0" stop-color="#ee8b6f"/><stop offset="1" stop-color="#de786b"/></linearGradient><linearGradient id="linear-gradient-43" x1="164.61" x2="183.62" y1="262.5" y2="234.52" gradientUnits="userSpaceOnUse"><stop offset="0" stop-color="#c6a9a1"/><stop offset="1" stop-color="#be9b90"/></linearGradient><linearGradient id="linear-gradient-44" x1="165.96" x2="186.83" y1="252.85" y2="220.06" gradientUnits="userSpaceOnUse"><stop offset="0" stop-color="#c1447b"/><stop offset="1" stop-color="#e05b7b"/></linearGradient><linearGradient id="linear-gradient-45" x1="141.67" x2="166.7" y1="210.67" y2="210.67" xlink:href="#linear-gradient-42"/><linearGradient id="linear-gradient-46" x1="238.37" x2="239.37" y1="278.76" y2="288.34" gradientTransform="translate(5.94 -32.43) rotate(1.76)" xlink:href="#linear-gradient-42"/><linearGradient id="linear-gradient-47" x1="186.38" x2="226.96" y1="282.19" y2="282.19" gradientTransform="translate(5.94 -32.43) rotate(1.76)" xlink:href="#linear-gradient-43"/><linearGradient id="linear-gradient-48" x1="188.7" x2="188.15" y1="254.65" y2="217.84" gradientUnits="userSpaceOnUse"><stop offset="0" stop-color="#e6e4eb"/><stop offset="1" stop-color="#d8d0ca"/></linearGradient><linearGradient id="linear-gradient-49" x1="192.88" x2="209.58" y1="213.3" y2="240.3" xlink:href="#linear-gradient-48"/><linearGradient id="linear-gradient-50" x1="173.28" x2="190.58" y1="211.38" y2="220.17" xlink:href="#linear-gradient-48"/><linearGradient id="linear-gradient-51" x1="185.1" x2="210.84" y1="292.67" y2="292.67" gradientTransform="translate(5.94 -32.43) rotate(1.76)" xlink:href="#linear-gradient-43"/><linearGradient id="linear-gradient-52" x1="82.12" x2="79.09" y1="138.23" y2="128.18" gradientUnits="userSpaceOnUse"><stop offset=".01" stop-color="#d8c570"/><stop offset="1" stop-color="#d7a66c"/></linearGradient><linearGradient id="linear-gradient-53" x1="49.85" x2="69.63" y1="172.47" y2="142.8" xlink:href="#linear-gradient-52"/><linearGradient id="linear-gradient-54" x1="82.5" x2="70.6" y1="139.38" y2="123.76" gradientUnits="userSpaceOnUse"><stop offset=".01" stop-color="#d68168"/><stop offset="1" stop-color="#d55b62"/></linearGradient><linearGradient id="linear-gradient-55" x1="87.4" x2="88.73" y1="161.54" y2="150.72" xlink:href="#linear-gradient-54"/><linearGradient id="linear-gradient-56" x1="76.75" x2="69.33" y1="148.76" y2="134.41" xlink:href="#linear-gradient-54"/><linearGradient id="linear-gradient-57" x1="67.07" x2="84.14" y1="147.48" y2="191.82" gradientUnits="userSpaceOnUse"><stop offset=".01" stop-color="#160828"/><stop offset="1" stop-color="#0a061d"/></linearGradient><linearGradient id="linear-gradient-58" x1="94.28" x2="80.08" y1="170.66" y2="158.37" xlink:href="#linear-gradient-57"/><linearGradient id="linear-gradient-59" x1="38.17" x2="59.87" y1="101.39" y2="139.52" xlink:href="#linear-gradient-57"/><linearGradient id="linear-gradient-60" x1="84.05" x2="77.51" y1="255.75" y2="245.22" xlink:href="#linear-gradient-57"/><linearGradient id="linear-gradient-61" x1="78.44" x2="50.68" y1="244.6" y2="199.13" gradientUnits="userSpaceOnUse"><stop offset=".01" stop-color="#160828"/><stop offset="1" stop-color="#281a3b"/></linearGradient><linearGradient id="linear-gradient-62" x1="55.63" x2="52.32" y1="-189.68" y2="-193.07" gradientTransform="translate(71.05 277.79) rotate(-18.92)" gradientUnits="userSpaceOnUse"><stop offset=".01" stop-color="#170829"/><stop offset="1" stop-color="#03030d"/></linearGradient><linearGradient id="linear-gradient-63" x1="274.2" x2="280.2" y1="235.63" y2="252.92" gradientUnits="userSpaceOnUse"><stop offset="0" stop-color="#ac5642"/><stop offset="1" stop-color="#792c29"/></linearGradient><linearGradient id="linear-gradient-64" x1="275.36" x2="273.89" y1="272.11" y2="257.53" xlink:href="#linear-gradient-63"/><linearGradient id="linear-gradient-65" x1="242.52" x2="260.29" y1="257.8" y2="257.8" xlink:href="#linear-gradient-63"/><linearGradient id="linear-gradient-66" x1="270.32" x2="267.1" y1="267.81" y2="253.12" gradientUnits="userSpaceOnUse"><stop offset="0" stop-color="#ac5642"/><stop offset="1" stop-color="#bb776a"/></linearGradient><linearGradient id="linear-gradient-67" x1="245.2" x2="250.59" y1="254.46" y2="249.3" gradientUnits="userSpaceOnUse"><stop offset="0" stop-color="#521c1f"/><stop offset="1" stop-color="#792c29"/></linearGradient><linearGradient id="linear-gradient-68" x1="675.88" x2="688.25" y1="925.53" y2="925.53" gradientTransform="translate(459.18 -870.28) rotate(45)" gradientUnits="userSpaceOnUse"><stop offset="0" stop-color="#926948"/><stop offset="1" stop-color="#774d2c"/></linearGradient><linearGradient id="linear-gradient-69" x1="675.25" x2="689.69" y1="919.1" y2="919.1" gradientTransform="translate(459.18 -870.28) rotate(45)" gradientUnits="userSpaceOnUse"><stop offset="0" stop-color="#44171d"/><stop offset="1" stop-color="#2e080b"/></linearGradient></defs><title>building</title><path d="M384.29,201.55c-15.51-17.27-31.23-32-48.83-15.08s-24.26,5.65-36.84,18.24-26.44,17.58-44.32,18-36.22-14.53-50.9-17-14.11-4.44-29.63-7.41-20.19-13.51-37.69-3.95S89.76,208.63,63,188.26s-39.55-19.78-63-3.08V238c9.48,2,13.94,2.19,24.54-1.77s28.36,2.26,41.9.57,33-11.4,65-3.54,54,15,74.8,9.45,24.81-.54,37.27-6.21,28.58-17.5,58.68-5.92,48.59-3.71,63.1,1a114.12,114.12,0,0,0,29.56,4.92V206.89S387.64,205.28,384.29,201.55Z" class="cls-1" transform="translate(0 -60.95)"/><path d="M301.09,265.63c-0.17,1.23.79,2.61-.18,3.25s-6.39,1.81-6.71.32a8.21,8.21,0,0,0-1.06-2.58l1.46-2.33Z" class="cls-2" transform="translate(0 -60.95)"/><path d="M339.61,265.63c-0.14,1.23,1.8,2,.85,2.61s-7.31,2.44-7.66,1-0.44-1.87-.44-1.87l1.41-2.33Z" class="cls-2" transform="translate(0 -60.95)"/><path d="M309.28,127.58c-0.95.09-1.88-.45-2.83-0.36a0.58,0.58,0,0,0-.27.07,0.47,0.47,0,0,0-.16.22,4.6,4.6,0,0,0,.33,2.91c0.72,1.59,1.44,3.19,2.2,4.77a0.49,0.49,0,0,0,.2.25,0.17,0.17,0,0,0,.25-0.11" class="cls-2" transform="translate(0 -60.95)"/><path d="M316,129.36l0.11-5.81a14.67,14.67,0,0,0,4.12-7.94c0.79-4.92.14-5.32-.82-5.92s0-1.43-.93-2.71-4.85-2.78-9.67-1.09-8.57,3.25-3.91,4.79c-0.78,7.33-1.7,9.66-.78,12.66,1.14,3.71,3.84,3.44,3.84,3.44l-0.11,2.81-3.59,5.69,5.1,9.12,9-5.46Z" class="cls-3" transform="translate(0 -60.95)"/><path d="M320.26,115.61c0.06-.36.11-0.69,0.15-1l-0.16,0a3.49,3.49,0,0,0-1.74.47,5.28,5.28,0,0,0-1.5,1.21,2,2,0,0,1,.35,2.56c-0.44.83-1.19,1.47-1.65,2.3a3.93,3.93,0,0,0-.48,2.21c0,0.53.19,1.06,0.25,1.59a9.58,9.58,0,0,1-1.1,4.71l1.2,2.1a7.37,7.37,0,0,0,.91-0.55L316,129.36l0.11-5.81A14.67,14.67,0,0,0,320.26,115.61Z" class="cls-4" transform="translate(0 -60.95)"/><path d="M304.8,117.82a44.28,44.28,0,0,0,1-7.36l-0.85.23c-0.78,7.33-1.7,9.66-.78,12.66,1.14,3.71,3.84,3.44,3.84,3.44C304.28,126.18,304.28,120.84,304.8,117.82Z" class="cls-4" transform="translate(0 -60.95)"/><path d="M308.72,121.43a1,1,0,0,1,1.47,1.32,2,2,0,0,1-2.59,1.57c-1.23-.43-2.53-1.59-1.78-2.17,0.55-.43.9,0,1.56,0S308.05,121.69,308.72,121.43Z" class="cls-5" transform="translate(0 -60.95)"/><path d="M280.4,135.19c2.14-.26,6.68-2.42,9.58-2.75l-0.82,5-8,1.12Z" class="cls-6" transform="translate(0 -60.95)"/><path d="M283.15,136.3c1.19-2.54.79-3.57,0-6s-0.42-3.27.13-5.12-0.92-3.66-.58-4.24a0.44,0.44,0,0,1,.74-0.12,8.37,8.37,0,0,1,1.12,3s0.48-.51,0-2.07-0.76-2-.09-2.24c0.26-.11,1.75-0.69,2.06-0.26a5.75,5.75,0,0,1,.77,3.63c-0.16.9-.42,1.82,0.22,0.47s-0.17-3.83.31-3.95a1.07,1.07,0,0,1,1,.11,10.14,10.14,0,0,1,.28,3.65c-0.93,2.56-.64,3.29-0.64,3.29a1.27,1.27,0,0,0,.8-0.47c0.63-.73.5-1.75,1-1.75s0.86,0.27.76,0.65c-0.2.69-.26,0.88-0.6,2.39-0.29,1.32-.53,1.44-2,2.6a27.18,27.18,0,0,0,0,4.88" class="cls-3" transform="translate(0 -60.95)"/><path d="M285.5,119.2a0.64,0.64,0,0,0,0,.07,2,2,0,0,1,.9,1.32,5.11,5.11,0,0,1,0,1.63,9.89,9.89,0,0,1-1,3.85,5.56,5.56,0,0,0-1,2.21,0.27,0.27,0,0,0,.1.27,9.15,9.15,0,0,1,1.13-1.34,3.31,3.31,0,0,1,1.62-.6,2.28,2.28,0,0,0,1.27-.15s-0.29-.73.64-3.29a10.14,10.14,0,0,0-.28-3.65,1.07,1.07,0,0,0-1-.11c-0.48.12,0.33,2.6-.31,3.95s-0.38.43-.22-0.47a5.75,5.75,0,0,0-.77-3.63A1.14,1.14,0,0,0,285.5,119.2Z" class="cls-7" transform="translate(0 -60.95)"/><path d="M290.51,127.29c0.33-1.51.4-1.7,0.6-2.39a0.27,0.27,0,0,0-.32-0.44,2.06,2.06,0,0,0-.41,1.2,2.65,2.65,0,0,1-.26.7,2.26,2.26,0,0,1-.63.64c-0.71.52-1.55,0.86-2.25,1.4a4.65,4.65,0,0,0-.85.86,5.61,5.61,0,0,0-1,2.76,10.3,10.3,0,0,0,.16,3,4.42,4.42,0,0,0,.14.58l2.88-.82a27.17,27.17,0,0,1,0-4.88C290,128.74,290.22,128.61,290.51,127.29Z" class="cls-8" transform="translate(0 -60.95)"/><path d="M298.39,178s-5.6,63.67-5.36,73.35,0.12,14.72.12,14.72h8.11a73.51,73.51,0,0,0,4-20.52c0.53-8.72-.32-19.22-0.31-21.52a6.39,6.39,0,0,1,.53-2.51,124.81,124.81,0,0,0,6.58-27.72s3.07,23.06,6.52,35.27c3.51,12.39,14.47,37,14.47,37h6.86s-5.42-33.45-11.08-42.4a6.82,6.82,0,0,1-1.09-3.9c0.29-7.52-.78-33.71-2.6-40C323,172.3,298.39,178,298.39,178Z" class="cls-9" transform="translate(0 -60.95)"/><path d="M310.81,193.42l-3.17-.21c-2.55-.17-3,0.11-2.83,2.65a61.52,61.52,0,0,1,0,7.62,60.24,60.24,0,0,1-2.81,14.6,8.92,8.92,0,0,0-.49,2,8.75,8.75,0,0,0,.08,1.74q0.07,0.61.13,1.21a112.71,112.71,0,0,1-4,43.09h3.57a73.51,73.51,0,0,0,4-20.52c0.53-8.72-.32-19.22-0.31-21.52a6.4,6.4,0,0,1,.53-2.51c1.41-3.26,5.14-15.73,6.4-26.06C311.89,194.34,311.65,193.47,310.81,193.42Z" class="cls-10" transform="translate(0 -60.95)"/><path d="M328.84,223.66a6.82,6.82,0,0,1-1.09-3.9c0.29-7.52-.78-33.71-2.6-40C323,172.3,298.39,178,298.39,178s-0.07,2.25-.19,5.95c0.6-.25,2-0.82,2.47-1,1.74-.57.25-0.73,1.85,0.2a10.44,10.44,0,0,0,2.41,1.33,5.9,5.9,0,0,0,2.71-.16,17.22,17.22,0,0,1,5.62-.52,6.74,6.74,0,0,1,4.85,2.69c1.17,1.74,1.17,4,1.17,6.08,0,2.9.2,9.07,0.52,12,0.61,5.42,1.06,13.87,2.51,19.21,0.95,3.48,5.44,6.66,6.4,10.16,1.95,7.1,3.16,13.14,5.41,20.29,1.55,4.91.24,6.83,2.21,11.85h3.57S334.5,232.62,328.84,223.66Z" class="cls-11" transform="translate(0 -60.95)"/><path d="M305.11,182.26c0.56,2.41,1,4.83,1.39,7.2,0.06,0.29.12,0.59,0.18,0.85a1.71,1.71,0,0,0,0,.18l0,0.08v0h0l0-.07h0l0,0.05c0-.07,0,0,0.1.06a8.23,8.23,0,0,0,1.44.75c0.54,0.24,1.09.45,1.65,0.65l0.84,0.31,0.8,0.27,0.08,0a0.67,0.67,0,0,1-.31,1.3,33.15,33.15,0,0,0-3.66-.38c-0.62,0-1.25-.07-1.87-0.06-0.31,0-.62,0-0.93,0a3.09,3.09,0,0,0-.92.18,4.63,4.63,0,0,1,1.79-.72,16.63,16.63,0,0,1,1.9-.31c0.64-.07,1.28-0.12,1.92-0.13a14.47,14.47,0,0,1,2,.06L311.34,194c-0.39-.08-0.65-0.15-1-0.23s-0.61-.16-0.9-0.26c-0.59-.2-1.18-0.41-1.78-0.65a7.61,7.61,0,0,1-1.78-1,1.88,1.88,0,0,1-.51-0.61l0-.05h0l0-.08h0v0l0-.15c0-.1,0-0.18-0.06-0.26-0.06-.34-0.09-0.64-0.13-1a35.44,35.44,0,0,1-.2-3.7A26,26,0,0,1,305.11,182.26Z" class="cls-12" transform="translate(0 -60.95)"/><path d="M318.51,182.26s0.08,0.13.2,0.35a6.82,6.82,0,0,0,.51.82c0.1,0.16.25,0.3,0.37,0.47s0.29,0.3.46,0.44a5.55,5.55,0,0,0,.52.41,5.86,5.86,0,0,0,.59.36,7,7,0,0,0,.64.31c0.22,0.1.44,0.19,0.66,0.26,0.44,0.17.87,0.29,1.26,0.41s0.72,0.21,1,.27l0.38,0.13s-0.13.07-.37,0.17a4.62,4.62,0,0,1-1,.29,5.93,5.93,0,0,1-.71.06,5.1,5.1,0,0,1-.81,0,4.92,4.92,0,0,1-1.71-.55,4.44,4.44,0,0,1-.77-0.54,3.76,3.76,0,0,1-.62-0.68,3.83,3.83,0,0,1-.42-0.74,3.19,3.19,0,0,1-.21-0.72,2.9,2.9,0,0,1,0-1.09C318.47,182.4,318.51,182.26,318.51,182.26Z" class="cls-12" transform="translate(0 -60.95)"/><path d="M309.36,137.24s-1.74-8.46-1.57-8.47c-2.15.12-2.71,0.82-4.45,1.18-2.14.44-5,.85-6.72,1.94-2.62,1.64-5,6.51-6.75,10.08-0.59-1.75.15-7.94,0.12-9.53,0,1.86-8.88,3.18-9.58,2.75,0.08,4.33-.16,6.11.58,10.44a42.64,42.64,0,0,0,1.65,7.14,15.8,15.8,0,0,0,2,3.63,5.48,5.48,0,0,0,1.81.95c3.11,1.16,3.9-.65,6.19-2.79,1.46-1.37,2.5-4.24,4-5.5-0.17,7.76.47,16.66,0.4,24.47,0,3-.12,4.91-0.15,7.9,1.86-.07,15.4.85,16.41,1a31.23,31.23,0,0,0,6.3.29c1.47-.06,6.91-0.23,6.91-0.23a3.36,3.36,0,0,1-.76-1.91c-0.11-1.63-.25-4.62-0.36-6.25a101.42,101.42,0,0,1,.85-19.18c0.34-2.8,1.28-5.32,1.58-8.12a49,49,0,0,0,.12-8.44c-0.12-1.88.82-4.83-1.86-6.85a17.38,17.38,0,0,0-9.53-3C316.39,129,309.36,137.24,309.36,137.24Z" class="cls-2" transform="translate(0 -60.95)"/><path d="M298,154.28a53,53,0,0,0,1.19-7.42c0.14-1.2.09-2.74-1-3.23a32.49,32.49,0,0,0-2.89,3.82c-2.24,3.29-5.08,6.63-7.24,10.25,1.9,0.08,2.77-1.42,4.61-3.15,1.46-1.37,2.5-4.24,4-5.5-0.17,7.76.47,16.66,0.4,24.47,0,3-.12,4.91-0.15,7.9H297c0-.2.55-0.92,0.56-1.11,0.23-4.87,1.23-7.81,1.45-12.62,0.11-2.4-.9-5.61-0.38-7.94C299.09,157.72,297.49,156.28,298,154.28Z" class="cls-13" transform="translate(0 -60.95)"/><path d="M326.53,182.44s-0.16-.94-0.24-2.11c-0.11-1.63-.77-4.42-0.88-6a101.42,101.42,0,0,1,.85-19.18,30.94,30.94,0,0,1,.64-3.36h0a21.17,21.17,0,0,1-2.11-4.46,78.93,78.93,0,0,0-2.29,19.27,38.29,38.29,0,0,1-2.86,16.12C321.09,182.61,326.53,182.44,326.53,182.44Z" class="cls-14" transform="translate(0 -60.95)"/><path d="M317.57,129.06s0.42-2.61-.42-2.87-7.79,11-7.79,11Z" class="cls-2" transform="translate(0 -60.95)"/><polyline points="312.54 71.29 300.67 76.44 301.99 121.27 312.58 121.6 322.1 77.86 316.48 73.86" class="cls-15"/><path d="M319.44,109.7c-1-.6,0-1.43-0.93-2.71s-4.85-2.78-9.67-1.09-8.57,3.25-3.91,4.79c3.06,1,8-.16,8.53.3s-2,2.31-1,3.16,1.86,1,1.44,2.75,0.6,2.61,1.34,1.5,1.8-2.2,2.5-1.24-0.38,3-1.18,3.68a2.13,2.13,0,0,0-.44,2.71,14.67,14.67,0,0,0,4.12-7.94C321,110.69,320.39,110.29,319.44,109.7Z" class="cls-16" transform="translate(0 -60.95)"/><path d="M318.44,120.58a14.29,14.29,0,0,0,1.82-5c0.79-4.92.14-5.32-.82-5.92s0-1.43-.93-2.71-4.85-2.78-9.67-1.09l-1.38.5a2.21,2.21,0,0,0-.41.56,1.51,1.51,0,0,0,.55,2c2.38,1,4.75.67,6.65,1a0.74,0.74,0,0,0,.19.83c1.17,1.42,3.3,1.89,4.33,3.41a4.48,4.48,0,0,1,.56,3.2A23.59,23.59,0,0,1,318.44,120.58Z" class="cls-17" transform="translate(0 -60.95)"/><path d="M300,152l2.56,3.43a1.12,1.12,0,0,0,1.64.16h0a1.08,1.08,0,0,0,.14-1.45l-2.54-3.44c-0.39-.53-0.91-0.34-1.4.11h0C300,151.14,299.66,151.51,300,152Z" class="cls-18" transform="translate(0 -60.95)"/><path d="M302.47,155.27a1.7,1.7,0,0,0,.47-0.23l1-.7,0.37-.28-2.52-3.4a0.66,0.66,0,0,0-.8-0.28,0.35,0.35,0,0,0,0,.14l0.49,0.07a8.77,8.77,0,0,1,.87,1.54,1,1,0,0,1,.12.48,0.39,0.39,0,0,1-.29.36c-0.34.06-.62-0.47-0.93-0.32a3,3,0,0,1,.66,1,1.27,1.27,0,0,1-.24.61Z" class="cls-19" transform="translate(0 -60.95)"/><path d="M316.24,172.63l2.64,3.52a1.12,1.12,0,0,0,1.67.17h0a1.12,1.12,0,0,0,.12-1.49L318,171.29a1.12,1.12,0,0,0-1.67-.16l0,0A1.12,1.12,0,0,0,316.24,172.63Z" class="cls-19" transform="translate(0 -60.95)"/><path d="M301.59,156.77l11.5,14.74a1.51,1.51,0,0,0,2.2.21l2-1.85a1.49,1.49,0,0,0,.14-2.06l-11.58-14.2a1.51,1.51,0,0,0-2-.3l-2,1.34A1.46,1.46,0,0,0,301.59,156.77Z" class="cls-20" transform="translate(0 -60.95)"/><path d="M317.33,169.87a1.49,1.49,0,0,0,.14-2.06l-11.58-14.2a1.5,1.5,0,0,0-1.36-.52c-1.19,1,3.42,5.14,4.17,6,2.56,2.91,3.46,4.49,2.86,4.95s-4.13-2.91-3.78-1.35c0.24,1.09,2.13,4.36,4.19,7.41l1.12,1.43a1.51,1.51,0,0,0,2.2.21Z" class="cls-18" transform="translate(0 -60.95)"/><path d="M315.45,168.84c-0.32,0-.74-0.38-1,0a1.48,1.48,0,0,0,1.1,1.17,1.3,1.3,0,0,0,1.42-.66,1.23,1.23,0,0,0,.06-0.89,2.24,2.24,0,0,0-.25-0.5,11.19,11.19,0,0,0-2.08-2.49,2.06,2.06,0,0,0-.88-0.53,2.11,2.11,0,0,0,.71.94,5.53,5.53,0,0,1,1.57,2.34C316.25,168.65,315.82,168.8,315.45,168.84Z" class="cls-20" transform="translate(0 -60.95)"/><path d="M322.49,166.55c0.11,3.29,4.7,6.15,6.27,8.45l0.94-4.92-2.53-4.38-2.91.66Z" class="cls-6" transform="translate(0 -60.95)"/><path d="M323.1,166.7c-1.08.77-2.7,2.6-3.69,2.53s-2.65-1-3.52-.42-1.38.47-1.36,1.5-0.44,2.31-.06,3a12.8,12.8,0,0,0,2.84,3c0.77,0.46,1.68.49,1.94,0.07-0.49-.46-0.28-1.18.49-1a3.05,3.05,0,0,0,2.81-.33c0.92-.79.8-3,2.55-4s5.23-2.7,5.23-2.7l-3.62-3Z" class="cls-3" transform="translate(0 -60.95)"/><path d="M328.83,168.67a0.7,0.7,0,0,0-.31-0.23c-0.13,0-4.54-1.82-4.67-1.79-1.42.4,1.66,3.18,0.23,3.55a2.88,2.88,0,0,0-.93.33c-0.73.51-.67,1.71-1.4,2.23a1.74,1.74,0,0,1-.73.26,3.73,3.73,0,0,1-1.21,0c-0.85-.14-1.76-0.56-2.52-0.17-1.19.62-.83,2.17-0.35,3.23a3.26,3.26,0,0,0,.36.26c0.77,0.46,1.68.49,1.94,0.07-0.49-.46-0.28-1.18.49-1a3.05,3.05,0,0,0,2.81-.33c0.92-.79.8-3,2.55-4,1.07-.57,2.79-1.46,4-2.06A2.63,2.63,0,0,0,328.83,168.67Z" class="cls-21" transform="translate(0 -60.95)"/><path d="M326.1,131.69c3.3,2.08,6.25,10.45,8.86,16.14s5,8.85,4.59,12.27-8.61,13-10.78,14.91c0,0-.94-6.13-6.27-8.45,0,0,8.09-4.25,9.05-7.27,0,0-6.67-10.37-8.06-15.38S326.1,131.69,326.1,131.69Z" class="cls-2" transform="translate(0 -60.95)"/><path d="M335,147.83c-2.36-5.16-5-12.51-7.93-15.39a1.74,1.74,0,0,0-1.33,1.09,4,4,0,0,0-.05,2.18c1.35,7.42,7.17,13.51,9.38,20.88,0.24,0.8.43,1.6,0.68,2.4a2.9,2.9,0,0,1,.19.94,2.59,2.59,0,0,1-.6,1.34,24.66,24.66,0,0,1-4.11,4.89,8.51,8.51,0,0,1-5.93,2.19v0a12.8,12.8,0,0,1,3.52,6.62c2.17-1.95,10.36-11.47,10.78-14.91S337.57,153.56,335,147.83Z" class="cls-22" transform="translate(0 -60.95)"/><path d="M292.09,139.46a19.7,19.7,0,0,0,1.8-4.73,50.67,50.67,0,0,0-4,7.24c-0.59-1.75.15-7.94,0.12-9.53,0,1.11-3.14,2-5.84,2.49,0,0,0,.06,0,0.09-0.12.87,0.58,2.07,0.81,2.89,0.43,1.52.75,3.08,1.13,4.62a23.65,23.65,0,0,1,1,7.91Q289.47,144.87,292.09,139.46Z" class="cls-23" transform="translate(0 -60.95)"/><path d="M301.52,137.46a0.45,0.45,0,0,0,.5.47,0.65,0.65,0,0,0,.53-0.51,0.49,0.49,0,0,0-.13-0.5,0.48,0.48,0,0,0-.57,0,1.35,1.35,0,0,0-.35.49" class="cls-24" transform="translate(0 -60.95)"/><path d="M302.84,145.78a0.52,0.52,0,0,0-.47.31,0.53,0.53,0,1,0,1,.19,0.57,0.57,0,0,0-.64-0.52" class="cls-24" transform="translate(0 -60.95)"/><path d="M303.86,166.18a0.69,0.69,0,0,0-.7.75,0.87,0.87,0,0,0,.8.73,0.32,0.32,0,0,0,.17,0,0.37,0.37,0,0,0,.13-0.15,1.16,1.16,0,0,0,.22-0.84,0.45,0.45,0,0,0-.69-0.29" class="cls-24" transform="translate(0 -60.95)"/><path d="M303.3,179.75a0.63,0.63,0,0,0-.73.51,0.61,0.61,0,0,0,.58.67,0.56,0.56,0,0,0,.51-0.69,1.08,1.08,0,0,0-.41-0.49" class="cls-24" transform="translate(0 -60.95)"/><path d="M311.88,180.12a0.48,0.48,0,0,0-.78.12,0.82,0.82,0,0,0,.2.88,0.48,0.48,0,0,0,.5.18,0.55,0.55,0,0,0,.22-0.21,1.14,1.14,0,0,0,.22-0.44,0.46,0.46,0,0,0-.15-0.45" class="cls-24" transform="translate(0 -60.95)"/><path d="M315.29,156.83a0.81,0.81,0,0,0-.15.82,0.84,0.84,0,0,0,.67.52,0.57,0.57,0,0,0,.27,0,0.58,0.58,0,0,0,.28-0.25,0.85,0.85,0,0,0,0-.89,0.77,0.77,0,0,0-.83-0.32,0.65,0.65,0,0,0-.45.72" class="cls-24" transform="translate(0 -60.95)"/><path d="M317.79,147.1a0.5,0.5,0,0,0-.73.27,0.68,0.68,0,0,0,.49.84,0.66,0.66,0,0,0,.78-0.57,0.69,0.69,0,0,0-.69-0.7" class="cls-24" transform="translate(0 -60.95)"/><path d="M319.16,137.67a0.51,0.51,0,0,0-.41.74,0.74,0.74,0,0,0,.92.26,0.58,0.58,0,0,0,.27-0.21,0.52,0.52,0,0,0-.13-0.65,0.7,0.7,0,0,0-.69-0.09" class="cls-24" transform="translate(0 -60.95)"/><path d="M307.55,119.46c-0.18,1.13-.65,1.25-1.19,1.16s-0.95-.35-0.76-1.49,0.89-2.7,1.43-2.61S307.74,118.32,307.55,119.46Z" class="cls-25" transform="translate(0 -60.95)"/><path d="M311.37,116.23a0.65,0.65,0,0,1-.34.88,0.71,0.71,0,0,1-.91-0.35,0.65,0.65,0,0,1,.34-0.88A0.71,0.71,0,0,1,311.37,116.23Z" class="cls-26" transform="translate(0 -60.95)"/><path d="M305.74,115.88a0.62,0.62,0,0,1-.33.83,0.67,0.67,0,0,1-.86-0.33,0.62,0.62,0,0,1,.33-0.83A0.67,0.67,0,0,1,305.74,115.88Z" class="cls-26" transform="translate(0 -60.95)"/><path d="M310.78,114.53a1,1,0,0,1,.3,0,1.64,1.64,0,0,1,.58.29,1.62,1.62,0,0,1,.4.51,1,1,0,0,1,.09.29,2.63,2.63,0,0,1-.25-0.15c-0.14-.09-0.31-0.23-0.48-0.35s-0.32-.28-0.44-0.4A2.84,2.84,0,0,1,310.78,114.53Z" class="cls-26" transform="translate(0 -60.95)"/><path d="M305.54,114.26l-0.22.1-0.2.08-0.22.08-0.43.12-0.23.05a0.6,0.6,0,0,1,.11-0.23,1,1,0,0,1,.44-0.31,1,1,0,0,1,.54,0A0.59,0.59,0,0,1,305.54,114.26Z" class="cls-26" transform="translate(0 -60.95)"/><path d="M312.17,126.81c1.19-1.31,1.33-2.6-.18-1.22a6,6,0,0,1-4,1.19l-0.11,2.81C309.36,131.11,311,128.12,312.17,126.81Z" class="cls-27" transform="translate(0 -60.95)"/><polygon points="307.99 65.84 307.99 65.84 307.99 65.84 307.99 65.84" class="cls-28"/><path d="M310.4,166.21a1.47,1.47,0,0,0,.83.56,0.21,0.21,0,0,0,.26-0.21,0.31,0.31,0,0,0-.09-0.14c-0.36-.39-0.75-0.73-1.12-1.11,0.23-.11.61,0.31,0.66-0.12a1.23,1.23,0,0,0-.31-0.64,2.4,2.4,0,0,0-1.14-.85C308.15,163.34,310.1,165.88,310.4,166.21Z" class="cls-20" transform="translate(0 -60.95)"/><path d="M309.81,161.46c-0.74-.9-1.34-1.92-2-2.85a7.2,7.2,0,0,0-2.59-2.31,18.62,18.62,0,0,1,3.71,4.66,0.37,0.37,0,0,1,.07.3,0.83,0.83,0,0,0-.38,0,0.37,0.37,0,0,0,.29.27c0.72,0.31,1.15,1.17,1.91,1.33,0,0-.32-0.57-0.37-0.63C310.21,162,310,161.73,309.81,161.46Z" class="cls-18" transform="translate(0 -60.95)"/><path d="M304.13,156.79a1.86,1.86,0,0,0-1.11-.54c-0.19.34,0.92,1.15,1.14,1.36s0.57,0.55.88,0.81c0.56,0.47,1.18.87,1.74,1.34a0.61,0.61,0,0,1,.3.66,2.91,2.91,0,0,1-.66.42,0.83,0.83,0,0,0,.16,1c0.21,0.44.31,0.92,0.55,1.36a3,3,0,0,1-.05-1.69c0.21-.4.85-0.45,0.81-1a2.27,2.27,0,0,0-.94-1.2l-1.33-1.21-0.75-.66A3.84,3.84,0,0,1,304.13,156.79Z" class="cls-18" transform="translate(0 -60.95)"/><path d="M311.54,168.43a2.21,2.21,0,0,1-.43-1,0.93,0.93,0,0,1,.77.15c0.23,0.15.42,0.34,0.63,0.51a0.42,0.42,0,0,0,.23.1,0.3,0.3,0,0,0,.26-0.37,1,1,0,0,0-.25-0.44,8.71,8.71,0,0,1-1.15-1.81,0.85,0.85,0,0,1,.63.28,11.61,11.61,0,0,1,1.45,1.51,2,2,0,0,1,.38.65,0.73,0.73,0,0,1-.13.71,0.89,0.89,0,0,1-.82.16,4.53,4.53,0,0,0-.85-0.17c0.15,1.09,1.42,1.62,1.66,2.69-0.5.11-.81-0.71-1-1C312.42,169.72,312,169.08,311.54,168.43Z" class="cls-20" transform="translate(0 -60.95)"/><path d="M312.69,163.9a0.27,0.27,0,0,1,0,.17,0.3,0.3,0,0,1-.31.14c-0.12,0-.28.08-0.25,0.2a0.24,0.24,0,0,0,.05.09l1.58,2a15,15,0,0,0,1.31,1.52,3.17,3.17,0,0,0-.77-1.52,15.79,15.79,0,0,1-1.35-2.19,0.13,0.13,0,0,0,.13,0,17.47,17.47,0,0,0-.9-1.9c-0.16-.28-0.74-1.58-1.09-1.53a5.5,5.5,0,0,0,.69,1.14c0.16,0.3.31,0.61,0.46,0.91A3,3,0,0,1,312.69,163.9Z" class="cls-20" transform="translate(0 -60.95)"/><path d="M304.69,156.26a0.26,0.26,0,0,1-.38-0.08,1.93,1.93,0,0,0-.25-0.37,0.73,0.73,0,0,0-.47-0.11,2,2,0,0,0-.76.09,0.45,0.45,0,0,1-.39,0,0.34,0.34,0,0,1-.12-0.27,2.66,2.66,0,0,1,0-.49,0.09,0.09,0,0,1,0-.09,0.1,0.1,0,0,1,.07,0,0.84,0.84,0,0,0,.89,0c0.33-.22,0-0.54.17-0.77s0.28,0,.36.13a10,10,0,0,1,.36.93Q304.44,155.78,304.69,156.26Z" class="cls-18" transform="translate(0 -60.95)"/><path d="M305.12,160.35a4.78,4.78,0,0,1,.65.51,0.32,0.32,0,0,0,0-.28,0.85,0.85,0,0,0-.18-0.23c-0.27-.28-1.52-1.69-1.79-2a9.5,9.5,0,0,1,1.94,1.85,1.4,1.4,0,0,0,.43.44c-1-1.55-2-2.56-3.09-3.91a2.75,2.75,0,0,0-.85-0.49c-0.06,0-.13-0.07-0.14,0a0.6,0.6,0,0,0,0,.2,4.12,4.12,0,0,0,.63,1.09A25.22,25.22,0,0,0,305.12,160.35Z" class="cls-18" transform="translate(0 -60.95)"/><path d="M310.75,105.38s8.62,2.45,9.45,10.25c0,0,0,3.35,4.15,2.12s4.64-4.31,4.64-4.31a8.75,8.75,0,0,0,2.56-8.92c-1.43-5.74-4.71-5.14-4.71-5.14s-2.4-5.43-9-2.84a6.8,6.8,0,0,0-7.36,3.22c-2.75,4.3.68,5,.68,5Z" class="cls-2" transform="translate(0 -60.95)"/><path d="M317.82,96.53a6.8,6.8,0,0,0-7.36,3.22c-2.75,4.3.68,5,.68,5L312,103.5a3,3,0,0,1,.3-4.71A9.18,9.18,0,0,1,317.82,96.53Z" class="cls-29" transform="translate(0 -60.95)"/><path d="M331.55,104.51c-1-4.06-2.94-4.95-4-5.12a4.79,4.79,0,0,1,2.4,2.55,9.65,9.65,0,0,1,.36,4.44,5.73,5.73,0,0,1-2.3,3.37,3.82,3.82,0,0,1-4.13.12c-1.1-.83-1.27-1.65-1.39-3.43a7,7,0,0,0-1.51,3.25,10.39,10.39,0,0,0,.47,5.34l-1.25.6a2.86,2.86,0,0,0,.36,1.3c0.45,0.78,1.48,1.5,3.79.82,4.18-1.23,4.64-4.31,4.64-4.31A8.75,8.75,0,0,0,331.55,104.51Z" class="cls-30" transform="translate(0 -60.95)"/><path d="M323.68,98.83a5.83,5.83,0,0,0-1.06,1.16c-0.57.81-.05,2.26-0.13,3.25a4.59,4.59,0,0,1,4.26-4.05c-0.49-.91-3-4.94-8.87-2.68l-0.07.08a8.24,8.24,0,0,1,4.67,0,5.82,5.82,0,0,1,1.55.63,1.18,1.18,0,0,1,.82.7C324.85,98.27,324,98.61,323.68,98.83Z" class="cls-31" transform="translate(0 -60.95)"/><path d="M340.65,269c0.15-1.25.65-2-.25-1.64a7.33,7.33,0,0,1-3.88.15c-1.78-.29-2.71-1.88-4.49-2.4s-2.05,1-1.28,1.67a47.52,47.52,0,0,1-5,2.1c-2.21.72-3.39,2.2-3.39,2.58a0.56,0.56,0,0,0,.48.47H341C341.5,271.94,340.54,269.92,340.65,269Z" class="cls-32" transform="translate(0 -60.95)"/><path d="M301.48,269c0.18-1.25.69-2-.21-1.64a7.35,7.35,0,0,1-3.88.15c-1.77-.29-2.67-1.88-4.44-2.4s-2.07,1-1.32,1.67a48.66,48.66,0,0,1-5.06,2.1c-2.22.72-3.44,2.2-3.44,2.58a0.55,0.55,0,0,0,.47.47h18.19C302.27,271.94,301.35,269.92,301.48,269Z" class="cls-32" transform="translate(0 -60.95)"/><path d="M323.83,131.67a3,3,0,0,0,1.29-.6,17.66,17.66,0,0,0-7.46-2.24c0.09-.68.26-2.39-0.41-2.59-0.43-.13-2.54,2.82-4.49,5.71a2.4,2.4,0,0,0,.47-0.29c0.92-.71,1.68-1.6,3-1.46a7,7,0,0,1,2.25.92A7.91,7.91,0,0,0,323.83,131.67Z" class="cls-33" transform="translate(0 -60.95)"/><path d="M235.84,104.35a48.52,48.52,0,0,0-10.64-6.83c-1.49-.69-3.65-1.17-3.77-0.52a4.35,4.35,0,0,0,1.22,1.65,10.91,10.91,0,0,0,3.23,2.38c3.17,1.71,5.74,4.36,9,5.88l3.59,1.67a8.43,8.43,0,0,0,2.6.88h0.13a2.32,2.32,0,0,0-1-1.86C239,106.52,237.08,105.34,235.84,104.35Z" class="cls-34" transform="translate(0 -60.95)"/><path d="M228.19,125.86c1-1.6,1.7-2.13,1.7-.63a11.2,11.2,0,0,0,1.21,3.84l-1.11,2" class="cls-35" transform="translate(0 -60.95)"/><path d="M230.41,129.81s-1.85-4.93-1-6.9c0,0,4.55-.56,5.13-3s-0.5-11.75-.29-14.58-0.69-6.11-6.25-6S218,101,218.16,108s-0.93,10.89.35,11.23l0,6.72,4.3,7.13,7.69,3.67,1.9-5.29Z" class="cls-36" transform="translate(0 -60.95)"/><path d="M234.23,106.77c0-.57,0-1.06,0-1.44,0.22-2.83-.69-6.11-6.25-6a14.85,14.85,0,0,0-5.74,1,3.82,3.82,0,0,0,.18,2.88l2.4,2a10.31,10.31,0,0,1,2.59-2.27,3.49,3.49,0,0,1,3.31-.15c1.48,0.84,1.84,2.94,3.28,3.84Z" class="cls-37" transform="translate(0 -60.95)"/><path d="M229.41,122.91a12.45,12.45,0,0,1-6.14-1.25s-0.77,4.48,1.85,7.11,5,7.29,7.24,2.68l-1.95-1.64S228.56,124.88,229.41,122.91Z" class="cls-38" transform="translate(0 -60.95)"/><path d="M218.36,119.35c2.1-.69,3.51-3.33,2.85-4.55s-1.84-1.13-1.72-2.92,1.39-2.54,1.88-1.13,2.66,2.82,2.56.94-0.76-3.2.7-3.39-0.29-1.41,1.34-3.2-0.7-5.58,3.92-5.68c-6.72-1.48-10.81.91-12,5.53s-0.61,12.3-.5,13.28A1.21,1.21,0,0,0,218.36,119.35Z" class="cls-39" transform="translate(0 -60.95)"/><path d="M229.89,99.43c-4.23-.93-7.43-0.32-9.5,1.41,0.88,0.76,3.08,0,4.1.12,0.65,0.08,1.27.32,1.91,0.42,0.15,0,.3,0,0.45,0C227.09,100.34,227.73,99.48,229.89,99.43Z" class="cls-40" transform="translate(0 -60.95)"/><path d="M240.7,104.22a3.43,3.43,0,0,1,3,3.2c0.16,1.71-1.48,2.77-2.7.92S238.06,103.66,240.7,104.22Z" class="cls-41" transform="translate(0 -60.95)"/><path d="M241.57,102.88a4.87,4.87,0,0,0-.88-1.26,16.76,16.76,0,0,1-2.23-2.36,11.1,11.1,0,0,0-2-2.59,39.09,39.09,0,0,0-5.51-4.7,7.44,7.44,0,0,0-2.3-1.1c-1.71-.41-4.17,1.2-5.33,2.34A5,5,0,0,0,221.42,97c0.12-.64,2.12,0,3.61.72a48.73,48.73,0,0,1,10.64,6.83,30.72,30.72,0,0,1,4.37,3.25c0.54,0.49,1.28,1,1.15,1.66h-0.13a0.75,0.75,0,0,0,.4,0,0.81,0.81,0,0,0,.19-1,12.08,12.08,0,0,0-1.77-3.24c0.41-.34.92-0.09,1.35-0.37A1.55,1.55,0,0,0,241.57,102.88Z" class="cls-42" transform="translate(0 -60.95)"/><path d="M238.73,109.34l1.33,0.26a1.68,1.68,0,0,1,1.43,1.18c0.53,1,.65,1.9,1.63,2.56s2.68,0.46,3.73.19a12.75,12.75,0,0,1,1.42,4.09,19.44,19.44,0,0,1,5-.92c-3.63-6.39-6.95-10.1-7.94-10.36a6.4,6.4,0,0,0-3,.17,4.06,4.06,0,0,0-1.61,1.55c-0.62-.26-4.14-0.68-2.74,1A1.16,1.16,0,0,0,238.73,109.34Z" class="cls-36" transform="translate(0 -60.95)"/><path d="M262.5,139c-0.7-6.32-3.57-10.9-6.28-16.65A77.68,77.68,0,0,0,251,113a10.47,10.47,0,0,0-3.56,1.82,30,30,0,0,1,1.5,7.76c0.2,3,0,1.95.24,4.92,0.42,4.39,1.56,7.57,1.6,9.05-0.06-.13-16.43-8.21-19.7-8.63l0.21,2.54c-0.35,3.31-.13,6.65,1.81,9.36s1.76,4.61,5,5.36c0.94,0.61,4.14,1.27,4.89,1.56a27.05,27.05,0,0,0,7.37,1.66c3.39,0.27,8.38.92,10.5-1.73C262.56,144.53,262.79,141.64,262.5,139Z" class="cls-43" transform="translate(0 -60.95)"/><path d="M262.5,139c-0.7-6.32-3.57-10.9-6.28-16.65a80.51,80.51,0,0,0-4-7.5c3.42,8.87,6.63,18,6.59,27.46a2.41,2.41,0,0,1-.39,1.58c-1,1.13-6.95-1.06-8.27-1.45a53.25,53.25,0,0,1-8.44-3.28c-0.88-.43-1.75-0.89-2.59-1.4a24.54,24.54,0,0,1-3.85-2.88l-1.46,4.95q0.42,1.33.91,2.65a4.54,4.54,0,0,0,3.41,2.65c0.94,0.61,4.14,1.27,4.89,1.56a27.05,27.05,0,0,0,7.37,1.66c3.39,0.27,8.38.92,10.5-1.73C262.56,144.53,262.79,141.64,262.5,139Z" class="cls-44" transform="translate(0 -60.95)"/><path d="M237.81,136.83c5.7,14.48,7.22,23.55,6,39,0.26-.38-0.32-0.77-0.77-0.87a56.31,56.31,0,0,0-10.9-1.32c-2.5-.06-5,0.05-7.51-0.19-3.59-.35-7.94,0-11.39-1a21.49,21.49,0,0,1,.57-6.1c1.71-5.05,2.26-4.27,1.45-9.54a69,69,0,0,0-4.55-15.3c-0.65-1.62-2.16-3.93-3.82-4.48a35.35,35.35,0,0,1,5.88-5.57,34.36,34.36,0,0,1,5.33-4c0.71-.37-0.61-2.7.16-2.94,2,2.94,9.72,9.08,11.37,9,1.67-2.47.3-6.75,0.3-6.75A32.08,32.08,0,0,1,237.81,136.83Z" class="cls-45" transform="translate(0 -60.95)"/><path d="M238.26,138a1.38,1.38,0,0,0-.39-1c-0.36-.31-0.88-0.45-1.24-0.82a3.54,3.54,0,0,0-3-1.3,4,4,0,0,0-1.61.81c-2.07,1.5-4.05,3.4-4.7,5.88s0.11,4.92.47,7.37a18.4,18.4,0,0,1-.38,7.7,12.36,12.36,0,0,1-4.17,6.39c-1.66,1.28-3.67,2.05-5.26,3.42s-2.68,3.71-1.7,5.55a3.67,3.67,0,0,0,.92,1.1c2.47,0.19,5.06.11,7.35,0.33,2.49,0.24,5,.13,7.51.19a56.3,56.3,0,0,1,9,.94,13.64,13.64,0,0,0,2.61-1.17l0.28-.18C244.82,159.72,243.27,151,238.26,138Z" class="cls-46" transform="translate(0 -60.95)"/><path d="M230.38,136.15l2.14,5.42,2.14,5.57a13.09,13.09,0,0,1,.54,1.6,3.17,3.17,0,0,1-.1,1.78,9.32,9.32,0,0,0-.64,3.33,8.93,8.93,0,0,0,.61,3.32,8.74,8.74,0,0,0,.76,1.49,3.87,3.87,0,0,1,.66,1.6c0.09,1.23-.64,2.14-0.89,3.06a6.79,6.79,0,0,0-.06,2.74,14.4,14.4,0,0,1,.19,2.39,9.29,9.29,0,0,1-.23,1.83,8.07,8.07,0,0,1-.49,1.53,8.06,8.06,0,0,0,.42-1.54,9.18,9.18,0,0,0,.14-1.82,17.45,17.45,0,0,0-.28-2.35,7.05,7.05,0,0,1,0-2.86c0.25-1,.92-1.92.82-2.94a3.54,3.54,0,0,0-.62-1.43,9.15,9.15,0,0,1-.8-1.54,9.32,9.32,0,0,1-.67-3.47,9.74,9.74,0,0,1,.69-3.45c0.43-1.05,0-2.1-.41-3.13l-2-5.62Z" class="cls-47" transform="translate(0 -60.95)"/><path d="M219.08,128.68c1.73,2.88,3.34,3.9,4.93,6.86a0.51,0.51,0,0,0,.21.25,0.53,0.53,0,0,0,.57-0.37c0.57-1,1.18-.13,1.74-1.14" class="cls-48" transform="translate(0 -60.95)"/><path d="M212.83,172.18c0.3,1.1-3.18,11.81-3.38,20.61s2,22.26-.6,32.69A230.32,230.32,0,0,0,203,263.41h9.15a101.64,101.64,0,0,1,6.3-26.84c5.58-14.39,8.55-39,8.55-39-0.47,5.28,1.8,22-.6,35.08a192.08,192.08,0,0,0-3,30.74h7.92c3.21-3.82,13.31-76.56,12.71-89.85Z" class="cls-49" transform="translate(0 -60.95)"/><path d="M235.89,242.8a189.17,189.17,0,0,1-1.3-24.63c0.34-10.19,4.55-19.89,5.48-30,0.22-2.39-.28-5.52-2.63-6-1.63-.32-3.18,1-3.86,2.51a24.51,24.51,0,0,0-1.08,4.84,13.62,13.62,0,0,1-5.05,7.9L227,202.86c0.31,7.51,1.23,19.76-.62,29.81a192.08,192.08,0,0,0-3,30.74h7.92C232.33,262.19,234,253.76,235.89,242.8Z" class="cls-50" transform="translate(0 -60.95)"/><path d="M222.72,172.41a0.42,0.42,0,0,0-.56.38,0.89,0.89,0,0,0,.36.68,3.83,3.83,0,0,0,1.89.74,3.26,3.26,0,0,0,1.26,0,1.24,1.24,0,0,0,.94-0.76,0.85,0.85,0,0,0-.16-0.82,0.72,0.72,0,0,0-.79-0.19" class="cls-51" transform="translate(0 -60.95)"/><path d="M225.85,173.07c0.52-4.71,0-11-1.12-20-1.87-15.53-6-22.42-7.76-25.35-0.52.34-1.1,1-1.62,1.39,4.4,7.41,6.18,15.7,6.83,24.41s1.26,10.54.59,19.29C224.27,172.87,224.35,173,225.85,173.07Z" class="cls-52" transform="translate(0 -60.95)"/><path d="M240.62,173.22a1,1,0,0,0,.65,1.09,5.34,5.34,0,0,0,1.38.21,1.68,1.68,0,0,0,.81,0,0.72,0.72,0,0,0,.2-1.16,1.33,1.33,0,0,0-.75-0.24,17.64,17.64,0,0,0-2.24-.07" class="cls-51" transform="translate(0 -60.95)"/><path d="M243.48,173.76c0.1-4.9-1.49-11.78-2.93-21.07-2.12-13.67-5.1-20.91-6.93-24.66l-2.07-.29c4,7.71,5.93,16.34,7,25.42s3,11.55,2.44,20.52C242.19,173.7,242.29,173.73,243.48,173.76Z" class="cls-52" transform="translate(0 -60.95)"/><path d="M226.64,138.5a1.32,1.32,0,0,1,1-1.07,1.19,1.19,0,0,1,.78.51,7.37,7.37,0,0,1,1.61,3.36,1,1,0,0,1,0,.51,1,1,0,0,1-.31.38c-0.82.71-5.09,3.39-4.79,1.77A39.85,39.85,0,0,1,226.64,138.5Z" class="cls-41" transform="translate(0 -60.95)"/><rect width="6.69" height="12.89" x="226.3" y="131.66" class="cls-53" rx="1.14" ry="1.14" transform="translate(-34.4 31.46) rotate(-21.2)"/><path d="M227.86,133.08q0.57-.41,1.17-0.77a1.79,1.79,0,0,1,1.53-.37,4.91,4.91,0,0,1,.44.38l-0.24-.61a0.89,0.89,0,0,0-1.15-.51L225,133a0.89,0.89,0,0,0-.51,1.15l4,10.35a2.82,2.82,0,0,0,1.06-.64,2.3,2.3,0,0,0,.68-1.18,0.41,0.41,0,0,0,0-.31,0.51,0.51,0,0,0-.23-0.15,2.81,2.81,0,0,1-1.42-1.69,5.76,5.76,0,0,1-.21-2.24,1.88,1.88,0,0,0,0-.58,2.1,2.1,0,0,0-.63-0.87,3.44,3.44,0,0,1-.86-1.4,2,2,0,0,1,.19-1.6A3,3,0,0,1,227.86,133.08Z" class="cls-54" transform="translate(0 -60.95)"/><path d="M233,138.45a12.52,12.52,0,0,0-6.11,3.12,67.21,67.21,0,0,0-5.63,7.9,6.35,6.35,0,0,1,.8.85,42.81,42.81,0,0,0,3.36,3.93c2-7,1.06-6.55,5.69-7.08,2.35-.27,4.5.54,4.48-5.25C235.58,140,235.23,137.92,233,138.45Z" class="cls-36" transform="translate(0 -60.95)"/><path d="M235.59,141.92c0-1.7-.31-3.59-2-3.53,0,0,0,.09,0,0.13a2.13,2.13,0,0,1-1,1.6,9.24,9.24,0,0,1-1.75.84,13.3,13.3,0,0,0-5.14,3.92c-0.68.85-1.17,1.81-1.76,2.72a3.14,3.14,0,0,0-.05,3,13.82,13.82,0,0,0,1.42,2.56,4.42,4.42,0,0,0,.32.44c1.77-6.26,1-5.91,5.5-6.43C233.45,146.9,235.6,147.71,235.59,141.92Z" class="cls-55" transform="translate(0 -60.95)"/><path d="M230.36,113.65c0,1.54.63,1.79,1.37,1.77s1.32-.29,1.29-1.83-0.68-3.75-1.41-3.73S230.32,112.11,230.36,113.65Z" class="cls-41" transform="translate(0 -60.95)"/><path d="M227.6,108.91a0.66,0.66,0,0,0,.22.93,0.72,0.72,0,0,0,1-.22,0.66,0.66,0,0,0-.22-0.93A0.72,0.72,0,0,0,227.6,108.91Z" class="cls-56" transform="translate(0 -60.95)"/><path d="M233.31,109.35a0.63,0.63,0,0,0,.21.88,0.68,0.68,0,0,0,.92-0.21,0.63,0.63,0,0,0-.21-0.88A0.68,0.68,0,0,0,233.31,109.35Z" class="cls-56" transform="translate(0 -60.95)"/><path d="M228.43,107.29a2.88,2.88,0,0,1-.23.19c-0.07,0-.15.12-0.23,0.17l-0.27.17c-0.19.1-.37,0.22-0.53,0.29a2.67,2.67,0,0,1-.28.12,1,1,0,0,1,.13-0.28,1.65,1.65,0,0,1,.47-0.46,1.66,1.66,0,0,1,.63-0.21A1,1,0,0,1,228.43,107.29Z" class="cls-56" transform="translate(0 -60.95)"/><path d="M233.74,107.75a0.6,0.6,0,0,1,.24-0.09,1,1,0,0,1,.54.08,1,1,0,0,1,.4.38,0.61,0.61,0,0,1,.08.25l-0.23-.09-0.42-.18-0.21-.11c-0.07,0-.13-0.08-0.19-0.1Z" class="cls-56" transform="translate(0 -60.95)"/><path d="M228.43,116.19l0.21,0.18,0.52,0.48a4,4,0,0,0,1.63,1,1.76,1.76,0,0,0,.92,0,1.81,1.81,0,0,0,.4-0.17,2.62,2.62,0,0,0,.34-0.25,3.3,3.3,0,0,0,.46-0.5l0.16-.22a2.05,2.05,0,0,1-.31,1,1.85,1.85,0,0,1-.33.41,1.74,1.74,0,0,1-.51.34,2,2,0,0,1-1.33.07,2.68,2.68,0,0,1-1.11-.63,3.53,3.53,0,0,1-.65-0.83A5.26,5.26,0,0,1,228.43,116.19Z" class="cls-56" transform="translate(0 -60.95)"/><path d="M238,109a1.16,1.16,0,0,0,.69.31l1.33,0.26a1.68,1.68,0,0,1,1.43,1.18c0.44,0.8.69,2.15,1.69,2.46a1.83,1.83,0,0,0,1.17-.08,1.47,1.47,0,0,0,1-1.06,1.67,1.67,0,0,0-.11-0.77,3.76,3.76,0,0,1-.42-2.39c0-.22.06-0.53-0.16-0.57a0.43,0.43,0,0,0-.37.23,7.84,7.84,0,0,1-1.27,1.29,1.42,1.42,0,0,1-.67.35c-0.67.09-2.21-1.54-1.6-2.17C240,107.76,236.75,107.5,238,109Z" class="cls-57" transform="translate(0 -60.95)"/><path d="M224.44,157.44c1.3-4,1.8-6.32,2.24-7.73a14.18,14.18,0,0,0-2.93-4c-2.75,4-6.05,9.36-6.05,9.36a96.07,96.07,0,0,0-2.8-10.78,11.21,11.21,0,0,0-8-7.31c-3.45,4.44-4.1,12.53-1.23,24.67s6.58,14.38,11.1,9.53S222.31,164,224.44,157.44Z" class="cls-45" transform="translate(0 -60.95)"/><path d="M212.58,163.63c-0.81-.29-0.9-1.37-0.85-2.23,0.4-7.42.21-15.23-3.39-21.74-0.26-.48-0.48-1.19,0-1.46a1,1,0,0,1,.73,0,8.11,8.11,0,0,1,4.35,3.72,24.11,24.11,0,0,1,2.15,5.43c0.7,2.3,2.62,5.8,1.74,8.14C217,156.22,212.73,163.68,212.58,163.63Z" class="cls-58" transform="translate(0 -60.95)"/><path d="M216.72,171.19c4.53-4.87,5.58-7.22,7.71-13.75,1.3-4,1.8-6.32,2.24-7.73a14.69,14.69,0,0,0-1.31-2.15c-1.39,3.08-2.43,6.31-4,9.31-1.67,3.23-3.93,6.15-5.24,9.54-0.45,1.16-.86,2.47-1.91,3.13-2.81,1.4-5.26-1.16-6.9-3.14l-0.62-.76C209.41,174.23,212.75,175.45,216.72,171.19Z" class="cls-59" transform="translate(0 -60.95)"/><path d="M219.83,141.95c0.12-.06.22,0.1,0.25,0.23l0.39,1.51a6,6,0,0,1,2.8-1.5L223,140.81a0.26,0.26,0,0,0-.06-0.14,0.27,0.27,0,0,0-.27,0l-2.63,1" class="cls-51" transform="translate(0 -60.95)"/><path d="M235.8,140.06l0.3,1a7.07,7.07,0,0,1,2.13.33l0.11-1.47h-2.45" class="cls-51" transform="translate(0 -60.95)"/><path d="M227,197.58s0-.12,0-0.33a2,2,0,0,1,.12-0.38,2.24,2.24,0,0,1,.25-0.47,4,4,0,0,1,.91-0.93,7,7,0,0,1,1.25-.75,12.33,12.33,0,0,1,3.75-1s-0.42.26-1.07,0.59-1.53.69-2.37,1.09a9.2,9.2,0,0,0-2.16,1.29c-0.11.12-.25,0.22-0.33,0.33a1.79,1.79,0,0,0-.22.29C227.06,197.48,227,197.58,227,197.58Z" class="cls-60" transform="translate(0 -60.95)"/><path d="M235.28,173.94l0.08,0.9c0,0.28,0,.63,0,1s0,0.85,0,1.34c-0.07,1-.18,2.13-0.37,3.34s-0.44,2.5-.71,3.78-0.6,2.55-.92,3.73-0.66,2.28-.93,3.21-0.55,1.71-.72,2.26l-0.28.85s0.19-1.3.6-3.21l0.7-3.27,0.83-3.73c0.29-1.27.55-2.54,0.8-3.73s0.46-2.31.6-3.27c0.06-.48.15-0.92,0.18-1.31s0.09-.73.1-1Z" class="cls-60" transform="translate(0 -60.95)"/><path d="M214.45,175l-0.32.94c-0.19.62-.46,1.53-0.71,2.71a60.4,60.4,0,0,0-1.08,9.91c-0.08,2.06-.06,4.3,0,6.67s0.15,4.86.3,7.44,0.37,5.24.49,8-0.09,5.49-.29,8.27-0.54,5.51-.93,8.2-0.83,5.34-1.29,7.89c-0.94,5.1-1.94,9.83-2.84,13.87l-2.18,9.77c-0.26,1.18-.45,2.11-0.57,2.75l-0.19,1,0.17-1c0.11-.64.27-1.57,0.5-2.76l1.95-9.82c0.82-4.06,1.78-8.79,2.64-13.89,0.43-2.55.84-5.19,1.2-7.88s0.66-5.43.89-8.17a80.22,80.22,0,0,0,.25-8.19c-0.16-2.7-.36-5.38-0.48-8a125.58,125.58,0,0,1-.07-14.17,51.17,51.17,0,0,1,1.41-9.92c0.3-1.17.61-2.08,0.83-2.68Z" class="cls-61" transform="translate(0 -60.95)"/><path d="M230.33,197.06l-0.07.74c-0.05.48-.12,1.19-0.17,2.09s-0.09,2-.08,3.25,0,2.67.1,4.21c0.12,3.09.46,6.68,0.59,10.56,0.07,1.94.09,3.95,0,6s-0.32,4.09-.6,6.16c-0.63,4.09-1.52,8.13-2.3,11.92-0.38,1.89-.78,3.72-1.09,5.46s-0.6,3.39-.78,4.92c-0.11.76-.18,1.5-0.25,2.2s-0.15,1.36-.17,2c-0.1,1.25-.1,2.34-0.1,3.25s0.07,1.61.08,2.09l0,0.74-0.07-.74c0-.48-0.15-1.19-0.17-2.09s-0.08-2,0-3.26c0-.63,0-1.3.09-2s0.1-1.45.19-2.22c0.15-1.54.38-3.21,0.67-5s0.61-3.6,1-5.5c0.75-3.8,1.6-7.83,2.2-11.9,0.28-2,.55-4.09.64-6.09s0.1-4,0-5.93c-0.12-3.86-.31-7.46-0.37-10.56,0-1.55,0-3,0-4.23s0.13-2.35.23-3.25,0.18-1.6.26-2.08Z" class="cls-61" transform="translate(0 -60.95)"/><path d="M233.17,175a0.22,0.22,0,0,1,.13,0,0.13,0.13,0,0,1,.07.09,2.8,2.8,0,0,1,0,2.09,0.68,0.68,0,0,1-.69.51,0.6,0.6,0,0,1-.32-0.2,1.22,1.22,0,0,1-.18-1.41A1.79,1.79,0,0,1,233.17,175Z" class="cls-62" transform="translate(0 -60.95)"/><path d="M219.8,176a2.84,2.84,0,0,1-.15,1.18,3.44,3.44,0,0,1-.6,1.1,3.67,3.67,0,0,1-.5.51,4.9,4.9,0,0,1-.61.42,5.92,5.92,0,0,1-2.52.68,8.4,8.4,0,0,1-1.17,0l0.3-.12,0.79-.27a12.54,12.54,0,0,0,2.24-.9,4.23,4.23,0,0,0,.52-0.33,5.11,5.11,0,0,0,.47-0.39,5.06,5.06,0,0,0,.7-0.85,5,5,0,0,0,.4-0.71Z" class="cls-61" transform="translate(0 -60.95)"/><path d="M228,133.77a1.15,1.15,0,0,0,.42,2.24,0.06,0.06,0,0,0,.06-0.08l-0.07-.18a0.29,0.29,0,0,1-.42,0,0.31,0.31,0,0,0-.18-0.12c-0.12,0,0-.07,0-0.07a0.24,0.24,0,0,1,.21.05,0.25,0.25,0,0,0,.35,0,0.25,0.25,0,0,1,0-.17,0.51,0.51,0,0,1-.69-0.36,0.45,0.45,0,0,1,0-.33,0.41,0.41,0,0,1-.09-0.29,0.43,0.43,0,0,1,.34,0,1.09,1.09,0,0,1,.54-0.2,0.43,0.43,0,0,1,.26-0.22,0.41,0.41,0,0,1,.11.28,0.45,0.45,0,0,1,.22.25,0.51,0.51,0,0,1-.3.71,0.28,0.28,0,0,1,.15.17l0.11,0.3a0.06,0.06,0,0,0,.09,0A1.15,1.15,0,0,0,228,133.77Z" class="cls-63" transform="translate(0 -60.95)"/><path d="M223.4,263.41l-0.61,7.47a1,1,0,0,0,1,1.06h12.65a0.58,0.58,0,0,0,.48-0.91c-0.81-1.2-2.48-3.13-4.68-3l-0.91-4.63H223.4Z" class="cls-64" transform="translate(0 -60.95)"/><path d="M202.95,263.41l-0.61,7.47a1,1,0,0,0,1,1.06h13.93a0.58,0.58,0,0,0,.48-0.91c-0.81-1.2-2.48-3.13-4.68-3l-0.91-4.63h-9.2Z" class="cls-64" transform="translate(0 -60.95)"/><path d="M233.81,148.57a0.61,0.61,0,0,0-.63-0.51,1.29,1.29,0,0,0,.83,1.25,0.89,0.89,0,0,0-.15-0.81" class="cls-65" transform="translate(0 -60.95)"/><path d="M234.92,160.15a1.62,1.62,0,0,0-.66-0.62,1,1,0,0,0,1.11,1.23,1.15,1.15,0,0,0-.79-1.08" class="cls-65" transform="translate(0 -60.95)"/><path d="M233,154.33a1.1,1.1,0,0,0,0,1.07,0.21,0.21,0,0,0,.1.1,0.22,0.22,0,0,0,.23-0.19,1.49,1.49,0,0,0-.13-1.23l-0.16.27" class="cls-65" transform="translate(0 -60.95)"/><path d="M234.26,167.22a1.27,1.27,0,0,0,.52,1.59,1.49,1.49,0,0,0-.36-1.59" class="cls-65" transform="translate(0 -60.95)"/><path d="M232.11,96.17l-1.66-.81a2.46,2.46,0,0,0-1.31-.36,0.85,0.85,0,0,0-.8.92,1.24,1.24,0,0,0,.53.63c2.09,1.58,4.18,3.16,6.36,4.61a18,18,0,0,1,2.07,1.51c0.9,0.8,1.63,2.14,2.72,2.7l-0.14-.21c0.41-.34.92-0.09,1.35-0.37a1.55,1.55,0,0,0,.34-1.93,4.87,4.87,0,0,0-.88-1.26,16.75,16.75,0,0,1-2.23-2.36,11.43,11.43,0,0,0-1-1.47,18.26,18.26,0,0,1-3.77-.91C233.15,96.67,232.63,96.42,232.11,96.17Z" class="cls-66" transform="translate(0 -60.95)"/><path d="M217.06,262s0.77-.14,1.55-0.26a5.18,5.18,0,0,1,1.07-.11,2,2,0,0,1,.37,0,0.22,0.22,0,0,1,.13.08l0,0a0.17,0.17,0,0,0-.12,0l-0.34.09a5.18,5.18,0,0,1-1.07.12c-0.78,0-1.57.07-1.57,0.07v0Z" class="cls-67" transform="translate(0 -60.95)"/><path d="M217.42,264.95a0.13,0.13,0,0,1,0-.12,1.13,1.13,0,0,1,.26-0.15l0.81-.39a3.58,3.58,0,0,1,.83-0.33,2.24,2.24,0,0,1,.41-0.06v0a2.23,2.23,0,0,1-.34.24,3.58,3.58,0,0,1-.83.33l-0.86.27a1.12,1.12,0,0,0-.27.1,0.09,0.09,0,0,0,0,.08h0Z" class="cls-67" transform="translate(0 -60.95)"/><path d="M221.17,265a4,4,0,0,0-.81,1.21c-0.13.34-.22,0.68-0.3,0.94l-0.14.44h0a1.57,1.57,0,0,1,0-.48,2.18,2.18,0,0,1,.32-1,3.56,3.56,0,0,1,1-1.14Z" class="cls-67" transform="translate(0 -60.95)"/><path d="M198.57,262.37a9.63,9.63,0,0,0,1.55-.1c0.38-.07.75-0.15,1-0.18s0.49,0,.49,0v0a2.23,2.23,0,0,1-.45.22,3.22,3.22,0,0,1-1.07.18,7.22,7.22,0,0,1-1.57-.09v0Z" class="cls-67" transform="translate(0 -60.95)"/><path d="M199,265.27a5.69,5.69,0,0,0,1.32-.47c0.31-.17.59-0.35,0.83-0.47s0.41-.19.41-0.19l0,0a1.69,1.69,0,0,1-.3.35,2.39,2.39,0,0,1-.87.49,4.63,4.63,0,0,1-1.41.29v0Z" class="cls-67" transform="translate(0 -60.95)"/><path d="M200.69,267.4a0.6,0.6,0,0,1,.11-0.47,6.75,6.75,0,0,1,.68-0.8,3.58,3.58,0,0,1,.79-0.68,2.34,2.34,0,0,1,.43-0.21l0,0a3.9,3.9,0,0,1-.31.36,7.33,7.33,0,0,1-.78.67,9.43,9.43,0,0,0-.76.69,0.55,0.55,0,0,0-.16.41h0Z" class="cls-67" transform="translate(0 -60.95)"/><path d="M193.22,265.29l0.17-.06a1.22,1.22,0,0,1,.48,0,1.88,1.88,0,0,1,1.26.72,2.45,2.45,0,0,1,.39.68,2.88,2.88,0,0,1,.17.66,3.73,3.73,0,0,1,0,.65h0s-0.1-.24-0.23-0.61a6,6,0,0,0-.53-1.26,1.8,1.8,0,0,0-1.09-.75,1.08,1.08,0,0,0-.62,0v0Z" class="cls-67" transform="translate(0 -60.95)"/><path d="M212.74,265.18a2.55,2.55,0,0,1,.62.07,2.28,2.28,0,0,1,1.2.69,1.56,1.56,0,0,1,.37.68,3.39,3.39,0,0,1,.08.64,2.63,2.63,0,0,0,.09.6h0a1.34,1.34,0,0,1-.28-0.57,3.29,3.29,0,0,0-.41-1.22,2.25,2.25,0,0,0-1.06-.74,2.52,2.52,0,0,0-.6-0.14v0Z" class="cls-67" transform="translate(0 -60.95)"/><path d="M131.8,180.11c-1-.36-0.64-4.8,0-4.71a3.52,3.52,0,0,0,3.19,1c2.07-.32,8.06-5,7.1-10.77s-5-11.65-8.94-10.61-5.19,5.11-7.1,6.22-4.51,4.25-3.11,7.58a11,11,0,0,0,2.23,3.51l-2,5.75,2.15,10.13,7.74,6.62,0.8-7.74Z" class="cls-68" transform="translate(0 -60.95)"/><path d="M132.42,172.77c-1-.63-0.94,1.68-0.62,2.63s3,2.47,6.06.88,5.19-3.51,5.82-5.11c0,0,0,2.19-1.2,3.17s-4,7.84-.3,13.58a5.87,5.87,0,0,1,1.81-4.79c2.23-2.23,7.18-3.35,7.82-8.78s-3-7.66-4.63-8l-1.52-2.55s0.84-2.39-3.33-6.38-8.8-3.75-9.2-2.39,2.47,4.55,4.39,4.95,1.44,1.6.32,1.52-3.35.48-2.87,3,1.2,2.71.16,2.87-1.6,1.92-.32,2.15,3.35,0.48,2.47,2.07A3.18,3.18,0,0,1,132.42,172.77Z" class="cls-69" transform="translate(0 -60.95)"/><path d="M143.69,171.18a17.32,17.32,0,0,0,2-7.34c0-1.43,1.47,1,1.52,2.55C147.3,169.66,145.28,171.26,143.69,171.18Z" class="cls-70" transform="translate(0 -60.95)"/><path d="M144.25,159.59a16.27,16.27,0,0,0-1.9-2.13,14.38,14.38,0,0,1-4.92,13.1,1.1,1.1,0,0,1-.13,1l-0.12.2C145.51,169.9,144.26,159.65,144.25,159.59Z" class="cls-71" transform="translate(0 -60.95)"/><path d="M115.36,206.69c-1.76-7.42.16-21.94,0.16-21.94l-0.72-.48a22.9,22.9,0,0,1,3.27-2.63c1.84-1.2,1.52-4.55,2-4s1.84,0.32,3.11.48a12.82,12.82,0,0,1,4.71,6.54c1.52,4.55,3.4,2.31,3.82,1s0.09-5.51.09-5.51a3.1,3.1,0,0,1,2.31,2.23c0.64,2,.24,7.92-0.4,10.22s-0.41,11.49-.18,14.13H115.36Z" class="cls-70" transform="translate(0 -60.95)"/><path d="M131.8,180.11s0.32,4.15-.09,5.51-2.3,3.59-3.82-1a13.93,13.93,0,0,0-1.12-2.5c-0.75,0-1.41-.78-2.14-0.59a1.42,1.42,0,0,0-.74.61,6.56,6.56,0,0,0-1.05,3.85,19.54,19.54,0,0,0,.6,4l3.68,16.66h6.43c-0.23-2.64-.46-11.82.18-14.13s1-8.23.4-10.22A3.1,3.1,0,0,0,131.8,180.11Z" class="cls-72" transform="translate(0 -60.95)"/><path d="M116.22,266.94c-1.43-.18-3.63,0-5-0.6,1.37-2.66,2.35-6.12,3.73-8.73,1.28-2.41,2.12-7.31,5.4-11.09a23.93,23.93,0,0,1,3.24-3s-0.91-3-1.22-3.93a34.94,34.94,0,0,1-1.44-13.2c0.05-.74-0.08-2.3.49-2.86s1.73-.54,2.35-0.7a26.05,26.05,0,0,1,7.19-1,0.88,0.88,0,0,1,.79.32,0.74,0.74,0,0,1,0,.41c-0.3,3.41-.95,6.68-1,10.18,0.09,2.9-.1,5.85-0.14,8.8a15.3,15.3,0,0,1-1.81,7.8C128.24,250.46,117.58,264.83,116.22,266.94Z" class="cls-73" transform="translate(0 -60.95)"/><path d="M131.34,224.54a11.13,11.13,0,0,0-2.07-2.63,30.27,30.27,0,0,0-5.47,1c-0.63.16-1.88,0.23-2.35,0.7s-0.43,2.12-.49,2.86a37,37,0,0,0,.41,8.91,1.86,1.86,0,0,1,.87-0.73,3.62,3.62,0,0,1,3.25.6,6.78,6.78,0,0,1,2.27,4.67,14.2,14.2,0,0,1-1.39,8.07c-1.2,2.4-3.1,4.48-3.8,7.07a5.68,5.68,0,0,0,0,3.16c3-4.12,6-8.22,6.33-8.77a15.3,15.3,0,0,0,1.81-7.8c0-2.95.24-5.9,0.14-8.8a72.52,72.52,0,0,1,.75-7.76C131.5,224.86,131.42,224.7,131.34,224.54Z" class="cls-74" transform="translate(0 -60.95)"/><path d="M118.72,221.07a17.26,17.26,0,0,1,1.19,4.46l3.33,0-0.55-4.47Z" class="cls-75" transform="translate(0 -60.95)"/><polygon points="119.92 164.35 119.94 165.7 124.43 165.63 124.27 163.97 119.92 164.35" class="cls-76"/><path d="M139.6,230.19c1.06,1.82,1.82,3.65,2.8,5.54,1.92,3.71,2.54,7.74,2.93,11.84,0.35,3.65.86,7.43,1.1,11.16a19.06,19.06,0,0,0,1.07,4.91c0.13,0.42,1.44,3.79,1.13,3.84a59.65,59.65,0,0,0-6.13,1.16c-1.34-3.78-1.17-6.89-2.4-10.22a46.09,46.09,0,0,1-2.42-8c-0.46-2.68-1.44-6.71-1.05-9.2-5.76-3.34-10.26-10.15-14.15-16.28,0.78-.65,2.45-0.86,3.23-1.51,1.77-1.48,3.65-2.82,5.43-4.26,0.52-.42.58-0.7,1.13-0.28,1.45,1.08,2,2.79,2.77,4.3C136.14,225.3,138.7,228.65,139.6,230.19Z" class="cls-68" transform="translate(0 -60.95)"/><path d="M144.47,261.14a3.33,3.33,0,0,0,2.51.78,14.42,14.42,0,0,1-.56-3.19c-0.24-3.73-.75-7.5-1.1-11.16-0.39-4.1-1-8.13-2.93-11.84-1-1.89-1.74-3.72-2.8-5.54-0.9-1.54-3.46-4.89-4.57-7-0.74-1.42-1.26-3-2.52-4.09a18.72,18.72,0,0,0-2.82,1.19c-1.34,1-2.69,2.06-4,3.14a2.78,2.78,0,0,1-.61.36,7.49,7.49,0,0,0-1.45,3l0.83,1.28a3.65,3.65,0,0,0,1.44-.36c0.19-.1,1.91-1.72,1.64-1.81a4.25,4.25,0,0,0,3.37-.35c0.87-.5,1.82-1.33,2.71-0.88a2.21,2.21,0,0,1,.77.81,78.32,78.32,0,0,1,4.65,8,14.22,14.22,0,0,1,1.39,3.58,16.13,16.13,0,0,1,.21,3q0,2.91.11,5.81c0.13,4.16.37,8.4,1.84,12.3A7,7,0,0,0,144.47,261.14Z" class="cls-77" transform="translate(0 -60.95)"/><path d="M115.2,208c0.49,2.05,0,4-.21,6.84a10.48,10.48,0,0,0,4.82,9c3.36,2,3.39,3.68,3.39,3.68l2.18-1.14,0.58-2.86,3,0.65,5.13-3.27-1.14-2a11.4,11.4,0,0,1,.06-5.15,11.17,11.17,0,0,0,.13-5.82C132.88,206,115.2,208,115.2,208Z" class="cls-71" transform="translate(0 -60.95)"/><path d="M133.05,213.75a11.18,11.18,0,0,0,.13-5.82c-0.07-.42-1.23-0.64-2.58-0.74-0.13,0-1.69-.51-1.81-0.49-2.72.54-1.6,1.65-.79,4.49s5,7.72,5,7.72A11.4,11.4,0,0,1,133.05,213.75Z" class="cls-78" transform="translate(0 -60.95)"/><polygon points="133.5 147.34 115.18 147.34 115.18 145.34 133.6 145.35 133.5 147.34" class="cls-79"/><path d="M92.14,150l22.66,34.22,4.53-3.42,0.74-3.2c-1.2-2.33-7.49-7-10.7-13-3.91-7.29-15.13-16.05-15.13-16.05-0.88-.57-0.07-1.26-0.52-2S90.8,148,90.8,148a1.11,1.11,0,0,0,0,1.5C91.52,150.1,91.69,149.37,92.14,150Z" class="cls-68" transform="translate(0 -60.95)"/><path d="M120.07,177.64c-1.2-2.33-7.49-7-10.7-13-2-3.64-5.72-7.65-9-10.75a20.43,20.43,0,0,0-1.87-1.05,1,1,0,0,0-1-.11,1,1,0,0,0-.23,1.07,12.65,12.65,0,0,0,2.15,4.08c1.32,1.86,1.94,4.06,3.39,5.82a25.12,25.12,0,0,0,2.51,2.72c0.8,0.72,1.68,1.35,2.45,2.11a18.73,18.73,0,0,1,2.59,3.49q3,4.86,5.61,10l0.52,1,2.84-2.15Z" class="cls-80" transform="translate(0 -60.95)"/><path d="M114.32,183.88l1.2,0.86a7.66,7.66,0,0,0,3.84-3c1.73-2.45,1.13-4.16,1.13-4.16l-1-.64a6.58,6.58,0,0,1-1.7,4.2A10.22,10.22,0,0,1,114.32,183.88Z" class="cls-79" transform="translate(0 -60.95)"/><path d="M122.65,178.07a19.92,19.92,0,0,1,4.88,7.18c1.31,3.94,3.3,3.19,3.95,1.64s0.91-3.23.58-6.72l-0.46-.2s0.63,4.77-.51,6.44-2.23.42-2.75-1.2a12.87,12.87,0,0,0-5.16-7.1Z" class="cls-79" transform="translate(0 -60.95)"/><polygon points="122.98 166.05 123.33 167.06 125.68 165.79 126.18 162.96 129.18 163.69 134.31 160.31 133.88 159.51 129.15 162.61 126.08 162 117.75 149.52 116.69 150.14 125.23 162.53 124.97 165.04 122.98 166.05" class="cls-79"/><path d="M123,187.67a6.55,6.55,0,0,0,.55,2.07,1.07,1.07,0,0,0,.92.85,1,1,0,0,0,.68-0.71c0.4-1,1.11-3,.33-4C124.28,184.31,123,186.42,123,187.67Z" class="cls-79" transform="translate(0 -60.95)"/><path d="M130.88,211a0.43,0.43,0,0,0,.15.4,0.3,0.3,0,0,0,.34-0.08,0.87,0.87,0,0,0,.17-0.32c0.12-.32.23-0.64,0.33-1a2.11,2.11,0,0,0-.09-1.93,6.77,6.77,0,0,0,2.49,2.87,0.42,0.42,0,0,0,.48.06,0.36,0.36,0,0,0,.1-0.23,1.94,1.94,0,0,0-.27-1.13c-0.4-.75-1.59-2.08-2.59-1.79S130.88,210.18,130.88,211Z" class="cls-81" transform="translate(0 -60.95)"/><path d="M119.5,188a5.91,5.91,0,0,1-3-1.17,3.89,3.89,0,0,1-1-2.13c-0.32,2.73-1.36,12.62-.63,19.14a61.33,61.33,0,0,0,1.22-6.15A39.81,39.81,0,0,1,119.5,188Z" class="cls-82" transform="translate(0 -60.95)"/><path d="M142.5,268.63a59.66,59.66,0,0,1,6.13-1.16c0.32,0-1-3.42-1.13-3.84a19.06,19.06,0,0,1-1.07-4.91c-0.23-3.73-.75-7.5-1.1-11.16l0-.23-7.92,1.59c0.11,0.52.21,1,.29,1.47a46.11,46.11,0,0,0,2.42,8C141.32,261.74,141.15,264.85,142.5,268.63Z" class="cls-83" transform="translate(0 -60.95)"/><path d="M147.5,263.63a19.06,19.06,0,0,1-1.07-4.91c-0.23-3.73-.75-7.5-1.1-11.16l0-.23-4.78,1c0,2.48,1.2,5,2,7.42,1.21,3.75,1.55,7.71,2.44,11.55q0.09,0.39.19,0.78c1.32-.25,2.73-0.48,3.49-0.58C148.94,267.43,147.62,264,147.5,263.63Z" class="cls-84" transform="translate(0 -60.95)"/><path d="M141.15,265.86a12.93,12.93,0,0,1,1.07,4.19,1,1,0,0,0,1,1,53.77,53.77,0,0,0,12.08-2.77c0.5-.16.9-0.24,0.66-0.8a3.07,3.07,0,0,0-1.5-1.51,5.88,5.88,0,0,0-1.6-.11l-3,.07a1.06,1.06,0,0,1-.06-1,4,4,0,0,0,.08-1.31,1.34,1.34,0,0,0-.68-1.17,0.85,0.85,0,0,0-.92.31,3.15,3.15,0,0,0-.44.95,8.63,8.63,0,0,1-1.35,2.45,1.44,1.44,0,0,1-.57.49,1.57,1.57,0,0,1-.91,0C143.72,266.34,142.35,265.46,141.15,265.86Z" class="cls-85" transform="translate(0 -60.95)"/><path d="M146.95,268.77a5.7,5.7,0,0,0,3.94-1.12,3.69,3.69,0,0,1,.69-0.47c0.37-.16.79-0.16,1.16-0.34a1.33,1.33,0,0,0,.72-1h-0.62l-3,.07a1.06,1.06,0,0,1-.06-1,4,4,0,0,0,.08-1.31,2.34,2.34,0,0,0,0-.25,1.56,1.56,0,0,0-.29.25c-0.64.71-.54,1.92-1.09,2.74S147.07,267.77,146.95,268.77Z" class="cls-86" transform="translate(0 -60.95)"/><path d="M142.55,271.85a1,1,0,0,0,.71,0,82.35,82.35,0,0,0,13-3.33,1.75,1.75,0,0,0-.48-1.37c-0.28-.13-6.11,1.94-9.33,2.25a20.68,20.68,0,0,0-3.7.43c-0.51.15-.66,0-0.67,0.5A2.36,2.36,0,0,0,142.55,271.85Z" class="cls-83" transform="translate(0 -60.95)"/><path d="M115,257.61c-1.38,2.61-2.36,6.07-3.73,8.73,1.33,0.59,3.53.42,5,.6,0.9-1.41,6-8.31,9.41-13L122,250.74c-1-.85-1.93-1.69-2.91-2.49C116.86,251.69,116.08,255.56,115,257.61Z" class="cls-83" transform="translate(0 -60.95)"/><path d="M121.49,255.05q-3.46,5.8-6.57,11.8c0.47,0,.92,0,1.31.09,0.9-1.41,6-8.31,9.41-13L123.46,252A28.13,28.13,0,0,0,121.49,255.05Z" class="cls-87" transform="translate(0 -60.95)"/><path d="M123.43,254.68q-1.54-1.62-3.19-3.13-0.82-.75-1.66-1.48c-0.1-.09-0.22-0.21-0.35-0.34-0.12.23-.23,0.46-0.35,0.69l5.42,5.07c0.23,0.22.46,0.44,0.68,0.67l0.36-.49C124,255.34,123.74,255,123.43,254.68Z" class="cls-88" transform="translate(0 -60.95)"/><path d="M122.5,256.38q-1.54-1.62-3.19-3.13-0.82-.75-1.66-1.48l-0.26-.25c-0.1.24-.21,0.48-0.31,0.72l5.29,5,0.51,0.49,0.36-.49C123,256.92,122.75,256.64,122.5,256.38Z" class="cls-89" transform="translate(0 -60.95)"/><path d="M144.9,249.81l0.64-.14-0.06-.59-1.19.17q-2.21.36-4.39,0.86-1.08.25-2.15,0.53h0c0,0.24.1,0.48,0.15,0.72Z" class="cls-88" transform="translate(0 -60.95)"/><path d="M145.75,251.55l-0.07-.64-0.51.07q-2.21.36-4.39,0.86-1.08.25-2.15,0.53l-0.5.1c0.06,0.24.14,0.48,0.21,0.71Z" class="cls-89" transform="translate(0 -60.95)"/><path d="M111.23,264.9a11.6,11.6,0,0,1-1.08,3.8,0.69,0.69,0,0,0,.37,1.06,55.32,55.32,0,0,0,11.87.67c0.51,0,.91,0,1-0.52a2,2,0,0,0-.58-1.65,4.87,4.87,0,0,0-1.34-.49l-2.63-.68a1.08,1.08,0,0,1,.41-0.83,4.51,4.51,0,0,0,.7-1.09,1,1,0,0,0,0-1.16,0.92,0.92,0,0,0-1,0,4.17,4.17,0,0,0-.84.69,11.59,11.59,0,0,1-2.36,1.74,1.89,1.89,0,0,1-.74.28,1.34,1.34,0,0,1-.78-0.24C113.23,265.93,112.47,264.85,111.23,264.9Z" class="cls-85" transform="translate(0 -60.95)"/><path d="M122.39,270.42c0.51,0,.91,0,1-0.52a2,2,0,0,0-.58-1.65,4.88,4.88,0,0,0-1.34-.49l-2.63-.68a1.08,1.08,0,0,1,.41-0.83,4.51,4.51,0,0,0,.7-1.09,2,2,0,0,0,.15-0.5l0,0L117.27,267a5.76,5.76,0,0,1-1,.78,8.28,8.28,0,0,1-1.54.52,9.46,9.46,0,0,0-1.46.57,0.73,0.73,0,0,0-.32.25,0.52,0.52,0,0,0,.16.63,1.51,1.51,0,0,0,.65.26l1.4,0.31C117.54,270.49,120.08,270.47,122.39,270.42Z" class="cls-90" transform="translate(0 -60.95)"/><path d="M109.5,270.3a0.84,0.84,0,0,0,.6.21,93.11,93.11,0,0,0,13.1.55,1.31,1.31,0,0,0,.24-1.22c-0.19-.17-6.36,0-9.35-0.5a21.12,21.12,0,0,0-3.46-.56c-0.52,0-.56-0.19-0.83.23A1.81,1.81,0,0,0,109.5,270.3Z" class="cls-83" transform="translate(0 -60.95)"/><path d="M118.82,267.09c-0.14.24-.25,0.59-0.35,0.8a1.1,1.1,0,0,0-.13.43,0.28,0.28,0,0,0,0,.16,0.32,0.32,0,0,0,.15.11,1.09,1.09,0,0,0,.43.09,3.2,3.2,0,0,1,.59-1.4Z" class="cls-91" transform="translate(0 -60.95)"/><path d="M149.54,267.73a0.17,0.17,0,0,0,.1,0l0.65,0h0l0,0a12.43,12.43,0,0,0,.5-1.8l-1,0C149.62,266.28,149.29,267.56,149.54,267.73Z" class="cls-91" transform="translate(0 -60.95)"/><path d="M128.52,163.49c-0.91.75-1.35,0.52-1.7,0.09s-0.49-.91.42-1.66,2.51-1.47,2.86-1S129.42,162.74,128.52,163.49Z" class="cls-92" transform="translate(0 -60.95)"/><path d="M132.49,163.62a0.63,0.63,0,0,1-.81.42,0.68,0.68,0,0,1-.44-0.83,0.63,0.63,0,0,1,.81-0.42A0.68,0.68,0,0,1,132.49,163.62Z" class="cls-92" transform="translate(0 -60.95)"/><path d="M129,160.06a0.52,0.52,0,0,1-.67.35,0.57,0.57,0,0,1-.37-0.69,0.52,0.52,0,0,1,.67-0.34A0.57,0.57,0,0,1,129,160.06Z" class="cls-92" transform="translate(0 -60.95)"/><path d="M133.14,162a0.94,0.94,0,0,1,.2.22,1.58,1.58,0,0,1,.24.58,1.56,1.56,0,0,1,0,.63,0.94,0.94,0,0,1-.12.27,2.54,2.54,0,0,1-.09-0.27c0-.16-0.07-0.36-0.12-0.56s-0.06-.41-0.07-0.57A2.74,2.74,0,0,1,133.14,162Z" class="cls-92" transform="translate(0 -60.95)"/><path d="M129.72,158.92l-0.19-.06-0.35-.14a5.37,5.37,0,0,1-.52-0.26,0.51,0.51,0,0,1,.2-0.09,0.81,0.81,0,0,1,.45,0,0.82,0.82,0,0,1,.34.3A0.5,0.5,0,0,1,129.72,158.92Z" class="cls-92" transform="translate(0 -60.95)"/><path d="M124.16,164.61c-0.64,1.79-.07,4.47,2.29,4.9s3.15-1.84,2.09-2.72c-1.69-1.41-2.95-2.36-3.06-3.29S124.59,163.41,124.16,164.61Z" class="cls-93" transform="translate(0 -60.95)"/><path d="M129.32,165.16a0.36,0.36,0,0,0-.09.22,2.69,2.69,0,0,0,.51,1.65,5.81,5.81,0,0,0,1,1.29,2.5,2.5,0,0,0,1.42.7,0.93,0.93,0,0,0,.74-0.19c0.69-.66-0.31-2.15-0.82-2.65S129.86,164.65,129.32,165.16Z" class="cls-94" transform="translate(0 -60.95)"/><path d="M126.71,161.66a0.23,0.23,0,0,0,.05-0.1,0.9,0.9,0,0,0-.09-0.66,1.5,1.5,0,0,0-.32-0.48,0.79,0.79,0,0,0-.59-0.21,0.59,0.59,0,0,0-.36.14,0.83,0.83,0,0,0,.17,1.13A1.12,1.12,0,0,0,126.71,161.66Z" class="cls-94" transform="translate(0 -60.95)"/><path d="M143.61,211.43c-0.18,3.06,2.36,5.22,5.79,4.14s-3.37-5.81-3.37-5.81Z" class="cls-95" transform="translate(0 -60.95)"/><path d="M176.47,241.59a3.23,3.23,0,0,1-1.36-.59,3,3,0,0,1-.57-0.76,29.17,29.17,0,0,1-2.43-5.37,4,4,0,0,1-.28-1.38,4.44,4.44,0,0,1,.61-1.8,73.37,73.37,0,0,0,3.94-9.43c1-3,2-6.29,4.77-7.83a8.85,8.85,0,0,1,3.88-1,7.72,7.72,0,0,1,3.68.53,9.93,9.93,0,0,1,3.17,2.78c3.52,4.13,7.17,8.48,8.33,13.78s0,11.49-2.06,16.32c-0.9,2.14-2.57,1.48-4.35.74-2.66-1.11-5.32-2.2-8-3.15Q181.18,242.83,176.47,241.59Z" class="cls-96" transform="translate(0 -60.95)"/><path d="M159.89,254.58a4.39,4.39,0,0,1-4,3.41c-0.95,0-2-.21-2.79.3a2.9,2.9,0,0,0-.72.72,10.89,10.89,0,0,0-1.14,1.85,2.58,2.58,0,0,0-.31,1.06c0,1,1.25.55,2,.83a0.43,0.43,0,0,0,.59-0.27,4.92,4.92,0,0,1,1-1.24,1.51,1.51,0,0,1,2-.5c1.21,1,2.83.42,4-.76a7.62,7.62,0,0,0,2.1-4.37" class="cls-97" transform="translate(0 -60.95)"/><path d="M165,220.51s-0.86,7.08-.43,10.73-2.16,4.22-2.58,9.62-1.17,11.36-2.89,14.33l3.43,1s2.12,1.3,4.76-7.93,5.16-25.73,5.16-25.73l-0.6-2.05H165Z" class="cls-98" transform="translate(0 -60.95)"/><path d="M171.84,220.51H165s-0.17,1.38-.32,3.22a8.91,8.91,0,0,1,1.53.91c2,1.6,2.12,5.09,2,7.43a5.62,5.62,0,0,1-.75,3,22.19,22.19,0,0,1-2.22,2.1,8.48,8.48,0,0,0-1.6,3.27c-0.82,2.59-2.06,5.5-2.3,8.21a5.51,5.51,0,0,1-.79,2.42,15.86,15.86,0,0,1-1.48,4.08l3.43,1s2.12,1.3,4.76-7.93,5.16-25.73,5.16-25.73Z" class="cls-99" transform="translate(0 -60.95)"/><path d="M165.77,210.93c-0.41,2.91-1.06,8.37-2.36,11,2.81,0.39,4.45.44,7.26,0.83a5.36,5.36,0,0,1,1.41.32,2.58,2.58,0,0,0,1.54.47l0.21-5.36a26.27,26.27,0,0,1,.43-4.41,12.14,12.14,0,0,0,.61-4.15,0.43,0.43,0,0,0-.3.28" class="cls-96" transform="translate(0 -60.95)"/><path d="M174.71,211.84l-0.09-.13a2.21,2.21,0,0,0-1.87-.85,2.58,2.58,0,0,0-1.11.47,9.06,9.06,0,0,0-2.32,2.51,23.3,23.3,0,0,0-2.46,4.73c-0.47,1.22-.87,2.44-1.43,3.6,1.74,0.19,3.17.29,5.24,0.58a5.36,5.36,0,0,1,1.41.32,2.57,2.57,0,0,0,1.54.47l0.21-5.36a26.27,26.27,0,0,1,.43-4.41C174.39,213.14,174.57,212.49,174.71,211.84Z" class="cls-100" transform="translate(0 -60.95)"/><path d="M174.11,264c0,1.23-1,1.8-2.87,2.59s-4.78,2.87-5.91,3.15,2,1,4.9,1,6.59,0.73,8.27,0,2.82-1.49,2.25-3.21-1.18-2.36-1.07-3.32S174.11,264,174.11,264Z" class="cls-101" transform="translate(0 -60.95)"/><path d="M168,268.37c-1.52.09-4.17,0.54-5.07,1.55s-1.35,2,1.18,2H178.5a2.88,2.88,0,0,0,2.95-2c0.38-1-.13-2.81-0.69-2.36s-0.45,1.29-1.86,1.46-9.27.54-10.86,0.39S168,268.37,168,268.37Z" class="cls-102" transform="translate(0 -60.95)"/><path d="M196.57,242c-5.67-3.12-11.93-5-18.14-6.8l-3.22-.95v0.49a25.93,25.93,0,0,1,4.91,13.31,61.84,61.84,0,0,1-.12,7.22c-0.06,1.17.79,9,.81,10.18s-8.1-.41-8.11-0.61c-0.14-4.16-2.67-15.59-3.19-19.73-0.33-2.6-1.51-5-1.83-7.56q-0.28-2.25-.7-4.47a16.61,16.61,0,0,1-.65-3.52,4.65,4.65,0,0,1,.73-2.75c1-1.31,2.49-1.32,4-1.57a29.12,29.12,0,0,1,5.06-.5c2.55,0,12.54.3,15.07,0" class="cls-103" transform="translate(0 -60.95)"/><path d="M178.43,235.21c6.21,1.83,12.47,3.67,18.14,6.8l-5.39-17.26c-2.17.26-9.83,0.1-13.57,0a18.54,18.54,0,0,1-1.91,2.2c-0.87.77-4.1-.05-5.06,0.61a4.75,4.75,0,0,0-2.11,2.68,5.63,5.63,0,0,0,.43,3.06c2.06,5.88,7.43,12.69,8.9,18.74a60.14,60.14,0,0,1,.81,13.79c1.22,0.07,2.15,0,2.14-.39,0-1.17-.87-9-0.81-10.18a61.85,61.85,0,0,0,.12-7.22,25.93,25.93,0,0,0-4.91-13.31v-0.49Z" class="cls-104" transform="translate(0 -60.95)"/><path d="M171,222c4.21,1.83,11.67,2.45,13.48,3.78l-1.08-4.57-8.51-1.91Z" class="cls-96" transform="translate(0 -60.95)"/><path d="M158.66,261.1a2.93,2.93,0,0,1-1.2,1.71,1.53,1.53,0,0,0-.46.57,0.77,0.77,0,0,0,1,1,1.55,1.55,0,0,0,.43-0.34l0.62-.63a16.23,16.23,0,0,0,1.81-1.71,1.69,1.69,0,0,0,.17-1.34,0.18,0.18,0,0,0-.21-0.16" class="cls-97" transform="translate(0 -60.95)"/><path d="M156.14,263.85c0.11-.19.19-0.39,0.3-0.58a4.31,4.31,0,0,1,2-1.77,1.63,1.63,0,0,0,1-.79,0.41,0.41,0,0,0,0-.28,0.58,0.58,0,0,0-.54-0.25,3.82,3.82,0,0,0-1.08,0,3.66,3.66,0,0,0-1,.46,2.77,2.77,0,0,0-.84.65,3.67,3.67,0,0,0-.36.66c-0.12.25-.26,0.49-0.37,0.74a4.67,4.67,0,0,0-.33,1,2.1,2.1,0,0,0-.07,1.06C155.06,265.22,156,264.08,156.14,263.85Z" class="cls-97" transform="translate(0 -60.95)"/><path d="M159.53,261.47a9.83,9.83,0,0,0-1.16-.12,2.47,2.47,0,0,0-2.32,1.2c-0.41,1-.67,2.09-1.21,2.38a0.88,0.88,0,0,1-.53-1,8,8,0,0,1,.22-2.13,2.7,2.7,0,0,1,1.25-1.68,6.71,6.71,0,0,1,1.68-.43c1.78-.4,3.18-1.72,4.57-2.9a2.48,2.48,0,0,1,1.21-.68,1.76,1.76,0,0,1,1.82,1.23,3.9,3.9,0,0,1-1,2.15A5.25,5.25,0,0,1,159.53,261.47Z" class="cls-105" transform="translate(0 -60.95)"/><path d="M182.26,220.51c0,12.2-5.58,19.89-8.26,25.12s-9.12,13.52-9.12,13.52l-2.9-2.92s4-5.18,4.76-10.08S168,236.73,171,231,173,216.8,173,216.8Z" class="cls-102" transform="translate(0 -60.95)"/><path d="M164.88,259.15s6.44-8.28,9.12-13.52c1.57-3.07,4.14-7,6-12.18h-0.06c0.06-.1.11-0.2,0.17-0.3,0.35-1,.66-2,0.94-3.1a7.77,7.77,0,0,0-.22-2.71,1.22,1.22,0,0,0-.69-0.95,1.07,1.07,0,0,0-.88.25c-1.1.81-1.45,2.27-1.86,3.57-1.45,4.54-4.53,8.38-6.41,12.77-1.15,2.68-1.84,5.57-3.4,8-1.38,2.18-3.37,3.95-4.6,6.21Z" class="cls-106" transform="translate(0 -60.95)"/><path d="M185.84,198.3c1.87-4.17-5-4.22-6.5-1a11.92,11.92,0,0,1-6.16,6.28c-3.76,1.67-7.68,7.74-11.61,4.91s-3.69-8.18-3.69-8.18l14.9-9.12h9.48l5.8,1.17,0.42,5.61" class="cls-95" transform="translate(0 -60.95)"/><path d="M152,216.16a29.75,29.75,0,0,1,2.87,2,1.57,1.57,0,0,0,1.32.49,1.48,1.48,0,0,0,.79-1.26" class="cls-107" transform="translate(0 -60.95)"/><path d="M161.3,205.14c-1.32-.28-2.5-1-3.79-1.44a8.78,8.78,0,0,0-5.6.2,12.09,12.09,0,0,0-4.66,3.19c-1.15,1.24-2.13,2.85-1.85,4.52,0.32,1.94,2.21,3.21,4,3.93,1.12,0.45,2.48.51,3.51,1.11,2.46,1.43,6.58,1,7.8-.26a1.83,1.83,0,0,0,.24-1.65,3.59,3.59,0,0,1-.16-1.71c0.33-1.16,1.54-1,2.45-1.07a20,20,0,0,1,6,.2,2.16,2.16,0,0,0,1,0,1.81,1.81,0,0,0,1-1.6c0.23-1.54.1-7-2.24-6.89a19.29,19.29,0,0,0-3.25,1A9.91,9.91,0,0,1,161.3,205.14Z" class="cls-105" transform="translate(0 -60.95)"/><path d="M168.75,203.77c-1,.17-2,0.74-2.89,1a16.88,16.88,0,0,1-2.24.46,0.71,0.71,0,0,0,.22.47c0.12,0.11.26,0.17,0.38,0.28a1.1,1.1,0,0,1-.2,1.57,3.93,3.93,0,0,1-1.66.64,11,11,0,0,0-4.83,2.6,2.65,2.65,0,0,0-.87,1.27c-0.16.69,0.17,1.43,0,2.1a1.79,1.79,0,0,1-1.14,1.09,4.39,4.39,0,0,1-1.61.18,17.7,17.7,0,0,1-6.57-1.53,3.53,3.53,0,0,0-.91-0.3,8.19,8.19,0,0,0,3,2c1.12,0.45,2.48.51,3.51,1.11,2.46,1.43,6.58,1,7.8-.26a1.83,1.83,0,0,0,.24-1.65,3.59,3.59,0,0,1-.16-1.71c0.33-1.16,1.54-1,2.45-1.07a20,20,0,0,1,6,.2,2.16,2.16,0,0,0,1,0,1.81,1.81,0,0,0,1-1.6c0.18-1.21.14-4.89-1-6.31l-1.07-.38Z" class="cls-108" transform="translate(0 -60.95)"/><path d="M142.2,206.46c0.2,3.49,1.68,7.44,3.87,7,0.2-1.77,3-.91,2.75-3.26-0.11-1.31,1.24-.35,1.83-0.08s5.19,1.28,5.53-1.49c0,0-2.25-1.46-1.18-2.85s4.09,0.72,4.09.72,1.91,0.07,2.21-1.32c0.51-2.36,2.31-4.26,4.05-5.84a21.47,21.47,0,0,1,6.46-4,33.16,33.16,0,0,1,3.56-1.15q2.21-.6,4.46-1.07a11.68,11.68,0,0,1,5-.26,4.42,4.42,0,0,1,2.51,2.47,2.35,2.35,0,0,1-1.46,3.05s5.91,1.49,5.13-5.42-7-9.75-10.84-9.84c-8.86-.22-10.58,9.18-16.71,10.35s-9.27.61-14.48,2.94A11.08,11.08,0,0,0,142.2,206.46Z" class="cls-109" transform="translate(0 -60.95)"/><path d="M232.75,263.46a8.72,8.72,0,0,0,3.78-.89c0,1.23,1.22,2.63,1.74,3.74a5.32,5.32,0,0,1,.45,2.93,0.59,0.59,0,0,0,.18.66c0.66,0.28,1.51.66,2,.12a4.17,4.17,0,0,0,.79-2c0.65-3.18,1.13-6.58,0-9.62a3.3,3.3,0,0,0-1.38-1.84,3.82,3.82,0,0,0-2.8,0,42.48,42.48,0,0,0-7.48,2.92,17.56,17.56,0,0,0,1.12,3.11,2.53,2.53,0,0,0,.77,1.06C232.23,264,232.45,263.78,232.75,263.46Z" class="cls-110" transform="translate(0 -60.95)"/><path d="M240.48,268.42a4.3,4.3,0,0,0-1.77.81c-1,.73-2.58.36-2,1.35s1.11,0.85,1.11.85l3.82,0.12c0.65,0,1.59-1.33,1.78-2.47a60.28,60.28,0,0,0,.29-9.39,3.83,3.83,0,0,0-2.26-3.3c-1.28-.66-4.14-0.44-4,0.22s2.71,0.42,3.54,2.64S241.26,266.65,240.48,268.42Z" class="cls-102" transform="translate(0 -60.95)"/><path d="M234.19,264a14.11,14.11,0,0,0-1.83-6.7c-4.24.87-4.08,1.14-8.41,1.14-4.15,0-7.58.21-11.72-.14a13,13,0,0,0-5.14.33,10,10,0,0,1,1.07-5.34,69.81,69.81,0,0,1,4-7.32l-17.49,7.54a5.59,5.59,0,0,0-.65,2.33c-0.48,3.7-.91,7.66.77,11a18.85,18.85,0,0,0,2.39,3.4,2.21,2.21,0,0,0,.87.74,2.19,2.19,0,0,0,1.13,0c4.59-.79,9.1-1.91,13.64-2.94C218.88,266.67,232.24,266.87,234.19,264Z" class="cls-103" transform="translate(0 -60.95)"/><path d="M234.19,264a14.11,14.11,0,0,0-1.83-6.7c-4.24.87-4.08,1.14-8.41,1.14-4.15,0-7.58.21-11.72-.14a13,13,0,0,0-5.14.33,10,10,0,0,1,1.07-5.34,69.81,69.81,0,0,1,4-7.32l-17.49,7.54a5.59,5.59,0,0,0-.65,2.33c-0.1.8-.2,1.62-0.28,2.43,1.38-.18,2.83-0.85,4.14-0.76,1.8,0.13,3.66,1.34,3.89,3.13a3.88,3.88,0,0,0,.25,1.46c0.46,0.82,1.63.78,2.56,0.63l7.6-1.2a17.24,17.24,0,0,1,5.74-.26,5.84,5.84,0,0,1,4.48,3.25,5.13,5.13,0,0,1,.33,2.28C228,266.31,233,265.68,234.19,264Z" class="cls-111" transform="translate(0 -60.95)"/><path d="M167.44,203.6s1.39,6.49.69,8,1.67,2.82,3.63,3.37,14.41-.52,16.61,10.42c2.53,12.57,3,20.78,1.77,26s-1.67,4.36,2.65,3.8,16.79-1,20.42-.28,3.35,2.5,2.93-6.08S215,223.74,200,209.06s-26.8-8.41-28.19-6.87C171.76,202.19,167.16,202.19,167.44,203.6Z" class="cls-112" transform="translate(0 -60.95)"/><path d="M185,209.32c-1,5.89,0,10.53-.55,16.49a27.07,27.07,0,0,0-4.35-2.95c-2.88-1.28-6-1.1-9.13-.83a33,33,0,0,0,.87-13.25c0-.32-0.09-0.65-0.14-1" class="cls-112" transform="translate(0 -60.95)"/><path d="M189.51,220.37c-0.58-3.38-1.26-7.92-3.28-11.07a0.91,0.91,0,0,0-1.66.58c0.07,1.29.28,2.75,0.28,3.32,0,1.88-.08,3.76-0.24,5.63a11.26,11.26,0,0,1,3.76,6.62c2.53,12.57,3,20.78,1.77,26-0.71,2.93-1.15,3.94-.62,4.17l1.33-2.41a11.76,11.76,0,0,0,.92-1.92,11.42,11.42,0,0,0,.38-3.93A185.12,185.12,0,0,0,189.51,220.37Z" class="cls-113" transform="translate(0 -60.95)"/><path d="M176,184.51a3.07,3.07,0,0,1,1.29-1.84,9.37,9.37,0,0,1,2.55-.87,7.2,7.2,0,0,1,4.77,1.25,5.91,5.91,0,0,1,2.12,4.12,7.72,7.72,0,0,0,.12,1.79,4.88,4.88,0,0,0,.09-3.1,7,7,0,0,0-.84-2.26,5.46,5.46,0,0,0-3-2.16,9.32,9.32,0,0,0-5.85.09,9.1,9.1,0,0,0-4.09,3.3,3.46,3.46,0,0,0-.69,1.28" class="cls-109" transform="translate(0 -60.95)"/><path d="M216.14,248.87c-0.42-8.58-1.12-25.12-16.19-39.81a37.33,37.33,0,0,0-10.28-7.35l-0.21,0c2.75,0.93,4.88,3.14,6.62,5.47a37.59,37.59,0,0,1,5.09,9.34c4.34,11.65,2.68,24.66,5.32,36.8,0.09,0.41.19,0.83,0.3,1.24a42.12,42.12,0,0,1,6.41.36C216.84,255.64,216.56,257.44,216.14,248.87Z" class="cls-114" transform="translate(0 -60.95)"/><path d="M181.46,205a2.13,2.13,0,0,0-2.29-.54,2.62,2.62,0,0,0-1.18,1.6,61.44,61.44,0,0,0-2.78,9.73,18.69,18.69,0,0,1-1,3.89,9,9,0,0,0-.87,2.29,16.3,16.3,0,0,1,6.83.89,11,11,0,0,1,1.3.66c0.49,0.28,2-12.93,1-16.45A4.47,4.47,0,0,0,181.46,205Z" class="cls-115" transform="translate(0 -60.95)"/><path d="M212.82,266.64a36.25,36.25,0,0,0-8.75,1.5,13.88,13.88,0,0,1-3.5.62,6.75,6.75,0,0,1-6.73-7.34l-0.21.17a12.27,12.27,0,0,0,1.18,5.24,18.85,18.85,0,0,0,2.39,3.4,2.21,2.21,0,0,0,.87.74,2.19,2.19,0,0,0,1.13,0c4.59-.79,9.1-1.91,13.64-2.94a56.11,56.11,0,0,1,6.37-.88A57.31,57.31,0,0,0,212.82,266.64Z" class="cls-116" transform="translate(0 -60.95)"/><circle cx="151.37" cy="154.52" r=".38" class="cls-117"/><path d="M157.83,215a1.16,1.16,0,0,1,.54.12,1.38,1.38,0,0,1,.44.35,1.56,1.56,0,0,1,.25.63,1.51,1.51,0,0,1,0,.35,1.18,1.18,0,0,1-.07.33,0.88,0.88,0,0,1-.38.44,0.69,0.69,0,0,1-.52.12l0-.06a0.6,0.6,0,0,0,.36-0.23,0.73,0.73,0,0,0,.16-0.37,0.75,0.75,0,0,0,0-.22,1.08,1.08,0,0,0-.08-0.21,2,2,0,0,0-.28-0.37c-0.09-.12-0.17-0.26-0.25-0.37s-0.25-.44-0.25-0.44Z" class="cls-117" transform="translate(0 -60.95)"/><path d="M150,215.08a1.06,1.06,0,0,1,.12-0.26,1.63,1.63,0,0,1,.94-0.69,1.07,1.07,0,0,1,.28,0,1.6,1.6,0,0,1-.17.22,3.63,3.63,0,0,1-.42.38,3.7,3.7,0,0,1-.49.29A1.67,1.67,0,0,1,150,215.08Z" class="cls-117" transform="translate(0 -60.95)"/><path d="M81,122.54a6.41,6.41,0,0,1,3.9,8c-1.32,4-5.52,5.41-6.5,7.36s-6.16-4.22-3.46-9.82S81,122.54,81,122.54Z" class="cls-118" transform="translate(0 -60.95)"/><path d="M81,122.54a3.9,3.9,0,0,0-1.6.45l-0.19.35a7.13,7.13,0,0,1,5.26,8.21,7.36,7.36,0,0,0,.44-1A6.41,6.41,0,0,0,81,122.54Z" class="cls-119" transform="translate(0 -60.95)"/><path d="M61.47,128.4c-0.15,5.49,1.1,13.11-1.1,16.91s-9.78,7.07-8.2,14.2,11.13,6.3,15.16.44,6.23-12.28,3.22-20.65S61.57,124.52,61.47,128.4Z" class="cls-120" transform="translate(0 -60.95)"/><path d="M70.55,139.3c-0.3-.83-0.63-1.64-1-2.42l-2.34-3a11.38,11.38,0,0,1-5.71,7.43,10.57,10.57,0,0,1-1.14,4,24.23,24.23,0,0,1-4.11,4.42s4.68,7.68,1,14.72a10.47,10.47,0,0,0,10-4.5C71.35,154.09,73.56,147.67,70.55,139.3Z" class="cls-121" transform="translate(0 -60.95)"/><path d="M68.69,145a25.74,25.74,0,0,1-1.3-12.3c-2-2.31-4.64-7.11-.3-8.48s12.53-2.59,13.52-.35,0,10.79-1.86,14.38S74,139.36,74,139.36s-1.12,3.6.87,6.08a65,65,0,0,1,4.84,8.06l-3.22,5-4.22-3.72-2.11-7.07Z" class="cls-122" transform="translate(0 -60.95)"/><path d="M80.6,123.87c-0.49-1.11-2.75-1.36-5.44-1.17a27.29,27.29,0,0,0-6.94,4.54,9.85,9.85,0,0,0-2.15,2.4,2.21,2.21,0,0,0-.27.83L66,130.82a0.55,0.55,0,0,0,.26,0c0.6-.17,1-1,1.69-1.17,1-.35,2.29,0,3.37-0.18a12.25,12.25,0,0,0,3.75-1.31,32.79,32.79,0,0,0,4.77-3.3,26.72,26.72,0,0,1-.55,10.54,6.3,6.3,0,0,1-2.34,4,3.54,3.54,0,0,1-1.8.53l-0.25,0c1,0.44,2.61.67,3.81-1.66C80.6,134.65,81.59,126.1,80.6,123.87Z" class="cls-123" transform="translate(0 -60.95)"/><path d="M68,258.24c-2,2.68-1.85,3.69-2.49,5.36s-2.68,4.43-2.77,5.82-1.94,2-2.31,0a9.94,9.94,0,0,1,0-4.94c0.46-1.89.37-3.37,0.83-4.48s2.64-1.57,2.8-4.89S68,258.24,68,258.24Z" class="cls-124" transform="translate(0 -60.95)"/><path d="M74.92,255.19c0.74,3,1.75,6.74.55,9s-0.74,3.42.09,3.79A26.84,26.84,0,0,1,79,270.7c1,0.83,7.57.74,6.93,0a28.29,28.29,0,0,0-5-3.69,2.43,2.43,0,0,1-1.2-3c0.37-1.48,1.35-6.43.63-9.82S74.92,255.19,74.92,255.19Z" class="cls-124" transform="translate(0 -60.95)"/><path d="M85.78,153.22c3.12,0.58,4.86,6.08,6.59,7.32l-5.49,3.2L85,159.42Z" class="cls-125" transform="translate(0 -60.95)"/><path d="M87.9,150.86C87.71,152.6,86,155.3,85,159.42s3.49,5.87,4.44,3.28S91,152,91,152a8.74,8.74,0,0,0,2.8-2.64c0.69-1.37,1.06-1.11-.42-2.8-0.87-1-.83-1.62-1.89-2.44a0.78,0.78,0,0,0-1.28.06L88.32,146c-0.2-.18-0.51,0-0.69.25l-0.56.66a1.82,1.82,0,0,0-.56,1.08C86.49,149.48,88.08,149.13,87.9,150.86Z" class="cls-124" transform="translate(0 -60.95)"/><path d="M91.12,151.92a3.18,3.18,0,0,1-.29-0.36,0.86,0.86,0,0,1-.14-0.76,1.26,1.26,0,0,1-1.15-.61,0.51,0.51,0,0,0-.18-0.22,2.73,2.73,0,0,0-.31-0.06c-0.32-.12-0.14-0.67-0.41-0.88a1.58,1.58,0,0,0-.49-0.13,0.62,0.62,0,0,1-.37-0.61,1.38,1.38,0,0,1,.28-0.7c0.31-.46,1.12-0.89,1-1.51a1.23,1.23,0,0,0-.28-0.51l-0.44.43c-0.2-.18-0.51,0-0.69.25l-0.56.66a1.82,1.82,0,0,0-.56,1.08c0,1.49,1.57,1.14,1.38,2.87,0,0.07,0,.15,0,0.23a3.26,3.26,0,0,1,.59,1.06,5.3,5.3,0,0,1,0,2.33,59.34,59.34,0,0,1-1.26,6.44,3,3,0,0,0-.14,1.19,2.24,2.24,0,0,0,1,1.36,2.1,2.1,0,0,0,.51.28,1.78,1.78,0,0,0,.93-1C90.43,160.11,91,152,91,152Z" class="cls-126" transform="translate(0 -60.95)"/><path d="M33.48,106a22.29,22.29,0,0,0-4.55-1C28,105,28,104.91,28,104.35s-0.1-.51.41-0.43a2.73,2.73,0,0,0,1,0s-1.49-1-1.1-1.33,0.66-.76,1-0.08a3.15,3.15,0,0,0,2.09,1.14C32,103.69,33.48,106,33.48,106Z" class="cls-127" transform="translate(0 -60.95)"/><path d="M46.75,111.71c-2.79,3.31-3.14,13.06-4,16.49L49,128.89,48.34,118.2Z" class="cls-125" transform="translate(0 -60.95)"/><path d="M39.8,108.56s-3.7-.78-4.49-1.07A19.79,19.79,0,0,1,31,103.72c-0.93-1.14-.85-1.35-0.07-1.57s1.07,0.36,1.85,1.5a4.32,4.32,0,0,0,3.88,1.62,1.66,1.66,0,0,1,.07-0.9,5,5,0,0,1-1.62-1.57c-0.27-.71.73-0.71,1.16-0.36s2,1.78,3.49,1.85,2.35,1.78,3.13,3.63,5.41,7.83,5.41,7.83l-1.64,7.83s-3.06-4.77-3.92-8S41.93,110.55,39.8,108.56Z" class="cls-128" transform="translate(0 -60.95)"/><path d="M66.3,225.83L62,256a0.55,0.55,0,0,0,.26.52l6.25,3.81a0.56,0.56,0,0,0,.78-0.2l1.66-2.83H82.46l0.39-23.62s3.12-5.86,3.9-7.22-2-5.47-2-5.47a108.46,108.46,0,0,0-2.39-49.44s3.08,1.61,5.13,0,4.83-11,4.83-11a13.42,13.42,0,0,1-6.59-7.32L84,158.46s-2.2-6.27-2.93-9.34-5-3.37-5-3.37l-1.21-.31,1.21,5.51s-6.52-5.71-7-6.74S67,143.4,67,143.4L46.75,111.71s-1.61,13-4,16.49c0,0,14.88,16.42,18.39,25.6s3.9,13.67,2.93,16.6-7.93,12.5-5.86,20.89C60.7,201.19,67,215.66,66.3,225.83Z" class="cls-129" transform="translate(0 -60.95)"/><path d="M80.28,120.93c1.78,1.48.51,3.08-1.32,4.39s-8.33,4-9.59,3.29c-1.8-1.08-3.36,2.67-1.12,3.68a15.89,15.89,0,0,0-2.45,3.8c-0.69,2.09-4.92-.67-4.34-7.7S72.08,114.12,80.28,120.93Z" class="cls-119" transform="translate(0 -60.95)"/><path d="M62.49,258.65a1.44,1.44,0,0,0-1.68.23c-0.82.74-3.14,2.88-3.32,3.2s0.27,1,.64.64S60,260.94,60,260.94a7.79,7.79,0,0,1-.32,2.18c-0.34,1.1-1,6.2-.34,7.43s2.17,1.82,2.86,1a2,2,0,0,0,.56-2.19s-1.74.23-2.19-1.09,0.59-4.87.73-6.28S61.66,258.69,62.49,258.65Z" class="cls-130" transform="translate(0 -60.95)"/><path d="M74.75,266.26c-0.62.11-.64,2-0.33,3.19a10.94,10.94,0,0,1,.32,2.49h0.64V269.1a6.3,6.3,0,0,1,2.23,1.6,1.89,1.89,0,0,0,1.59,1.24h7.65c0.87,0,1.31-.34.32-1.24a5.82,5.82,0,0,0-2.21-.78,1.34,1.34,0,0,1-1.39,1c-1.17,0-3.4.18-4.1-.44S74.63,266.92,74.75,266.26Z" class="cls-130" transform="translate(0 -60.95)"/><path d="M68.12,143.45a4,4,0,0,1,.49,0,4.66,4.66,0,0,1,1.27.31,5.1,5.1,0,0,1,1.6,1,10.31,10.31,0,0,1,.69.77c0.18,0.21.41,0.45,0.62,0.66s0.44,0.42.67,0.6a3.75,3.75,0,0,0,.64.43l0.11,0.05s0,0,.08,0a0.09,0.09,0,0,0,.07,0,0.54,0.54,0,0,0,.28-0.34,4,4,0,0,0,.25-1.1,1.94,1.94,0,0,0,0-.47,1.2,1.2,0,0,1,.31.4,2.66,2.66,0,0,1,.34,1.33,1.49,1.49,0,0,1-.44,1.09,1.29,1.29,0,0,1-.75.35,1.46,1.46,0,0,1-.38,0,2,2,0,0,1-.35-0.07,3.75,3.75,0,0,1-1.06-.54,6.17,6.17,0,0,1-.85-0.72,6.88,6.88,0,0,1-.72-0.85l-0.52-.77a7.64,7.64,0,0,0-1.06-1.18c-0.36-.32-0.69-0.58-0.93-0.76Z" class="cls-131" transform="translate(0 -60.95)"/><path d="M87.82,146.5a0.47,0.47,0,0,0-.15.41,0.26,0.26,0,0,0,.17.24,1.29,1.29,0,0,0,.59,0,1.22,1.22,0,0,0,.78-0.43c0.21-.22.53-0.46,0.74-0.68a2.84,2.84,0,0,0,.91-1.06,0.33,0.33,0,0,0,0-.16,0.38,0.38,0,0,0-.07-0.16,1,1,0,0,0-.65-0.57,1.94,1.94,0,0,0-1.47,1.12A7.73,7.73,0,0,1,87.82,146.5Z" class="cls-132" transform="translate(0 -60.95)"/><path d="M79.17,132.92c-0.11,1.06-.23,1.2.31,1.38s1.54,0.32,1.64-.73-0.18-2.73-.72-2.91S79.28,131.86,79.17,132.92Z" class="cls-133" transform="translate(0 -60.95)"/><path d="M72.94,135.13c0.79,2,2.22,3.45,3.84,2.56s2.42-2.79,1.06-3.58c-1.72-1-2.45-1.8-3.79-1.84C73.11,132.25,72.41,133.76,72.94,135.13Z" class="cls-134" transform="translate(0 -60.95)"/><path d="M77.84,134.12c-1.72-1-2.45-1.8-3.79-1.84a1,1,0,0,0-.73.35,8.36,8.36,0,0,0,2.46,1.57,19.43,19.43,0,0,1,2.66,1.63A1.35,1.35,0,0,0,77.84,134.12Z" class="cls-131" transform="translate(0 -60.95)"/><path d="M76.87,128.19a1.37,1.37,0,0,1,.25-0.16,1.07,1.07,0,0,1,.29-0.1,1.49,1.49,0,0,1,.37,0,2.16,2.16,0,0,1,.57.23,1.32,1.32,0,0,1,.24.18,1.28,1.28,0,0,1-.29,0,1.91,1.91,0,0,1-.29,0l-0.31,0a1.13,1.13,0,0,0-.27-0.06l-0.27,0A1.27,1.27,0,0,1,76.87,128.19Z" class="cls-129" transform="translate(0 -60.95)"/><path d="M76,130.38s0.12-.26.34-0.64a2.11,2.11,0,0,1,.53-0.59,1.11,1.11,0,0,1,.53-0.2,1.27,1.27,0,0,1,.55.05,0.86,0.86,0,0,1,.5.45,1.11,1.11,0,0,1,.07.55,4.61,4.61,0,0,1-.14.73c-0.12.41-.19,0.69-0.19,0.69a2.52,2.52,0,0,1-.18-0.71L77.9,130a0.48,0.48,0,0,0-.1-0.23,0.32,0.32,0,0,0-.13-0.06,1,1,0,0,0-.27,0,0.42,0.42,0,0,0-.23,0,4.29,4.29,0,0,0-.56.32A2.88,2.88,0,0,1,76,130.38Z" class="cls-129" transform="translate(0 -60.95)"/><path d="M74.36,144.6a7.77,7.77,0,0,1-.35-5.19l-0.28-.28c-1.06-1.07-3.29-4.33-4.94-4a7,7,0,0,0,1.08,4.42C70.78,141.09,72.46,143.62,74.36,144.6Z" class="cls-135" transform="translate(0 -60.95)"/><path d="M87.27,166c-1.1-.07-2.29.51-3.46,0.46a14.47,14.47,0,0,1-4.15-.9c-2.52-.89-4.95-2.14-7.6-2.47a0.73,0.73,0,0,0-.44,0,0.76,0.76,0,0,0-.29.44c-2.08,5.73-4.17,11.53-4.88,17.59a10,10,0,0,0,.33,4.82c0.64,1.62,2,2.85,3.1,4.17a20.24,20.24,0,0,1,4.3,8.53c0.37,1.62.55,3.29,1.08,4.86A22.51,22.51,0,0,0,77.53,208l6.56,10.74c0.27,0.44.56,0.9,0.87,1.34a108.52,108.52,0,0,0-2.54-48.59s3.07,1.61,5.13,0a11.83,11.83,0,0,0,2.37-4A4.16,4.16,0,0,0,87.27,166Z" class="cls-136" transform="translate(0 -60.95)"/><path d="M85.78,153.22L84,158.46s-2.2-6.27-2.93-9.34c-0.53-2.23-2.9-3-4.17-3.25,0.1,0.88,1.1,2.15,1.45,2.81a108.08,108.08,0,0,1,5.88,13.57c0.62,1.75,1.17,3.77.23,5.37-0.65,1.1-2,1.92-2,3.2a2.07,2.07,0,0,0,.2.84c0.82,0.35,3.16,1.17,4.83-.14,2.05-1.61,4.83-11,4.83-11A13.42,13.42,0,0,1,85.78,153.22Z" class="cls-137" transform="translate(0 -60.95)"/><path d="M46.08,116.26c0.25,0.29.5,0.59,0.75,0.93a46.89,46.89,0,0,1,3,5.31l5.81,10.45c3.42,6.15,6.87,12.38,8.72,19.16,0.9,3.31,1.46,6.83,3.38,9.67,1.69-5.65.43-11.71-.84-17.47l-0.41-1.83L46.75,111.71S46.51,113.67,46.08,116.26Z" class="cls-138" transform="translate(0 -60.95)"/><path d="M70.94,257.28H82.46l0.39-23.62,0.72-1.35c-2.11,1.91-3.41,4.6-4.63,7.2l-7.26,15.55a7.55,7.55,0,0,0-.76,2.25v0Z" class="cls-139" transform="translate(0 -60.95)"/><path d="M76.51,222.31c-1.76-12.07-14.69-20.64-15.14-32.83-0.14-3.74,1-7.52.23-11.19a8.69,8.69,0,0,0-2,1.54c-1.39,3.57-2.32,7.64-1.38,11.47,2.45,9.9,6.88,26.79,6.17,37L62,256.32l0.26,0.16c3.65-3.9,6.41-8.7,8.9-13.48C74.45,236.56,77.56,229.48,76.51,222.31Z" class="cls-140" transform="translate(0 -60.95)"/><path d="M90.38,152.57a3.54,3.54,0,0,0-1-1.35,0.69,0.69,0,0,0-.25-0.16,0.66,0.66,0,0,0-.44.08,3.4,3.4,0,0,0-1.56,1.44,0.81,0.81,0,0,0,.1,1,0.44,0.44,0,0,0,.23.18,0.41,0.41,0,0,0,.39-0.21,1.26,1.26,0,0,1,.48-0.41,2.31,2.31,0,0,1,.66-0.23c0.36,0.88-.71,2.41,0,2.93a10.45,10.45,0,0,0,1.35-1.22A4.2,4.2,0,0,0,90.38,152.57Z" class="cls-141" transform="translate(0 -60.95)"/><g id="_Group_" data-name="&lt;Group&gt;"><path id="_Path_" d="M48.86,83.47L56,88.17l0,0C57.39,89,61.14,85.92,63.72,82s4-8.58,2.6-9.51l0,0-7.13-4.7Z" class="cls-142" data-name="&lt;Path&gt;" transform="translate(0 -60.95)"/><path d="M61.37,77c0.36-1.56.73-3.12,1.15-4.66a14.09,14.09,0,0,1,.67-1.84l-4-2.66L48.86,83.47,56,88.17l0,0c1.07,0.68,3.53-1,5.77-3.57A12.43,12.43,0,0,1,61,82.34,12.23,12.23,0,0,1,61.37,77Z" class="cls-143" transform="translate(0 -60.95)"/><polygon id="_Path_2" points="63.01 .01 49.91 13.61 44.77 29.52 45.25 29.83 59.3 16.49 63.49 .32 63.01 .01" class="cls-144" data-name="&lt;Path&gt;"/><polygon id="_Path_3" points="44.79 29.48 49.92 13.59 63.01 0 58.84 16.16 44.79 29.48" class="cls-142" data-name="&lt;Path&gt;"/><ellipse id="_Path_4" cx="54.1" cy="75.82" class="cls-144" data-name="&lt;Path&gt;" rx="2.65" ry=".74" transform="translate(-38.98 18.25) rotate(-56.57)"/><path id="_Path_5" d="M54.1,75.82c-2.58,1.86-4,5.16-4.83,8.21a8.23,8.23,0,0,0-.43,4.07,1.21,1.21,0,0,0,.39.73,1.8,1.8,0,0,0,1.34.06c0.74-.11,2.19-0.07,2.41.86a1.36,1.36,0,0,1-.17.95,4,4,0,0,1-.61.77,6.5,6.5,0,0,0-1,1.13c-0.19.35-.36,0.74-0.52,1.11a4.13,4.13,0,0,0-.27,3.13" class="cls-145" data-name="&lt;Path&gt;" transform="translate(0 -60.95)"/><g id="_Group_2" data-name="&lt;Group&gt;"><path id="_Path_6" d="M53,101.31a0.26,0.26,0,0,1-.17.31l-2.21.55a0.26,0.26,0,0,1-.3-0.19l-0.45-5.14a0.25,0.25,0,0,1,.18-0.3l0.63-.16a0.25,0.25,0,0,1,.3.18Z" class="cls-146" data-name="&lt;Path&gt;" transform="translate(0 -60.95)"/><path id="_Path_7" d="M50.71,96a0.12,0.12,0,0,1-.08.14L50,96.35a0.12,0.12,0,0,1-.14-0.08h0a0.12,0.12,0,0,1,.08-0.14L50.57,96a0.12,0.12,0,0,1,.14.08h0Z" class="cls-147" data-name="&lt;Path&gt;" transform="translate(0 -60.95)"/><path id="_Path_8" d="M50.77,96.26a0.12,0.12,0,0,1-.08.14L50,96.57a0.12,0.12,0,0,1-.14-0.08h0A0.12,0.12,0,0,1,50,96.35l0.67-.17a0.12,0.12,0,0,1,.14.08h0Z" class="cls-147" data-name="&lt;Path&gt;" transform="translate(0 -60.95)"/><path id="_Path_9" d="M50.66,95.81a0.12,0.12,0,0,1-.08.14l-0.67.17A0.12,0.12,0,0,1,49.76,96h0a0.12,0.12,0,0,1,.08-0.14l0.67-.17a0.12,0.12,0,0,1,.14.08h0Z" class="cls-147" data-name="&lt;Path&gt;" transform="translate(0 -60.95)"/></g></g><path d="M270.58,244.71c-2.57-1.06-4.55-.26-4.55,1.78s2.9,1.32,4.55-.92" class="cls-148" transform="translate(0 -60.95)"/><path d="M272.51,250.16c-2.55-.76-4-4.16-1.87-8.06s5.52-2.46,6.28-4.07,1.36-3,3.22-1.7,2.12,5.6.85,9.59-4,3.56-3.48,4.84,1.78,3.13,1,6c-0.68,2.57-1.87,3.73-.08,4.41a2.31,2.31,0,0,1,.93,3.53c-0.68.46-.34-1.07-1.61-1.49s-3.14-1.78-3.22-3.22a3.66,3.66,0,0,0,1.44,4.38c2.55,1.9,2.89,4,2.29,5.65a2.28,2.28,0,0,1,1.87.59c0.59,0.75.76,1.33,0,1.33H262.07c-3,0-7-3.88-8.06-10.5s0.68-7.89-1.87-10.78c0,0,1.19,4.24-2.55,5.52s-11.88-.08-10.69-9.84,15.44-13,20.37-5.08-0.25,18.5,1.87,23.63,4.33,4.7,4.33,4.7-3.31-3.65-1.1-10.82A12.42,12.42,0,0,1,272.51,250.16Z" class="cls-149" transform="translate(0 -60.95)"/><path d="M280.15,236.32c-1.43-1-2.11-.4-2.7.64h0a3.08,3.08,0,0,1,1.64,1.81,6.3,6.3,0,0,1,.6,1.53,4.1,4.1,0,0,1-.07,1.67,7.29,7.29,0,0,1-1.73,3.89c-0.73.71-1.7,1.12-2.44,1.83a4.15,4.15,0,0,0-1.22,2.36,0.87,0.87,0,0,0,0,.44,1.08,1.08,0,0,0,.43.44,5.5,5.5,0,0,1,2.12,5.43c-0.14.68-.41,1.32-0.53,2a2.6,2.6,0,0,0,.3,2c0.79,1.1,2.73,1.12,3.17,2.4a3,3,0,0,1,.12.67,2.27,2.27,0,0,0-1.41-2.25c-1.78-.68-0.59-1.84.08-4.41,0.76-2.89-.51-4.75-1-6s2.21-.85,3.48-4.84S282,237.6,280.15,236.32Z" class="cls-150" transform="translate(0 -60.95)"/><path d="M276.92,238c-0.82-1.23-.42-3,1.27-2.89s3.21,1.13,2.71,2S277.6,239,276.92,238Z" class="cls-51" transform="translate(0 -60.95)"/><path d="M271.38,246.36c-2.88-.8-5.84,1.52-5.28,4.24s3.84-.16,5.28-2.88S271.38,246.36,271.38,246.36Z" class="cls-149" transform="translate(0 -60.95)"/><path d="M266.91,250.09c-1-1.36,1.53-3.52,3-3.33C270.2,248.2,268.28,251.9,266.91,250.09Z" class="cls-151" transform="translate(0 -60.95)"/><ellipse cx="274.91" cy="181.22" class="cls-51" rx=".72" ry=".44"/><path d="M272.5,265.09c4.24,2.8,2,5.87,2,5.87a23.28,23.28,0,0,1,3.78-.93c0.59-1.69.25-3.74-2.29-5.65a3.66,3.66,0,0,1-1.44-4.38c-1.32-1.33-1.24-4.12-1.24-4.12S268.26,262.29,272.5,265.09Z" class="cls-152" transform="translate(0 -60.95)"/><path d="M256.8,257.77c2.3-8.23-2.46-15.53-9.81-13.29s-4.59,12.11.68,12.08a7.88,7.88,0,0,0,1.93-.37c3.73-1.27,2.55-5.52,2.55-5.52,2.55,2.89.85,4.16,1.87,10.78,0.82,5.36,3.65,8.92,6.27,10.09A14.43,14.43,0,0,1,256.8,257.77Z" class="cls-153" transform="translate(0 -60.95)"/><path d="M264.36,258.77c-2.21,7.17,1.1,10.82,1.1,10.82a23.3,23.3,0,0,1,2.3.68c-6.79-13.54,4.75-20.12,4.75-20.12A12.42,12.42,0,0,0,264.36,258.77Z" class="cls-154" transform="translate(0 -60.95)"/><path d="M252.14,250.67c-3.2-2.92-6.18-1-5.84,1.1s2.91,1.38,2.91,1.38-2.49-.63-1.15-1.58S252.14,250.67,252.14,250.67Z" class="cls-155" transform="translate(0 -60.95)"/><path d="M286.34,258.48c-0.91.91-4.37,3.19-4.53,6.75s1,4.21.89,5.36a2.08,2.08,0,0,1,1.65.57c0.78,0.72,4.11.92,6.55-.36s4.47-4.47,4.47-4.47Z" class="cls-156" transform="translate(0 -60.95)"/><path d="M286.34,258.48c-0.15.15-.38,0.35-0.65,0.58,0.47,1.76,2.51,3.85,3.18,4.82a2.83,2.83,0,0,1,.63,1.43,2.86,2.86,0,0,1-.89,1.83,7.93,7.93,0,0,1-3.09,2.6c-0.68.25-1.41,0.31-2.11,0.52a3.55,3.55,0,0,0-.72.3s0,0,0,0a2.08,2.08,0,0,1,1.65.57c0.78,0.72,4.11.92,6.55-.36s4.47-4.47,4.47-4.47Z" class="cls-157" transform="translate(0 -60.95)"/><path d="M292.27,260.31a4,4,0,0,1,2.84-1.47c0.39,0.07.72,0.85,0.26,1s-2.05.75-2.35,1.5S292.27,260.31,292.27,260.31Z" class="cls-158" transform="translate(0 -60.95)"/><path d="M288.33,256a2.17,2.17,0,0,0-2.51.81c-0.62.68-.52,1.57,0.36,2.38s7.38,7.65,8.32,8.33,1.47,0.6,2.41-.21a1.68,1.68,0,0,0,.13-2.6C296.31,264,289.4,256.46,288.33,256Z" class="cls-159" transform="translate(0 -60.95)"/><path d="M297,264.74c-0.26-.28-1.31-1.43-2.61-2.8a5.41,5.41,0,0,0,0,.76,1.59,1.59,0,0,1-1.77,1.39,4.14,4.14,0,0,1-2.22-1.13,12.94,12.94,0,0,1-3.13-3.39c-0.28-.48-1.1-1.73-1.81-1.26a2.47,2.47,0,0,0,.65.91c0.88,0.82,7.38,7.65,8.32,8.33s1.47,0.6,2.41-.21A1.68,1.68,0,0,0,297,264.74Z" class="cls-160" transform="translate(0 -60.95)"/></svg>