<svg id="Layer_1" data-name="Layer 1" xmlns="http://www.w3.org/2000/svg" xmlns:xlink="http://www.w3.org/1999/xlink" viewBox="0 0 509.81 275.12"><defs><style>.cls-1{fill:#fff;}.cls-2{fill:#b8c0d7;}.cls-3{fill:#e18173;}.cls-4{fill:#d1725f;}.cls-5{fill:#dee6fd;}.cls-6{fill:#a6aec5;}.cls-7{fill:url(#linear-gradient);}.cls-8{fill:url(#linear-gradient-2);}.cls-9{fill:#472f5b;}.cls-10{fill:url(#linear-gradient-3);}.cls-11{fill:url(#linear-gradient-4);}.cls-12{fill:#29163a;}.cls-13{fill:url(#linear-gradient-5);}.cls-14{fill:url(#linear-gradient-6);}.cls-15{fill:url(#linear-gradient-7);}.cls-16{fill:#6e425a;}.cls-17{fill:url(#linear-gradient-8);}.cls-18{fill:#b1615f;}.cls-19{fill:#aa504b;}.cls-20{fill:#b97577;}.cls-21{fill:url(#linear-gradient-9);}.cls-22{fill:url(#linear-gradient-10);}.cls-23{fill:url(#linear-gradient-11);}.cls-24{fill:#283047;}.cls-25{fill:#bf6e73;}.cls-26{fill:#210e26;}.cls-27{fill:url(#linear-gradient-12);}.cls-28{fill:url(#linear-gradient-13);}.cls-29{fill:url(#linear-gradient-14);}.cls-30{fill:url(#linear-gradient-15);}.cls-31{fill:url(#linear-gradient-16);}.cls-32{fill:#020025;}.cls-33{fill:url(#linear-gradient-17);}.cls-34{fill:#1d002e;}.cls-35{fill:#e8aa5d;}.cls-36{fill:#66263f;}.cls-37{fill:url(#linear-gradient-18);}.cls-38{fill:url(#linear-gradient-19);}.cls-39{fill:#d2d1c9;}.cls-40{fill:url(#linear-gradient-20);}.cls-41{fill:#51102e;}.cls-42{fill:#351a48;}.cls-43{fill:url(#linear-gradient-21);}.cls-44{fill:url(#linear-gradient-22);}.cls-45{fill:#e9c35f;}.cls-46{fill:url(#linear-gradient-23);}.cls-47{fill:#99660a;}.cls-144,.cls-48,.cls-62,.cls-65,.cls-81{fill:none;}.cls-48,.cls-65{stroke:#99660a;stroke-width:0.42px;}.cls-144,.cls-48,.cls-62{stroke-miterlimit:10;}.cls-49{fill:#3c93be;}.cls-50{fill:url(#linear-gradient-24);}.cls-51{fill:#281547;}.cls-52{fill:#e5f0ff;}.cls-53{fill:#b8c8e9;}.cls-54{fill:#c8d6f3;}.cls-55{fill:url(#linear-gradient-25);}.cls-56{fill:#190e30;}.cls-57{fill:url(#linear-gradient-26);}.cls-58{fill:url(#linear-gradient-27);}.cls-59{fill:url(#linear-gradient-28);}.cls-60{fill:#1f1a66;}.cls-61{fill:#2d68be;}.cls-62{stroke:#1f1a66;stroke-width:0.35px;}.cls-63{fill:#8aa1cc;}.cls-64{fill:#5f223e;}.cls-65,.cls-81{stroke-linejoin:round;}.cls-66{fill:url(#linear-gradient-29);}.cls-67{fill:#dae0f1;}.cls-68{fill:#4d313c;}.cls-69{fill:#0c0f2c;}.cls-70{fill:#d67753;}.cls-71{fill:#d13b70;}.cls-72{fill:url(#linear-gradient-30);}.cls-73{fill:#43222d;}.cls-74{fill:url(#linear-gradient-31);}.cls-75{fill:#cb1152;}.cls-76{fill:#ab99c8;}.cls-77{fill:url(#linear-gradient-32);}.cls-78{fill:url(#linear-gradient-33);}.cls-79{fill:#c1cbe6;}.cls-80{fill:url(#linear-gradient-34);}.cls-81{stroke:#c1cbe6;stroke-width:0.8px;}.cls-144,.cls-81{stroke-linecap:round;}.cls-82{fill:url(#linear-gradient-35);}.cls-83{fill:#d5fcf0;}.cls-84{fill:url(#linear-gradient-36);}.cls-85{fill:#d8d25d;}.cls-86{fill:url(#linear-gradient-37);}.cls-87{fill:url(#linear-gradient-38);}.cls-88{fill:#d21d50;}.cls-89{fill:#007daa;}.cls-90{fill:url(#linear-gradient-39);}.cls-91{fill:#8b7b08;}.cls-92{fill:#130f30;}.cls-93{fill:#d9ffff;}.cls-94{fill:#732741;}.cls-95{fill:#133963;}.cls-96{fill:#d8d0ca;}.cls-97{fill:#ed7652;}.cls-98{fill:#de4a6c;}.cls-99{fill:url(#linear-gradient-40);}.cls-100{fill:url(#linear-gradient-41);}.cls-101{fill:url(#linear-gradient-42);}.cls-102{fill:#e05b7b;}.cls-103{fill:#c6a9a1;}.cls-104{fill:url(#linear-gradient-43);}.cls-105{fill:#ee8b6f;}.cls-106{fill:url(#linear-gradient-44);}.cls-107{fill:#d46655;}.cls-108{fill:url(#linear-gradient-45);}.cls-109{fill:#254870;}.cls-110{fill:url(#linear-gradient-46);}.cls-111{fill:url(#linear-gradient-47);}.cls-112{fill:#e6e4eb;}.cls-113{fill:url(#linear-gradient-48);}.cls-114{fill:url(#linear-gradient-49);}.cls-115{fill:url(#linear-gradient-50);}.cls-116{fill:url(#linear-gradient-51);}.cls-117{fill:#001e3c;}.cls-118{fill:url(#linear-gradient-52);}.cls-119{fill:#d8d25e;}.cls-120{fill:#d8d35e;}.cls-121{fill:url(#linear-gradient-53);}.cls-122{fill:#d67953;}.cls-123{fill:url(#linear-gradient-54);}.cls-124{fill:#000f25;}.cls-125{fill:url(#linear-gradient-55);}.cls-126{fill:#d5592d;}.cls-127{fill:#d67653;}.cls-128{fill:#110f30;}.cls-129{fill:#392c3b;}.cls-130{fill:#d6fdff;}.cls-131{fill:#d66952;}.cls-132{fill:#ca1a6d;}.cls-133{fill:url(#linear-gradient-56);}.cls-134{fill:url(#linear-gradient-57);}.cls-135{fill:url(#linear-gradient-58);}.cls-136{fill:url(#linear-gradient-59);}.cls-137{fill:url(#linear-gradient-60);}.cls-138{fill:url(#linear-gradient-61);}.cls-139{fill:#662234;}.cls-140{fill:#000f1e;}.cls-141{fill:url(#linear-gradient-62);}.cls-142{fill:#000f15;}.cls-143{fill:url(#linear-gradient-63);}.cls-144{stroke:#c1dd88;stroke-width:0.44px;}.cls-145{fill:#c1dd88;}.cls-146{fill:#b1ce7f;}.cls-147{fill:#792c29;}.cls-148{fill:#ac5642;}.cls-149{fill:url(#linear-gradient-64);}.cls-150{fill:#e4b17f;}.cls-151{fill:url(#linear-gradient-65);}.cls-152{fill:url(#linear-gradient-66);}.cls-153{fill:url(#linear-gradient-67);}.cls-154{fill:url(#linear-gradient-68);}.cls-155{fill:#926948;}.cls-156{fill:url(#linear-gradient-69);}.cls-157{fill:#340c10;}.cls-158{fill:#40151c;}.cls-159{fill:url(#linear-gradient-70);}</style><linearGradient id="linear-gradient" x1="345.56" y1="183.5" x2="351.55" y2="183.5" gradientTransform="matrix(1, 0.04, 0, -1, 24.69, 261.71)" gradientUnits="userSpaceOnUse"><stop offset="0" stop-color="#c36750"/><stop offset="1" stop-color="#e17c6c"/></linearGradient><linearGradient id="linear-gradient-2" x1="347.93" y1="169.54" x2="350.9" y2="178.86" xlink:href="#linear-gradient"/><linearGradient id="linear-gradient-3" x1="378.19" y1="103.47" x2="396.25" y2="32.64" gradientTransform="matrix(1, 0, -0.02, -1, 4.61, 273.49)" gradientUnits="userSpaceOnUse"><stop offset="0" stop-color="#472f5b"/><stop offset="1" stop-color="#301342"/></linearGradient><linearGradient id="linear-gradient-4" x1="381.23" y1="61.58" x2="429.2" y2="61.58" gradientTransform="matrix(1, 0, -0.04, -1, 11.23, 273.7)" xlink:href="#linear-gradient-3"/><linearGradient id="linear-gradient-5" x1="350.12" y1="136.31" x2="363.96" y2="136.31" gradientTransform="matrix(1, 0.04, 0, -1, 24.69, 261.71)" gradientUnits="userSpaceOnUse"><stop offset="0.01" stop-color="#b8c0d7"/><stop offset="1" stop-color="#a7afc6"/></linearGradient><linearGradient id="linear-gradient-6" x1="393.51" y1="114.21" x2="396.05" y2="146.96" xlink:href="#linear-gradient-5"/><linearGradient id="linear-gradient-7" x1="379.1" y1="167.85" x2="374.78" y2="147.13" gradientTransform="matrix(1, 0.04, 0, -1, 24.7, 261.71)" gradientUnits="userSpaceOnUse"><stop offset="0.01" stop-color="#b8c0d7"/><stop offset="1" stop-color="#d4dcf3"/></linearGradient><linearGradient id="linear-gradient-8" x1="374.49" y1="196.01" x2="384.3" y2="198.76" gradientTransform="matrix(1, 0.04, 0, -1, 24.69, 261.71)" gradientUnits="userSpaceOnUse"><stop offset="0" stop-color="#673850"/><stop offset="1" stop-color="#55215a"/></linearGradient><linearGradient id="linear-gradient-9" x1="393.05" y1="125.85" x2="393.17" y2="117.84" xlink:href="#linear-gradient"/><linearGradient id="linear-gradient-10" x1="394.39" y1="137.97" x2="403.9" y2="154.64" xlink:href="#linear-gradient-5"/><linearGradient id="linear-gradient-11" x1="350.28" y1="173.28" x2="352.61" y2="162.81" xlink:href="#linear-gradient-5"/><linearGradient id="linear-gradient-12" x1="377.21" y1="179.23" x2="376.36" y2="175.95" xlink:href="#linear-gradient"/><linearGradient id="linear-gradient-13" x1="374.77" y1="180.98" x2="374.77" y2="180.98" gradientTransform="matrix(1, 0.04, 0, -1, 24.7, 261.71)" xlink:href="#linear-gradient"/><linearGradient id="linear-gradient-14" x1="383.72" y1="212.16" x2="380.62" y2="215.53" gradientTransform="matrix(1, 0.04, 0, -1, 24.69, 261.71)" gradientUnits="userSpaceOnUse"><stop offset="0.01" stop-color="#b8c0d7"/><stop offset="0.56" stop-color="#c7cfe6"/><stop offset="1" stop-color="#d4dcf3"/></linearGradient><linearGradient id="linear-gradient-15" x1="394.96" y1="194.09" x2="396.85" y2="201.33" gradientTransform="matrix(1, 0.04, 0, -1, 24.69, 261.71)" gradientUnits="userSpaceOnUse"><stop offset="0.01" stop-color="#b3bbd2"/><stop offset="1" stop-color="#a7afc6"/></linearGradient><linearGradient id="linear-gradient-16" x1="386.77" y1="215.34" x2="397.82" y2="215.34" xlink:href="#linear-gradient-15"/><linearGradient id="linear-gradient-17" x1="415.06" y1="171.8" x2="409.49" y2="174.3" gradientTransform="matrix(1, 0, -0.02, -1, 4.12, 273.73)" xlink:href="#linear-gradient-5"/><linearGradient id="linear-gradient-18" x1="304.63" y1="207.16" x2="309.38" y2="209.7" gradientTransform="matrix(1, 0, 0, -1, -2.5, 273.52)" gradientUnits="userSpaceOnUse"><stop offset="0" stop-color="#5a1d3b"/><stop offset="1" stop-color="#51102e"/></linearGradient><linearGradient id="linear-gradient-19" x1="303.94" y1="171.86" x2="301.73" y2="180.72" xlink:href="#linear-gradient-18"/><linearGradient id="linear-gradient-20" x1="297.1" y1="210.07" x2="302.98" y2="211.05" gradientTransform="matrix(1, 0, 0, -1, -2.5, 273.52)" gradientUnits="userSpaceOnUse"><stop offset="0" stop-color="#cfcdc1"/><stop offset="1" stop-color="#bcb38e"/></linearGradient><linearGradient id="linear-gradient-21" x1="306.95" y1="172.9" x2="345.88" y2="172.9" gradientTransform="matrix(1, 0, 0, -1, -2.5, 273.52)" gradientUnits="userSpaceOnUse"><stop offset="0" stop-color="#e9c35f"/><stop offset="1" stop-color="#e8a35c"/></linearGradient><linearGradient id="linear-gradient-22" x1="347.85" y1="175.62" x2="319.04" y2="166.1" gradientTransform="matrix(1, 0, 0, -1, -2.5, 273.52)" gradientUnits="userSpaceOnUse"><stop offset="0" stop-color="#e8851c"/><stop offset="1" stop-color="#e8a35c"/></linearGradient><linearGradient id="linear-gradient-23" x1="316.16" y1="111.94" x2="295.17" y2="158.98" gradientTransform="matrix(1, 0, 0, -1, -2.5, 273.52)" gradientUnits="userSpaceOnUse"><stop offset="0" stop-color="#e89e5b"/><stop offset="1" stop-color="#e8a35c"/></linearGradient><linearGradient id="linear-gradient-24" x1="312.93" y1="69.5" x2="323.82" y2="96.19" gradientTransform="matrix(1, 0, 0, -1, -2.5, 273.52)" gradientUnits="userSpaceOnUse"><stop offset="0" stop-color="#0b78a9"/><stop offset="1" stop-color="#2e8bb8"/></linearGradient><linearGradient id="linear-gradient-25" x1="310.54" y1="160.13" x2="304.97" y2="153.67" xlink:href="#linear-gradient-18"/><linearGradient id="linear-gradient-26" x1="315.15" y1="197.85" x2="324.59" y2="197.85" xlink:href="#linear-gradient-18"/><linearGradient id="linear-gradient-27" x1="278.49" y1="148.03" x2="290.19" y2="148.03" xlink:href="#linear-gradient-21"/><linearGradient id="linear-gradient-28" x1="276.8" y1="136.07" x2="301.48" y2="136.07" xlink:href="#linear-gradient-21"/><linearGradient id="linear-gradient-29" x1="300.51" y1="221.35" x2="319.22" y2="206.63" gradientTransform="matrix(1, 0, 0, -1, -2.5, 273.52)" gradientUnits="userSpaceOnUse"><stop offset="0" stop-color="#351a48"/><stop offset="1" stop-color="#1d002e"/></linearGradient><linearGradient id="linear-gradient-30" x1="166.08" y1="84.83" x2="174.45" y2="104.15" gradientTransform="matrix(1, 0, 0, -1, -2.5, 273.52)" gradientUnits="userSpaceOnUse"><stop offset="0" stop-color="#d67753"/><stop offset="1" stop-color="#b66353"/></linearGradient><linearGradient id="linear-gradient-31" x1="171.37" y1="60.77" x2="164.82" y2="26.47" gradientTransform="matrix(1, 0, 0, -1, -2.5, 273.52)" gradientUnits="userSpaceOnUse"><stop offset="0" stop-color="#3b1621"/><stop offset="1" stop-color="#3b1621"/></linearGradient><linearGradient id="linear-gradient-32" x1="193.66" y1="20.07" x2="174.47" y2="59.07" gradientTransform="matrix(1, 0, 0, -1, -2.5, 273.52)" gradientUnits="userSpaceOnUse"><stop offset="0" stop-color="#472833"/><stop offset="1" stop-color="#43222d"/></linearGradient><linearGradient id="linear-gradient-33" x1="167.61" y1="86" x2="178.69" y2="74.39" gradientTransform="matrix(1, 0, 0, -1, -2.5, 273.52)" gradientUnits="userSpaceOnUse"><stop offset="0" stop-color="#d13b70"/><stop offset="1" stop-color="#8b3b70"/></linearGradient><linearGradient id="linear-gradient-34" x1="126.26" y1="161.16" x2="154.76" y2="123.5" gradientTransform="matrix(1, 0, 0, -1, -2.5, 273.52)" gradientUnits="userSpaceOnUse"><stop offset="0" stop-color="#4d313c"/><stop offset="1" stop-color="#3a1520"/></linearGradient><linearGradient id="linear-gradient-35" x1="152.22" y1="92.14" x2="157.43" y2="106.52" xlink:href="#linear-gradient-30"/><linearGradient id="linear-gradient-36" x1="191.54" y1="26.14" x2="197" y2="6.95" gradientTransform="matrix(1, 0, 0, -1, -2.5, 273.52)" gradientUnits="userSpaceOnUse"><stop offset="0" stop-color="#d5fcf0"/><stop offset="1" stop-color="#cef3c8"/></linearGradient><linearGradient id="linear-gradient-37" x1="203.7" y1="2.88" x2="198.19" y2="6.11" gradientTransform="matrix(1, 0, 0, -1, -2.5, 273.52)" gradientUnits="userSpaceOnUse"><stop offset="0" stop-color="#d8d25d"/><stop offset="1" stop-color="#d8b544"/></linearGradient><linearGradient id="linear-gradient-38" x1="166.76" y1="22.7" x2="158.02" y2="10.53" xlink:href="#linear-gradient-36"/><linearGradient id="linear-gradient-39" x1="166.93" y1="-1.81" x2="158.82" y2="3.29" xlink:href="#linear-gradient-37"/><linearGradient id="linear-gradient-40" x1="228.47" y1="54.42" x2="205.91" y2="25.49" gradientTransform="matrix(1, 0, 0, -1, -2.5, 273.52)" gradientUnits="userSpaceOnUse"><stop offset="0" stop-color="#c1447b"/><stop offset="1" stop-color="#de4a6c"/></linearGradient><linearGradient id="linear-gradient-41" x1="223.85" y1="63.1" x2="228.91" y2="68.67" gradientTransform="matrix(1, 0, 0, -1, -2.5, 273.52)" gradientUnits="userSpaceOnUse"><stop offset="0" stop-color="#d8d0ca"/><stop offset="1" stop-color="#cbbfaf"/></linearGradient><linearGradient id="linear-gradient-42" x1="228.19" y1="-1.29" x2="234.16" y2="7.28" gradientTransform="matrix(1, 0, 0, -1, -2.5, 273.52)" gradientUnits="userSpaceOnUse"><stop offset="0" stop-color="#ee8b6f"/><stop offset="1" stop-color="#de786b"/></linearGradient><linearGradient id="linear-gradient-43" x1="219.35" y1="10.77" x2="244.14" y2="47.26" gradientTransform="matrix(1, 0, 0, -1, -2.5, 273.52)" gradientUnits="userSpaceOnUse"><stop offset="0" stop-color="#c6a9a1"/><stop offset="1" stop-color="#be9b90"/></linearGradient><linearGradient id="linear-gradient-44" x1="221.14" y1="23.33" x2="248.36" y2="66.09" gradientTransform="matrix(1, 0, 0, -1, -2.5, 273.52)" gradientUnits="userSpaceOnUse"><stop offset="0" stop-color="#c1447b"/><stop offset="1" stop-color="#e05b7b"/></linearGradient><linearGradient id="linear-gradient-45" x1="189.47" y1="78.35" x2="222.1" y2="78.35" xlink:href="#linear-gradient-42"/><linearGradient id="linear-gradient-46" x1="319.32" y1="3.76" x2="320.62" y2="-8.74" gradientTransform="matrix(1, 0.03, 0.03, -1, -9.8, 245.01)" xlink:href="#linear-gradient-42"/><linearGradient id="linear-gradient-47" x1="251.55" y1="-0.67" x2="304.49" y2="-0.67" gradientTransform="matrix(1, 0.03, 0.03, -1, -9.8, 245.01)" xlink:href="#linear-gradient-43"/><linearGradient id="linear-gradient-48" x1="250.81" y1="20.99" x2="250.09" y2="69" gradientTransform="matrix(1, 0, 0, -1, -2.5, 273.52)" gradientUnits="userSpaceOnUse"><stop offset="0" stop-color="#e6e4eb"/><stop offset="1" stop-color="#d8d0ca"/></linearGradient><linearGradient id="linear-gradient-49" x1="256.26" y1="74.92" x2="278.04" y2="39.71" xlink:href="#linear-gradient-48"/><linearGradient id="linear-gradient-50" x1="230.68" y1="77.42" x2="253.24" y2="65.95" xlink:href="#linear-gradient-48"/><linearGradient id="linear-gradient-51" x1="249.87" y1="-14.43" x2="283.44" y2="-14.43" gradientTransform="matrix(1, 0.03, 0.03, -1, -9.8, 245.01)" xlink:href="#linear-gradient-43"/><linearGradient id="linear-gradient-52" x1="111.8" y1="172.81" x2="107.85" y2="185.92" gradientTransform="matrix(1, 0, 0, -1, -2.5, 273.52)" gradientUnits="userSpaceOnUse"><stop offset="0.01" stop-color="#d8d25e"/><stop offset="1" stop-color="#d7ac59"/></linearGradient><linearGradient id="linear-gradient-53" x1="69.73" y1="128.16" x2="95.52" y2="166.85" xlink:href="#linear-gradient-52"/><linearGradient id="linear-gradient-54" x1="112.31" y1="171.31" x2="96.78" y2="191.67" gradientTransform="matrix(1, 0, 0, -1, -2.5, 273.52)" gradientUnits="userSpaceOnUse"><stop offset="0.01" stop-color="#d67e54"/><stop offset="1" stop-color="#d54e4d"/></linearGradient><linearGradient id="linear-gradient-55" x1="118.68" y1="142.41" x2="120.42" y2="156.52" xlink:href="#linear-gradient-54"/><linearGradient id="linear-gradient-56" x1="104.79" y1="159.06" x2="95.12" y2="177.78" xlink:href="#linear-gradient-54"/><linearGradient id="linear-gradient-57" x1="92.18" y1="160.75" x2="114.43" y2="102.92" gradientTransform="matrix(1, 0, 0, -1, -2.5, 273.52)" gradientUnits="userSpaceOnUse"><stop offset="0.01" stop-color="#110f30"/><stop offset="1" stop-color="#050f25"/></linearGradient><linearGradient id="linear-gradient-58" x1="127.66" y1="130.51" x2="109.15" y2="146.53" xlink:href="#linear-gradient-57"/><linearGradient id="linear-gradient-59" x1="54.5" y1="220.85" x2="82.79" y2="171.13" xlink:href="#linear-gradient-57"/><linearGradient id="linear-gradient-60" x1="114.31" y1="19.55" x2="105.78" y2="33.28" xlink:href="#linear-gradient-57"/><linearGradient id="linear-gradient-61" x1="106.99" y1="34.09" x2="70.79" y2="93.38" gradientTransform="matrix(1, 0, 0, -1, -2.5, 273.52)" gradientUnits="userSpaceOnUse"><stop offset="0.01" stop-color="#110f30"/><stop offset="1" stop-color="#232443"/></linearGradient><linearGradient id="linear-gradient-62" x1="84.97" y1="250.72" x2="80.79" y2="255" gradientTransform="matrix(1, 0, 0, -1, -2.5, 273.52)" gradientUnits="userSpaceOnUse"><stop offset="0.01" stop-color="#000f1e"/><stop offset="1" stop-color="#000f1a"/></linearGradient><linearGradient id="linear-gradient-63" x1="57.58" y1="264.12" x2="91.42" y2="264.12" gradientTransform="matrix(1, 0, 0, -1, 0.01, 278)" xlink:href="#linear-gradient-57"/><linearGradient id="linear-gradient-64" x1="360.19" y1="43.3" x2="367.6" y2="21.94" gradientTransform="matrix(1, 0, 0, -1, -2.5, 273.52)" gradientUnits="userSpaceOnUse"><stop offset="0" stop-color="#ac5642"/><stop offset="1" stop-color="#792c29"/></linearGradient><linearGradient id="linear-gradient-65" x1="361.64" y1="-1.76" x2="359.82" y2="16.26" xlink:href="#linear-gradient-64"/><linearGradient id="linear-gradient-66" x1="321.04" y1="15.97" x2="342.99" y2="15.97" xlink:href="#linear-gradient-64"/><linearGradient id="linear-gradient-67" x1="355.4" y1="3.55" x2="351.43" y2="21.7" gradientTransform="matrix(1, 0, 0, -1, -2.5, 273.52)" gradientUnits="userSpaceOnUse"><stop offset="0" stop-color="#ac5642"/><stop offset="1" stop-color="#bb776a"/></linearGradient><linearGradient id="linear-gradient-68" x1="324.38" y1="20.03" x2="331.05" y2="26.41" gradientTransform="matrix(1, 0, 0, -1, -2.5, 273.52)" gradientUnits="userSpaceOnUse"><stop offset="0" stop-color="#521c1f"/><stop offset="1" stop-color="#792c29"/></linearGradient><linearGradient id="linear-gradient-69" x1="809.49" y1="-449.8" x2="824.77" y2="-449.8" gradientTransform="matrix(0.71, 0.71, 0.71, -0.71, 113.8, -627.54)" gradientUnits="userSpaceOnUse"><stop offset="0" stop-color="#926948"/><stop offset="1" stop-color="#774d2c"/></linearGradient><linearGradient id="linear-gradient-70" x1="808.71" y1="-441.85" x2="826.55" y2="-441.85" gradientTransform="matrix(0.71, 0.71, 0.71, -0.71, 113.8, -627.54)" gradientUnits="userSpaceOnUse"><stop offset="0" stop-color="#44171d"/><stop offset="1" stop-color="#2e080b"/></linearGradient></defs><title>building</title><path class="cls-1" d="M496.12,190c-20-22.3-40.32-41.31-63-19.47s-31.32,7.3-47.56,23.55-34.13,22.7-57.22,23.19-46.84-18.79-65.75-21.9-18.21-5.73-38.26-9.57-26.07-17.44-48.65-5.09-59.8,18.44-94.39-7.86-51.06-25.53-81.3-4V237c12.24,2.59,18,2.83,31.68-2.29s36.61,2.92,54.09.73,42.67-14.71,84-4.57,69.66,19.41,96.57,12.19,32-.7,48.11-8,36.89-22.58,75.74-7.58,62.74-4.79,81.46,1.28,38.16,6.36,38.16,6.36V196.94S500.44,194.85,496.12,190Z" transform="translate(0.01)"/><path class="cls-2" d="M390.93,267.28c-0.21,1.53,1,3.23-.22,4s-7.9,2.23-8.3.39a10.15,10.15,0,0,0-1.31-3.15l1.81-2.87Z" transform="translate(0.01)"/><path class="cls-2" d="M438.5,267.28c-0.18,1.53,2.23,2.44,1,3.23s-9,3-9.47,1.18-0.55-2.31-.55-2.31l1.75-2.88Z" transform="translate(0.01)"/><path class="cls-2" d="M401,96.7c-1.17.11-2.33-.55-3.5-0.45a0.72,0.72,0,0,0-.33.08,0.58,0.58,0,0,0-.2.27,5.68,5.68,0,0,0,.41,3.6c0.89,2,1.78,3.94,2.71,5.89a0.6,0.6,0,0,0,.24.31,0.21,0.21,0,0,0,.29-0.08l0-.06" transform="translate(0.01)"/><path class="cls-3" d="M409.39,98.9l0.11-7.17a18.12,18.12,0,0,0,5.09-9.81c1-6.08.17-6.57-1-7.31s0-1.77-1.15-3.35-5.94-3.44-11.94-1.35-10.59,4-4.83,5.91c-1,9.06-2.1,11.93-1,15.64,1.41,4.58,4.74,4.25,4.74,4.25l-0.13,3.47-4.43,7,6.3,11.27,11.16-6.74Z" transform="translate(0.01)"/><path class="cls-4" d="M414.61,81.92c0.07-.44.13-0.85,0.18-1.24H414.6a4.32,4.32,0,0,0-2.15.58,6.53,6.53,0,0,0-1.85,1.5,2.41,2.41,0,0,1,.43,3.16c-0.57,1-1.47,1.82-2,2.84a4.86,4.86,0,0,0-.6,2.73c0,0.66.24,1.31,0.31,2a11.71,11.71,0,0,1-1.36,5.82l1.49,2.6a9.1,9.1,0,0,0,1.12-.68L409.42,99l0.08-7.24A18.12,18.12,0,0,0,414.61,81.92Z" transform="translate(0.01)"/><path class="cls-4" d="M395.5,84.64c0.64-3.72,1.29-6.89,1.22-9.09l-1,.28c-1,9.06-2.1,11.93-1,15.64,1.41,4.58,4.74,4.25,4.74,4.25C394.87,95,394.87,88.37,395.5,84.64Z" transform="translate(0.01)"/><path class="cls-5" d="M400.35,89.1c1.18-.46,2.25.24,1.82,1.63s-1.67,2.48-3.2,1.94-3.13-2-2.2-2.68c0.69-.53,1.11,0,1.92,0S399.5,89.42,400.35,89.1Z" transform="translate(0.01)"/><path class="cls-6" d="M365.37,106.1c2.64-.32,8.26-3,11.83-3.4l-1,6.23-9.84,1.38Z" transform="translate(0.01)"/><path class="cls-3" d="M368.77,107.52c1.47-3.14,1-4.42,0-7.35s-0.52-4,.16-6.33-1.14-4.52-.72-5.23a0.55,0.55,0,0,1,.92-0.14,10.34,10.34,0,0,1,1.37,3.61s0.59-.63,0-2.56-0.94-2.42-.11-2.77c0.32-.13,2.16-0.85,2.55-0.33a7.11,7.11,0,0,1,1,4.49c-0.2,1.11-.52,2.25.27,0.58s-0.21-4.73.38-4.88a1.33,1.33,0,0,1,1.25.13c0.12,0.13.7,3.52,0.35,4.51-1.14,3.16-.79,4.06-0.79,4.06a1.57,1.57,0,0,0,1-.58c0.77-.9.62-2.17,1.29-2.16s1.07,0.34.94,0.8c-0.24.85-.33,1.09-0.74,3-0.36,1.63-.65,1.78-2.48,3.22a33.58,33.58,0,0,0,0,6" transform="translate(0.01)"/><path class="cls-7" d="M371.66,86.35a0.79,0.79,0,0,0,0,.09,2.47,2.47,0,0,1,1.11,1.64,6.32,6.32,0,0,1,0,2,12.21,12.21,0,0,1-1.27,4.76,6.87,6.87,0,0,0-1.25,2.73,0.33,0.33,0,0,0,.13.34,11.31,11.31,0,0,1,1.4-1.66,4.09,4.09,0,0,1,2-.74,2.82,2.82,0,0,0,1.57-.19s-0.35-.9.79-4.06c0.36-1-.23-4.38-0.35-4.51a1.33,1.33,0,0,0-1.25-.13c-0.59.15,0.41,3.22-.38,4.88s-0.47.53-.27-0.58a7.11,7.11,0,0,0-1-4.49A1.41,1.41,0,0,0,371.66,86.35Z" transform="translate(0.01)"/><path class="cls-8" d="M377.85,96.34c0.41-1.86.5-2.1,0.74-3a0.34,0.34,0,0,0-.39-0.54,2.55,2.55,0,0,0-.51,1.49,3.28,3.28,0,0,1-.32.87,2.79,2.79,0,0,1-.77.79c-0.88.64-1.92,1.06-2.78,1.73a5.75,5.75,0,0,0-1.06,1.07,6.94,6.94,0,0,0-1.29,3.41,12.72,12.72,0,0,0,.19,3.67,5.47,5.47,0,0,0,.17.72l3.55-1a33.58,33.58,0,0,1,0-6C377.2,98.13,377.5,98,377.85,96.34Z" transform="translate(0.01)"/><path class="cls-9" d="M387.59,159s-6.92,78.68-6.63,90.64,0.15,18.19.15,18.19h10A90.83,90.83,0,0,0,396,242.46c0.66-10.77-.4-23.75-0.38-26.59a7.9,7.9,0,0,1,.65-3.1c1.88-4.25,6.9-21.13,8.18-34.25,0,0,3.79,28.49,8.06,43.58,4.33,15.31,17.88,45.71,17.88,45.71h8.48s-6.7-41.33-13.69-52.39a8.42,8.42,0,0,1-1.34-4.82c0.35-9.29-1-41.66-3.21-49.41C418,152,387.59,159,387.59,159Z" transform="translate(0.01)"/><path class="cls-10" d="M403,178l-3.91-.26c-3.15-.21-3.68.14-3.5,3.27a76,76,0,0,1,0,9.42,74.43,74.43,0,0,1-3.47,18,11,11,0,0,0-.6,2.41,10.81,10.81,0,0,0,.1,2.15l0.16,1.5a139.26,139.26,0,0,1-5,53.24h4.42a90.83,90.83,0,0,0,4.94-25.36c0.66-10.77-.4-23.75-0.38-26.59a7.9,7.9,0,0,1,.65-3.1c1.74-4,6.35-19.44,7.9-32.21C404.28,179.19,404,178.12,403,178Z" transform="translate(0.01)"/><path class="cls-11" d="M425.22,215.42a8.42,8.42,0,0,1-1.34-4.82c0.35-9.29-1-41.66-3.21-49.41C418,152,387.59,159,387.59,159s-0.09,2.79-.24,7.35c0.74-.31,2.47-1,3-1.2,2.14-.7.31-0.9,2.29,0.24a12.9,12.9,0,0,0,3,1.64,7.29,7.29,0,0,0,3.35-.2,21.28,21.28,0,0,1,6.94-.64,8.33,8.33,0,0,1,6,3.33c1.44,2.15,1.45,4.92,1.45,7.51,0,3.58.24,11.21,0.64,14.8,0.75,6.69,1.31,17.13,3.1,23.74,1.17,4.3,6.73,8.22,7.91,12.55,2.41,8.77,3.9,16.23,6.69,25.06,1.91,6.07.3,8.44,2.73,14.64h4.41S432.21,226.52,425.22,215.42Z" transform="translate(0.01)"/><path class="cls-12" d="M395.9,164.26c0.57,3,1,6,1.52,8.92,0.07,0.36.14,0.73,0.22,1.07a2.32,2.32,0,0,0,.06.24v0.12a1.41,1.41,0,0,0,.2.18,9.92,9.92,0,0,0,1.83,1c0.67,0.29,1.36.56,2.06,0.81s1.44,0.52,2.06.7h0.06a0.64,0.64,0,1,1-.28,1.25,38,38,0,0,0-4.56-.41h-2.32a6.68,6.68,0,0,0-2.28.33,5.76,5.76,0,0,1,2.22-.82,21.91,21.91,0,0,1,2.35-.33c0.79-.07,1.58-0.12,2.37-0.12a18.41,18.41,0,0,1,2.41.1l-0.19,1.22a27.65,27.65,0,0,1-4.45-1.42,9.39,9.39,0,0,1-2.15-1.19,2.16,2.16,0,0,1-.56-0.64,1.75,1.75,0,0,1-.14-0.41,1.5,1.5,0,0,0-.07-0.32c-0.08-.4-0.12-0.78-0.17-1.17-0.18-1.53-.27-3-0.3-4.56A37.43,37.43,0,0,1,395.9,164.26Z" transform="translate(0.01)"/><path class="cls-12" d="M412.5,164.26a8.18,8.18,0,0,0,1.32,2.23,6.67,6.67,0,0,0,1.86,1.48,11,11,0,0,0,2.3.91c0.83,0.23,1.69.4,2.61,0.62a6.47,6.47,0,0,1-2.78.48,6.35,6.35,0,0,1-2.82-.76,5.12,5.12,0,0,1-2.1-2.12A4.09,4.09,0,0,1,412.5,164.26Z" transform="translate(0.01)"/><path class="cls-2" d="M401.15,108.63s-2.15-10.45-2-10.47c-2.65.15-3.35,1-5.5,1.46-2.64.54-6.16,1.06-8.3,2.4-3.23,2-6.24,8-8.35,12.45-0.73-2.17.18-9.81,0.14-11.78,0,2.29-11,3.93-11.83,3.4,0.1,5.35-.2,7.55.72,12.9a52.68,52.68,0,0,0,2,8.82,19.52,19.52,0,0,0,2.47,4.49,6.78,6.78,0,0,0,2.24,1.17c3.84,1.44,4.82-.8,7.64-3.45,1.81-1.7,3.09-5.23,5-6.8-0.21,9.59.59,20.59,0.49,30.23,0,3.66-.15,6.07-0.18,9.76,2.3-.09,19,1,20.28,1.2a38.58,38.58,0,0,0,7.78.36c1.82-.08,8.53-0.29,8.53-0.29a4.15,4.15,0,0,1-.94-2.36c-0.14-2-.31-5.71-0.45-7.72a125.31,125.31,0,0,1,1-23.7c0.42-3.45,1.58-6.57,2-10a60.51,60.51,0,0,0,.15-10.43c-0.15-2.32,1-6-2.29-8.47a21.62,21.62,0,0,0-11.78-3.68Z" transform="translate(0.01)"/><path class="cls-13" d="M387.11,129.7a65.47,65.47,0,0,0,1.47-9.17c0.17-1.49.11-3.39-1.29-4a40.15,40.15,0,0,0-3.57,4.72c-2.77,4.06-6.28,8.19-9,12.66,2.34,0.1,3.42-1.76,5.69-3.89,1.81-1.7,3.09-5.23,5-6.8-0.21,9.59.59,20.59,0.49,30.23,0,3.66-.15,6.07-0.18,9.76h0.11c0-.24.68-1.14,0.69-1.37,0.28-6,1.52-9.65,1.8-15.6,0.14-3-1.11-6.93-.47-9.81C388.5,133.94,386.5,132.16,387.11,129.7Z" transform="translate(0.01)"/><path class="cls-14" d="M422.36,164.52s-0.2-1.16-.3-2.61c-0.14-2-1-5.46-1.09-7.47a125.31,125.31,0,0,1,1-23.7,38.23,38.23,0,0,1,.79-4.15h0a26.16,26.16,0,0,1-2.61-5.51s-3.2,12.28-2.84,23.81a47.32,47.32,0,0,1-3.54,19.92C415.64,164.7,422.36,164.52,422.36,164.52Z" transform="translate(0.01)"/><path class="cls-2" d="M411.29,98.52s0.52-3.23-.51-3.55-9.62,13.65-9.62,13.65Z" transform="translate(0.01)"/><polyline class="cls-15" points="405.09 102.45 390.43 108.81 392.05 164.2 405.14 164.61 416.9 110.56 409.95 105.63"/><path class="cls-16" d="M413.6,74.61c-1.18-.74,0-1.77-1.15-3.35s-6-3.44-12-1.35-10.59,4-4.83,5.91c3.78,1.29,9.83-.19,10.53.37S403.73,79,405,80.1s2.3,1.25,1.78,3.4,0.74,3.22,1.65,1.85,2.22-2.72,3.09-1.53-0.47,3.73-1.45,4.55a2.64,2.64,0,0,0-.55,3.35,18.13,18.13,0,0,0,5.09-9.81C415.59,75.83,414.78,75.34,413.6,74.61Z" transform="translate(0.01)"/><path class="cls-17" d="M412.37,88a17.65,17.65,0,0,0,2.24-6.13c1-6.08.17-6.57-1-7.31s0-1.77-1.15-3.35-6-3.44-12-1.35l-1.7.61a2.73,2.73,0,0,0-.51.7,1.86,1.86,0,0,0,.68,2.5c2.94,1.25,5.87.82,8.21,1.19a0.91,0.91,0,0,0,.24,1c1.44,1.75,4.08,2.34,5.35,4.22a5.53,5.53,0,0,1,.7,4A29.15,29.15,0,0,1,412.37,88Z" transform="translate(0.01)"/><path class="cls-18" d="M389.57,126.82l3.17,4.24a1.38,1.38,0,0,0,1.94.25l0.06-.05h0a1.34,1.34,0,0,0,.17-1.79l-3.14-4.25c-0.49-.66-1.13-0.42-1.73.13h0C389.57,125.81,389.16,126.27,389.57,126.82Z" transform="translate(0.01)"/><path class="cls-19" d="M392.63,130.92a2.11,2.11,0,0,0,.58-0.29q0.63-.42,1.24-0.87l0.45-.34-3.11-4.21a0.82,0.82,0,0,0-1-.34,0.43,0.43,0,0,0,0,.18l0.61,0.09a10.84,10.84,0,0,1,1.07,1.9,1.29,1.29,0,0,1,.15.59,0.48,0.48,0,0,1-.35.45c-0.42.07-.77-0.58-1.15-0.4a3.78,3.78,0,0,1,.82,1.23,1.57,1.57,0,0,1-.3.75Z" transform="translate(0.01)"/><path class="cls-19" d="M409.64,152.37l3.26,4.35a1.39,1.39,0,0,0,1.94.31l0.12-.1h0a1.39,1.39,0,0,0,.15-1.84l-3.23-4.37a1.39,1.39,0,0,0-1.94-.31l-0.13.11h0A1.38,1.38,0,0,0,409.64,152.37Z" transform="translate(0.01)"/><path class="cls-20" d="M391.5,132.76L405.7,151a1.87,1.87,0,0,0,2.62.34l0.1-.08L411,149a1.85,1.85,0,0,0,.17-2.54l-14.31-17.55a1.86,1.86,0,0,0-2.48-.37l-2.43,1.66a1.81,1.81,0,0,0-.47,2.52Z" transform="translate(0.01)"/><path class="cls-18" d="M411,148.95a1.85,1.85,0,0,0,.17-2.54l-14.31-17.55a1.85,1.85,0,0,0-1.68-.65c-1.47,1.28,4.23,6.35,5.15,7.39,3.16,3.59,4.27,5.55,3.54,6.11s-5.1-3.59-4.67-1.67c0.3,1.34,2.63,5.39,5.18,9.15l1.38,1.77a1.87,1.87,0,0,0,2.62.34l0.1-.08Z" transform="translate(0.01)"/><path class="cls-20" d="M408.68,147.68c-0.39,0-.92-0.47-1.19,0a1.83,1.83,0,0,0,1.36,1.45,1.6,1.6,0,0,0,1.75-.82,1.52,1.52,0,0,0,.08-1.1,2.77,2.77,0,0,0-.31-0.62,13.83,13.83,0,0,0-2.58-3.08,2.54,2.54,0,0,0-1.08-.66,2.61,2.61,0,0,0,.88,1.16,6.84,6.84,0,0,1,1.94,2.89C409.66,147.45,409.13,147.63,408.68,147.68Z" transform="translate(0.01)"/><path class="cls-6" d="M417.37,144.85c0.14,4.06,5.8,7.6,7.75,10.45l1.16-6.08-3.12-5.41-3.59.82Z" transform="translate(0.01)"/><path class="cls-3" d="M418.13,145c-1.34,1-3.34,3.22-4.56,3.12s-3.27-1.28-4.35-.52-1.72.57-1.72,1.89-0.54,2.85-.08,3.72a15.82,15.82,0,0,0,3.51,3.76c1,0.57,2.07.61,2.4,0.08-0.6-.57-0.35-1.46.61-1.26s2.34,0.56,3.47-.41,1-3.73,3.15-4.89,6.46-3.34,6.46-3.34l-4.47-3.75Z" transform="translate(0.01)"/><path class="cls-21" d="M425.2,147.52a0.86,0.86,0,0,0-.39-0.29c-0.16,0-5.61-2.25-5.77-2.21-1.75.49,2,3.93,0.29,4.39a3.56,3.56,0,0,0-1.15.41c-0.9.63-.83,2.12-1.73,2.75a2.15,2.15,0,0,1-.9.33,4.61,4.61,0,0,1-1.49,0c-1-.17-2.18-0.7-3.11-0.21-1.47.76-1,2.68-.43,4a4,4,0,0,0,.45.33c1,0.57,2.07.61,2.4,0.08-0.6-.57-0.35-1.46.61-1.26s2.34,0.56,3.47-.41,1-3.73,3.15-4.89c1.32-.71,3.45-1.8,4.89-2.54A3.25,3.25,0,0,0,425.2,147.52Z" transform="translate(0.01)"/><path class="cls-2" d="M421.83,101.78c4.08,2.57,7.73,12.91,10.94,19.94s6.18,10.93,5.67,15.16-10.63,16-13.32,18.42c0,0-1.16-7.57-7.75-10.45,0,0,10-5.25,11.18-9,0,0-8.24-12.82-10-19S421.83,101.78,421.83,101.78Z" transform="translate(0.01)"/><path class="cls-22" d="M432.77,121.72c-2.91-6.37-6.18-15.46-9.8-19a2.15,2.15,0,0,0-1.65,1.35,5,5,0,0,0-.06,2.69c1.67,9.17,8.86,16.69,11.59,25.8,0.29,1,.54,2,0.84,3a3.58,3.58,0,0,1,.24,1.17,3.2,3.2,0,0,1-.74,1.66,30.48,30.48,0,0,1-5.08,6,10.51,10.51,0,0,1-7.32,2.71v0.05a15.82,15.82,0,0,1,4.35,8.18c2.69-2.4,12.81-14.17,13.32-18.42S436,128.8,432.77,121.72Z" transform="translate(0.01)"/><path class="cls-23" d="M379.8,111.37a24.34,24.34,0,0,0,2.22-5.85,62.61,62.61,0,0,0-5,9c-0.73-2.17.18-9.81,0.14-11.78,0,1.37-3.88,2.5-7.22,3.08v0.11c-0.15,1.07.71,2.56,1,3.57,0.53,1.88.93,3.81,1.39,5.71,0.78,3.2,1.57,6.48,1.24,9.78Q376.57,118.07,379.8,111.37Z" transform="translate(0.01)"/><path class="cls-24" d="M391.5,108.9a0.56,0.56,0,0,0,.54.58h0.07a0.8,0.8,0,0,0,.66-0.63,0.61,0.61,0,0,0-.17-0.62,0.6,0.6,0,0,0-.71,0,1.67,1.67,0,0,0-.43.61" transform="translate(0.01)"/><path class="cls-24" d="M393.09,119.19a0.64,0.64,0,0,0-.58.38,0.65,0.65,0,1,0,1.26.23,0.71,0.71,0,0,0-.77-0.64h0" transform="translate(0.01)"/><path class="cls-24" d="M394.35,144.39a0.86,0.86,0,0,0-.86.86s0,0,0,.06a1.08,1.08,0,0,0,1,.91,0.4,0.4,0,0,0,.21,0,0.46,0.46,0,0,0,.17-0.19,1.43,1.43,0,0,0,.27-1,0.56,0.56,0,0,0-.85-0.35" transform="translate(0.01)"/><path class="cls-24" d="M393.65,161.16a0.78,0.78,0,0,0-.9.62,0.75,0.75,0,0,0,.68.82h0a0.7,0.7,0,0,0,.63-0.85,1.34,1.34,0,0,0-.51-0.61" transform="translate(0.01)"/><path class="cls-24" d="M404.27,161.62a0.6,0.6,0,0,0-1,.14,1,1,0,0,0,.25,1.09,0.6,0.6,0,0,0,.62.22,0.68,0.68,0,0,0,.27-0.26,1.4,1.4,0,0,0,.27-0.54,0.57,0.57,0,0,0-.18-0.56" transform="translate(0.01)"/><path class="cls-24" d="M408.5,132.85a1,1,0,0,0,.64,1.64,0.7,0.7,0,0,0,.33,0,0.72,0.72,0,0,0,.34-0.31,1.05,1.05,0,0,0,0-1.1,1,1,0,0,0-1-.4,0.8,0.8,0,0,0-.55.89" transform="translate(0.01)"/><path class="cls-24" d="M411.56,120.81a0.62,0.62,0,0,0-.85.22l-0.05.11a0.84,0.84,0,0,0,.61,1,0.82,0.82,0,0,0,1-.61l0-.09a0.85,0.85,0,0,0-.84-0.86h0" transform="translate(0.01)"/><path class="cls-24" d="M413.26,109.17a0.63,0.63,0,0,0-.51.91,0.92,0.92,0,0,0,1.14.33,0.72,0.72,0,0,0,.33-0.26,0.64,0.64,0,0,0-.16-0.8,0.87,0.87,0,0,0-.85-0.12" transform="translate(0.01)"/><path class="cls-25" d="M398.91,86.66c-0.23,1.4-.81,1.55-1.48,1.44s-1.17-.44-0.94-1.84,1.1-3.33,1.77-3.22S399.14,85.26,398.91,86.66Z" transform="translate(0.01)"/><path class="cls-26" d="M403.63,82.67a0.8,0.8,0,0,1-.38,1.06l0,0a0.87,0.87,0,0,1-1.13-.43,0.8,0.8,0,0,1,.39-1.06l0,0A0.87,0.87,0,0,1,403.63,82.67Z" transform="translate(0.01)"/><path class="cls-26" d="M396.68,82.24a0.76,0.76,0,0,1-.4,1h0a0.83,0.83,0,0,1-1.07-.41,0.76,0.76,0,0,1,.4-1h0A0.83,0.83,0,0,1,396.68,82.24Z" transform="translate(0.01)"/><path class="cls-26" d="M402.9,80.58A1.91,1.91,0,0,1,404,81a1.88,1.88,0,0,1,.64,1c-0.34-.21-0.58-0.46-0.87-0.67A5.92,5.92,0,0,1,402.9,80.58Z" transform="translate(0.01)"/><path class="cls-26" d="M396.42,80.25c-0.3.12-.56,0.16-0.81,0.26a7.67,7.67,0,0,1-.81.27,1.1,1.1,0,0,1,.69-0.62A1.12,1.12,0,0,1,396.42,80.25Z" transform="translate(0.01)"/><path class="cls-27" d="M404.62,95.75c1.47-1.62,1.64-3.21-.22-1.51s-4.9,1.48-4.9,1.48l-0.13,3.47C401.14,101.07,403.14,97.37,404.62,95.75Z" transform="translate(0.01)"/><polygon class="cls-28" points="399.47 95.72 399.47 95.72 399.47 95.72 399.47 95.72"/><path class="cls-20" d="M402.44,144.44a1.82,1.82,0,0,0,1,.69,0.26,0.26,0,0,0,.32-0.25,0.38,0.38,0,0,0-.11-0.17c-0.45-.48-0.93-0.9-1.39-1.37,0.28-.13.75,0.39,0.82-0.14a1.52,1.52,0,0,0-.38-0.79,3,3,0,0,0-1.41-1.05C399.66,140.89,402.06,144,402.44,144.44Z" transform="translate(0.01)"/><path class="cls-18" d="M401.7,138.52c-0.92-1.12-1.66-2.37-2.52-3.52a8.89,8.89,0,0,0-3.2-2.85,23,23,0,0,1,4.58,5.76,0.45,0.45,0,0,1,.08.38,1,1,0,0,0-.47.06,0.45,0.45,0,0,0,.36.33c0.89,0.38,1.42,1.44,2.36,1.65,0,0-.4-0.7-0.46-0.78C402.2,139.23,402,138.89,401.7,138.52Z" transform="translate(0.01)"/><path class="cls-18" d="M394.69,132.79a2.29,2.29,0,0,0-1.37-.67c-0.23.43,1.14,1.42,1.41,1.68s0.71,0.68,1.09,1c0.69,0.58,1.46,1.08,2.15,1.66a0.76,0.76,0,0,1,.37.82,3.59,3.59,0,0,1-.81.52,1,1,0,0,0,.2,1.2c0.26,0.54.38,1.14,0.68,1.68a3.73,3.73,0,0,1-.06-2.09c0.25-.5,1-0.56,1-1.25a2.81,2.81,0,0,0-1.16-1.48l-1.65-1.5-0.94-.84A4.74,4.74,0,0,1,394.69,132.79Z" transform="translate(0.01)"/><path class="cls-20" d="M403.85,147.17a2.73,2.73,0,0,1-.54-1.23,1.14,1.14,0,0,1,1,.19,9.34,9.34,0,0,1,.78.63,0.51,0.51,0,0,0,.28.13,0.38,0.38,0,0,0,.32-0.43v0a1.2,1.2,0,0,0-.31-0.55,10.76,10.76,0,0,1-1.42-2.24,1.05,1.05,0,0,1,.77.35,14.35,14.35,0,0,1,1.79,1.86,2.42,2.42,0,0,1,.48.8,0.9,0.9,0,0,1-.16.87,1.1,1.1,0,0,1-1,.2,5.6,5.6,0,0,0-1-.22c0.19,1.35,1.75,2,2,3.32-0.62.13-1-.88-1.29-1.28C404.93,148.76,404.38,148,403.85,147.17Z" transform="translate(0.01)"/><path class="cls-20" d="M405.26,141.58a0.34,0.34,0,0,1,0,.21,0.38,0.38,0,0,1-.38.18,0.27,0.27,0,0,0-.31.24,0.29,0.29,0,0,0,.07.12l2,2.49a18.55,18.55,0,0,0,1.62,1.88,3.92,3.92,0,0,0-1-1.88,19.51,19.51,0,0,1-1.67-2.71,0.16,0.16,0,0,0,.16,0,21.58,21.58,0,0,0-1.12-2.35c-0.19-.35-0.91-2-1.35-1.89a6.79,6.79,0,0,0,.86,1.41c0.2,0.37.39,0.75,0.57,1.13A3.76,3.76,0,0,1,405.26,141.58Z" transform="translate(0.01)"/><path class="cls-18" d="M395.37,132.14a0.32,0.32,0,0,1-.45-0.07l0,0a2.39,2.39,0,0,0-.31-0.46,0.9,0.9,0,0,0-.58-0.14,2.53,2.53,0,0,0-.93.11,0.55,0.55,0,0,1-.48.06,0.42,0.42,0,0,1-.14-0.33,3.28,3.28,0,0,1,0-.61,0.11,0.11,0,0,1,0-.15,0.12,0.12,0,0,1,.09,0,1,1,0,0,0,1.1,0c0.41-.27,0-0.67.21-1s0.35,0,.45.16a12.33,12.33,0,0,1,.44,1.16Q395.07,131.52,395.37,132.14Z" transform="translate(0.01)"/><path class="cls-18" d="M395.91,137.19a5.91,5.91,0,0,1,.8.62,0.4,0.4,0,0,0,0-.34,1,1,0,0,0-.22-0.28c-0.34-.34-1.87-2.09-2.21-2.43a11.73,11.73,0,0,1,2.4,2.28,1.72,1.72,0,0,0,.53.55c-1.26-1.92-2.52-3.16-3.82-4.83a3.4,3.4,0,0,0-1-.6c-0.08-.06-0.17-0.09-0.17,0a0.74,0.74,0,0,0,.06.25,5.09,5.09,0,0,0,.78,1.35A31.17,31.17,0,0,0,395.91,137.19Z" transform="translate(0.01)"/><path class="cls-2" d="M402.86,69.26s10.64,3,11.64,12.66c0,0,0,4.14,5.13,2.62s5.74-5.32,5.74-5.32a10.81,10.81,0,0,0,3.16-11c-1.76-7.1-5.82-6.35-5.82-6.35s-3-6.71-11.14-3.51a8.41,8.41,0,0,0-9.1,4c-3.4,5.31.83,6.19,0.83,6.19Z" transform="translate(0.01)"/><path class="cls-29" d="M411.61,58.34a8.41,8.41,0,0,0-9.1,4c-3.4,5.31.83,6.19,0.83,6.19L404.43,67a3.73,3.73,0,0,1,.37-5.82A11.34,11.34,0,0,1,411.61,58.34Z" transform="translate(0.01)"/><path class="cls-30" d="M428.57,68.19c-1.25-5-3.64-6.11-4.93-6.32a5.92,5.92,0,0,1,3,3.15,11.92,11.92,0,0,1,.44,5.49,7.08,7.08,0,0,1-2.84,4.16,4.72,4.72,0,0,1-5.1.14c-1.36-1-1.57-2-1.72-4.23a8.66,8.66,0,0,0-1.87,4c-0.33,1.86-.22,5.05.58,6.59l-1.63.75a3.53,3.53,0,0,0,.45,1.6c0.56,1,1.83,1.85,4.69,1,5.17-1.52,5.74-5.32,5.74-5.32A10.81,10.81,0,0,0,428.57,68.19Z" transform="translate(0.01)"/><path class="cls-31" d="M418.84,61.18a7.2,7.2,0,0,0-1.34,1.44c-0.7,1-.06,2.8-0.16,4,0.1-2.63,2.55-4.74,5.26-5-0.6-1.13-3.72-6.1-11-3.31l-0.09.09a10.18,10.18,0,0,1,5.77,0,7.19,7.19,0,0,1,1.91.78,1.45,1.45,0,0,1,1,.87C420.29,60.52,419.18,60.9,418.84,61.18Z" transform="translate(0.01)"/><path class="cls-32" d="M439.81,271.52c0.19-1.55.8-2.47-.31-2a9.05,9.05,0,0,1-4.79.18c-2.2-.36-3.35-2.32-5.55-3s-2.53,1.19-1.58,2.06a58.72,58.72,0,0,1-6.2,2.59c-2.73.89-4.19,2.72-4.19,3.19a0.7,0.7,0,0,0,.59.58h22.47C440.87,275.08,439.67,272.58,439.81,271.52Z" transform="translate(0.01)"/><path class="cls-32" d="M391.41,271.52c0.22-1.55.86-2.47-.26-2a9.08,9.08,0,0,1-4.79.18c-2.19-.36-3.3-2.32-5.49-3s-2.56,1.19-1.63,2.06a60.12,60.12,0,0,1-6.25,2.59c-2.75.89-4.25,2.72-4.26,3.19a0.68,0.68,0,0,0,.58.58h22.47C392.39,275.08,391.25,272.58,391.41,271.52Z" transform="translate(0.01)"/><path class="cls-33" d="M419,101.75a3.75,3.75,0,0,0,1.59-.75,21.83,21.83,0,0,0-9.21-2.77c0.11-.83.32-3-0.51-3.21-0.53-.16-3.14,3.49-5.54,7.05a3,3,0,0,0,.58-0.36c1.14-.88,2.08-2,3.72-1.8a8.59,8.59,0,0,1,2.77,1.14A9.77,9.77,0,0,0,419,101.75Z" transform="translate(0.01)"/><path class="cls-34" d="M310.3,68a60,60,0,0,0-13.15-8.47c-1.84-.86-4.51-1.44-4.66-0.65,0,0.5.73,1.13,1.51,2a13.49,13.49,0,0,0,4,2.94c3.92,2.11,7.09,5.39,11.13,7.26l4.37,2.15a10.41,10.41,0,0,0,3.21,1.09h0.16a2.86,2.86,0,0,0-1.22-2.3C314.25,70.68,311.83,69.22,310.3,68Z" transform="translate(0.01)"/><path class="cls-35" d="M300.85,94.57c1.24-2,2.1-2.63,2.1-.77a13.83,13.83,0,0,0,1.55,4.72L303.13,101" transform="translate(0.01)"/><path class="cls-36" d="M303.6,99.46s-2.29-6.09-1.24-8.53c0,0,5.62-.7,6.33-3.7s-0.62-14.51-.35-18-0.85-7.55-7.73-7.44-12.3,2.13-12.11,10.73-1.14,13.45.43,13.88l0,8.3,5.32,8.8,9.5,4.53,2.3-6.51Z" transform="translate(0.01)"/><path class="cls-37" d="M308.32,71V69.21c0.27-3.5-.85-7.55-7.73-7.44A18.35,18.35,0,0,0,293.5,63a4.71,4.71,0,0,0,.23,3.56l3,2.51a12.74,12.74,0,0,1,3.2-2.81,4.32,4.32,0,0,1,4.1-.19c1.83,1,2.28,3.63,4.06,4.75Z" transform="translate(0.01)"/><path class="cls-38" d="M302.37,90.93a15.39,15.39,0,0,1-7.59-1.54s-1,5.54,2.29,8.78,6.15,9,9,3.31l-2.4-2S301.31,93.36,302.37,90.93Z" transform="translate(0.01)"/><path class="cls-39" d="M288.7,86.52c2.59-.85,4.33-4.11,3.52-5.62s-2.27-1.39-2.12-3.6,1.71-3.14,2.33-1.39,3.29,3.49,3.17,1.16-0.94-4,.87-4.18-0.35-1.74,1.66-4-0.86-6.89,4.84-7c-8.3-1.83-13.36,1.12-14.82,6.83s-0.75,15.2-.62,16.41A1.49,1.49,0,0,0,288.7,86.52Z" transform="translate(0.01)"/><path class="cls-40" d="M303,61.92c-5.23-1.15-9.18-.4-11.74,1.74,1.09,0.94,3.81,0,5.07.14,0.8,0.1,1.57.39,2.36,0.52h0.56C299.5,63,300.29,62,303,61.92Z" transform="translate(0.01)"/><path class="cls-41" d="M316.31,67.83a4.24,4.24,0,0,1,3.71,4c0.2,2.12-1.83,3.42-3.34,1.14S313,67.14,316.31,67.83Z" transform="translate(0.01)"/><path class="cls-42" d="M317.39,66.18a6,6,0,0,0-1.08-1.56,20.7,20.7,0,0,1-2.81-2.91,13.72,13.72,0,0,0-2.52-3.2,48.31,48.31,0,0,0-6.81-5.8,9.19,9.19,0,0,0-2.85-1.36c-2.12-.51-5.15,1.48-6.59,2.89s-2.4,3-2.28,4.67c0.15-.79,2.62,0,4.46.89a60.21,60.21,0,0,1,13.15,8.44c1.5,1.2,2.11,1,5.4,4,0.67,0.61,1.58,1.23,1.42,2.06h-0.16a0.92,0.92,0,0,0,.49,0A1,1,0,0,0,317.5,73a14.93,14.93,0,0,0-2.19-4c0.5-.42,1.14-0.12,1.67-0.46A1.92,1.92,0,0,0,317.39,66.18Z" transform="translate(0.01)"/><path class="cls-36" d="M313.88,74.16l1.62,0.36A2.07,2.07,0,0,1,317.27,76c0.65,1.18.81,2.35,2,3.16s3.32,0.56,4.61.24a15.76,15.76,0,0,1,1.76,5,24,24,0,0,1,6.2-1.13c-4.49-7.9-8.58-12.48-9.81-12.8a7.91,7.91,0,0,0-3.67.21,5,5,0,0,0-2,1.92c-0.77-.32-5.11-0.84-3.38,1.21A1.43,1.43,0,0,0,313.88,74.16Z" transform="translate(0.01)"/><path class="cls-43" d="M343.25,110.8c-0.86-7.8-4.41-13.46-7.75-20.57a96,96,0,0,0-6.43-11.61,12.94,12.94,0,0,0-4.4,2.24,37.12,37.12,0,0,1,1.83,9.59c0.24,3.72-.06,2.41.3,6.08,0.52,5.43,1.93,9.35,2,11.18-0.09-.19-20.3-10.14-24.3-10.66l0.26,3.14c-0.43,4.09-.16,8.22,2.23,11.56s2.17,5.69,6.18,6.62c1.16,0.75,5.11,1.57,6,1.92a33.43,33.43,0,0,0,9.11,2c4.19,0.34,10.35,1.14,13-2.14C343.32,117.64,343.61,114.07,343.25,110.8Z" transform="translate(0.01)"/><path class="cls-44" d="M343.25,110.8c-0.86-7.8-4.41-13.46-7.75-20.57a99.48,99.48,0,0,0-5-9.27c4.23,11,8.19,22.23,8.14,33.93a3,3,0,0,1-.48,1.95c-1.18,1.4-8.59-1.31-10.22-1.79a65.8,65.8,0,0,1-10.43-4c-1.09-.53-2.16-1.1-3.2-1.73a30.32,30.32,0,0,1-4.76-3.55l-1.8,6.11q0.52,1.65,1.13,3.27a5.61,5.61,0,0,0,4.22,3.27c1.16,0.75,5.11,1.57,6,1.92a33.43,33.43,0,0,0,9.11,2c4.19,0.34,10.35,1.14,13-2.14C343.32,117.64,343.61,114.07,343.25,110.8Z" transform="translate(0.01)"/><path class="cls-45" d="M312.74,108.12c7,17.89,8.93,29.1,7.35,48.16,0.32-.47-0.39-1-1-1.07a69.58,69.58,0,0,0-13.47-1.63c-3.09-.07-6.2.07-9.28-0.23-4.44-.43-9.81.06-14.08-1.25a27.12,27.12,0,0,1,.7-7.54c2.11-6.24,2.8-5.28,1.8-11.79a85.31,85.31,0,0,0-5.62-18.9c-0.81-2-2.67-4.86-4.72-5.54a43.67,43.67,0,0,1,7.27-6.88c2.07-1.67,4.23-3.7,6.58-4.92,0.88-.45-0.75-3.34.2-3.63,2.46,3.63,12,11.22,14,11.1,2.06-3,.37-8.34.37-8.34C306.1,97.92,311.39,104.69,312.74,108.12Z" transform="translate(0.01)"/><path class="cls-46" d="M313.3,109.57a1.71,1.71,0,0,0-.48-1.24c-0.45-.39-1.09-0.56-1.54-1a4.38,4.38,0,0,0-3.65-1.6,5,5,0,0,0-2,1c-2.56,1.86-5,4.2-5.8,7.27s0.13,6.08.58,9.11a22.73,22.73,0,0,1-.47,9.51,15.27,15.27,0,0,1-5.16,7.9c-2,1.58-4.54,2.54-6.5,4.22s-3.32,4.58-2.1,6.86a4.53,4.53,0,0,0,1.14,1.35c3,0.23,6.25.14,9.08,0.41,3.08,0.3,6.18.16,9.28,0.23a69.56,69.56,0,0,1,11.08,1.16,16.85,16.85,0,0,0,3.23-1.44l0.34-.22C321.4,136.42,319.5,125.61,313.3,109.57Z" transform="translate(0.01)"/><path class="cls-47" d="M303.56,107.29l2.1,5.36,2,5.38,1,2.69a10.77,10.77,0,0,1,.84,2.8,8.7,8.7,0,0,1-.64,2.85,10.77,10.77,0,0,0-.37,2.79,10.89,10.89,0,0,0,1.38,5.42,6.13,6.13,0,0,1,1.15,2.69,6.94,6.94,0,0,1-.82,2.81c-0.83,1.74-.38,3.71-0.16,5.6a11.47,11.47,0,0,1-.8,5.67,11.37,11.37,0,0,0,.59-5.64c-0.12-.95-0.32-1.89-0.38-2.86a6.21,6.21,0,0,1,.44-2.88,7.06,7.06,0,0,0,.76-2.67,5.87,5.87,0,0,0-1.12-2.52,11.06,11.06,0,0,1-1-8.5,8.53,8.53,0,0,0,.66-2.72,10.55,10.55,0,0,0-.77-2.71l-1-2.7-2-5.41Z" transform="translate(0.01)"/><path class="cls-48" d="M289.6,98.06c2.14,3.56,4.13,4.82,6.09,8.48a0.64,0.64,0,0,0,.26.31,0.66,0.66,0,0,0,.71-0.46c0.7-1.25,1.45-.16,2.15-1.41" transform="translate(0.01)"/><path class="cls-49" d="M281.88,151.81c0.38,1.36-3.93,14.6-4.18,25.46s2.47,27.51-.74,40.39a284.58,284.58,0,0,0-7.23,46.86H281a125.59,125.59,0,0,1,7.78-33.16c6.9-17.79,10.56-48.17,10.56-48.17-0.58,6.53,2.22,27.23-.74,43.35a237.34,237.34,0,0,0-3.71,38h9.78c4-4.72,16.44-94.6,15.7-111Z" transform="translate(0.01)"/><path class="cls-50" d="M310.37,239.07c-1-10.11-1.94-20.36-1.61-30.43,0.42-12.59,5.62-24.57,6.77-37.11,0.27-3-.35-6.82-3.26-7.4-2-.4-3.93,1.23-4.77,3.1s-0.91,4-1.34,6a16.83,16.83,0,0,1-6.24,9.76l-0.52,6.75c0.38,9.28,1.52,24.42-.77,36.83a237.34,237.34,0,0,0-3.71,38h9.78C306,263,308.09,252.61,310.37,239.07Z" transform="translate(0.01)"/><path class="cls-51" d="M294.09,152.1a0.52,0.52,0,0,0-.69.47,1.1,1.1,0,0,0,.45.85,4.73,4.73,0,0,0,2.33.91,4,4,0,0,0,1.55.05,1.53,1.53,0,0,0,1.16-.94,1,1,0,0,0-.19-1,0.89,0.89,0,0,0-1-.24" transform="translate(0.01)"/><path class="cls-52" d="M298,152.91c0.64-5.82-.06-13.64-1.39-24.67-2.31-19.19-7.4-27.71-9.59-31.32-0.65.42-1.35,1.29-2,1.71,5.43,9.15,7.64,19.39,8.45,30.16s1.56,13,.73,23.83C296,152.66,296.11,152.88,298,152.91Z" transform="translate(0.01)"/><path class="cls-51" d="M316.21,153.09a1.19,1.19,0,0,0,.8,1.35,6.59,6.59,0,0,0,1.71.26,2.08,2.08,0,0,0,1,0,0.89,0.89,0,0,0,.24-1.44A1.65,1.65,0,0,0,319,153a21.8,21.8,0,0,0-2.76-.09" transform="translate(0.01)"/><path class="cls-52" d="M319.74,153.76c0.12-6.06-1.84-14.55-3.62-26-2.62-16.89-6.3-25.84-8.56-30.48L305,96.93c4.9,9.53,7.32,20.19,8.67,31.4s3.65,14.27,3,25.36C318.15,153.68,318.28,153.72,319.74,153.76Z" transform="translate(0.01)"/><path class="cls-41" d="M298.94,110.19a1.63,1.63,0,0,1,1.29-1.33,1.47,1.47,0,0,1,1,.63,9.11,9.11,0,0,1,2,4.15,1.18,1.18,0,0,1,0,.63,1.22,1.22,0,0,1-.38.47c-1,.88-6.29,4.19-5.92,2.19A49.24,49.24,0,0,1,298.94,110.19Z" transform="translate(0.01)"/><rect class="cls-53" x="298.52" y="101.75" width="8.27" height="15.92" rx="1.09" ry="1.09" transform="translate(-19.18 116.87) rotate(-21.2)"/><path class="cls-54" d="M300.44,103.52l1.44-1a2.22,2.22,0,0,1,1.89-.45,6.06,6.06,0,0,1,.55.47l-0.29-.75a1.09,1.09,0,0,0-1.41-.62h0l-5.67,2.2a1.09,1.09,0,0,0-.62,1.41h0l5,12.79a3.49,3.49,0,0,0,1.31-.79,2.85,2.85,0,0,0,.84-1.45,0.51,0.51,0,0,0,0-.38,0.63,0.63,0,0,0-.28-0.19,3.47,3.47,0,0,1-1.76-2.08,7.12,7.12,0,0,1-.26-2.77,2.33,2.33,0,0,0,0-.72,2.6,2.6,0,0,0-.77-1.07,4.25,4.25,0,0,1-1.07-1.73,2.44,2.44,0,0,1,.24-2A3.66,3.66,0,0,1,300.44,103.52Z" transform="translate(0.01)"/><path class="cls-36" d="M306.8,110.14a15.48,15.48,0,0,0-7.56,3.85c-1.27,1.18-4.33,5.72-7,9.76a7.85,7.85,0,0,1,1,1.06,52.9,52.9,0,0,0,4.15,4.85c2.49-8.61,1.31-8.09,7-8.75,2.9-.33,5.56.66,5.54-6.49C310,112.1,309.56,109.52,306.8,110.14Z" transform="translate(0.01)"/><path class="cls-55" d="M310,114.42c0-2.1-.38-4.43-2.51-4.36v0.16a2.63,2.63,0,0,1-1.22,2,11.42,11.42,0,0,1-2.16,1,16.43,16.43,0,0,0-6.35,4.85,39.39,39.39,0,0,0-2.18,3.36,3.88,3.88,0,0,0-.07,3.69,17.08,17.08,0,0,0,1.75,3.16,5.47,5.47,0,0,0,.39.54c2.18-7.74,1.28-7.3,6.8-7.94C307.35,120.57,310,121.57,310,114.42Z" transform="translate(0.01)"/><path class="cls-41" d="M303.5,79.52c0,1.9.78,2.21,1.69,2.18s1.63-.36,1.59-2.26-0.84-4.63-1.75-4.61S303.5,77.58,303.5,79.52Z" transform="translate(0.01)"/><path class="cls-56" d="M300.12,73.63a0.82,0.82,0,0,0,.25,1.13l0,0a0.89,0.89,0,0,0,1.19-.27,0.82,0.82,0,0,0-.25-1.13l0,0A0.89,0.89,0,0,0,300.12,73.63Z" transform="translate(0.01)"/><path class="cls-56" d="M307.18,74.17a0.78,0.78,0,0,0,.24,1.08h0a0.84,0.84,0,0,0,1.13-.26,0.78,0.78,0,0,0-.25-1.08h0A0.84,0.84,0,0,0,307.18,74.17Z" transform="translate(0.01)"/><path class="cls-56" d="M301.14,71.63c-0.32.25-.63,0.41-0.93,0.61a5.83,5.83,0,0,1-1,.55,1.92,1.92,0,0,1,.78-0.87A2,2,0,0,1,301.14,71.63Z" transform="translate(0.01)"/><path class="cls-56" d="M307.71,72.2a1.14,1.14,0,0,1,.94,0,1.11,1.11,0,0,1,.61.72c-0.3-.13-0.52-0.28-0.77-0.38A6.18,6.18,0,0,1,307.71,72.2Z" transform="translate(0.01)"/><path class="cls-56" d="M301.14,82.63c0.94,0.91,1.76,1.91,2.89,2.18a2.07,2.07,0,0,0,1.6-.16,3.71,3.71,0,0,0,1.26-1.32,2.68,2.68,0,0,1-1,1.76,2.33,2.33,0,0,1-2.08.37,3.46,3.46,0,0,1-1.72-1.14A6.32,6.32,0,0,1,301.14,82.63Z" transform="translate(0.01)"/><path class="cls-57" d="M313,73.78a1.43,1.43,0,0,0,.86.38l1.62,0.36A2.07,2.07,0,0,1,317.27,76c0.54,1,.85,2.66,2.09,3a2.26,2.26,0,0,0,1.45-.09,1.82,1.82,0,0,0,1.25-1.31,2.06,2.06,0,0,0-.14-0.95c-0.38-1.11-.79-1.7-0.52-3,0.06-.27.07-0.65-0.2-0.71a0.53,0.53,0,0,0-.46.28,9.68,9.68,0,0,1-1.57,1.59,1.75,1.75,0,0,1-.82.43c-0.83.11-2.73-1.91-2-2.68C315.5,72.21,311.42,71.89,313,73.78Z" transform="translate(0.01)"/><path class="cls-45" d="M296.21,133.59c1.6-4.92,2.23-7.8,2.77-9.55a17.52,17.52,0,0,0-3.62-4.93c-3.39,5-7.48,11.57-7.48,11.57a118.7,118.7,0,0,0-3.46-13.31c-2.42-7.58-9.94-9-9.94-9-4.26,5.48-5.06,15.48-1.52,30.48s8.13,17.77,13.71,11.77S293.58,141.66,296.21,133.59Z" transform="translate(0.01)"/><path class="cls-58" d="M281.57,141.24c-1-.35-1.11-1.7-1-2.75,0.49-9.17.25-18.82-4.18-26.86-0.32-.59-0.6-1.47,0-1.8a1.17,1.17,0,0,1,.9,0,10,10,0,0,1,5.37,4.6,29.79,29.79,0,0,1,2.65,6.71c0.86,2.84,3.24,7.17,2.15,10.05C287.07,132.09,281.75,141.3,281.57,141.24Z" transform="translate(0.01)"/><path class="cls-59" d="M286.68,150.58c5.6-6,6.9-8.92,9.53-17,1.6-4.92,2.23-7.8,2.77-9.55a18.15,18.15,0,0,0-1.62-2.66c-1.72,3.8-3,7.8-4.92,11.51-2.06,4-4.86,7.6-6.48,11.79-0.55,1.44-1.06,3-2.36,3.87-3.47,1.74-6.5-1.43-8.53-3.88l-0.77-.94C277.65,154.35,281.78,155.85,286.68,150.58Z" transform="translate(0.01)"/><path class="cls-51" d="M290.5,114.45c0.14-.07.27,0.12,0.31,0.28l0.48,1.86a7.35,7.35,0,0,1,3.47-1.85l-0.34-1.7a0.32,0.32,0,0,0-.07-0.18,0.33,0.33,0,0,0-.34,0L290.77,114" transform="translate(0.01)"/><path class="cls-51" d="M310.25,112.12l0.37,1.29a8.74,8.74,0,0,1,2.63.41l0.14-1.81h-3" transform="translate(0.01)"/><path class="cls-60" d="M299.38,183.2a3.34,3.34,0,0,1,1.17-2.11,8.27,8.27,0,0,1,2-1.33,17.33,17.33,0,0,1,4.59-1.35c-1.41.78-2.9,1.31-4.29,2a13.34,13.34,0,0,0-2,1.12A4.35,4.35,0,0,0,299.38,183.2Z" transform="translate(0.01)"/><path class="cls-60" d="M309.61,154a28.16,28.16,0,0,1-.23,6.46c-0.27,2.14-.7,4.25-1.14,6.36s-1,4.19-1.57,6.26-1.2,4.13-1.85,6.18c0.37-2.12.86-4.22,1.32-6.31s1-4.18,1.41-6.28,0.91-4.19,1.29-6.29A43.38,43.38,0,0,0,309.61,154Z" transform="translate(0.01)"/><path class="cls-61" d="M283.88,155.23a50.44,50.44,0,0,0-2.48,13.35c-0.33,4.53-.31,9.07-0.2,13.61s0.42,9.07.73,13.61a85.06,85.06,0,0,1-.16,13.68,234.07,234.07,0,0,1-4.1,27c-1.75,8.93-4,17.76-5.71,26.69,1.57-9,3.59-17.84,5.28-26.78a258.44,258.44,0,0,0,3.9-27,82.25,82.25,0,0,0,.1-13.58c-0.3-4.54-.56-9.09-0.65-13.64a120.36,120.36,0,0,1,.41-13.66A47.73,47.73,0,0,1,283.88,155.23Z" transform="translate(0.01)"/><path class="cls-61" d="M303.5,182.52a68.42,68.42,0,0,0-.4,10.17c0.06,3.39.29,6.78,0.5,10.17s0.36,6.8.34,10.21a75.37,75.37,0,0,1-.83,10.2c-1,6.74-2.61,13.36-3.89,20-0.64,3.33-1.17,6.68-1.5,10.06a53.91,53.91,0,0,0-.16,10.17c-0.82-6.77,0-13.63,1.14-20.32s2.75-13.32,3.72-20a77.18,77.18,0,0,0,.87-10.11c0.06-3.39-.11-6.78-0.24-10.17s-0.31-6.79-.31-10.2A68.6,68.6,0,0,1,303.5,182.52Z" transform="translate(0.01)"/><path class="cls-62" d="M307,155.25a0.27,0.27,0,0,1,.17,0,0.16,0.16,0,0,1,.09.11,3.46,3.46,0,0,1-.06,2.58,0.84,0.84,0,0,1-.86.63,0.74,0.74,0,0,1-.4-0.25,1.51,1.51,0,0,1-.22-1.75A2.22,2.22,0,0,1,307,155.25Z" transform="translate(0.01)"/><path class="cls-61" d="M290.5,156.52a4.11,4.11,0,0,1-.63,2.24,4.74,4.74,0,0,1-1.73,1.64,8.69,8.69,0,0,1-4.51.9,24.48,24.48,0,0,0,4.17-1.51A5.87,5.87,0,0,0,290.5,156.52Z" transform="translate(0.01)"/><path class="cls-63" d="M300.65,104.35a1.43,1.43,0,0,0,.52,2.77,0.07,0.07,0,0,0,.07-0.1l-0.08-.23a0.36,0.36,0,0,1-.51,0h0a0.38,0.38,0,0,0-.22-0.14c-0.15,0,0-.08,0-0.08a0.3,0.3,0,0,1,.26.06,0.3,0.3,0,0,0,.42,0h0a0.3,0.3,0,0,1,0-.21,0.63,0.63,0,0,1-.82-0.35l0-.09a0.55,0.55,0,0,1,0-.41,0.51,0.51,0,0,1-.12-0.36,0.53,0.53,0,0,1,.42,0,1.35,1.35,0,0,1,.67-0.24,0.53,0.53,0,0,1,.32-0.27,0.51,0.51,0,0,1,.14.35,0.55,0.55,0,0,1,.27.31,0.63,0.63,0,0,1-.28.84l-0.09,0a0.34,0.34,0,0,1,.18.22l0.13,0.37a0.07,0.07,0,0,0,.1,0l0,0A1.43,1.43,0,0,0,300.65,104.35Z" transform="translate(0.01)"/><path class="cls-64" d="M294.93,264.52l-0.75,9.24a1.22,1.22,0,0,0,1.13,1.31H311a0.72,0.72,0,0,0,.59-1.13c-1-1.48-3.06-3.87-5.78-3.71l-1.12-5.71h-9.78Z" transform="translate(0.01)"/><path class="cls-64" d="M269.66,264.52l-0.75,9.24a1.22,1.22,0,0,0,1.13,1.31h17.29a0.72,0.72,0,0,0,.59-1.13c-1-1.48-3.06-3.87-5.78-3.71L281,264.52H269.66Z" transform="translate(0.01)"/><path class="cls-65" d="M307.79,122.64A0.75,0.75,0,0,0,307,122a1.59,1.59,0,0,0,1,1.54,1.1,1.1,0,0,0-.18-1" transform="translate(0.01)"/><path class="cls-65" d="M309.17,136.94a2,2,0,0,0-.81-0.76,1.26,1.26,0,0,0,1.37,1.52,1.42,1.42,0,0,0-1-1.33" transform="translate(0.01)"/><path class="cls-65" d="M306.73,129.76a1.36,1.36,0,0,0,0,1.32,0.26,0.26,0,0,0,.12.13,0.28,0.28,0,0,0,.29-0.24,1.84,1.84,0,0,0-.16-1.52l-0.2.34" transform="translate(0.01)"/><path class="cls-65" d="M308.35,145.68a1.57,1.57,0,0,0,.64,2,1.85,1.85,0,0,0-.44-2" transform="translate(0.01)"/><path class="cls-66" d="M305.7,57.89l-2-1a3,3,0,0,0-1.62-.44,1,1,0,0,0-1,1.1v0a1.53,1.53,0,0,0,.65.78c2.58,1.95,5.16,3.9,7.85,5.7a22.3,22.3,0,0,1,2.56,1.87c1.11,1,2,2.65,3.36,3.34L315.28,69c0.5-.42,1.14-0.12,1.67-0.46a1.92,1.92,0,0,0,.42-2.38,6,6,0,0,0-1.08-1.56,20.7,20.7,0,0,1-2.79-2.91,14.13,14.13,0,0,0-1.24-1.81,22.56,22.56,0,0,1-4.66-1.13C307,58.52,306.34,58.2,305.7,57.89Z" transform="translate(0.01)"/><path class="cls-67" d="M287.1,262.85l1.91-.3q0.48-.08,1-0.13h0.49a0.7,0.7,0,0,1,.49.11h0a0.89,0.89,0,0,0-.45.06l-0.48.09q-0.48.06-1,.08l-1.93.11h0Z" transform="translate(0.01)"/><path class="cls-67" d="M287.55,266.43a0.37,0.37,0,0,1,.29-0.27l0.36-.17,0.73-.33a4.59,4.59,0,0,1,1.53-.5h0a4.59,4.59,0,0,1-1.46.68l-0.76.26-0.38.12a0.33,0.33,0,0,0-.29.2h0Z" transform="translate(0.01)"/><path class="cls-67" d="M292.17,266.44a4.71,4.71,0,0,0-1,1.49c-0.21.56-.36,1.12-0.53,1.73h0a2.66,2.66,0,0,1,.36-1.82,4.31,4.31,0,0,1,1.19-1.42Z" transform="translate(0.01)"/><path class="cls-67" d="M264.26,263.25a11.08,11.08,0,0,0,1.91-.1,19.11,19.11,0,0,1,1.9-.29h0a4,4,0,0,1-1.88.47,8.88,8.88,0,0,1-1.94-.09h0Z" transform="translate(0.01)"/><path class="cls-67" d="M264.78,266.83a6.6,6.6,0,0,0,1.64-.55c0.51-.28,1-0.57,1.52-0.84h0a3,3,0,0,1-1.45,1,5.66,5.66,0,0,1-1.72.38h0Z" transform="translate(0.01)"/><path class="cls-67" d="M266.87,269.46a1.08,1.08,0,0,1,.36-0.85q0.31-.35.64-0.69a4.52,4.52,0,0,1,1.49-1.12h0a9.67,9.67,0,0,1-1.37,1.26l-0.69.62a1,1,0,0,0-.43.76h0v0Z" transform="translate(0.01)"/><path class="cls-67" d="M257.65,266.86a1.66,1.66,0,0,1,1.27,0,2.44,2.44,0,0,1,1,.78,4,4,0,0,1,.77,2.45h0a11.78,11.78,0,0,0-.91-2.33,2,2,0,0,0-2.14-.86h0Z" transform="translate(0.01)"/><path class="cls-67" d="M281.76,266.73a3,3,0,0,1,2.23,1,2.1,2.1,0,0,1,.51,1.16,5.62,5.62,0,0,0,.18,1.19h0a2.69,2.69,0,0,1-.42-1.16,2.37,2.37,0,0,0-.41-1.07,3,3,0,0,0-2.07-1.07h0Z" transform="translate(0.01)"/><path class="cls-68" d="M174.09,155.33c-1.35-.48-0.84-6.26,0-6.14a4.6,4.6,0,0,0,4.16,1.35c2.71-.42,10.51-6.56,9.26-14s-6.56-15.19-11.65-13.84-6.76,6.66-9.26,8.12-5.88,5.55-4.06,9.89a14.4,14.4,0,0,0,2.91,4.58l-2.6,7.49L165.66,166l10.09,8.64,1-10.09Z" transform="translate(0.01)"/><path class="cls-69" d="M174.9,145.76c-1.28-.83-1.23,2.19-0.81,3.43s4,3.23,7.91,1.14,6.76-4.58,7.6-6.66c0,0,0,2.86-1.56,4.14s-5.25,10.22-.39,17.71a7.66,7.66,0,0,1,2.36-6.24c2.91-2.91,9.36-4.37,10.2-11.45s-3.85-10-6-10.41l-2-3.33s1.1-3.12-4.34-8.32-11.48-4.89-12-3.12,3.23,5.93,5.72,6.45,1.87,2.08.42,2-4.37.62-3.75,3.85,1.56,3.54.21,3.75-2.08,2.5-.42,2.81,4.37,0.62,3.23,2.71A4.15,4.15,0,0,1,174.9,145.76Z" transform="translate(0.01)"/><path class="cls-70" d="M189.59,143.68s2.71-5,2.6-9.57c0-1.86,1.92,1.34,2,3.33C194.3,141.7,191.67,143.78,189.59,143.68Z" transform="translate(0.01)"/><path class="cls-71" d="M190.33,128.52a21.21,21.21,0,0,0-2.48-2.78c1.08,9.73-4.08,15.15-6.42,17.08a1.43,1.43,0,0,1-.17,1.34l-0.16.26C192,142,190.34,128.64,190.33,128.52Z" transform="translate(0.01)"/><path class="cls-70" d="M152.65,190c-2.29-9.68.21-28.61,0.21-28.61l-0.94-.62a29.86,29.86,0,0,1,4.27-3.43c2.39-1.56,2-5.93,2.6-5.2s2.39,0.42,4.06.62a16.72,16.72,0,0,1,6.14,8.53c2,5.93,4.44,3,5,1.25s0.12-7.18.12-7.18a4,4,0,0,1,3,2.91c0.83,2.6.31,10.32-.52,13.33s-0.53,15-.23,18.42Z" transform="translate(0.01)"/><path class="cls-72" d="M174.09,155.33s0.42,5.41-.12,7.18-3,4.68-5-1.25a18.17,18.17,0,0,0-1.46-3.26c-1,.06-1.84-1-2.8-0.77a1.85,1.85,0,0,0-1,.8,8.55,8.55,0,0,0-1.37,5,25.48,25.48,0,0,0,.78,5.22l4.8,21.73h8.39c-0.3-3.45-.6-15.42.23-18.42s1.35-10.73.52-13.33A4,4,0,0,0,174.09,155.33Z" transform="translate(0.01)"/><path class="cls-73" d="M153.77,268.52c-1.87-.24-4.73,0-6.47-0.79,1.79-3.47,3.07-8,4.87-11.38,1.67-3.14,2.76-9.53,7-14.46a31.21,31.21,0,0,1,4.22-3.89s-1.18-3.85-1.59-5.12a45.56,45.56,0,0,1-1.88-17.21c0.07-1-.1-3,0.64-3.73s2.25-.7,3.07-0.91a34,34,0,0,1,9.38-1.29,1.15,1.15,0,0,1,1,.42,1,1,0,0,1,.06.54c-0.39,4.44-1.24,8.71-1.31,13.27,0.12,3.79-.13,7.63-0.19,11.48-0.06,3.61-.51,7-2.37,10.17C169.44,247.06,155.5,265.8,153.77,268.52Z" transform="translate(0.01)"/><path class="cls-74" d="M173.5,213.27a14.52,14.52,0,0,0-2.7-3.43,39.47,39.47,0,0,0-7.13,1.24c-0.82.21-2.46,0.3-3.07,0.91s-0.57,2.76-.64,3.73a48.25,48.25,0,0,0,.54,11.6,2.42,2.42,0,0,1,1.13-1,4.72,4.72,0,0,1,4.24.78c1.85,1.4,2.67,3.79,3,6.09a18.52,18.52,0,0,1-1.81,10.52c-1.57,3.13-4,5.84-5,9.22a7.4,7.4,0,0,0,0,4.12c3.93-5.38,7.83-10.72,8.26-11.44,1.86-3.15,2.31-6.57,2.37-10.17,0.06-3.85.31-7.69,0.19-11.48a94.57,94.57,0,0,1,1-10.11A1.47,1.47,0,0,1,173.5,213.27Z" transform="translate(0.01)"/><path class="cls-75" d="M157,208.74s1.64,4.11,1.56,5.82l4.34,0.05-0.72-5.83Z" transform="translate(0.01)"/><polygon class="cls-76" points="158.61 214.24 158.63 216 164.5 215.92 164.29 213.75 158.61 214.24"/><path class="cls-68" d="M184.26,220.63c1.38,2.37,2.38,4.76,3.65,7.22,2.5,4.84,3.31,10.09,3.82,15.43,0.45,4.76,1.12,9.68,1.43,14.55a24.85,24.85,0,0,0,1.39,6.41c0.16,0.54,1.88,5,1.47,5a77.79,77.79,0,0,0-8,1.51c-1.75-4.93-1.53-9-3.13-13.33A60.1,60.1,0,0,1,181.73,247c-0.6-3.5-1.88-8.75-1.37-12-7.51-4.35-13.38-13.23-18.46-21.23,1-.85,3.2-1.12,4.22-2,2.3-1.93,4.75-3.68,7.08-5.56,0.67-.55.75-0.91,1.48-0.37,1.89,1.41,2.58,3.64,3.61,5.61C179.75,214.25,183.09,218.62,184.26,220.63Z" transform="translate(0.01)"/><path class="cls-77" d="M190.62,261a4.35,4.35,0,0,0,3.28,1,18.81,18.81,0,0,1-.73-4.17c-0.31-4.87-1-9.79-1.43-14.55-0.51-5.34-1.32-10.6-3.82-15.43-1.27-2.46-2.27-4.85-3.65-7.22-1.17-2-4.51-6.38-6-9.16-1-1.85-1.64-3.92-3.28-5.33a24.41,24.41,0,0,0-3.68,1.55c-1.75,1.35-3.51,2.68-5.2,4.1a3.63,3.63,0,0,1-.79.47,9.77,9.77,0,0,0-1.89,3.89l1.09,1.67a4.77,4.77,0,0,0,1.88-.47c0.25-.13,2.49-2.24,2.13-2.36a5.54,5.54,0,0,0,4.39-.46c1.13-.65,2.37-1.74,3.53-1.15a2.88,2.88,0,0,1,1,1.05,102.13,102.13,0,0,1,6,10.4,18.54,18.54,0,0,1,1.81,4.67,21,21,0,0,1,.27,4q0,3.79.14,7.58c0.17,5.43.49,11,2.4,16A9.09,9.09,0,0,0,190.62,261Z" transform="translate(0.01)"/><path class="cls-71" d="M152.44,191.72c0.64,2.68,0,5.24-.27,8.92a13.67,13.67,0,0,0,6.33,11.71c4.38,2.67,4.43,4.8,4.43,4.8l2.84-1.49,0.76-3.73,4,0.85,6.69-4.26-1.48-2.61s-0.88-3.87.08-6.72,0.57-5.1.17-7.59S152.44,191.72,152.44,191.72Z" transform="translate(0.01)"/><path class="cls-78" d="M175.73,199.2c0.95-2.83.57-5.1,0.17-7.59-0.09-.54-1.6-0.83-3.37-1-0.16,0-2.2-.67-2.36-0.64-3.54.7-2.08,2.15-1,5.85,1.1,3.88,6.51,10.07,6.51,10.07S174.77,202,175.73,199.2Z" transform="translate(0.01)"/><polygon class="cls-79" points="176.32 192.06 152.43 192.06 152.43 189.46 176.46 189.46 176.32 192.06"/><path class="cls-68" d="M122.37,116.12l29.55,44.62,5.91-4.47,1-4.17c-1.56-3-9.77-9.18-14-17-5.09-9.5-19.73-20.94-19.73-20.94-1.15-.74-0.09-1.64-0.68-2.63s-3.8,1.89-3.8,1.89a1.49,1.49,0,0,0,0,2C121.56,116.26,121.79,115.24,122.37,116.12Z" transform="translate(0.01)"/><path class="cls-80" d="M158.79,152.11c-1.56-3-9.77-9.18-14-17-2.54-4.74-7.47-10-11.76-14a26.64,26.64,0,0,0-2.44-1.37,1.37,1.37,0,0,0-1.29-.15,1.28,1.28,0,0,0-.3,1.4,16.5,16.5,0,0,0,2.8,5.32c1.73,2.42,2.53,5.3,4.43,7.59a32.75,32.75,0,0,0,3.28,3.55c1,0.94,2.19,1.77,3.19,2.76a24.42,24.42,0,0,1,3.38,4.55q3.94,6.34,7.31,13l0.68,1.32,3.71-2.8Z" transform="translate(0.01)"/><path class="cls-79" d="M151.3,160.25l1.57,1.12a10,10,0,0,0,5-3.92c2.26-3.19,1.48-5.42,1.48-5.42l-1.24-.84a8.58,8.58,0,0,1-2.22,5.48A13.33,13.33,0,0,1,151.3,160.25Z" transform="translate(0.01)"/><path class="cls-79" d="M162.16,152.67s4.65,4.23,6.37,9.37,4.31,4.16,5.15,2.14,1.19-4.22.76-8.76l-0.61-.27s0.82,6.22-.66,8.4-2.91.54-3.59-1.56a16.78,16.78,0,0,0-6.72-9.26Z" transform="translate(0.01)"/><polygon class="cls-79" points="162.61 216.46 163.06 217.78 166.12 216.12 166.77 212.44 170.69 213.39 177.37 208.97 176.81 207.94 170.64 211.98 166.64 211.18 155.78 194.9 154.4 195.71 165.54 211.87 165.19 215.15 162.61 216.46"/><path class="cls-79" d="M162.67,165.19a8.54,8.54,0,0,0,.71,2.69,1.39,1.39,0,0,0,1.2,1.11,1.32,1.32,0,0,0,.88-0.93c0.53-1.27,1.45-4,.43-5.23C164.28,160.8,162.59,163.52,162.67,165.19Z" transform="translate(0.01)"/><path class="cls-81" d="M172.89,195.52a0.56,0.56,0,0,0,.2.52,0.39,0.39,0,0,0,.44-0.1,1.13,1.13,0,0,0,.23-0.42c0.15-.42.3-0.84,0.44-1.26a2.75,2.75,0,0,0-.12-2.52,8.83,8.83,0,0,0,3.24,3.75,0.55,0.55,0,0,0,.63.08,0.47,0.47,0,0,0,.13-0.3,2.53,2.53,0,0,0-.35-1.48c-0.52-1-2.08-2.72-3.38-2.33S172.89,194.52,172.89,195.52Z" transform="translate(0.01)"/><path class="cls-82" d="M158.05,165.67a7.71,7.71,0,0,1-3.93-1.53c-0.73-.48-1-1.79-1.27-2.78-0.42,3.56-1.77,16.45-.82,25a80,80,0,0,0,1.59-8A51.92,51.92,0,0,1,158.05,165.67Z" transform="translate(0.01)"/><path class="cls-83" d="M188,270.76a77.8,77.8,0,0,1,8-1.51c0.41-.06-1.31-4.46-1.47-5a24.86,24.86,0,0,1-1.39-6.41c-0.31-4.87-1-9.79-1.43-14.55V243l-10.33,2.08c0.14,0.68.28,1.33,0.38,1.92A60.13,60.13,0,0,0,185,257.43C186.5,261.77,186.29,265.82,188,270.76Z" transform="translate(0.01)"/><path class="cls-84" d="M194.56,264.24a24.86,24.86,0,0,1-1.39-6.41c-0.31-4.87-1-9.79-1.43-14.55V243l-6.24,1.26c0.06,3.23,1.56,6.51,2.58,9.68,1.57,4.89,2,10.06,3.18,15.06q0.12,0.5.25,1c1.73-.33,3.56-0.62,4.55-0.75C196.44,269.19,194.72,264.78,194.56,264.24Z" transform="translate(0.01)"/><path class="cls-85" d="M186.28,267.14a16.87,16.87,0,0,1,1.4,5.46,1.27,1.27,0,0,0,1.27,1.27c5.14-.34,10.88-2,15.76-3.61,0.65-.21,1.17-0.31.86-1a4,4,0,0,0-2-2,7.67,7.67,0,0,0-2.08-.14l-3.87.09a1.38,1.38,0,0,1-.08-1.25,5.24,5.24,0,0,0,.1-1.71,1.74,1.74,0,0,0-.89-1.53,1.1,1.1,0,0,0-1.2.41,4.1,4.1,0,0,0-.57,1.23,11.26,11.26,0,0,1-1.76,3.19,1.88,1.88,0,0,1-.75.64,2,2,0,0,1-1.19,0C189.64,267.77,187.85,266.62,186.28,267.14Z" transform="translate(0.01)"/><path class="cls-86" d="M193.84,270.94a7.43,7.43,0,0,0,5.14-1.46,4.81,4.81,0,0,1,.9-0.61c0.48-.21,1-0.21,1.51-0.44a1.73,1.73,0,0,0,.94-1.33H201.5l-3.87.09a1.38,1.38,0,0,1-.08-1.25,5.24,5.24,0,0,0,.1-1.71,3.06,3.06,0,0,0-.06-0.32,2,2,0,0,0-.37.33c-0.83.92-.7,2.5-1.42,3.57S194,269.63,193.84,270.94Z" transform="translate(0.01)"/><path class="cls-83" d="M188.1,275a1.25,1.25,0,0,0,.92.06,107.38,107.38,0,0,0,17-4.34,2.29,2.29,0,0,0-.63-1.79c-0.37-.17-8,2.53-12.17,2.94a27,27,0,0,0-4.83.57c-0.67.19-.86,0-0.88,0.65A3.08,3.08,0,0,0,188.1,275Z" transform="translate(0.01)"/><path class="cls-83" d="M152.17,256.39c-1.8,3.4-3.08,7.91-4.87,11.38,1.74,0.77,4.6.55,6.47,0.79,1.18-1.84,7.79-10.83,12.27-17l-4.71-4.14c-1.26-1.1-2.52-2.2-3.8-3.25C154.61,248.66,153.6,253.71,152.17,256.39Z" transform="translate(0.01)"/><path class="cls-87" d="M160.64,253q-4.52,7.56-8.57,15.39a14.3,14.3,0,0,1,1.7.12c1.18-1.84,7.79-10.83,12.27-17l-2.84-2.49A36.68,36.68,0,0,0,160.64,253Z" transform="translate(0.01)"/><path class="cls-88" d="M163.18,252.52q-2-2.11-4.16-4.09-1.07-1-2.16-1.92c-0.13-.11-0.29-0.28-0.45-0.44-0.16.3-.3,0.6-0.45,0.9l7.07,6.61c0.3,0.28.6,0.57,0.88,0.87l0.47-.64A15.08,15.08,0,0,1,163.18,252.52Z" transform="translate(0.01)"/><path class="cls-89" d="M162,254.78q-2-2.11-4.16-4.09-1.07-1-2.16-1.92l-0.34-.32c-0.14.31-.28,0.63-0.4,0.94l6.9,6.46,0.7,0.67,0.47-.64C162.61,255.52,162.29,255.13,162,254.78Z" transform="translate(0.01)"/><path class="cls-88" d="M191.18,246.22L192,246l-0.08-.77-1.55.22q-2.88.47-5.72,1.12-1.41.32-2.81,0.7h0c0.06,0.31.13,0.62,0.2,0.93Z" transform="translate(0.01)"/><path class="cls-89" d="M192.28,248.52l-0.09-.83-0.66.09q-2.88.47-5.72,1.12-1.41.32-2.81,0.7a5,5,0,0,0-.65.13c0.08,0.31.18,0.62,0.27,0.93Z" transform="translate(0.01)"/><path class="cls-85" d="M147.26,265.89a15.13,15.13,0,0,1-1.41,5,0.89,0.89,0,0,0,.49,1.39c4.63,1,10.46,1,15.48.87,0.67,0,1.18,0,1.26-.67a2.64,2.64,0,0,0-.76-2.16,6.35,6.35,0,0,0-1.75-.64l-3.42-.89a1.41,1.41,0,0,1,.53-1.08,5.88,5.88,0,0,0,.91-1.43,1.3,1.3,0,0,0,0-1.51,1.19,1.19,0,0,0-1.25,0,5.44,5.44,0,0,0-1.1.9,15.12,15.12,0,0,1-3.08,2.27,2.47,2.47,0,0,1-1,.36,1.75,1.75,0,0,1-1-.31C149.88,267.24,148.88,265.83,147.26,265.89Z" transform="translate(0.01)"/><path class="cls-90" d="M161.82,273.1c0.67,0,1.18,0,1.26-.67a2.64,2.64,0,0,0-.76-2.16,6.36,6.36,0,0,0-1.75-.64l-3.42-.89a1.41,1.41,0,0,1,.53-1.08,5.88,5.88,0,0,0,.91-1.42,2.54,2.54,0,0,0,.19-0.65h0l-3.59,3.12a7.51,7.51,0,0,1-1.37,1,10.8,10.8,0,0,1-2,.68,12.34,12.34,0,0,0-1.9.74,1,1,0,0,0-.42.32,0.67,0.67,0,0,0,.21.82,2,2,0,0,0,.85.34l1.83,0.41C155.5,273.19,158.8,273.16,161.82,273.1Z" transform="translate(0.01)"/><path class="cls-83" d="M145,272.93a1.1,1.1,0,0,0,.78.28,121.41,121.41,0,0,0,17.08.72,1.7,1.7,0,0,0,.32-1.58c-0.25-.22-8.29,0-12.19-0.65a27.55,27.55,0,0,0-4.52-.73c-0.68,0-.73-0.25-1.08.3A2.36,2.36,0,0,0,145,272.93Z" transform="translate(0.01)"/><path class="cls-91" d="M157.16,268.74c-0.19.32-.32,0.77-0.45,1a1.44,1.44,0,0,0-.17.57,0.36,0.36,0,0,0,0,.21,0.41,0.41,0,0,0,.19.14,1.42,1.42,0,0,0,.55.11,4.18,4.18,0,0,1,.77-1.82Z" transform="translate(0.01)"/><path class="cls-91" d="M197.23,269.58a0.23,0.23,0,0,0,.14,0h0.91a16.21,16.21,0,0,0,.65-2.35h-1.29C197.33,267.7,196.89,269.36,197.23,269.58Z" transform="translate(0.01)"/><path class="cls-92" d="M169.81,133.65c-1.18,1-1.76.68-2.22,0.12s-0.64-1.19.54-2.16,3.27-1.92,3.73-1.36S171,132.67,169.81,133.65Z" transform="translate(0.01)"/><path class="cls-92" d="M175,133.82a0.82,0.82,0,0,1-1,.55h0a0.89,0.89,0,0,1-.58-1.09,0.82,0.82,0,0,1,1-.55h0A0.89,0.89,0,0,1,175,133.82Z" transform="translate(0.01)"/><path class="cls-92" d="M170.38,129.18a0.68,0.68,0,0,1-.84.46h0a0.74,0.74,0,0,1-.48-0.9,0.68,0.68,0,0,1,.84-0.46h0A0.74,0.74,0,0,1,170.38,129.18Z" transform="translate(0.01)"/><path class="cls-92" d="M175.84,131.73a2,2,0,0,1,.52,1,1.92,1.92,0,0,1-.15,1.16c-0.11-.39-0.14-0.74-0.22-1.1A5.89,5.89,0,0,1,175.84,131.73Z" transform="translate(0.01)"/><path class="cls-92" d="M171.38,127.69c-0.27-.1-0.47-0.22-0.7-0.3a5.66,5.66,0,0,1-.7-0.3A1.05,1.05,0,0,1,171.38,127.69Z" transform="translate(0.01)"/><path class="cls-93" d="M164.12,135.12c-0.83,2.34-.09,5.82,3,6.38s4.1-2.4,2.72-3.55c-2.2-1.84-3.85-3.08-4-4.29S164.68,133.52,164.12,135.12Z" transform="translate(0.01)"/><path class="cls-94" d="M170.86,135.83a0.47,0.47,0,0,0-.12.29,3.51,3.51,0,0,0,.67,2.15,7.58,7.58,0,0,0,1.27,1.68,3.26,3.26,0,0,0,1.86.92,1.22,1.22,0,0,0,1-.25c0.9-.86-0.4-2.81-1.07-3.46S171.56,135.17,170.86,135.83Z" transform="translate(0.01)"/><path class="cls-94" d="M167.5,131.26a0.31,0.31,0,0,0,.07-0.13,1.17,1.17,0,0,0-.12-0.86,2,2,0,0,0-.42-0.63,1,1,0,0,0-.77-0.27,0.77,0.77,0,0,0-.48.18A1.08,1.08,0,0,0,166,131,1.46,1.46,0,0,0,167.5,131.26Z" transform="translate(0.01)"/><path class="cls-95" d="M181.62,199.74c-0.24,4,3.07,6.81,7.55,5.4s-4.39-7.57-4.39-7.57Z" transform="translate(0.01)"/><path class="cls-96" d="M232.35,235.52a4.21,4.21,0,0,1-1.77-.78,3.92,3.92,0,0,1-.74-1,38,38,0,0,1-3.17-7,5.22,5.22,0,0,1-.36-1.8,5.78,5.78,0,0,1,.79-2.35,95.68,95.68,0,0,0,5.14-12.3c1.31-3.87,2.66-8.2,6.22-10.2a11.53,11.53,0,0,1,5.06-1.28,10.07,10.07,0,0,1,4.8.7,13,13,0,0,1,4.13,3.63c4.6,5.38,9.35,11.06,10.86,18,1.47,6.72-.06,15-2.69,21.28-1.17,2.8-3.35,1.93-5.67,1-3.47-1.45-6.94-2.86-10.49-4.11Q238.5,237.12,232.35,235.52Z" transform="translate(0.01)"/><path class="cls-97" d="M210.72,252.43a5.73,5.73,0,0,1-5.19,4.45c-1.24.06-2.59-.27-3.63,0.39a3.79,3.79,0,0,0-.94.94,14.2,14.2,0,0,0-1.48,2.42,3.36,3.36,0,0,0-.41,1.38c0,1.25,1.63.71,2.66,1.08a0.56,0.56,0,0,0,.74-0.28l0-.07a6.41,6.41,0,0,1,1.36-1.62c1-1.08,2.11-1.06,2.59-.65,1.58,1.35,3.69.55,5.19-1a9.93,9.93,0,0,0,2.74-5.7" transform="translate(0.01)"/><path class="cls-98" d="M217.37,208s-1.12,9.23-.56,14-2.81,5.51-3.36,12.51-1.53,14.81-3.77,18.69l4.48,1.36s2.76,1.69,6.21-10.34,6.73-33.56,6.73-33.56L226.31,208h-8.94Z" transform="translate(0.01)"/><path class="cls-99" d="M226.3,208h-8.93s-0.22,1.79-.41,4.21a11.62,11.62,0,0,1,2,1.18c2.58,2.09,2.76,6.64,2.65,9.68a7.33,7.33,0,0,1-1,3.94c-0.76,1.1-2,1.76-2.9,2.74a11.06,11.06,0,0,0-2.09,4.26c-1.07,3.37-2.69,7.18-3,10.71a7.19,7.19,0,0,1-1,3.16,20.68,20.68,0,0,1-1.92,5.33l4.48,1.36s2.76,1.69,6.21-10.34,6.73-33.56,6.73-33.56Z" transform="translate(0.01)"/><path class="cls-96" d="M218.38,195.52c-0.54,3.79-1.38,10.91-3.08,14.34,3.67,0.5,5.8.57,9.47,1.08a7,7,0,0,1,1.83.42,3.36,3.36,0,0,0,2,.61l0.28-7a34.26,34.26,0,0,1,.56-5.75c0.38-1.8,1.06-3.6.8-5.42a0.56,0.56,0,0,0-.4.36" transform="translate(0.01)"/><path class="cls-100" d="M230.05,196.71l-0.12-.17a2.89,2.89,0,0,0-2.44-1.1A3.36,3.36,0,0,0,226,196a11.82,11.82,0,0,0-3,3.28,30.39,30.39,0,0,0-3.24,6.19c-0.61,1.6-1.14,3.18-1.87,4.69,2.26,0.25,4.13.38,6.84,0.75a7,7,0,0,1,1.83.42,3.36,3.36,0,0,0,2,.61l0.28-7a34.26,34.26,0,0,1,.56-5.75C229.63,198.39,229.87,197.52,230.05,196.71Z" transform="translate(0.01)"/><path class="cls-101" d="M229.26,264.73c0,1.6-1.25,2.35-3.74,3.38s-6.24,3.74-7.71,4.11,2.64,1.25,6.39,1.32,8.59,1,10.79,0,3.68-2,2.94-4.18-1.54-3.08-1.39-4.33S229.26,264.73,229.26,264.73Z" transform="translate(0.01)"/><path class="cls-102" d="M221.27,270.42c-2,.11-5.44.7-6.61,2s-1.76,2.64,1.54,2.64H235a3.76,3.76,0,0,0,3.84-2.64c0.49-1.25-.17-3.67-0.91-3.08s-0.59,1.69-2.42,1.91-12.08.71-14.17,0.51S221.27,270.42,221.27,270.42Z" transform="translate(0.01)"/><path class="cls-103" d="M258.55,236c-7.39-4.07-15.56-6.48-23.66-8.86l-4.2-1.23v0.64a33.82,33.82,0,0,1,6.4,17.36,80.65,80.65,0,0,1-.15,9.41c-0.08,1.52,1,11.75,1.06,13.28s-10.56-.53-10.57-0.8c-0.18-5.43-3.48-20.33-4.16-25.72-0.43-3.38-2-6.48-2.39-9.86q-0.37-2.93-.91-5.83a21.66,21.66,0,0,1-.85-4.59,6.06,6.06,0,0,1,1-3.59c1.3-1.71,3.25-1.73,5.19-2a38,38,0,0,1,6.6-.65c3.33,0,16.35.39,19.65,0" transform="translate(0.01)"/><path class="cls-104" d="M234.9,227.18c8.1,2.38,16.26,4.79,23.66,8.86l-7.06-22.52c-2.83.34-12.82,0.13-17.7,0a24.18,24.18,0,0,1-2.49,2.87c-1.13,1-5.34-.07-6.59.79a6.2,6.2,0,0,0-2.76,3.49,7.35,7.35,0,0,0,.56,4c2.68,7.66,9.68,16.55,11.61,24.44,1,4.27,1.39,13.6,1.05,18,1.59,0.09,2.8,0,2.8-.51,0-1.53-1.13-11.75-1.06-13.28a80.66,80.66,0,0,0,.15-9.41,33.82,33.82,0,0,0-6.4-17.36v-0.64Z" transform="translate(0.01)"/><path class="cls-96" d="M225.23,210c5.48,2.39,15.22,3.19,17.58,4.93l-1.4-6-11.1-2.49Z" transform="translate(0.01)"/><path class="cls-97" d="M209.11,260.94a3.81,3.81,0,0,1-1.57,2.23,2,2,0,0,0-.61.74,1,1,0,0,0,1.37,1.28,2,2,0,0,0,.56-0.45l0.81-.82A21.16,21.16,0,0,0,212,261.7a2.2,2.2,0,0,0,.23-1.75,0.24,0.24,0,0,0-.27-0.2" transform="translate(0.01)"/><path class="cls-97" d="M205.84,264.52c0.14-.24.25-0.51,0.39-0.75a5.62,5.62,0,0,1,2.56-2.3,2.13,2.13,0,0,0,1.27-1,0.53,0.53,0,0,0,0-.37,0.76,0.76,0,0,0-.7-0.32,5,5,0,0,0-1.41,0,4.77,4.77,0,0,0-1.33.59,3.61,3.61,0,0,0-1.09.85,4.79,4.79,0,0,0-.47.86c-0.16.33-.34,0.64-0.49,1a6.09,6.09,0,0,0-.43,1.35,2.73,2.73,0,0,0-.09,1.39C204.43,266.31,205.66,264.83,205.84,264.52Z" transform="translate(0.01)"/><path class="cls-105" d="M210.26,261.43a12.82,12.82,0,0,0-1.51-.16c-1.17,0-2.59.47-3,1.56-0.54,1.36-.88,2.73-1.57,3.11-0.55,0-.7-0.77-0.7-1.33a10.45,10.45,0,0,1,.29-2.78,3.52,3.52,0,0,1,1.63-2.19,8.75,8.75,0,0,1,2.2-.56c2.32-.52,4.15-2.24,6-3.78a3.23,3.23,0,0,1,1.58-.88,2.29,2.29,0,0,1,2.38,1.6c0.09,0.88-.81,2.16-1.33,2.81A6.85,6.85,0,0,1,210.26,261.43Z" transform="translate(0.01)"/><path class="cls-102" d="M239.89,208c0,15.91-7.27,25.93-10.77,32.76s-11.89,17.62-11.89,17.62l-3.79-3.81s5.18-6.76,6.21-13.15,1.67-12.28,5.58-19.69,2.54-18.57,2.54-18.57Z" transform="translate(0.01)"/><path class="cls-106" d="M217.23,258.39s8.39-10.8,11.89-17.62c2.05-4,5.4-9.13,7.82-15.88h-0.08c0.08-.13.14-0.26,0.22-0.4,0.45-1.29.86-2.64,1.23-4A10.13,10.13,0,0,0,238,217a1.59,1.59,0,0,0-.91-1.24A1.39,1.39,0,0,0,236,216c-1.43,1.06-1.89,3-2.43,4.65-1.89,5.93-5.91,10.93-8.36,16.65-1.49,3.5-2.41,7.27-4.44,10.48-1.8,2.84-4.4,5.15-6,8.1Z" transform="translate(0.01)"/><path class="cls-95" d="M244.56,179c2.44-5.44-6.49-5.51-8.48-1.29a15.55,15.55,0,0,1-8,8.19c-4.9,2.18-10,10.1-15.14,6.4s-4.81-10.66-4.81-10.66l19.37-11.91h12.36l7.64,1.54,0.55,7.32" transform="translate(0.01)"/><path class="cls-107" d="M200.5,202.34a38.8,38.8,0,0,1,3.74,2.59,2,2,0,0,0,1.72.64,1.93,1.93,0,0,0,1-1.64" transform="translate(0.01)"/><path class="cls-105" d="M212.56,188c-1.73-.37-3.26-1.34-4.94-1.88a11.44,11.44,0,0,0-7.3.26,15.77,15.77,0,0,0-6.08,4.16c-1.5,1.61-2.78,3.72-2.42,5.89,0.42,2.53,2.88,4.18,5.26,5.13,1.47,0.58,3.23.67,4.58,1.45,3.21,1.87,8.58,1.35,10.17-.34a2.39,2.39,0,0,0,.31-2.16,4.68,4.68,0,0,1-.21-2.23c0.42-1.52,2-1.25,3.19-1.39a26.05,26.05,0,0,1,7.88.27,2.82,2.82,0,0,0,1.28.05,2.36,2.36,0,0,0,1.36-2.08c0.3-2,.13-9.18-2.92-9-1.37.09-2.9,1-4.23,1.33A12.93,12.93,0,0,1,212.56,188Z" transform="translate(0.01)"/><path class="cls-108" d="M222.27,186.18c-1.24.22-2.59,1-3.77,1.27a22,22,0,0,1-2.92.6,0.93,0.93,0,0,0,.29.62c0.15,0.14.34,0.23,0.5,0.36a1.43,1.43,0,0,1-.21,2l0,0a5.13,5.13,0,0,1-2.17.83,14.4,14.4,0,0,0-6.3,3.39A3.45,3.45,0,0,0,206.5,197c-0.21.89,0.23,1.86,0,2.74a2.34,2.34,0,0,1-1.49,1.42,5.72,5.72,0,0,1-2.1.24,23.09,23.09,0,0,1-8.57-2,4.6,4.6,0,0,0-1.18-.39,10.68,10.68,0,0,0,4,2.56c1.47,0.58,3.23.67,4.58,1.45,3.21,1.87,8.58,1.35,10.17-.34a2.39,2.39,0,0,0,.31-2.16,4.68,4.68,0,0,1-.21-2.23c0.42-1.52,2-1.25,3.19-1.39a26.05,26.05,0,0,1,7.88.27,2.82,2.82,0,0,0,1.28.05,2.36,2.36,0,0,0,1.36-2.08c0.24-1.58.18-6.37-1.36-8.23l-1.4-.5Z" transform="translate(0.01)"/><path class="cls-109" d="M187.66,189.69c0.26,4.55,2.19,9.7,5,9.07,0.27-2.31,3.85-1.19,3.59-4.25-0.15-1.71,1.62-.45,2.39-0.1s6.76,1.66,7.21-1.95c0,0-2.94-1.9-1.54-3.72s5.33,0.94,5.33.94,2.49,0.09,2.88-1.72c0.67-3.08,3-5.56,5.28-7.62a28,28,0,0,1,8.42-5.27,43.24,43.24,0,0,1,4.65-1.5q2.88-.79,5.81-1.39a15.24,15.24,0,0,1,6.48-.34,5.76,5.76,0,0,1,3.27,3.22,3.07,3.07,0,0,1-1.79,4l-0.12,0s7.7,1.95,6.69-7.06-9.14-12.71-14.13-12.83c-11.55-.28-13.8,12-21.79,13.49s-12.08.8-18.88,3.83C189.93,179.39,187.43,185.67,187.66,189.69Z" transform="translate(0.01)"/><path class="cls-110" d="M305.73,264a11.37,11.37,0,0,0,4.93-1.17c0,1.6,1.59,3.43,2.26,4.88a6.94,6.94,0,0,1,.58,3.8,0.77,0.77,0,0,0,.24.86c0.86,0.37,2,.86,2.59.16a5.44,5.44,0,0,0,1-2.59c0.85-4.15,1.48-8.58,0-12.54a4.3,4.3,0,0,0-1.8-2.4,5,5,0,0,0-3.65,0,55.39,55.39,0,0,0-9.76,3.81,22.9,22.9,0,0,0,1.46,4.06,3.3,3.3,0,0,0,1,1.38C305.06,264.67,305.34,264.43,305.73,264Z" transform="translate(0.01)"/><path class="cls-102" d="M315.82,270.52a5.61,5.61,0,0,0-2.32,1c-1.36,1-3.36.47-2.66,1.76s1.45,1.11,1.45,1.11l5,0.15c0.85,0,2.07-1.74,2.33-3.22a78.38,78.38,0,0,0,.38-12.25,5,5,0,0,0-2.94-4.31c-1.67-.86-5.39-0.58-5.15.29s3.54,0.55,4.62,3.45S316.82,268.17,315.82,270.52Z" transform="translate(0.01)"/><path class="cls-103" d="M307.62,264.72a18.41,18.41,0,0,0-2.38-8.74c-5.53,1.13-5.32,1.49-11,1.49-5.41,0-9.89.28-15.28-.18a16.89,16.89,0,0,0-6.7.44,13.09,13.09,0,0,1,1.4-7,91,91,0,0,1,5.24-9.55L256.1,251a7.29,7.29,0,0,0-.85,3c-0.62,4.82-1.19,10,1,14.33a24.58,24.58,0,0,0,3.12,4.43,2.88,2.88,0,0,0,1.13,1,2.85,2.85,0,0,0,1.47,0c6-1,11.87-2.49,17.79-3.83C287.64,268.2,305.06,268.46,307.62,264.72Z" transform="translate(0.01)"/><path class="cls-111" d="M307.62,264.72a18.4,18.4,0,0,0-2.38-8.74c-5.53,1.13-5.32,1.49-11,1.49-5.41,0-9.89.28-15.28-.18a16.89,16.89,0,0,0-6.7.44,13.09,13.09,0,0,1,1.4-7,91,91,0,0,1,5.24-9.55L256.1,251a7.29,7.29,0,0,0-.85,3c-0.13,1-.26,2.11-0.36,3.17,1.8-.24,3.69-1.11,5.4-1,2.34,0.16,4.77,1.75,5.07,4.08a5.06,5.06,0,0,0,.33,1.91c0.6,1.07,2.13,1,3.34.83l9.91-1.56a22.48,22.48,0,0,1,7.49-.33,7.62,7.62,0,0,1,5.84,4.24,6.7,6.7,0,0,1,.42,3C299.5,267.73,306.12,266.92,307.62,264.72Z" transform="translate(0.01)"/><path class="cls-112" d="M220.57,186s1.81,8.46.9,10.49,2.18,3.67,4.73,4.4,18.79-.68,21.66,13.59c3.3,16.4,4,27.1,2.31,33.88s-2.18,5.68,3.46,5,21.89-1.27,26.63-.36,4.37,3.25,3.82-7.93-1.46-32.76-21.11-51.91-34.94-11-36.76-9C226.2,184.11,220.2,184.11,220.57,186Z" transform="translate(0.01)"/><path class="cls-112" d="M243.5,193.41c-1.32,7.68,0,13.73-.72,21.5a35.3,35.3,0,0,0-5.67-3.85c-3.76-1.67-7.8-1.44-11.9-1.08a43,43,0,0,0,1.14-17.28c-0.06-.42-0.12-0.84-0.19-1.26" transform="translate(0.01)"/><path class="cls-113" d="M249.34,207.83c-0.76-4.4-1.64-10.32-4.28-14.43a1.19,1.19,0,0,0-2.16.75c0.1,1.68.37,3.58,0.37,4.33,0,2.45-.11,4.9-0.31,7.34a14.68,14.68,0,0,1,4.9,8.63c3.3,16.4,4,27.1,2.31,33.88-0.92,3.82-1.5,5.14-.81,5.43l1.74-3.14a15.33,15.33,0,0,0,1.19-2.5,14.89,14.89,0,0,0,.49-5.12A241.41,241.41,0,0,0,249.34,207.83Z" transform="translate(0.01)"/><path class="cls-109" d="M231.7,161.06a4,4,0,0,1,1.68-2.4,12.22,12.22,0,0,1,3.32-1.14,9.39,9.39,0,0,1,6.22,1.63,7.7,7.7,0,0,1,2.77,5.37,10.06,10.06,0,0,0,.16,2.33,6.36,6.36,0,0,0,.11-4,9.06,9.06,0,0,0-1.09-2.94,7.13,7.13,0,0,0-3.93-2.82,12.16,12.16,0,0,0-7.63.12,11.86,11.86,0,0,0-5.33,4.31,4.51,4.51,0,0,0-.9,1.68" transform="translate(0.01)"/><path class="cls-114" d="M284.08,245c-0.55-11.18-1.46-32.76-21.11-51.91a48.68,48.68,0,0,0-13.4-9.58H249.3c3.59,1.22,6.37,4.09,8.64,7.13a49,49,0,0,1,6.64,12.18c5.66,15.19,3.49,32.15,6.94,48,0.12,0.54.25,1.08,0.4,1.62a54.92,54.92,0,0,1,8.35.47C285,253.82,284.62,256.17,284.08,245Z" transform="translate(0.01)"/><path class="cls-115" d="M238.85,187.84a2.78,2.78,0,0,0-3-.7,3.42,3.42,0,0,0-1.54,2.09,80.12,80.12,0,0,0-3.63,12.69,24.37,24.37,0,0,1-1.33,5.07,11.77,11.77,0,0,0-1.14,3,21.26,21.26,0,0,1,8.91,1.16,14.29,14.29,0,0,1,1.7.86c0.64,0.37,2.54-16.86,1.33-21.45A5.83,5.83,0,0,0,238.85,187.84Z" transform="translate(0.01)"/><path class="cls-116" d="M279.74,268.16a47.27,47.27,0,0,0-11.41,2,18.09,18.09,0,0,1-4.56.8,8.8,8.8,0,0,1-8.8-8.8q0-.39,0-0.77l-0.27.22a16,16,0,0,0,1.54,6.84,24.59,24.59,0,0,0,3.12,4.43,2.88,2.88,0,0,0,1.13,1,2.85,2.85,0,0,0,1.47,0c6-1,11.87-2.49,17.79-3.83a73.16,73.16,0,0,1,8.31-1.15A74.74,74.74,0,0,0,279.74,268.16Z" transform="translate(0.01)"/><circle class="cls-117" cx="199.62" cy="201.43" r="0.49"/><path class="cls-117" d="M208,200.85a1.8,1.8,0,0,1,1,.44,1.77,1.77,0,0,1,.53,1,1.41,1.41,0,0,1-.18,1.14,1.11,1.11,0,0,1-1,.46v-0.06a1,1,0,0,0,.68-1.38,4.7,4.7,0,0,0-.51-0.72c-0.17-.26-0.38-0.5-0.57-0.82Z" transform="translate(0.01)"/><path class="cls-117" d="M197.84,200.93a2.41,2.41,0,0,1,1.76-1.28,4.55,4.55,0,0,1-.81.74A4.64,4.64,0,0,1,197.84,200.93Z" transform="translate(0.01)"/><path class="cls-118" d="M107.84,80.25a8.36,8.36,0,0,1,5.09,10.41c-1.72,5.16-7.2,7-8.48,9.59s-8-5.5-4.51-12.8S107.84,80.25,107.84,80.25Z" transform="translate(0.01)"/><path class="cls-119" d="M107.84,80.25a5.09,5.09,0,0,0-2.09.58l-0.25.46c3.74,1.07,7.64,4.43,6.86,10.71a9.59,9.59,0,0,0,.57-1.34A8.36,8.36,0,0,0,107.84,80.25Z" transform="translate(0.01)"/><path class="cls-120" d="M82.38,87.89c-0.19,7.16,1.43,17.09-1.43,22s-12.75,9.22-10.69,18.52S84.77,136.67,90,129s8.13-16,4.2-26.92S82.5,82.84,82.38,87.89Z" transform="translate(0.01)"/><path class="cls-121" d="M94.22,102.11C93.83,101,93.4,100,93,98.95L89.89,95c-1.27,4.12-2.71,6.78-7.45,9.68A13.78,13.78,0,0,1,81,109.94c-1.1,1.91-3.25,3.73-5.36,5.76,0,0,6.1,10,1.36,19.2,4.48,0.81,10-1.38,13.07-5.86C95.27,121.4,98.14,113,94.22,102.11Z" transform="translate(0.01)"/><path class="cls-122" d="M91.79,109.52a33.56,33.56,0,0,1-1.7-16c-2.62-3-6-9.28-.39-11.06S106,79.09,107.33,82s0,14.07-2.43,18.76-6.14,1.46-6.14,1.46-1.46,4.69,1.13,7.92,6.31,10.51,6.31,10.51l-4.2,6.47-5.5-4.88L93.75,113Z" transform="translate(0.01)"/><path class="cls-123" d="M107.33,82c-0.64-1.44-3.59-1.78-7.09-1.53a35.59,35.59,0,0,0-9.05,5.92,12.85,12.85,0,0,0-2.81,3.15A2.89,2.89,0,0,0,88,90.6l0.28,0.48a0.72,0.72,0,0,0,.34,0c0.79-.22,1.36-1.24,2.2-1.53,1.33-.45,3,0,4.39-0.24a16,16,0,0,0,4.9-1.79,42.75,42.75,0,0,0,6.23-4.3A34.84,34.84,0,0,1,105.66,97c-0.51,2-1.31,4.09-3.06,5.18a4.62,4.62,0,0,1-2.34.7H99.93c1.29,0.58,3.4.87,5-2.17C107.33,96,108.62,84.89,107.33,82Z" transform="translate(0.01)"/><path class="cls-70" d="M90.88,257.2c-2.65,3.49-2.41,4.82-3.25,7S84.14,270,84,271.79s-2.53,2.65-3,0a13,13,0,0,1,0-6.44c0.6-2.47.48-4.4,1.08-5.84s3.45-2,3.65-6.38S90.88,257.2,90.88,257.2Z" transform="translate(0.01)"/><path class="cls-70" d="M99.91,253.23c1,4,2.29,8.79.72,11.68s-1,4.46.12,4.94,3.13,2.53,4.46,3.61,9.88,1,9,0a36.89,36.89,0,0,0-6.5-4.82,3.17,3.17,0,0,1-1.57-4c0.48-1.93,1.76-8.38.82-12.8S99.91,253.23,99.91,253.23Z" transform="translate(0.01)"/><path class="cls-124" d="M114.07,120.25c4.07,0.76,6.34,7.93,8.59,9.55L115.5,134l-2.39-5.63Z" transform="translate(0.01)"/><path class="cls-70" d="M116.84,117.18c-0.24,2.27-2.41,5.79-3.72,11.17s4.55,7.65,5.79,4.27,1.93-13.92,1.93-13.92,2.76-1.65,3.65-3.45,1.38-1.45-.55-3.65c-1.14-1.3-1.08-2.12-2.47-3.18a1,1,0,0,0-1.66.08l-2.41,2.34a0.7,0.7,0,0,0-.9.32l-0.74.87a2.37,2.37,0,0,0-.72,1.41C115,115.39,117.08,114.93,116.84,117.18Z" transform="translate(0.01)"/><path class="cls-125" d="M121,118.52a4.15,4.15,0,0,1-.37-0.47,1.12,1.12,0,0,1-.18-1,1.64,1.64,0,0,1-1.5-.79,0.66,0.66,0,0,0-.23-0.29l-0.4-.07c-0.41-.15-0.18-0.87-0.53-1.14a2,2,0,0,0-.64-0.17,0.81,0.81,0,0,1-.48-0.8,1.8,1.8,0,0,1,.36-0.92c0.41-.6,1.45-1.16,1.27-2a1.6,1.6,0,0,0-.36-0.66l-0.57.56a0.7,0.7,0,0,0-.9.32l-0.74.87a2.37,2.37,0,0,0-.72,1.41c0,1.95,2,1.49,1.8,3.74a0.51,0.51,0,0,1-.06.29,4.25,4.25,0,0,1,.77,1.38,6.91,6.91,0,0,1,0,3,77.39,77.39,0,0,1-1.65,8.4,3.87,3.87,0,0,0-.18,1.56,2.93,2.93,0,0,0,1.25,1.77,2.74,2.74,0,0,0,.67.36,2.32,2.32,0,0,0,1.21-1.36c1.24-3.38,1.93-13.92,1.93-13.92Z" transform="translate(0.01)"/><path class="cls-126" d="M45.88,58.68a29.07,29.07,0,0,0-5.94-1.36c-1.16,0-1.19-.07-1.16-0.8s-0.13-.66.53-0.56a3.56,3.56,0,0,0,1.27-.06s-1.94-1.33-1.44-1.73,0.86-1,1.36-.1a4.11,4.11,0,0,0,2.73,1.45C44,55.66,45.88,58.68,45.88,58.68Z" transform="translate(0.01)"/><path class="cls-124" d="M63.19,66.13c-3.64,4.32-4.1,17-5.17,21.5l8.11,0.89L65.26,74.59Z" transform="translate(0.01)"/><path class="cls-127" d="M54.12,62s-4.83-1-5.85-1.39-4.36-3.44-5.57-4.92-1.11-1.76-.09-2,1.39,0.46,2.41,2a5.63,5.63,0,0,0,5.06,2.11,2.16,2.16,0,0,1,.08-1.3,6.5,6.5,0,0,1-2.11-2c-0.35-.93,1-0.93,1.51-0.46s2.6,2.32,4.55,2.41,3.06,2.32,4.08,4.74,7.06,10.22,7.06,10.22L63.12,81.62s-4-6.22-5.11-10.4S56.9,64.62,54.12,62Z" transform="translate(0.01)"/><path class="cls-128" d="M88.68,214.94L83,254.25a0.71,0.71,0,0,0,.34.67l8.16,5a0.74,0.74,0,0,0,1-.26L94.71,256h15l0.51-30.81s4.07-7.64,5.09-9.42-2.55-7.13-2.55-7.13c6.62-35.39-3.12-64.48-3.12-64.48s4,2.1,6.68,0,6.3-14.32,6.3-14.32a17.5,17.5,0,0,1-8.59-9.55l-2.29,6.84s-2.86-8.17-3.82-12.18-6.42-4.41-6.42-4.41l-1.58-.4,1.58,7.18s-8.5-7.45-9.17-8.78-2.67-1.05-2.67-1.05L63.19,66.13s-2.1,17-5.17,21.5c0,0,19.4,21.41,24,33.38s5.09,17.82,3.82,21.64S75.5,159,78.18,169.9C81.37,182.81,89.61,201.68,88.68,214.94Z" transform="translate(0.01)"/><path class="cls-119" d="M106.91,78.15c2.32,1.93.67,4-1.72,5.73s-10.87,5.28-12.51,4.3c-2.35-1.4-4.38,3.49-1.46,4.81A20.72,20.72,0,0,0,88,98c-0.9,2.73-6.42-.88-5.65-10S96.22,69.27,106.91,78.15Z" transform="translate(0.01)"/><path class="cls-129" d="M83.7,257.75a1.88,1.88,0,0,0-2.19.3c-1.07,1-4.1,3.76-4.34,4.17s0.36,1.25.83,0.83,2.4-2.32,2.4-2.32a10.16,10.16,0,0,1-.42,2.85c-0.44,1.43-1.28,8.08-.44,9.69s2.83,2.38,3.73,1.37a2.58,2.58,0,0,0,.73-2.85s-2.26.3-2.86-1.43,0.77-6.35,1-8.2S82.62,257.79,83.7,257.75Z" transform="translate(0.01)"/><path class="cls-129" d="M99.7,267.67c-0.8.14-.84,2.62-0.42,4.17a14.26,14.26,0,0,1,.41,3.24h0.81v-3.71s2.26,1,2.91,2.09,1.19,1.62,2.08,1.62h10c1.13,0,1.71-.44.42-1.62a7.59,7.59,0,0,0-2.88-1,1.75,1.75,0,0,1-1.81,1.24c-1.53,0-4.44.24-5.35-.57S99.5,268.52,99.7,267.67Z" transform="translate(0.01)"/><path class="cls-130" d="M91.05,107.52a6.52,6.52,0,0,1,3.45,1.24,6.66,6.66,0,0,1,1.38,1.32A14.92,14.92,0,0,0,97,111.3a9.91,9.91,0,0,0,1.22,1,3.56,3.56,0,0,0,.61.35L99,112.72h0.19a1.1,1.1,0,0,0,.59-0.94,4.64,4.64,0,0,0,.09-1.7,3.1,3.1,0,0,1,.7,1.73,2.87,2.87,0,0,1-.07,1,1.64,1.64,0,0,1-.81,1A1.67,1.67,0,0,1,99,114a2.12,2.12,0,0,1-.65-0.08,4.22,4.22,0,0,1-1-.43,7.76,7.76,0,0,1-1.5-1.2,9.38,9.38,0,0,1-1.19-1.46,9.67,9.67,0,0,0-1-1.28A13.47,13.47,0,0,0,91.05,107.52Z" transform="translate(0.01)"/><path class="cls-68" d="M116.74,111.52a0.62,0.62,0,0,0-.2.53,0.33,0.33,0,0,0,.22.32,1.69,1.69,0,0,0,.77,0,1.6,1.6,0,0,0,1-.56c0.27-.29.69-0.6,1-0.89a3.7,3.7,0,0,0,1.19-1.38,0.43,0.43,0,0,0,0-.2,0.49,0.49,0,0,0-.09-0.21,1.31,1.31,0,0,0-.85-0.74c-0.8-.08-1.56.86-1.91,1.46A10.08,10.08,0,0,1,116.74,111.52Z" transform="translate(0.01)"/><path class="cls-131" d="M105.5,93.78c-0.14,1.38-.3,1.57.41,1.8s2,0.42,2.14-1-0.23-3.56-.93-3.79S105.6,92.41,105.5,93.78Z" transform="translate(0.01)"/><path class="cls-132" d="M97.34,96.67c1,2.66,2.9,4.5,5,3.34s3.16-3.63,1.38-4.66c-2.25-1.3-3.2-2.35-4.94-2.4C97.56,92.91,96.65,94.89,97.34,96.67Z" transform="translate(0.01)"/><path class="cls-130" d="M103.72,95.35c-2.25-1.3-3.2-2.35-4.94-2.4a1.29,1.29,0,0,0-1,.45A10.9,10.9,0,0,0,101,95.45a25.33,25.33,0,0,1,3.47,2.13A1.77,1.77,0,0,0,103.72,95.35Z" transform="translate(0.01)"/><path class="cls-128" d="M102.5,87.62a2.08,2.08,0,0,1,.54-0.26,1.39,1.39,0,0,1,.63,0,2.88,2.88,0,0,1,1.06.48,3.2,3.2,0,0,1-1.15-.07,1.74,1.74,0,0,0-.5-0.08A2.54,2.54,0,0,1,102.5,87.62Z" transform="translate(0.01)"/><path class="cls-128" d="M101.27,90.52a6.5,6.5,0,0,1,.86-1.23,1.7,1.7,0,0,1,.73-0.48,1.66,1.66,0,0,1,.92,0,1,1,0,0,1,.72.71,2.63,2.63,0,0,1,0,.82c-0.08.49-.22,1-0.3,1.44a6.62,6.62,0,0,1-.22-1.46,1.8,1.8,0,0,0-.1-0.62,0.39,0.39,0,0,0-.38-0.18,1.59,1.59,0,0,0-.52,0,1.51,1.51,0,0,0-.52.23A10.4,10.4,0,0,1,101.27,90.52Z" transform="translate(0.01)"/><path class="cls-133" d="M99.19,109a10.14,10.14,0,0,1-.45-6.77l-0.37-.36c-1.38-1.4-4.29-5.65-6.44-5.26a9.14,9.14,0,0,0,1.41,5.76C94.5,104.45,96.71,107.74,99.19,109Z" transform="translate(0.01)"/><path class="cls-134" d="M116,137c-1.44-.09-3,0.67-4.52.61a18.87,18.87,0,0,1-5.42-1.18c-3.28-1.16-6.45-2.79-9.91-3.22a0.73,0.73,0,0,0-.95.63c-2.71,7.48-5.44,15-6.36,22.94a13,13,0,0,0,.43,6.29c0.83,2.11,2.57,3.71,4,5.44a26.39,26.39,0,0,1,5.6,11.12c0.49,2.11.72,4.29,1.41,6.34a29.36,29.36,0,0,0,3,5.79l8.55,14c0.35,0.58.73,1.17,1.13,1.74,6.21-34.88-3.31-63.36-3.31-63.36s4,2.1,6.68,0c1-.77,2.08-2.88,3.09-5.26A5.42,5.42,0,0,0,116,137Z" transform="translate(0.01)"/><path class="cls-135" d="M114.07,120.25l-2.29,6.84s-2.86-8.17-3.82-12.18c-0.69-2.91-3.79-3.9-5.44-4.23,0.13,1.15,1.44,2.8,1.89,3.67A140.93,140.93,0,0,1,112.08,132c0.81,2.28,1.53,4.92.3,7-0.85,1.44-2.58,2.51-2.58,4.18a2.7,2.7,0,0,0,.26,1.09c1.06,0.46,4.12,1.53,6.3-.18,2.67-2.1,6.3-14.32,6.3-14.32A17.5,17.5,0,0,1,114.07,120.25Z" transform="translate(0.01)"/><path class="cls-136" d="M62.31,72.06c0.32,0.38.66,0.77,1,1.21,1.53,2.05,2.6,4.69,3.85,6.93l7.57,13.63c4.46,8,9,16.14,11.37,25,1.18,4.32,1.9,8.9,4.41,12.61,2.21-7.37.56-15.27-1.1-22.78l-0.53-2.38L63.19,66.13S62.87,68.68,62.31,72.06Z" transform="translate(0.01)"/><path class="cls-137" d="M94.72,255.95h15l0.51-30.81,0.94-1.76c-2.75,2.48-4.45,6-6,9.39L95.7,253.06a9.84,9.84,0,0,0-1,2.93Z" transform="translate(0.01)"/><path class="cls-138" d="M102,210.35c-2.3-15.74-19.16-26.92-19.75-42.81-0.18-4.88,1.25-9.8.3-14.59A11.33,11.33,0,0,0,80,155c-1.81,4.66-3,10-1.79,15,3.2,12.91,9,34.93,8,48.19L83,254.75,83.31,255c4.76-5.09,8.36-11.34,11.6-17.58C99.31,228.94,103.36,219.71,102,210.35Z" transform="translate(0.01)"/><path class="cls-139" d="M120.07,119.42a4.62,4.62,0,0,0-1.34-1.76,0.9,0.9,0,0,0-.33-0.2,0.87,0.87,0,0,0-.57.1,4.43,4.43,0,0,0-2,1.88,1.05,1.05,0,0,0,.14,1.36,0.57,0.57,0,0,0,.29.23,0.53,0.53,0,0,0,.5-0.27,1.65,1.65,0,0,1,.63-0.54,3,3,0,0,1,.85-0.3c0.47,1.14-.93,3.14,0,3.82a13.63,13.63,0,0,0,1.76-1.59A5.48,5.48,0,0,0,120.07,119.42Z" transform="translate(0.01)"/><g id="_Group_" data-name=" Group "><path id="_Path_" data-name=" Path " class="cls-140" d="M65.28,21.11l6.59,8.54h0c1.3,1.62,7.06-.55,11.74-4.16s8.24-8.62,7-10.3h0L84,6.67Z" transform="translate(0.01)"/><path class="cls-141" d="M82.88,18.52c1.07-1.72,2.15-3.42,3.29-5.1a17.79,17.79,0,0,1,1.55-1.9L84,6.67,65.28,21.11l6.59,8.54h0c1,1.24,4.62.25,8.36-1.91a15.71,15.71,0,0,1-.05-3A15.45,15.45,0,0,1,82.88,18.52Z" transform="translate(0.01)"/><polygon id="_Path_2" data-name=" Path 2" class="cls-142" points="91.42 0.01 70.2 10.89 57.55 27.79 57.99 28.37 80.25 18.19 91.87 0.58 91.42 0.01"/><polygon id="_Path_3" data-name=" Path 3" class="cls-143" points="57.59 27.76 70.22 10.87 91.43 0 79.82 17.59 57.59 27.76"/><ellipse id="_Path_4" data-name=" Path 4" class="cls-142" cx="74.68" cy="14.11" rx="3.35" ry="0.93" transform="translate(6.94 48.56) rotate(-37.65)"/><path id="_Path_5" data-name=" Path 5" class="cls-144" d="M74.68,14.12c-3.84,1.16-6.83,4.55-9.14,7.83a10.39,10.39,0,0,0-2.19,4.69,1.52,1.52,0,0,0,.17,1,2.28,2.28,0,0,0,1.58.62,4.16,4.16,0,0,1,2.54,1.58,0.63,0.63,0,0,1,.17.49,0.65,0.65,0,0,1-.23.32c-1.14,1-2.49,1.77-3.64,2.76a5.43,5.43,0,0,0-2.13,3.88" transform="translate(0.01)"/><g id="_Group_2" data-name=" Group 2"><path id="_Path_6" data-name=" Path 6" class="cls-145" d="M63,44.15a0.32,0.32,0,0,1-.34.3h0l-2.87-.24a0.32,0.32,0,0,1-.26-0.36l1.56-6.33a0.31,0.31,0,0,1,.33-0.28l0.82,0.07a0.31,0.31,0,0,1,.28.34h0Z" transform="translate(0.01)"/><path id="_Path_7" data-name=" Path 7" class="cls-146" d="M62.35,36.9a0.15,0.15,0,0,1-.16.13L61.32,37a0.15,0.15,0,0,1-.13-0.16h0a0.15,0.15,0,0,1,.16-0.13l0.87,0.07a0.15,0.15,0,0,1,.13.16h0Z" transform="translate(0.01)"/><path id="_Path_8" data-name=" Path 8" class="cls-146" d="M62.33,37.19a0.15,0.15,0,0,1-.16.13l-0.87-.07a0.15,0.15,0,0,1-.13-0.16h0A0.15,0.15,0,0,1,61.33,37L62.2,37a0.15,0.15,0,0,1,.13.16h0Z" transform="translate(0.01)"/><path id="_Path_9" data-name=" Path 9" class="cls-146" d="M62.38,36.61a0.15,0.15,0,0,1-.16.13l-0.87-.07a0.15,0.15,0,0,1-.14-0.15h0a0.15,0.15,0,0,1,.16-0.13l0.87,0.07a0.15,0.15,0,0,1,.13.16h0Z" transform="translate(0.01)"/></g></g><path class="cls-147" d="M353.24,241.43c-3.18-1.3-5.62-.33-5.62,2.2s3.58,1.63,5.62-1.14" transform="translate(0.01)"/><path class="cls-148" d="M355.62,248.16c-3.15-.94-4.93-5.14-2.31-10s6.82-3,7.76-5,1.68-3.67,4-2.1,2.62,6.92,1,11.85-4.93,4.4-4.3,6,2.2,3.87,1.26,7.44c-0.84,3.17-2.31,4.61-.1,5.45s2,3.79,1.15,4.36-0.42-1.32-2-1.84-3.88-2.2-4-4a4.53,4.53,0,0,0,1.78,5.41c3.15,2.35,3.57,4.89,2.83,7a2.81,2.81,0,0,1,2.31.73c0.73,0.93.94,1.64,0,1.64H342.72c-3.67,0-8.7-4.8-10-13s0.84-9.75-2.31-13.32c0,0,1.47,5.24-3.15,6.82s-14.68-.1-13.21-12.16,19.08-16.11,25.17-6.27-0.31,22.86,2.31,29.2,5.35,5.81,5.35,5.81-4.09-4.51-1.36-13.37S355.62,248.16,355.62,248.16Z" transform="translate(0.01)"/><path class="cls-149" d="M365,231.07c-1.77-1.21-2.61-.5-3.34.8h0a3.8,3.8,0,0,1,2,2.24,7.79,7.79,0,0,1,.74,1.89,5.06,5.06,0,0,1-.08,2.07,9,9,0,0,1-2.14,4.81c-0.9.88-2.1,1.39-3,2.26a5.13,5.13,0,0,0-1.51,2.91,1.08,1.08,0,0,0,0,.54,1.34,1.34,0,0,0,.53.55,6.79,6.79,0,0,1,2.62,6.7c-0.17.84-.5,1.64-0.66,2.48a3.21,3.21,0,0,0,.37,2.47c1,1.36,3.37,1.38,3.92,3a3.76,3.76,0,0,1,.15.83,2.8,2.8,0,0,0-1.74-2.78c-2.2-.84-0.73-2.28.1-5.45,0.94-3.57-.63-5.87-1.26-7.44s2.73-1,4.3-6S367.36,232.64,365,231.07Z" transform="translate(0.01)"/><path class="cls-51" d="M361.07,233.16c-1-1.52-.52-3.67,1.57-3.57s4,1.4,3.35,2.48S361.91,234.42,361.07,233.16Z" transform="translate(0.01)"/><path class="cls-148" d="M354.22,243.52c-3.56-1-7.22,1.88-6.53,5.24s4.75-.2,6.53-3.56S354.22,243.52,354.22,243.52Z" transform="translate(0.01)"/><path class="cls-150" d="M348.7,248.08c-1.27-1.68,1.9-4.35,3.75-4.12C352.76,245.75,350.39,250.32,348.7,248.08Z" transform="translate(0.01)"/><ellipse class="cls-51" cx="358.59" cy="238.28" rx="0.89" ry="0.54"/><path class="cls-151" d="M355.61,266.61c5.24,3.46,2.47,7.25,2.47,7.25a28.77,28.77,0,0,1,4.67-1.15c0.73-2.08.31-4.63-2.83-7a4.53,4.53,0,0,1-1.78-5.41c-1.63-1.64-1.54-5.09-1.54-5.09S350.37,263.15,355.61,266.61Z" transform="translate(0.01)"/><path class="cls-152" d="M336.21,257.52c2.85-10.17-3-19.19-12.12-16.43s-5.67,15,.84,14.93a9.73,9.73,0,0,0,2.38-.46c4.61-1.57,3.15-6.82,3.15-6.82,3.15,3.57,1,5.14,2.31,13.32,1,6.62,4.51,11,7.75,12.46A17.83,17.83,0,0,1,336.21,257.52Z" transform="translate(0.01)"/><path class="cls-153" d="M345.55,258.8c-2.73,8.86,1.36,13.37,1.36,13.37a28.78,28.78,0,0,1,2.84.84c-8.39-16.73,5.87-24.86,5.87-24.86S348.28,249.94,345.55,258.8Z" transform="translate(0.01)"/><path class="cls-154" d="M330.5,248.79c-4-3.61-7.64-1.2-7.21,1.35s3.59,1.7,3.59,1.7-3.07-.78-1.42-1.95S330.5,248.79,330.5,248.79Z" transform="translate(0.01)"/><path class="cls-155" d="M372.7,258.44c-1.13,1.13-5.4,4-5.6,8.34s1.25,5.2,1.11,6.63a2.57,2.57,0,0,1,2,.7c1,0.89,5.08,1.13,8.1-.44s5.52-5.52,5.52-5.52Z" transform="translate(0.01)"/><path class="cls-156" d="M372.7,258.44c-0.19.19-.47,0.43-0.8,0.71,0.58,2.17,3.11,4.76,3.93,6a3.49,3.49,0,0,1,.78,1.77,3.54,3.54,0,0,1-1.1,2.26,9.8,9.8,0,0,1-3.81,3.22c-0.84.31-1.75,0.38-2.6,0.64a4.39,4.39,0,0,0-.89.38h0a2.57,2.57,0,0,1,2,.7c1,0.89,5.08,1.13,8.1-.44s5.52-5.52,5.52-5.52Z" transform="translate(0.01)"/><path class="cls-157" d="M380,260.7a4.94,4.94,0,0,1,3.5-1.81c0.48,0.08.89,1,.32,1.21s-2.54.93-2.9,1.85S380,260.7,380,260.7Z" transform="translate(0.01)"/><path class="cls-158" d="M375.16,255.42a2.68,2.68,0,0,0-3.1,1c-0.77.85-.65,1.93,0.44,2.94s9.12,9.45,10.28,10.29,1.82,0.74,3-.26a2.07,2.07,0,0,0,.15-3.22C385,265.21,376.5,255.94,375.16,255.42Z" transform="translate(0.01)"/><path class="cls-159" d="M385.91,266.18c-0.32-.35-1.62-1.76-3.22-3.46a6.69,6.69,0,0,0,0,.94,2,2,0,0,1-2.19,1.71,5.12,5.12,0,0,1-2.74-1.39,16,16,0,0,1-3.87-4.19c-0.35-.6-1.36-2.14-2.24-1.55a3,3,0,0,0,.81,1.12c1.09,1,9.12,9.45,10.28,10.29s1.82,0.74,3-.26A2.07,2.07,0,0,0,385.91,266.18Z" transform="translate(0.01)"/></svg>