<svg xmlns="http://www.w3.org/2000/svg" xmlns:xlink="http://www.w3.org/1999/xlink" viewBox="0 0 449.43 307.7"><defs><style>.cls-1{isolation:isolate;}.cls-2{fill:#fff;}.cls-3{fill:#6c3129;}.cls-4{fill:#b4663b;}.cls-5{fill:#ef6427;}.cls-6{fill:#981a13;}.cls-7{fill:url(#linear-gradient);}.cls-8{fill:url(#linear-gradient-2);}.cls-9{fill:#b9a3a4;}.cls-10{fill:url(#linear-gradient-3);}.cls-11{fill:url(#linear-gradient-4);}.cls-12{fill:url(#linear-gradient-5);}.cls-13{fill:#e7e7e7;}.cls-13,.cls-35{mix-blend-mode:multiply;}.cls-14{fill:url(#linear-gradient-6);}.cls-15{fill:#ec3f00;}.cls-16{fill:url(#linear-gradient-7);}.cls-17{fill:#8e3129;}.cls-18{fill:#181838;}.cls-19{fill:#4e273b;}.cls-20{fill:url(#linear-gradient-8);}.cls-21{fill:#696576;}.cls-22{fill:url(#linear-gradient-9);}.cls-23{fill:url(#linear-gradient-10);}.cls-24{fill:url(#linear-gradient-11);}.cls-25{fill:url(#linear-gradient-12);}.cls-26{fill:#282828;mix-blend-mode:screen;}.cls-27{fill:#271b3f;}.cls-28{fill:#241b40;}.cls-29{fill:#323666;}.cls-30{fill:url(#linear-gradient-13);}.cls-31{fill:#7f989c;}.cls-32{fill:url(#linear-gradient-14);}.cls-33{fill:#a5b7ac;}.cls-34{fill:url(#linear-gradient-15);}.cls-35{fill:#d6d6d6;}.cls-36{fill:url(#linear-gradient-16);}.cls-37{fill:#517378;}.cls-38{fill:#57787d;}.cls-39{fill:#5d7d82;}.cls-40{fill:url(#linear-gradient-17);}.cls-41{fill:url(#linear-gradient-18);}.cls-42{fill:#e8e8e8;}</style><linearGradient id="linear-gradient" x1="224.68" y1="71.56" x2="242.44" y2="71.56" gradientTransform="matrix(1, 0.02, -0.02, 1, 24.83, 6.3)" gradientUnits="userSpaceOnUse"><stop offset="0" stop-color="#8e0800"/><stop offset="1" stop-color="#770800"/></linearGradient><linearGradient id="linear-gradient-2" x1="239.9" y1="73.44" x2="216.46" y2="59.63" gradientTransform="matrix(1, 0.02, -0.02, 1, 24.83, 6.3)" gradientUnits="userSpaceOnUse"><stop offset="0" stop-color="#ef6427"/><stop offset="1" stop-color="#af4800"/></linearGradient><linearGradient id="linear-gradient-3" x1="172.8" y1="22.49" x2="196.44" y2="41.1" gradientTransform="matrix(1, 0.02, -0.02, 1, 24.83, 6.3)" gradientUnits="userSpaceOnUse"><stop offset="0" stop-color="#b9a3a4"/><stop offset="1" stop-color="#9b7c7d"/></linearGradient><linearGradient id="linear-gradient-4" x1="185.82" y1="68.69" x2="209.28" y2="68.69" xlink:href="#linear-gradient"/><linearGradient id="linear-gradient-5" x1="178.12" y1="140.78" x2="196.68" y2="140.78" xlink:href="#linear-gradient"/><linearGradient id="linear-gradient-6" x1="198.48" y1="87.62" x2="224.11" y2="109.18" xlink:href="#linear-gradient"/><linearGradient id="linear-gradient-7" x1="219.07" y1="59.49" x2="226.8" y2="59.49" gradientUnits="userSpaceOnUse"><stop offset="0" stop-color="#7f989c"/><stop offset="1" stop-color="#a5b7ac"/></linearGradient><linearGradient id="linear-gradient-8" x1="-317.19" y1="-7.53" x2="-284.04" y2="-37.68" gradientTransform="translate(374.87 252.89) rotate(16.14)" gradientUnits="userSpaceOnUse"><stop offset="0" stop-color="#2b1232"/><stop offset="1" stop-color="#3c1634"/></linearGradient><linearGradient id="linear-gradient-9" x1="-314.86" y1="-10.96" x2="-331.18" y2="-24.55" gradientTransform="translate(374.87 252.89) rotate(16.14)" gradientUnits="userSpaceOnUse"><stop offset="0" stop-color="#443f54"/><stop offset="1" stop-color="#696576"/></linearGradient><linearGradient id="linear-gradient-10" x1="-321.17" y1="21.9" x2="-300.37" y2="21.9" xlink:href="#linear-gradient-8"/><linearGradient id="linear-gradient-11" x1="-340.14" y1="10.23" x2="-317.79" y2="10.23" xlink:href="#linear-gradient-8"/><linearGradient id="linear-gradient-12" x1="-299.66" y1="25.05" x2="-289.29" y2="25.05" xlink:href="#linear-gradient-8"/><linearGradient id="linear-gradient-13" x1="202.79" y1="-4.88" x2="252.1" y2="-4.88" gradientTransform="translate(178.9 88.73) rotate(7.58)" gradientUnits="userSpaceOnUse"><stop offset="0" stop-color="#2c2051"/><stop offset="1" stop-color="#2e295f"/></linearGradient><linearGradient id="linear-gradient-14" x1="179.84" y1="-29.11" x2="203.02" y2="-29.11" gradientTransform="translate(178.9 88.73) rotate(7.58)" xlink:href="#linear-gradient-7"/><linearGradient id="linear-gradient-15" x1="198.24" y1="31.11" x2="210.92" y2="95.61" xlink:href="#linear-gradient-13"/><linearGradient id="linear-gradient-16" x1="115.51" y1="69.59" x2="162.77" y2="25.11" xlink:href="#linear-gradient-13"/><linearGradient id="linear-gradient-17" x1="187.89" y1="-12.89" x2="209.59" y2="18.27" gradientTransform="translate(178.9 88.73) rotate(7.58)" xlink:href="#linear-gradient-7"/><linearGradient id="linear-gradient-18" x1="193.9" y1="-19.07" x2="142.78" y2="-35.17" gradientTransform="translate(178.9 88.73) rotate(7.58)" xlink:href="#linear-gradient-7"/></defs><title>contribute</title><g class="cls-1"><g id="Layer_1" data-name="Layer 1"><path class="cls-2" d="M66.5,43.51c-25.55,13.66-42.15,39.9-52.29,67C7.74,127.87,3.4,146.16,3.4,164.65c0,53.22,37.76,102.11,86.32,123.9,36.32,16.3,77.43,18.86,116.33,12.17,14.88-2.56,32.13-4.69,46.45-9,18.46-5.6,34.8-20,52.3-28.14,18.51-8.64,37.23-11,57.23-7.13,22.71,4.42,41.19,18.24,65.31,16.16,15.47-1.33,23-16.54,25.24-31.08,1.21-7.9-1.94-17.06-9.26-20.26-5.86-2.56-12.59-.77-19-1.06-23.66-1.07-29.87-24-32.68-42.79-2.52-16.92-5.53-35.93-15.7-47.84s-27-15.37-42.4-14-30.09,6.93-45.14,10.48c-42.45,10-91.15,1.06-120.8-34-12.86-15.2-16-37-32.94-47.62C114.6,31.86,87,32.55,66.5,43.51Z" transform="translate(-3.4 -2.5)"/><path class="cls-2" d="M207.48,4.07c-7,1.86-13.87,5.08-18.92,10.32-6.23,6.46-9.24,15.51-9.86,24.46a56.32,56.32,0,0,0,23,48.79c26.16,18.72,63.24-.35,70.05-30.76C279.78,20.9,238.65-4.17,207.48,4.07Z" transform="translate(-3.4 -2.5)"/><path class="cls-3" d="M185.3,97.89c-1.45.1-7,3.6-7.57,7.61s0.58,4.87,1.4,2.6S181.49,103,184,103s4-1.13,4.41-2.54S185.3,97.89,185.3,97.89Z" transform="translate(-3.4 -2.5)"/><path class="cls-3" d="M239.07,152.16c0.86,1.16,1.53,5.38,2.37,7.18s0.27,3.14-.3,5.19S236.89,176,236.29,176s-2.39-2.74-2.55-5.61,1.14-6.63.75-9.13a34.36,34.36,0,0,0-1.53-5.54Z" transform="translate(-3.4 -2.5)"/><path class="cls-3" d="M199.79,173.13c-0.45.86-3,4.33-3.57,6.75s-1.58,2.46-2.85,2.87-9.6,5.17-10.44,5.62-1.07-.52-0.5-2.35,4.35-7.66,7.07-9.07,4.05-6.37,4.05-6.37Z" transform="translate(-3.4 -2.5)"/><path class="cls-4" d="M185.34,96.21c-0.57,1-1,1.48-.53,2.15a24.49,24.49,0,0,0,3.24,3.35c0.59,0.37,1,.18,1.33-0.56a2.45,2.45,0,0,1,.74-1Z" transform="translate(-3.4 -2.5)"/><path class="cls-4" d="M239.88,149.47l0,1.15a5,5,0,0,0,.29,1.51c0.26,0.6.2,1-1.11,1.82a20.56,20.56,0,0,1-5.07,2.62c-1.52.35-1.73,0.13-2.21-.52a16.61,16.61,0,0,1-1.2-2.72Z" transform="translate(-3.4 -2.5)"/><path class="cls-4" d="M201.38,171.53c-0.35,1.51-.8,2.58-2,2.45a15.22,15.22,0,0,1-5.32-2.09c-0.91-.77-1.14-1.26-0.93-1.8s0.62-2.31.62-2.31Z" transform="translate(-3.4 -2.5)"/><path class="cls-3" d="M265.25,95.55a11.77,11.77,0,0,0,4.83,4c2.12,0.73,4.88.91,3.13,2.12s-5.77.86-8-.42A15.53,15.53,0,0,1,261,97.12Z" transform="translate(-3.4 -2.5)"/><path class="cls-4" d="M265.36,93c0.67,1.32,1.19,2.64.36,3.32a15.86,15.86,0,0,1-3.54,1.52c-0.83.33-1.33,0.18-1.73-.83a22.34,22.34,0,0,0-1.18-2.38Z" transform="translate(-3.4 -2.5)"/><path class="cls-5" d="M227.17,43.45c4.74-.7,9.8-2.12,12.71,1.49s-1.63,11.68-2.5,12.18,5.22-1.39,5.22-1.39,3.57-6.87.85-11.59-9.42-5.78-16.61-3.85" transform="translate(-3.4 -2.5)"/><path class="cls-6" d="M248.51,67.4c3.78,0.24,9.5,2.56,10.18,5s6.75,16.23,7.07,18.56-0.05,3-1.87,4.27a4.33,4.33,0,0,1-5.22.09c-1.24-1.11-4.57-6.74-5.75-11.08S248.51,67.4,248.51,67.4Z" transform="translate(-3.4 -2.5)"/><path class="cls-7" d="M258.68,72.37c-0.68-2.41-6.4-4.73-10.18-5,0,0,3.21,12.47,4.4,16.81A25.83,25.83,0,0,0,254,87.37a1.9,1.9,0,0,1,1.14-.89c3-.6,3.62,4.86,4.21,6.75a8.6,8.6,0,0,0,1.52,2.87,5.13,5.13,0,0,0,3-.91c1.82-1.22,2.19-1.95,1.87-4.27S259.36,74.78,258.68,72.37Z" transform="translate(-3.4 -2.5)"/><path class="cls-5" d="M230.74,53.78c4.19-2.81,11.92-2.57,13.32.19s8.18,16.73,10,24,1.69,6.33-.31,7.91-6.95,6.54-7.47,5.27S230.74,53.78,230.74,53.78Z" transform="translate(-3.4 -2.5)"/><path class="cls-8" d="M244.06,54a4.65,4.65,0,0,0-2-.29,7.35,7.35,0,0,0-5.73,11.43l-0.58.63c4.43,10.62,10.26,24.59,10.57,25.37,0.52,1.27,5.46-3.69,7.47-5.27s2.17-.68.31-7.91S245.46,56.76,244.06,54Z" transform="translate(-3.4 -2.5)"/><path class="cls-9" d="M228.26,54.76c2-4.06,1.82-8.88,1-13.35a23.91,23.91,0,0,0-1.92-6.24,13.33,13.33,0,0,0-5.53-5.68,15.24,15.24,0,0,0-8.06-1.95A17,17,0,0,0,203,31.75c-6.89,5.74-9.22,17.72-3.7,25.16a20.2,20.2,0,0,0,7.61,5.82,22.42,22.42,0,0,0,6.9,2.22" transform="translate(-3.4 -2.5)"/><path class="cls-10" d="M208.84,62.81a5.08,5.08,0,0,0-.21.71A20.11,20.11,0,0,0,213.78,65l14.48-10.2c2-4.06,1.82-8.88,1-13.35a23.91,23.91,0,0,0-1.92-6.24,13.33,13.33,0,0,0-5.53-5.68c-0.32-.18-0.63-0.33-0.94-0.48a18.68,18.68,0,0,0-11,2.86c-3.8,2.63-6.13,7.73-4.51,12.06,0.92,2.45,2.9,4.31,4.49,6.39s2.88,4.75,2.08,7.24C211.34,59.51,209.57,60.9,208.84,62.81Z" transform="translate(-3.4 -2.5)"/><path class="cls-4" d="M224.76,55.17c-5,3.75-17.4,9.75-17.43,11.38s1,1.06,2.33.92,15.83-8.76,15.83-8.76Z" transform="translate(-3.4 -2.5)"/><path class="cls-6" d="M230.74,53.78c4.35,1.51,10.8,15.84,13.8,24.53s6.12,15.85,5.11,22.76-3.93,14.51-10.7,17.28-8.55,1.66-6.65,6.49,8.77,17.07,8.82,21.75-2.49,5.12-6.36,6.85-4.82,1.24-6.95-.84-8.56-11.66-8.56-11.66l-10,20.83c-3.36,7-5.82,10.82-8.46,10.54s-7.16-2.28-7.62-3.61,0.09-5.16,4-17.45,5.08-16.47,7.92-21.46,5.2-9.63,5.2-9.63-2.2-4.59-2.53-6.64-0.51-1.93,1-2.87S222,101.71,222,101.71,208.9,74.89,209.66,67.46C209.66,67.46,223.66,57.26,230.74,53.78Z" transform="translate(-3.4 -2.5)"/><path class="cls-11" d="M232.71,56.42L229,54.68c-7.4,4.06-19.38,12.79-19.38,12.79C208.9,74.89,222,101.71,222,101.71l-0.56.38a3.45,3.45,0,0,0,1.45-1.27,5.41,5.41,0,0,0,.57-2.33,81.31,81.31,0,0,1,1.2-10.58c1.18-5.38,3.83-10.29,5.88-15.4S234,61.76,232.71,56.42Z" transform="translate(-3.4 -2.5)"/><path class="cls-12" d="M209.3,161.77l10-20.83v0c0-.39-0.08-0.78-0.16-1.16a22.08,22.08,0,0,0-2.08-5.5c-1-2-1.84-4.14-2.82-6.26-1,1.86-1.68,4-2.49,5.68l-5.06,10.92a58,58,0,0,0-4.07,10.53c-1,3.94-1.08,8-1.93,12-0.37,1.72-.83,3.66.13,5.13h0.06C203.47,172.59,205.94,168.79,209.3,161.77Z" transform="translate(-3.4 -2.5)"/><path class="cls-13" d="M217,134.3c-2-4.1-3.63-9-6.52-12.55a8.56,8.56,0,0,0-.62-0.67c-0.83,1.6-2.64,5.05-4.72,8.7-2.84,5-4,9.17-7.92,21.46s-4.47,16.12-4,17.45,5,3.32,7.62,3.61,5.1-3.51,8.46-10.54l10-20.83v0c0-.39-0.08-0.78-0.16-1.16A22.08,22.08,0,0,0,217,134.3Z" transform="translate(-3.4 -2.5)"/><path class="cls-6" d="M230.05,52.37c4.86,1.95,4.76,13-5.46,24.52-10.43,11.74-23.3,18-29.11,21.29s-5.73,3.5-7.06,2.31-3.28-3.12-3.08-4.28,12.19-12.27,18-17,12.35-13.77,17.62-20.34S228,51.54,230.05,52.37Z" transform="translate(-3.4 -2.5)"/><path class="cls-14" d="M238.95,118.35c6.77-2.77,9.68-10.37,10.7-17.28s-2.1-14.07-5.11-22.76a105.05,105.05,0,0,0-8.7-19,129.8,129.8,0,0,1,7.1,38.8,4.62,4.62,0,0,1-.27,2.1,4.33,4.33,0,0,1-1.56,1.6,27,27,0,0,1-8.7,4,52.85,52.85,0,0,0-6.25,1.61,7.73,7.73,0,0,0-4.65,4.21c-1.06,2.91.52,6,1.93,8.8a95.38,95.38,0,0,1,8.49,24.27c0.4,1.94.73,4.21-.75,5.8-1.25,1.35-2.58.86-4,1.4,0.25,0.29.48,0.55,0.67,0.73,2.12,2.08,3.08,2.57,6.95.84s6.4-2.17,6.36-6.85-6.91-16.92-8.82-21.75S232.18,121.12,238.95,118.35Z" transform="translate(-3.4 -2.5)"/><path class="cls-5" d="M221.22,79.1a9.25,9.25,0,0,0-2.78-.62,5.34,5.34,0,0,0-2,0,4.41,4.41,0,0,0-1.91,1.28,8.91,8.91,0,0,0-2.34,4.07,6.4,6.4,0,0,0,.29,3.94A79.9,79.9,0,0,0,222,79.6,4,4,0,0,0,221.22,79.1Z" transform="translate(-3.4 -2.5)"/><path class="cls-15" d="M258.68,72.37c-0.31-1.09-1.66-2.16-3.39-3a6.87,6.87,0,0,0-.2,3.72,4.69,4.69,0,0,0,2.81,3.31,3.68,3.68,0,0,0,2.3,0C259.45,74.52,258.87,73,258.68,72.37Z" transform="translate(-3.4 -2.5)"/><path class="cls-5" d="M207.83,113.51a24.76,24.76,0,0,0,1.65,4.7c1-.79,2-1.61,2.92-2.46a5.44,5.44,0,0,0,1.66-2.12,5.2,5.2,0,0,0,.09-2.36,31.53,31.53,0,0,0-.71-3.74c-2.19,1.49-4.09,2.77-4.64,3.11C207.32,111.58,207.51,111.46,207.83,113.51Z" transform="translate(-3.4 -2.5)"/><path class="cls-5" d="M201.81,137.2a27.55,27.55,0,0,0,3.53-2.16,9,9,0,0,0,3.16-3.52,9.11,9.11,0,0,0,.59-2.89,31,31,0,0,0-.11-5.82c-1,1.81-2.31,4.33-3.82,7A45,45,0,0,0,201.81,137.2Z" transform="translate(-3.4 -2.5)"/><path class="cls-16" d="M226.08,59.56a1.16,1.16,0,0,0,.71-0.83,1,1,0,0,0-.32-0.59,13.07,13.07,0,0,0-3-2.38c-0.76.84-1.61,1.86-2.59,3.07l-1.87,2.35c1.75,0.61,4.73,1.43,4.47,2A7.89,7.89,0,0,1,226.08,59.56Z" transform="translate(-3.4 -2.5)"/><path class="cls-17" d="M116.51,137.66a9.93,9.93,0,0,1,4.14-3.26c1.81-.57,4.13-0.68,2.68-1.73s-4.85-.83-6.77.21a13.11,13.11,0,0,0-3.59,3.38Z" transform="translate(-3.4 -2.5)"/><path class="cls-4" d="M115,139.29c1.11-.58,2.12-1.23,1.88-2.1a13.39,13.39,0,0,0-1.67-2.79,1,1,0,0,0-1.6-.28,18.86,18.86,0,0,1-2,1.05Z" transform="translate(-3.4 -2.5)"/><path class="cls-17" d="M40.7,223.27c-1.18.3-5.1,3.13-6.61,3.86s-0.57,2.6-.31,4.37,3.54,9.62,4,9.73,2.3-2,2.75-4.42-0.49-3.54.11-5.59a3.13,3.13,0,0,1,2.12-2.35Z" transform="translate(-3.4 -2.5)"/><path class="cls-4" d="M41,221.76l-0.61.75a4.24,4.24,0,0,1-1,.87c-0.48.27-.63,0.56-0.17,1.79a17.35,17.35,0,0,0,2.09,4.34c0.85,1,1.1,1,1.75.77a14,14,0,0,0,2.19-1.23Z" transform="translate(-3.4 -2.5)"/><path class="cls-17" d="M78,205.91c-0.63.8-1.8,4.66-2.43,5.9s0.94,2,2,3.06,7.22,4.59,7.6,4.41,0.49-2.51-.41-4.32-2.12-2.1-2.75-3.76a2.61,2.61,0,0,1,.22-2.64Z" transform="translate(-3.4 -2.5)"/><path class="cls-4" d="M77.41,204.77l0,0.81a3.54,3.54,0,0,1-.2,1.06c-0.18.42-.14,0.69,0.79,1.28a14.48,14.48,0,0,0,3.58,1.82c1.07,0.24,1.22.09,1.55-.38a11.7,11.7,0,0,0,.83-1.92Z" transform="translate(-3.4 -2.5)"/><path class="cls-18" d="M49.33,155.32c-1.59-3.42-3.78-6.92-1.7-9.92s9.17-1.37,9.75-.82S55.16,141,55.16,141s-6-1.16-8.93,1.94-2.26,8.39.8,13.39" transform="translate(-3.4 -2.5)"/><path class="cls-18" d="M43.54,180.27c-5.8-2.22-7-3-3.87-10.12s6-14,7.84-18.41,7.33-2.75,13.39.8S43.54,180.27,43.54,180.27Z" transform="translate(-3.4 -2.5)"/><path class="cls-19" d="M67,152.84c8.08-1.86,22.25-6.1,30.46-11.09s13-7.27,15.06-6.92,3.76,3.4,2.74,4.59-9.43,7.47-15.73,10.81-8.76,5.94-16.56,9-17.43,5.89-17.43,5.89-6.82-8.13-2.68-10.21Z" transform="translate(-3.4 -2.5)"/><path class="cls-20" d="M115.54,138.1c-1.39-.85-3.28-0.68-4.91-0.25a22.82,22.82,0,0,0-7.89,3.81c-2,1.48-3.69,3.27-5.58,4.85-4.87,4.07-10.78,6.68-16.59,9.23-1,.43-2.33.79-3-0.05-0.24-.3,1.79-4.82,1.58-6,0-.07,0-0.12-0.06-0.19-4.49,1.43-8.78,2.59-12.06,3.34l-4.14,2.08c-4.14,2.08,2.68,10.21,2.68,10.21s9.64-2.81,17.43-5.89,10.25-5.67,16.56-9,14.71-9.62,15.73-10.81A1.59,1.59,0,0,0,115.54,138.1Z" transform="translate(-3.4 -2.5)"/><path class="cls-21" d="M61.69,153.7c0.72,0.22,1.37.5,2,.66a17.94,17.94,0,0,0,5.22.53,13.88,13.88,0,0,0,5.42-1.06,10.76,10.76,0,0,0,4.36-4.41c1.79-3,2.76-6.45,1.54-9.83-1.81-5-6.74-9.46-12.33-9.37-2.72,0-5.44.3-7.78,1.84a13.3,13.3,0,0,0-4,4.44,14.23,14.23,0,0,0-1.84,5.6C53.82,145.63,56.15,152,61.69,153.7Z" transform="translate(-3.4 -2.5)"/><path class="cls-22" d="M77.93,135.54c-0.17,0-.34-0.08-0.51-0.1-2.72-.35-6,0.58-6.91,3.16-0.64,1.79,0,3.78-.14,5.68a6.34,6.34,0,0,1-6.27,5.51c-3.1-.09-5.75-2.5-8.84-2.75H55a10.76,10.76,0,0,0,6.67,6.67c0.72,0.22,1.37.5,2,.66a17.94,17.94,0,0,0,5.22.53,13.88,13.88,0,0,0,5.42-1.06,10.76,10.76,0,0,0,4.36-4.41c1.79-3,2.76-6.45,1.54-9.83A14.93,14.93,0,0,0,77.93,135.54Z" transform="translate(-3.4 -2.5)"/><path class="cls-4" d="M72.6,156.15c2-.48,2.1-2.25-1.16-2.31a67.34,67.34,0,0,0-7.79.51l-2.25,2.16Z" transform="translate(-3.4 -2.5)"/><path class="cls-19" d="M72.6,156.15c0.49,4-3.71,8.5-6.27,14.89s-2.15,7.21-2.15,7.21,10.24-4.48,18.5-4.55,8.6,0.26,8.68,7.53S89.63,200.78,87,205.42s-4.21,3.46-5.85,2.56-3.15-.17-4.58-5a16.58,16.58,0,0,1,1.94-13.38c2.3-3.88.2-2.31-2.11-1.15s-9.09,4.24-12.42,4c0,0,3.28,8.21,3.3,13.3s-0.13,5.49-3.71,9.18-13.62,12.48-17,14.52-3.74.35-5-2.23a11.85,11.85,0,0,1,.72-10.4c6-9.46,11.18-8.52,9.67-13.89s-9.6-10.29-10-18.85,7-27.41,15-29.26C63.32,153.37,72.6,156.15,72.6,156.15Z" transform="translate(-3.4 -2.5)"/><path class="cls-23" d="M81.76,185c0.24-1.47-.17-3.25-1.53-3.86a4.37,4.37,0,0,0-2.17-.19,59.94,59.94,0,0,0-15.19,3.33,6.66,6.66,0,0,0-2.74,1.55,1.36,1.36,0,0,0-.4.75,1.69,1.69,0,0,0,.51,1.15L64,192.49v0c3.33,0.19,10.11-2.88,12.42-4s4.41-2.73,2.11,1.15a17.47,17.47,0,0,0-2.56,9A20.5,20.5,0,0,1,77.65,193C79,190.3,81.28,188,81.76,185Z" transform="translate(-3.4 -2.5)"/><path class="cls-24" d="M60.83,192.23c2.21,0.83-.54-3.82-1.22-4.46-1.35-1.27-3-2.25-4.07-3.74a11.87,11.87,0,0,1-1.41-2.85q-0.8-2.14-1.4-4.35a11.63,11.63,0,0,1-.54-4.32c0.25-2.17,2.09-4.52,3.8-5.81,1.07-.8,2.25-1.43,3.37-2.15,3.19-2,5.48-2.6,7.48-5.81a7.54,7.54,0,0,0,.29-3.79,28,28,0,0,0-10.17-.1c-6.85,1.58-13.28,15.63-14.73,25,0,0.27,2.95,1.86,3.29,2.08a45.63,45.63,0,0,0,4,2.47,49.38,49.38,0,0,1,8.42,5C58.78,190.09,59.93,191.89,60.83,192.23Z" transform="translate(-3.4 -2.5)"/><path class="cls-4" d="M91.34,180.32c-0.1-5.14-.55-6.35-4.88-6.58-0.07.18-.14,0.35-0.2,0.53a5.8,5.8,0,0,0-.28,3.53,4.18,4.18,0,0,0,3.72,2.69A5.39,5.39,0,0,0,91.34,180.32Z" transform="translate(-3.4 -2.5)"/><path class="cls-4" d="M65,206.08a5.84,5.84,0,0,0-1.5,7.13,3.83,3.83,0,0,0,.8,1c2.92-3.06,3-3.72,3-8.47,0-.24,0-0.49,0-0.73A5.57,5.57,0,0,0,65,206.08Z" transform="translate(-3.4 -2.5)"/><path class="cls-13" d="M82.67,173.7c-8.25.08-18.5,4.55-18.5,4.55s-0.41-.81,2.15-7.21,6.76-10.89,6.27-14.89c0,0-9.27-2.78-15.63-1.31-6.89,1.59-13.36,15.82-14.76,25.2a17.58,17.58,0,0,0,3.55,2.79c1.94,1.14,4.13,1.93,5.78,3.47a16.57,16.57,0,0,1,2.58,3.43l4,6.47a17.29,17.29,0,0,1,2.24,4.49c0.87,3.17-.15,6.6-1.88,9.4s-4.13,5.1-6.33,7.54A70.56,70.56,0,0,0,45.68,226c-0.78,1.18-1.55,2.56-1.19,3.92a2.53,2.53,0,0,0,.17.38,6.43,6.43,0,0,0,1.92-.85c3.39-2,13.42-10.84,17-14.52s3.73-4.08,3.71-9.18-3.3-13.3-3.3-13.3c3.33,0.19,10.11-2.88,12.42-4s4.41-2.73,2.11,1.15a16.58,16.58,0,0,0-1.94,13.38c1.44,4.88,2.94,4.15,4.58,5s3.26,2.08,5.85-2.56,4.41-16.92,4.32-24.18S90.92,173.63,82.67,173.7Z" transform="translate(-3.4 -2.5)"/><path class="cls-17" d="M55.69,180.8c1.2-.25,6.47,1.37,7.87,4.49s0.62,4.09-.55,2.43-3.06-3.59-5.12-3-3.49,0-4.16-1.07S55.69,180.8,55.69,180.8Z" transform="translate(-3.4 -2.5)"/><path class="cls-4" d="M52,183.41c1.19,1.26,1.38,1.45,2.57.29A13.68,13.68,0,0,0,56.72,181c0.4-.63.35-1.58-1.85-2S52,183.41,52,183.41Z" transform="translate(-3.4 -2.5)"/><path class="cls-19" d="M56.35,152.26c6.31-1,10.94.1,10.61,3.84s-7.66,5.39-12.07,7.44S46.28,167,46.28,167s2.73,7.15,6.06,9,3.48,2.85,3,4.34-2.61,3.94-4.17,3.54-11.36-5.67-14.37-13-4.1-7.8,1.46-11.62A43.46,43.46,0,0,1,56.35,152.26Z" transform="translate(-3.4 -2.5)"/><path class="cls-4" d="M37.86,159.62c-4.13,2.9-4.14,3.88-2.39,8.06A7.15,7.15,0,0,0,38.08,165a5.91,5.91,0,0,0,.27-4A9.13,9.13,0,0,0,37.86,159.62Z" transform="translate(-3.4 -2.5)"/><path class="cls-25" d="M85.33,193.72a13.93,13.93,0,0,1-1.21,1c-1.73,1.27-3.92,2.51-5,4.44-0.48.84-2.29,4.53-2,5.3,1.28,3.19,2.61,2.72,4.06,3.52,1.64,0.9,3.26,2.08,5.85-2.56,2.43-4.35,4.18-15.4,4.31-22.76C91.28,186.32,88.22,191,85.33,193.72Z" transform="translate(-3.4 -2.5)"/><path class="cls-26" d="M58.8,136.39a13.29,13.29,0,0,0-1.22,2.71c-0.52,1.42-1,3-.39,4.4a5.8,5.8,0,0,0,1.67,1.87A2.15,2.15,0,0,0,60,146a1.72,1.72,0,0,0,1.2-.52c2.27-2,1.84-5.87,3.88-8.1a5.25,5.25,0,0,1,2.57-1.5,2.23,2.23,0,0,0,1.31-.61c1.86-2.48-3.57-2.36-4.53-2.21A8.08,8.08,0,0,0,58.8,136.39Z" transform="translate(-3.4 -2.5)"/><path class="cls-27" d="M413.59,151.87a12.71,12.71,0,0,0,1.66,6.53c0.51,0.73,2.69,2.64,2.28,3.63-0.54,1.29-4.32,1-5.31.73a0.69,0.69,0,0,1-.35-0.18,0.73,0.73,0,0,1-.13-0.31,28.82,28.82,0,0,0-1.81-6c-0.16-.31-0.19-0.69-0.59-0.58a7,7,0,0,0-1.14,1.32,0.45,0.45,0,0,1-.54.15,0.38,0.38,0,0,1-.12-0.24,2.65,2.65,0,0,1,.2-1.61,12.18,12.18,0,0,0,1.18-2.84c0-.23.34-1.85,0-1.95Z" transform="translate(-3.4 -2.5)"/><path class="cls-28" d="M415.31,149.74c-0.27,1.58-.66,3.06-1.82,3.11a17.13,17.13,0,0,1-4.05-.94c-0.94-.25-1.28-0.69-1-1.83a24.13,24.13,0,0,0,.5-2.83Z" transform="translate(-3.4 -2.5)"/><path class="cls-29" d="M372.27,99.3c12.09,0,38.61,7.13,44.73,9s5.63,2.84,5.46,8.76-1.72,27.39-4.82,31.33-2.8,2.52-6.41,1.14-4-1.39-4.08-6,3.53-13.57,4-18.5-0.88-3-12.49-3.15-28.09-4.74-30.34-12.08A8.58,8.58,0,0,1,372.27,99.3Z" transform="translate(-3.4 -2.5)"/><path class="cls-30" d="M408.28,109.57l-13-1.08c-5-.41-5.49-3.34-5.18-6.85-6.75-1.35-13.3-2.35-17.83-2.35a8.58,8.58,0,0,0-4,10.46c2.25,7.34,18.73,11.9,30.34,12.08s13-1.78,12.49,3.15c0,0.13,0,.28-0.05.42a17.5,17.5,0,0,0,4.64-7c0.64-1.92.84-4.16-.26-5.86C414,110.23,411,109.79,408.28,109.57Z" transform="translate(-3.4 -2.5)"/><path class="cls-31" d="M362,81c7.71-.24,16.07-1.56,20,4.74s-4.77,18.38-6.27,19,5.68,5.86,5.68,5.86,9.91-17.45,6.44-25.5-14-11-25.85-9.24" transform="translate(-3.4 -2.5)"/><path class="cls-32" d="M383.49,90.38a11.2,11.2,0,0,0-.13-3.79,9.62,9.62,0,0,0-4.7-6,15.21,15.21,0,0,0-6.88-1.79c-1.84-.09-3.93.29-4.84-1.64a5.54,5.54,0,0,1-.39-1.71,45.32,45.32,0,0,0-4.52.44L362,81c7.71-.24,16.07-1.56,20,4.74,1.63,2.59,1.12,6.15-.16,9.49A11.36,11.36,0,0,0,383.49,90.38Z" transform="translate(-3.4 -2.5)"/><path class="cls-33" d="M334.38,104.39c-11.13-1.72-28.8-17.39-17.14-37.61S350.86,51.86,361,65.4s3,27-2.76,31.68S334.38,104.39,334.38,104.39Z" transform="translate(-3.4 -2.5)"/><path class="cls-28" d="M354,97.64c-5.39,1.06-22,5.86-21.23,7.92,0.66,1.86,1.55,1.22,1.55,1.22l16.61,1.08,5.52-6.49Z" transform="translate(-3.4 -2.5)"/><path class="cls-27" d="M401.27,248.62c1.45,0.49,4.58,3.72,6.39,4.77s2.14,2.55,2.88,4.66,3.26,12.46,2.77,12.86-3.72-.92-5.61-3.3-3-6.42-4.88-8.34a36.25,36.25,0,0,0-4.68-3.86Z" transform="translate(-3.4 -2.5)"/><path class="cls-27" d="M370.54,286.89c0.65,0.79,3,4.69,5.08,6.26s1.74,2.55,1.61,3.95,1.06,11.45,1.15,12.46-0.95.83-2.49-.48-5.64-7.38-5.89-10.61-4.51-6.56-4.51-6.56Z" transform="translate(-3.4 -2.5)"/><path class="cls-28" d="M400.33,245.81l0.73,1a5.3,5.3,0,0,0,1.16,1.12c0.59,0.36.76,0.72,0.14,2.25a21.69,21.69,0,0,1-2.8,5.33c-1.1,1.23-1.42,1.16-2.22.88a17.53,17.53,0,0,1-2.68-1.63Z" transform="translate(-3.4 -2.5)"/><path class="cls-28" d="M369.65,284.68c1.32,1,2.18,1.84,1.54,3A16.06,16.06,0,0,1,367,292c-1.12.56-1.7,0.59-2.13,0.16s-2-1.56-2-1.56Z" transform="translate(-3.4 -2.5)"/><path class="cls-29" d="M334.3,106.78c-4.47,7.84-2.76,17.82,4,21.33s11.57,9.64,10.51,18.21-17.72,34.25-19.27,43.83-4.21,23.95-5.75,35.41,2.77,16.09,8.25,24.1,25.63,40.44,30.41,40.91,9-5.61,7.34-10.51-1.33-8.8-8.72-19.94-15.62-17.37-17-28.05,7.09-25.35,7.09-25.35,3.16,13.39,6.58,17.92,4.56,5.4,9.38,10.27,20.55,20.09,25.21,20.18,6.06-.23,7.66-4.12,1.45-6.15-.84-8.53-2.69-6-13.08-14.87S369.44,209.71,372,201.89s10.51-20.18,11.86-33.81,0.14-19.47-5.63-33.93S368,92.43,359.21,96.9,334.3,106.78,334.3,106.78Z" transform="translate(-3.4 -2.5)"/><path class="cls-13" d="M399.16,242.44c-2.28-2.37-2.69-6-13.08-14.87S369.44,209.71,372,201.89s10.51-20.18,11.86-33.81,0.14-19.47-5.63-33.93S368,92.43,359.21,96.9s-24.91,9.88-24.91,9.88l-0.09.17c2.94,1.19,1.38-1.09,6.35,1.67,5.5,0.08,8.35,6.46,9.87,11.74,4,13.81,7.94,28.44,4.29,42.33-1.59,6-4.57,11.62-7.22,17.28a180.58,180.58,0,0,0-11.41,31.67c-1.74,6.74-3.09,13.7-2.43,20.63s3.57,13.89,9,18.18c3.21,2.51,7.08,4,10.59,6.05a35.33,35.33,0,0,1,13.34,14.12c0.33,0.65.65,1.31,1,2A54.68,54.68,0,0,0,361,260.12c-7.39-11.14-15.62-17.37-17-28.05s7.09-25.35,7.09-25.35,3.16,13.39,6.58,17.92,4.56,5.4,9.38,10.27,20.55,20.09,25.21,20.18,6.06-.23,7.66-4.12S401.45,244.81,399.16,242.44Z" transform="translate(-3.4 -2.5)"/><path class="cls-34" d="M399.16,242.44c-2.28-2.37-2.69-6-13.08-14.87S369.44,209.71,372,201.89s10.51-20.18,11.86-33.81,0.14-19.47-5.63-33.93c-2.71-6.79-5.14-16.41-7.87-24.24-4.27-5.43-9.29-9.24-14-4-3.51,3.9.32,11.18,1.28,15.55q2.19,10,3.4,20.09c0.37,3.08.82,6.47,3.12,8.55,2.73,2.45,6.89,2.07,10.52,1.55,1.73,9.06-2.85,18-7.28,26.09l-9.06,16.53a90.23,90.23,0,0,0-6.75,14.41c1,3.87,3.47,12.53,6.09,16,3.42,4.53,4.56,5.4,9.38,10.27s20.55,20.09,25.21,20.18,6.06-.23,7.66-4.12S401.45,244.81,399.16,242.44Z" transform="translate(-3.4 -2.5)"/><path class="cls-35" d="M396.4,238.49c-1.62-2.4-4.28-5.78-10.32-10.92-10.39-8.85-16.63-17.86-14.05-25.69,1.79-5.43,6.15-13,9.11-21.73l-10.8,16.15a45.57,45.57,0,0,0-5.69,10.34c-1.28,3.73-1.52,8,.2,11.54,2.51,5.17,8.34,7.61,13.55,10A120.73,120.73,0,0,1,396.4,238.49Z" transform="translate(-3.4 -2.5)"/><path class="cls-27" d="M263,171.19c-0.78,1.3,1.9,2.15,2.11,3.15a1.6,1.6,0,0,1-.78,0,45.69,45.69,0,0,0-6.79-.46,2.9,2.9,0,0,0-1.26.24c-1.52.69,0.21,1.34,0.81,1.94a1.13,1.13,0,0,0,.45.34,1.09,1.09,0,0,0,.54,0,5.54,5.54,0,0,1,3.12.18,16,16,0,0,0-4.89,1.09,0.6,0.6,0,0,0-.39.31,0.6,0.6,0,0,0,.05.39,13.21,13.21,0,0,0,4.18,5.7,1.47,1.47,0,0,0,1.42.42,1.63,1.63,0,0,0,.65-0.76c1.56-2.76,4.54-5,7.8-5.11,2.78-.06,5.84.76,7.54-2.21,1.06-1.86-3.6-4.7-3.62-4.71-0.71-.43-2.54.38-3.17,0.67-1.24.56-2,.9-3.4,0.34-1.19-.46-2.22-1.24-3.39-1.74A0.79,0.79,0,0,0,263,171.19Z" transform="translate(-3.4 -2.5)"/><path class="cls-28" d="M275.52,168.93c-1.35.9-2.24,1.34-2,2.52a35.8,35.8,0,0,0,2.21,6.45c0.56,0.86,1.23.87,2.1,0.09a3.59,3.59,0,0,1,1.61-.9Z" transform="translate(-3.4 -2.5)"/><path class="cls-29" d="M348.52,106.39c7.86,11.14.26,17.53-12.23,33.48s-24.24,24.85-36.56,30.9-19,10.08-21.45,7.18-4.42-7.49-1.59-10.87,18.55-14,24.46-18.9a91.42,91.42,0,0,0,21.3-26.78C331.55,104.46,342.77,98.23,348.52,106.39Z" transform="translate(-3.4 -2.5)"/><path class="cls-36" d="M349.44,145a18.59,18.59,0,0,0,.42-11.42,55.39,55.39,0,0,0-4.34-10.76l-3.24-6.64a3.57,3.57,0,0,0-.94-1.35,3.14,3.14,0,0,0-3,0c-3.89,1.49-6.69,5-8.68,8.63s-3.38,7.64-5.55,11.2a58.49,58.49,0,0,1-7.53,9.23l-10.8,11.53c-3,3.16-5.92,6.33-9.16,9.2a70.5,70.5,0,0,1-15.73,10.56,6.57,6.57,0,0,1-3,.89,2.84,2.84,0,0,1-1.13-.28,14.73,14.73,0,0,0,1.54,2.19c2.47,2.91,9.13-1.12,21.45-7.18s24.07-15,36.56-30.9c2.48-3.17,4.77-6,6.78-8.49a16.51,16.51,0,0,1,5.71,14.94v0.07A15.22,15.22,0,0,0,349.44,145Z" transform="translate(-3.4 -2.5)"/><path class="cls-31" d="M389.51,141.06c-0.28,2.55-.27,2.4-2.78,3.19s-13.72,2.8-16.61,2.7-3.13.19-3.52-2.74S354.34,102.47,353.1,100s-1.89-3-.23-3.66,16.24-7.74,18.88-8,2.19-.44,4,2.76a139.62,139.62,0,0,1,9.66,25C388.25,126.68,389.74,138.92,389.51,141.06Z" transform="translate(-3.4 -2.5)"/><path class="cls-37" d="M320.9,148.16a9.62,9.62,0,0,0-8.69,5.63,11.14,11.14,0,0,0,.3,9.4,101.24,101.24,0,0,0,14.29-12.35A8.57,8.57,0,0,0,320.9,148.16Z" transform="translate(-3.4 -2.5)"/><path class="cls-38" d="M422.29,120.51c0.08-1.43.14-2.63,0.16-3.49s0.06-1.78.08-2.5l-1.19-4.33a12,12,0,0,0-4.35-1.92l-0.83-.24a18.19,18.19,0,0,0,.48,7.2,8.18,8.18,0,0,0,2.57,4.37A4.43,4.43,0,0,0,422.29,120.51Z" transform="translate(-3.4 -2.5)"/><path class="cls-31" d="M324.23,222.2c-0.17,1.14-.33,2.27-0.47,3.36-1.19,8.84,1.11,13.62,4.73,19A25,25,0,0,0,324.23,222.2Z" transform="translate(-3.4 -2.5)"/><path class="cls-39" d="M353.63,215.41c1.16,3.53,2.61,7.23,4.11,9.22s2.43,3.11,3.48,4.27c0-.09.06-0.17,0.08-0.26a8.56,8.56,0,0,0-.88-5C359.55,221.6,356.43,216.89,353.63,215.41Z" transform="translate(-3.4 -2.5)"/><path class="cls-40" d="M385.4,116.17a139.62,139.62,0,0,0-9.66-25c-1.79-3.21-1.35-3-4-2.76-1.42.12-6.32,2.22-10.79,4.24a20,20,0,0,0,1.63,5.92,223.32,223.32,0,0,1,11.1,38.47c0.59,3.16,1.2,6.5,2.81,9.21a101.1,101.1,0,0,0,10.23-2c2.51-.79,2.5-0.64,2.78-3.19C389.74,138.92,388.25,126.68,385.4,116.17Z" transform="translate(-3.4 -2.5)"/><path class="cls-41" d="M335.42,53.58c-1.12,1.95-.77,4.58,2,7.78a44.88,44.88,0,0,0,8.7,7.46,7.08,7.08,0,0,1,2.88,3,5.67,5.67,0,0,1,.11,3c-0.83,4.86-3.82,9.1-7.35,12.54s-7.63,6.22-11.43,9.37a12.54,12.54,0,0,0-3.9,4.62,22.49,22.49,0,0,0,8,3.1s18.14-2.59,23.85-7.3S371.13,78.94,361,65.4C355.05,57.46,345,52.36,335.42,53.58Z" transform="translate(-3.4 -2.5)"/><path class="cls-26" d="M330.76,74.35c-1.28,5.06-.91,10.84-4.19,14.89-1.74,2.14-5.1,3.44-7.23,1.69-1.49-1.23-1.72-3.4-1.84-5.33-0.25-4.08-.5-8.23.4-12.22,1.93-8.6,9.68-15.43,18.32-16.74,1.56-.24,5.18-0.93,6.23.63,1.7,2.53-2,3.65-3.57,4.87A22.74,22.74,0,0,0,330.76,74.35Z" transform="translate(-3.4 -2.5)"/><path class="cls-42" d="M302.77,199a0.78,0.78,0,0,0,.54-0.31,0.84,0.84,0,0,0-.48-0.91,23,23,0,0,1-2.63-2.69,7,7,0,0,0-3.05-2.12,3.1,3.1,0,0,0-3.38,1c-1,1.44-.28,5.2,1.11,6.31,0.89,0.71,2,.24,3,0Z" transform="translate(-3.4 -2.5)"/><path class="cls-42" d="M312.8,199.56a0.59,0.59,0,0,1-.17.62,5.59,5.59,0,0,1-1.35.81,3.53,3.53,0,0,0-2,1.93c-0.13.21-.25,0.43-0.39,0.64a5.17,5.17,0,0,1-4.27,2.56c-1.49,0-3-.88-4.35-2.54a15.93,15.93,0,0,1-2.66-4.48,0.59,0.59,0,1,1,1.1-.43,14.77,14.77,0,0,0,2.47,4.15,4.93,4.93,0,0,0,3.47,2.12,4.12,4.12,0,0,0,3.26-2c0.13-.19.24-0.39,0.36-0.59a4.62,4.62,0,0,1,2.54-2.4,4.65,4.65,0,0,0,1.08-.63A0.59,0.59,0,0,1,312.8,199.56Z" transform="translate(-3.4 -2.5)"/><path class="cls-42" d="M302.63,200.82a0.91,0.91,0,0,1,0,.46,1.31,1.31,0,0,1-.47.7,5.8,5.8,0,0,1-5.75,1,0.59,0.59,0,0,1,.43-1.1,4.59,4.59,0,0,0,4.49-.71,0.6,0.6,0,0,1-.1-0.33,0.59,0.59,0,0,1,.6-0.58,0.8,0.8,0,0,1,.61.31A0.9,0.9,0,0,1,302.63,200.82Zm-1.11.17h0Z" transform="translate(-3.4 -2.5)"/><path class="cls-42" d="M304.21,202.83a1.13,1.13,0,0,1,0,.55,7,7,0,0,1-1.81,3,2.39,2.39,0,0,1-1.33.91,0.59,0.59,0,1,1-.2-1.16,1.46,1.46,0,0,0,.65-0.53,6.37,6.37,0,0,0,1.51-2.34,0.45,0.45,0,0,1-.17-0.26,0.59,0.59,0,0,1,.39-0.74,0.72,0.72,0,0,1,.7.16A0.86,0.86,0,0,1,304.21,202.83Zm-0.59.59h0Zm-0.53-.28h0Z" transform="translate(-3.4 -2.5)"/><path class="cls-42" d="M306.5,203.58a5.27,5.27,0,0,1-.58,4.41,1.72,1.72,0,0,1-.79.72,0.59,0.59,0,1,1-.43-1.1,0.66,0.66,0,0,0,.23-0.26,4.05,4.05,0,0,0,.29-3.81,0.6,0.6,0,0,1-.36-0.38,0.59,0.59,0,0,1,.4-0.73,0.83,0.83,0,0,1,1,.53A4.92,4.92,0,0,1,306.5,203.58Zm-0.9,0h0Z" transform="translate(-3.4 -2.5)"/><path class="cls-42" d="M309.47,198.15a11.79,11.79,0,0,1,.46,2.07,3.45,3.45,0,0,1-.91,3.25,0.59,0.59,0,1,1-.75-0.91,2.5,2.5,0,0,0,.49-2.19,11.52,11.52,0,0,0-.44-2h0a0.59,0.59,0,0,1,1.12-.36Z" transform="translate(-3.4 -2.5)"/><path class="cls-42" d="M180.77,256.73a1.56,1.56,0,0,1-1.07-.63c-0.35-.67.37-1.37,1-1.83a46.2,46.2,0,0,0,5.27-5.39,14,14,0,0,1,6.12-4.26c2.42-.69,5.36-0.08,6.78,2,2,2.89.57,10.43-2.24,12.66-1.78,1.42-4.08.48-6,0Z" transform="translate(-3.4 -2.5)"/><path class="cls-42" d="M160.63,257.89a1.18,1.18,0,0,0,.35,1.25,11.22,11.22,0,0,0,2.7,1.63,7.08,7.08,0,0,1,4.08,3.88c0.25,0.43.51,0.86,0.78,1.28,2.15,3.27,5.35,5.19,8.56,5.14,3-.05,5.93-1.77,8.74-5.09a32,32,0,0,0,5.34-9,1.18,1.18,0,1,0-2.2-.86,29.65,29.65,0,0,1-4.95,8.33c-2.34,2.78-4.69,4.21-7,4.25-2.82.05-5.23-2.07-6.54-4.07-0.25-.38-0.49-0.78-0.72-1.18a9.28,9.28,0,0,0-5.09-4.82,9.34,9.34,0,0,1-2.16-1.27A1.18,1.18,0,0,0,160.63,257.89Z" transform="translate(-3.4 -2.5)"/><path class="cls-42" d="M181.34,259.82a1.61,1.61,0,0,1,1.23-.62,1.18,1.18,0,0,1,1.2,1.17,1.2,1.2,0,0,1-.19.66,9.22,9.22,0,0,0,9,1.43,1.18,1.18,0,0,1,.87,2.2,11.64,11.64,0,0,1-11.53-1.93,2.62,2.62,0,0,1-.94-1.4A1.83,1.83,0,0,1,181.34,259.82Zm1.93,0.91h0Z" transform="translate(-3.4 -2.5)"/><path class="cls-42" d="M178.35,263.68a1.44,1.44,0,0,1,1.41-.31,1.18,1.18,0,0,1,.78,1.48,0.91,0.91,0,0,1-.34.53,12.79,12.79,0,0,0,3,4.7,2.92,2.92,0,0,0,1.3,1.06,1.18,1.18,0,1,1-.41,2.33,4.8,4.8,0,0,1-2.68-1.83c-1.39-1.6-3.12-3.58-3.64-6.09a2.26,2.26,0,0,1,.06-1.11A1.72,1.72,0,0,1,178.35,263.68Zm0.71,1.95h0Zm1.08-.57h0Z" transform="translate(-3.4 -2.5)"/><path class="cls-42" d="M173.77,264.69a1.67,1.67,0,0,1,2-1.06,1.18,1.18,0,0,1,.79,1.47,1.2,1.2,0,0,1-.72.77,8.13,8.13,0,0,0,.59,7.64,1.32,1.32,0,0,0,.47.52,1.18,1.18,0,1,1-.86,2.21,3.45,3.45,0,0,1-1.59-1.44,10.58,10.58,0,0,1-1.17-8.84A9.87,9.87,0,0,1,173.77,264.69Zm1.31,1.2h0Z" transform="translate(-3.4 -2.5)"/><path class="cls-42" d="M167.3,255a23.66,23.66,0,0,0-.91,4.17c-0.37,3,.26,5.23,1.84,6.52a1.18,1.18,0,1,0,1.5-1.83c-1.15-.95-1.17-2.91-1-4.4a23.12,23.12,0,0,1,.88-3.94h0a1.18,1.18,0,0,0-2.25-.73Z" transform="translate(-3.4 -2.5)"/><path class="cls-42" d="M140.86,125.41a0.86,0.86,0,0,0,.5.47,0.94,0.94,0,0,0,.82-0.8,25.58,25.58,0,0,1,2-3.64,7.77,7.77,0,0,0,1.31-3.92,3.45,3.45,0,0,0-2.11-3.3c-1.84-.6-5.63,1.32-6.38,3.16-0.48,1.17.38,2.24,1,3.2Z" transform="translate(-3.4 -2.5)"/><path class="cls-42" d="M142.82,136.37l-0.17-.08a6.21,6.21,0,0,1-1.28-1.18,3.92,3.92,0,0,0-2.7-1.56l-0.8-.22a5.75,5.75,0,0,1-4.06-3.75c-0.44-1.6,0-3.43,1.35-5.43a17.7,17.7,0,0,1,3.95-4.24,0.66,0.66,0,1,1,.8,1,16.39,16.39,0,0,0-3.66,3.92c-1.11,1.68-1.51,3.14-1.18,4.36a4.58,4.58,0,0,0,3.18,2.84c0.24,0.08.49,0.14,0.74,0.2a5.14,5.14,0,0,1,3.35,2,5.17,5.17,0,0,0,1,.95A0.66,0.66,0,0,1,142.82,136.37Z" transform="translate(-3.4 -2.5)"/><path class="cls-42" d="M138,126a1.77,1.77,0,0,1-.48-0.23,6.45,6.45,0,0,1-2.82-5.83A0.66,0.66,0,0,1,136,120a5.11,5.11,0,0,0,2.16,4.57,0.66,0.66,0,0,1,1.13.25,0.89,0.89,0,0,1-.14.75,1,1,0,0,1-.75.42A1.17,1.17,0,0,1,138,126Z" transform="translate(-3.4 -2.5)"/><path class="cls-42" d="M134.75,128.13a13.67,13.67,0,0,1-1.92-.77,2.66,2.66,0,0,1-1.39-1.14,0.66,0.66,0,1,1,1.18-.58,1.62,1.62,0,0,0,.76.53,7.09,7.09,0,0,0,3,.88,0.66,0.66,0,0,1,1.14-.08,0.8,0.8,0,0,1,.05.8,1.13,1.13,0,0,1-.91.58A5.2,5.2,0,0,1,134.75,128.13Z" transform="translate(-3.4 -2.5)"/><path class="cls-42" d="M132.29,131.59l-0.06,0a1.91,1.91,0,0,1-1-.62,0.66,0.66,0,1,1,1-.8,0.73,0.73,0,0,0,.35.17h0a4.51,4.51,0,0,0,4.11-.89,0.66,0.66,0,0,1,1.2-.31,0.93,0.93,0,0,1-.26,1.22A5.84,5.84,0,0,1,132.29,131.59Z" transform="translate(-3.4 -2.5)"/><path class="cls-42" d="M138.77,133.82a2.6,2.6,0,0,1-.74-0.35,0.66,0.66,0,0,1,.74-1.08,2.78,2.78,0,0,0,2.49-.16,11.69,11.69,0,0,0,2-1.08,0.66,0.66,0,0,1,.74,1.08,13,13,0,0,1-2.18,1.2A4.5,4.5,0,0,1,138.77,133.82Z" transform="translate(-3.4 -2.5)"/><polygon class="cls-42" points="262.93 153.52 264.85 153.8 265.98 152.04 267.44 151.96 269.02 149.53 263.84 148.53 262.93 153.52"/><path class="cls-42" d="M264.41,156.2c-1.22-2.12-2.33-4.29-3.43-6.48a4.26,4.26,0,0,1-.73-3c0.13-.62.23-1.24,0.39-1.85,0.05-.19.79-2,0.75-2a6.33,6.33,0,0,1-1.71-2.91,9.83,9.83,0,0,0,2.39-1.54,24.44,24.44,0,0,1,1.68,3.13,5,5,0,0,1,5.26,2.27l3.42,8.22-2.11-.09-0.25,1.51-2.58-.18L266.33,156Z" transform="translate(-3.4 -2.5)"/><path class="cls-42" d="M262.19,138.81a0.33,0.33,0,0,0,.14-0.44h0a0.33,0.33,0,0,0-.44-0.14l-2.43,1.24a0.33,0.33,0,0,0-.14.44h0a0.33,0.33,0,0,0,.44.14Z" transform="translate(-3.4 -2.5)"/><polygon class="cls-42" points="152.84 209.75 151.97 211.42 152.75 213.24 152.27 214.71 153.43 217.66 156.22 212.72 152.84 209.75"/><path class="cls-42" d="M156.78,210.46c1.91-.43,4-0.78,6.26-1.14a4.23,4.23,0,0,1,3.18.27c0.62,0.37,1.27.72,1.91,1.16,0.21,0.14,2.17,1.84,2.24,1.81a9.19,9.19,0,0,1,4.8-.72,15.64,15.64,0,0,0,1.62,4.22,39.38,39.38,0,0,1-5.54.26s-0.09,5-5.1,5.36l-9.33-1.52,0.89-2.2-1-1,1.09-2.5-1.52-2.18Z" transform="translate(-3.4 -2.5)"/><path class="cls-42" d="M176.06,216a0.74,0.74,0,0,0,.7.51h0a0.42,0.42,0,0,0,.42-0.55L176,211.8a0.62,0.62,0,0,0-.65-0.42h0a0.41,0.41,0,0,0-.39.51Z" transform="translate(-3.4 -2.5)"/><polygon class="cls-42" points="41.82 95.19 43.24 97.91 46.52 97.72 47.97 99.49 52.52 99.27 49.01 91.75 41.82 95.19"/><path class="cls-42" d="M43.22,95.43c1.57-3.5,3.31-6.93,5.07-10.34,0.82-1.59,1.42-2.91,3.1-3.68,0.9-.41,1.79-0.85,2.71-1.21,0.3-.11,3.26-0.84,3.28-0.93a9.94,9.94,0,0,1,2.13-4.86A15.45,15.45,0,0,0,63.67,76a38.39,38.39,0,0,1-2.43,5,7.9,7.9,0,0,1,2,8.78l-7.28,11.94L54.08,99l-2.14,1.08-2.16-3.44-4.56,1.06Z" transform="translate(-3.4 -2.5)"/><path class="cls-42" d="M63.28,76.56a0.52,0.52,0,0,0,.7-0.23h0a0.52,0.52,0,0,0-.23-0.7l-3.82-2a0.52,0.52,0,0,0-.7.22h0a0.52,0.52,0,0,0,.23.7Z" transform="translate(-3.4 -2.5)"/><path class="cls-42" d="M101.34,104.07s-0.4,4-1,4.31c0,0-4.17.59-4.79,1.41,0,0-2-.44-2.48,0s-0.27.08-.27,0.08l-1.49-3-0.23,1.92-0.89.9,0.73,1.68-0.81,1.31,1,1.67L91,115.91l1.71,1.36a7.83,7.83,0,0,0,.93-2.86,4.09,4.09,0,0,0,1.22.07,4.2,4.2,0,0,0,2.13-.88l-0.33.26c0.7-.38,4-2.16,4.68-1.19l2.42,3.44,1.4-3.68-1.27-3.32-0.23-3.68Z" transform="translate(-3.4 -2.5)"/><path class="cls-42" d="M103.73,116.1l0.16-2.58a1,1,0,0,0-.25-0.7l-0.88-1a1,1,0,0,1-.19-1l0.47-1.26a1,1,0,0,0-.06-0.81l-0.84-1.47a1,1,0,0,1,0-.87l0.24-.52a1,1,0,0,0-.21-1.09l-0.8-.77s3.21-1.13,5.5,4.33C106.84,108.4,108.8,114.14,103.73,116.1Z" transform="translate(-3.4 -2.5)"/><path class="cls-42" d="M91.32,106.85s-2.51-.59-3,3.4c0,0-.45,7.8,4.31,7l-1.25-1.14a1,1,0,0,1-.31-0.83l0.08-.72A1,1,0,0,0,91,114L90.45,113a1,1,0,0,1,.11-1.19h0a1,1,0,0,0,.16-1.1l-0.19-.39a1,1,0,0,1,.25-1.18l0.09-.07a1,1,0,0,0,.34-0.68Z" transform="translate(-3.4 -2.5)"/><ellipse class="cls-42" cx="98.52" cy="111.97" rx="0.54" ry="0.17" transform="translate(-31.84 31.21) rotate(-17.01)"/><ellipse class="cls-42" cx="98.17" cy="110.17" rx="0.54" ry="0.17" transform="translate(-20.43 15.46) rotate(-9.62)"/><path class="cls-42" d="M106.4,109.26a4.78,4.78,0,0,1,1-.64A6.31,6.31,0,0,0,109,107.3a2.19,2.19,0,0,0,.48-0.91,1.27,1.27,0,0,1,.16-0.81,0.93,0.93,0,0,1,.73.19,1,1,0,0,1,.41.63c0.15,1.06-1.14,2.05-1.86,2.63a5.47,5.47,0,0,1-1.6.91,1,1,0,0,1-.8.1A0.43,0.43,0,0,1,106.4,109.26Z" transform="translate(-3.4 -2.5)"/><path class="cls-42" d="M239.2,240.61s0.51-8.48,1.73-9.24c0,0,8.81-1.61,10.06-3.4,0,0,4.2.76,5.26-.24s0.56-.19.56-0.19l3.44,6.31,0.32-4.09,1.81-2-1.69-3.51,1.6-2.86L260,218l0.25-3.38-3.74-2.73s-2,4.32-1.73,6.16c0-.23-2.41-0.07-2.6,0A8.93,8.93,0,0,0,247.7,220l0.67-.57c-1.45.86-8.31,4.92-9.84,2.94l-5.44-7.08-2.66,7.93,3,6.93,0.81,7.79Z" transform="translate(-3.4 -2.5)"/><path class="cls-42" d="M233.08,215.3L233,220.79a2,2,0,0,0,.58,1.47l2,2a2,2,0,0,1,.48,2.06L235.09,229a2,2,0,0,0,.21,1.71l1.91,3.05a2,2,0,0,1,.16,1.85l-0.46,1.12a2,2,0,0,0,.53,2.29l1.77,1.57s-6.71,2.67-12-8.71C227.16,231.9,222.5,219.88,233.08,215.3Z" transform="translate(-3.4 -2.5)"/><path class="cls-42" d="M260.25,233.85s5.38,1,6-7.46c0,0,.29-16.6-9.76-14.54l2.75,2.3a2.08,2.08,0,0,1,.74,1.73l-0.1,1.53a2.08,2.08,0,0,0,.36,1.32l1.33,1.92a2.08,2.08,0,0,1-.14,2.54h0a2.08,2.08,0,0,0-.25,2.35l0.44,0.82a2.08,2.08,0,0,1-.42,2.52L261,229a2.08,2.08,0,0,0-.67,1.47Z" transform="translate(-3.4 -2.5)"/><ellipse class="cls-42" cx="244.51" cy="223.61" rx="1.14" ry="0.37" transform="translate(-63.66 91.11) rotate(-19.34)"/><path class="cls-42" d="M245.48,227.76a0.63,0.63,0,1,0-.15-0.72,1.17,1.17,0,0,0-1,.61A1.19,1.19,0,0,0,245.48,227.76Z" transform="translate(-3.4 -2.5)"/><path class="cls-42" d="M228,230a10.15,10.15,0,0,1-2,1.45,13.41,13.41,0,0,0-3.37,2.94,4.66,4.66,0,0,0-.95,2c-0.1.48,0.21,1.38-.27,1.74a2,2,0,0,1-1.57-.34,2,2,0,0,1-.92-1.31c-0.4-2.25,2.25-4.46,3.72-5.75a11.62,11.62,0,0,1,3.31-2.06,2.13,2.13,0,0,1,1.69-.28A0.91,0.91,0,0,1,228,230Z" transform="translate(-3.4 -2.5)"/><path class="cls-42" d="M116.3,68.7s-0.52,3.91-1.92,4.4a6.43,6.43,0,0,1,.12-1.95s0.9-4.48.72-5.46c0,0,.83-0.12.88,1.52A6.45,6.45,0,0,0,116.3,68.7Z" transform="translate(-3.4 -2.5)"/><path class="cls-42" d="M112.75,61.51a3.11,3.11,0,0,0-.62,1.27,10.12,10.12,0,0,0-.47,3.92,12.25,12.25,0,0,1-.92,4.3c-0.27.69-.62,1.32-0.94,2a8.1,8.1,0,0,0,0,6.93,4.7,4.7,0,0,0,.65.86,3.17,3.17,0,0,0,.81.77s0.61,0.22.91-1.52a9.63,9.63,0,0,0,2.38-3.84c0.46-1.71-.41-3.59.08-5.32a21.06,21.06,0,0,0,.83-4.86s0.53-.28.6,1.35a4.91,4.91,0,0,0,2.45,4.25,19.45,19.45,0,0,0,2.92.6,5.4,5.4,0,0,1,2.6,1.64s2,2,2,2.46c0,0,1-1-.35-5.21a10.28,10.28,0,0,1,1.26-.49c1-.31,2-0.08,3-0.3,0.8-.18,1.2-0.63.71-1.42a3.18,3.18,0,0,0-2.73-1.26c-0.63,0-1.31.16-1.94,0.1a7,7,0,0,1-2.33-.85,5.91,5.91,0,0,1-1.45-1,12.14,12.14,0,0,1-1.3-1.88,9.6,9.6,0,0,0-.91-1.13,8.72,8.72,0,0,0-3-2.13,5.59,5.59,0,0,0-1.1-.32,2.72,2.72,0,0,0-1.14-.12Z" transform="translate(-3.4 -2.5)"/><path class="cls-42" d="M111.47,68.42a1.92,1.92,0,0,0,.13.3,4.36,4.36,0,0,1,.16.89,5.85,5.85,0,0,1-.88,3.21c-0.86,1.72-1.69,4.73-.56,6.43L110.77,80l-0.47.63s-2.78-2.41-.55-7.84C109.76,72.81,111.38,70,111.47,68.42Z" transform="translate(-3.4 -2.5)"/><path class="cls-42" d="M111.66,79.85a2.06,2.06,0,0,1,.41-1.09,10.36,10.36,0,0,1,1.08-1.13,6.42,6.42,0,0,0,1.39-3.74,6.11,6.11,0,0,1-.78,4.05L112.12,80Z" transform="translate(-3.4 -2.5)"/><path class="cls-42" d="M116.1,68.07s0.6-.37,2.06,1.33a4.87,4.87,0,0,0,2.35,1.53,4.36,4.36,0,0,1,3,2.4A6.08,6.08,0,0,0,120.4,72a3.77,3.77,0,0,1-3.13-1.37A5,5,0,0,1,116.1,68.07Z" transform="translate(-3.4 -2.5)"/><path class="cls-42" d="M118.9,61.9a18,18,0,0,0,3.19,3.88,11.44,11.44,0,0,0,3.42,3.32,3.83,3.83,0,0,0,2.68.27,9.56,9.56,0,0,1,1.43-.1,2.84,2.84,0,0,1,1.29.22s-0.19-1.85-3.4-1.9a4.47,4.47,0,0,1-2.71-.23,7.77,7.77,0,0,1-3-2S119.53,61.88,118.9,61.9Z" transform="translate(-3.4 -2.5)"/><path class="cls-42" d="M109.74,80a1.9,1.9,0,0,1,2.49-.09s-0.33,1.59-.78,1.79C111.44,81.66,110.85,81.68,109.74,80Z" transform="translate(-3.4 -2.5)"/><path class="cls-42" d="M112.73,57.12a2,2,0,0,1,.65,1c0.18,0.93,1.41,1.66,1.57,2.62a1.86,1.86,0,0,1-.53,1.23,1.76,1.76,0,0,1-1.19.18,0.74,0.74,0,0,1-.51-0.67,3.89,3.89,0,0,0-.83-1.47,17.66,17.66,0,0,1-1.57-1.28Z" transform="translate(-3.4 -2.5)"/><path class="cls-42" d="M112.73,57.31c-0.32,1-.85,1.83-2,1.7s-0.43-1.67.23-2c0.29-.14,2-0.48,1.74.29h0Z" transform="translate(-3.4 -2.5)"/><path class="cls-42" d="M130.3,183.1s0.49,4,1.84,4.18a6.69,6.69,0,0,0-.07-2s-0.82-4.73-.61-5.92c0,0-.88,0-0.95,2A8.64,8.64,0,0,1,130.3,183.1Z" transform="translate(-3.4 -2.5)"/><path class="cls-42" d="M134.23,173.71a3.43,3.43,0,0,1,.58,1.5,13.22,13.22,0,0,1,.25,4.56,12.72,12.72,0,0,0,.62,4.44c0.21,0.64.49,1.19,0.73,1.77a8.07,8.07,0,0,1-.4,6.36,6.91,6.91,0,0,1-.6.91,4.75,4.75,0,0,1-.72.88s-0.53.36-.71-1a5.41,5.41,0,0,1-2-2.81c-0.4-1.52.48-3.62,0-5.29a22.26,22.26,0,0,1-.75-5.23s-0.56-.22-0.65,1.71a7.25,7.25,0,0,1-2.54,5.32,25.86,25.86,0,0,1-3.08,1.45,8,8,0,0,0-2.75,2.5s-2.09,2.66-2,3.14c0,0-1.29-.7-0.17-5.6a11.94,11.94,0,0,0-1.57-.17c-1.3,0-2.55.54-3.88,0.61-1.08.05-1.71-.35-1.22-1.46a4.77,4.77,0,0,1,3.36-2.37c0.81-.21,1.7-0.18,2.47-0.43a10.11,10.11,0,0,0,2.76-1.67,8.79,8.79,0,0,0,1.65-1.54,18.78,18.78,0,0,0,1.42-2.68,15.13,15.13,0,0,1,1-1.67,12.88,12.88,0,0,1,3.45-3.43,6.74,6.74,0,0,1,1.26-.63,2.85,2.85,0,0,1,1.29-.36Z" transform="translate(-3.4 -2.5)"/><path class="cls-42" d="M135.14,181.66a3,3,0,0,1-.14.35,6,6,0,0,0-.2,1,5.27,5.27,0,0,0,.64,3.1c0.67,1.46,1.2,4,.13,5.84l-0.43.79,0.36,0.41a7.63,7.63,0,0,0,1-7.33A11.92,11.92,0,0,1,135.14,181.66Z" transform="translate(-3.4 -2.5)"/><path class="cls-42" d="M134.39,192.84a1.28,1.28,0,0,0-.31-0.84,5.45,5.45,0,0,0-.92-0.71,4.53,4.53,0,0,1-1.18-3.17,5.18,5.18,0,0,0,.62,3.63l1.38,1.37Z" transform="translate(-3.4 -2.5)"/><path class="cls-42" d="M130.51,182.35s-0.63-.28-2.17,2a7.26,7.26,0,0,1-2.49,2.31,6.33,6.33,0,0,0-3.13,3.43s1.82-2,3.32-2.29a5.17,5.17,0,0,0,3.26-2.31A7.3,7.3,0,0,0,130.51,182.35Z" transform="translate(-3.4 -2.5)"/><path class="cls-42" d="M127.35,175.38a28.48,28.48,0,0,1-3.57,5.71A17.21,17.21,0,0,1,120,186a5.45,5.45,0,0,1-3.29,1.11,13.72,13.72,0,0,0-1.86.33c-0.19,0-1.68.44-1.66,0.67,0,0-.13-2.32,4.09-3.34,0,0,2.3-.05,3.37-1a11.57,11.57,0,0,0,3.47-3.27S126.61,175.48,127.35,175.38Z" transform="translate(-3.4 -2.5)"/><path class="cls-42" d="M136,192.41s-0.8-.65-2.12.61c0,0,.22,1.27.6,1.3C134.49,194.32,135,194.17,136,192.41Z" transform="translate(-3.4 -2.5)"/><path class="cls-42" d="M134.5,167.75a3.55,3.55,0,0,0-.78,1.55c-0.25,1.32-1.64,2.51-1.85,3.84,0,0,.07,1.3.55,1.51a1.54,1.54,0,0,0,1.27,0,1.21,1.21,0,0,0,.57-0.95,6.88,6.88,0,0,1,1-2.06c0.41-.61,1-0.84,1.76-1.95Z" transform="translate(-3.4 -2.5)"/><path class="cls-42" d="M134.49,168c0.29,1.31.81,2.42,2,2.08s0.6-2.35-.09-2.72c-0.31-.17-2.16-0.45-1.93.64h0Z" transform="translate(-3.4 -2.5)"/><path class="cls-42" d="M108.35,257.85s5.19,0.42,6.22-1.24a8.5,8.5,0,0,0-2.55-.39s-6-.09-7.25-0.6c0,0-.39,1,1.72,1.56A8.53,8.53,0,0,1,108.35,257.85Z" transform="translate(-3.4 -2.5)"/><path class="cls-42" d="M100.05,251.25a4.11,4.11,0,0,1,1.82-.45,13.38,13.38,0,0,1,5.19.49,16.2,16.2,0,0,0,5.81,0c1-.16,1.88-0.43,2.82-0.66,2.86-.69,6.83-0.08,9,1.88a6.22,6.22,0,0,1,.93,1.08,4.19,4.19,0,0,1,.77,1.27s0.12,0.85-2.22.75a12.72,12.72,0,0,1-5.62,2c-2.33.11-4.52-1.54-6.89-1.39,0,0-4.53.28-6.51-.29,0,0-.51.6,1.57,1.16a6.48,6.48,0,0,1,4.8,4.36c0.31,1.27-.14,2.64,0,3.94a7.14,7.14,0,0,0,1.39,3.82s2,3.18,2.61,3.28c0,0-1.63,1-6.64-1.91a13.59,13.59,0,0,0-1,1.48c-0.68,1.23-.68,2.61-1.25,3.85-0.45,1-1.15,1.38-2,.53a4.2,4.2,0,0,1-.87-3.88c0.14-.82.58-1.65,0.67-2.47a9.24,9.24,0,0,0-.45-3.25,7.82,7.82,0,0,0-.82-2.13A16,16,0,0,0,101,262.5,12.69,12.69,0,0,1,99.81,261a11.53,11.53,0,0,1-1.92-4.46,7.39,7.39,0,0,1-.11-1.51,3.6,3.6,0,0,1,.16-1.51Z" transform="translate(-3.4 -2.5)"/><path class="cls-42" d="M109.35,251.53a2.53,2.53,0,0,1,.35.24,5.76,5.76,0,0,0,1.1.46,7.74,7.74,0,0,0,4.39-.23c2.46-.63,6.59-0.86,8.47,1.08l0.86,0.81,0.95-.43s-2.34-4.27-10-2.91C115.49,250.55,111.36,251.85,109.35,251.53Z" transform="translate(-3.4 -2.5)"/><path class="cls-42" d="M124.06,255c0-.27-1.44.18-1.52,0.22a13.69,13.69,0,0,0-1.76,1.08,8.49,8.49,0,0,1-5.22.75,8.08,8.08,0,0,0,5.45.13l3.13-1.54Z" transform="translate(-3.4 -2.5)"/><path class="cls-42" d="M107.6,257.42s-0.64.67,1.13,3a6.44,6.44,0,0,1,1.31,3.47,5.77,5.77,0,0,0,2.26,4.53s-1.28-2.62-.82-4.39a5,5,0,0,0-.89-4.43A6.55,6.55,0,0,0,107.6,257.42Z" transform="translate(-3.4 -2.5)"/><path class="cls-42" d="M98.84,259.31a23.76,23.76,0,0,1,4.12,5.21,15.13,15.13,0,0,1,3.33,5.35,5.06,5.06,0,0,1-.41,3.54,12.63,12.63,0,0,0-.53,1.83c0,0.19-.32,1.66-0.08,1.73,0,0-2.33-.77-1.5-4.92,0,0,1-2.2.47-3.56a10.27,10.27,0,0,0-1.77-4.47S98.64,260.11,98.84,259.31Z" transform="translate(-3.4 -2.5)"/><path class="cls-42" d="M124.74,252.54a2.51,2.51,0,0,0-.81,3.19s2.14,0,2.53-.51C126.46,255.22,126.64,254.46,124.74,252.54Z" transform="translate(-3.4 -2.5)"/><path class="cls-42" d="M94.4,250a2.62,2.62,0,0,0,1.15,1.13c1.15,0.5,1.74,2.29,2.95,2.77a2.46,2.46,0,0,0,1.73-.34,2.33,2.33,0,0,0,.57-1.49,1,1,0,0,0-.72-0.85,5.15,5.15,0,0,1-1.67-1.48,23.34,23.34,0,0,0-1.21-2.39Z" transform="translate(-3.4 -2.5)"/><path class="cls-42" d="M94.64,250c1.33-.14,2.6-0.58,2.75-2.08s-2-1-2.64-.26c-0.27.34-1.18,2.43-.11,2.34h0Z" transform="translate(-3.4 -2.5)"/><path class="cls-4" d="M320.14,125.47c1.48,1.27,3.69,2,5.21,2.71,2.34-2.52,3.93-6.4,5.17-9.59a0.43,0.43,0,0,0-.21-0.63,30.14,30.14,0,0,0-4.34-2.44q-1.79,2.68-3.52,5.88C321.7,122.8,320.93,124.16,320.14,125.47Z" transform="translate(-3.4 -2.5)"/></g></g></svg>