<?xml version="1.0" encoding="utf-8"?>
<!-- Generator: Adobe Illustrator 19.2.0, SVG Export Plug-In . SVG Version: 6.00 Build 0)  -->
<svg version="1.1" id="Layer_1" xmlns="http://www.w3.org/2000/svg" xmlns:xlink="http://www.w3.org/1999/xlink" x="0px" y="0px"
	 viewBox="0 0 384 297.1" style="enable-background:new 0 0 384 297.1;" xml:space="preserve">
<style type="text/css">
	.st0{fill:#FFFFFF;}
	.st1{fill:#C3676E;}
	.st2{fill:#E16A72;}
	.st3{fill:url(#SVGID_1_);}
	.st4{fill:url(#SVGID_2_);}
	.st5{fill:url(#SVGID_3_);}
	.st6{fill:url(#SVGID_4_);}
	.st7{fill:url(#SVGID_5_);}
	.st8{fill:#230033;}
	.st9{fill:#E8E8E8;}
	.st10{fill:url(#SVGID_6_);}
	.st11{fill:#77434F;}
	.st12{fill:url(#SVGID_7_);}
	.st13{fill:#834E50;}
	.st14{fill:url(#SVGID_8_);}
	.st15{fill:#CC7F6E;}
	.st16{fill:#529B40;}
	.st17{fill:url(#SVGID_9_);}
	.st18{fill:#3E8033;}
	.st19{fill:#367B2B;}
	.st20{fill:url(#SVGID_10_);}
	.st21{fill:#76BA44;}
	.st22{fill:url(#SVGID_11_);}
	.st23{fill:url(#SVGID_12_);}
	.st24{fill:#89C444;}
	.st25{fill:url(#SVGID_13_);}
	.st26{fill:#F3F3F3;}
	.st27{fill:url(#SVGID_14_);}
	.st28{fill:#86C946;}
	.st29{fill:url(#SVGID_15_);}
	.st30{fill:#FFBD9F;}
	.st31{fill:url(#SVGID_16_);}
	.st32{fill:#FFBB00;}
	.st33{fill:#FFDB01;}
	.st34{fill:#FF9D00;}
	.st35{fill:#013759;}
	.st36{fill:#971A1A;}
	.st37{fill:#CF725C;}
	.st38{fill:url(#SVGID_17_);}
	.st39{fill:url(#SVGID_18_);}
	.st40{fill:url(#SVGID_19_);}
	.st41{fill:url(#SVGID_20_);}
	.st42{fill:url(#SVGID_21_);}
	.st43{fill:url(#SVGID_22_);}
	.st44{fill:#CDCDCD;}
	.st45{fill:#AD0E34;}
	.st46{fill:url(#SVGID_23_);}
	.st47{fill:url(#SVGID_24_);}
</style>
<title>getting-paid</title>
<path class="st0" d="M149.2,262.7c-1,0.2-1.9,0.4-2.9,0.7c-3.3,0.8-6.3,2.2-9.1,4.1c-2.6,1.8-4,4.1-2.8,5.3c0.5,0.5,1.3,0.8,1.6,1.4
	c0.5,1.4-2.9,3.8-6.1,5.2c-5.8,2.5-14.6,5.2-16.2,9.6c-1.4,3.8,4.6,5.3,10.2,6c18.5,2.5,39,2.7,60.2,1.3c8.7-0.5,17.4-1.6,25.9-3.4
	c10-2.2,18.9-2.2,28.8-4.8s28.7-8.6,34.3-16.2c0.9-1,0.9-2.6-0.1-3.5c-1.1-0.9-2.4-1.5-3.8-1.7c-7.2-1.9-15.3-2-24.2-1.9
	c-7.9,0.1-15.2-1.2-23.1-1.4c-7.3-0.2-15.4,0.2-22.5-0.4c-7.7-0.6-14.7-1.8-23.2-1.7C168.6,261.3,158.6,260.7,149.2,262.7z"/>
<path class="st1" d="M288.7,206.4c-2.5,2.4-5.7,3.9-9.1,4.1c-1.8,0-3.6-0.4-5.2-1.3c-1.6-0.9-2.9-2.2-3.9-3.7c-2-2.9-3-6.4-2.8-9.9
	c0.1-1.9,0.8-3.8,1.9-5.4c1.2-1.8,3.1-3,5.2-3.4c1.3-0.2,2.6,0.1,3.7,0.8c1,0.6,1.8,1.5,2.4,2.4c0.5,0.9,0.9,1.8,1.2,2.8
	c0.1,0.5,0.2,1,0.2,1.5v0.8v0.6c0,1-0.1,2-0.4,2.9c-0.3,1-0.8,1.9-1.4,2.8c-0.5,0.8-1,1.3-1.5,2s-1,1.3-1.5,1.9
	c-1.1,1.3-2.2,2.5-3.5,3.6c-1.4,1.2-2.9,2.3-4.6,3c-0.9,0.4-1.9,0.7-2.9,0.9c-0.6,0.1-0.9,0.1-1.3,0.2s-0.8,0.1-1.3,0.1
	c-2.1,0.2-4.3-0.2-6.2-1.1l-0.2-0.1c-1.6-0.8-2.3-2.7-1.6-4.3c0.8-1.6,2.7-2.3,4.3-1.6c0.1,0,0.2,0.1,0.2,0.1l0.3,0.2
	c0.9,0.4,1.8,0.6,2.8,0.5c0.3,0,0.7,0,1,0s0.8,0,1-0.1c0.5-0.1,1-0.2,1.5-0.4c2.1-0.8,4.2-2.6,6.2-4.7c0.5-0.5,1-1.1,1.5-1.6
	s1-1.2,1.4-1.7c0.7-0.8,1.1-1.8,1.1-2.9v-0.5v-0.4c0-0.3,0-0.5-0.1-0.8c-0.1-0.5-0.3-1-0.5-1.5c-0.2-0.4-0.4-0.7-0.7-0.9
	c-0.2-0.2-0.4-0.2-0.7-0.2H275l-0.3,0.1c-0.2,0.1-0.4,0.2-0.6,0.3c-0.4,0.3-0.8,0.6-1.1,1c-0.7,0.9-1.2,2-1.3,3.1
	c-0.2,2.7,0.4,5.3,1.8,7.6c1.2,2.3,3.5,3.7,6.1,3.9c2.8-0.1,5.4-1.2,7.4-3c0.5-0.5,1.4-0.5,1.9,0.1
	C289.3,205.1,289.2,205.9,288.7,206.4z"/>
<path class="st2" d="M160.5,176.9c20.4-20.4,75.5-22.2,97,11.4s-10.8,86.9-17,89.1s-11,2.2-15.9-5.2s-16.8-8.1-21.1,0.5
	s-11.4,19.6-19,8.5c-7.2-10.7-10.8-13.2-15.9-13.9c0,0-6.3,10.8-15,8.9s-9.9-14.8-9.4-22c0,0-11.2-4.8-15.6-14.5
	c-6.3-2.4-6.1-5.8-6.2-13.4s1.4-14.6,7.6-14.8s13.9-4.9,16.6-12.3c1.1-3.3,2.5-6.6,4-9.8c-2.1-1.8-3.7-4.1-4.6-6.7
	c-3.5-9.3,0.1-10.5,4.8-9.2C154.1,174.4,157.3,175.5,160.5,176.9z"/>
<linearGradient id="SVGID_1_" gradientUnits="userSpaceOnUse" x1="211.7094" y1="73.4014" x2="253.7794" y2="38.8414" gradientTransform="matrix(1 0 0 -1 -3.26 296.42)">
	<stop  offset="0" style="stop-color:#DF6A73"/>
	<stop  offset="1" style="stop-color:#B2656B"/>
</linearGradient>
<path class="st3" d="M257.5,188.3c-3.2-5-7.2-9.3-11.9-12.9c7.6,8.8,14.3,22.2,15.1,33.8c0.6,5.9,0.4,11.9-0.6,17.7
	c-1.8,8.9-8.5,18.3-15.4,24.2c-5.4,4.6-14.8,5.4-21.8,4.8c-4-0.3-7.9-1.8-11.8-1.5c-4.8,0.4-9,3.4-11.9,7.2
	c-4.1,5.4-6.9,12.1-9.7,18.2c-0.7,1.6-1.3,3.4-0.8,5c0.1,0.2,0.1,0.3,0.2,0.5c5.8,2.7,11.1-5.7,14.6-12.7c4.3-8.7,16.3-8,21.1-0.5
	s9.8,7.4,15.9,5.2S279,221.9,257.5,188.3z"/>
<linearGradient id="SVGID_2_" gradientUnits="userSpaceOnUse" x1="126.4068" y1="19.989" x2="159.7768" y2="30.779" gradientTransform="matrix(1 0 0 -1 -3.26 296.42)">
	<stop  offset="0" style="stop-color:#DF6A73"/>
	<stop  offset="1" style="stop-color:#B2656B"/>
</linearGradient>
<path class="st4" d="M158.7,275.9c4.2-1.1,8.4-5.9,10-8.6c-3.8-1.4-9.5-4.8-12.5-6.7c-2.3-1.5-4.8-3.1-7.6-3.3
	c-0.3,2.3,2.4,3.7,3.5,5.7c1.7,3-0.2,7.1,1.6,10.2C154.8,274.8,156.7,275.8,158.7,275.9z"/>
<linearGradient id="SVGID_3_" gradientUnits="userSpaceOnUse" x1="104.0192" y1="78.7164" x2="159.3092" y2="66.2764" gradientTransform="matrix(1 0 0 -1 -3.26 296.42)">
	<stop  offset="0" style="stop-color:#DF6A73"/>
	<stop  offset="1" style="stop-color:#B2656B"/>
</linearGradient>
<path class="st5" d="M157.2,215.1c-1-0.5-2-0.9-3.1-1l-6.8-1.4c-4.5-0.9-16.1-1.4-17.3-1.3c-6.1,0.2-7.8,7.2-7.6,14.8
	s-0.1,11,6.2,13.4l0,0l0.6,0.1c6.9,0.7,13.6,1.8,20.4,3c1.8,0.4,3.6,0.5,5.4,0.4c5-0.5,8.6-4.7,7.9-9.5c-0.8-5.8-0.2-11.5-3.9-16.5
	C158.5,216.3,157.9,215.7,157.2,215.1z"/>
<linearGradient id="SVGID_4_" gradientUnits="userSpaceOnUse" x1="197.7873" y1="90.2304" x2="197.4573" y2="113.7804" gradientTransform="matrix(1 0 0 -1 -3.26 296.42)">
	<stop  offset="0" style="stop-color:#DF6A73"/>
	<stop  offset="1" style="stop-color:#B2656B"/>
</linearGradient>
<path class="st6" d="M184.1,185.1c-0.9,1.3-1.3,2.9-1.1,4.5c0.3,1.6,1.9,3,3.4,2.4c0.6-0.3,1.2-0.8,1.7-1.3c1.6-1.1,3.6-1.4,5.4-0.9
	c1.8,0.5,3.5,1.4,5.1,2.5c1.8,1.2,3.6,2.4,5.7,2.4c0.4,0,0.9-0.1,1.2-0.4c0.1-0.2,0.2-0.5,0.2-0.7c0.3-4.4-3.1-8.1-6.2-11.2
	c-1.6-1.6-6.6-7.8-9.1-7.1C188.1,176,185.2,183.1,184.1,185.1z"/>
<linearGradient id="SVGID_5_" gradientUnits="userSpaceOnUse" x1="133.2408" y1="118.6135" x2="156.1408" y2="113.3835" gradientTransform="matrix(1 0 0 -1 -3.26 296.42)">
	<stop  offset="0" style="stop-color:#DF6A73"/>
	<stop  offset="1" style="stop-color:#B2656B"/>
</linearGradient>
<path class="st7" d="M154.5,179.6c-1-1.3-2.3-2.4-3.6-3.4c-1.4-0.9-3.2-1.1-4.8-0.5c-0.6,0.3-1.1,0.8-1.5,1.3
	c0.2,1.9,0.6,3.8,1.4,5.6c0.9,2.5,2.4,4.7,4.3,6.4c1.6-2.1,3.6-3.9,4.7-6.3c0.3-0.5,0.4-1.1,0.3-1.6
	C155.2,180.5,154.9,180,154.5,179.6z"/>
<path class="st8" d="M191.9,163c0.9-0.1,1.8,0.6,2.6,1c0.8,0.4,1.5,0.9,2.1,1.5c0.6,0.6,0.9,1.1,1.7,1c1.3-0.2,2.5-0.6,3.8-0.7
	c2.4-0.4,4.8-0.7,7.1-0.9c2.6-0.2,5.3-0.3,7.9-0.2c1.9,0,3.9,0.2,5.8,0.4c1.5,0.3,2.9,0.4,4.4,0.7
	C215.8,162.2,203.7,161.2,191.9,163z"/>
<ellipse class="st8" cx="178.3" cy="212.6" rx="2.4" ry="3.6"/>
<path class="st8" d="M134,225.7c0.2,4.5-1.1,8-2.8,7.7s-3.1-4.1-3.2-8.5c-0.1-4.4,1.1-7.6,2.7-7.4S133.8,221.3,134,225.7z"/>
<path class="st8" d="M152.2,228.8c0,4.9-1.8,8.5-4,7.8s-4-5.1-4-9.9s1.8-8.1,3.9-7.6S152.2,224,152.2,228.8z"/>
<path class="st9" d="M312.3,77.8c0.6-6.6,7.9-10.2,14.3-11.9c12-3.2,22.9-4.5,34.2,1.3c8,4.1,14.8,10.2,19.6,17.8
	c3.9,6.3,6.1,16.2-1,21.5c-5,3.7-16.4,3.8-22.2,3.8c-2.9,0-6-0.2-8.3-1.9s-3.5-5.4-1.6-7.6"/>
<linearGradient id="SVGID_6_" gradientUnits="userSpaceOnUse" x1="316.0482" y1="270.6579" x2="388.7087" y2="270.6579" gradientTransform="matrix(0.9987 5.163877e-02 5.163877e-02 -0.9987 -17.8503 342.1308)">
	<stop  offset="0" style="stop-color:#E1E1E1"/>
	<stop  offset="1" style="stop-color:#D0D0D0"/>
</linearGradient>
<path class="st10" d="M348.9,108.4c2.3,1.7,5.4,2,8.3,1.9c5.8,0,17.2-0.1,22.2-3.8c7.1-5.3,4.9-15.3,1-21.5
	c-2.2-3.5-4.8-6.7-7.9-9.6c-1.1,1.9-1.8,4.1-3.4,5.7c-2.9,3-7.8,2.9-11.5,1.3s-6.9-4.6-10.2-6.9c-8.8-5.9-19.6-8-30-5.7
	c-2.8,1.9-4.8,4.5-5.1,7.8l34.9,23.1C345.4,103.1,346.5,106.8,348.9,108.4z"/>
<path class="st11" d="M270.7,106.3c11.6,0.7,41.9,7.2,58.9,4.3s28.2-2.9,28-14.8s-4.6-15.7-18.6-21.8s-23.2-1-30.4,4.7
	s-20.1,10.1-26.6,6.3S259.3,91.1,270.7,106.3z"/>
<linearGradient id="SVGID_7_" gradientUnits="userSpaceOnUse" x1="271.4974" y1="261.6716" x2="362.3499" y2="261.6716" gradientTransform="matrix(0.9987 5.163877e-02 5.163877e-02 -0.9987 -17.8503 342.1308)">
	<stop  offset="0" style="stop-color:#703946"/>
	<stop  offset="1" style="stop-color:#64313E"/>
</linearGradient>
<path class="st12" d="M270.7,106.3c11.6,0.7,41.9,7.2,58.9,4.3s28.2-2.9,28-14.8c0-1.7-0.2-3.3-0.4-5c-1.3-2.6-3.6-4.6-6.4-5.5
	c-4.3-1.2-8.8,0.7-13,2.5c-8.6,3.6-17.4,6.7-26.4,9.1c-4.4,1.2-8.9,2.2-13.4,1.3c-1.5-0.2-2.9-0.9-4-2c-0.7-1.1-1.2-2.2-1.4-3.5
	c-0.9-2.5-2.5-4.7-4.7-6.2c-2.1,0-4.2-0.5-6-1.4C275.5,81.3,259.3,91.1,270.7,106.3z"/>
<path class="st13" d="M257.8,91c-12.1,6.8-17.1,11.3-21.7,18.1s-3.1,7-2.5,9.5s1.8,2.5,4.9-1.5s12.9-14.9,13.6-13.6
	c0.7,1.2-5.6,14.9-7.2,18.2s0.2,4.4,1.1,4.9s3.9,3,5.3,3.6s3.8-0.9,4.4-3.1c0.6-2.2,5.1-9.5,5.7-8.4s-0.2,4.2-3,8.4
	c-2.8,4.2-2.9,5.6-0.9,6c2,0.4,2.8-1.3,5.2-5.5c2.7-4.8,9.7-12.8,15.7-16.4s10-4.9,10.4-13.5s-6.3-12.6-12.4-18s-21-14.8-23.1-15.7
	s-3.3,0.6-2.2,3.3s2.3,6,6.5,8.4c4.2,2.4,8.8,5.9,9.2,7.3S264,87.5,257.8,91z"/>
<linearGradient id="SVGID_8_" gradientUnits="userSpaceOnUse" x1="266.9523" y1="245.2489" x2="275.4323" y2="258.5089" gradientTransform="matrix(0.9987 5.163877e-02 5.163877e-02 -0.9987 -17.8503 342.1308)">
	<stop  offset="0" style="stop-color:#834E50"/>
	<stop  offset="1" style="stop-color:#77434F"/>
</linearGradient>
<path class="st14" d="M284.6,107.2L284.6,107.2c-0.7-0.4-1.4-0.9-2-1.4c-1.7-1.5-2.7-3.7-4.4-5.1c-1.4-1-3-1.8-4.7-2.4
	c-2.9-1.4-5.7-3.5-6.7-6.6c-0.7-2.2-0.5-4.6-0.9-6.7l-0.2,0.2l-0.3,0.4c-0.1,0.2-0.3,0.4-0.5,0.4c-2.2,2-4.6,3.6-7.1,5
	c-1.7,0.9-3.2,1.8-4.6,2.7c0.1,0.5,0.3,1,0.5,1.5c0.8,1.6,1.8,3.1,2.9,4.5c0.5,0.7,1.1,1.2,1.8,1.6c1.1,0.2,2.2,0.2,3.2-0.1
	c2.5-0.4,6,0.3,7.6,2.4s2.3,5.7,2.8,8.4c0.2,1.2,0.4,2.4,0.6,3.6l0,0c0.4-0.4,0.9-0.8,1.3-1.2l0.4-0.3l0.9-0.8l0.5-0.4l0.9-0.7
	l0.4-0.3c0.4-0.3,0.9-0.6,1.3-0.8l1.5-0.9C281.6,109.4,283.1,108.4,284.6,107.2z"/>
<path class="st15" d="M98.7,138.5c5.8-13.4,10.9-23.6,16-25.8s1.6,6.1-5.1,21.7S98.7,138.5,98.7,138.5z"/>
<path class="st16" d="M108.5,128.5c-2.3-2.1-7.7-2.9-10.6-2.9c-3.8,0-7.6,0.1-11.4,0.3c-0.7,0.2-1.5-0.2-1.9-0.8
	c-0.1-0.5,0-0.9,0.2-1.3c2.1-4.6,3-9.8,4.7-14.7s4.3-9.6,8.7-11.7"/>
<linearGradient id="SVGID_9_" gradientUnits="userSpaceOnUse" x1="96.2607" y1="235.1089" x2="115.1517" y2="235.1089" gradientTransform="matrix(0.9987 5.163877e-02 5.163877e-02 -0.9987 -17.8503 342.1308)">
	<stop  offset="0" style="stop-color:#529B40"/>
	<stop  offset="1" style="stop-color:#3E8033"/>
</linearGradient>
<path class="st17" d="M98.2,97.4c-3.5,1.7-5.8,5-7.5,8.8c0.5,0.5,1,1.1,1.3,1.8c0.5,1.2,0.9,2.4,1.1,3.7c0.4,1.4,0.4,2.9,0.1,4.3
	c-0.4,1.5-1.4,2.7-1.8,4.2c-0.1,0.5-0.1,1,0,1.5c0.4,0.8,1.3,1.4,2.2,1.4c0.9,0,1.8-0.1,2.7-0.3c3.1-0.4,6.2,1.2,8.6,3.2
	c0.6,0.5,1.2,1,1.7,1.6c0.6,0.3,1.2,0.6,1.7,1.1L98.2,97.4z"/>
<path class="st18" d="M132,92.2c4.6,2.1,9.6,4.5,12.4,9c-4.6,2.8-9.1,5.7-12.9,9.7c-4,4-6.5,9.3-7,14.9l-15.5-3.7"/>
<path class="st19" d="M136.1,103.9c1-0.9,1.4-2.6,0.5-3.6c-0.3-0.3-0.6-0.5-0.9-0.8c-0.5-0.6-0.7-1.3-0.6-2.1
	c0.1-0.7,0.4-1.5,0.8-2.1c0.2-0.3,0.3-0.6,0.5-0.9c-1.4-0.8-2.9-1.5-4.4-2.1l-5.3,6.8l-0.4,14.2c1-3.2,3.3-5.8,6.3-7.4
	C133.9,105.4,135,104.7,136.1,103.9z"/>
<path class="st16" d="M123.4,87.4c2.8,1.5,5.8,2.4,8.9,2.8c0.8,0,1.5,0.3,2.1,0.8c0.7,1,0,2.4-0.7,3.3c-3.3,4.7-5.3,10.4-7.2,15.9
	c-1.2,2.8-1.8,5.9-2,8.9c0,1.7,0.3,3.4,0.7,5c0.7,2.8,1.7,5.6,3,8.2l-7.9,3.4L109,104"/>
<linearGradient id="SVGID_10_" gradientUnits="userSpaceOnUse" x1="122.5427" y1="245.4495" x2="133.1454" y2="245.4495" gradientTransform="matrix(0.9987 5.163877e-02 5.163877e-02 -0.9987 -17.8503 342.1308)">
	<stop  offset="0" style="stop-color:#529B40"/>
	<stop  offset="1" style="stop-color:#3E8033"/>
</linearGradient>
<path class="st20" d="M121.6,119c1.6-6,2.2-12.2,3.6-18.2c0.9-3.9,2.1-7.7,3.4-11.4c-1.7-0.5-3.3-1.1-4.9-1.9c-3.6,3.4-5.9,8-6.3,13
	c-0.1,1.8-0.1,3.6,0.1,5.4c0.2,3.1,0.6,6.3,1.1,9.4c0.2,1.3,0.6,2.5,1.2,3.7c0.2,0.3,0.4,0.5,0.7,0.7c0.3,0.2,0.7,0.1,0.9-0.1
	C121.5,119.3,121.6,119.2,121.6,119z"/>
<path class="st21" d="M122.9,125.8c-4.1-7-6.6-14.9-7.2-23.1c-0.4-5.5-0.7-10.3-2.8-15.4c-4.3,3.8-9.9,5.4-15.3,6.9
	c-4.3,1.2-8.7,2.4-11.4,6c6,4.1,10.3,10.4,14.5,16.6l8,11.8"/>
<linearGradient id="SVGID_11_" gradientUnits="userSpaceOnUse" x1="111.1534" y1="236.1308" x2="103.2334" y2="229.6308" gradientTransform="matrix(0.9987 5.163877e-02 5.163877e-02 -0.9987 -17.8503 342.1308)">
	<stop  offset="0" style="stop-color:#529B40"/>
	<stop  offset="1" style="stop-color:#76BA44"/>
</linearGradient>
<path class="st22" d="M120.9,126.1c0.3-0.8,0.6-1.7,0.8-2.6c-3.4-6.5-5.5-13.6-6-20.9c-0.1-3.8-0.6-7.5-1.4-11.2
	c-1.4-0.8-2.9-1.5-4.5-2.1c-3.7,2.3-8.1,3.5-12.3,4.7c-1.4,0.4-2.8,0.8-4.2,1.3c3.4,3.7,6.1,8,8.2,12.5c0.5,1,0.8,2.3,0.1,3.1
	c-1,1.1-3,0-4.4,0.5c-0.1,0-0.1,0.1-0.2,0.1c1.2,1.7,2.4,3.4,3.6,5.1l8,11.8L120.9,126.1z"/>
<path class="st21" d="M113.6,86.9c4.4,0.1,8.8-0.5,13.1-1.6c1.3,3.5-0.5,7.1-1.6,10.5c-0.9,3.1-1.6,6.3-1.9,9.6
	c-1.1,8.3-2.1,17.3,1.7,25l-10.5,5.9"/>
<linearGradient id="SVGID_12_" gradientUnits="userSpaceOnUse" x1="118.1229" y1="243.2898" x2="130.9748" y2="243.2898" gradientTransform="matrix(0.9987 5.163877e-02 5.163877e-02 -0.9987 -17.8503 342.1308)">
	<stop  offset="0" style="stop-color:#529B40"/>
	<stop  offset="1" style="stop-color:#76BA44"/>
</linearGradient>
<path class="st23" d="M124.2,90.8c-0.8-0.4-1.7-0.4-2.4,0.1c-0.2,0.2-0.5,0.3-0.7,0.3c-0.3-0.1-0.5-0.4-0.5-0.8
	c-0.2-1.3-0.2-2.6,0-3.9c-2.3,0.3-4.6,0.4-6.9,0.4l0.6,37.7c1.7,0,3.4-0.3,5-0.8c1.1-0.3,2.2-0.7,3.3-1.3
	c-0.8-5.6-0.1-11.6,0.7-17.2c0.3-3.2,1-6.4,1.9-9.6c0.4-1.1,0.8-2.2,1.2-3.3v-0.1C125.7,91.7,125,91.1,124.2,90.8z"/>
<path class="st24" d="M113.5,131.8c3.8,0,7.7-0.8,11.2-2.2c-5-7.7-5.5-17.4-5.8-26.5l-0.4-11.3c-0.1-1.8-0.2-3.6-0.2-5.3
	c0-0.9,0.4-2.4-0.7-2.9c-0.4-0.1-0.8-0.1-1.2,0c-2.6,0.5-5.1,1.3-7.5,2.3l-16,5.9c-0.6,0.1-1.1,0.5-1.2,1c0,0.8,0.6,0.5,1,0.9
	c1,0.9,2,2,2.9,3.1c11.9,13.8,13.6,34.9,13.6,34.9"/>
<linearGradient id="SVGID_13_" gradientUnits="userSpaceOnUse" x1="104.9208" y1="273.2359" x2="119.1808" y2="241.0359" gradientTransform="matrix(0.9987 5.163877e-02 5.163877e-02 -0.9987 -17.8503 342.1308)">
	<stop  offset="0" style="stop-color:#89C444"/>
	<stop  offset="1" style="stop-color:#76BA44"/>
</linearGradient>
<path class="st25" d="M119,103.1l-0.4-11.3c-0.1-1.8-0.2-3.6-0.2-5.3c0-0.5,0.1-1.1,0.1-1.7c-0.5,0.4-1,0.9-1.4,1.4
	c-2.1,2.3-3.8,4.8-5.3,7.4c-0.8,1.3-1.4,2.6-1.9,4.1c-0.1,0.6-0.4,1.1-0.7,1.7c-0.3,0.5-0.9,0.9-1.5,0.9c-0.4-0.1-0.8-0.3-1.2-0.6
	c-1.7-1.3-2.8-3.1-4.8-4c-0.4-0.2-0.9-0.3-1.3-0.1c-0.8,0.4-0.6,1.5-0.3,2.3c1.6,4.2,3.6,8.3,6.1,12.1c1.5,2.3,3.2,4.7,3.4,7.5
	c0.1,0.3,0,0.5-0.2,0.7c-0.2,0.1-0.4,0.2-0.6,0.2c-0.8,0-1.5-0.1-2.2-0.4c1.3,4.5,2.3,9.1,2.8,13.7l4.2,0.2c3.8,0,7.7-0.8,11.2-2.2
	C119.7,121.9,119.3,112.2,119,103.1z"/>
<path class="st26" d="M112.3,113.7c-0.9,0.4-1.5,1.2-1.8,2.2c-0.9,2.9-0.5,6,1.1,8.5c0.6,0.9,1.3,1.7,2.3,2.3c1,0.6,2.2,0.7,3.3,0.3
	c1-0.4,1.8-1.3,2.1-2.4c0.8-2.2,0.2-4.5-0.3-6.7S115.4,112.6,112.3,113.7z"/>
<path class="st19" d="M138.1,141.4c1.7,1.5,3.2,3.3,4.4,5.2l4.2,6.1c-1.4,1.7-3.3,2.6-5,3.9c-1.4,1-2.6,2.3-4,3.3
	c-0.9,0.6-1.7,1.1-2.6,1.6l-3.1,1.8c-2.5,1.5-5.2,2.9-7.9,4.1c-0.1-0.8,0-1.6,0.3-2.3c0.4-1.6,0.5-3.3,0.3-5"/>
<path class="st16" d="M120.1,155.8c0.4,2.4,0.8,4.8,1.1,7.3c2.3-0.1,4.7,0.5,6.9-0.1c1.2-0.4,2.4-1,3.4-1.7l6.8-4.3
	c0.8-0.5,1.5-1,2.2-1.5c0.6-0.5,1.2-1,1.9-1.4c0.2-0.1,0.4-0.2,0.5-0.4c0.1-0.2,0.1-0.4,0.1-0.6c-0.1-0.9-0.3-1.8-0.6-2.7
	c-0.8-2.3-1.7-4.6-2.7-6.9c-0.3-0.8-0.8-1.5-1.5-2"/>
<linearGradient id="SVGID_14_" gradientUnits="userSpaceOnUse" x1="128.1629" y1="196.766" x2="148.1901" y2="196.766" gradientTransform="matrix(0.9987 5.163877e-02 5.163877e-02 -0.9987 -17.8503 342.1308)">
	<stop  offset="0" style="stop-color:#529B40"/>
	<stop  offset="1" style="stop-color:#3E8033"/>
</linearGradient>
<path class="st27" d="M138.5,149.2c-0.8-0.9-1.7-1.8-2.7-2.6c-0.8-0.6-1.8-1-2.7-1.2l-13,10.4c0.2,1.1,0.4,2.3,0.6,3.4
	c0.7-0.7,1.6-1.2,2.6-1.5c1.2-0.4,2.6-0.1,3.5,0.9c0.2,0.3,0.4,0.6,0.6,0.9c0.2,0.3,0.5,0.5,0.9,0.5c0.3,0,0.6-0.2,0.9-0.4l1.4-1.2
	c0.3-0.3,0.7-0.6,1.1-0.8c0.5-0.2,0.9-0.5,1.4-0.6c1.2-0.5,2.4-1,3.6-1.5c0.6-0.3,1.2-0.6,1.8-0.9c0.5-0.1,1-0.4,1.4-0.8
	c0.4-0.7,0.6-1.5,0.6-2.3C140.2,150.5,139.2,149.8,138.5,149.2z"/>
<path class="st28" d="M112.2,133.6c1,1.6,1.7,3.4,2,5.2c0.2,0.8,0.2,1.6,0.3,2.5c0.5,4.9,1,9.8,1.4,14.8c0.1,1.2,0.2,2.4,0.4,3.6
	c0,0.2,0.1,0.3,0.2,0.4c0.1,0,0.2,0,0.3,0c1-0.3,2-0.9,2.7-1.7c1.1-0.8,2.3-1.6,3.6-2.2c0.7-0.4,1.4-0.6,2.2-0.6
	c1.6,0.2,3,2.2,4.6,1.8c0.6-0.2,1.1-0.5,1.6-0.9c1.1-0.7,2.4-0.7,3.6-1.1c1.8-0.8,3.3-1.9,4.5-3.4c0.5-0.4,0.8-1,0.9-1.6
	c0-0.5-0.1-1-0.3-1.4l-3.4-8.4c-0.1-0.4-0.5-0.9-0.8-0.7"/>
<linearGradient id="SVGID_15_" gradientUnits="userSpaceOnUse" x1="143.0282" y1="190.4233" x2="138.6582" y2="195.4233" gradientTransform="matrix(0.9987 5.163877e-02 5.163877e-02 -0.9987 -17.8503 342.1308)">
	<stop  offset="0" style="stop-color:#89C444"/>
	<stop  offset="1" style="stop-color:#76BA44"/>
</linearGradient>
<path class="st29" d="M134.9,149l4.4-2.5l-2-5.1c-7.7,1.4-15.1,4.3-21.8,8.6c0.2,2,0.4,4.1,0.5,6.1c0,0.2,0,0.5,0.1,0.7l0,0l7.6-2.9
	c0.3-0.2,0.7-0.2,1-0.1c0.5,0.2,0.5,1,0.7,1.5c0.1,0.2,0.1,0.3,0.2,0.4c1.6,0.3,2.9,2.2,4.4,1.8c0.6-0.2,1.1-0.5,1.6-0.9
	c1.1-0.7,2.4-0.7,3.6-1.1c1-0.4,1.9-0.9,2.7-1.6c0,0,0,0,0-0.1c-0.1-0.2-0.2-0.4-0.4-0.5l-3.1-1.6c-0.4-0.1-0.7-0.4-0.9-0.7
	c-0.2-0.4-0.1-0.9,0.2-1.3C134.1,149.4,134.5,149.2,134.9,149z"/>
<path class="st30" d="M7.7,159.8c0,0,28.8,8.3,67.6,5.1c10.3-0.7,20.5-2.6,30.5-5.5c10.1-3.1,16.7-4.9,25.6-10.4
	c3.9-2.4,12.9-6.2,10.2-12.2c-1.3-2.8,0.1-3.8,0.6-6.7c0.3-1.2,0-2.4-0.7-3.4c-2.5-3.1-0.5-3.2,0.1-6.3c0.4-2.5-3.2-3.6-2.8-5.9
	c0.1-0.4,0.3-0.8,0.6-1.2c0.4-0.9,0.2-2-0.5-2.8c-0.7-0.7-1.5-1.4-2.4-1.8c-0.6-0.4-1.2-0.6-1.9-0.8c-0.6,0-1.1,0.1-1.7,0.3
	c-5.3,2.4-8.2,3.4-13.9,9.1c-6.3,6.5-13.6,15-20.3,21.2c-10.3,9.5-12.8,5.8-21.4,2.1c-25-10.8-38.3-26-61.6-22.2"/>
<linearGradient id="SVGID_16_" gradientUnits="userSpaceOnUse" x1="157.3992" y1="199.0095" x2="81.0592" y2="212.1695" gradientTransform="matrix(0.9987 5.163877e-02 5.163877e-02 -0.9987 -17.8503 342.1308)">
	<stop  offset="0" style="stop-color:#FFBD9F"/>
	<stop  offset="1" style="stop-color:#FFA57C"/>
</linearGradient>
<path class="st31" d="M75.3,164.9c10.3-0.7,20.5-2.6,30.5-5.5c10.1-3.1,16.7-4.9,25.6-10.4c3.9-2.4,12.9-6.2,10.2-12.2
	c-1.3-2.8,0.1-3.8,0.6-6.7c0.3-1.2,0-2.4-0.7-3.4c-2.5-3.1-0.5-3.2,0.1-6.3c0.4-2.5-3.2-3.6-2.8-5.9c0.1-0.4,0.3-0.8,0.6-1.2
	c0.4-0.9,0.2-2-0.5-2.8c-0.4-0.5-0.9-0.9-1.4-1.2h-0.1c-1.5,0.6-2.9,1.6-4,2.8c-9.6,8.8-18.2,18.7-25.5,29.5
	c-1.1,1.7-2.9,2.6-4.4,3.8c-1.9,1.6-3.8,3.3-5.5,5.2c-2.3,2.4-4.8,5-8.1,5.2c-1.2,0-2.3-0.2-3.5-0.6c-2.9-0.9-5.8-2-8.5-3.2
	c-6.5-2.9-13-6-19.3-9.3c-7.4-3.9-14.6-8.1-22.5-10.9l-7.7,2.2c0.4,5.4-0.6,10.9-0.7,16.4c-0.1,4.8,0.6,9.8,3.1,13.8
	C45.5,165.8,60.4,166.1,75.3,164.9z"/>
<path class="st32" d="M229.2,103c0.3,0,0.5,0.1,0.8,0.2c0.5,0.2,0.8,0.6,0.8,1.1c0,0.2,0.1,0.4,0.2,0.6c0.4,0.4,0.6,1,0.3,1.5
	c-0.1,0.3-0.3,0.5-0.5,0.7c-0.3,0.3-0.6,0.6-1,0.9c-2.2,1.6-4.7,2.7-7.4,3.1c-0.6,0.1-1.3,0.1-1.9-0.1c-0.6-0.1-0.9-0.7-0.9-1.2
	c0-0.2-0.1-0.4-0.2-0.5c-0.4-0.4-0.5-1-0.2-1.4c0.1-0.3,0.3-0.6,0.6-0.8c0.3-0.3,0.6-0.7,1-0.9c2.1-1.6,4.6-2.6,7.2-3
	C228.2,103,228.7,103,229.2,103z"/>
<path class="st33" d="M229.1,104.1c-0.6,0-1.2,0-1.8,0.2c-2.1,0.4-4.1,1.3-5.9,2.5c-0.5,0.3-1,0.8-1.4,1.3c-0.2,0.4-0.2,0.5,0.2,0.6
	c0.4,0.1,0.8,0.1,1.2,0c2.7-0.4,5.2-1.5,7.3-3.1c0.3-0.2,0.5-0.5,0.7-0.8c0.3-0.4,0.2-0.6-0.3-0.7L229.1,104.1z"/>
<path class="st34" d="M221.2,110.2c0.3,0,0.6,0,0.9,0c2.4-0.4,4.7-1.3,6.7-2.7c0.3-0.2,0.6-0.5,0.9-0.8c0.2-0.2,0.3-0.4,0.5-0.6
	c0.1-0.1,0.1-0.2,0-0.3c-0.1-0.1-0.2,0-0.3,0.1c-0.3,0.4-0.7,0.7-1.1,1c-2.3,1.7-5.1,2.7-7.9,3c-0.1,0-0.4-0.1-0.4,0.1
	s0.2,0.2,0.4,0.2C221.1,110.2,221.2,110.2,221.2,110.2z"/>
<path class="st32" d="M197.5,114.4c0.2,0.1,0.5,0.2,0.7,0.4c0.4,0.3,0.6,0.8,0.4,1.2c-0.1,0.2-0.1,0.4,0.1,0.6
	c0.3,0.4,0.2,1.1-0.1,1.4c-0.2,0.2-0.4,0.4-0.6,0.6c-0.3,0.2-0.7,0.4-1.1,0.6c-2.4,0.9-5,1.2-7.5,0.9c-0.6,0-1.2-0.2-1.7-0.6
	c-0.5-0.3-0.7-0.8-0.5-1.3c0.1-0.2,0-0.4-0.1-0.6c-0.3-0.4-0.2-1,0.1-1.4c0.2-0.2,0.4-0.5,0.7-0.6c0.4-0.2,0.8-0.4,1.2-0.6
	c2.3-0.9,4.8-1.2,7.3-0.9C196.7,114.2,197.1,114.3,197.5,114.4z"/>
<path class="st33" d="M197.2,115.3c-0.5-0.2-1.1-0.3-1.7-0.3c-2-0.1-4,0.2-5.9,0.8c-0.6,0.2-1.1,0.5-1.6,0.8
	c-0.3,0.3-0.3,0.4,0.1,0.6c0.3,0.2,0.7,0.3,1.1,0.3c2.5,0.3,5,0,7.3-1c0.3-0.1,0.6-0.3,0.9-0.5c0.4-0.3,0.4-0.5-0.1-0.7L197.2,115.3
	z"/>
<path class="st34" d="M188.6,118.9c0.2,0.1,0.6,0.2,0.9,0.2c2.3,0.3,4.6,0,6.7-0.8c0.3-0.1,0.7-0.3,1-0.5c0.2-0.1,0.4-0.2,0.6-0.4
	c0.1-0.1,0.1-0.2,0.1-0.3c-0.1-0.1-0.2,0-0.3,0c-0.4,0.2-0.8,0.4-1.2,0.6c-2.5,0.9-5.3,1.2-7.9,0.7c-0.1,0-0.3-0.2-0.4,0
	s0.2,0.2,0.3,0.3C188.4,118.8,188.5,118.8,188.6,118.9z"/>
<path class="st32" d="M207.1,106.2c-0.4-0.1-0.8-0.2-1.2-0.4c-0.5-0.2-1-0.5-1.5-0.9c-2.2-1.6-4.1-3.6-5.5-6c-0.5-0.8-0.9-1.7-1-2.7
	c-0.2-0.8,0.3-1.5,1-1.7c0.2-0.1,0.3-0.2,0.4-0.4c0.3-0.8,1.1-1.1,1.9-0.9c0.6,0.1,1.2,0.4,1.7,0.7c2.9,1.8,5.2,4.4,6.8,7.4
	c0.3,0.6,0.5,1.3,0.6,2c0.1,0.7-0.3,1.4-1,1.6c-0.2,0.1-0.3,0.2-0.4,0.4C208.7,106,207.9,106.4,207.1,106.2z"/>
<path class="st33" d="M201,94.4c-0.4-0.1-0.5,0.1-0.4,0.6c0.1,0.6,0.3,1.1,0.6,1.6c0.7,1.3,1.6,2.5,2.6,3.6c1.1,1.2,2.3,2.3,3.8,3.1
	c0.3,0.2,0.7,0.4,1.1,0.4c0.4,0.1,0.5,0,0.5-0.4c0-0.4-0.2-0.8-0.4-1.2c-0.5-1-1-1.9-1.7-2.8c-1.3-1.7-2.9-3.2-4.6-4.3
	C202,94.7,201.5,94.5,201,94.4z"/>
<path class="st34" d="M207.2,104.9c0.1,0,0.4,0.1,0.4-0.1s-0.2-0.2-0.3-0.3c-2-1.1-3.8-2.5-5.2-4.3c-1.1-1.2-2-2.7-2.6-4.2
	c-0.1-0.1-0.1-0.3-0.3-0.3s-0.1,0.2-0.1,0.4c0,0.4,0.1,0.7,0.3,1.1c0.5,1,1,2,1.8,2.9c1.3,1.7,2.8,3.1,4.6,4.3
	C206.2,104.6,206.7,104.8,207.2,104.9z"/>
<path class="st32" d="M209.6,127.4c-0.8-0.1-1.6-0.3-2.4-0.7c-0.3-0.2-0.7-0.4-0.9-0.7c-0.4-0.4-0.5-0.9-0.3-1.4
	c0.1-0.2,0.1-0.5,0-0.7c-0.3-0.6-0.1-1.3,0.4-1.7c0.5-0.4,1-0.7,1.6-0.9c1.6-0.6,3.4-0.9,5.1-0.9c1.6-0.1,3.2,0.1,4.7,0.5
	c0.6,0.1,1.1,0.4,1.6,0.7c0.6,0.4,0.9,1.1,0.6,1.8c-0.1,0.2-0.1,0.4,0.1,0.6c0.3,0.6,0.2,1.3-0.4,1.7c-0.5,0.5-1,0.8-1.7,1
	c-1.4,0.5-3,0.8-4.5,0.8C212.3,127.7,210.9,127.6,209.6,127.4z"/>
<path class="st33" d="M209.9,124.4c1,0.1,2.1,0.2,3.1,0.1c1.5,0,3.1-0.3,4.6-0.8c0.4-0.1,0.8-0.3,1.2-0.6c0.3-0.2,0.3-0.4,0-0.6
	c-0.4-0.3-0.9-0.5-1.4-0.6c-1.3-0.3-2.6-0.4-3.9-0.4c-1.5,0-3.1,0.2-4.6,0.7c-0.6,0.1-1.1,0.4-1.5,0.7c-0.3,0.2-0.3,0.4,0,0.6
	c0.3,0.2,0.6,0.3,0.9,0.4C208.8,124.2,209.3,124.3,209.9,124.4z"/>
<path class="st34" d="M210.3,126.3c0.7,0.1,1.3,0.1,2,0.1c1.8,0,3.5-0.2,5.2-0.7c0.5-0.1,0.9-0.4,1.3-0.7c0.1-0.1,0.3-0.2,0.1-0.4
	s-0.2,0-0.3,0c-1,0.5-2.2,0.8-3.3,0.9c-2.5,0.4-5.1,0.3-7.6-0.4c-0.2-0.1-0.5-0.4-0.6-0.1s0.2,0.4,0.4,0.5c0.2,0.1,0.3,0.2,0.5,0.2
	C208.9,126,209.6,126.2,210.3,126.3z"/>
<path class="st32" d="M184.9,136.7c0.4-1,0.9-1.9,1.5-2.7c0.3-0.4,0.7-0.7,1.1-0.9c0.6-0.3,1.3-0.3,1.8,0.1c0.2,0.2,0.6,0.3,0.9,0.2
	c0.8-0.2,1.6,0.2,1.9,1c0.4,0.7,0.6,1.4,0.6,2.2c0.2,2.2,0,4.3-0.5,6.4c-0.4,2-1,3.8-2,5.6c-0.4,0.7-0.8,1.2-1.4,1.7
	c-0.6,0.7-1.7,0.7-2.4,0.1c-0.2-0.2-0.5-0.2-0.7-0.1c-0.8,0.2-1.6-0.2-1.9-0.9c-0.4-0.7-0.6-1.5-0.6-2.3c-0.2-1.9,0-3.8,0.4-5.7
	C183.7,139.8,184.2,138.2,184.9,136.7z"/>
<path class="st33" d="M188.3,137.9c-0.5,1.2-0.9,2.4-1.1,3.7c-0.4,1.9-0.6,3.8-0.5,5.7c0,0.6,0.2,1.1,0.4,1.6
	c0.2,0.4,0.4,0.5,0.8,0.1c0.5-0.4,0.9-1,1.2-1.6c0.7-1.5,1.3-3,1.7-4.6c0.5-1.9,0.7-3.8,0.6-5.7c0-0.7-0.1-1.4-0.4-2.1
	c-0.2-0.4-0.4-0.5-0.8-0.2c-0.3,0.3-0.6,0.6-0.8,1C188.9,136.6,188.5,137.3,188.3,137.9z"/>
<path class="st34" d="M185.9,137.9c-0.3,0.8-0.6,1.6-0.8,2.4c-0.6,2.1-0.8,4.3-0.7,6.5c0,0.6,0.2,1.2,0.4,1.8
	c0.1,0.1,0.1,0.4,0.4,0.3s0.1-0.3,0.1-0.4c-0.2-1.4-0.3-2.8-0.1-4.3c0.3-3.2,1.2-6.2,2.8-9c0.1-0.2,0.6-0.4,0.2-0.7
	s-0.5,0.2-0.7,0.4c-0.2,0.2-0.3,0.4-0.4,0.6C186.7,136.2,186.3,137,185.9,137.9z"/>
<path class="st32" d="M232.9,135.3c-1.1-0.4-2.2-1-3.1-1.7c-0.4-0.3-0.7-0.6-0.9-1c-0.4-0.6-0.4-1.4,0.1-1.9
	c0.2-0.2,0.3-0.5,0.2-0.8c-0.2-0.8,0.2-1.6,0.9-1.9c0.7-0.4,1.4-0.6,2.2-0.6c1.7-0.2,3.5-0.1,5.2,0.2c2.4,0.4,4.8,1.1,6.9,2.3
	c0.6,0.3,1.2,0.7,1.6,1.2c0.7,0.6,0.8,1.7,0.2,2.5c-0.1,0.2-0.2,0.4-0.1,0.7c0.2,0.8-0.2,1.7-1,2.1c-0.7,0.4-1.5,0.6-2.3,0.6
	c-2.3,0.2-4.6-0.1-6.9-0.7C234.9,135.9,233.9,135.6,232.9,135.3z"/>
<path class="st33" d="M241.7,130.2c-2.3-0.9-4.7-1.4-7.1-1.5c-0.9-0.1-1.8,0-2.8,0.1c-0.3,0.1-0.7,0.2-1,0.3
	c-0.2,0.1-0.3,0.3-0.2,0.4c0,0.1,0,0.1,0.1,0.1c0.2,0.2,0.4,0.4,0.6,0.6c0.7,0.5,1.4,0.9,2.2,1.2c2.6,1.1,5.3,1.6,8.1,1.7
	c0.8,0,1.5,0,2.3-0.2c0.5-0.1,1.1-0.1,1.2-0.6s-0.5-0.8-0.8-1C243.5,131,242.6,130.5,241.7,130.2z"/>
<path class="st34" d="M233.3,133.8c2.5,1,5.2,1.5,7.9,1.6c0.8,0,1.6,0,2.4-0.2c0.4-0.1,0.7-0.2,1-0.4c0.1-0.1,0.2-0.1,0.1-0.3
	c0-0.1-0.1-0.1-0.2-0.1l-0.4,0.1c-4.5,0.5-9.1-0.4-13.1-2.7c-0.2-0.1-0.4-0.6-0.7-0.3s0.2,0.5,0.4,0.7c0.2,0.2,0.4,0.3,0.6,0.5
	C231.9,133.2,232.6,133.6,233.3,133.8z"/>
<g id="Octicons">
	<g id="thumbsup">
		<path id="Shape" class="st35" d="M183,104.7c-0.5,0.5-1.6-0.1-2.1-0.6l-4.6-4.2l-0.6-1.8l4-4.4c1,0.9,2,0.8,3.5,0.7
			c1.8-0.2,2.5-1.1,3.4-2.4c0.4-0.4,1-0.4,1.4-0.1c0.6,0.6-0.3,3.3-1.2,4.3l-0.7,0.7c-0.4,0.3-0.4,0.8-0.1,1.2
			c0.1,0.1,0.1,0.1,0.2,0.2l1.5,1.3c0.4,0.3,0.5,0.9,0.2,1.3c0,0-0.1,0.1-0.1,0.1L183,104.7L183,104.7L183,104.7z M188.2,98.8
			l-1.5-1.4l0,0l0.7-0.7c0.9-1,2.5-4.5,1.1-5.7c-0.5-0.4-1.1-0.6-1.7-0.5c-0.5,0.1-1,0.3-1.2,0.8c-0.8,1.2-1.3,1.9-2.6,2
			s-2.1,0.2-2.8-0.4l-1.5-1.3c-0.8-0.7-2.1-0.7-2.8,0.1l-2.6,2.9c-0.7,0.8-0.6,2.1,0.1,2.8l1.3,1.1l0.5,1.6c0.1,0.2,0.2,0.3,0.3,0.4
			l4.6,4.2c0.8,0.8,2.4,1.5,3.4,0.6l4.6-3.7c0.1,0,0.1-0.1,0.1-0.1c0.7-0.8,0.7-2-0.1-2.7C188.3,98.8,188.3,98.8,188.2,98.8
			L188.2,98.8L188.2,98.8z"/>
	</g>
</g>
<g id="Octicons-2">
	<g id="heart">
		<path id="Shape-2" class="st36" d="M223,135.8c-1.4-0.3-2.9-0.1-4.1,0.8c-1.2,0.8-2,2.1-2.1,3.6c-0.1,0.7-0.2,1.5-0.1,2.2
			c-0.7-0.3-1.4-0.5-2.1-0.6c-1.4-0.4-2.9-0.1-4.1,0.8c-1.2,0.8-1.9,2.1-2.1,3.6c-0.1,1.3,0.2,2.5,0.9,3.6c0.9,1.3,2.2,2.3,3.6,3.1
			c2,1,6.2,1.8,12.8,2.2c1.8-6.3,2.5-10.6,2.2-12.8c-0.2-1.6-0.8-3.1-1.7-4.4C225.3,136.8,224.2,136.1,223,135.8L223,135.8z"/>
	</g>
</g>
<g id="Octicons-3">
	<g id="star">
		<polygon id="Shape-3" class="st32" points="178.6,123.6 176.4,120.5 177.8,117 174.2,118.1 171.2,115.7 171.3,119.4 168.1,121.4 
			171.7,122.6 172.7,126.3 174.9,123.3 		"/>
	</g>
</g>
<g id="Octicons-4">
	<g id="star-2">
		<polygon id="Shape-4" class="st32" points="222.6,94.7 223.8,89 229.1,86.9 224.2,84.1 223.8,78.2 219.7,82.2 214.2,80.7 
			216.6,86 213.4,90.9 219.1,90.2 		"/>
	</g>
</g>
<path class="st37" d="M210.4,58.8c-0.9-1.5-13-14.2-16.2-17.6c-3.2-3.4-4.8-3.6-8-3c-3.2,0.6-11.4,1.6-12.9,0.9s2.2-4.5,5.7-6
	c3.5-1.5,6.6-2.3,6.3-4.5s-1.5-2.6-4.9-1.4c-3.4,1.3-8.8,2.9-14.8,6.3s-16.2,6.9-24.8,4.7c-4.5-1.2-14-6.5-23.9-13.3
	c-0.9,1.1-1.9,2.2-2.8,3.3c-4.4,5.1-9.3,10.4-12.5,16.5c3,1.2,6,2.4,8.8,3.5c15.1,5.5,23.6,7.2,33,12.6s9.8,6,16.2,4.4
	s9.9-1.5,8.5,1.5s-3.8,5.6-2.9,7.1s1.9,2.4,4.3,0.7s5.4-5.2,6.5-8.4s-0.5-5.8,0.9-5.7s3.6,0.4,4.8,2.3s4.8,7.8,2.7,13.9
	s1.9,5.9,5.1,4.9s3.3-0.7,4.9-6s0.7-15.8-0.6-18.6c-1.3-2.8-0.2-4.9,2.1-2.4c2.3,2.5,11.5,8.9,12.9,8.5S211.2,60.2,210.4,58.8z"/>
<linearGradient id="SVGID_17_" gradientUnits="userSpaceOnUse" x1="65.2803" y1="109.4392" x2="113.3003" y2="73.1092" gradientTransform="matrix(0.9891 -0.1469 -0.1469 -0.9891 63.606 154.2798)">
	<stop  offset="0" style="stop-color:#CC6952"/>
	<stop  offset="1" style="stop-color:#C45237"/>
</linearGradient>
<path class="st38" d="M171.7,58.3c-2.5-1.5-5.6,0.1-8.5,0.5c-4.1,0.6-8.1-1.3-11.6-3.3c-9.9-5.6-18.1-13.7-23.8-23.5
	c-3.4-2-7.1-4.4-10.8-7c-0.9,1.1-1.9,2.2-2.8,3.3c-4.4,5.1-9.3,10.4-12.5,16.5c3,1.2,6,2.4,8.8,3.5c15.1,5.5,23.6,7.2,33,12.6
	s9.8,6,16.2,4.4s9.9-1.5,8.5,1.5s-3.8,5.6-2.9,7.1s1.9,2.4,4.3,0.7c0.5-0.4,1-0.8,1.4-1.2c1.9-2.5,3.1-5.6,3.3-8.8
	C174.3,62.2,173.7,59.4,171.7,58.3z"/>
<linearGradient id="SVGID_18_" gradientUnits="userSpaceOnUse" x1="135.2271" y1="87.3631" x2="151.2971" y2="72.9631" gradientTransform="matrix(0.9891 -0.1469 -0.1469 -0.9891 63.606 154.2798)">
	<stop  offset="0" style="stop-color:#CC6952"/>
	<stop  offset="1" style="stop-color:#C45237"/>
</linearGradient>
<path class="st39" d="M193.1,54.8l-1.1-3.1C192.3,52.8,192.6,53.8,193.1,54.8z"/>
<linearGradient id="SVGID_19_" gradientUnits="userSpaceOnUse" x1="137.5025" y1="89.9068" x2="153.5725" y2="75.4968" gradientTransform="matrix(0.9891 -0.1469 -0.1469 -0.9891 63.606 154.2798)">
	<stop  offset="0" style="stop-color:#CC6952"/>
	<stop  offset="1" style="stop-color:#C45237"/>
</linearGradient>
<path class="st40" d="M208.7,63c0.8-0.3,1.4-1,1.7-1.8c-0.1-0.3-0.3-0.6-0.4-0.9c-1.6-2.5-3.6-4.7-5.9-6.6l-4.4-3.9
	c-1.2-1.2-2.6-2.2-4.1-3.1c-1.5-0.8-3.3-1.1-5-0.6c-0.2,0-0.3,0.1-0.5,0.3c-0.1,0.2-0.1,0.5,0,0.7c0.6,2.5,2.2,4.7,3.2,7
	c0.3-0.9,1.2-1.1,2.6,0.4C198.1,57,207.3,63.4,208.7,63z"/>
<linearGradient id="SVGID_20_" gradientUnits="userSpaceOnUse" x1="134.5121" y1="86.5763" x2="150.5921" y2="72.1663" gradientTransform="matrix(0.9891 -0.1469 -0.1469 -0.9891 63.606 154.2798)">
	<stop  offset="0" style="stop-color:#CC6952"/>
	<stop  offset="1" style="stop-color:#C45237"/>
</linearGradient>
<path class="st41" d="M193.1,55L193.1,55l-0.1-0.1L193.1,55z"/>
<linearGradient id="SVGID_21_" gradientUnits="userSpaceOnUse" x1="112.8022" y1="102.8632" x2="138.6868" y2="102.8632" gradientTransform="matrix(0.9891 -0.1469 -0.1469 -0.9891 63.606 154.2798)">
	<stop  offset="0" style="stop-color:#CC6952"/>
	<stop  offset="1" style="stop-color:#C45237"/>
</linearGradient>
<path class="st42" d="M178.9,33.1c3.5-1.5,6.6-2.3,6.3-4.5c0-0.4-0.2-0.8-0.3-1.1c-5.5,1.5-10.5,4.6-15.8,6.5
	c-3.2,1.2-6.9,2.2-8.4,5.2l12.4-0.3C172.3,37.8,175.7,34.5,178.9,33.1z"/>
<path class="st9" d="M94.3,0c4.2,3.2,8.7,6.5,14,7.4c1.4,0.2,2.9,0.3,4,1.3c0.5,0.5,1,1.2,1.2,1.9c1.8,3.9,2.4,8.3,1.8,12.6
	c-0.7,5.3-4.1,9.7-7.8,13.5c-1.9,1.9-3.9,3.7-5.9,5.5c-2.3,2-4.3,2.7-7.4,2.1c-3.6-0.6-7.1-1.6-10.4-3c-2.1-1-4.1-2.1-6-3.3
	l-10.4-6.3c-0.7-2.3-0.4-4.8,0.7-6.9c3.8-7,8.6-13.4,14.2-19C85.5,2.4,90,1.6,94.3,0z"/>
<linearGradient id="SVGID_22_" gradientUnits="userSpaceOnUse" x1="113.7645" y1="310.7334" x2="97.6445" y2="322.5434" gradientTransform="matrix(0.9987 5.163877e-02 5.163877e-02 -0.9987 -17.8503 342.1308)">
	<stop  offset="0" style="stop-color:#E1E1E1"/>
	<stop  offset="1" style="stop-color:#D0D0D0"/>
</linearGradient>
<path class="st43" d="M107.5,36.6c3.7-3.7,7-8.2,7.8-13.5c0.6-4.3,0-8.6-1.8-12.6c-0.2-0.4-0.4-0.8-0.6-1.2c0,0.2-0.1,0.4-0.1,0.6
	c-2.4,1.6-5.8,0.5-8.1,2.1c-0.8,0.6-1.5,1.3-2,2.1c-0.6,0.8-1,1.8-1.2,2.9c0,0.8,0.1,1.5,0.3,2.2c0.7,3.3,0.6,7.3-2,9.5
	c-0.7,0.5-1.4,0.9-2.1,1.5c-1.3,1-2,2.5-3.2,3.6c-1.7,1.4-3.9,2.1-6.1,2c-2.2-0.1-4.4-0.5-6.5-1c-3.5-0.7-7.1-1.1-10.6-1.2l6.6,4.1
	c1.9,1.2,3.9,2.4,6,3.3c3.3,1.4,6.8,2.4,10.4,3c3.1,0.7,5.1,0,7.4-2.1C103.6,40.3,105.7,38.5,107.5,36.6z"/>
<path class="st9" d="M112.3,46.1c-0.7,1.1-1.6,2.4-2.9,2.4c-0.4,0-0.9-0.1-1.3-0.2l-7.8-2.4c-0.6-0.1-1.2-0.5-1.7-0.9
	c-1-1.2-0.2-3,0.6-4.2c4.1-6,8.4-11.7,13.1-17.2c0.5-0.7,1.1-1.2,1.9-1.5c0.9-0.1,1.7,0.1,2.4,0.6c2.6,1.4,5,3.2,7.2,5.3
	c1.6,1.6,0,2.6-1.1,4c-1.3,1.5-2.5,3.1-3.7,4.7C116.7,39.5,114.4,42.7,112.3,46.1z"/>
<path class="st44" d="M99.7,43.6c1.6,0.4,3.2,0.7,4.8,1.1c0.8,0.2,1.6,0.4,2.4,0.8c0.8,0.3,1.5,0.7,2.2,1.2
	c-0.7-0.3-1.5-0.6-2.3-0.8c-0.8-0.2-1.6-0.4-2.4-0.6C102.8,44.9,101.2,44.3,99.7,43.6z"/>
<path class="st44" d="M100.2,42c1.9,0.1,3.7,0.5,5.4,1.1c0.9,0.3,1.7,0.7,2.6,1.1c0.8,0.4,1.6,0.9,2.4,1.4c-0.9-0.3-1.7-0.7-2.6-1
	c-0.9-0.3-1.7-0.7-2.6-1C103.7,43,102,42.5,100.2,42z"/>
<path class="st44" d="M101.2,40.5c1.8,0,3.5,0.4,5.1,1.1c0.8,0.3,1.6,0.7,2.4,1.1c0.8,0.4,1.5,0.8,2.2,1.3c-0.8-0.3-1.6-0.6-2.4-1
	c-0.8-0.4-1.6-0.7-2.4-1C104.6,41.4,102.9,40.8,101.2,40.5z"/>
<path class="st44" d="M102.7,38c1.9,0.4,3.7,1.1,5.3,2c0.8,0.4,1.7,0.9,2.5,1.5c0.4,0.3,0.8,0.5,1.2,0.8l0.6,0.5
	c0.2,0.2,0.4,0.2,0.6,0.1c-0.2,0.1-0.5,0.1-0.7,0l-0.6-0.3l-1.2-0.7c-0.8-0.5-1.7-0.9-2.5-1.3C106.2,39.6,104.5,38.8,102.7,38z"/>
<path class="st44" d="M104.4,36.2c1.7,0.5,3.3,1.2,4.7,2.1l2.2,1.3c0.7,0.4,1.5,0.8,2.3,1.2c-0.8-0.2-1.7-0.5-2.4-0.8
	c-0.8-0.4-1.5-0.8-2.3-1.2C107.4,37.9,106,37,104.4,36.2z"/>
<path class="st44" d="M105.3,34.5c1.6,0.6,3.2,1.3,4.6,2.1c0.7,0.4,1.4,0.9,2.1,1.4c0.7,0.5,1.4,1,2,1.6c-0.8-0.4-1.5-0.8-2.2-1.2
	l-2.2-1.3C108.2,36.2,106.7,35.4,105.3,34.5z"/>
<path class="st44" d="M106.7,32.5c1.7,0.7,3.3,1.6,4.9,2.5c0.8,0.4,1.6,0.9,2.4,1.4c0.8,0.5,1.6,1,2.3,1.5c-0.8-0.3-1.7-0.8-2.5-1.2
	c-0.8-0.4-1.6-0.8-2.4-1.3C109.8,34.5,108.2,33.5,106.7,32.5z"/>
<path class="st44" d="M108.4,30.7c-0.1,0-0.1-0.1,0-0.2c0.1,0,0.1,0,0.2,0l0.3,0.2l0.6,0.3l1.1,0.7c0.8,0.4,1.5,0.9,2.2,1.4
	s1.5,1,2.2,1.5s1.4,1,2.1,1.6c-0.8-0.4-1.6-0.8-2.3-1.3s-1.5-0.9-2.2-1.4s-1.5-1-2.2-1.5l-1.1-0.8l-0.6-0.4l-0.3-0.2
	C108.4,30.6,108.4,30.6,108.4,30.7C108.3,30.7,108.3,30.7,108.4,30.7z"/>
<path class="st44" d="M109.7,28.3c1.6,0.9,3.1,1.8,4.5,2.9c0.7,0.5,1.4,1,2.2,1.6s1.4,1.1,2.1,1.7c-0.8-0.4-1.6-0.9-2.3-1.4
	s-1.5-1-2.2-1.5C112.5,30.6,111.1,29.5,109.7,28.3z"/>
<path class="st44" d="M111.1,26.2c1.5,0.7,3,1.6,4.3,2.6c0.7,0.5,1.3,1.1,1.9,1.7c0.6,0.6,1.2,1.2,1.7,1.9l-3.9-3.1L111.1,26.2z"/>
<path class="st44" d="M112.5,25.1c1.4,0.6,2.8,1.4,4,2.3c0.6,0.5,1.2,0.9,1.8,1.5c0.6,0.5,1.1,1.1,1.6,1.7c-0.6-0.4-1.2-0.9-1.8-1.4
	l-1.8-1.4C115,27,113.7,26.1,112.5,25.1z"/>
<path class="st44" d="M114.6,23.7c1.7,0.5,3.3,1.4,4.7,2.6l2,1.7c0.7,0.6,1.4,1.1,2.2,1.5c-0.9-0.2-1.7-0.6-2.4-1.1
	c-0.8-0.5-1.4-1.1-2.1-1.6s-1.4-1.1-2.1-1.6S115.4,24.2,114.6,23.7z"/>
<path class="st9" d="M42.7,167.2c0,0.5-0.1,0.9-0.3,1.3c-0.5,0.4-1.2,0.6-1.8,0.5l-23.9-1.2c-2.2,0-4.4-0.4-6.4-1.2
	c-4.1-2.1-5.3-7.3-6.1-11.8l-3.5-20.6c-0.9-4.9-1.5-10.6,1.8-14.3c2.4-2.6,6.1-3.4,9.6-3.8c0.7-0.1,1.3-0.7,1.3-1.4l0,0
	c0-0.8,0.7-1.4,1.5-1.4c6.2-0.2,12.1,1.8,17.8,4c6,2.3,6.5,3.5,7.6,10C42.7,140.3,43.4,153.8,42.7,167.2z"/>
<g id="Octicons-5">
	<g id="heart-2">
		<path id="Shape-5" class="st45" d="M267,90.5c-0.1-1.3-0.8-2.4-1.8-3.1c-1-0.7-2.3-1-3.6-0.7c-0.6,0.1-1.3,0.3-1.9,0.5
			c0-0.6,0-1.3-0.1-1.9c-0.1-1.3-0.8-2.4-1.9-3.1c-1-0.7-2.3-1-3.6-0.7c-1.1,0.3-2,0.9-2.7,1.8c-0.8,1.2-1.3,2.5-1.5,3.9
			c-0.3,1.9,0.3,5.6,1.9,11.2c5.7-0.4,9.5-1,11.2-1.9c1.2-0.7,2.3-1.6,3.1-2.7C266.8,92.7,267.1,91.6,267,90.5L267,90.5z"/>
	</g>
</g>
<linearGradient id="SVGID_23_" gradientUnits="userSpaceOnUse" x1="254.3323" y1="226.1167" x2="258.0723" y2="233.5166" gradientTransform="matrix(0.9987 5.163877e-02 5.163877e-02 -0.9987 -17.8503 342.1308)">
	<stop  offset="0" style="stop-color:#834E50"/>
	<stop  offset="1" style="stop-color:#77434F"/>
</linearGradient>
<path class="st46" d="M253.4,122.3c0.8-1.8,1.5-3.6,2.4-5.4c0.9-1.7,1.9-3.3,3.1-4.8c0.3-0.4,0.7-0.8,1.1-1.2c0.3-0.2,0.7-0.4,1-0.7
	c-0.4,0.3-1.5-0.2-1.8-0.4c-0.4-0.4-0.8-0.9-1-1.4c-0.3,1.7-0.9,3.4-1.8,4.9c-2.5,4.2-4.3,8.7-6.8,12.9c-0.2,0.4-0.5,0.7-0.8,1
	c-0.6,0.3-1.3,0.3-1.9,0.1c0.8,0.6,2,1.4,3.1,2.2c-0.1-0.2-0.2-0.3-0.2-0.5c0-0.2,0-0.5,0-0.7c0.2-0.8,0.7-1.5,1.4-2
	C252.1,125,252.9,123.7,253.4,122.3z"/>
<linearGradient id="SVGID_24_" gradientUnits="userSpaceOnUse" x1="20.149" y1="209.9564" x2="47.819" y2="187.7164" gradientTransform="matrix(0.9987 5.163877e-02 5.163877e-02 -0.9987 -17.8503 342.1308)">
	<stop  offset="0" style="stop-color:#E1E1E1"/>
	<stop  offset="1" style="stop-color:#D0D0D0"/>
</linearGradient>
<path class="st47" d="M40.4,127.1c-0.8-4.7-1.3-6.7-3.8-8.3c-0.3,5.9,1.9,13.7,1.6,17.3c0,0.8-0.2,1.6-0.7,2.2c-0.7,0.6-1.7,1-2.6,1
	l-14.2,1.8c-0.8,0.2-1.7,0.1-2.4-0.3c-1-0.7-1-2.2-0.8-3.5c-0.6,0.5-1.3,1-2,1.5c-3.8,2.6-8.6,3.4-13.2,4.3l2,11.5
	c0.8,4.5,2,9.7,6.1,11.8c2,0.9,4.2,1.3,6.4,1.3l23.8,1.2c0.6,0.1,1.3,0,1.8-0.5c0.3-0.4,0.4-0.8,0.3-1.3
	C43.4,153.8,42.6,140.4,40.4,127.1z"/>
</svg>
