<svg id="Layer_1" data-name="Layer 1" xmlns="http://www.w3.org/2000/svg" xmlns:xlink="http://www.w3.org/1999/xlink" viewBox="0 0 384.05 297.12"><defs><style>.cls-1{fill:#e6e6e6;}.cls-2{fill:#c3676e;}.cls-3{fill:#e16a72;}.cls-4{fill:url(#linear-gradient);}.cls-5{fill:url(#linear-gradient-2);}.cls-6{fill:url(#linear-gradient-3);}.cls-7{fill:url(#linear-gradient-4);}.cls-8{fill:url(#linear-gradient-5);}.cls-9{fill:#230033;}.cls-10{fill:#e8e8e8;}.cls-11{fill:url(#linear-gradient-6);}.cls-12{fill:#77434f;}.cls-13{fill:url(#linear-gradient-7);}.cls-14{fill:#834e50;}.cls-15{fill:url(#linear-gradient-8);}.cls-16{fill:#cc7f6e;}.cls-17{fill:#529b40;}.cls-18{fill:url(#linear-gradient-9);}.cls-19{fill:#3e8033;}.cls-20{fill:#367b2b;}.cls-21{fill:url(#linear-gradient-10);}.cls-22{fill:#76ba44;}.cls-23{fill:url(#linear-gradient-11);}.cls-24{fill:url(#linear-gradient-12);}.cls-25{fill:#89c444;}.cls-26{fill:url(#linear-gradient-13);}.cls-27{fill:#f3f3f3;}.cls-28{fill:url(#linear-gradient-14);}.cls-29{fill:#86c946;}.cls-30{fill:url(#linear-gradient-15);}.cls-31{fill:#ffbd9f;}.cls-32{fill:url(#linear-gradient-16);}.cls-33{fill:#fb0;}.cls-34{fill:#ffdb01;}.cls-35{fill:#ff9d00;}.cls-36{fill:#013759;}.cls-37{fill:#971a1a;}.cls-38{fill:#cf725c;}.cls-39{fill:url(#linear-gradient-17);}.cls-40{fill:url(#linear-gradient-18);}.cls-41{fill:url(#linear-gradient-19);}.cls-42{fill:url(#linear-gradient-20);}.cls-43{fill:url(#linear-gradient-21);}.cls-44{fill:url(#linear-gradient-22);}.cls-45{fill:#cdcdcd;}.cls-46{fill:#ad0e34;}.cls-47{fill:url(#linear-gradient-23);}.cls-48{fill:url(#linear-gradient-24);}</style><linearGradient id="linear-gradient" x1="211.7" y1="226.61" x2="253.77" y2="261.17" gradientUnits="userSpaceOnUse"><stop offset="0" stop-color="#df6a73"/><stop offset="1" stop-color="#b2656b"/></linearGradient><linearGradient id="linear-gradient-2" x1="126.4" y1="279.99" x2="159.77" y2="269.2" xlink:href="#linear-gradient"/><linearGradient id="linear-gradient-3" x1="104.02" y1="221.28" x2="159.31" y2="233.72" xlink:href="#linear-gradient"/><linearGradient id="linear-gradient-4" x1="197.76" y1="209.77" x2="197.43" y2="186.22" xlink:href="#linear-gradient"/><linearGradient id="linear-gradient-5" x1="133.24" y1="181.39" x2="156.14" y2="186.62" xlink:href="#linear-gradient"/><linearGradient id="linear-gradient-6" x1="308.68" y1="42.83" x2="381.32" y2="42.83" gradientTransform="translate(8.99 33.04) rotate(2.96)" gradientUnits="userSpaceOnUse"><stop offset="0" stop-color="#e1e1e1"/><stop offset="1" stop-color="#d0d0d0"/></linearGradient><linearGradient id="linear-gradient-7" x1="264.1" y1="51.81" x2="354.94" y2="51.81" gradientTransform="translate(8.99 33.04) rotate(2.96)" gradientUnits="userSpaceOnUse"><stop offset="0" stop-color="#703946"/><stop offset="1" stop-color="#64313e"/></linearGradient><linearGradient id="linear-gradient-8" x1="259.53" y1="68.21" x2="268.01" y2="54.95" gradientTransform="translate(8.99 33.04) rotate(2.96)" gradientUnits="userSpaceOnUse"><stop offset="0" stop-color="#834e50"/><stop offset="1" stop-color="#77434f"/></linearGradient><linearGradient id="linear-gradient-9" x1="88.84" y1="78.34" x2="107.74" y2="78.34" gradientTransform="translate(8.99 33.04) rotate(2.96)" gradientUnits="userSpaceOnUse"><stop offset="0" stop-color="#529b40"/><stop offset="1" stop-color="#3e8033"/></linearGradient><linearGradient id="linear-gradient-10" x1="115.14" y1="68.03" x2="125.75" y2="68.03" xlink:href="#linear-gradient-9"/><linearGradient id="linear-gradient-11" x1="103.75" y1="77.34" x2="95.83" y2="83.84" gradientTransform="translate(8.99 33.04) rotate(2.96)" gradientUnits="userSpaceOnUse"><stop offset="0" stop-color="#529b40"/><stop offset="1" stop-color="#76ba44"/></linearGradient><linearGradient id="linear-gradient-12" x1="110.72" y1="70.17" x2="123.57" y2="70.17" xlink:href="#linear-gradient-11"/><linearGradient id="linear-gradient-13" x1="97.53" y1="40.23" x2="111.79" y2="72.43" gradientTransform="translate(8.99 33.04) rotate(2.96)" gradientUnits="userSpaceOnUse"><stop offset="0" stop-color="#89c444"/><stop offset="1" stop-color="#76ba44"/></linearGradient><linearGradient id="linear-gradient-14" x1="120.76" y1="116.7" x2="140.8" y2="116.7" xlink:href="#linear-gradient-9"/><linearGradient id="linear-gradient-15" x1="135.6" y1="123.07" x2="131.23" y2="118.07" xlink:href="#linear-gradient-13"/><linearGradient id="linear-gradient-16" x1="150" y1="114.44" x2="73.66" y2="101.28" gradientTransform="translate(8.99 33.04) rotate(2.96)" gradientUnits="userSpaceOnUse"><stop offset="0" stop-color="#ffbd9f"/><stop offset="1" stop-color="#ffa57c"/></linearGradient><linearGradient id="linear-gradient-17" x1="90.1" y1="154.44" x2="138.12" y2="190.77" gradientTransform="translate(3.53 -99.49) rotate(-8.45)" gradientUnits="userSpaceOnUse"><stop offset="0" stop-color="#cc6952"/><stop offset="1" stop-color="#c45237"/></linearGradient><linearGradient id="linear-gradient-18" x1="160.05" y1="176.51" x2="176.12" y2="190.91" xlink:href="#linear-gradient-17"/><linearGradient id="linear-gradient-19" x1="162.34" y1="173.95" x2="178.41" y2="188.36" xlink:href="#linear-gradient-17"/><linearGradient id="linear-gradient-20" x1="159.35" y1="177.28" x2="175.43" y2="191.69" xlink:href="#linear-gradient-17"/><linearGradient id="linear-gradient-21" x1="137.64" y1="161.02" x2="163.51" y2="161.02" xlink:href="#linear-gradient-17"/><linearGradient id="linear-gradient-22" x1="106.36" y1="2.74" x2="90.24" y2="-9.07" xlink:href="#linear-gradient-6"/><linearGradient id="linear-gradient-23" x1="246.94" y1="87.36" x2="250.68" y2="79.96" xlink:href="#linear-gradient-8"/><linearGradient id="linear-gradient-24" x1="12.75" y1="103.51" x2="40.42" y2="125.75" xlink:href="#linear-gradient-6"/></defs><title>getting-paid</title><path class="cls-1" d="M152.49,266.29q-1.46.31-2.9,0.7a30.19,30.19,0,0,0-9.15,4.09c-2.56,1.83-4,4.1-2.8,5.27,0.48,0.48,1.34.76,1.55,1.36,0.51,1.44-2.91,3.79-6.12,5.21-5.78,2.55-14.58,5.25-16.17,9.57-1.37,3.75,4.62,5.28,10.24,6,18.51,2.46,39,2.73,60.17,1.31a169.85,169.85,0,0,0,25.89-3.43c10-2.18,18.89-2.21,28.83-4.75s28.66-8.57,34.29-16.17a2.53,2.53,0,0,0-.09-3.53,8.82,8.82,0,0,0-3.8-1.71c-7.25-1.93-15.31-2-24.22-1.87-7.93.09-15.2-1.19-23.08-1.44-7.32-.24-15.36.16-22.49-0.42-7.69-.62-14.71-1.82-23.2-1.7C171.85,264.92,161.83,264.32,152.49,266.29Z" transform="translate(-3.26 -3.58)"/><path class="cls-2" d="M291.95,210a14.39,14.39,0,0,1-9.14,4.14,10.14,10.14,0,0,1-5.24-1.34,11.71,11.71,0,0,1-3.89-3.68,16.59,16.59,0,0,1-2.83-9.89,10.37,10.37,0,0,1,1.89-5.39,8,8,0,0,1,5.25-3.35,5.65,5.65,0,0,1,3.73.78,7.29,7.29,0,0,1,2.36,2.44,9.88,9.88,0,0,1,1.16,2.82,11.06,11.06,0,0,1,.25,1.52l0,0.8v0.64a10.84,10.84,0,0,1-.42,2.95,10.13,10.13,0,0,1-1.4,2.76c-0.54.77-1,1.31-1.45,2s-1,1.26-1.49,1.89a32.79,32.79,0,0,1-3.47,3.65,17.2,17.2,0,0,1-4.61,3,12,12,0,0,1-2.92.86c-0.57.1-.87,0.12-1.3,0.18s-0.84.09-1.29,0.12a11.38,11.38,0,0,1-6.18-1.09l-0.19-.1a3.25,3.25,0,1,1,3-5.76l0.31,0.19a5.12,5.12,0,0,0,2.77.52c0.32,0,.66,0,1,0s0.8,0,1-.08a5.89,5.89,0,0,0,1.51-.36c2.1-.76,4.24-2.64,6.17-4.74,0.49-.53,1-1.08,1.45-1.65s1-1.2,1.38-1.67a4.28,4.28,0,0,0,1.08-2.87l0-.52v-0.36a6.25,6.25,0,0,0-.08-0.76,5.09,5.09,0,0,0-.5-1.46,2.76,2.76,0,0,0-.73-0.92,1,1,0,0,0-.68-0.21l-0.24,0-0.33.09a4.35,4.35,0,0,0-.64.29,4.27,4.27,0,0,0-1.14,1,6.22,6.22,0,0,0-1.28,3.13,12.83,12.83,0,0,0,1.79,7.64,7.41,7.41,0,0,0,6.12,3.86,11.6,11.6,0,0,0,7.42-3A1.31,1.31,0,0,1,291.95,210Z" transform="translate(-3.26 -3.58)"/><path class="cls-3" d="M163.78,180.46c20.41-20.41,75.51-22.22,97,11.38s-10.84,86.9-17,89.06-11,2.17-15.9-5.24-16.8-8.13-21.14.54-11.41,19.63-19,8.49c-7.23-10.66-10.84-13.19-15.9-13.91,0,0-6.32,10.84-15,8.85s-9.94-14.81-9.39-22c0,0-11.2-4.84-15.62-14.47-6.34-2.35-6.06-5.76-6.24-13.35s1.45-14.63,7.59-14.81,13.91-4.88,16.62-12.28a89,89,0,0,1,4-9.76,15.56,15.56,0,0,1-4.62-6.69c-3.48-9.29.1-10.48,4.8-9.21A85.42,85.42,0,0,1,163.78,180.46Z" transform="translate(-3.26 -3.58)"/><path class="cls-4" d="M260.8,191.84a50.91,50.91,0,0,0-11.88-12.9c7.6,8.79,14.28,22.24,15.13,33.84a66.67,66.67,0,0,1-.58,17.73c-1.76,8.91-8.52,18.34-15.43,24.24-5.36,4.58-14.78,5.36-21.81,4.79-4-.32-7.86-1.83-11.84-1.52-4.77.38-9,3.4-11.92,7.22-4.09,5.41-6.89,12.07-9.71,18.18-0.73,1.58-1.34,3.39-.75,5a3.49,3.49,0,0,0,.23.45c5.83,2.68,11.08-5.74,14.55-12.69,4.34-8.67,16.26-7.95,21.14-.54s9.76,7.41,15.9,5.24S282.29,225.44,260.8,191.84Z" transform="translate(-3.26 -3.58)"/><path class="cls-5" d="M162,279.43c4.23-1.11,8.45-5.93,10-8.64-3.84-1.36-9.53-4.75-12.49-6.7-2.33-1.54-4.81-3.12-7.59-3.27-0.26,2.27,2.35,3.7,3.48,5.68,1.71,3-.17,7.15,1.55,10.16A6.08,6.08,0,0,0,162,279.43Z" transform="translate(-3.26 -3.58)"/><path class="cls-6" d="M160.46,218.72a9,9,0,0,0-3.1-1l-6.84-1.4c-4.49-.92-16.1-1.36-17.27-1.32-6.14.18-7.77,7.23-7.59,14.81s-0.1,11,6.24,13.35l0,0,0.55,0.06c6.87,0.71,13.58,1.75,20.41,3a19.4,19.4,0,0,0,5.42.44c5-.53,8.55-4.7,7.86-9.5-0.83-5.78-.25-11.5-3.86-16.53A7,7,0,0,0,160.46,218.72Z" transform="translate(-3.26 -3.58)"/><path class="cls-7" d="M187.39,188.71a7.41,7.41,0,0,0-1.15,4.48c0.26,1.55,1.87,3,3.35,2.41a7,7,0,0,0,1.72-1.26,6.44,6.44,0,0,1,5.43-.91,16.56,16.56,0,0,1,5.09,2.49c1.76,1.16,3.63,2.43,5.73,2.43a1.37,1.37,0,0,0,1.16-.44,1.41,1.41,0,0,0,.19-0.73c0.29-4.38-3.05-8.07-6.16-11.18-1.59-1.59-6.6-7.83-9.1-7.11C191.31,179.58,188.45,186.67,187.39,188.71Z" transform="translate(-3.26 -3.58)"/><path class="cls-8" d="M157.73,183.18a15.46,15.46,0,0,0-3.64-3.36,5.23,5.23,0,0,0-4.76-.48,3.67,3.67,0,0,0-1.48,1.32,19.44,19.44,0,0,0,1.38,5.58,16,16,0,0,0,4.32,6.44c1.58-2.12,3.63-3.93,4.74-6.32a2.83,2.83,0,0,0,.34-1.65A3.32,3.32,0,0,0,157.73,183.18Z" transform="translate(-3.26 -3.58)"/><path class="cls-9" d="M195.12,166.58c0.95-.14,1.82.61,2.59,1a9.68,9.68,0,0,1,2.07,1.53c0.59,0.57.88,1.11,1.74,1,1.27-.17,2.49-0.55,3.78-0.74a66.49,66.49,0,0,1,7.15-.88,70.85,70.85,0,0,1,7.9-.24,54.53,54.53,0,0,1,5.77.39c1.46,0.26,2.94.41,4.38,0.71A79.29,79.29,0,0,0,195.12,166.58Z" transform="translate(-3.26 -3.58)"/><ellipse class="cls-9" cx="178.33" cy="212.57" rx="2.39" ry="3.6"/><path class="cls-9" d="M137.24,229.31c0.17,4.5-1.08,8-2.76,7.66s-3.08-4.14-3.19-8.52,1.09-7.6,2.69-7.42S137.08,224.89,137.24,229.31Z" transform="translate(-3.26 -3.58)"/><path class="cls-9" d="M155.45,232.38c0,4.94-1.78,8.48-4,7.82s-4-5.11-4-9.9,1.78-8.05,3.93-7.56S155.41,227.54,155.45,232.38Z" transform="translate(-3.26 -3.58)"/><path class="cls-10" d="M315.58,81.37c0.62-6.6,7.94-10.16,14.34-11.87,12-3.21,22.88-4.46,34.21,1.28A49.54,49.54,0,0,1,383.7,88.63c3.89,6.26,6.07,16.21-1,21.54-5,3.72-16.39,3.76-22.2,3.8-2.9,0-6-.22-8.32-1.93s-3.47-5.36-1.6-7.58" transform="translate(-3.26 -3.58)"/><path class="cls-11" d="M352.13,112c2.34,1.71,5.42,2,8.32,1.93,5.81,0,17.24-.07,22.2-3.8,7.11-5.34,4.94-15.28,1-21.54a48.48,48.48,0,0,0-7.85-9.56c-1.11,1.91-1.84,4.14-3.37,5.74-2.85,3-7.76,2.94-11.55,1.29s-6.85-4.56-10.25-6.89a38.57,38.57,0,0,0-30-5.65c-2.75,1.94-4.77,4.49-5.08,7.82l34.94,23.09C348.66,106.68,349.79,110.33,352.13,112Z" transform="translate(-3.26 -3.58)"/><path class="cls-12" d="M274,109.92c11.64,0.67,41.93,7.19,58.93,4.35s28.23-2.87,28-14.77-4.61-15.73-18.6-21.76-23.23-1-30.4,4.71-20.06,10.14-26.6,6.27S262.52,94.68,274,109.92Z" transform="translate(-3.26 -3.58)"/><path class="cls-13" d="M274,109.92c11.64,0.67,41.93,7.19,58.93,4.35s28.23-2.87,28-14.77a33.72,33.72,0,0,0-.43-5,10.74,10.74,0,0,0-6.38-5.48c-4.32-1.24-8.84.7-13,2.46a195.19,195.19,0,0,1-26.38,9.05c-4.36,1.16-8.92,2.17-13.35,1.35a6.33,6.33,0,0,1-3.95-2A11.21,11.21,0,0,1,296,96.41a12.62,12.62,0,0,0-4.7-6.23,12,12,0,0,1-6-1.45C278.79,84.85,262.52,94.68,274,109.92Z" transform="translate(-3.26 -3.58)"/><path class="cls-14" d="M261.11,94.56c-12.12,6.8-17.14,11.32-21.71,18.13s-3.05,7-2.47,9.51,1.78,2.48,4.88-1.48,12.92-14.89,13.61-13.64-5.59,14.9-7.2,18.24,0.18,4.38,1.08,4.9,3.91,3,5.29,3.63,3.75-.9,4.37-3.08,5.1-9.54,5.7-8.45-0.16,4.16-3,8.38-2.86,5.65-.85,6,2.82-1.33,5.2-5.52c2.72-4.79,9.66-12.78,15.7-16.43s10-4.93,10.37-13.48-6.27-12.55-12.41-18-21-14.78-23.11-15.65-3.32.62-2.25,3.28,2.33,6,6.49,8.41,8.78,5.93,9.16,7.35S267.3,91.08,261.11,94.56Z" transform="translate(-3.26 -3.58)"/><path class="cls-15" d="M287.87,110.82h0a11.29,11.29,0,0,1-2-1.42c-1.67-1.51-2.66-3.67-4.4-5.1a21,21,0,0,0-4.66-2.45c-2.92-1.36-5.7-3.52-6.69-6.58-0.69-2.15-.53-4.56-0.91-6.73l-0.16.2-0.28.44a0.78,0.78,0,0,1-.52.41,35.52,35.52,0,0,1-7.12,5c-1.67.94-3.2,1.83-4.62,2.7a11.06,11.06,0,0,0,.55,1.52,22.12,22.12,0,0,0,2.94,4.53,4.54,4.54,0,0,0,1.81,1.58,6.29,6.29,0,0,0,3.19-.14c2.47-.39,6,0.33,7.61,2.43s2.32,5.74,2.78,8.43c0.2,1.18.38,2.37,0.56,3.56h0c0.44-.4.88-0.79,1.32-1.17l0.4-.34,0.94-.76,0.46-.36,0.93-.68,0.42-.3c0.44-.3.88-0.59,1.31-0.85l1.52-.9A39.59,39.59,0,0,0,287.87,110.82Z" transform="translate(-3.26 -3.58)"/><path class="cls-16" d="M102,142.1c5.77-13.36,10.95-23.58,16-25.85s1.62,6.06-5.08,21.74S102,142.1,102,142.1Z" transform="translate(-3.26 -3.58)"/><path class="cls-17" d="M111.75,132.12c-2.28-2.12-7.7-2.85-10.61-2.88q-5.72-.05-11.41.27a1.72,1.72,0,0,1-1.89-.81,1.88,1.88,0,0,1,.23-1.33c2.08-4.63,3-9.82,4.73-14.67s4.34-9.57,8.66-11.74" transform="translate(-3.26 -3.58)"/><path class="cls-18" d="M101.47,101C98,102.68,95.66,106,94,109.75a6.37,6.37,0,0,1,1.31,1.76,14.32,14.32,0,0,1,1.13,3.73,9.64,9.64,0,0,1,.14,4.27c-0.39,1.48-1.42,2.73-1.79,4.21a2.5,2.5,0,0,0,0,1.47A2.42,2.42,0,0,0,97,126.55a17.21,17.21,0,0,0,2.74-.33c3.13-.36,6.22,1.15,8.63,3.19,0.6,0.51,1.17,1,1.72,1.61a6.82,6.82,0,0,1,1.67,1.09Z" transform="translate(-3.26 -3.58)"/><path class="cls-19" d="M135.21,95.79c4.65,2.1,9.6,4.46,12.4,9-4.55,2.84-9.14,5.71-12.9,9.65a24.26,24.26,0,0,0-7,14.92l-15.54-3.74" transform="translate(-3.26 -3.58)"/><path class="cls-20" d="M139.37,107.44c1-.94,1.42-2.62.51-3.62-0.28-.3-0.64-0.51-0.92-0.81a2.6,2.6,0,0,1-.59-2.08,6.1,6.1,0,0,1,.75-2.1c0.16-.31.34-0.6,0.51-0.9-1.45-.78-2.95-1.48-4.42-2.14l-5.27,6.83-0.36,14.21a12.78,12.78,0,0,1,6.29-7.39A13.6,13.6,0,0,0,139.37,107.44Z" transform="translate(-3.26 -3.58)"/><path class="cls-17" d="M126.7,91a25.08,25.08,0,0,0,8.87,2.77,2.73,2.73,0,0,1,2.05.84c0.73,1,0,2.36-.68,3.32-3.31,4.7-5.29,10.36-7.24,15.95a27.25,27.25,0,0,0-2,8.92,21.55,21.55,0,0,0,.7,5,40.73,40.73,0,0,0,3,8.22l-7.89,3.37L112.3,107.56" transform="translate(-3.26 -3.58)"/><path class="cls-21" d="M124.86,122.62c1.6-6,2.2-12.16,3.59-18.18,0.89-3.88,2.1-7.67,3.35-11.44a25.53,25.53,0,0,1-4.89-1.91,20,20,0,0,0-6.3,13,35.52,35.52,0,0,0,.11,5.37,88.88,88.88,0,0,0,1.14,9.39,9.91,9.91,0,0,0,1.24,3.66,1.75,1.75,0,0,0,.68.67,0.76,0.76,0,0,0,.89-0.14A1.14,1.14,0,0,0,124.86,122.62Z" transform="translate(-3.26 -3.58)"/><path class="cls-22" d="M126.14,129.33a52.67,52.67,0,0,1-7.16-23.1c-0.36-5.47-.7-10.35-2.83-15.45-4.3,3.78-9.9,5.4-15.35,6.91-4.28,1.18-8.66,2.41-11.43,6,6,4.08,10.3,10.42,14.48,16.6l8,11.8" transform="translate(-3.26 -3.58)"/><path class="cls-23" d="M124.14,129.72q0.47-1.25.81-2.55a52.68,52.68,0,0,1-6-20.95,62.44,62.44,0,0,0-1.42-11.15A44.37,44.37,0,0,0,113.07,93c-3.73,2.27-8.05,3.52-12.28,4.69-1.42.39-2.85,0.8-4.23,1.29a50.3,50.3,0,0,1,8.23,12.53c0.46,1,.84,2.29.09,3.1-1,1.12-3,0-4.44.51-0.06,0-.11.06-0.16,0.09,1.22,1.69,2.39,3.41,3.55,5.13l8,11.8Z" transform="translate(-3.26 -3.58)"/><path class="cls-22" d="M116.89,90.44A48.39,48.39,0,0,0,130,88.86c1.29,3.48-.53,7.08-1.65,10.46a53.15,53.15,0,0,0-1.89,9.56c-1.12,8.29-2.13,17.3,1.68,25l-10.46,5.86" transform="translate(-3.26 -3.58)"/><path class="cls-24" d="M127.51,94.34a2.58,2.58,0,0,0-2.42.06,1.08,1.08,0,0,1-.74.3,0.83,0.83,0,0,1-.5-0.75,11.55,11.55,0,0,1,0-3.9,48.72,48.72,0,0,1-6.94.4l0.58,37.68a16.78,16.78,0,0,0,5-.79,18.51,18.51,0,0,0,3.3-1.26c-0.81-5.63-.1-11.57.65-17.19a53.15,53.15,0,0,1,1.89-9.56c0.36-1.08.78-2.18,1.16-3.29l0-.07A5.55,5.55,0,0,0,127.51,94.34Z" transform="translate(-3.26 -3.58)"/><path class="cls-25" d="M116.78,135.39a31.34,31.34,0,0,0,11.24-2.2c-5-7.67-5.46-17.4-5.76-26.5l-0.38-11.32c-0.06-1.77-.23-3.57-0.24-5.33,0-.94.43-2.45-0.73-2.92a2.16,2.16,0,0,0-1.17,0,42,42,0,0,0-7.54,2.26l-16,5.92A1.41,1.41,0,0,0,95,96.34c0,0.75.6,0.52,1,.88a26.75,26.75,0,0,1,2.9,3.08c11.87,13.85,13.61,34.87,13.61,34.87" transform="translate(-3.26 -3.58)"/><path class="cls-26" d="M122.25,106.69l-0.38-11.32c-0.06-1.77-.23-3.57-0.24-5.33,0-.48.11-1.12,0.06-1.69a18.23,18.23,0,0,0-1.44,1.41,41.25,41.25,0,0,0-5.34,7.45,21.39,21.39,0,0,0-1.93,4.07,6.8,6.8,0,0,1-.66,1.66,1.71,1.71,0,0,1-1.48.86,2.45,2.45,0,0,1-1.18-.57c-1.72-1.26-2.77-3.1-4.75-4a1.59,1.59,0,0,0-1.33-.14c-0.76.37-.59,1.49-0.29,2.28a65.28,65.28,0,0,0,6.09,12.13c1.49,2.32,3.18,4.7,3.38,7.46a0.87,0.87,0,0,1-.19.74,0.86,0.86,0,0,1-.57.15,6.49,6.49,0,0,1-2.24-.39,76.05,76.05,0,0,1,2.78,13.73l4.23,0.22a31.34,31.34,0,0,0,11.24-2.2C123,125.52,122.55,115.79,122.25,106.69Z" transform="translate(-3.26 -3.58)"/><path class="cls-27" d="M115.58,117.32a3.22,3.22,0,0,0-1.75,2.19,10.19,10.19,0,0,0,1.14,8.55,6.46,6.46,0,0,0,2.27,2.27,4,4,0,0,0,3.27.33,3.78,3.78,0,0,0,2.07-2.35c0.76-2.15.24-4.48-.34-6.69S118.68,116.15,115.58,117.32Z" transform="translate(-3.26 -3.58)"/><path class="cls-20" d="M141.37,145a24.27,24.27,0,0,1,4.36,5.22l4.24,6.15c-1.36,1.66-3.31,2.6-5,3.86-1.39,1-2.63,2.28-4,3.3a30.65,30.65,0,0,1-2.64,1.65L135.21,167a66.45,66.45,0,0,1-7.88,4.12,4.32,4.32,0,0,1,.26-2.32,12.59,12.59,0,0,0,.3-5" transform="translate(-3.26 -3.58)"/><path class="cls-17" d="M123.37,159.41q0.64,3.62,1.11,7.27c2.3-.12,4.69.5,6.89-0.1a12.7,12.7,0,0,0,3.41-1.72l6.79-4.33c0.75-.48,1.5-1,2.2-1.5a18.58,18.58,0,0,1,1.9-1.45,1.32,1.32,0,0,0,.53-0.44,1.22,1.22,0,0,0,.11-0.62,8.69,8.69,0,0,0-.62-2.67q-1.24-3.51-2.74-6.91a3.61,3.61,0,0,0-1.53-2" transform="translate(-3.26 -3.58)"/><path class="cls-28" d="M141.75,152.78a30.47,30.47,0,0,0-2.66-2.58,7.92,7.92,0,0,0-2.74-1.2l-13,10.41q0.3,1.7.56,3.4a7.61,7.61,0,0,1,2.55-1.49,3.22,3.22,0,0,1,3.51.93c0.21,0.3.36,0.64,0.57,0.94a1.15,1.15,0,0,0,.91.53,1.53,1.53,0,0,0,.86-0.44l1.45-1.21a8.53,8.53,0,0,1,1.09-.81,9.29,9.29,0,0,1,1.42-.63q1.83-.7,3.61-1.54,0.89-.42,1.76-0.87a3.22,3.22,0,0,0,1.41-.78,4.15,4.15,0,0,0,.55-2.33C143.47,154.11,142.43,153.41,141.75,152.78Z" transform="translate(-3.26 -3.58)"/><path class="cls-29" d="M115.51,137.19a15.36,15.36,0,0,1,2,5.19c0.16,0.82.25,1.65,0.33,2.48,0.52,4.92,1,9.84,1.41,14.77,0.09,1.22.17,2.44,0.37,3.65a0.6,0.6,0,0,0,.19.41,0.44,0.44,0,0,0,.31,0,6,6,0,0,0,2.73-1.66,20.35,20.35,0,0,1,3.62-2.16,4.08,4.08,0,0,1,2.24-.63c1.63,0.18,3,2.22,4.59,1.84a5.92,5.92,0,0,0,1.57-.94c1.08-.66,2.42-0.67,3.62-1.06a11.79,11.79,0,0,0,4.53-3.43,2.73,2.73,0,0,0,.92-1.58,3.24,3.24,0,0,0-.33-1.43l-3.38-8.42c-0.15-.38-0.48-0.85-0.81-0.68" transform="translate(-3.26 -3.58)"/><path class="cls-30" d="M138.12,152.54l4.44-2.53-2-5.09a60.28,60.28,0,0,0-21.75,8.61c0.19,2,.37,4.06.52,6.1,0,0.23,0,.47.06,0.7l0,0,7.6-2.87a1.29,1.29,0,0,1,1-.1c0.53,0.23.5,1,.71,1.5a1.64,1.64,0,0,0,.25.42c1.57,0.29,2.91,2.17,4.43,1.8a5.92,5.92,0,0,0,1.57-.94c1.08-.66,2.42-0.67,3.62-1.06a7.92,7.92,0,0,0,2.66-1.6,0.35,0.35,0,0,0,0-.07,0.69,0.69,0,0,0-.45-0.49l-3.07-1.6a1.85,1.85,0,0,1-.88-0.73,1.25,1.25,0,0,1,.23-1.28A3.66,3.66,0,0,1,138.12,152.54Z" transform="translate(-3.26 -3.58)"/><path class="cls-31" d="M10.92,163.4s28.75,8.29,67.61,5.1A143.83,143.83,0,0,0,109,163c10.07-3.09,16.66-4.87,25.61-10.43,3.93-2.44,12.94-6.16,10.16-12.24-1.3-2.84.08-3.83,0.59-6.66a4.19,4.19,0,0,0-.71-3.39c-2.53-3.08-.47-3.2.05-6.35,0.42-2.53-3.16-3.57-2.81-5.87a4.55,4.55,0,0,1,.58-1.18,2.74,2.74,0,0,0-.5-2.78,8.07,8.07,0,0,0-2.35-1.8,4.56,4.56,0,0,0-1.88-.75,3.44,3.44,0,0,0-1.67.31c-5.29,2.4-8.24,3.36-13.87,9.11-6.35,6.48-13.57,15-20.26,21.16-10.3,9.51-12.83,5.8-21.38,2.1-25-10.83-38.28-26-61.56-22.16" transform="translate(-3.26 -3.58)"/><path class="cls-32" d="M78.53,168.5A143.83,143.83,0,0,0,109,163c10.07-3.09,16.66-4.87,25.61-10.43,3.93-2.44,12.94-6.16,10.16-12.24-1.3-2.84.08-3.83,0.59-6.66a4.19,4.19,0,0,0-.71-3.39c-2.53-3.08-.47-3.2.05-6.35,0.42-2.53-3.16-3.57-2.81-5.87a4.55,4.55,0,0,1,.58-1.18,2.74,2.74,0,0,0-.5-2.78,5.89,5.89,0,0,0-1.43-1.23l-0.05,0a12.41,12.41,0,0,0-4,2.75A163,163,0,0,0,111,145.14c-1.13,1.68-2.87,2.56-4.4,3.83a74.82,74.82,0,0,0-5.51,5.16c-2.3,2.35-4.82,5-8.11,5.18a10.66,10.66,0,0,1-3.46-.55A70.08,70.08,0,0,1,81,155.51q-9.81-4.29-19.29-9.3c-7.37-3.9-14.62-8.14-22.49-10.9l-7.74,2.17c0.36,5.45-.58,10.9-0.66,16.36-0.07,4.78.62,9.8,3.13,13.8A222.83,222.83,0,0,0,78.53,168.5Z" transform="translate(-3.26 -3.58)"/><path class="cls-33" d="M232.46,106.6a2.16,2.16,0,0,1,.8.21,1.13,1.13,0,0,1,.76,1.14,0.63,0.63,0,0,0,.22.55,1.19,1.19,0,0,1,.27,1.51,3,3,0,0,1-.49.74,5.86,5.86,0,0,1-1,.91,16.41,16.41,0,0,1-7.44,3.1,3.89,3.89,0,0,1-1.95-.11,1.22,1.22,0,0,1-.92-1.23,0.65,0.65,0,0,0-.24-0.54,1.18,1.18,0,0,1-.25-1.45,3.26,3.26,0,0,1,.56-0.84,6.19,6.19,0,0,1,1-.93,16.65,16.65,0,0,1,7.22-3A6.07,6.07,0,0,1,232.46,106.6Z" transform="translate(-3.26 -3.58)"/><path class="cls-34" d="M232.35,107.64a6.52,6.52,0,0,0-1.8.15,16.25,16.25,0,0,0-5.85,2.53,4.83,4.83,0,0,0-1.38,1.3c-0.24.37-.17,0.53,0.25,0.62a3.17,3.17,0,0,0,1.2,0,15.29,15.29,0,0,0,7.26-3.13,3.43,3.43,0,0,0,.74-0.78c0.29-.43.23-0.57-0.27-0.69Z" transform="translate(-3.26 -3.58)"/><path class="cls-35" d="M224.5,113.76c0.26,0,.61,0,0.94,0a15.43,15.43,0,0,0,6.7-2.71,9.3,9.3,0,0,0,.92-0.78,2.09,2.09,0,0,0,.46-0.61,0.23,0.23,0,0,0,0-.29c-0.11-.09-0.19,0-0.26.09a6.94,6.94,0,0,1-1.1,1,16.05,16.05,0,0,1-7.93,3c-0.13,0-.35-0.08-0.37.11s0.23,0.19.37,0.25A1.88,1.88,0,0,0,224.5,113.76Z" transform="translate(-3.26 -3.58)"/><path class="cls-33" d="M200.8,118a2,2,0,0,1,.67.39,1.06,1.06,0,0,1,.4,1.22,0.59,0.59,0,0,0,.06.55,1.12,1.12,0,0,1-.14,1.43,2.81,2.81,0,0,1-.63.55,5.49,5.49,0,0,1-1.11.57,15.38,15.38,0,0,1-7.49.92,3.65,3.65,0,0,1-1.73-.59,1.14,1.14,0,0,1-.52-1.34,0.61,0.61,0,0,0-.08-0.55,1.1,1.1,0,0,1,.14-1.38,3.05,3.05,0,0,1,.72-0.62,5.8,5.8,0,0,1,1.18-.58,15.61,15.61,0,0,1,7.27-.88A5.69,5.69,0,0,1,200.8,118Z" transform="translate(-3.26 -3.58)"/><path class="cls-34" d="M200.44,118.9a6.11,6.11,0,0,0-1.66-.32,15.23,15.23,0,0,0-5.92.81,4.53,4.53,0,0,0-1.57.83c-0.31.27-.29,0.43,0.07,0.63a3,3,0,0,0,1.08.32,14.33,14.33,0,0,0,7.34-1,3.22,3.22,0,0,0,.87-0.52c0.37-.32.35-0.46-0.08-0.69Z" transform="translate(-3.26 -3.58)"/><path class="cls-35" d="M191.81,122.45c0.24,0.06.55,0.15,0.86,0.19a14.47,14.47,0,0,0,6.74-.76,8.72,8.72,0,0,0,1-.47A2,2,0,0,0,201,121a0.21,0.21,0,0,0,.08-0.26c-0.07-.11-0.18,0-0.26,0a6.51,6.51,0,0,1-1.24.58,15,15,0,0,1-7.91.69c-0.12,0-.3-0.16-0.36,0s0.16,0.23.27,0.32A1.76,1.76,0,0,0,191.81,122.45Z" transform="translate(-3.26 -3.58)"/><path class="cls-33" d="M210.35,109.75a4.63,4.63,0,0,1-1.2-.41,8.65,8.65,0,0,1-1.48-.88,20.19,20.19,0,0,1-5.48-6,6.32,6.32,0,0,1-1-2.72A1.44,1.44,0,0,1,202.22,98a0.73,0.73,0,0,0,.41-0.39,1.54,1.54,0,0,1,1.92-.89,5.47,5.47,0,0,1,1.72.73,19.15,19.15,0,0,1,6.77,7.38,4.89,4.89,0,0,1,.6,2,1.47,1.47,0,0,1-1,1.62,0.69,0.69,0,0,0-.43.36A1.48,1.48,0,0,1,210.35,109.75Z" transform="translate(-3.26 -3.58)"/><path class="cls-34" d="M204.24,97.94c-0.39-.07-0.53.06-0.45,0.59a5.06,5.06,0,0,0,.6,1.61,17,17,0,0,0,2.65,3.62,15.17,15.17,0,0,0,3.75,3.07,3.32,3.32,0,0,0,1.11.43c0.39,0.06.5,0,.49-0.43a3.38,3.38,0,0,0-.35-1.22,13.08,13.08,0,0,0-1.74-2.79,17.86,17.86,0,0,0-4.65-4.3A3.88,3.88,0,0,0,204.24,97.94Z" transform="translate(-3.26 -3.58)"/><path class="cls-35" d="M210.49,108.52c0.15,0,.38.08,0.44-0.12s-0.17-.21-0.3-0.27a16.54,16.54,0,0,1-5.2-4.33,14.42,14.42,0,0,1-2.65-4.24c-0.05-.13-0.08-0.34-0.27-0.29s-0.13.25-.12,0.4a3.38,3.38,0,0,0,.3,1.08,12.6,12.6,0,0,0,1.76,2.86,18.06,18.06,0,0,0,4.58,4.27A4.94,4.94,0,0,0,210.49,108.52Z" transform="translate(-3.26 -3.58)"/><path class="cls-33" d="M212.86,130.94a8.89,8.89,0,0,1-2.39-.67,2.74,2.74,0,0,1-.92-0.66,1.23,1.23,0,0,1-.26-1.39,0.78,0.78,0,0,0,0-.73,1.34,1.34,0,0,1,.38-1.67,4.41,4.41,0,0,1,1.6-.91,15.94,15.94,0,0,1,5.12-.86,15.28,15.28,0,0,1,4.74.49,5,5,0,0,1,1.62.73,1.39,1.39,0,0,1,.56,1.8,0.67,0.67,0,0,0,.05.59,1.37,1.37,0,0,1-.35,1.69,4.38,4.38,0,0,1-1.66,1,15.85,15.85,0,0,1-4.48.82A19.68,19.68,0,0,1,212.86,130.94Z" transform="translate(-3.26 -3.58)"/><path class="cls-34" d="M213.17,128a17.44,17.44,0,0,0,3.1.14,15.17,15.17,0,0,0,4.55-.76,3.69,3.69,0,0,0,1.2-.62c0.29-.25.28-0.39,0-0.61a4,4,0,0,0-1.44-.59,15.37,15.37,0,0,0-3.9-.38,16.33,16.33,0,0,0-4.57.65,4.2,4.2,0,0,0-1.53.74c-0.29.24-.28,0.39,0,0.62a2.93,2.93,0,0,0,.9.43A8.75,8.75,0,0,0,213.17,128Z" transform="translate(-3.26 -3.58)"/><path class="cls-35" d="M213.59,129.86a13,13,0,0,0,2,.12,16.45,16.45,0,0,0,5.2-.74,3.66,3.66,0,0,0,1.32-.68c0.1-.09.26-0.19,0.12-0.35s-0.22,0-.32,0a11.46,11.46,0,0,1-3.29.9,17.93,17.93,0,0,1-7.56-.39c-0.19-.06-0.46-0.38-0.6-0.06s0.25,0.35.45,0.46a4,4,0,0,0,.52.23A9.64,9.64,0,0,0,213.59,129.86Z" transform="translate(-3.26 -3.58)"/><path class="cls-33" d="M188.11,140.24a11.1,11.1,0,0,1,1.54-2.68,3.42,3.42,0,0,1,1.08-.91,1.54,1.54,0,0,1,1.76.11,1,1,0,0,0,.89.2,1.68,1.68,0,0,1,1.91,1,5.51,5.51,0,0,1,.61,2.22,19.9,19.9,0,0,1-.53,6.45,19.08,19.08,0,0,1-2,5.59,6.3,6.3,0,0,1-1.38,1.73,1.73,1.73,0,0,1-2.36.13,0.84,0.84,0,0,0-.73-0.12,1.72,1.72,0,0,1-1.94-.94,5.47,5.47,0,0,1-.64-2.3,19.79,19.79,0,0,1,.37-5.67A24.57,24.57,0,0,1,188.11,140.24Z" transform="translate(-3.26 -3.58)"/><path class="cls-34" d="M191.52,141.51a21.77,21.77,0,0,0-1.12,3.71,18.93,18.93,0,0,0-.47,5.74,4.6,4.6,0,0,0,.38,1.64c0.21,0.43.38,0.46,0.75,0.15a5,5,0,0,0,1.16-1.57,19.19,19.19,0,0,0,1.66-4.6,20.39,20.39,0,0,0,.61-5.73,5.25,5.25,0,0,0-.42-2.08c-0.21-.42-0.39-0.46-0.76-0.16a3.65,3.65,0,0,0-.79,1A10.92,10.92,0,0,0,191.52,141.51Z" transform="translate(-3.26 -3.58)"/><path class="cls-35" d="M189.2,141.46a16.27,16.27,0,0,0-.75,2.38,20.54,20.54,0,0,0-.7,6.52,4.56,4.56,0,0,0,.42,1.81c0.07,0.14.15,0.37,0.38,0.26s0.08-.26.05-0.4a14.31,14.31,0,0,1-.08-4.26,22.38,22.38,0,0,1,2.78-9c0.12-.21.6-0.44,0.25-0.7s-0.5.2-.7,0.41a5,5,0,0,0-.43.56A12,12,0,0,0,189.2,141.46Z" transform="translate(-3.26 -3.58)"/><path class="cls-33" d="M236.2,138.84a11.51,11.51,0,0,1-3.13-1.68,3.48,3.48,0,0,1-.89-1,1.6,1.6,0,0,1,.06-1.92,0.84,0.84,0,0,0,.18-0.81,1.67,1.67,0,0,1,.92-1.94,5.28,5.28,0,0,1,2.21-.64,18.22,18.22,0,0,1,5.23.25,21,21,0,0,1,6.9,2.29,6.26,6.26,0,0,1,1.62,1.24,1.78,1.78,0,0,1,.2,2.49,0.83,0.83,0,0,0-.11.66,1.78,1.78,0,0,1-1,2.05,5.93,5.93,0,0,1-2.32.59,21.64,21.64,0,0,1-6.89-.66A21.13,21.13,0,0,1,236.2,138.84Z" transform="translate(-3.26 -3.58)"/><path class="cls-34" d="M245,133.76a23.59,23.59,0,0,0-7.12-1.49,11.59,11.59,0,0,0-2.75.15,3.23,3.23,0,0,0-1,.34,0.35,0.35,0,0,0-.14.58,3.53,3.53,0,0,0,.56.57,9,9,0,0,0,2.16,1.23,23.54,23.54,0,0,0,8.14,1.72,9.16,9.16,0,0,0,2.3-.17c0.46-.1,1.1-0.12,1.22-0.59s-0.46-.76-0.84-1A11.55,11.55,0,0,0,245,133.76Z" transform="translate(-3.26 -3.58)"/><path class="cls-35" d="M236.53,137.4a23.4,23.4,0,0,0,7.88,1.63,10.45,10.45,0,0,0,2.39-.19,2.46,2.46,0,0,0,1-.38c0.09-.07.21-0.15,0.12-0.29a0.21,0.21,0,0,0-.23-0.09l-0.35.06a21.86,21.86,0,0,1-13.13-2.67c-0.22-.12-0.44-0.59-0.71-0.26s0.2,0.5.4,0.7a5.16,5.16,0,0,0,.64.48A9.16,9.16,0,0,0,236.53,137.4Z" transform="translate(-3.26 -3.58)"/><g id="Octicons"><g id="thumbsup"><path id="Shape" class="cls-36" d="M186.21,108.23c-0.49.47-1.59-.1-2.13-0.59l-4.65-4.19-0.57-1.84,4-4.41c1,0.9,2,.84,3.54.69,1.8-.19,2.53-1.13,3.38-2.45a1,1,0,0,1,1.4-.07c0.61,0.55-.34,3.33-1.17,4.26l-0.7.74a0.85,0.85,0,0,0,.11,1.39l1.47,1.32a0.91,0.91,0,0,1,.07,1.4l-4.7,3.75h0Zm5.29-5.88L190,101h0l0.66-.71c0.86-1,2.46-4.46,1.11-5.67a2.07,2.07,0,0,0-1.66-.47,1.68,1.68,0,0,0-1.24.76c-0.79,1.25-1.3,1.86-2.63,2s-2.11.16-2.78-.44L182,95.16a2,2,0,0,0-2.79.14l-2.64,2.94a2,2,0,0,0,.15,2.79l1.26,1.14,0.49,1.58a1,1,0,0,0,.29.45l4.65,4.19c0.83,0.75,2.42,1.51,3.45.6l4.65-3.72a0.74,0.74,0,0,0,.15-0.13,1.9,1.9,0,0,0-.17-2.77h0Z" transform="translate(-3.26 -3.58)"/></g></g><g id="Octicons-2" data-name="Octicons"><g id="heart"><path id="Shape-2" data-name="Shape" class="cls-37" d="M226.23,139.37a5,5,0,0,0-4.08.79,4.88,4.88,0,0,0-2.09,3.59,11.18,11.18,0,0,0-.13,2.2,10,10,0,0,0-2.12-.61,4.75,4.75,0,0,0-4.08.79,5,5,0,0,0-2.09,3.59,5.42,5.42,0,0,0,.87,3.6,10.31,10.31,0,0,0,3.6,3.08c2,1,6.21,1.79,12.77,2.17,1.8-6.32,2.54-10.59,2.18-12.78a10.62,10.62,0,0,0-1.73-4.4,5.59,5.59,0,0,0-3.13-2Z" transform="translate(-3.26 -3.58)"/></g></g><g id="Octicons-3" data-name="Octicons"><g id="star"><polygon id="Shape-3" data-name="Shape" class="cls-33" points="178.63 123.6 176.4 120.5 177.75 117.01 174.18 118.12 171.23 115.69 171.29 119.45 168.12 121.43 171.72 122.64 172.69 126.32 174.88 123.29 178.63 123.6"/></g></g><g id="Octicons-4" data-name="Octicons"><g id="star-2" data-name="star"><polygon id="Shape-4" data-name="Shape" class="cls-33" points="222.63 94.72 223.81 89 229.12 86.91 224.17 84.06 223.84 78.23 219.69 82.19 214.19 80.69 216.56 85.99 213.44 90.89 219.1 90.2 222.63 94.72"/></g></g><path class="cls-38" d="M213.66,62.37c-0.85-1.45-13-14.21-16.21-17.59s-4.81-3.63-8-3-11.38,1.56-12.94.91,2.17-4.49,5.68-6,6.58-2.32,6.26-4.52-1.5-2.65-4.91-1.36-8.78,2.89-14.76,6.35S152.56,44.09,144,41.87c-4.49-1.16-14-6.46-23.86-13.31-0.95,1.1-1.9,2.19-2.84,3.3C112.89,37,108,42.24,104.83,48.36c3,1.25,6,2.43,8.81,3.47,15.13,5.5,23.59,7.17,33,12.57s9.81,6,16.17,4.38,9.88-1.46,8.53,1.47-3.75,5.62-2.9,7.07,1.94,2.44,4.26.74,5.42-5.2,6.49-8.42-0.52-5.78.87-5.65,3.57,0.38,4.77,2.3,4.82,7.84,2.74,13.88,1.9,5.91,5.11,4.87,3.33-.69,4.88-6,0.68-15.75-.62-18.59-0.24-4.91,2.1-2.4,11.51,8.95,12.9,8.5S214.51,63.82,213.66,62.37Z" transform="translate(-3.26 -3.58)"/><path class="cls-39" d="M174.93,61.84c-2.51-1.46-5.6.12-8.47,0.53-4.06.58-8.05-1.28-11.62-3.32A64.23,64.23,0,0,1,131,35.55c-3.39-2-7.08-4.39-10.83-7-0.95,1.1-1.9,2.19-2.84,3.3C112.89,37,108,42.24,104.83,48.36c3,1.25,6,2.43,8.81,3.47,15.13,5.5,23.59,7.17,33,12.57s9.81,6,16.17,4.38,9.88-1.46,8.53,1.47-3.75,5.62-2.9,7.07,1.94,2.44,4.26.74a17.15,17.15,0,0,0,1.42-1.19,16.52,16.52,0,0,0,3.28-8.75C177.55,65.75,177,63,174.93,61.84Z" transform="translate(-3.26 -3.58)"/><path class="cls-40" d="M196.34,58.4l-1.11-3.1A24.35,24.35,0,0,0,196.34,58.4Z" transform="translate(-3.26 -3.58)"/><path class="cls-41" d="M211.94,66.57a3.13,3.13,0,0,0,1.71-1.77c-0.14-.31-0.28-0.62-0.45-0.92a26.82,26.82,0,0,0-5.95-6.59l-4.42-3.92a20.11,20.11,0,0,0-4.11-3.06,6.77,6.77,0,0,0-5-.64,0.85,0.85,0,0,0-.46.27,0.89,0.89,0,0,0,0,.73c0.6,2.48,2.16,4.68,3.21,7,0.26-.94,1.19-1.08,2.58.41C201.39,60.57,210.55,67,211.94,66.57Z" transform="translate(-3.26 -3.58)"/><path class="cls-42" d="M196.4,58.57v0l-0.06-.12Z" transform="translate(-3.26 -3.58)"/><path class="cls-43" d="M182.14,36.68c3.51-1.54,6.58-2.32,6.26-4.52a3.83,3.83,0,0,0-.32-1.12c-5.49,1.48-10.46,4.57-15.84,6.5-3.2,1.15-6.93,2.19-8.43,5.24l12.36-.33C175.6,41.38,179,38.08,182.14,36.68Z" transform="translate(-3.26 -3.58)"/><path class="cls-10" d="M97.54,3.58c4.24,3.2,8.71,6.5,14,7.37,1.39,0.23,2.92.33,4,1.26a5.45,5.45,0,0,1,1.25,1.9,23,23,0,0,1,1.82,12.56c-0.73,5.31-4.1,9.75-7.75,13.47-1.89,1.92-3.91,3.7-5.94,5.47-2.35,2-4.29,2.72-7.42,2.07a50.17,50.17,0,0,1-10.4-3,52.33,52.33,0,0,1-6-3.35L70.65,35a9.23,9.23,0,0,1,.69-6.89A81.05,81.05,0,0,1,85.58,9.15C88.8,6,93.29,5.15,97.54,3.58Z" transform="translate(-3.26 -3.58)"/><path class="cls-44" d="M110.79,40.13c3.65-3.72,7-8.16,7.75-13.47a23,23,0,0,0-1.82-12.56,8,8,0,0,0-.63-1.17,3.5,3.5,0,0,1-.13.62c-2.36,1.55-5.75.51-8.12,2.05a7.1,7.1,0,0,0-2,2.14,6.14,6.14,0,0,0-1.16,2.86,8.13,8.13,0,0,0,.29,2.24c0.71,3.33.63,7.34-2,9.51-0.66.54-1.43,0.92-2.09,1.46-1.26,1-2,2.53-3.23,3.61a9,9,0,0,1-6.14,2,36.46,36.46,0,0,1-6.53-1,67,67,0,0,0-10.62-1.17L81,41.35a52.34,52.34,0,0,0,6,3.35,50.17,50.17,0,0,0,10.4,3c3.13,0.65,5.07,0,7.42-2.07C106.88,43.84,108.91,42.05,110.79,40.13Z" transform="translate(-3.26 -3.58)"/><path class="cls-10" d="M115.58,49.64C114.88,50.74,114,52,112.69,52a4,4,0,0,1-1.28-.25l-7.77-2.44a3.65,3.65,0,0,1-1.72-.9c-1-1.15-.23-2.95.61-4.24a196.46,196.46,0,0,1,13.13-17.25,3.84,3.84,0,0,1,1.92-1.51A3.63,3.63,0,0,1,120,26a32.28,32.28,0,0,1,7.15,5.26c1.63,1.59,0,2.62-1.1,4q-1.92,2.3-3.74,4.69Q118.77,44.65,115.58,49.64Z" transform="translate(-3.26 -3.58)"/><path class="cls-45" d="M103,47.17c1.59,0.44,3.18.72,4.79,1.12a17.32,17.32,0,0,1,2.37.75,8.56,8.56,0,0,1,2.16,1.23,19.06,19.06,0,0,0-2.3-.84c-0.78-.22-1.56-0.43-2.36-0.62A18.69,18.69,0,0,1,103,47.17Z" transform="translate(-3.26 -3.58)"/><path class="cls-45" d="M103.44,45.57a19.54,19.54,0,0,1,5.43,1.07,20.7,20.7,0,0,1,2.56,1.08,17.06,17.06,0,0,1,2.38,1.42c-0.86-.35-1.7-0.72-2.55-1.05s-1.7-.66-2.57-0.95C107,46.54,105.22,46.05,103.44,45.57Z" transform="translate(-3.26 -3.58)"/><path class="cls-45" d="M104.47,44.06a13.12,13.12,0,0,1,5.12,1.08A23.38,23.38,0,0,1,112,46.26c0.77,0.42,1.52.85,2.25,1.34-0.83-.29-1.63-0.63-2.42-1s-1.59-.68-2.39-1A29.16,29.16,0,0,0,104.47,44.06Z" transform="translate(-3.26 -3.58)"/><path class="cls-45" d="M106,41.56a23.29,23.29,0,0,1,5.35,2,24.76,24.76,0,0,1,2.46,1.47c0.39,0.27.78,0.55,1.16,0.84l0.56,0.45a0.58,0.58,0,0,0,.63.14,0.61,0.61,0,0,1-.7,0l-0.63-.35-1.23-.71c-0.83-.46-1.65-0.92-2.49-1.35C109.48,43.18,107.77,42.38,106,41.56Z" transform="translate(-3.26 -3.58)"/><path class="cls-45" d="M107.71,39.81a16.93,16.93,0,0,1,4.7,2.13l2.19,1.33c0.73,0.43,1.48.83,2.26,1.21a11,11,0,0,1-2.45-.85,24.81,24.81,0,0,1-2.27-1.23C110.67,41.5,109.25,40.58,107.71,39.81Z" transform="translate(-3.26 -3.58)"/><path class="cls-45" d="M108.54,38.06a26.08,26.08,0,0,1,4.62,2.14c0.73,0.43,1.45.88,2.14,1.38a21.34,21.34,0,0,1,2,1.58c-0.76-.39-1.49-0.82-2.22-1.23l-2.19-1.26C111.44,39.81,110,39,108.54,38.06Z" transform="translate(-3.26 -3.58)"/><path class="cls-45" d="M110,36.05a51.23,51.23,0,0,1,4.91,2.46c0.79,0.45,1.59.91,2.36,1.4s1.55,1,2.29,1.52c-0.85-.35-1.67-0.76-2.49-1.17s-1.62-.85-2.42-1.29A51.25,51.25,0,0,1,110,36.05Z" transform="translate(-3.26 -3.58)"/><path class="cls-45" d="M111.63,34.32c-0.07,0-.07-0.11,0-0.15a0.19,0.19,0,0,1,.19,0l0.29,0.15,0.58,0.31,1.14,0.66c0.76,0.44,1.5.92,2.24,1.4s1.47,1,2.18,1.5,1.42,1,2.09,1.62c-0.8-.39-1.56-0.83-2.32-1.28s-1.5-.92-2.24-1.4-1.46-1-2.17-1.5l-1.06-.79L112,34.44l-0.26-.2a0.14,0.14,0,0,0-.13,0S111.57,34.3,111.63,34.32Z" transform="translate(-3.26 -3.58)"/><path class="cls-45" d="M113,31.86a49.09,49.09,0,0,1,4.53,2.89c0.73,0.52,1.45,1,2.15,1.6s1.4,1.11,2.07,1.72c-0.79-.43-1.55-0.9-2.31-1.39s-1.49-1-2.22-1.5A49.09,49.09,0,0,1,113,31.86Z" transform="translate(-3.26 -3.58)"/><path class="cls-45" d="M114.38,29.81a21.33,21.33,0,0,1,4.29,2.64,22.94,22.94,0,0,1,1.9,1.66A18,18,0,0,1,122.27,36l-3.92-3.12Z" transform="translate(-3.26 -3.58)"/><path class="cls-45" d="M115.8,28.73a18.86,18.86,0,0,1,4,2.29,20.39,20.39,0,0,1,1.76,1.47,15.72,15.72,0,0,1,1.57,1.67c-0.63-.44-1.23-0.9-1.83-1.36l-1.81-1.36C118.23,30.54,117,29.67,115.8,28.73Z" transform="translate(-3.26 -3.58)"/><path class="cls-45" d="M117.89,27.29a13.19,13.19,0,0,1,4.71,2.56l2,1.72a11.62,11.62,0,0,0,2.2,1.45,7.18,7.18,0,0,1-2.45-1.12c-0.75-.5-1.43-1.09-2.12-1.64s-1.38-1.09-2.1-1.59S118.67,27.74,117.89,27.29Z" transform="translate(-3.26 -3.58)"/><path class="cls-10" d="M46,170.78a2.11,2.11,0,0,1-.35,1.29,2.14,2.14,0,0,1-1.79.46L20,171.34a15.19,15.19,0,0,1-6.37-1.25c-4.07-2.14-5.29-7.28-6.09-11.81L4,137.68c-0.86-4.91-1.52-10.61,1.83-14.31,2.38-2.63,6.08-3.4,9.65-3.84a1.53,1.53,0,0,0,1.33-1.42v0a1.52,1.52,0,0,1,1.46-1.43c6.19-.17,12.1,1.82,17.84,4,6,2.29,6.55,3.52,7.63,10A188.92,188.92,0,0,1,46,170.78Z" transform="translate(-3.26 -3.58)"/><g id="Octicons-5" data-name="Octicons"><g id="heart-2" data-name="heart"><path id="Shape-5" data-name="Shape" class="cls-46" d="M270.22,94.07a4.33,4.33,0,0,0-1.84-3.13,4.26,4.26,0,0,0-3.56-.67,9.76,9.76,0,0,0-1.85.54,8.76,8.76,0,0,0-.12-1.92A4.14,4.14,0,0,0,261,85.75a4.36,4.36,0,0,0-3.56-.67,4.73,4.73,0,0,0-2.71,1.76,9,9,0,0,0-1.48,3.86c-0.28,1.91.33,5.63,1.94,11.15,5.72-.36,9.46-1,11.16-1.93a9.27,9.27,0,0,0,3.12-2.71,4.88,4.88,0,0,0,.76-3.17Z" transform="translate(-3.26 -3.58)"/></g></g><path class="cls-47" d="M256.66,125.86c0.77-1.81,1.51-3.64,2.39-5.4a27.84,27.84,0,0,1,3.13-4.85,5.74,5.74,0,0,1,1.11-1.15,9.37,9.37,0,0,0,1-.69c-0.36.34-1.45-.17-1.75-0.39a3.59,3.59,0,0,1-1-1.39,13.41,13.41,0,0,1-1.83,4.89c-2.55,4.22-4.29,8.67-6.84,12.88a2.89,2.89,0,0,1-.8,1,2.15,2.15,0,0,1-1.94.05c0.81,0.61,2,1.39,3.15,2.25a3,3,0,0,1-.25-0.53,2.25,2.25,0,0,1,0-.74,4,4,0,0,1,1.39-2A12.93,12.93,0,0,0,256.66,125.86Z" transform="translate(-3.26 -3.58)"/><path class="cls-48" d="M43.7,130.72c-0.79-4.74-1.31-6.68-3.83-8.27-0.35,5.9,1.89,13.72,1.6,17.27a3.76,3.76,0,0,1-.69,2.21,4,4,0,0,1-2.64,1l-14.22,1.77a3.45,3.45,0,0,1-2.39-.28c-1-.71-1-2.23-0.81-3.47-0.64.51-1.27,1-1.95,1.48-3.84,2.62-8.57,3.42-13.22,4.33l2,11.49c0.8,4.53,2,9.67,6.09,11.81A15.19,15.19,0,0,0,20,171.34l23.82,1.2a2.14,2.14,0,0,0,1.79-.46,2.11,2.11,0,0,0,.35-1.29A188.92,188.92,0,0,0,43.7,130.72Z" transform="translate(-3.26 -3.58)"/></svg>