<svg id="Layer_1" data-name="Layer 1" xmlns="http://www.w3.org/2000/svg" xmlns:xlink="http://www.w3.org/1999/xlink" viewBox="0 0 337.79 274.59"><defs><style>.cls-1{fill:#c3676e;}.cls-2{fill:#e16a72;}.cls-3{fill:url(#linear-gradient);}.cls-4{fill:url(#linear-gradient-2);}.cls-5{fill:url(#linear-gradient-3);}.cls-6{fill:url(#linear-gradient-4);}.cls-7{fill:url(#linear-gradient-5);}.cls-8{fill:#230033;}.cls-9{fill:#77434f;}.cls-10{fill:url(#linear-gradient-6);}.cls-11{fill:#834e50;}.cls-12{fill:url(#linear-gradient-7);}.cls-13{fill:#cc7f6e;}.cls-14{fill:#529b40;}.cls-15{fill:url(#linear-gradient-8);}.cls-16{fill:#3e8033;}.cls-17{fill:#367b2b;}.cls-18{fill:url(#linear-gradient-9);}.cls-19{fill:#76ba44;}.cls-20{fill:url(#linear-gradient-10);}.cls-21{fill:url(#linear-gradient-11);}.cls-22{fill:#89c444;}.cls-23{fill:url(#linear-gradient-12);}.cls-24{fill:#f3f3f3;}.cls-25{fill:url(#linear-gradient-13);}.cls-26{fill:#86c946;}.cls-27{fill:url(#linear-gradient-14);}.cls-28{fill:#ffbd9f;}.cls-29{fill:#fb0;}.cls-30{fill:#ffdb01;}.cls-31{fill:#ff9d00;}.cls-32{fill:#013759;}.cls-33{fill:#971a1a;}.cls-34{fill:#cf725c;}.cls-35{fill:url(#linear-gradient-15);}.cls-36{fill:url(#linear-gradient-16);}.cls-37{fill:url(#linear-gradient-17);}.cls-38{fill:url(#linear-gradient-18);}.cls-39{fill:url(#linear-gradient-19);}.cls-40{fill:url(#linear-gradient-20);}.cls-41{fill:#ad0e34;}.cls-42{fill:url(#linear-gradient-21);}</style><linearGradient id="linear-gradient" x1="206.67" y1="208.74" x2="251.22" y2="245.33" gradientUnits="userSpaceOnUse"><stop offset="0" stop-color="#df6a73"/><stop offset="1" stop-color="#b2656b"/></linearGradient><linearGradient id="linear-gradient-2" x1="116.36" y1="265.27" x2="151.69" y2="253.84" xlink:href="#linear-gradient"/><linearGradient id="linear-gradient-3" x1="92.65" y1="203.1" x2="151.2" y2="216.27" xlink:href="#linear-gradient"/><linearGradient id="linear-gradient-4" x1="191.92" y1="190.91" x2="191.57" y2="165.97" xlink:href="#linear-gradient"/><linearGradient id="linear-gradient-5" x1="123.6" y1="160.86" x2="147.85" y2="166.4" xlink:href="#linear-gradient"/><linearGradient id="linear-gradient-6" x1="262.26" y1="26.53" x2="358.45" y2="26.53" gradientTransform="translate(7.94 32.96) rotate(2.96)" gradientUnits="userSpaceOnUse"><stop offset="0" stop-color="#703946"/><stop offset="1" stop-color="#64313e"/></linearGradient><linearGradient id="linear-gradient-7" x1="257.41" y1="43.9" x2="266.39" y2="29.86" gradientTransform="translate(7.94 32.96) rotate(2.96)" gradientUnits="userSpaceOnUse"><stop offset="0" stop-color="#834e50"/><stop offset="1" stop-color="#77434f"/></linearGradient><linearGradient id="linear-gradient-8" x1="76.67" y1="54.63" x2="96.69" y2="54.63" gradientTransform="translate(7.94 32.96) rotate(2.96)" gradientUnits="userSpaceOnUse"><stop offset="0" stop-color="#529b40"/><stop offset="1" stop-color="#3e8033"/></linearGradient><linearGradient id="linear-gradient-9" x1="104.52" y1="43.71" x2="115.76" y2="43.71" xlink:href="#linear-gradient-8"/><linearGradient id="linear-gradient-10" x1="92.46" y1="53.57" x2="84.08" y2="60.45" gradientTransform="translate(7.94 32.96) rotate(2.96)" gradientUnits="userSpaceOnUse"><stop offset="0" stop-color="#529b40"/><stop offset="1" stop-color="#76ba44"/></linearGradient><linearGradient id="linear-gradient-11" x1="99.84" y1="45.97" x2="113.45" y2="45.97" xlink:href="#linear-gradient-10"/><linearGradient id="linear-gradient-12" x1="85.88" y1="14.27" x2="100.98" y2="48.37" gradientTransform="translate(7.94 32.96) rotate(2.96)" gradientUnits="userSpaceOnUse"><stop offset="0" stop-color="#89c444"/><stop offset="1" stop-color="#76ba44"/></linearGradient><linearGradient id="linear-gradient-13" x1="110.48" y1="95.24" x2="131.69" y2="95.24" xlink:href="#linear-gradient-8"/><linearGradient id="linear-gradient-14" x1="126.19" y1="101.99" x2="121.56" y2="96.69" xlink:href="#linear-gradient-12"/><linearGradient id="linear-gradient-15" x1="154.84" y1="147.33" x2="171.86" y2="162.59" gradientTransform="translate(6.54 -99.57) rotate(-8.45)" gradientUnits="userSpaceOnUse"><stop offset="0" stop-color="#cc6952"/><stop offset="1" stop-color="#c45237"/></linearGradient><linearGradient id="linear-gradient-16" x1="157.26" y1="144.63" x2="174.28" y2="159.88" xlink:href="#linear-gradient-15"/><linearGradient id="linear-gradient-17" x1="154.1" y1="148.15" x2="171.12" y2="163.41" xlink:href="#linear-gradient-15"/><linearGradient id="linear-gradient-18" x1="131.11" y1="130.93" x2="158.51" y2="130.93" xlink:href="#linear-gradient-15"/><linearGradient id="linear-gradient-19" x1="115.7" y1="14.15" x2="158.98" y2="46.9" gradientTransform="matrix(1, 0, 0, 1, 0, 0)" xlink:href="#linear-gradient-15"/><linearGradient id="linear-gradient-20" x1="144.5" y1="128.77" x2="72.43" y2="116.34" gradientUnits="userSpaceOnUse"><stop offset="0" stop-color="#ffbd9f"/><stop offset="1" stop-color="#ffa57c"/></linearGradient><linearGradient id="linear-gradient-21" x1="244.09" y1="64.17" x2="248.04" y2="56.34" xlink:href="#linear-gradient-7"/></defs><title>getting-paid</title><path class="cls-1" d="M291.65,191.14a15.24,15.24,0,0,1-9.68,4.39,10.74,10.74,0,0,1-5.55-1.42,12.4,12.4,0,0,1-4.12-3.9,17.57,17.57,0,0,1-3-10.48,11,11,0,0,1,2-5.71,8.46,8.46,0,0,1,5.56-3.55,6,6,0,0,1,3.95.83,7.72,7.72,0,0,1,2.5,2.58,10.46,10.46,0,0,1,1.23,3,11.71,11.71,0,0,1,.26,1.61l0,0.84V180a11.48,11.48,0,0,1-.45,3.12A10.72,10.72,0,0,1,282.9,186c-0.57.81-1,1.38-1.53,2.08s-1,1.34-1.58,2a34.72,34.72,0,0,1-3.68,3.87,18.22,18.22,0,0,1-4.88,3.21,12.69,12.69,0,0,1-3.09.91c-0.6.11-.92,0.13-1.38,0.19s-0.89.09-1.36,0.12a12,12,0,0,1-6.55-1.15l-0.21-.11a3.45,3.45,0,1,1,3.2-6.1l0.33,0.2a5.42,5.42,0,0,0,2.93.55c0.34,0,.7,0,1.07,0s0.85,0,1-.09a6.24,6.24,0,0,0,1.6-.38c2.22-.8,4.49-2.79,6.54-5,0.52-.57,1-1.15,1.54-1.75s1.07-1.27,1.46-1.77a4.53,4.53,0,0,0,1.14-3l0-.55v-0.38a6.62,6.62,0,0,0-.08-0.8,5.39,5.39,0,0,0-.53-1.55,2.92,2.92,0,0,0-.77-1,1,1,0,0,0-.72-0.22l-0.26,0-0.35.1a4.6,4.6,0,0,0-.67.31,4.52,4.52,0,0,0-1.21,1.06,6.58,6.58,0,0,0-1.36,3.32,13.59,13.59,0,0,0,1.89,8.08,7.85,7.85,0,0,0,6.48,4.08c2.71,0.09,5.54-1.27,7.86-3.19A1.38,1.38,0,0,1,291.65,191.14Z" transform="translate(-26.9 -0.65)"/><path class="cls-2" d="M155.94,159.87c21.62-21.62,80-23.53,102.72,12.05s-11.48,92-18,94.31-11.67,2.3-16.83-5.55-17.79-8.61-22.38.57-12.09,20.79-20.09,9c-7.65-11.29-11.48-14-16.83-14.73,0,0-6.7,11.48-15.88,9.37s-10.52-15.69-9.95-23.34c0,0-11.86-5.13-16.54-15.32-6.71-2.49-6.42-6.1-6.61-14.13s1.53-15.49,8-15.69,14.73-5.16,17.6-13a94.24,94.24,0,0,1,4.21-10.33,16.48,16.48,0,0,1-4.89-7.08c-3.69-9.83.11-11.09,5.08-9.75A90.45,90.45,0,0,1,155.94,159.87Z" transform="translate(-26.9 -0.65)"/><path class="cls-3" d="M258.66,171.92a53.91,53.91,0,0,0-12.58-13.66c8,9.31,15.12,23.55,16,35.83,0.46,6.26.6,12.61-.61,18.77-1.86,9.43-9,19.42-16.34,25.67-5.68,4.85-15.65,5.68-23.09,5.07-4.21-.34-8.33-1.94-12.54-1.61-5.05.4-9.57,3.6-12.63,7.64-4.33,5.73-7.3,12.78-10.28,19.25-0.77,1.67-1.42,3.59-.79,5.32a3.69,3.69,0,0,0,.25.48c6.18,2.84,11.73-6.07,15.41-13.44,4.59-9.18,17.22-8.42,22.38-.57s10.33,7.84,16.83,5.55S281.42,207.5,258.66,171.92Z" transform="translate(-26.9 -0.65)"/><path class="cls-4" d="M154,264.67c4.47-1.18,8.95-6.28,10.54-9.15-4.06-1.44-10.1-5-13.23-7.09-2.47-1.63-5.09-3.31-8-3.46-0.28,2.4,2.49,3.91,3.68,6,1.82,3.2-.18,7.57,1.65,10.76A6.43,6.43,0,0,0,154,264.67Z" transform="translate(-26.9 -0.65)"/><path class="cls-5" d="M152.42,200.39a9.53,9.53,0,0,0-3.28-1.1l-7.25-1.48c-4.76-1-17-1.44-18.28-1.4-6.5.19-8.23,7.65-8,15.69s-0.1,11.65,6.61,14.13l0,0,0.59,0.07c7.27,0.75,14.38,1.85,21.61,3.13a20.54,20.54,0,0,0,5.74.47c5.28-.57,9.05-5,8.32-10.06-0.88-6.12-.26-12.17-4.09-17.5A7.39,7.39,0,0,0,152.42,200.39Z" transform="translate(-26.9 -0.65)"/><path class="cls-6" d="M180.93,168.61a7.84,7.84,0,0,0-1.22,4.75c0.27,1.64,2,3.13,3.54,2.55a7.45,7.45,0,0,0,1.82-1.34,6.82,6.82,0,0,1,5.75-1,17.54,17.54,0,0,1,5.39,2.63c1.87,1.22,3.84,2.57,6.07,2.57a1.45,1.45,0,0,0,1.23-.46,1.5,1.5,0,0,0,.21-0.77c0.3-4.64-3.23-8.54-6.52-11.83-1.68-1.68-7-8.3-9.63-7.53C185.09,158.94,182.06,166.45,180.93,168.61Z" transform="translate(-26.9 -0.65)"/><path class="cls-7" d="M149.52,162.76a16.37,16.37,0,0,0-3.85-3.56,5.54,5.54,0,0,0-5-.51,3.89,3.89,0,0,0-1.57,1.4,20.59,20.59,0,0,0,1.46,5.91,17,17,0,0,0,4.57,6.81c1.67-2.25,3.84-4.16,5-6.69a3,3,0,0,0,.36-1.75A3.52,3.52,0,0,0,149.52,162.76Z" transform="translate(-26.9 -0.65)"/><path class="cls-8" d="M189.12,145.18c1-.15,1.92.65,2.75,1.1a10.25,10.25,0,0,1,2.19,1.62c0.63,0.6.93,1.18,1.84,1.06,1.35-.18,2.64-0.58,4-0.79a70.4,70.4,0,0,1,7.57-.94,75,75,0,0,1,8.37-.25,57.74,57.74,0,0,1,6.11.41c1.54,0.28,3.11.43,4.64,0.75A84,84,0,0,0,189.12,145.18Z" transform="translate(-26.9 -0.65)"/><ellipse class="cls-8" cx="147.9" cy="197.01" rx="2.53" ry="3.81"/><path class="cls-8" d="M127.84,211.6c0.18,4.77-1.14,8.43-2.92,8.11s-3.26-4.38-3.38-9,1.15-8,2.85-7.86S127.66,206.92,127.84,211.6Z" transform="translate(-26.9 -0.65)"/><path class="cls-8" d="M147.12,214.85c0,5.23-1.88,9-4.28,8.28s-4.22-5.41-4.19-10.48,1.88-8.53,4.17-8S147.07,209.72,147.12,214.85Z" transform="translate(-26.9 -0.65)"/><path class="cls-9" d="M272.66,85.19c12.32,0.71,44.4,7.61,62.39,4.6s29.89-3,29.63-15.64S359.8,57.5,345,51.12s-24.6-1-32.19,5-21.24,10.74-28.16,6.64S260.49,69,272.66,85.19Z" transform="translate(-26.9 -0.65)"/><path class="cls-10" d="M272.66,85.19c12.32,0.71,44.4,7.61,62.39,4.6s29.89-3,29.63-15.64a35.7,35.7,0,0,0-.45-5.27,11.37,11.37,0,0,0-6.75-5.8c-4.57-1.31-9.36.74-13.74,2.6a206.68,206.68,0,0,1-27.93,9.58c-4.62,1.22-9.44,2.29-14.14,1.43a6.7,6.7,0,0,1-4.18-2.11A11.87,11.87,0,0,1,296,70.88a13.37,13.37,0,0,0-5-6.6,12.74,12.74,0,0,1-6.36-1.54C277.71,58.64,260.49,69,272.66,85.19Z" transform="translate(-26.9 -0.65)"/><path class="cls-11" d="M259,68.92c-12.83,7.2-18.15,12-23,19.2s-3.23,7.39-2.61,10.07,1.88,2.62,5.17-1.57S252.23,80.85,253,82.17s-5.92,15.78-7.63,19.31,0.19,4.63,1.15,5.18,4.14,3.14,5.61,3.84,4-1,4.63-3.26,5.4-10.1,6-8.95-0.17,4.41-3.18,8.87-3,6-.9,6.32,3-1.41,5.5-5.84c2.88-5.07,10.23-13.54,16.62-17.4S291.4,85,291.78,76s-6.63-13.29-13.14-19.06-22.24-15.65-24.48-16.57-3.52.65-2.39,3.48,2.46,6.39,6.87,8.91,9.29,6.28,9.69,7.78S265.55,65.24,259,68.92Z" transform="translate(-26.9 -0.65)"/><path class="cls-12" d="M287.33,86.13h0a12,12,0,0,1-2.14-1.5c-1.76-1.6-2.82-3.89-4.66-5.4a22.24,22.24,0,0,0-4.94-2.6c-3.09-1.44-6-3.72-7.09-7-0.73-2.28-.56-4.83-1-7.12l-0.17.21-0.3.47a0.83,0.83,0,0,1-.55.43A37.61,37.61,0,0,1,259,68.92c-1.77,1-3.39,1.94-4.9,2.86a11.71,11.71,0,0,0,.58,1.61,23.43,23.43,0,0,0,3.12,4.8,4.81,4.81,0,0,0,1.92,1.68,6.66,6.66,0,0,0,3.37-.15c2.62-.42,6.36.35,8.06,2.58s2.45,6.08,2.95,8.93c0.22,1.25.4,2.51,0.59,3.77h0c0.46-.43.93-0.84,1.39-1.24l0.43-.36,1-.81,0.49-.38,1-.73,0.44-.31c0.47-.32.93-0.63,1.39-0.9l1.61-1A41.92,41.92,0,0,0,287.33,86.13Z" transform="translate(-26.9 -0.65)"/><path class="cls-13" d="M90.49,119.25c6.11-14.15,11.59-25,17-27.37s1.72,6.41-5.38,23S90.49,119.25,90.49,119.25Z" transform="translate(-26.9 -0.65)"/><path class="cls-14" d="M100.84,108.69c-2.41-2.25-8.16-3-11.24-3q-6.05-.05-12.08.29c-0.76,0-1.74-.07-2-0.86a2,2,0,0,1,.25-1.41c2.21-4.91,3.22-10.4,5-15.53S85.38,78,90,75.69" transform="translate(-26.9 -0.65)"/><path class="cls-15" d="M90,75.69C86.32,77.52,83.8,81.06,82,85a6.74,6.74,0,0,1,1.39,1.86,15.17,15.17,0,0,1,1.19,4,10.21,10.21,0,0,1,.15,4.52c-0.41,1.57-1.5,2.89-1.9,4.46a2.65,2.65,0,0,0,0,1.56,2.56,2.56,0,0,0,2.36,1.43,18.22,18.22,0,0,0,2.9-.35c3.32-.39,6.59,1.22,9.13,3.38,0.64,0.54,1.24,1.11,1.82,1.71a7.22,7.22,0,0,1,1.77,1.16Z" transform="translate(-26.9 -0.65)"/><path class="cls-16" d="M125.68,70.22c4.92,2.22,10.17,4.72,13.13,9.57-4.82,3-9.68,6-13.66,10.22s-7,9.65-7.43,15.79l-16.46-4" transform="translate(-26.9 -0.65)"/><path class="cls-17" d="M130.09,82.56c1-1,1.5-2.78.54-3.84-0.29-.32-0.68-0.54-1-0.85a2.76,2.76,0,0,1-.63-2.21,6.46,6.46,0,0,1,.79-2.22c0.17-.32.36-0.64,0.54-1-1.54-.82-3.12-1.57-4.68-2.27l-5.58,7.23-0.38,15a13.53,13.53,0,0,1,6.66-7.83A14.4,14.4,0,0,0,130.09,82.56Z" transform="translate(-26.9 -0.65)"/><path class="cls-14" d="M116.67,65.14a26.56,26.56,0,0,0,9.4,2.93,2.89,2.89,0,0,1,2.17.89c0.77,1.07,0,2.5-.72,3.51-3.5,5-5.6,11-7.66,16.89-1.05,3-2.12,6.14-2.12,9.44a22.82,22.82,0,0,0,.74,5.34,43.13,43.13,0,0,0,3.13,8.7l-8.35,3.56L101.43,82.68" transform="translate(-26.9 -0.65)"/><path class="cls-18" d="M114.73,98.63c1.69-6.32,2.33-12.87,3.8-19.25,0.94-4.1,2.23-8.12,3.55-12.12a27,27,0,0,1-5.18-2A21.18,21.18,0,0,0,110.22,79a37.61,37.61,0,0,0,.12,5.69,94.11,94.11,0,0,0,1.21,9.95,10.49,10.49,0,0,0,1.31,3.88,1.85,1.85,0,0,0,.72.71,0.8,0.8,0,0,0,.94-0.15A1.2,1.2,0,0,0,114.73,98.63Z" transform="translate(-26.9 -0.65)"/><path class="cls-19" d="M116.08,105.74a55.77,55.77,0,0,1-7.59-24.46c-0.39-5.79-.74-11-3-16.36-4.55,4-10.49,5.72-16.25,7.31-4.53,1.25-9.17,2.55-12.1,6.39,6.32,4.32,10.91,11,15.33,17.58l8.45,12.5" transform="translate(-26.9 -0.65)"/><path class="cls-20" d="M114,106.15q0.5-1.33.86-2.7a55.78,55.78,0,0,1-6.33-22.18A66.12,66.12,0,0,0,107,69.46a47,47,0,0,0-4.74-2.2c-4,2.4-8.52,3.73-13,5-1.5.42-3,.84-4.48,1.36a53.26,53.26,0,0,1,8.71,13.27c0.49,1.06.89,2.43,0.1,3.28-1.11,1.19-3.15,0-4.7.54-0.06,0-.11.06-0.17,0.09,1.29,1.79,2.53,3.61,3.76,5.43l8.45,12.5Z" transform="translate(-26.9 -0.65)"/><path class="cls-19" d="M106.28,64.55a51.24,51.24,0,0,0,13.83-1.67c1.37,3.69-.56,7.5-1.74,11.08a56.28,56.28,0,0,0-2,10.13c-1.19,8.78-2.25,18.32,1.78,26.42l-11.08,6.2" transform="translate(-26.9 -0.65)"/><path class="cls-21" d="M117.53,68.69a2.73,2.73,0,0,0-2.57.06,1.15,1.15,0,0,1-.78.31,0.88,0.88,0,0,1-.53-0.79,12.23,12.23,0,0,1,0-4.13,51.59,51.59,0,0,1-7.34.42l0.61,39.9a17.77,17.77,0,0,0,5.3-.83,19.6,19.6,0,0,0,3.49-1.33c-0.85-6-.11-12.25.69-18.2a56.28,56.28,0,0,1,2-10.13c0.38-1.14.83-2.31,1.23-3.48l-0.05-.07A5.88,5.88,0,0,0,117.53,68.69Z" transform="translate(-26.9 -0.65)"/><path class="cls-22" d="M106.16,112.15a33.18,33.18,0,0,0,11.9-2.33c-5.26-8.12-5.78-18.42-6.1-28.06l-0.4-12c-0.06-1.87-.24-3.78-0.25-5.65,0-1,.45-2.6-0.78-3.1a2.29,2.29,0,0,0-1.23,0,44.5,44.5,0,0,0-8,2.39l-17,6.26c-0.5.18-1.27,0.49-1.25,1.15s0.64,0.55,1.09.93A28.33,28.33,0,0,1,87.27,75c12.57,14.67,14.41,36.92,14.41,36.92" transform="translate(-26.9 -0.65)"/><path class="cls-23" d="M112,81.76l-0.4-12c-0.06-1.87-.24-3.78-0.25-5.65,0-.51.11-1.19,0.06-1.79a19.3,19.3,0,0,0-1.53,1.49,43.68,43.68,0,0,0-5.65,7.89,22.65,22.65,0,0,0-2,4.31,7.2,7.2,0,0,1-.7,1.76,1.81,1.81,0,0,1-1.57.91,2.59,2.59,0,0,1-1.25-.61c-1.82-1.34-2.93-3.28-5-4.24a1.68,1.68,0,0,0-1.41-.15c-0.8.39-.63,1.58-0.31,2.42A69.12,69.12,0,0,0,98.34,89c1.58,2.46,3.37,5,3.58,7.9a0.93,0.93,0,0,1-.2.79,0.91,0.91,0,0,1-.6.16,6.87,6.87,0,0,1-2.38-.42,80.53,80.53,0,0,1,2.94,14.54l4.48,0.23a33.18,33.18,0,0,0,11.9-2.33C112.8,101.7,112.28,91.4,112,81.76Z" transform="translate(-26.9 -0.65)"/><path class="cls-24" d="M104.89,93A3.41,3.41,0,0,0,103,95.34a10.79,10.79,0,0,0,1.2,9.05,6.84,6.84,0,0,0,2.4,2.41,4.21,4.21,0,0,0,3.47.35,4,4,0,0,0,2.19-2.49c0.8-2.27.25-4.75-.36-7.08S108.18,91.78,104.89,93Z" transform="translate(-26.9 -0.65)"/><path class="cls-17" d="M132.21,122.31a25.7,25.7,0,0,1,4.62,5.52l4.49,6.51c-1.44,1.76-3.51,2.75-5.31,4.08-1.47,1.09-2.78,2.42-4.27,3.49a32.46,32.46,0,0,1-2.79,1.75l-3.27,1.9a70.36,70.36,0,0,1-8.35,4.36,4.57,4.57,0,0,1,.28-2.45,13.33,13.33,0,0,0,.32-5.33" transform="translate(-26.9 -0.65)"/><path class="cls-14" d="M113.15,137.58q0.67,3.84,1.17,7.69c2.43-.13,5,0.53,7.3-0.11a13.45,13.45,0,0,0,3.61-1.82l7.18-4.59c0.79-.51,1.58-1,2.33-1.59a19.67,19.67,0,0,1,2-1.53,1.4,1.4,0,0,0,.56-0.46,1.29,1.29,0,0,0,.12-0.66,9.2,9.2,0,0,0-.66-2.83q-1.31-3.72-2.91-7.32a3.82,3.82,0,0,0-1.62-2.1" transform="translate(-26.9 -0.65)"/><path class="cls-25" d="M132.61,130.56a32.27,32.27,0,0,0-2.82-2.73,8.38,8.38,0,0,0-2.9-1.27l-13.75,11q0.32,1.8.59,3.6a8.06,8.06,0,0,1,2.7-1.57,3.41,3.41,0,0,1,3.72,1c0.23,0.32.38,0.68,0.61,1a1.22,1.22,0,0,0,1,.56,1.62,1.62,0,0,0,.91-0.47l1.54-1.28a9,9,0,0,1,1.15-.86,9.83,9.83,0,0,1,1.51-.67q1.94-.74,3.82-1.63,0.94-.44,1.86-0.92a3.41,3.41,0,0,0,1.49-.82,4.39,4.39,0,0,0,.58-2.47C134.43,132,133.33,131.23,132.61,130.56Z" transform="translate(-26.9 -0.65)"/><path class="cls-26" d="M104.83,114.06a16.26,16.26,0,0,1,2.14,5.5c0.17,0.87.26,1.75,0.35,2.62,0.56,5.21,1.11,10.42,1.49,15.64,0.09,1.29.18,2.59,0.39,3.87a0.64,0.64,0,0,0,.2.43,0.46,0.46,0,0,0,.33.05c1.13-.14,2-1,2.89-1.76a21.55,21.55,0,0,1,3.84-2.28,4.32,4.32,0,0,1,2.37-.66c1.73,0.2,3.2,2.35,4.86,1.95a6.27,6.27,0,0,0,1.66-1c1.14-.7,2.56-0.7,3.83-1.12,1.9-.63,3.38-2.15,4.79-3.63a2.89,2.89,0,0,0,1-1.68,3.43,3.43,0,0,0-.35-1.52L131,121.57c-0.16-.4-0.51-0.9-0.86-0.72" transform="translate(-26.9 -0.65)"/><path class="cls-27" d="M128.77,130.31l4.7-2.68-2.17-5.39c-8.2,1.33-16,4.75-23,9.12,0.2,2.15.4,4.3,0.55,6.46,0,0.25,0,.5.06,0.75l0.05,0,8-3a1.37,1.37,0,0,1,1-.11c0.56,0.24.53,1,.76,1.59a1.74,1.74,0,0,0,.27.45c1.66,0.31,3.09,2.3,4.7,1.91a6.27,6.27,0,0,0,1.66-1c1.14-.7,2.56-0.7,3.83-1.12a8.38,8.38,0,0,0,2.82-1.7,0.37,0.37,0,0,0,0-.08,0.73,0.73,0,0,0-.48-0.52l-3.25-1.7a2,2,0,0,1-.93-0.77,1.32,1.32,0,0,1,.24-1.36A3.88,3.88,0,0,1,128.77,130.31Z" transform="translate(-26.9 -0.65)"/><path class="cls-28" d="M135.72,106.71c-2.68-3.26-.5-3.38.05-6.72,0.44-2.68-3.34-3.79-3-6.21a4.82,4.82,0,0,1,.61-1.25,2.91,2.91,0,0,0-.53-2.95,8.55,8.55,0,0,0-2.49-1.91,4.83,4.83,0,0,0-2-.8,3.64,3.64,0,0,0-1.77.33c-5.61,2.54-8.72,3.56-14.68,9.65-6.73,6.86-14.37,15.87-21.45,22.41-10.91,10.07-13.58,6.15-22.64,2.22-16.64-7.22-28.39-16.25-41-20.94,0.93,1.46,1.35,3.46,1.89,6.67a200.07,200.07,0,0,1,2.53,40.27,235.24,235.24,0,0,0,34.36-.27A152.3,152.3,0,0,0,98,141.36c10.66-3.27,17.64-5.16,27.12-11,4.16-2.58,13.71-6.52,10.76-13-1.38-3,.09-4.06.63-7.06A4.43,4.43,0,0,0,135.72,106.71Z" transform="translate(-26.9 -0.65)"/><path class="cls-29" d="M228.66,81.66a2.29,2.29,0,0,1,.84.22,1.2,1.2,0,0,1,.8,1.21,0.66,0.66,0,0,0,.23.58,1.26,1.26,0,0,1,.29,1.59,3.17,3.17,0,0,1-.52.78,6.2,6.2,0,0,1-1,1,17.38,17.38,0,0,1-7.87,3.28,4.12,4.12,0,0,1-2.06-.11,1.29,1.29,0,0,1-1-1.3,0.68,0.68,0,0,0-.25-0.57,1.25,1.25,0,0,1-.27-1.54,3.45,3.45,0,0,1,.6-0.89,6.55,6.55,0,0,1,1.1-1,17.63,17.63,0,0,1,7.64-3.16A6.42,6.42,0,0,1,228.66,81.66Z" transform="translate(-26.9 -0.65)"/><path class="cls-30" d="M228.54,82.77a6.9,6.9,0,0,0-1.9.16,17.21,17.21,0,0,0-6.19,2.67A5.12,5.12,0,0,0,219,87c-0.25.39-.18,0.56,0.26,0.66a3.35,3.35,0,0,0,1.27,0,16.19,16.19,0,0,0,7.69-3.31,3.64,3.64,0,0,0,.78-0.83c0.31-.46.24-0.61-0.29-0.73Z" transform="translate(-26.9 -0.65)"/><path class="cls-31" d="M220.23,89.24c0.28,0,.64,0,1-0.05a16.34,16.34,0,0,0,7.1-2.87,9.85,9.85,0,0,0,1-.82,2.22,2.22,0,0,0,.48-0.64,0.24,0.24,0,0,0,0-.31c-0.12-.1-0.2,0-0.27.1a7.35,7.35,0,0,1-1.17,1A17,17,0,0,1,220,88.81c-0.14,0-.37-0.09-0.4.12s0.24,0.2.39,0.26A2,2,0,0,0,220.23,89.24Z" transform="translate(-26.9 -0.65)"/><path class="cls-29" d="M195.14,93.73a2.15,2.15,0,0,1,.71.41,1.12,1.12,0,0,1,.42,1.29,0.62,0.62,0,0,0,.06.58,1.18,1.18,0,0,1-.14,1.51,3,3,0,0,1-.66.58,5.81,5.81,0,0,1-1.18.6,16.29,16.29,0,0,1-7.94,1,3.86,3.86,0,0,1-1.83-.62,1.21,1.21,0,0,1-.55-1.42,0.64,0.64,0,0,0-.08-0.58,1.17,1.17,0,0,1,.15-1.46,3.23,3.23,0,0,1,.76-0.66,6.14,6.14,0,0,1,1.24-.61,16.52,16.52,0,0,1,7.7-.93A6,6,0,0,1,195.14,93.73Z" transform="translate(-26.9 -0.65)"/><path class="cls-30" d="M194.75,94.69a6.47,6.47,0,0,0-1.76-.34,16.13,16.13,0,0,0-6.27.85,4.79,4.79,0,0,0-1.66.88c-0.33.29-.3,0.46,0.07,0.66a3.14,3.14,0,0,0,1.14.34,15.17,15.17,0,0,0,7.78-1,3.41,3.41,0,0,0,.92-0.55c0.39-.34.37-0.49-0.08-0.73Z" transform="translate(-26.9 -0.65)"/><path class="cls-31" d="M185.62,98.45c0.26,0.06.58,0.16,0.91,0.2a15.32,15.32,0,0,0,7.13-.8,9.23,9.23,0,0,0,1.09-.5,2.08,2.08,0,0,0,.6-0.46,0.22,0.22,0,0,0,.08-0.28c-0.08-.12-0.19,0-0.27,0a6.89,6.89,0,0,1-1.31.62,15.93,15.93,0,0,1-8.37.73c-0.13,0-.31-0.17-0.39,0s0.17,0.24.29,0.33A1.86,1.86,0,0,0,185.62,98.45Z" transform="translate(-26.9 -0.65)"/><path class="cls-29" d="M205.24,85a4.9,4.9,0,0,1-1.27-.43,9.16,9.16,0,0,1-1.57-.94,21.37,21.37,0,0,1-5.8-6.35,6.69,6.69,0,0,1-1.08-2.88,1.52,1.52,0,0,1,1.12-1.84,0.77,0.77,0,0,0,.43-0.41,1.63,1.63,0,0,1,2-.94,5.79,5.79,0,0,1,1.82.77,20.27,20.27,0,0,1,7.17,7.81,5.18,5.18,0,0,1,.63,2.12,1.55,1.55,0,0,1-1.1,1.72,0.73,0.73,0,0,0-.46.38A1.57,1.57,0,0,1,205.24,85Z" transform="translate(-26.9 -0.65)"/><path class="cls-30" d="M198.78,72.5c-0.41-.07-0.56.06-0.47,0.62a5.36,5.36,0,0,0,.63,1.7,18,18,0,0,0,2.81,3.83,16.06,16.06,0,0,0,4,3.25,3.51,3.51,0,0,0,1.17.46c0.42,0.06.53,0,.52-0.46a3.58,3.58,0,0,0-.37-1.29,13.85,13.85,0,0,0-1.84-3,18.91,18.91,0,0,0-4.92-4.55A4.1,4.1,0,0,0,198.78,72.5Z" transform="translate(-26.9 -0.65)"/><path class="cls-31" d="M205.39,83.7c0.16,0,.4.09,0.47-0.13s-0.18-.22-0.32-0.29A17.52,17.52,0,0,1,200,78.7a15.27,15.27,0,0,1-2.81-4.49c-0.05-.14-0.08-0.36-0.28-0.31s-0.13.27-.12,0.42a3.58,3.58,0,0,0,.32,1.14,13.34,13.34,0,0,0,1.87,3A19.12,19.12,0,0,0,203.86,83,5.23,5.23,0,0,0,205.39,83.7Z" transform="translate(-26.9 -0.65)"/><path class="cls-29" d="M207.91,107.44a9.42,9.42,0,0,1-2.53-.71,2.9,2.9,0,0,1-1-.7,1.31,1.31,0,0,1-.28-1.47,0.83,0.83,0,0,0,0-.78,1.42,1.42,0,0,1,.4-1.77,4.67,4.67,0,0,1,1.7-1,16.87,16.87,0,0,1,5.42-.91,16.18,16.18,0,0,1,5,.52,5.34,5.34,0,0,1,1.71.77,1.47,1.47,0,0,1,.6,1.91,0.71,0.71,0,0,0,.05.63,1.46,1.46,0,0,1-.37,1.79,4.64,4.64,0,0,1-1.76,1,16.78,16.78,0,0,1-4.74.87A20.84,20.84,0,0,1,207.91,107.44Z" transform="translate(-26.9 -0.65)"/><path class="cls-30" d="M208.23,104.38a18.46,18.46,0,0,0,3.28.15,16.06,16.06,0,0,0,4.82-.81,3.9,3.9,0,0,0,1.27-.66c0.31-.26.3-0.41,0-0.65a4.27,4.27,0,0,0-1.53-.62,16.28,16.28,0,0,0-4.13-.41,17.29,17.29,0,0,0-4.84.69,4.45,4.45,0,0,0-1.62.78c-0.3.26-.29,0.42,0,0.66a3.1,3.1,0,0,0,1,.45A9.26,9.26,0,0,0,208.23,104.38Z" transform="translate(-26.9 -0.65)"/><path class="cls-31" d="M208.68,106.3a13.8,13.8,0,0,0,2.12.12,17.42,17.42,0,0,0,5.51-.78,3.87,3.87,0,0,0,1.4-.72c0.1-.09.27-0.2,0.13-0.37s-0.23,0-.34,0a12.14,12.14,0,0,1-3.48,1,19,19,0,0,1-8-.41c-0.2-.06-0.49-0.4-0.63-0.06s0.27,0.37.48,0.49a4.21,4.21,0,0,0,.55.24A10.21,10.21,0,0,0,208.68,106.3Z" transform="translate(-26.9 -0.65)"/><path class="cls-29" d="M181.7,117.29a11.76,11.76,0,0,1,1.63-2.84,3.62,3.62,0,0,1,1.15-1,1.63,1.63,0,0,1,1.86.11,1,1,0,0,0,.94.21,1.78,1.78,0,0,1,2,1,5.84,5.84,0,0,1,.65,2.35,21.07,21.07,0,0,1-.56,6.83,20.2,20.2,0,0,1-2.16,5.92,6.67,6.67,0,0,1-1.46,1.84,1.84,1.84,0,0,1-2.49.14,0.89,0.89,0,0,0-.78-0.13,1.82,1.82,0,0,1-2.05-1,5.79,5.79,0,0,1-.68-2.44,21,21,0,0,1,.4-6A26,26,0,0,1,181.7,117.29Z" transform="translate(-26.9 -0.65)"/><path class="cls-30" d="M185.31,118.63a23,23,0,0,0-1.18,3.92,20,20,0,0,0-.5,6.08,4.87,4.87,0,0,0,.41,1.74c0.22,0.45.41,0.49,0.79,0.16a5.33,5.33,0,0,0,1.22-1.66,20.32,20.32,0,0,0,1.76-4.87,21.59,21.59,0,0,0,.65-6.07,5.56,5.56,0,0,0-.45-2.2c-0.22-.45-0.42-0.49-0.8-0.17a3.87,3.87,0,0,0-.84,1A11.56,11.56,0,0,0,185.31,118.63Z" transform="translate(-26.9 -0.65)"/><path class="cls-31" d="M182.85,118.57a17.23,17.23,0,0,0-.8,2.52,21.75,21.75,0,0,0-.74,6.9,4.83,4.83,0,0,0,.45,1.92c0.08,0.15.16,0.39,0.4,0.27s0.08-.28.05-0.43a15.15,15.15,0,0,1-.09-4.51,23.7,23.7,0,0,1,2.95-9.57c0.13-.22.63-0.47,0.26-0.75s-0.53.21-.74,0.43a5.25,5.25,0,0,0-.46.6A12.75,12.75,0,0,0,182.85,118.57Z" transform="translate(-26.9 -0.65)"/><path class="cls-29" d="M232.62,115.8a12.19,12.19,0,0,1-3.31-1.78,3.68,3.68,0,0,1-.94-1,1.69,1.69,0,0,1,.06-2,0.89,0.89,0,0,0,.19-0.86,1.77,1.77,0,0,1,1-2,5.59,5.59,0,0,1,2.34-.68,19.29,19.29,0,0,1,5.54.27,22.21,22.21,0,0,1,7.31,2.42,6.63,6.63,0,0,1,1.71,1.32,1.88,1.88,0,0,1,.22,2.64,0.88,0.88,0,0,0-.11.7,1.88,1.88,0,0,1-1.09,2.18,6.28,6.28,0,0,1-2.45.63,22.92,22.92,0,0,1-7.29-.7A22.37,22.37,0,0,1,232.62,115.8Z" transform="translate(-26.9 -0.65)"/><path class="cls-30" d="M241.94,110.43a25,25,0,0,0-7.54-1.58,12.27,12.27,0,0,0-2.91.15,3.42,3.42,0,0,0-1.07.36,0.37,0.37,0,0,0-.15.62,3.74,3.74,0,0,0,.59.6,9.51,9.51,0,0,0,2.29,1.3,24.92,24.92,0,0,0,8.62,1.83,9.7,9.7,0,0,0,2.44-.18c0.49-.11,1.17-0.13,1.29-0.63s-0.49-.81-0.89-1.11A12.23,12.23,0,0,0,241.94,110.43Z" transform="translate(-26.9 -0.65)"/><path class="cls-31" d="M233,114.28a24.78,24.78,0,0,0,8.35,1.73,11.06,11.06,0,0,0,2.53-.2,2.61,2.61,0,0,0,1-.4c0.09-.07.22-0.15,0.12-0.3a0.22,0.22,0,0,0-.24-0.09l-0.37.07a23.15,23.15,0,0,1-13.91-2.83c-0.23-.13-0.47-0.63-0.75-0.27s0.21,0.53.42,0.74a5.47,5.47,0,0,0,.68.51A9.69,9.69,0,0,0,233,114.28Z" transform="translate(-26.9 -0.65)"/><g id="Octicons"><g id="thumbsup"><path id="Shape" class="cls-32" d="M179.68,83.39c-0.52.5-1.69-.11-2.26-0.62l-4.93-4.43-0.6-1.95,4.2-4.67c1.06,1,2.17.89,3.75,0.73,1.91-.2,2.68-1.19,3.58-2.6a1.06,1.06,0,0,1,1.48-.08c0.65,0.58-.35,3.52-1.24,4.51l-0.74.79a0.9,0.9,0,0,0,.11,1.47l1.56,1.4a1,1,0,0,1,.08,1.48l-5,4h0Zm5.6-6.23-1.56-1.4h0l0.7-.75c0.91-1,2.6-4.73,1.18-6a2.19,2.19,0,0,0-1.75-.49,1.78,1.78,0,0,0-1.31.8c-0.84,1.33-1.38,2-2.79,2.11s-2.24.17-2.95-.47l-1.56-1.4a2.14,2.14,0,0,0-2.95.15l-2.8,3.11a2.16,2.16,0,0,0,.16,3L171,77l0.52,1.68a1.09,1.09,0,0,0,.31.47l4.93,4.43c0.88,0.79,2.56,1.6,3.65.64l4.93-3.94a0.79,0.79,0,0,0,.16-0.14,2,2,0,0,0-.18-2.93h0Z" transform="translate(-26.9 -0.65)"/></g></g><g id="Octicons-2" data-name="Octicons"><g id="heart"><path id="Shape-2" data-name="Shape" class="cls-33" d="M222.06,116.37a5.25,5.25,0,0,0-4.32.83,5.16,5.16,0,0,0-2.21,3.8,11.84,11.84,0,0,0-.13,2.33,10.62,10.62,0,0,0-2.24-.64,5,5,0,0,0-4.32.83,5.28,5.28,0,0,0-2.21,3.8,5.74,5.74,0,0,0,.92,3.81,10.91,10.91,0,0,0,3.81,3.26c2.07,1.1,6.57,1.9,13.53,2.3,1.91-6.69,2.69-11.21,2.31-13.54a11.24,11.24,0,0,0-1.83-4.66,5.91,5.91,0,0,0-3.32-2.16Z" transform="translate(-26.9 -0.65)"/></g></g><g id="Octicons-3" data-name="Octicons"><g id="star"><polygon id="Shape-3" data-name="Shape" class="cls-29" points="148.21 102.81 145.85 99.52 147.28 95.82 143.5 97 140.38 94.43 140.44 98.41 137.09 100.5 140.9 101.79 141.93 105.68 144.25 102.48 148.21 102.81"/></g></g><g id="Octicons-4" data-name="Octicons"><g id="star-2" data-name="star"><polygon id="Shape-4" data-name="Shape" class="cls-29" points="194.81 72.22 196.05 66.17 201.68 63.95 196.44 60.93 196.09 54.77 191.69 58.96 185.87 57.37 188.38 62.98 185.08 68.16 191.07 67.44 194.81 72.22"/></g></g><path class="cls-34" d="M208.75,34.84c-0.9-1.54-13.78-15-17.16-18.63s-5.09-3.84-8.52-3.14-12.05,1.65-13.7,1,2.3-4.76,6-6.39,7-2.46,6.63-4.78-1.58-2.81-5.2-1.44-9.3,3.06-15.63,6.73-17.12,7.34-26.2,5c-3.53-.92-10-4.24-17.35-8.86A20.51,20.51,0,0,1,116,6.13q-2,2.44-4,5-3.8,5-7.18,10.27a6,6,0,0,1-2.15,2.27l0.1,0c16,5.82,25,7.59,34.94,13.31s10.38,6.4,17.12,4.64,10.46-1.54,9,1.56-4,5.95-3.07,7.48,2.05,2.59,4.51.78,5.74-5.5,6.87-8.91-0.55-6.12.92-6S177,37,178.22,39s5.11,8.3,2.9,14.69,2,6.25,5.42,5.16,3.52-.73,5.17-6.33,0.72-16.67-.65-19.68-0.25-5.2,2.23-2.54,12.18,9.47,13.66,9S209.65,36.37,208.75,34.84Z" transform="translate(-26.9 -0.65)"/><path class="cls-35" d="M190.41,30.63l-1.17-3.28A25.78,25.78,0,0,0,190.41,30.63Z" transform="translate(-26.9 -0.65)"/><path class="cls-36" d="M206.93,39.28a3.31,3.31,0,0,0,1.82-1.87c-0.15-.33-0.3-0.66-0.47-1-1.54-2.75-3.94-4.89-6.3-7L197.3,25.3a21.3,21.3,0,0,0-4.35-3.24,7.17,7.17,0,0,0-5.27-.68,0.9,0.9,0,0,0-.49.29,1,1,0,0,0,0,.78c0.63,2.62,2.29,5,3.4,7.4,0.28-1,1.26-1.14,2.74.44C195.75,32.93,205.46,39.75,206.93,39.28Z" transform="translate(-26.9 -0.65)"/><path class="cls-37" d="M190.47,30.81v0l-0.06-.13Z" transform="translate(-26.9 -0.65)"/><path class="cls-38" d="M175.38,7.63c3.71-1.63,7-2.46,6.63-4.78a4.05,4.05,0,0,0-.34-1.19c-5.82,1.56-11.08,4.84-16.77,6.89-3.39,1.22-7.34,2.31-8.92,5.55l13.09-.35C168.45,12.61,172,9.12,175.38,7.63Z" transform="translate(-26.9 -0.65)"/><path class="cls-39" d="M167.74,34.28c-2.66-1.54-5.93.13-9,.56-4.3.62-8.53-1.36-12.3-3.52A68,68,0,0,1,121.18,6.43C120,5.75,118.83,5,117.63,4.26A20.3,20.3,0,0,1,116,6.13q-2,2.44-4,5-3.8,5-7.18,10.27a6,6,0,0,1-2.15,2.27l0.1,0c16,5.82,25,7.59,34.94,13.31s10.38,6.4,17.12,4.64,10.46-1.54,9,1.56-4,5.95-3.07,7.48,2.05,2.59,4.51.78a18.16,18.16,0,0,0,1.5-1.26,17.49,17.49,0,0,0,3.47-9.26C170.51,38.41,169.91,35.54,167.74,34.28Z" transform="translate(-26.9 -0.65)"/><path class="cls-40" d="M135.72,106.71c-2.68-3.26-.5-3.38.05-6.72,0.44-2.68-3.34-3.79-3-6.21a4.82,4.82,0,0,1,.61-1.25,2.91,2.91,0,0,0-.53-2.95,6.24,6.24,0,0,0-1.51-1.31l-0.06,0a13.14,13.14,0,0,0-4.24,2.91,172.56,172.56,0,0,0-27,31.27c-1.2,1.78-3,2.71-4.66,4.06A79.23,79.23,0,0,0,89.59,132c-2.44,2.49-5.11,5.31-8.59,5.48a11.29,11.29,0,0,1-3.66-.58,74.21,74.21,0,0,1-9.06-3.44q-10.39-4.54-20.43-9.85c-6-3.16-11.87-6.52-18-9.24a200,200,0,0,1,1.49,33.12,235.09,235.09,0,0,0,34.36-.27A152.3,152.3,0,0,0,98,141.36c10.66-3.27,17.64-5.16,27.12-11,4.16-2.58,13.71-6.52,10.76-13-1.38-3,.09-4.06.63-7.06A4.43,4.43,0,0,0,135.72,106.71Z" transform="translate(-26.9 -0.65)"/><g id="Octicons-5" data-name="Octicons"><g id="heart-2" data-name="heart"><path id="Shape-5" data-name="Shape" class="cls-41" d="M268.64,68.39a4.58,4.58,0,0,0-1.94-3.31,4.51,4.51,0,0,0-3.77-.71,10.34,10.34,0,0,0-2,.57,9.27,9.27,0,0,0-.12-2,4.39,4.39,0,0,0-1.94-3.31,4.61,4.61,0,0,0-3.77-.71,5,5,0,0,0-2.87,1.87,9.53,9.53,0,0,0-1.57,4.08c-0.3,2,.35,6,2,11.8,6.06-.38,10-1.05,11.82-2a9.82,9.82,0,0,0,3.3-2.87,5.16,5.16,0,0,0,.81-3.36Z" transform="translate(-26.9 -0.65)"/></g></g><path class="cls-42" d="M254.28,102.07c0.82-1.92,1.6-3.85,2.53-5.72a29.48,29.48,0,0,1,3.32-5.14A6.08,6.08,0,0,1,261.31,90a9.93,9.93,0,0,0,1.07-.73c-0.38.36-1.53-.18-1.85-0.41a3.81,3.81,0,0,1-1.05-1.47,14.2,14.2,0,0,1-1.93,5.18c-2.7,4.47-4.54,9.18-7.24,13.64a3.06,3.06,0,0,1-.85,1,2.27,2.27,0,0,1-2.05.06c0.85,0.64,2.14,1.47,3.33,2.38a3.16,3.16,0,0,1-.26-0.57,2.39,2.39,0,0,1-.05-0.78,4.24,4.24,0,0,1,1.47-2.12A13.69,13.69,0,0,0,254.28,102.07Z" transform="translate(-26.9 -0.65)"/></svg>