<svg xmlns="http://www.w3.org/2000/svg" xmlns:xlink="http://www.w3.org/1999/xlink" viewBox="0 0 381.7 190.85"><defs><style>.cls-1{isolation:isolate;}.cls-2{fill:#641617;}.cls-3{fill:#7e3d3e;}.cls-4{fill:url(#linear-gradient);}.cls-5{fill:#101934;}.cls-6{fill:#386ab0;}.cls-7{fill:#8e5556;}.cls-8{fill:url(#linear-gradient-2);}.cls-9{fill:#eb6361;}.cls-10{fill:#ef9d88;}.cls-11{fill:url(#linear-gradient-3);}.cls-12{fill:#1f2243;}.cls-13{fill:#fff;opacity:0.5;}.cls-14{fill:none;stroke:#101934;stroke-miterlimit:10;stroke-width:2.27px;}.cls-15{fill:#ec8777;}.cls-16{fill:url(#linear-gradient-4);}.cls-17{fill:url(#linear-gradient-5);}.cls-18{fill:#a7af90;}.cls-19{fill:#a8bc9f;}.cls-20{fill:url(#linear-gradient-6);}.cls-21{fill:url(#linear-gradient-7);}.cls-22{fill:#202d4c;}.cls-23{fill:url(#linear-gradient-8);}.cls-24{fill:url(#linear-gradient-9);}.cls-25{fill:url(#linear-gradient-10);}.cls-26{fill:#fc414a;}.cls-27{fill:#f07842;}.cls-28{fill:url(#linear-gradient-11);}.cls-29{fill:#4a3419;}.cls-30{fill:#009752;}.cls-31{fill:url(#linear-gradient-12);}.cls-32{fill:#36ff85;mix-blend-mode:multiply;}.cls-33{fill:#f15b52;}.cls-34{fill:#f56141;}</style><linearGradient id="linear-gradient" x1="356.24" y1="137.93" x2="297.92" y2="161.18" gradientUnits="userSpaceOnUse"><stop offset="0" stop-color="#6e252d"/><stop offset="1" stop-color="#6b2022"/></linearGradient><linearGradient id="linear-gradient-2" x1="352.91" y1="84.57" x2="302.81" y2="108.9" gradientUnits="userSpaceOnUse"><stop offset="0" stop-color="#386ab0"/><stop offset="1" stop-color="#255ba7"/></linearGradient><linearGradient id="linear-gradient-3" x1="328.25" y1="139.66" x2="266.14" y2="158.67" gradientUnits="userSpaceOnUse"><stop offset="0" stop-color="#ef9d88"/><stop offset="1" stop-color="#ec8777"/></linearGradient><linearGradient id="linear-gradient-4" x1="294.6" y1="107.98" x2="325.37" y2="100.59" gradientUnits="userSpaceOnUse"><stop offset="0" stop-color="#1f2243"/><stop offset="1" stop-color="#03061f"/></linearGradient><linearGradient id="linear-gradient-5" x1="290.35" y1="90.34" x2="271.51" y2="110.37" xlink:href="#linear-gradient-4"/><linearGradient id="linear-gradient-6" x1="303.88" y1="91.32" x2="218.1" y2="143.72" gradientUnits="userSpaceOnUse"><stop offset="0" stop-color="#a8bc9f"/><stop offset="1" stop-color="#a7af90"/></linearGradient><linearGradient id="linear-gradient-7" x1="279.85" y1="93.33" x2="248.15" y2="202.78" xlink:href="#linear-gradient-6"/><linearGradient id="linear-gradient-8" x1="190.77" y1="92.22" x2="41.42" y2="154.55" gradientUnits="userSpaceOnUse"><stop offset="0" stop-color="#202d4c"/><stop offset="1" stop-color="#132141"/></linearGradient><linearGradient id="linear-gradient-9" x1="47.61" y1="54.59" x2="146.99" y2="100.63" xlink:href="#linear-gradient-8"/><linearGradient id="linear-gradient-10" x1="307.03" y1="42.92" x2="253.79" y2="86.87" xlink:href="#linear-gradient-8"/><linearGradient id="linear-gradient-11" x1="162.04" y1="141.16" x2="188.99" y2="205.73" gradientUnits="userSpaceOnUse"><stop offset="0" stop-color="#db6c39"/><stop offset="1" stop-color="#b75c3d"/></linearGradient><linearGradient id="linear-gradient-12" x1="208.94" y1="60.11" x2="114.62" y2="165.11" gradientUnits="userSpaceOnUse"><stop offset="0" stop-color="#009752"/><stop offset="1" stop-color="#006643"/></linearGradient></defs><title>leadership</title><g class="cls-1"><g id="Layer_1" data-name="Layer 1"><path class="cls-2" d="M345.48,147.5c1.23,0.14,7.5,10.23,7.64,12.55s-4.5,2-7.91,3.41S345.48,147.5,345.48,147.5Z" transform="translate(-6.53 -38.39)"/><path class="cls-3" d="M299.72,106.66c16.29-8.48,32-1.45,39.34,12.19s12.28,36.56,6.55,59.76-5.18,20.74-12.28,20.47-21.54-2.46-25.64-6.28S285,168.92,291.86,141.7,299.72,106.66,299.72,106.66Z" transform="translate(-6.53 -38.39)"/><path class="cls-4" d="M334.24,186C323,168.22,318.87,146.65,319,125.57c0-6.41.42-13-1.64-19.07a17.08,17.08,0,0,0-1.6-3.46,30.18,30.18,0,0,0-16,3.62s-1,7.82-7.86,35,11.73,47.28,15.84,51.1,18.55,6,25.64,6.28c2.52,0.1,4.08.47,5.29-.13C339.09,194.67,337.3,190.63,334.24,186Z" transform="translate(-6.53 -38.39)"/><ellipse class="cls-5" cx="332.81" cy="105.92" rx="2.46" ry="4.24"/><path class="cls-5" d="M333.31,135.43a17.78,17.78,0,0,1,4.22-1.27,7.68,7.68,0,0,1,2.22-.23,5.31,5.31,0,0,1,2.17.67,0.07,0.07,0,0,1,0,.09l0,0a9.58,9.58,0,0,1-2.16.44,20.42,20.42,0,0,1-2.12,0,28.85,28.85,0,0,0-4.28.41A0.06,0.06,0,0,1,333.31,135.43Z" transform="translate(-6.53 -38.39)"/><path class="cls-6" d="M322.1,121.52c17-2.67,54.48-15.92,61.17-19.32s6.55-6.54,0-4.22-31.9,13.08-43.65,15c0,0-13.11-20.18-30.44-22.23a42.16,42.16,0,0,0-29.28,7.5l7.71,20.87Z" transform="translate(-6.53 -38.39)"/><path class="cls-5" d="M342.18,174c0.84,0.13,1.54.32,2.27,0.48s1.45,0.32,2.25.58A3.89,3.89,0,0,1,342.18,174Z" transform="translate(-6.53 -38.39)"/><circle class="cls-7" cx="323.36" cy="121.85" r="10.99"/><path class="cls-8" d="M341,112.72l-1.36.25s-13.11-20.18-30.44-22.23a42.16,42.16,0,0,0-29.28,7.5l6.49,17.57a107.67,107.67,0,0,1,11.4,1.91c6,1.4,12.16,3.6,18.28,2.59,5.42-.89,10.18-4.22,15.57-5.29C334.73,114.41,338.4,114.43,341,112.72Z" transform="translate(-6.53 -38.39)"/><path class="cls-9" d="M318.9,150.52c4-.91,2.83,6,6.46,8.61s-1.71,6.24-6.46,7.76S318.9,150.52,318.9,150.52Z" transform="translate(-6.53 -38.39)"/><path class="cls-10" d="M265.11,204.41A83.32,83.32,0,0,1,296.49,206c9.32,2.27,13.64-3.87,17.05-13.19s11.37-31.15,4.55-59.8S283.3,91.22,266.7,100.29" transform="translate(-6.53 -38.39)"/><path class="cls-11" d="M302.41,206.25c-1.24-4.55-6.19-8.28-9-11.54-5.61-6.46-10.69-13.6-13.24-21.87-2-6.62-2.38-13.65-2.14-20.57a129.55,129.55,0,0,1,5.21-32.18c2.07-7,5.1-14.32,11-18.61-9.42-4.81-19.69-5.44-27.47-1.19l-1.59,104.12A83.31,83.31,0,0,1,296.49,206,13.39,13.39,0,0,0,302.41,206.25Z" transform="translate(-6.53 -38.39)"/><path class="cls-12" d="M253.42,92.08c9.64-5.46,27.6-9.78,38.06-1.82s9.32,1.59,13.87-.23,5.91,7.28,8.64,3-0.45-10.5,5-8.21,16.14,16.85,9.1,29.13-30.7,5-30.7,5-5.64,5.42-18.28,1.91S253.42,92.08,253.42,92.08Z" transform="translate(-6.53 -38.39)"/><ellipse class="cls-5" cx="303.72" cy="106.35" rx="2.16" ry="4.22"/><path class="cls-5" d="M298.34,129.17a30,30,0,0,1,4.38.42,26.2,26.2,0,0,1,4.31,1.25,18.17,18.17,0,0,1,1.93.95c0.63,0.34,1.28.66,1.91,1a27.7,27.7,0,0,1,3.7,2.38l-0.08.16a41.92,41.92,0,0,1-4.22-1.18c-0.69-.23-1.37-0.48-2.06-0.75a12.47,12.47,0,0,1-2-1,17.62,17.62,0,0,0-3.79-1.86c-1.34-.48-2.73-0.87-4.14-1.26Z" transform="translate(-6.53 -38.39)"/><ellipse class="cls-13" cx="303.95" cy="102.96" rx="6.94" ry="13.95"/><path class="cls-5" d="M318.4,141.35a31.14,31.14,0,0,1-.41,4.34,22.24,22.24,0,0,1-1.23,4.2,13.55,13.55,0,0,1-2.25,3.81,7.2,7.2,0,0,1-1.74,1.51,4.35,4.35,0,0,1-4.61,0,7.27,7.27,0,0,1-1.76-1.49,13.65,13.65,0,0,1-2.3-3.81,22.45,22.45,0,0,1-1.27-4.21,26.84,26.84,0,0,1-.43-4.36,27.52,27.52,0,0,1,.36-4.37,22.6,22.6,0,0,1,1.2-4.25,13.8,13.8,0,0,1,2.28-3.89,7.28,7.28,0,0,1,1.8-1.56,4.6,4.6,0,0,1,4.85,0,7.24,7.24,0,0,1,1.78,1.57,13.68,13.68,0,0,1,2.22,3.9,22.44,22.44,0,0,1,1.16,4.24A31.16,31.16,0,0,1,318.4,141.35Zm-2,0a25.4,25.4,0,0,0-1.22-8,11.64,11.64,0,0,0-1.8-3.46A5.62,5.62,0,0,0,312,128.7a2.73,2.73,0,0,0-3.14,0,5.6,5.6,0,0,0-1.32,1.24,11.58,11.58,0,0,0-1.75,3.47,26.61,26.61,0,0,0-1.16,7.93,27.17,27.17,0,0,0,1,8,11.74,11.74,0,0,0,1.73,3.55,5.63,5.63,0,0,0,1.36,1.3,3,3,0,0,0,3.37,0,5.67,5.67,0,0,0,1.39-1.29,11.8,11.8,0,0,0,1.78-3.54A25.83,25.83,0,0,0,316.42,141.35Z" transform="translate(-6.53 -38.39)"/><line class="cls-14" x1="297.48" y1="97.9" x2="271.1" y2="97.8"/><path class="cls-5" d="M311.47,174.33a13.4,13.4,0,0,0,1.76,1.25,14.78,14.78,0,0,0,1.87.93,15.43,15.43,0,0,1,1.94.63,11,11,0,0,1,1.86,1.21v0.18a3.53,3.53,0,0,1-2.42.34,5.27,5.27,0,0,1-2.08-1.08,9.82,9.82,0,0,1-3.08-3.34Z" transform="translate(-6.53 -38.39)"/><circle class="cls-15" cx="288.14" cy="127.07" r="14.76"/><path class="cls-16" d="M328.1,113.91c7-12.28-3.64-26.83-9.1-29.13a6.52,6.52,0,0,0-1.46-.45,6.64,6.64,0,0,0-.51,4.53,26.29,26.29,0,0,0,2.48,7.69c1.18,2.35,2.76,4.64,2.9,7.26a9.4,9.4,0,0,1-3.27,7.11,26.48,26.48,0,0,1-6.86,4.21c-4.3,2.05-9,4.07-13.68,3.19l0.38,1C304.4,120.72,322.15,124.27,328.1,113.91Z" transform="translate(-6.53 -38.39)"/><path class="cls-17" d="M298.47,119.22c0-.11,0-0.21,0-0.32a5.51,5.51,0,0,0-2.24-3.28c-5.47-4.45-13.24-5-19.07-9-4.76-3.23-7.68-8.39-9.74-13.63-0.68-1.73-1-3.94-1.84-5.69a50,50,0,0,0-12.12,4.74s13.05,25.24,25.69,28.75,18.28-1.91,18.28-1.91S297.78,119,298.47,119.22Z" transform="translate(-6.53 -38.39)"/><path class="cls-18" d="M278.63,142.66c2.25,0.35,7.83,20.81,8.84,25.36s-1.36,3.86-4.93,4-15,4.3-13.77-3.28S278.63,142.66,278.63,142.66Z" transform="translate(-6.53 -38.39)"/><path class="cls-19" d="M180.59,81.86c19.71-9.1,60.64-14.4,85.15,13.64s14.4,89.95,4.3,105.36-13.14,14.91-21.73,9.6S221,203.9,221,203.9" transform="translate(-6.53 -38.39)"/><path class="cls-20" d="M180.59,81.86L221,203.9s18.17,1.23,26.92,6.35c0.75-5.86,1-11.82,1.29-17.72,0.89-20,1.77-40.07-.57-59.93-1.17-10-3.63-20.66-11.38-27l-0.8-8.72,16.22-2.38A11.15,11.15,0,0,0,258,92.75a6.63,6.63,0,0,0,2.07-2.88C235.35,68.27,198.86,73.43,180.59,81.86Z" transform="translate(-6.53 -38.39)"/><path class="cls-21" d="M258.28,88.35c1,1.18,1.92,2.41,2.84,3.72,13,18.62,15.84,42.41,16,65.11a104.69,104.69,0,0,1-.89,16.73A62.27,62.27,0,0,1,259,208.1c-1.28,1.28-2.73,2.93-2.2,4.66a2.4,2.4,0,0,0,.6,1c3.47-.55,6.93-4.17,12.64-12.88,10.11-15.41,20.21-77.31-4.3-105.36A58.72,58.72,0,0,0,258.28,88.35Z" transform="translate(-6.53 -38.39)"/><path class="cls-22" d="M273.77,108.34a50.86,50.86,0,0,0-8-12.84c-24.51-28-65.44-22.74-85.15-13.64L191.9,116l23.23-13.65a182.4,182.4,0,0,0,43.61,6.81A61.26,61.26,0,0,0,273.77,108.34Z" transform="translate(-6.53 -38.39)"/><path class="cls-22" d="M178,88.71c-10.07,3-20.83-2.76-28.14-10.33s-12.51-17-20-24.33C111.23,35.89,80.4,34,57.22,45.84s-39.08,35-47,59.76c-3.12,9.84-5.13,20.46-2.54,30.45s10.79,19.1,21.08,20c-2.24-10.38,9.37-20.95,19.49-17.74,3.54,1.12,6.52,3.47,9.54,5.63,29.14,20.85,68.85,26,102.36,13.35" transform="translate(-6.53 -38.39)"/><ellipse class="cls-5" cx="263.23" cy="106.6" rx="4.02" ry="6.1"/><path class="cls-5" d="M253.76,122.87a21,21,0,0,1,5.71.63,46.41,46.41,0,0,1,5.5,1.72,23,23,0,0,1,5.24,2.48,13.2,13.2,0,0,1,4.07,4.21l-0.14.14c-1.72-.92-3.33-1.77-5-2.62s-3.17-1.89-4.84-2.73a45.13,45.13,0,0,0-5.14-2.23,22.69,22.69,0,0,0-5.42-1.4v-0.2Z" transform="translate(-6.53 -38.39)"/><path class="cls-5" d="M268.4,178.83a24.08,24.08,0,0,0,2,2.81,26,26,0,0,0,2.27,2.48c0.81,0.77,1.78,1.34,2.53,2.14a19.65,19.65,0,0,1,2.25,2.65l-0.1.18a7.32,7.32,0,0,1-3.43-1.26,10.25,10.25,0,0,1-2.46-2.63,18.72,18.72,0,0,1-3.2-6.29Z" transform="translate(-6.53 -38.39)"/><circle class="cls-18" cx="248.33" cy="127.21" r="14.9"/><path class="cls-23" d="M142.52,162.21a80,80,0,0,1-14.21-4.33c-13.16-5.81-22.48-17.62-31.84-28.55s-20.17-21.92-34.24-25a45.61,45.61,0,0,0-21.73,1.11c-5.82,1.62-11.63,4.28-15.33,9.06a27.74,27.74,0,0,0-4.8,11.62c-2.06,10.14-.86,21.57,5.73,29.45a19.21,19.21,0,0,0,2.69.43c-2.24-10.38,9.37-20.95,19.49-17.74,3.54,1.12,6.52,3.47,9.54,5.63C82,161.2,113.39,167.71,142.52,162.21Z" transform="translate(-6.53 -38.39)"/><path class="cls-24" d="M149.9,78.38c-7.3-7.57-12.51-17-20-24.33-9.45-9.21-22-14.21-35.16-15.38a14.79,14.79,0,0,1,2,.93c7,3.92,9.41,13.08,8.25,21s-5.13,15.08-8.21,22.47-5.3,15.7-2.84,23.31,8.92,12.87,15.09,17.78a13.2,13.2,0,0,0,5,2.91,12.1,12.1,0,0,0,6.43-.8c7.85-2.61,15.24-6.61,23.32-8.38,6.62-1.45,13.49-1.36,20.18-2.46a60.64,60.64,0,0,0,7.59-1.77L178,88.71C168,91.73,157.2,85.95,149.9,78.38Z" transform="translate(-6.53 -38.39)"/><path class="cls-25" d="M265,109.23a47,47,0,0,0,8.73-.89,50.85,50.85,0,0,0-8-12.84c-12-13.73-27.92-19.46-43.37-20.67A60.85,60.85,0,0,1,246,83.4c8,5.12,14.54,12.67,17.66,21.62C264.16,106.4,264.58,107.83,265,109.23Z" transform="translate(-6.53 -38.39)"/><path class="cls-26" d="M240.55,135c5.13,1.58,10.64,19.71,15,25.63s-2.37,9.86-12.22,7.49S240.55,135,240.55,135Z" transform="translate(-6.53 -38.39)"/><path class="cls-27" d="M138.71,204.35c10.63,7,17.62,19.6,30.7,24.9,3.51-10.14,11.09-16.49,18.9-12.2s32,14,43.7,5.85,23-72.18,2.73-113.15-55.06-41.19-77.28-34.09c-28.09,9-41.22,38.68-43.08,71.34s-21.82,37.77-29.65,41.4C103.46,190.36,124.34,194.9,138.71,204.35Z" transform="translate(-6.53 -38.39)"/><path class="cls-28" d="M216,219.07a66.32,66.32,0,0,1-21-18.16c-11.13-15.21-13.64-34.82-19.67-52.68a134.84,134.84,0,0,0-10.22-23c-2.73-4.86-6.24-9.92-11.61-11.42-5.75-1.61-11.7,1.37-16.78,4.49q-3.37,2.07-6.64,4.3c0.06,0.65.1,1.29,0.13,1.94,0.32,7.06-.73,14.44,2.28,21.09,1.77,3.91,4.78,6.88,7.58,10.05,2.65,3,5.23,6.07,7.67,9.25a83.87,83.87,0,0,1,12,20.8c1.63,4.25,2.87,8.67,4.22,13q2.17,7,4.26,14c1.14,3.84,2.28,7.69,3.37,11.55,4-7.11,10.26-10.81,16.7-7.27,7.06,3.88,27.55,12.24,40.05,7.72A83.42,83.42,0,0,1,216,219.07Z" transform="translate(-6.53 -38.39)"/><ellipse class="cls-29" cx="224.76" cy="100.47" rx="3.75" ry="5.63"/><path class="cls-30" d="M179.54,144.26c13.53-8.52,11.26-33.34,5.08-45.41,7.88-2,17.92-7.65,23.59-13.51a8.45,8.45,0,0,0,2.39-4.21c-18-11.67-38.34-10.19-53.15-5.46-28.09,9-41.22,38.68-43.08,71.34-1.08,19-8.26,28.63-15.63,34.12,9.17,2.1,20.55-.44,26.48-6.05,12.24-11.59,19.89-28.13,36.33-33.25C166.76,140.2,174.93,147.16,179.54,144.26Z" transform="translate(-6.53 -38.39)"/><path class="cls-31" d="M185.85,101.55c-6.49-3.76-14.85-5-22.49-6.19C156.59,94.26,151,92,149.7,84.71c-0.23-1.3.15-3.68,0.42-6.07C127.05,90.1,116.06,117.33,114.37,147c-1.08,19-8.26,28.63-15.63,34.12,9.17,2.1,20.55-.44,26.48-6.05,12.24-11.59,19.89-28.13,36.33-33.25,5.21-1.62,13.38,5.34,18,2.44C192.13,136.33,191,114.31,185.85,101.55Z" transform="translate(-6.53 -38.39)"/><path class="cls-32" d="M210.6,81.12l-0.39-.24a34.12,34.12,0,0,1-7.72,3.84,148.4,148.4,0,0,1-27.74,7.5C164,94,152,95.24,144.93,103.52c-3.2,3.76-4.89,8.54-6.41,13.24-2.13,6.61-4,13.37-4.29,20.31-0.23,6.67,1.08,13.41,0,20a27.79,27.79,0,0,1-12.81,18.85c-4.38,2.65-9.38,4-14.15,5.88,6.91-.35,13.8-2.77,18-6.73,12.24-11.59,19.89-28.13,36.33-33.25,5.21-1.62,13.38,5.34,18,2.44,13.53-8.53,11.26-33.34,5.08-45.41,7.88-2,17.92-7.65,23.59-13.51A8.45,8.45,0,0,0,210.6,81.12Z" transform="translate(-6.53 -38.39)"/><path class="cls-33" d="M167.57,145.16a2.71,2.71,0,0,0,.81-3.07c-2.2-5.69-9.89-22.21-23.43-17.44-13.14,4.62-2.63,29,6.61,32a2.71,2.71,0,0,0,2.57-.48Z" transform="translate(-6.53 -38.39)"/><path class="cls-29" d="M224.78,122.53a18.36,18.36,0,0,1,7.14,1,10.94,10.94,0,0,1,3.33,1.57,8.46,8.46,0,0,1,2.4,2.82l-0.11.13a28.24,28.24,0,0,1-3.2-1.53c-1-.51-1.91-1.23-2.94-1.74a23,23,0,0,0-6.62-2.12v-0.17Z" transform="translate(-6.53 -38.39)"/><path class="cls-29" d="M236.56,181c1.51-.18,3-0.33,4.52-0.4a8.69,8.69,0,0,1,2.25-.07,5.7,5.7,0,0,1,2.22.85v0.17a5.7,5.7,0,0,1-2.28.66A8.69,8.69,0,0,1,241,182c-1.49-.19-3-0.47-4.47-0.78V181Z" transform="translate(-6.53 -38.39)"/><circle class="cls-34" cx="219.38" cy="127.61" r="15.3"/></g></g></svg>