<svg id="Layer_1" data-name="Layer 1" xmlns="http://www.w3.org/2000/svg" xmlns:xlink="http://www.w3.org/1999/xlink" viewBox="0 0 386.26 221.18"><defs><style>.cls-1{fill:#fff;}.cls-2{fill:#7e3d3e;}.cls-3{fill:url(#linear-gradient);}.cls-4{fill:url(#linear-gradient-2);}.cls-5{fill:#8e5556;}.cls-6{fill:#cf6e69;}.cls-7{fill:url(#linear-gradient-3);}.cls-8{fill:#d27873;}.cls-9{fill:url(#linear-gradient-4);}.cls-10{fill:url(#linear-gradient-5);}.cls-11{fill:url(#linear-gradient-6);}</style><linearGradient id="linear-gradient" x1="358.47" y1="66.5" x2="370.97" y2="73.48" gradientTransform="translate(-154.89 131.06) rotate(-6.78)" gradientUnits="userSpaceOnUse"><stop offset="0" stop-color="#6e252d"/><stop offset="1" stop-color="#6b2022"/></linearGradient><linearGradient id="linear-gradient-2" x1="380.11" y1="70.46" x2="435.45" y2="70.46" gradientTransform="translate(-154.89 131.06) rotate(-6.78)" gradientUnits="userSpaceOnUse"><stop offset="0" stop-color="#712a31"/><stop offset="1" stop-color="#6b2022"/></linearGradient><linearGradient id="linear-gradient-3" x1="-67.7" y1="323.37" x2="21.78" y2="323.37" gradientTransform="translate(245.54 -153.85) rotate(9.72)" gradientUnits="userSpaceOnUse"><stop offset="0" stop-color="#cf6e69"/><stop offset="1" stop-color="#c75650"/></linearGradient><linearGradient id="linear-gradient-4" x1="446.26" y1="51.32" x2="492.71" y2="117.22" xlink:href="#linear-gradient"/><linearGradient id="linear-gradient-5" x1="382.82" y1="30.05" x2="417.95" y2="54.28" gradientTransform="translate(-154.89 131.06) rotate(-6.78)" gradientUnits="userSpaceOnUse"><stop offset="0" stop-color="#8e5556"/><stop offset="1" stop-color="#7c3a3b"/></linearGradient><linearGradient id="linear-gradient-6" x1="-134.22" y1="348.13" x2="-21.76" y2="348.13" gradientTransform="translate(245.54 -153.85) rotate(9.72)" gradientUnits="userSpaceOnUse"><stop offset="0" stop-color="#cf6e69"/><stop offset="1" stop-color="#cd6963"/></linearGradient></defs><title>legal</title><path class="cls-1" d="M129.26,26C95,35.71,78,78.83,37.89,68.34c-6.79-1.78-13.9-3.59-21-2.48S2.93,72,2.57,78.48c-0.22,4,2.06,7.81,4.69,11a54.07,54.07,0,0,0,18.45,14.43c16.87,8.12,30.32,13.91,40.06,29.12C74.14,146.12,78.2,161,84,174.83c8.33,19.84,24.18,40,47.59,39.93,18.68,0,35.29-13.06,53.57-16.86,20-4.17,39.48,3.24,55,13,15.36,9.68,28.51,21.83,44.7,29.47,8.1,3.82,17.69,6.46,27,3.43,9.76-3.18,16.82-11.79,22.63-20.08a282.77,282.77,0,0,0,29.2-52.87c7.15-17.08,12.6-35.26,11.51-53.05-1.1-18-9.81-35.67-25.92-43.75-12.57-6.31-28.14-6.23-43-3.59s-29.58,7.71-44.64,10.88c-9.32,2-19.13,3.18-28.05.61-15.39-4.44-24.54-18.77-35.13-30.54C181.84,32.93,155.2,18.58,129.26,26Z" transform="translate(-2.56 -23.98)"/><path class="cls-2" d="M229.79,147c3.32,3.94,11.08,9,7.92,9.82,0,0-15.18-3.47-20.08-5.12s-13.39-14.92-20.1-18.8-7.49-.78-10.59,2.83,1,5.54,6.21,15.23,5.62,11,23.39,16.84,37.26,18.38,46.65,25.38,32.76,12.78,45.31,14.57,56.1,35.18,56.1,35.18c16.31-6.79,24.62-17.18,24.19-31.5,0,0-17.13-6.75-34.85-23.94s-19.85-39-34.4-54.34-15.25-21.68-24-31.4S285.56,87,283,80.77s-3.2-6.35-8.49-4.46-7.15,6.31-4.32,16.9,9.21,7.38,13.66,24.28-5.53,8.24-5.53,8.24-11.68-9.52-26,2.75S229.79,147,229.79,147Z" transform="translate(-2.56 -23.98)"/><path class="cls-3" d="M237.47,177a43.49,43.49,0,0,0-4.64-3.69C228,170,222.33,168,217.76,164.39a2.27,2.27,0,0,1-1-1.26,2.37,2.37,0,0,1,.26-1.28l2.45-6.06a2.56,2.56,0,0,1,2.81-2.08,18.26,18.26,0,0,1,2.54,0c-2.92-.75-5.63-1.48-7.24-2-2.14-.72-5-3.66-8-7.06a24.42,24.42,0,0,0-1.74,2.15l-9.23,12.68c2.95,3,7.36,4.83,17.92,8.34A138.83,138.83,0,0,1,237.47,177Z" transform="translate(-2.56 -23.98)"/><path class="cls-4" d="M281,179.7a7.46,7.46,0,0,0,3-3.65,31.55,31.55,0,0,0,2.37-20.33c-1.33-6-4.45-11.73-4.53-17.9,0-3.33.81-6.6,1.27-9.91-2,.25-4.8-2.2-4.8-2.2s-11.68-9.52-26,2.75S229.79,147,229.79,147a59.51,59.51,0,0,0,5.22,5l3.32-.08c2.84-1.56,6.47-.92,9.26.73s4.92,4.19,7.06,6.62a189.43,189.43,0,0,0,17.7,17.6C274.79,179,278.12,181.16,281,179.7Z" transform="translate(-2.56 -23.98)"/><path class="cls-5" d="M241.7,96.3c-4.91-.6-7.36,3.09-7.78,9.82s1.67,8,1.67,8-2.79.41-3.58,4.8-1,10.81,1.14,12.76c0,0-3.19,0-4.75,7.45s1.75,10.19,9.21,8.71,10.15-3.85,17.94,3.83,17,8.27,19.49,4.57,5.7-10.73,2.55-15.6-9.71-14.05-12.44-15.78c0,0,7,7,11,5.48s6.2-1.74,4.69-5.31-10-13.39-13.81-19.29c-2.45-3.75-4.92-5.89-13.31-7S241.7,96.3,241.7,96.3Z" transform="translate(-2.56 -23.98)"/><path class="cls-6" d="M166.8,151.46c-1.67,4.34-1.15,6.47,3.55,7s12.54-.52,20.81-5.39,7.52-5.6,10.73-12.37,7.17-8.41,11.88-7.1,5.3,1.74,1.58,10.8-7.89,15.05-9.27,17.76-2.26,3.89-7.47,5.6-30,7.24-38,11.24-13.54,5.87-24.4,10.4-25.53-17.78-25.53-17.78l24.51-29.86Z" transform="translate(-2.56 -23.98)"/><path class="cls-7" d="M213.77,133.65a9.83,9.83,0,0,0-3.67-.36c-0.28.2-.55,0.4-0.81,0.62-6.28,5.46-6.52,15.15-11.14,22.07-5.18,7.76-14.91,10.84-23.89,13.39-3.85,1.09-7.82,2.2-11.8,1.78l3.13-14.39L128,160.84c-4.11,6.56-7.89,13.69-8.62,21.35,5,5,11.45,9.52,16.89,7.25,10.85-4.52,16.48-6.4,24.4-10.4s32.75-9.53,38-11.24,6.09-2.89,7.47-5.6,5.56-8.71,9.27-17.76S218.48,135,213.77,133.65Z" transform="translate(-2.56 -23.98)"/><path class="cls-6" d="M80.42,134.82c2.36-7.59,7.06-8.49,13.64-18.07s8.06-14.82,14.2-18.62,16.48-11.41,19.18-17.37,4.83-5,9-2.68,4.43,6.6,1.15,12.86-16.34,14.69-16.22,25.49S80.42,134.82,80.42,134.82Z" transform="translate(-2.56 -23.98)"/><path class="cls-8" d="M30.57,209.59c20.5-14,32.85-24.27,40.9-48.74,9.35-28.4,8.59-30.65,21-38.05s20.07-12.38,34-15.29,36.39-23.31,41.37-16.36c7.33,10.23,4.6,12.86,3.13,16.73,0,0,4.58-.25,4.55,8.84,0,10.39-3.67,11.15-3.67,11.15a9.64,9.64,0,0,1,1.64,9.17c-1.85,6.26-3.88,11.78-9.43,23.94s-5.16,19.44-32.38,30.37-49,24.17-73.94,48.84C52.7,225.71,44.91,219.13,30.57,209.59Z" transform="translate(-2.56 -23.98)"/><path class="cls-9" d="M388.8,211.42s-17.13-6.75-34.85-23.94-19.85-39-34.4-54.34-15.25-21.68-24-31.4S285.56,87,283,80.77c-1.67-4.1-2.53-5.54-4.4-5.53a11,11,0,0,0-.56,5c0.38,3.12,1.83,6,3.32,8.76,10.73,20,18.95,36.83,19.82,59.67,0.32,8.41.67,16.94,3.24,25s7.72,15.57,15.33,19.16c6.12,2.89,13,1.95,19.16,4.32,4.39,1.7,8.13,5.19,12.2,7.58,3,1.76,33.36,23.16,32.4,24.5A28,28,0,0,0,388.8,211.42Z" transform="translate(-2.56 -23.98)"/><path class="cls-10" d="M277.59,140.64a120.44,120.44,0,0,0-10.44-14c2.37,2,6.33,4.71,9,3.68,4-1.55,6.2-1.74,4.69-5.31s-10-13.39-13.81-19.29c-0.24-.37-0.48-0.72-0.73-1.06l-0.17,0c-2.11.59-2.92,3.05-4.22,4.81-2.66,3.61-7.64,4.39-12.1,4.89a18,18,0,0,1,8.34,10.82,8.26,8.26,0,0,1,.07,4.89,4.05,4.05,0,0,1-3.69,2.82c1.63,1.27,1.63,3.7,1.4,5.76-0.32,2.8-1.47,6.26-4.28,6.5-1.26.11-2.45-.51-3.67-0.82-5.5-1.4-10.77,2.41-16.41,1.28-1.16-.23-2.2-0.76-3.09-0.53,1.1,2.84,4.21,3.7,9.13,2.72,7.46-1.48,10.15-3.85,17.94,3.83s17,8.27,19.49,4.57S280.74,145.51,277.59,140.64Z" transform="translate(-2.56 -23.98)"/><path class="cls-11" d="M164.11,161c5.56-12.16,7.58-17.68,9.43-23.94a9.64,9.64,0,0,0-1.64-9.17s3.63-.76,3.67-11.15a22.12,22.12,0,0,0-.11-2.36l-15.93,6.73c-6.06,2.56-12.28,5.16-18.85,5.43-3.16.13-6.36-.28-9.47,0.28-3.53.64-6.7,2.48-9.79,4.3C111.34,137,100.65,143.6,96,154.33c-4.2,9.78-2.58,21.48-7.64,30.83-2.59,4.78-6.71,8.51-10.85,12A265.67,265.67,0,0,1,45.2,220.63a45.83,45.83,0,0,1,12.58,19.55c24.91-24.67,46.72-37.91,73.94-48.84S158.55,173.13,164.11,161Z" transform="translate(-2.56 -23.98)"/></svg>