<svg id="Layer_2" data-name="Layer 2" xmlns="http://www.w3.org/2000/svg" viewBox="0 0 1000 1000">
    <defs>
        <style>
            .cls-1 {
                fill: #78a242;
                animation: leafsBounce 5s infinite;
            }

            .cls-2 {
                fill: #648930;
            }

            .cls-3 {
                fill: #efb82f;
            }

            .cls-4 {
                fill: #7d5a26;
            }

            .cls-5 {
                fill: #7e391d;
            }

            .cls-6 {
                fill: #d34e2b;
            }

            .cls-7 {
                fill: #1c4656;
            }

            .cls-8 {
                fill: #371922;
            }

            .cls-9 {
                fill: #8a3d1e;
            }

            .cls-10 {
                fill: #19492a;
            }

            .cls-11 {
                fill: #163d49;
            }

            .cls-12 {
                fill: #371922;
                animation: lipsWiden 5s infinite;
                animation-delay: 2s;
            }

            .cls-13 {
                fill: #2b3e40;
            }

            .cls-14 {
                fill: #ecaf1d;
            }

            .cls-15 {
                fill: #7b5926;
            }

            .cls-16 {
                fill: #b55f23;
            }

            .cls-17 {
                fill: #B55F23;
                animation: tailRotate 5s infinite;
                transform-box: fill-box;
                transform-origin: center;
            }

            .cls-18 {
                fill: #a8551d;
            }

            .cls-19 {
                fill: #371922;
                transform-box: fill-box;
                transform-origin: center;
                animation: eyeMBlink 5s infinite;
                animation-delay: 0.1s;
            }

            .cls-20 {
                fill: 371922;
                transform-box: fill-box;
                transform-origin: center;
                animation: eyeMBlink 5s infinite;
                animation-delay: 0.1s;
            }

            .fall {
                animation: falling 4s infinite;
                animation-delay: 4s;
            }

            @keyframes tailRotate {
                0%, 100% { transform: rotate(0deg); }
                10%, 30%, 50% { transform: rotate(5deg); }
                20%, 40%, 60% { transform: rotate(-5deg); }
              }
              
              @keyframes leafsBounce {
                0%, 100% { transform: translateY(0); }
                15%, 45% { transform: translateY(-5px); }
                30%, 60% { transform: translateY(5px); }
              }
              
              @keyframes eyeSBlink {
                0%, 100% { height: [tinggi-awal]; }
                5% { height: 0; }
                10% { height: [tinggi-awal]; }
                15% { height: 0; }
                20% { height: [tinggi-awal]; }
              }
              
              @keyframes eyeMBlink {
                0%, 100% { transform: scaleY(1); }
                5% { transform: scaleY(0);transform-origin: center; }
                10% { transform: scaleY(1);transform-origin: center; }
                15% { transform: scaleY(0);transform-origin: center; }
                20% { transform: scaleY(1);transform-origin: center; }
              }
              
              @keyframes lipsWiden {
                0%, 100% { width: [lebar-awal]; }
                50% { width: [lebar-lebih]; }
              }

              @keyframes falling {
                0%, 100% { transform:translateY(10px);opacity:1; }
                45% { opacity:1; }
                50% { opacity:0;transform:translateY(400px); }
                51% { transform:translateY(0px); }
                100% { opacity:1; }
              }

        </style>
    </defs>
    <path class="cls-1"
        d="M785.29,359.38c-.87,1-.6,2.23-.57,3.36.26,7.67-1,15.21-2.16,22.74-.61,3.78-2.83,7.16-2.74,11.11h0c-1.71.68-1.43,2.16-1.46,3.53a1.57,1.57,0,0,0-.7,1.41c-1.31.51-1.48,1.61-1.39,2.83-.1,0-.2.07-.2.1a1.83,1.83,0,0,0,.07.46c-9.26,18.44-23.41,31.62-42.66,39.13-2.91,1.13-4.13,2.48-4.77,5.69-4.74,23.92-17.13,43-37.2,56.93-.38.26-.72.58-1.08.87A4.27,4.27,0,0,0,688.3,509h0A31.26,31.26,0,0,0,682,512.4a1.36,1.36,0,0,0-1.43.71c-.57,0-1.14,0-1.4.7a4.56,4.56,0,0,0-3.48,1.42c-1.22-.14-2.26.47-3.36.8a83,83,0,0,1-33.76,3.44c-3.85,0-7.55-1.07-11.3-1.72a85,85,0,0,1-25.59-11,2.66,2.66,0,0,0-3.64.2,81.63,81.63,0,0,1-27.78,13.62l-12,1.76c-1.09-1-2.44-.62-3.69-.62a93.09,93.09,0,0,1-15-.72c-2.13-.34-4.27-1.5-6.44-.11l-77.48-1.75a5.44,5.44,0,0,0-.58,0c-2.69-1.43-5.19.31-7.72.64-5.14.67-10.44.06-15.43,1.88l-2.28,0c-.26-.36-.48-1-.79-1-6.05-.82-12.1-1.57-18.16-2.34l0,0c-.49-.86-1.34-.7-2.12-.75-.52-.8-1.37-.63-2.13-.7-.69-1.63-2.16-1.38-3.51-1.4v0c-.11-.31-.25-.53-.57-.17a54.13,54.13,0,0,1-13.26-7.58c-1.75-1.31-2.84-1.13-4.52-.16a84.23,84.23,0,0,1-21.78,9.07,2.84,2.84,0,0,0-2.64-.39A89.61,89.61,0,0,1,347,518.65l2.65.23a70.05,70.05,0,0,1-33.91-3.21c-32.09-10.9-50.77-33.36-56.27-66.77-.43-2.62-1.23-4.07-4.09-5.06-28.9-10-45.46-30.81-52-60.17A48.94,48.94,0,0,1,202,372.54a22.16,22.16,0,0,0,0-11.06c.68-15.86,6.17-30,15.18-42.93a92.73,92.73,0,0,1,16.44-18.1c1.53-1.29,2.16-2.32,1.24-4.36-1.25-2.75-2.06-5.69-3.06-8.56s-.9-5.84-2.48-8.44a5.05,5.05,0,0,1-.08-.68c.14-1.24.51-2.52-.62-3.54a1.09,1.09,0,0,1,0-.62c.76-2.77-.88-5.3-.78-8,.26-7.67.43-15.36,1.86-22.94,7.46-33.95,27.88-56.41,60.49-67.91a99.26,99.26,0,0,1,12.59-3.09c1.43-.3,2.27-.53,2.4-2.27,2.63-34.22,32.94-65.37,68.93-70.46l4.14-.59.78-.07c6.6-.46,13.19-.92,19.79,0,.78.12,1.39,0,1.47-.94l-.09-.14c1,0,1.12-.8,1.39-1.47a1.46,1.46,0,0,0,.74-1.38c.46,0,.61-.35.69-.76l-.09,0,.76-.77,0,.07.67-.74C414.63,81.13,426,70.75,440,63.59a111.41,111.41,0,0,1,43.25-12.14,47.32,47.32,0,0,0,16.7,0,106.55,106.55,0,0,1,49.8,15.16c12.95,7.74,23.66,17.92,33,29.65.71.9,1.21,2,2.47,2.39,6.08,1.07,12.06-.29,18.07-.76h1.56c.22,1,.94,1.24,1.82,1.22,2.67-.07,5.3.52,7.92.64,3.07.14,5.91,2.15,9.08,1,31.44,7.22,56.32,35.77,59.17,68,.14,1.67.32,2.65,2.4,3,27.25,5.13,47.69,19.93,61.69,43.78a3.14,3.14,0,0,0,.47.5c1,2.17,1.83,4.48,3.51,6.29l-.06,0c0,.61,0,1.19.72,1.44a2.24,2.24,0,0,0,.71,2.06,18.09,18.09,0,0,0,2.19,5.66l-.06-.06c1.87,7.2,3.94,14.36,4.22,21.87-.78.89-.6,2-.57,3a131.48,131.48,0,0,1-1.38,19.43c-.44,3.58-2.1,6.91-2.11,10.56a1.15,1.15,0,0,0-.19,2c-.85,2.41-1.56,4.89-2.6,7.22-.88,2-.71,3.08,1.19,4.56,18.71,14.6,29.4,33.79,32.32,57.33A20.76,20.76,0,0,1,785.29,359.38Z" />
    <path class="cls-2"
        d="M726.93,389.36c-6,5.71-13.33,8-21.33,8.57-10,.76-18.14-3.59-25.79-9.34l.15-4.8c7.34-5.37,15.21-9.09,24.66-8.38a34.89,34.89,0,0,1,22.46,10.19C728.58,387.06,728.28,388.08,726.93,389.36Z" />
    <path class="cls-2"
        d="M741.86,341.27c-4.54,9.7-12,16-22.31,18.64-6.58,1.68-13.2.88-19.75-.55-.07-1.53-2.26-1.37-2.32-2.9,4.6-10.82,12.06-18.58,23.78-21.3,6.26-1.46,12.52-.48,18.6,1.56C742.29,337.53,742.94,339,741.86,341.27Z" />
    <path class="cls-2"
        d="M691.1,348.74A32,32,0,0,1,678.73,363a24.61,24.61,0,0,0-6.35,5.37,8.78,8.78,0,0,1-3.7-2.81c-1.69-7.74-2.4-15.46.79-23,4.22-10,11.16-17,21.84-20,2.62-.75,3.29.18,3.46,2.62A49.94,49.94,0,0,1,691.1,348.74Z" />
    <path class="cls-2"
        d="M678.94,435.63c-9.39,4-19,3.12-28.35-.36A41.27,41.27,0,0,1,637,426.81c-.89-1.44.22-2.85.09-4.28,3.2-1.45,5.49-4.2,8.78-5.68C659,411,670,414.58,680,423.66l1,1C687.16,430.71,687,432.22,678.94,435.63Z" />
    <path class="cls-2"
        d="M629.8,394.94c-1.69,1.6-3.57,3-5.36,4.5-1.7,1-3-.15-4.33-.88-2.44-7.55-3.82-15.21-2-23.1,2.21-9.65,6.49-18,15.2-23.48,4.32-2.71,5.35-2.25,6.65,2.76C643.9,370,641.69,383.7,629.8,394.94Z" />
    <path class="cls-2"
        d="M634.84,471.68c-12.27,3.47-23.2.95-33.28-6.8-3.93-3-6-7.41-9.43-10.71a5.57,5.57,0,0,1,1.32-4.83c1-.1,2.06-.07,2.13-1.49v0c4,.55,7.6-1.74,11.72-1.48A31.26,31.26,0,0,1,630.38,458a61.32,61.32,0,0,1,6.49,9.13C638.32,469.67,637.44,471,634.84,471.68Z" />
    <path class="cls-2"
        d="M588.56,411.35c-.47,9.66-4.31,17.79-10.85,24.8-1.15,1.23-2.94,2-3.18,4h-.1a1.36,1.36,0,0,0-1.31.7l-.69.93c-5.34,3.75-10.57,7.78-17.66,7.37-2-8.48-1.51-16.65,2.81-24.42,6.15-11.05,15.6-16.28,28.16-16.26C587.89,408.47,588.66,409.25,588.56,411.35Z" />
    <path class="cls-2"
        d="M604.39,373.38c-11,12.55-27.48,17.35-44.59,7,0-1.41,0-2.82-.07-4.22,5.44-8.57,13.09-13.69,23.34-14,8-.22,15.06,2.89,21.62,7.2C606.77,370.8,605.58,372,604.39,373.38Z" />
    <path class="cls-2"
        d="M659,317.92c-6.16,7.74-14.35,11.54-24.09,12.58-8.44.91-15.09-3.12-21.79-7.24,0-1.35.07-2.71.11-4.06,4.69-6,10.65-10.12,18.19-11.54,10-1.89,19.16,1,27.7,6.1C661.2,315,660,316.68,659,317.92Z" />
    <path class="cls-2"
        d="M702.52,210.58c-.7,17.11-11,31.48-29.09,34.12a21.09,21.09,0,0,0-2.65.78c-2,.44-2.87-1.41-4.23-2.26,1.78-14.11,6.79-26.18,20.59-32.72,3.74-1.78,7.81-2.29,11.81-3C701.3,207,702.63,207.71,702.52,210.58Z" />
    <path class="cls-2"
        d="M659,246.64c-1.15,3.61-3.58,6.53-5,9.95-1.64,1.5-3.28,3-4.91,4.5-2.15,2-4.58,3.14-7.6,2.53.12-3.29-1.66-6.05-2.63-9a32.27,32.27,0,0,1,14.55-37.74c2.43-1.4,3.12.1,4,1.63C662.33,227.6,662,237,659,246.64Z" />
    <path class="cls-2"
        d="M605.1,295.23c-1.48,1.66-2.47,3.74-4.38,5-1.47,0-3,.19-4.34-.6-2.13-5.18-4.16-10.32-4.66-16-1.08-12.57,5.93-25.92,17.19-31.2,1.88-.88,2.38,0,3,1.52C618.24,269.12,616.05,282.91,605.1,295.23Z" />
    <path class="cls-2"
        d="M560,335.58c-1.62,1.65-3,3.6-4.41,5.41a7.48,7.48,0,0,1-4.25-.63c-.92-4.59-3.51-8.58-4.39-13.22a29.42,29.42,0,0,1,5-22.92c2.84-4.15,5.86-8.09,10.38-10.7,2-1.18,3.13-1.11,4.06,1.06C572.24,308.19,572.68,322.71,560,335.58Z" />
    <path class="cls-2"
        d="M539.14,357.33c-.67,3.52-.92,7.17-2.58,10.46-1.43.65-2.36,2.38-4.28,2-6.22-4.17-11.35-9.21-14-16.47-3.61-9.78-2.88-19.24,1.49-28.54,1-2.15,2.57-2.39,4.59-1.12C534.09,329.79,541.3,346,539.14,357.33Z" />
    <path class="cls-2"
        d="M564.5,267.72c-8.24,11.42-28.07,16.36-41.34,8.94-1.12-.63-2.29-1.18-3.43-1.76a6.31,6.31,0,0,1-.78-3.66,32.37,32.37,0,0,1,20.23-13.76c8.71-2,16.65-.1,24.21,4.19C566.61,263.49,566.69,264.69,564.5,267.72Z" />
    <path class="cls-2"
        d="M508.3,236.14c-2.57,1.73-5.76,2-8.28,3.71a4.12,4.12,0,0,1-3.61-1.61,36.66,36.66,0,0,1,5-24.48c4.11-7,10-11.93,18.09-13.86,4.9-1.17,5.66-.41,5.81,4.56C525.8,218.34,519.57,228.56,508.3,236.14Z" />
    <path class="cls-2"
        d="M537.25,96.05c0,18.18-16.21,36-33.78,36.93a6.28,6.28,0,0,1-3.42-.79c.44-3.1.83-6.22,1.32-9.32C504,106.35,515.5,94,531.86,91.68,536,91.11,537.25,92,537.25,96.05Z" />
    <path class="cls-2"
        d="M489.45,137.75l-4.25,1.49a37.41,37.41,0,0,1-16.33-9.76c-7.85-8.26-10.32-18.33-9.59-29.39.21-3.19,2.75-2.5,4.53-2.19a27.89,27.89,0,0,1,19.72,13.26C488.6,119.37,490.08,128.31,489.45,137.75Z" />
    <path class="cls-2"
        d="M461.32,180.8a29.28,29.28,0,0,1-4,14,9,9,0,0,0-1.6,3.46c-1.36,1.29-2.75,1.5-4.2.15-4.77-6.17-9.85-12.09-12.18-19.83-3.08-10.19-1.56-19.75,3-29.1.75-1.56,1.38-1.9,2.84-.74C455.45,156.94,461.85,167.13,461.32,180.8Z" />
    <path class="cls-2"
        d="M446.68,243.26c-.26,1.17-.53,2.35-.79,3.53a74.44,74.44,0,0,1-8,2.68c-12.85,2.85-28.58-3.85-35.69-15-2.19-3.44-1.83-4.65,1.92-5.93,10.4-3.57,20.84-4.7,30.84,1C440.43,232.59,445,236.83,446.68,243.26Z" />
    <path class="cls-2"
        d="M407.83,173.09c-4.17-.43-8-2-11.88-3.4-.65-1.21-1.79-.9-2.82-.92h0c-1.13-2-3.31-2.85-5-4.28-8.7-7.45-14.24-16.52-14.75-28.28-.13-3.05,1-4.11,4.06-4.05,12.27.24,20.21,6.75,25.51,17.21A47.08,47.08,0,0,1,407.83,173.09Z" />
    <path class="cls-2"
        d="M439.3,323.28c-.87,4.55-2.93,8.57-4.64,12.77l-4.21.75c-.91-3.08-3.75-4.67-5.56-7.08-9-12-10.51-25.06-5.71-39.05.19-.56.42-1.1.66-1.63,1.88-4.06,3-4.42,6.44-1.58C437.55,296.86,442.11,308.68,439.3,323.28Z" />
    <path class="cls-2"
        d="M393.41,277.82c-.06,7.27-3.34,13.23-5.86,19.57a4.88,4.88,0,0,1-5,.09c-14-13-15.16-29.79-9.13-45.57,1.65-4.29,3.18-4.75,6.79-1.95C389.26,257,393.51,266.21,393.41,277.82Z" />
    <path class="cls-2"
        d="M385.37,329.72c-.22,1.18-.45,2.37-.67,3.55-14.73,8.48-29.14,3.78-40.38-5.81-2.63-2.24-4.43-5.39-6.1-8.49-1-1.87-.57-2.86,1.46-3.7,15-6.23,28.67-5,40.11,7.83C381.72,325.25,382.58,328.3,385.37,329.72Z" />
    <path class="cls-2"
        d="M417.7,426.14a6.71,6.71,0,0,1-5,1.41c-14.59-13-18.3-29.41-10.47-46.8.88-2,2.07-2.08,3.58-1,9.22,6.34,15.35,14.64,16.13,26.17C422.44,413,421.63,419.92,417.7,426.14Z" />
    <path class="cls-2"
        d="M393.84,449.37c-6.34,11.61-15.52,19.35-29,21.4-5.1.78-10-.11-14.82-1.53-1.77-.52-2.15-1.48-1.51-3.14,3.9-10,18.05-23.9,32-23.19,4.12.21,7.84,2.31,12,2.15C393.14,446.44,393.93,447.77,393.84,449.37Z" />
    <path class="cls-2"
        d="M376.23,382.53c-.12,4.83-1.77,9.37-2.86,14-1.67.42-3,1.9-5,1.46-6.66-5.1-12.64-10.69-15.38-19-2.95-9-2.69-17.63,1.35-26.2.67-1.43,1.17-2.11,2.82-1.1C368.68,358.81,376.61,368.11,376.23,382.53Z" />
    <path class="cls-2"
        d="M352.51,421.61c-3.06,1.14-4.88,3.91-7.46,5.73-10,7.08-21,8.55-32.75,6.24a34.15,34.15,0,0,1-6.19-2.44c-4-1.68-4.18-2.44-1.75-5.79,6.51-9,15.09-14.69,26.24-15.7,6.61-.6,12.56,2,18.09,5.5,1,.63,2,1.17,3,1.75C352.52,418.39,352.32,420,352.51,421.61Z" />
    <path class="cls-2"
        d="M320.68,355.73c-1.47,1.28-3,2-4.89.77-4.1-3.46-8.71-6.35-12.21-10.49-7.73-9.15-9.58-19.73-7.5-31.25.59-3.26,2.36-3.79,5.31-2.86,11.07,3.49,20.41,15.85,20.81,27.49A64.94,64.94,0,0,1,320.68,355.73Z" />
    <path class="cls-2"
        d="M292.69,348.75a3.34,3.34,0,0,1-2.85,2.86c-15.81,2.23-30.48-1.36-40.18-15.33-4.28-6.14-3.58-8.1,3.6-10C271.63,321.28,288.16,332.69,292.69,348.75Z" />
    <path class="cls-2"
        d="M336.22,283.31c-5.64,5.89-12.3,10.18-20.39,11.55-9.39,1.58-18.44.54-26.37-5.42-3.95-3-3.82-4.59-.06-7.75a41,41,0,0,1,14.8-8.43c9-2.66,17.52-1.37,25.61,3.26,1.8,1,3.3,2.71,5.62,2.64C335.69,280.54,336,281.93,336.22,283.31Z" />
    <path class="cls-2"
        d="M337.61,256a6.06,6.06,0,0,1-4.92,1.27,8.38,8.38,0,0,0-2.63-3.17c-11-9.16-15.51-20.85-13.71-35.09a38.28,38.28,0,0,1,2.1-9.5c.79-2,1.85-2.09,3.49-1.35,10.1,4.61,16.65,12.15,19.14,23.07C343.07,240,341.46,248.14,337.61,256Z" />
    <path class="cls-2"
        d="M317.23,253c-.42,1.38-2.11,2-2.13,3.63-6.49-.21-13.06,1-19.4-1.57-10.9-4.4-17.79-12.38-21.61-23.32-.77-2.21.21-3,2.09-3.45,14.57-3.72,30.49,1.44,37.6,16.67C315,247.55,316.08,250.27,317.23,253Z" />
    <path class="cls-1" d="M401.68,96.37a.06.06,0,0,0,0,0l0,0Z" />
    <path class="cls-1" d="M402.41,95v0h-.08S402.41,95,402.41,95Z" />
    <path class="cls-1" d="M408.55,517.5h0l0,0Z" />
    <path class="cls-1" d="M679.16,513.84s0,0,0,0h0Z" />
    <path class="cls-1" d="M680.55,513.14l0,0h0Z" />
    <path class="cls-1" d="M682,512.43l0,0h0Z" />
    <path class="cls-1" d="M751.54,223.69h0v0Z" />
    <path class="cls-3 fall"
        d="M288.39,361.58c-.3,1.47,4.4,2.6,4.95,1.21,9.5,3.52,14.65,13.36,12.34,23.58a20.28,20.28,0,0,1-21.9,15.74c-9.36-.93-16.63-9.65-17.28-19.64C265.69,370.12,276.21,359.62,288.39,361.58Z" />
    <path class="cls-3"
        d="M378.93,178c-.65,2.34,3.85,3.25,5.1,1.2a14.55,14.55,0,0,1,12.2,9.79c4.37,11.63-4,25.81-16.05,28.51-9.77,2.19-22-6.8-22.85-19A19.31,19.31,0,0,1,378.93,178Z" />
    <path class="cls-3"
        d="M677.31,259.37c.37,1.21,5.42.91,5.38,0,8.47.29,15.18,5.83,17.27,14.25,2,8.26-2.15,17.26-10.23,21.94a18.6,18.6,0,0,1-20.16-1.41,20.75,20.75,0,0,1-7.08-21.71A17.1,17.1,0,0,1,677.31,259.37Z" />
    <path class="cls-4" d="M585.06,227.81l0,2a3.7,3.7,0,0,1-.66.07A2.35,2.35,0,0,1,585.06,227.81Z" />
    <path class="cls-4"
        d="M774,832.32c-.73-2.23-2.53-3-4.76-2.55A58.28,58.28,0,0,1,755,831.14c-27.92-.91-49.87-12.78-65.69-35.86-1.23-1.69-2.59-3.3-3.66-5.08C675,772.38,661.93,757,643,747.5l-6.81-3.37a20.19,20.19,0,0,1-5.26-2.29l0,.08-9.19-3.6.08.08a27.25,27.25,0,0,1-6.38-2.21l.07.08c-.55-.1-1.17,0-1.51-.63l0,.09a75.4,75.4,0,0,1-15.4-5.71l-.18.14a6,6,0,0,1-3.36-1.55l-.07.08a44.66,44.66,0,0,1-10.48-5.12l0,.06a1.09,1.09,0,0,1-.59-.26c-11.89-6.78-22.43-15-29.61-27l-.85-1.67s0,.1,0,.1l-.78-1.39,0,0a3.16,3.16,0,0,1-1.14-2.28l0-.29c-.13-.2-12.57-9.58-24.34-18.46V557.51c.09.12.17.24.26.35a16,16,0,0,0,.31-2.73c-.55-10.46-.4-20.92-.33-31.39,0-1.36-.29-2.81.63-4-.26-14,6.07-25,15.82-34.28,10.7-10.21,23-18.31,35-27,4.1-3,8.16-4.84,13.22-4.26a5.57,5.57,0,0,1,1.32-4.83c1-.1,2.06-.07,2.13-1.49v0c5.69-5.38,12.59-9.14,18.7-13.94,3.46-2.71,7.37-3.78,11.59-4.25A47.07,47.07,0,0,0,637,426.81c-.89-1.44.22-2.85.09-4.28h-7.84l-.43-.83a5.89,5.89,0,0,0,1.24-.59q14-11.3,28.07-22.63c3.09-2.48,5.94-5.54,9.45-7.12,3.74-1.67,8.12-1.91,12.22-2.77l.15-4.8h-6.38l26.22-24.43c-.07-1.53-2.26-1.37-2.32-2.9l-25.81,17.42c-.41-2.38.53-3.86.71-5.47a8.78,8.78,0,0,1-3.7-2.81,42.18,42.18,0,0,0-2.09,4.41,34.09,34.09,0,0,1-14.21,18.05c-10,6.51-19.53,13.67-29.26,20.55l-.26-.26c.53-3,1-5.94,1.58-8.91-1.7,1-3-.15-4.33-.88-.93,3-1.78,6-2.79,9a23.35,23.35,0,0,1-10.91,13.59c-6.72,3.78-13.08,8.21-19.69,12.2-4,2.41-7.59,5.5-12.19,6.8h-.1a1.36,1.36,0,0,0-1.31.7l-.69.93c-5.34,3.75-10.57,7.78-17.66,7.37a11.87,11.87,0,0,1-2.87,3c-13.42,8.46-27.6,15.71-40.49,25.68-1.41-10.68-1-21-.64-31.21a63.55,63.55,0,0,1,4-20.88c5.33-13.81,14.26-25.17,24-36,1.53-1.7,2.82-3.89,5.3-4.42a101.31,101.31,0,0,0,15.7-4.91c0-1.41,0-2.82-.07-4.22-2.84-.08-5.64,1.34-8.92.29,4.73-5,9.06-10,13.87-14.54,11.17-10.49,21.81-21.52,32.66-32.32a6.28,6.28,0,0,1,3.18-2c4.38-.87,8.45-2.66,12.56-4.33,0-1.35.07-2.71.11-4.06-2.61-.31-5.16,1.06-8.32.45l19.87-22.2c8.4-9.41,17.08-18.59,25.12-28.3a43.18,43.18,0,0,1,21.32-14l.7-.2.62-.18c.4-.11.76-.2,1.08-.26l.47-.08a2.12,2.12,0,0,1,2.16.56,1.46,1.46,0,0,1,.17.24,4.06,4.06,0,0,1,.39.95,21.08,21.08,0,0,1,.54,3.15h0c.36,1.22.72,2.42,1.1,3.63s.66,2.43,2.21,2.19,2.3-1.42,2.19-3.05c-.06-.93-.08-1.86-.13-2.79a6.06,6.06,0,0,1-.47-1.31c-1-8.33-5.05-9.3-12.53-8a11.1,11.1,0,0,1-1.68,0l2.78-4.59c-2,.44-2.87-1.41-4.23-2.26-4.24,4.43-7.87,9.43-12.61,13.37-1.64,1.5-3.28,3-4.91,4.5-2.15,2-4.58,3.14-7.6,2.53a15.11,15.11,0,0,1-4.51,8.44q-14.7,15.22-30,29.83a33,33,0,0,1-6.18,4.95v-6.61c-1.47,0-3,.19-4.34-.6-.3,2-.52,3.93-.91,5.87-1.14,5.69-3.15,10.79-7.62,15-8.59,8.07-16.77,16.58-25.18,24.85-2.09,2.05-4.42,3.88-7.1,6.22V341a7.48,7.48,0,0,1-4.25-.63,33.49,33.49,0,0,0-.68,4.85c0,9.9-5.25,16.87-12.53,22.73-.55.45-1.2,1.56-1.55-.15-1.43.65-2.36,2.38-4.28,2-.33,1-.41,2-.71,3a5.88,5.88,0,0,1-.38.95,3.47,3.47,0,0,1-.38.59,3.88,3.88,0,0,1-.52.56c-5.47,4.92-10.85,9.95-16.3,14.9-4.56,4.12-9.18,8.19-13.79,12.3a2.75,2.75,0,0,1-.84-2.5c-.21-10.64-.13-21.27-.61-31.91-.67-14.83-.66-29.69-1-44.53,0-.93-.25-1.86-.31-2.79-.77-11.72-1.05-23.33,4.57-34.27,1.6-3.09,3.36-5.26,6.79-6.39,3.75-1.24,7.27-3.17,10.89-4.8a6.31,6.31,0,0,1-.78-3.66L510,272.83h0l2-2.51.62-.78,1.55-2,1.48-1.86.72-.91c9.34-11.81,20.32-21.48,34.58-27,3.13-1.22,6.51-1.84,9.43-3.61-6.09,0-11.66-2.25-17.27-4.24a95.12,95.12,0,0,0-12,6.45C518.57,244.06,509,254.93,499,265.44c-2,2.15-3.88,4.51-6.06,6.1-3.05-6.22-1.14-11.68,1.76-17.29a51.66,51.66,0,0,0,5.29-14.4,4.12,4.12,0,0,1-3.61-1.61c-2.27,4.71-4.43,9.49-8.11,14.42-.1-1.58-.16-2.15-.16-2.71,0-19.53-.89-39.06.53-58.57,1.09-15.12,3.74-29.85,9.56-43.95,1.94-4.72,4.6-9.23,5.24-14.45a6.28,6.28,0,0,1-3.42-.79c-2.44,4.54-4.88,9.07-7.58,14.11l-3-8.55-4.25,1.49c.62,3.33,1.14,6.68,1.87,10a12.85,12.85,0,0,1-.51,8.46c-3.16,7.21-4.75,14.92-6.17,22.63-3.61,19.68-6.13,39.48-5.73,59.55,0,.24-.32.49-.62.92-3.87-4.92-7.56-9.74-11.41-14.44a19.78,19.78,0,0,1-4.69-10c-.77-6-1.47-12.05-2.21-18.08-1.36,1.29-2.75,1.5-4.2.15V213a13.68,13.68,0,0,1-1.48-1.11A210.48,210.48,0,0,0,420.5,183c-4.2-3.33-8.45-6.61-12.67-9.91-4.17-.43-8-2-11.88-3.4-.65-1.21-1.79-.9-2.82-.92h0a16.18,16.18,0,0,0-5.46.11,9.74,9.74,0,0,0-5.31,2.91c-.2.22-.4.45-.59.69a14.15,14.15,0,0,0-2.32,4.56,5.51,5.51,0,0,1-.51.91c-.66,2.34-2.79,5.59.68,6.58,3.64,1,3.16-3.33,4.42-5.38.77-1.31,1.54-2.61,2.3-3.92.5-.86,1-1.58,2.2-1,4.2,2,8.67,3.37,12.52,6.17,13.81,10.07,25.25,22.38,35.46,36,6.23,8.32,12.29,16.74,18,25.44.47.73,1.44,1.54.71,2.45-.54.68-1.52.16-2.31,0-2.07-.38-4.13-.72-6.2-1.07-.26,1.17-.53,2.35-.79,3.53,2.78,1.48,5.41,3.52,8.38,4.34,5.78,1.59,8.69,5.45,11.07,10.6,4.27,9.26,7,18.56,6.71,29-.53,18-.59,36-1.44,53.95-.54,11.32-.58,22.67-.88,34,0,.85.43,1.87-.66,2.63a18.69,18.69,0,0,1-2-1.35c-8.42-7.4-16.77-14.89-25.27-22.21a14.41,14.41,0,0,1-4.94-9c-.71-4.25-1.48-8.5-2.22-12.75l-4.21.75v9.82c-1.26-.81-2-1.17-2.57-1.66a439.53,439.53,0,0,1-36.67-32.88,6,6,0,0,1-1.66-3,87.32,87.32,0,0,1-2-11.69,4.88,4.88,0,0,1-5,.09v6.06a11.14,11.14,0,0,1-1.3-.73c-10.71-9.07-21.16-18.46-32.2-27.09-6.67-5.21-10-11.74-11.45-19.7a6.06,6.06,0,0,1-4.92,1.27c.46,2.13.92,4.26,1.53,7.11-6.05-4.06-11.26-8.17-17-11.45-.42,1.38-2.11,2-2.13,3.63l24.55,21.88c-1.7,1-3,.47-4.22.7.26,1.38.53,2.77.79,4.15a28.7,28.7,0,0,1,5.27,1.8c2.26,1.28,5.08.47,7.16,2.46,14.43,13.76,29,27.35,42.51,42.07l-.27.27-5.52-.19c-.22,1.18-.45,2.37-.67,3.55a45,45,0,0,0,9.59,4.27A26.65,26.65,0,0,1,406,344.86c6.33,6.73,13,13.17,19.51,19.72,10.45,10.46,20,21.63,27.78,34.29,5.24,8.56,9.28,17.49,10.18,27.72,1.08,12.17.52,24.34.66,36.51,0,.83.46,1.88-.81,2.64-12.34-9.45-26-16.94-39.12-25.29a8.76,8.76,0,0,1-3.54-4.24,47.23,47.23,0,0,1-3-10.07,6.71,6.71,0,0,1-5,1.41c-.16,1.7,1.23,3.28.44,5.2a9.9,9.9,0,0,1-1.66-.66q-15.33-9.78-30.63-19.62a5.21,5.21,0,0,1-1.67-1.76c-2.47-4.5-4.88-9-5.83-14.16-1.67.42-3,1.9-5,1.46l.48,4.44c-1.21.29-1.82-.59-2.54-1.07-10.56-7.08-20.37-15.19-30.71-22.55a36.26,36.26,0,0,1-15-23.1c-1.47,1.28-3,2-4.89.77l1.37,7.14c-7.85-6.31-15.25-12.16-24.47-14.89a3.34,3.34,0,0,1-2.85,2.86c.87,1.19,1.93,2.27,1.11,4-.94,1.95-1.72,4-2.57,6-.3,1.47-.67,2.92-.86,4.4a2.15,2.15,0,0,0,1.85,2.51c1.31.32,1.9-.51,2.32-1.54.56-1.38,1.1-2.77,1.64-4.16.33-1.36.68-2.72,1-4.08.4-1.72.91-2.51,2.72-1,2.72,2.2,5.58,4.22,8.1,6.69,9.44,9.25,18.88,18.52,28.47,27.62,5.25,5,10.79,9.66,16.23,14.45,3.87,3.42,7.79,6.78,12,10.47H351.72c.8,1.49.6,3.12.79,4.71h0l4.19.9,8.38,1.8,4.2.86a11.25,11.25,0,0,1,4.62,1.51c7.71,5.61,15.4,11.24,23.55,17.2l-4.93,1.17c.62,1.38,1.41,2.71,1.32,4.31,4.2.82,9.05-.09,12.54,2.5,16.12,12,31.46,24.8,42,42.34,4.57,7.64,7.42,15.86,7.29,24.91h0c.19,3.18.25,6.34.26,9.51h-.2v12.6c-.08,2.86-.17,5.72-.23,8.58.07,1.51.15,3,.23,4.51v97.91l-25.24,38.57,0,.29a3.16,3.16,0,0,1-1.14,2.28l0,0-.78,1.39s0-.1,0-.1l-.85,1.67c-7.18,12-17.72,20.21-29.61,27a1.09,1.09,0,0,1-.59.26l0-.06A44.66,44.66,0,0,1,387,728.69l-.07-.08a6,6,0,0,1-3.36,1.55l-.18-.14a75.4,75.4,0,0,1-15.4,5.71l0-.09c-.34.6-1,.53-1.51.63l.07-.08a27.25,27.25,0,0,1-6.38,2.21l.08-.08-9.19,3.6,0-.08a20.19,20.19,0,0,1-5.26,2.29L339,747.5c-18.91,9.52-32,24.88-42.59,42.7-1.07,1.78-2.43,3.39-3.66,5.08-15.82,23.08-37.77,35-65.69,35.86a58.28,58.28,0,0,1-14.29-1.37c-2.23-.49-4,.32-4.76,2.55s.75,3.6,2.57,4.35a32.14,32.14,0,0,0,6.34,2c10.51,1.93,20.95,1.2,31.35-1,15.08-3.21,28.7-9.91,41.93-17.53l.75-.17-.18.8c-5.06,15.45-14.66,27.74-26.47,38.61-9.64,8.87-20.58,14.49-33.85,15.08a28.28,28.28,0,0,0-5.17.83c-2.1.49-3.26,1.88-3,4.09s1.88,2.81,3.76,3c.7.07,1.41.07,2.11.08,13.79.05,26.18-4.5,37.66-11.75,19.88-12.54,32.15-30.9,39.91-52.68,2.79-7.82,4.49-16,7.72-23.65,5.15-12.77,13.89-22.51,25.35-29.93a8.42,8.42,0,0,1,1.9-.69c6.49-4.93,13.94-7.64,21.75-9.56l3.59-1.68-2.45,3.35-.63.83.11-.11c-.24.46-.49.92-.74,1.38s-.49.92-.73,1.39-.51,1-.76,1.51l.06-.1-.74,1.52.08-.08-1.5,3.57.08-.06c-.49,1.43-1,2.86-1.46,4.28l.09-.08c-.28,1.72-.3,3.51-1.47,5l.08.08a111,111,0,0,1-3.2,20.16,41.79,41.79,0,0,1-4,10.08c-4.41,8.61-12.06,14.15-19.09,20.32-15.08,13.23-25.29,29.34-28.53,49.41-.77,4.84-1.45,9.74-.46,14.66.44,2.23,1.71,3.53,4.14,3.4s3-1.67,3.22-3.79c.48-4.52.91-9.08,1.81-13.53,3.64-18.06,13.86-32.15,27.79-43.5,12.36-10.06,22.54-21.4,27.05-37,2.1-9.06,3.38-18.32,6.52-27.13,2-5.56,4.82-10.59,9.57-14.32l.93-.85,1.44-1.21,1.29-1-.07.12.82-.77-.08.12.83-.73c.43-.3.86-.58,1.29-.87l0,.14.81-.64,1.45-.79-.09.07,1.41-.72c.34-.58.94-.61,1.51-.7a8.34,8.34,0,0,1,3.48-1.47l-.07.07a9.86,9.86,0,0,1,4.18-1.61l0,.09c4.06-2.09,8.48-3.26,12.73-4.86a3.22,3.22,0,0,1,2.05-.82l-.05.06a5.85,5.85,0,0,1,2.9-1.38l-.07.08,1.52-.72-.08.05,1.49-.74-.08,0,1.48-.76-.07.05,1.48-.76,1.29-.68,1.49-.81-.11.07c.47-.24.93-.49,1.39-.74l2.25-1.37-.08.06,2.2-1.39,1.28-.76c.71-.47,1.42-.94,2.13-1.39l5.95-4.32a38.77,38.77,0,0,1-3.63,10.86l.07-.07a4.93,4.93,0,0,1-1.33,2.92,4.49,4.49,0,0,1-1.44,2.81l-.71,1.3c-.13.57-.21,1.17-.82,1.46l.05-.07-.72.85.1-.1a1.73,1.73,0,0,1-.88,1.42l-.51.67-.86.8.13-.07-.75.84.16.07a.59.59,0,0,1-.34.41c-5.75,7.23-13.3,12.38-20.68,17.68-12.58,9-24.79,18.38-33.5,31.5a120.22,120.22,0,0,0-10,22.77c-3.59,11.06-5.36,22.51-7.5,33.87-2.65,14.07-7.83,26.9-17.55,37.69-6.72,7.44-15,12.62-23.7,17.3-2.67,1.45-5.4,2.89-4.26,6.62.72,2.38,3.45,2.88,7.74.86,28.22-13.33,46.73-34,50.46-66.19,1.54-13.16,4.38-26.08,10.51-38a45.86,45.86,0,0,1,14.05-16.09c-.47,2.38-.81,4.08-1.14,5.78-2.46,12.57-.33,24.2,7.13,34.73,2,2.77,3.85,5.6,5.89,8.31A12.74,12.74,0,0,1,409.39,854a138.12,138.12,0,0,1-10.26,30.18c-6.32,12.83-14.59,24-27.48,31.05-1.43.79-2.91,1.51-4.28,2.42a3.61,3.61,0,0,0-1.43,4.9,3.2,3.2,0,0,0,4.42,1.69,52.67,52.67,0,0,0,6.82-2.78c13.83-7.45,24-18.49,31.21-32.35,2-3.89,3.64-8,5.46-12.06a3.53,3.53,0,0,1,.49.64c1,2.23,2.1,4.45,3.05,6.71,6.45,15.32,8,30.69.59,46.21-1.05,2.21-1.81,4.56-2.66,6.86a3.19,3.19,0,0,0,1.33,4,3.47,3.47,0,0,0,4.53-.31A9.22,9.22,0,0,0,423,939a63.18,63.18,0,0,0,8.84-26c1.15-11.09-1.35-21.62-5.18-31.92-1.43-3.84-2.9-7.69-3.25-11.81-1.16-13.52,2.07-26,9-37.58C437.06,824,443,817.34,449.2,811c4.11-4.21,8.13-8.5,12.45-13,1.29,9.29,4.54,17.44,7.93,25.51a31.44,31.44,0,0,1,1.87,17.17c-1.37,9.51-6.38,17.25-11.71,24.85-9.5,13.51-9,27.31-1.22,41.29a31.6,31.6,0,0,0,6.93,8.79c1.59,1.36,3.59,2,5.4.34s1.32-3.62.06-5.41c-.73-1.05-1.68-1.94-2.46-3-7.36-9.75-9.43-20.18-4-31.54,2.65-5.53,6.92-10,9.93-15.31,1.57-2.75,3-5.58,4.73-8.73.75,2.15-3.89,21-4.36,22.65-3.91,14.13,2.24,24.38,5.88,27.38,12.14,5.36,10.43,2.14,6.64-3.64-12.91-8.84,1.87-41.86-.45-56.63a133.5,133.5,0,0,0-9.25-32.95,35.42,35.42,0,0,1-2.76-13.66,37.86,37.86,0,0,1,1.4-13.22c2.54-10.07,7.48-19.17,11.55-28.62a23.44,23.44,0,0,1,2.28-6l-.08.09c.34-1.26.68-2.52,1.06-3.9l.11.47c.33,1.2.63,2.32.93,3.43l-.08-.09a23.44,23.44,0,0,1,2.28,6c4.07,9.45,9,18.55,11.55,28.62a37.86,37.86,0,0,1,1.4,13.22,35.42,35.42,0,0,1-2.76,13.66,133.5,133.5,0,0,0-9.25,32.95c-.84,5.36-3.43,19.48-5.36,24.27l.31,2a2.74,2.74,0,0,0,5,1A72.34,72.34,0,0,0,501,857.35c.65-1.62,1.16-3.3,1.91-5.45,1.7,3.15,3.16,6,4.73,8.73,3,5.3,7.28,9.78,9.93,15.31,5.44,11.36,3.37,21.79-4,31.54-.78,1-1.73,1.92-2.46,3-1.26,1.79-1.7,3.74.06,5.41s3.81,1,5.4-.34a31.6,31.6,0,0,0,6.93-8.79c7.78-14,8.28-27.78-1.22-41.29-5.33-7.6-10.34-15.34-11.71-24.85a31.44,31.44,0,0,1,1.87-17.17c3.39-8.07,6.64-16.22,7.93-25.51,4.32,4.54,8.34,8.83,12.45,13,6.22,6.39,12.14,13,16.76,20.7,7,11.58,10.2,24.06,9,37.58-.35,4.12-1.82,8-3.25,11.81-3.83,10.3-6.33,20.83-5.18,31.92a63.18,63.18,0,0,0,8.84,26,9.22,9.22,0,0,0,1.81,2.13,3.47,3.47,0,0,0,4.53.31,3.19,3.19,0,0,0,1.33-4c-.85-2.3-1.61-4.65-2.66-6.86-7.41-15.52-5.86-30.89.59-46.21,1-2.26,2-4.48,3.05-6.71a3.53,3.53,0,0,1,.49-.64c1.82,4.06,3.44,8.17,5.46,12.06,7.19,13.86,17.38,24.9,31.21,32.35a52.67,52.67,0,0,0,6.82,2.78,3.2,3.2,0,0,0,4.42-1.69,3.61,3.61,0,0,0-1.43-4.9c-1.37-.91-2.85-1.63-4.28-2.42-12.89-7.05-21.16-18.22-27.48-31.05A138.12,138.12,0,0,1,572.65,854a12.74,12.74,0,0,1,2.27-11.22c2-2.71,3.93-5.54,5.89-8.31,7.46-10.53,9.59-22.16,7.13-34.73-.33-1.7-.67-3.4-1.14-5.78A45.86,45.86,0,0,1,600.85,810c6.13,12,9,24.87,10.51,38,3.73,32.14,22.24,52.86,50.46,66.19,4.29,2,7,1.52,7.74-.86,1.14-3.73-1.59-5.17-4.26-6.62-8.68-4.68-17-9.86-23.7-17.3-9.72-10.79-14.9-23.62-17.55-37.69-2.14-11.36-3.91-22.81-7.5-33.87a120.22,120.22,0,0,0-10-22.77c-8.71-13.12-20.92-22.48-33.5-31.5-7.38-5.3-14.93-10.45-20.68-17.68a.59.59,0,0,1-.34-.41l.16-.07-.75-.84.13.07-.86-.8-.51-.67a1.73,1.73,0,0,1-.88-1.42l.1.1-.72-.85,0,.07c-.61-.29-.69-.89-.82-1.46l-.71-1.3a4.49,4.49,0,0,1-1.44-2.81,4.93,4.93,0,0,1-1.33-2.92l.07.07a38.77,38.77,0,0,1-3.63-10.86l6,4.32c.71.45,1.42.92,2.13,1.39l1.28.76,2.2,1.39-.08-.06,2.25,1.37c.46.25.92.5,1.39.74l-.11-.07,1.49.81,1.29.68,1.48.76-.07-.05,1.48.76-.08,0,1.49.74-.08-.05,1.52.72-.07-.08a5.85,5.85,0,0,1,2.9,1.38l0-.06a3.22,3.22,0,0,1,2,.82c4.25,1.6,8.67,2.77,12.73,4.86l0-.09a9.86,9.86,0,0,1,4.18,1.61l-.07-.07a8.34,8.34,0,0,1,3.48,1.47c.57.09,1.17.12,1.51.7l1.41.72-.09-.07,1.45.79.81.64,0-.14,1.29.87.83.73-.08-.12.82.77-.07-.12,1.29,1,1.44,1.21.93.85c4.75,3.73,7.59,8.76,9.57,14.32,3.14,8.81,4.42,18.07,6.52,27.13,4.51,15.65,14.69,27,27,37,13.93,11.35,24.15,25.44,27.79,43.5.9,4.45,1.33,9,1.81,13.53.23,2.12.81,3.65,3.22,3.79s3.7-1.17,4.14-3.4c1-4.92.31-9.82-.46-14.66-3.24-20.07-13.45-36.18-28.53-49.41-7-6.17-14.68-11.71-19.09-20.32a41.79,41.79,0,0,1-4-10.08,111,111,0,0,1-3.2-20.16l.08-.08c-1.17-1.44-1.19-3.23-1.47-5l.09.08c-.48-1.42-1-2.85-1.46-4.28l.08.06-1.5-3.57.08.08-.74-1.52.06.1c-.25-.5-.51-1-.76-1.51s-.49-.92-.73-1.39-.5-.92-.74-1.38l.11.11-.63-.83L616,752.49l3.59,1.68c7.81,1.92,15.26,4.63,21.75,9.56a8.42,8.42,0,0,1,1.9.69c11.46,7.42,20.2,17.16,25.35,29.93,3.23,7.67,4.93,15.83,7.72,23.65,7.76,21.78,20,40.14,39.91,52.68,11.48,7.25,23.87,11.8,37.66,11.75.7,0,1.41,0,2.11-.08,1.88-.19,3.47-.9,3.76-3s-.86-3.6-3-4.09a28.28,28.28,0,0,0-5.17-.83c-13.27-.59-24.21-6.21-33.85-15.08-11.81-10.87-21.41-23.16-26.47-38.61l-.18-.8.75.17c13.23,7.62,26.85,14.32,41.93,17.53,10.4,2.21,20.84,2.94,31.35,1a32.14,32.14,0,0,0,6.34-2C773.26,835.92,774.75,834.58,774,832.32ZM467.27,748.64c-.67,1.78-.34,3.86-1.67,5.44,0,3.72-1.78,6.93-3.19,10.19-5,11.58-12.34,21.62-20.76,30.91-8.63,10.9-17.06,21.94-23.21,34.5a58,58,0,0,0-2.76,6.44c-.79,2.33-1.83,2.1-3.08.51-6.6-8.32-10.47-17.69-10.07-28.41.16-4.49.88-9.05,3.19-13.12,1.79-5.59,5.43-10,9.39-14.11,6.58-6.85,14.43-12.21,21.64-18.32A107.13,107.13,0,0,0,462,731.18a1,1,0,0,0,.26-.57h0c.52-.91,1-1.82,1.57-2.73l-.25-.19.25.17h0c.24-.45.48-.89.73-1.33l0,0c.12-.31.24-.62.35-.93a1.08,1.08,0,0,0,.09-.53l.9-.8c.17.21.35.41.53.62.4,3,.8,6.11,1.21,9.16A70.74,70.74,0,0,1,467.27,748.64Zm78,14c7.21,6.11,15.06,11.47,21.64,18.32,4,4.14,7.6,8.52,9.39,14.11,2.31,4.07,3,8.63,3.19,13.12.4,10.72-3.47,20.09-10.07,28.41-1.25,1.59-2.29,1.82-3.08-.51a58,58,0,0,0-2.76-6.44c-6.15-12.56-14.58-23.6-23.21-34.5-8.42-9.29-15.77-19.33-20.76-30.91-1.41-3.26-3.19-6.47-3.19-10.19-1.33-1.58-1-3.66-1.67-5.44-.95-.31-1.06-1.15-1.21-1.95-.11-.61-.19-1.22-.27-1.83l.06-.31h-.11c-.82-6.48.11-12.87,1.57-19.21,0-.22.58-.32.89-.47s.36-.41.53-.62l.9.8a1.08,1.08,0,0,0,.09.53c.11.31.23.62.35.93l0,0c.87.1,1,.63.73,1.33l.26-.17-.25.19c1.4.41,1.59,1.52,1.58,2.73.1,0,.25,0,.25.07a4.15,4.15,0,0,1,0,.49A107.13,107.13,0,0,0,545.29,762.67Z" />
    <path class="cls-5" d="M533.23,766a1.39,1.39,0,0,1-1.38-.68h0a1.33,1.33,0,0,1,1.37.7Z" />
    <path class="cls-5" d="M533.21,766l.69.69,0,0-.69-.68Z" />
    <path class="cls-5" d="M533.9,766.73l.23.12-.21-.15Z" />
    <path class="cls-5"
        d="M694.07,681.05c-4.48,5.94-11.36,9-16.23,14.63-2.86,3.29-7.1,5.1-10.13,8.25-4.76-3.81-14.39-11.88-19.07-15.79-2.65-2.22-4.95-4.92-9-3.49-.3.1-.79-.33-1.19-.52,4.42-11.3,12-20.13,22.22-26.84l.87-.73,0,0a13.55,13.55,0,0,0,5-1.48C673.68,660.82,688.51,673.61,694.07,681.05Z" />
    <path class="cls-6" d="M665.44,651.67l0,0,0,0Z" />
    <path class="cls-6" d="M657.12,642.71l-.1.2h0Z" />
    <path class="cls-6"
        d="M668.92,656.65c-.23-.63-.46-1.26-.7-1.9l-.73-1,0,.1c-.25-.26-.5-.52-.76-.77l.08.07-.76-.77.07.08-.71-.75-.69-.67-.71-.73.06.06-.78-.74L660,646.23l-.72-.76c-.22-.22-.43-.45-.64-.67l-.93-1.19h0c-.46,0-.67-.25-.7-.69a.63.63,0,0,1-.69-.68v0a1.46,1.46,0,0,1-1.18-.93L653.79,640l-.73-.73L649.63,636l-.75-.81.07.08c-.26-.25-.52-.5-.77-.76l.07.08-.78-.75.08.08-.79-.76,0,.12a.74.74,0,0,1-.53-.34c-6.72-6.26-14.09-11.44-23.06-14-3.49-1-6.94-2.16-10.4-3.25-.15,1.21-.29,2.41-.43,3.62,2,3,2.31,9.74.3,12.29-2.8,3.56-6.76,3.29-10.67,2.7-1.32-.19-5.52-2.14-6.82-2.51a15.58,15.58,0,0,1,1.28,8c-.12,1.46-.49,1.8-2.07,2.07-1.36.22.07-.48-.39-1.64-3.8-9.67-10.35-15-17-22.5-3-3.4-3.81-6.46-5.25-10.71-.79-2.35-5.09-1.65-7-.68a89.14,89.14,0,0,0-21.12,15.07c-9.89,12.19-13.88,26.35-14.11,41.82-.21,14.14,1.91,28,5.09,41.69a297.39,297.39,0,0,0,19.57,57.5,180.55,180.55,0,0,0,9.35,18c1.11,1.84,2.31,3.76,4.74,1.44a26.91,26.91,0,0,1,3.56-6.93l.49-.72h.05a1.44,1.44,0,0,1,.79-1.3h0a2.85,2.85,0,0,1,1.32-2.11h0l.62-.74V770c3.65-6.75,9.18-11.84,15-16.66a63.31,63.31,0,0,1,10.68-7.39l27.61-28.66a33.27,33.27,0,0,0,7.88,1.22c-2.75-12-2-24.1-1-36.21L636,682l1.52-3.3c0,.23-.08.46-.13.68-.22,1-.34,2.06-1.39,2.62l2.2,2.62,3.21,2.29a54.73,54.73,0,0,1,21.26-26.34l.84-.71,0,0A14,14,0,0,1,668.92,656.65Z" />
    <path class="cls-7"
        d="M555.8,733.13l12.43,48.68,54.53,7.83,27,20.33L678,824.47l7.56,1.35.69-39.72L689,767.34l-1.31-12.27,15.07-2.15,12-16.4,11.75,7.34L736,755.07l23.19,20s17.4-13.48,15.05-16.9-15.05-66.43-15.05-66.43l-39.8-29.14-68.82,59.32-27.78,22.3-30.28-.33Z" />
    <path class="cls-7"
        d="M769.64,702.59c1.59,6.87,3.16,13.74,4.78,20.6.28,1.2.76,2.36,1.14,3.53,3,12.58,6,25.14,8.81,37.74.63,2.8,2,5.56,1.11,8.58-3-1.55-6-.77-9-.11-9.23,1.51-17,6.06-24.21,11.7-1.82.33-3,2.07-4.9,2.23q-4.38-12.5-8.77-25l6.82-7.48c3.4-1.54,6.92-2.86,10.15-4.71,2.28-1.3,4.9-3,3-6.46.21-.69.41-1.38.61-2.07,4.45-3.87,4.49-4,1.54-6.88l.13-1.15c1.64-1.55,3-3.32,2.37-5.69-.55-1.91-2.45-1.2-3.85-1.33l0-1.36c1.53-1.24,3.15-2.49,2.55-4.79a2.77,2.77,0,0,0-3.24-2c-2.58.38-5.27.07-7.73,1.19a1.43,1.43,0,0,0-.46-.07c-.92-3.94-4.08-4.79-7.42-5.49-4.24-.89-8.41.06-12.61.26a11.13,11.13,0,0,1-4.9-10.39A43.75,43.75,0,0,1,727.46,692c1.07-3.08,1.86-6.26,2.78-9.4a41.8,41.8,0,0,0-9.07,24.41,35.38,35.38,0,0,1-1.56-17.49,116.72,116.72,0,0,1,4.51-18.6l.42-.5-.32-.2-.17.65c-3,3-4,7.1-5.36,10.94a52,52,0,0,0-3,21.42,5.3,5.3,0,0,1-1.69,4.29c-4.33,4.56-8.67,9.1-13,13.67-2.5,2.66-10.59,10.33-12.65,13.45h0c-5-.65-7.61-.21-12.64-.86-6.27-1.17-12-3.44-18.21-4.72-3.29-.67-10.74-3.14-13.72-5,.15-.31,17.43-17.83,21-21.92,2.89-3.1,5.91-6.09,8.65-9.31,4.67-5.5,10-10.44,14.25-16.27l7.45-7.77c1,.57.45-.36.59-.61l.08-.09.6-.63,0-.06.63-.65,0,0,.65-.63.71-.75.66-.68,0,0,.67-.66,1.39-1.41.68-.71h0c1,.06,1.42-.39,1.38-1.36h0l.71-.68h0l.7-.66,0,0,.69-.63,5.64-5.13,2.1-1.69-.06,0,.86-.68-.1.11.88-.54.08,0,1.17-.95-.08.07.88-.5h.11l1.2-.88-.08.07,1.38-.86-.08.06c.54-.15,1.14-.18,1.41-.8l-.05,0,2.81-1.42-.07,0c.56-.12,1.18-.07,1.53-.66l-.1.08,4.19-1.5-.08.07A26.19,26.19,0,0,1,746,645l-.07-.07,1.36.88-.09-.13.92.67c7.55,6.5,10.37,15.54,13.18,24.6C764.58,681.35,766.76,692.06,769.64,702.59Z" />
    <path class="cls-8"
        d="M598.1,633.14c1.19,2.87.76,5.85.5,8.79a3,3,0,0,1-2.63,2.78,2.31,2.31,0,0,1-2.69-1.63c-3.8-9.67-11.37-16.52-18-24a32.77,32.77,0,0,1-6.84-11.39c-.79-2.35-1.77-2.36-3.68-1.39a89.14,89.14,0,0,0-21.12,15.07h0c.07-1.57.15-3.14.22-4.7l-.08,0c.84-3,3-5.72,2.71-9-.55-6.38.53-12.52,2.21-18.62l-.08.08,2.13-5.6-.08.07q2.39-4.89,4.75-9.8l0,.06c.61-.27.66-.86.82-1.39l-.06.07,1.3-2.15c2.35-2.2,2.79-4.87,2.61-8-.54-9.54,1.09-18.49,8.44-25.49,1.93-1.15,1.66-3.5,2.78-5.09l-.05.05a4,4,0,0,0,1.4-2.13l0,0,1.69-1.71.08-.11.6-.71,0,0,1.81-1.7.68-.6.86-.67-.08.1,2.08-1.49-.06.06c3.51-2.06,7.39-3.27,11.12-4.84l-.08.08c8.54-2.41,17.16-3.4,25.93-1.3l-.06-.07,2.92,1.28-.07-.06c3.88,1.55,8.17,1.91,11.78,4.19l-.06-.06,2.12,1.53c2.81,2.88,5.91,5.6,5.48,10.21-3.1-.8-5.32,4.42-8.56,4.57-5.26.24-12,.93-17.31.54-2.86-.21-3.47-.91-4.37,1.5a15.94,15.94,0,0,1-5.16,7.28c-3.94,3.38-3.08,7.6-4.6,12.11s-6,7.48-9.2,3.86c-2.07-2.36-2.82-3-5.59-2.15s-1.89,2.5-2.13,5.48c-.37,4.54,0,4.94,2.13,9,1.49,2.84-.25,6.39,3.48,6,1.16-.12,2.13.26,2.33,1.5s-.8,1.74-1.88,2c-2.59-1.27-1.83,1.09-2,4a32.55,32.55,0,0,0,.65,5.14c.85,8.15,4.66,13.65,8.14,20.9C597.84,621.09,597.83,626.77,598.1,633.14Zm-36.82-50.26a52,52,0,0,0-7,16.32C557.3,594.06,560.2,588.87,561.28,582.88Z" />
    <path class="cls-9"
        d="M645.46,551.26l-5.1-14.72c-.38-.87-.75-1.74-1.12-2.61a32.24,32.24,0,0,0-9.45-1.45c-5.26.24-10.46,1.23-15.79.84-2.86-.21-5.14,2.06-6,4.46a18.43,18.43,0,0,1-5.22,8.06c-4,3.38-3.9,8.61-5.42,13.12s-3.8,5-7,1.4a6.69,6.69,0,0,0-7.46-2.19,6.77,6.77,0,0,0-4.79,6.17,23.55,23.55,0,0,0,2.58,13c1.48,2.85,3.51,5.18,7.24,4.77,1.16-.12,2.13.26,2.33,1.5s-.8,1.74-1.88,2c.08.08.15.21.24.22,3.87.46.69,5.18-.3,8.66,3.16,3.78,1,9.58,4.82,12.54l.65,4.65s3.68,8.83,3.69,8.84c2.17,1.67,12.27-2.34,14.89-1.23.88.37-6.3-9.78-5.41-9.46s7.35-1.21,8.25-.81c6.65,2.95,15,6.9,20.68-1.13,4.69-6.61,6.17-19,6.55-23.12a.34.34,0,0,0,.14.08c0-.74,0-1.48-.05-2.22,4.77-4.8,3.58-6.86,2.48-9.53l-1.5-5.37" />
    <path class="cls-8"
        d="M592.48,592c4.94,5.92,10.13,11.55,17.44,14.65a16.08,16.08,0,0,0,5.18,1.69,3.68,3.68,0,0,1,.11.65,13.42,13.42,0,0,0-2.41,6.65c-.15,1.21-.29,2.41-.43,3.62a46.93,46.93,0,0,1-10.88-9.32C597,604.74,592.7,599.35,592.48,592Z" />
    <path class="cls-8"
        d="M642.16,582.89c-2.89.12-5.8,1.71-8.64-.12-.91-.58-2.42-1-1.9-2.41.46-1.19,1.72-.47,2.69-.32a15.86,15.86,0,0,0,4.05.28c3.83-.45,5.3-3.34,3.68-7,.89-.54,1.74.23,2.6.08a3.53,3.53,0,0,0,.46.15l0,0a5.8,5.8,0,0,1,.32,5l0,.2-1,1.58-.59.65-1,1-.1.16C642.47,582.36,642.32,582.63,642.16,582.89Z" />
    <path class="cls-8"
        d="M668.23,658.46a12.87,12.87,0,0,1-4.8,1.46,14,14,0,0,1,5.49-3.27C669.35,657.51,668.64,657.92,668.23,658.46Z" />
    <path class="cls-10" d="M703.31,660.51c0,1-.41,1.42-1.38,1.36Z" />
    <path class="cls-10" d="M695.76,668.19c-.14.25.41,1.18-.59.61Z" />
    <path class="cls-5" d="M634.14,607.83a.7.7,0,0,1,.58-.86Z" />
    <path class="cls-10" d="M705.42,658.52l-.69.63Z" />
    <path class="cls-10" d="M704.71,659.17l-.7.66Z" />
    <path class="cls-10" d="M704,659.83l-.71.68Z" />
    <path class="cls-10" d="M701.94,661.86l-.68.71Z" />
    <path class="cls-10" d="M699.87,664l-.67.66Z" />
    <path class="cls-10" d="M699.18,664.66l-.66.68Z" />
    <path class="cls-10" d="M697.81,666.09l-.65.63Z" />
    <path class="cls-10" d="M697.12,666.76l-.63.65Z" />
    <path class="cls-10" d="M696.44,667.47l-.6.63Z" />
    <path class="cls-7"
        d="M568.23,781.81a26.91,26.91,0,0,1,3.56-6.93l.5.16c0-.3,0-.59,0-.88h.05c.66-.19.8-.7.79-1.3h0a1.82,1.82,0,0,0,1.32-2.11h0l.62-.74V770c1.64-.28,2.36-1.73,3.42-2.72,4-3.76,8.28-7.27,13.39-9.47,2.82-1.21,5.74-2.48,9.42-1.75-2.1,2.68-4,5-5.73,7.35-2.77,3.89-6.17,7.41-7.24,12.3l-.44.49.33.22.18-.65a24.94,24.94,0,0,0,2.24-2.12c4.7-5.65,9.6-11.1,16.2-14.64,5.25-2.81,10.61-6.12,16.67-5.71,7.6.52,15.21,1.19,22.8,2.29,14.77,2.14,29.33,4.81,42.73,11.8a64.38,64.38,0,0,1,26.13,22.12,20.33,20.33,0,0,1,4,15.09c-.55,4.65-3.29,8.41-5.46,12.39-2.53,1.73-4.93,3.68-7.59,5.17-6.42,3.57-13.39,4.46-20.63,3.71,0-.42,1.37-.8.26-1.11a18.57,18.57,0,0,1-3.46-1.36,63.54,63.54,0,0,1-17.46-13.27l-.31-.11.23.19c1.29,5,5.28,7.7,9,10.63,1.46,1.14,3.66,1.46,4.17,3.68-19.08-3.93-38-8.44-57.2-12-12.5-2.3-25.1-4.12-37.21-8.19-2-2.67-5.36-3.77-7.48-6.36A39.16,39.16,0,0,1,568.23,781.81Z" />
    <path class="cls-5"
        d="M782.62,788c1.92-.44,3.29.74,4.68,1.68a89,89,0,0,1,10.28,8.51c4.64,4.27,10.17,6.82,16.14,8.66,5.32,1.64,10.84,3,15.22,6.76,1.13,1,2.3,1.89,2.57,3.49-1,2.53-3.16,3.43-5.49,4.13a77.63,77.63,0,0,1-45,.15,121.83,121.83,0,0,0-17.39-3.89c-4.79-.66-9.64.17-14.36-1-1.21-6.08.3-11.78,2.35-17.41l.88-1.42c2.82.41,5.65.76,8.46,1.23,5.11.87,9.7.45,13.22-4.07A26.14,26.14,0,0,1,782.62,788Z" />
    <path class="cls-11"
        d="M600.7,745.9c2.06,0,3.65,1.28,5.41,2.06,8.23,3.66,17.09,4.09,25.82,4.91,12.34,1.16,24.73,1,37.09.62,10.06-.29,20.1-1.35,30.18-1.19,1.21,0,2.54-.43,3.59.62A93,93,0,0,0,689,767.34c-13.4-7-28-9.66-42.73-11.8-7.59-1.1-15.2-1.77-22.8-2.29-6.06-.41-11.42,2.9-16.67,5.71-6.6,3.54-11.5,9-16.2,14.64a24.94,24.94,0,0,1-2.24,2.12l-.07-.06c1.07-4.89,4.47-8.41,7.24-12.3,1.72-2.4,3.63-4.67,5.73-7.35-3.68-.73-6.6.54-9.42,1.75-5.11,2.2-9.35,5.71-13.39,9.47-1.06,1-1.78,2.44-3.42,2.72,3.65-6.75,9.18-11.84,15-16.66A63.31,63.31,0,0,1,600.7,745.9Z" />
    <path class="cls-8"
        d="M749.26,816.5c4.72,1.19,9.57.36,14.36,1A121.83,121.83,0,0,1,781,821.41a77.63,77.63,0,0,0,45-.15c2.33-.7,4.52-1.6,5.49-4.13,2.26,6.59,1.93,7.09-4.51,9.78-4.76,2-9.76,2.71-14.79,3.42l-14.76.3c-14.57-1-28.37-6.87-43.14-6.82C749.33,823.82,748.59,822.31,749.26,816.5Z" />
    <path class="cls-8"
        d="M782.62,788a26.14,26.14,0,0,0-8.45,6.8c-3.52,4.52-8.11,4.94-13.22,4.07-2.81-.47-5.64-.82-8.46-1.23,0-.45.08-.9.13-1.36a5,5,0,0,0,0-4.08l-.31-4.15c0-1.15,0-2.3,0-3.45,7.23-5.64,15-10.19,24.21-11.7.12,2.12,1.65,3.7,2.18,5.66.65,2.38,1.26,4.76,2,7.13C780.92,786.77,781.11,788,782.62,788Z" />
    <path class="cls-8"
        d="M713.74,816.94c2.17-4,4.91-7.74,5.46-12.39a20.33,20.33,0,0,0-4-15.09,25.78,25.78,0,0,1,20.49,9.5c6.64,7.86,4.16,15.32-5.75,17.87-.55.14-1.12.23-1.68.34-3.58.58-7.18.37-10.78.42Z" />
    <path class="cls-11"
        d="M678,824.47c-.51-2.22-2.71-2.54-4.17-3.68-3.73-2.93-7.72-5.63-9-10.63l.08-.08a63.54,63.54,0,0,0,17.46,13.27,18.57,18.57,0,0,0,3.46,1.36c1.11.31-.27.69-.26,1.11C682.84,826.3,680.51,824.76,678,824.47Z" />
    <path class="cls-11"
        d="M778.67,778.59c-.53-2-2.06-3.54-2.18-5.66,3-.66,6-1.44,9,.11C783.59,775.35,781,776.85,778.67,778.59Z" />
    <path class="cls-11" d="M736,755.07c3.17-.11,6.36.24,9.46-.67l-6.82,7.48Z" />
    <path class="cls-11"
        d="M752.28,784.63c0,1.15,0,2.3,0,3.45l-4.69-.27c-.07-.32-.13-.64-.2-1C749.28,786.7,750.46,785,752.28,784.63Z" />
    <path class="cls-5"
        d="M592.48,592c.22,7.38,4.47,12.77,9,17.94a46.93,46.93,0,0,0,10.88,9.32c2,3,2.31,9.74.3,12.29-2.8,3.56-6.76,3.29-10.67,2.7a30.56,30.56,0,0,1-3.9-1.08c-.27-6.37-3.1-11.93-5.77-17.48-3.48-7.24-6.92-14.44-7.78-22.59a31,31,0,0,1,0-5.1c.16-2.86,1.21-3.69,3.8-2.42.08.08.15.21.24.22C592.49,586.23,593.46,588.49,592.48,592Z" />
    <path class="cls-8"
        d="M595.23,677.36c-.12,1.11-.05,2.15-1.55,2.65-11.12,3.64-21.43,13.16-30.35,20.57a36.94,36.94,0,0,1-4,1.23c5.64-7.94,12.74-16,25.49-21.34C588.1,678.86,591.47,677.41,595.23,677.36Z" />
    <path class="cls-5"
        d="M635.25,681.78a256.72,256.72,0,0,0,1.42-30.88c-.07-2.74-1.2-5.39-.48-8.59,1.51,2.88,1.57,5.77,2,8.49a76.78,76.78,0,0,1-.86,28.62c-.22,1-.34,2.06-1.39,2.62Z" />
    <path class="cls-5"
        d="M555.8,702.12A62.27,62.27,0,0,1,539.12,673a23.75,23.75,0,0,1-.37-3.39l0,0c4.64,11.36,11.13,21.73,17.39,32.23Z" />
    <path class="cls-5"
        d="M571.7,743.86C576,739.6,581,737,587.24,737c-5.36,1.8-10,5-15.22,7.16C571.91,744.06,571.8,744,571.7,743.86Z" />
    <path class="cls-8"
        d="M564.24,699.45c-.74,3.14-.06,3.9.67,6.67-1.23-1.23-2.36-2.46-4.46-1.5a2.37,2.37,0,0,1-3-.69,1.29,1.29,0,0,0,0-.48l.86,0,.52-.75C560,701,564.21,694.28,564.24,699.45Z" />
    <path class="cls-5" d="M570.23,745.16a1.84,1.84,0,0,1,1.47-1.3c.1.11.21.2.32.3a1.9,1.9,0,0,1-1.48,1.32Z" />
    <path class="cls-10" d="M574.44,770.76a1.82,1.82,0,0,1-1.32,2.11A2.85,2.85,0,0,1,574.44,770.76Z" />
    <path class="cls-5" d="M557.36,703.45a1.29,1.29,0,0,1,0,.48c-.64-.1-.83-.57-.94-1.12l.27-.27Z" />
    <path class="cls-8" d="M565.57,706.76l.72,1.3A1.34,1.34,0,0,1,565.57,706.76Z" />
    <path class="cls-5" d="M567.69,748.12l.24-.91.29.15-.55.74Z" />
    <path class="cls-10" d="M573.12,772.87c0,.6-.13,1.11-.79,1.3A1.44,1.44,0,0,1,573.12,772.87Z" />
    <path class="cls-10" d="M572.28,774.16c0,.29,0,.58,0,.88l-.5-.16Z" />
    <path class="cls-5" d="M538.75,669.56l-.43-.45.29-.17c0,.21.08.43.11.64Z" />
    <path class="cls-8" d="M663.46,659.9l-.84.71Z" />
    <path class="cls-5" d="M556.47,702.81l-.67-.69.31-.31.63.73Z" />
    <path class="cls-5" d="M558.74,702.67l-.52.75Z" />
    <path class="cls-8" d="M564.88,706.08l.73.73C565.15,706.79,565,706.49,564.88,706.08Z" />
    <path class="cls-5" d="M570.54,745.48l-.72.65-.24-.23.66-.74Z" />
    <path class="cls-5" d="M569.82,746.13l-.46.23.22-.46Z" />
    <path class="cls-5" d="M567.67,748.1l-.17.27c.06-.08.13-.16.19-.25Z" />
    <path class="cls-10" d="M575.07,770l-.62.74Z" />
    <path class="cls-11"
        d="M689.46,732.64c2.06-3.12,9.08-8.75,11.58-11.41,4.3-4.57,8.64-9.11,13-13.67a5.3,5.3,0,0,0,1.69-4.29,52,52,0,0,1,3-21.42C720,678,721,674,724.05,670.91l.07.05a116.72,116.72,0,0,0-4.51,18.6,35.38,35.38,0,0,0,1.56,17.49,41.8,41.8,0,0,1,9.07-24.41c-.92,3.14-1.71,6.32-2.78,9.4a43.75,43.75,0,0,0-1.89,11.47,11.13,11.13,0,0,0,4.9,10.39c-9.77,3.71-20.92,15.3-29.86,20.46A95.62,95.62,0,0,1,689.46,732.64Z" />
    <path class="cls-8"
        d="M759.35,726.11c-2.16,2.38-5.26,2.63-8.07,3.28a83.89,83.89,0,0,1-12.81,1.81c6.64-3.26,14-4,20.91-6.45Z" />
    <path class="cls-8"
        d="M760.7,734.28c-5.11,3.92-11.25,4.5-17.22,5.63l-.35-1,17.7-5.78C760.79,733.52,760.75,733.9,760.7,734.28Z" />
    <path class="cls-8"
        d="M758.55,743.23c-3.58.18-6.63,2.19-10,2.93-2,.44-3.88,1.79-6.15.42,5.66-1.67,10.82-4.79,16.81-5.42C759,741.85,758.76,742.54,758.55,743.23Z" />
    <path class="cls-8"
        d="M751,719.2c0,1.18-.39,1.76-1.71,2-4.75,1-9.49.64-14.28.11,5.18-.81,10.44-1,15.53-2.22A1.19,1.19,0,0,1,751,719.2Z" />
    <path class="cls-10" d="M724.05,670.91l.17-.65.32.2-.42.5Z" />
    <path class="cls-8"
        d="M626.17,549.66c2.57-.28,3.44,1.47,4.09,3.4.43,1.27-.16,2-1.51,2a65.35,65.35,0,0,0-15.34,1.49c-.69.14-1.93.48-1.93-.67,0-1.74.51-3.58,2.54-4C618.05,551,622.12,550.38,626.17,549.66Z" />
    <path class="cls-8"
        d="M640.23,570.1c-.1.13-.21.25-.32.37-2.38-1.25-3.21-3.36-3.34-5.91a29.39,29.39,0,0,1,.83-7.77c.93-4.37,4.19-5.4,8.06-5.53a8.08,8.08,0,0,1,0,6c-2-1.79-5-2.32-6.31-.67S636.86,565.82,640.23,570.1Z" />
    <path class="cls-12" d="M638.61,589.48c-4.08,3.29-11.3,3-15.85-.45C627.79,590.29,632.86,590.91,638.61,589.48Z" />
    <path class="cls-8"
        d="M587,574.29c-1.88-1.91-1.27-3.62-.39-5.25.4-.75.32-2.46,1.82-1.75,1.07.5.68,1.8.33,2.75C588.28,571.38,587.68,572.67,587,574.29Z" />
    <path class="cls-9"
        d="M639.13,556.57c1.32-1.65,4.33-1.12,6.31.67-.35,1.26-.69,2.52-1,3.79C644.06,562.55,637.83,558.2,639.13,556.57Z" />
    <path class="cls-10" d="M588.39,775.72l-.18.65-.33-.22.44-.49Z" />
    <path class="cls-10" d="M664.78,810.16l-.23-.19.31.11Z" />
    <path class="cls-5" d="M564.91,706.12v0l0,0Z" />
    <path class="cls-5" d="M562.81,697.8h0v0Z" />
    <path class="cls-5"
        d="M760.7,734.28c-5.11,3.92-11.25,4.5-17.22,5.63l-.35-1,17.7-5.78c1.64-1.55,3-3.32,2.37-5.69-.55-1.91-2.45-1.2-3.85-1.33-2.16,2.38-5.26,2.63-8.07,3.28a83.89,83.89,0,0,1-12.81,1.81c6.64-3.26,14-4,20.91-6.45,1.53-1.24,3.15-2.49,2.55-4.79a2.77,2.77,0,0,0-3.24-2c-2.58.38-5.27.07-7.73,1.19,0,1.18-.39,1.76-1.71,2-4.75,1-9.49.64-14.28.11,5.18-.81,10.44-1,15.53-2.22-.92-3.95-4.08-4.8-7.42-5.5-4.24-.89-8.41.06-12.61.26-9.77,3.71-18.06,10-27,15.21h0c-10.35,2.9-63.21-9.32-67.27-10.64-4.63,0-9-1.71-13.44-2.46-3-.5-4.94-2.06-6.58-4.81-5.09-8.55-10.09-17.17-15.94-25.24-1.69-2.34-3.33-4.61-2.26-7.78.33-1-.2-2-.66-3-4.21-8.64-6.18-7.27-2.08,2.15-.12,1.11-.05,2.15-1.55,2.65-11.12,3.64-19.85,11.07-28.77,18.48-.31.26-1.16,2-1.58,2.09-.73,3.12.84,2.76,1.57,5.52l.68.68c.24.43.47.86.71,1.28,5.65,8,12.49,14.92,19.05,22.09,4.95,5.41,10.23,10.51,15.36,15.75,2.06,0,3.65,1.28,5.41,2.06,8.23,3.66,17.09,4.09,25.82,4.91,12.34,1.16,24.73,1,37.09.62,10.06-.29,20.1-1.35,30.18-1.19,1.21,0,2.54-.43,3.59.62,2.42-1.11,4.91-.55,7.39-.37,8.62.61,17.13,2.4,25.79,2.52,3.17-.11,6.36.24,9.46-.67,3.4-1.54,6.92-2.86,10.15-4.71,2.28-1.3,4.9-3,3-6.46-3.58.18-6.64,2.19-10,2.93-2,.44-3.88,1.79-6.15.42,5.66-1.67,10.82-4.79,16.81-5.42C763.61,737.29,763.65,737.14,760.7,734.28Z" />
    <path class="cls-5" d="M752.62,796.31c0-1.36,0-2.72,0-4.09A5.06,5.06,0,0,1,752.62,796.31Z" />
    <polygon class="cls-8"
        points="581.21 644.25 594.75 677.37 593.68 680.01 597.97 678.17 597.97 675.21 581.21 644.25" />
    <path class="cls-13"
        d="M533.4,700.64H449V654.83a42.22,42.22,0,1,1,84.44,0Zm-67.44-17H516.4V654.83a25.22,25.22,0,1,0-50.44,0Z" />
    <rect class="cls-14" x="431.13" y="672.11" width="119.64" height="103.9" rx="16.71" />
    <path class="cls-13"
        d="M506.55,716.26a15.65,15.65,0,1,0-23.37,13.6l-4,24.58h23.49l-4-24.6A15.63,15.63,0,0,0,506.55,716.26Z" />
    <path class="cls-15"
        d="M467.73,664.48a5,5,0,0,1-2.4-.62c-18.08-9.94-20.13-28.62-20.21-29.41a5,5,0,0,1,9.95-1,30.07,30.07,0,0,0,15.07,21.66,5,5,0,0,1-2.41,9.38Z" />
    <path class="cls-15"
        d="M511.09,664.48a5,5,0,0,1-1.39-9.8A30.09,30.09,0,0,0,528.32,636a5,5,0,1,1,9.48,3.18c-6.56,19.56-24.57,24.91-25.33,25.13A5.1,5.1,0,0,1,511.09,664.48Z" />
    <path class="cls-15"
        d="M431.56,776.05a5.51,5.51,0,0,1-.29-.53l-.18-.39c-.12-.26-.2-.49-.3-.74-.18-.48-.35-.95-.48-1.41a20.26,20.26,0,0,1-.6-2.82,21.21,21.21,0,0,1,0-5.57,23.44,23.44,0,0,1,1.29-5.25c.31-.85.65-1.58,1.06-2.45a12.46,12.46,0,0,1,1.8-2.67,21,21,0,0,1,4.07-3.5c1.36-.93,2.71-1.71,4-2.45,2.64-1.46,5.22-2.74,7.58-4.14s4.52-2.94,5.63-4.64a4.73,4.73,0,0,0,.84-2.62l-.06-.73-.17-.78-.29-.87c-.12-.27-.22-.55-.34-.82a6.06,6.06,0,0,0-5-3.74,14.65,14.65,0,0,0-7.51,1.5l-.09,0a1.49,1.49,0,0,1-1.41-2.62,20.51,20.51,0,0,1,4.35-2,15,15,0,0,1,4.89-.79,10.24,10.24,0,0,1,5.18,1.44,11.3,11.3,0,0,1,3.78,3.88c.23.38.42.76.63,1.14l.52,1.17c.15.43.3.87.44,1.32s.2.94.28,1.42a10.14,10.14,0,0,1-1.09,5.78,16.56,16.56,0,0,1-3.24,4.23,34.49,34.49,0,0,1-3.69,3.07c-2.49,1.84-5,3.41-7.32,5-1.15.8-2.25,1.6-3.22,2.42a13.31,13.31,0,0,0-2.33,2.43,3.67,3.67,0,0,0-.53,1c-.15.47-.38,1.09-.5,1.63a14.65,14.65,0,0,0-.46,3.3,12.06,12.06,0,0,0,.36,3.14,11.81,11.81,0,0,0,.47,1.42c.09.22.2.43.3.63s.1.19.14.25l.06.1s.07.09,0,0a5,5,0,1,1-8.52,5.23Z" />
    <path class="cls-15"
        d="M558.92,741.4l-.52.31-.38.2c-.25.13-.48.22-.72.34-.47.2-.93.38-1.39.54a22,22,0,0,1-2.78.74,20.93,20.93,0,0,1-5.57.3,23.14,23.14,0,0,1-5.3-1c-.87-.27-1.61-.58-2.5-.94a12.14,12.14,0,0,1-2.76-1.68,20.79,20.79,0,0,1-3.69-3.89c-1-1.31-1.84-2.62-2.64-3.91-1.59-2.58-3-5.09-4.5-7.38s-3.16-4.37-4.91-5.4a4.75,4.75,0,0,0-2.65-.71l-.73.1-.77.21-.86.32c-.26.13-.54.25-.8.39a6.08,6.08,0,0,0-3.5,5.21,14.7,14.7,0,0,0,1.87,7.42l0,.1a1.49,1.49,0,0,1-2.56,1.53,21.17,21.17,0,0,1-2.2-4.25,15.29,15.29,0,0,1-1-4.84,10.32,10.32,0,0,1,1.19-5.25,11.28,11.28,0,0,1,3.7-4c.36-.24.73-.46,1.11-.68l1.13-.58,1.3-.5c.46-.13.94-.25,1.41-.35a10,10,0,0,1,5.82.81,16.14,16.14,0,0,1,4.38,3,35.44,35.44,0,0,1,3.25,3.54c2,2.4,3.65,4.83,5.36,7.06.86,1.11,1.71,2.18,2.58,3.11a12.85,12.85,0,0,0,2.54,2.21,3.83,3.83,0,0,0,1,.48c.48.12,1.11.32,1.65.42a14,14,0,0,0,3.32.29,11.38,11.38,0,0,0,3.12-.5,12.31,12.31,0,0,0,1.4-.54c.22-.1.42-.22.61-.33l.25-.15.09-.07s.09-.07-.05,0a5,5,0,1,1,5.64,8.26Z" />
    <path class="cls-15"
        d="M436,666.35c.91.29,1.54.52,2.28.79s1.4.56,2.08.86c1.37.6,2.69,1.27,4,2a56.15,56.15,0,0,1,7.54,4.94,47.74,47.74,0,0,1,6.65,6.47c.5.61,1,1.26,1.44,1.9.24.32.48.63.7,1l.63,1c.42.69.86,1.36,1.23,2.08l1.06,2.21c.4.85.54,1.19.77,1.72a12.79,12.79,0,0,0,.67,1.44l.76,1.31c.29.36.57.74.84,1.13a7.15,7.15,0,0,0,3.92,2.65,8.86,8.86,0,0,0,5.33-.64,16.82,16.82,0,0,0,5.45-3.84l.09-.1a2.92,2.92,0,0,1,4.68,3.37,20,20,0,0,1-6.29,7.26,16.25,16.25,0,0,1-2.22,1.32l-1.19.57c-.4.18-.84.3-1.27.45s-.86.29-1.31.39l-1.39.22a14.26,14.26,0,0,1-2.86.13,19.31,19.31,0,0,1-2.9-.42,25.14,25.14,0,0,1-2.75-1,27.54,27.54,0,0,1-2.48-1.43c-.72-.57-1.48-1.13-2.16-1.74s-1.22-1.3-1.82-2-1-1.37-1.51-2.07a18.78,18.78,0,0,1-1.28-2.13l-1.07-1.91a27.4,27.4,0,0,0-3.83-5.4,46.64,46.64,0,0,0-5.14-4.74,65.3,65.3,0,0,0-6-4.06c-1-.64-2.12-1.23-3.2-1.81-.54-.29-1.08-.56-1.62-.83l-1.5-.74-.43-.21A5.49,5.49,0,0,1,436,666.35Z" />
    <path class="cls-16"
        d="M560.38,234.17c-6.09,0-11.65-2.25-17.27-4.24-1.42-3.16-.23-5.4,3.35-6.38,2.76-.76,5.54.42,8.69-.13-6-3.64-10.22-8.32-11.73-15.12-1.6-7.21,1.46-12.47,7.34-17.35a44.45,44.45,0,0,1-14.43-3.86c-3.82-1.84-6.64-5.1-10.61-6.7-1.86-.75-1.64-3.52.31-4.47a6.7,6.7,0,0,0,2.64-2.61c5-7.34,11.14-13.11,20.51-14.49,3.05-.45,4.66-3.34,6.37-5.66a32.27,32.27,0,0,1,5.41-6.41c2.69-2.18,5.17-1.45,6,1.95,1.18,4.73-.1,9.07-3,12.86-1.38,1.83-1.17,3.3-.71,5.42,1.84,8.54,6.91,14.92,12.87,20.85a43.15,43.15,0,0,1,3.23,4.1l0,0c.69,1.59,1.28,3.25,2.09,4.78,3.59,6.83,5.81,14,5,21.78-.35,3.11-.93,6.2-1.41,9.29h0a2.35,2.35,0,0,0-.69,2.11c-2.09,4.9-5.06,5.52-12.29,5.29C568.18,235.09,564.28,234.53,560.38,234.17Zm9.64-29c-6.86-3.46-15.65,1.31-16.48,10.52-.08.93-.21,2.21.83,2.44,1.46.34.93-1.16,1.21-1.89a14.68,14.68,0,0,1,10.47-9.41C567.36,206.48,568.8,206.5,570,205.17Zm-25-30.73a3.15,3.15,0,0,0,3-3.31,2.85,2.85,0,0,0-3.28-3.17c-2,.07-3.29,1.14-3.3,3.24S542.68,174.35,545,174.44Z" />
    <path class="cls-17" d="M579.4,191.9c-0.5-5.2-1.9-10.3-1.4-15.6c0.8-8.4,7-20.4,17.9-22.1c12.1-1.9,25.1,10.7,22.8,22.6  c-0.3,1.7-0.9,3.5-2.7,4.3c-2.1,0.9-2.8-1-4-2.1c-2.1-2-5.2-2.6-7.8-1.4c-2.8,1-3,3.6-3,6.1c0,4,1.3,7.5,2.8,11.1  c4.2,9.8,3.5,22.4-5.5,29.8c-4,3.2-8.3,5.2-13.4,5.2c-15-1-23.7-12.9-19.7-18.7c2.2-4.5-6.3-4.4-7.3-9.3  C556.7,194.6,586.3,195.7,579.4,191.9L579.4,191.9z"></path>
        <path class="cls-18"
        d="M579.43,192c7,3.7,10.41,10,11.76,17.28a22.34,22.34,0,0,1-1.81,14.39c-1,1.93-2.06,3.63-4.32,4.18.48-3.09,1.06-6.18,1.41-9.29.86-7.81-1.36-15-5-21.78C580.71,195.21,580.12,193.55,579.43,192Z" />
    <path class="cls-18"
        d="M570,205.17c-1.22,1.33-2.66,1.31-4,1.66a14.68,14.68,0,0,0-10.47,9.41c-.28.73.25,2.23-1.21,1.89-1-.23-.91-1.51-.83-2.44C554.37,206.48,563.16,201.71,570,205.17Z" />
    <path class="cls-19"
        d="M545,174.44c-2.36-.09-3.57-1.14-3.56-3.24s1.28-3.17,3.3-3.24a2.85,2.85,0,0,1,3.28,3.17A3.15,3.15,0,0,1,545,174.44Z" />
    <circle class="cls-20" cx="620.94" cy="564.94" r="3.45" />
    <ellipse class="cls-20" cx="640.83" cy="564.94" rx="2.57" ry="3.45" />
</svg>