<svg id="Layer_1" data-name="Layer 1" xmlns="http://www.w3.org/2000/svg" xmlns:xlink="http://www.w3.org/1999/xlink" viewBox="0 0 75.91 47.52"><defs><style>.cls-1{fill:#792c29;}.cls-2{fill:#ac5642;}.cls-3{fill:url(#linear-gradient);}.cls-4{fill:#281547;}.cls-5{fill:#e4b17f;}.cls-6{fill:url(#linear-gradient-2);}.cls-7{fill:url(#linear-gradient-3);}.cls-8{fill:url(#linear-gradient-4);}.cls-9{fill:url(#linear-gradient-5);}.cls-10{fill:#926948;}.cls-11{fill:url(#linear-gradient-6);}.cls-12{fill:#340c10;}.cls-13{fill:#40151c;}.cls-14{fill:url(#linear-gradient-7);}</style><linearGradient id="linear-gradient" x1="50.93" y1="7.39" x2="58.68" y2="29.7" gradientUnits="userSpaceOnUse"><stop offset="0" stop-color="#ac5642"/><stop offset="1" stop-color="#792c29"/></linearGradient><linearGradient id="linear-gradient-2" x1="52.43" y1="54.48" x2="50.53" y2="35.65" xlink:href="#linear-gradient"/><linearGradient id="linear-gradient-3" x1="10.03" y1="36" x2="32.97" y2="36" xlink:href="#linear-gradient"/><linearGradient id="linear-gradient-4" x1="45.92" y1="48.93" x2="41.77" y2="29.97" gradientUnits="userSpaceOnUse"><stop offset="0" stop-color="#ac5642"/><stop offset="1" stop-color="#bb776a"/></linearGradient><linearGradient id="linear-gradient-5" x1="13.49" y1="31.69" x2="20.45" y2="25.03" gradientUnits="userSpaceOnUse"><stop offset="0" stop-color="#521c1f"/><stop offset="1" stop-color="#792c29"/></linearGradient><linearGradient id="linear-gradient-6" x1="390.87" y1="786.22" x2="406.83" y2="786.22" gradientTransform="translate(341.4 -790.79) rotate(45)" gradientUnits="userSpaceOnUse"><stop offset="0" stop-color="#926948"/><stop offset="1" stop-color="#774d2c"/></linearGradient><linearGradient id="linear-gradient-7" x1="390.05" y1="777.92" x2="408.69" y2="777.92" gradientTransform="translate(341.4 -790.79) rotate(45)" gradientUnits="userSpaceOnUse"><stop offset="0" stop-color="#44171d"/><stop offset="1" stop-color="#2e080b"/></linearGradient></defs><title>squirrel</title><path class="cls-1" d="M46.26,19.11c-3.32-1.36-5.87-.34-5.87,2.3s3.75,1.7,5.87-1.19" transform="translate(-5.21 -6.74)"/><path class="cls-2" d="M48.75,26.14c-3.29-1-5.15-5.37-2.41-10.41s7.12-3.18,8.11-5.26,1.75-3.83,4.16-2.19,2.74,7.23,1.1,12.38-5.15,4.6-4.49,6.24,2.3,4,1.31,7.78c-0.87,3.32-2.41,4.82-.11,5.7s2.08,4,1.21,4.56S57.19,43.56,55.54,43s-4.05-2.3-4.16-4.16a4.73,4.73,0,0,0,1.86,5.65c3.29,2.45,3.73,5.11,3,7.29a2.94,2.94,0,0,1,2.41.77c0.77,1,1,1.71,0,1.71H35.28c-3.83,0-9.09-5-10.41-13.56s0.88-10.19-2.41-13.91c0,0,1.53,5.48-3.29,7.12S3.83,33.81,5.37,21.21,25.31,4.37,31.66,14.65s-0.33,23.89,2.41,30.5,5.59,6.07,5.59,6.07-4.27-4.71-1.42-14S48.75,26.14,48.75,26.14Z" transform="translate(-5.21 -6.74)"/><path class="cls-3" d="M58.61,8.28c-1.85-1.26-2.73-.52-3.49.83h0a4,4,0,0,1,2.11,2.34,8.14,8.14,0,0,1,.77,2,5.29,5.29,0,0,1-.09,2.16,9.41,9.41,0,0,1-2.24,5c-0.94.92-2.2,1.45-3.15,2.36A5.35,5.35,0,0,0,51,26a1.13,1.13,0,0,0,0,.57,1.4,1.4,0,0,0,.56.57,7.1,7.1,0,0,1,2.74,7c-0.18.88-.52,1.71-0.69,2.59A3.35,3.35,0,0,0,54,39.32c1,1.42,3.52,1.44,4.1,3.1a3.93,3.93,0,0,1,.16.87,2.93,2.93,0,0,0-1.82-2.9c-2.3-.88-0.76-2.38.11-5.7,1-3.73-.66-6.14-1.31-7.78s2.85-1.1,4.49-6.24S61,9.92,58.61,8.28Z" transform="translate(-5.21 -6.74)"/><path class="cls-4" d="M54.45,10.47c-1.06-1.59-.55-3.83,1.64-3.73s4.15,1.47,3.5,2.6S55.33,11.79,54.45,10.47Z" transform="translate(-5.21 -6.74)"/><path class="cls-2" d="M47.3,21.24c-3.72-1-7.54,2-6.82,5.48s5-.21,6.82-3.72S47.3,21.24,47.3,21.24Z" transform="translate(-5.21 -6.74)"/><path class="cls-5" d="M41.52,26.06c-1.33-1.76,2-4.54,3.92-4.3C45.76,23.62,43.29,28.4,41.52,26.06Z" transform="translate(-5.21 -6.74)"/><ellipse class="cls-4" cx="46.63" cy="9.07" rx="0.93" ry="0.57"/><path class="cls-6" d="M48.74,45.41C54.22,49,51.33,53,51.33,53a30.06,30.06,0,0,1,4.88-1.2c0.77-2.18.33-4.83-3-7.29a4.73,4.73,0,0,1-1.86-5.65c-1.7-1.71-1.61-5.31-1.61-5.31S43.27,41.8,48.74,45.41Z" transform="translate(-5.21 -6.74)"/><path class="cls-7" d="M28.47,36c3-10.63-3.18-20.05-12.66-17.16s-5.93,15.63.87,15.6a10.17,10.17,0,0,0,2.49-.48c4.82-1.64,3.29-7.12,3.29-7.12,3.29,3.72,1.1,5.37,2.41,13.91,1.06,6.92,4.71,11.52,8.1,13A18.63,18.63,0,0,1,28.47,36Z" transform="translate(-5.21 -6.74)"/><path class="cls-8" d="M38.23,37.26c-2.85,9.26,1.42,14,1.42,14a30.08,30.08,0,0,1,3,.88c-8.76-17.48,6.13-26,6.13-26S41.08,28,38.23,37.26Z" transform="translate(-5.21 -6.74)"/><path class="cls-9" d="M22.46,26.8c-4.13-3.77-8-1.25-7.54,1.42S18.67,30,18.67,30s-3.21-.82-1.48-2S22.46,26.8,22.46,26.8Z" transform="translate(-5.21 -6.74)"/><path class="cls-10" d="M66.6,36.88C65.42,38.06,61,41,60.75,45.6S62,51,61.9,52.52a2.69,2.69,0,0,1,2.13.74c1,0.93,5.3,1.18,8.46-.46S78.26,47,78.26,47Z" transform="translate(-5.21 -6.74)"/><path class="cls-11" d="M66.6,36.88c-0.2.2-.49,0.45-0.84,0.74,0.6,2.27,3.25,5,4.11,6.22a3.65,3.65,0,0,1,.82,1.85,3.7,3.7,0,0,1-1.15,2.36,10.24,10.24,0,0,1-4,3.36c-0.88.32-1.82,0.4-2.72,0.67a4.58,4.58,0,0,0-.93.39s0,0,0,0a2.69,2.69,0,0,1,2.13.74c1,0.93,5.3,1.18,8.46-.46S78.26,47,78.26,47Z" transform="translate(-5.21 -6.74)"/><path class="cls-12" d="M74.26,39.24a5.16,5.16,0,0,1,3.66-1.89c0.51,0.09.93,1.1,0.34,1.26s-2.65,1-3,1.94S74.26,39.24,74.26,39.24Z" transform="translate(-5.21 -6.74)"/><path class="cls-13" d="M69.17,33.73a2.8,2.8,0,0,0-3.24,1.05c-0.8.88-.67,2,0.46,3.07s9.52,9.88,10.74,10.75,1.9,0.77,3.12-.27A2.17,2.17,0,0,0,80.41,45C79.48,44,70.56,34.27,69.17,33.73Z" transform="translate(-5.21 -6.74)"/><path class="cls-14" d="M80.41,45c-0.33-.36-1.69-1.84-3.36-3.61a7,7,0,0,0,0,1,2.05,2.05,0,0,1-2.28,1.79,5.35,5.35,0,0,1-2.86-1.45,16.71,16.71,0,0,1-4-4.38c-0.36-.62-1.42-2.23-2.34-1.62a3.19,3.19,0,0,0,.84,1.17c1.14,1.05,9.52,9.88,10.74,10.75s1.9,0.77,3.12-.27A2.17,2.17,0,0,0,80.41,45Z" transform="translate(-5.21 -6.74)"/></svg>