<svg id="Layer_2" data-name="Layer 2" xmlns="http://www.w3.org/2000/svg" viewBox="0 0 2078.39 545.06"><defs><style>.cls-1,.cls-10,.cls-2,.cls-3,.cls-4,.cls-5,.cls-6{fill:none;stroke-miterlimit:10;}.cls-1{stroke:#655370;}.cls-1,.cls-2,.cls-3,.cls-4,.cls-5{stroke-width:6px;}.cls-1,.cls-10,.cls-2,.cls-3,.cls-4,.cls-5,.cls-6,.cls-7,.cls-8{isolation:isolate;}.cls-10,.cls-2{stroke:#925a66;}.cls-3{stroke:#ce7d66;}.cls-4,.cls-6{stroke:#fff;}.cls-5{stroke:#e8c381;}.cls-6{stroke-width:7px;}.cls-7{fill:#925a66;}.cls-9{fill:#f2f1ee;}.cls-10{stroke-width:5px;}</style></defs><title>bg</title><rect class="cls-1" x="1859.73" y="434.23" width="107.83" height="107.83"/><rect class="cls-2" x="111.33" y="4.24" width="107.83" height="107.83"/><rect class="cls-3" x="1644.07" y="219.57" width="107.83" height="107.83"/><rect class="cls-4" x="1751.9" y="326.4" width="107.83" height="107.83"/><rect class="cls-4" x="1964.99" y="4.24" width="107.83" height="107.83"/><rect class="cls-1" x="218.75" y="111.74" width="107.83" height="107.83"/><rect class="cls-5" x="218.75" y="219.57" width="107.83" height="107.83"/><rect class="cls-1" x="111.34" y="327.4" width="107.83" height="107.83"/><rect class="cls-1" x="326.34" y="327.4" width="107.83" height="107.83"/><rect class="cls-3" x="326.34" y="111.74" width="107.83" height="107.83"/><rect class="cls-3" x="326.34" y="219.57" width="107.83" height="107.83"/><rect class="cls-3" x="3.5" y="434.23" width="107.83" height="107.83"/><rect class="cls-6" x="433.99" y="111.74" width="107.83" height="107.83"/><rect class="cls-2" x="1106.08" y="3" width="107.83" height="107.83"/><rect class="cls-5" x="541.76" y="4.24" width="107.83" height="107.83"/><rect class="cls-4" x="649.59" y="112.12" width="107.83" height="107.83"/><rect class="cls-1" x="758.52" y="4.24" width="107.83" height="107.83"/><rect class="cls-2" x="1964.99" y="112.12" width="107.83" height="107.83"/><rect class="cls-5" x="1213.74" y="3" width="107.83" height="107.83"/><rect class="cls-5" x="1536.24" y="4.24" width="107.83" height="107.83"/><rect class="cls-2" x="1859.73" y="219.57" width="107.83" height="107.83"/><rect class="cls-5" x="1967.56" y="326.4" width="107.83" height="107.83"/><rect class="cls-6" x="3.5" y="112.32" width="107.83" height="107.83"/><rect class="cls-4" x="1428.41" y="110.73" width="107" height="107"/><rect class="cls-3" x="1644.07" y="4.24" width="107.83" height="107.83"/><rect class="cls-1" x="1751.9" y="112.12" width="107.83" height="107.83"/><rect class="cls-3" x="865.18" y="110.32" width="107.83" height="107.83"/><rect class="cls-7" x="970.07" y="215.57" width="107.83" height="107.83"/><g class="cls-8"><path class="cls-9" d="M1025,241.58a15.83,15.83,0,0,1,4,10.08,27.27,27.27,0,0,1-.55,5.47,31.08,31.08,0,0,1-2.73,7.89q-4.3,8.67-26.71,26.63-22.34-18-26.63-26.63a32.33,32.33,0,0,1-2.77-7.89,26,26,0,0,1-.59-5.47,16.16,16.16,0,0,1,4-10q3.87-4.65,11-5a14,14,0,0,1,11,5q3.91,4.38,4,5,0.16-.62,4-5a15.5,15.5,0,0,1,4.69-3.55,14.71,14.71,0,0,1,6.33-1.44q7.19,0.31,11,5v-0.08Z" transform="translate(26.91 9.34)"/></g><rect class="cls-10" x="1321.41" y="110.73" width="107" height="107"/></svg>