<svg id="Layer_1" data-name="Layer 1" xmlns="http://www.w3.org/2000/svg" viewBox="0 0 70 70"><defs><style>.cls-1{fill:#925a66;}.cls-1,.cls-2{isolation:isolate;}.cls-3{fill:#f2f1ee;}</style></defs><title>heart</title><rect class="cls-1" width="70" height="70"/><g class="cls-2"><path class="cls-3" d="M53.13,22.94a10.28,10.28,0,0,1,2.59,6.54A17.7,17.7,0,0,1,55.36,33a20.18,20.18,0,0,1-1.77,5.12Q50.8,43.78,36.25,55.44,21.75,43.78,19,38.15A21,21,0,0,1,17.16,33a16.85,16.85,0,0,1-.38-3.55A10.49,10.49,0,0,1,19.39,23a9.32,9.32,0,0,1,7.12-3.22A9.1,9.1,0,0,1,33.66,23a16.79,16.79,0,0,1,2.59,3.24A20.76,20.76,0,0,1,38.83,23a10.06,10.06,0,0,1,3-2.31A9.55,9.55,0,0,1,46,19.75,9.25,9.25,0,0,1,53.13,23V22.94Z"/></g></svg>