<svg id="Layer_2" data-name="Layer 2" xmlns="http://www.w3.org/2000/svg" viewBox="0 0 652.65 761.31"><defs><style>.cls-1,.cls-2,.cls-3,.cls-4,.cls-5,.cls-6,.cls-7{fill:none;stroke-miterlimit:10;isolation:isolate;}.cls-1{stroke:#e8c381;}.cls-1,.cls-2,.cls-3,.cls-4,.cls-5{stroke-width:6px;}.cls-2,.cls-6,.cls-7{stroke:#fff;}.cls-3{stroke:#ce7d66;}.cls-4{stroke:#655370;}.cls-5{stroke:#925a66;}.cls-6{stroke-width:8px;}.cls-7{stroke-width:7px;}.cls-8{fill:#925a66;}.cls-9{fill:#f2f1ee;}</style></defs><title>bg-bottom-left</title><rect class="cls-1" x="325.87" y="649.38" width="107.83" height="107.83"/><rect class="cls-2" x="110.83" y="3" width="107.83" height="107.83"/><rect class="cls-3" x="3" y="3" width="107.83" height="107.83"/><rect class="cls-4" x="110.83" y="110.83" width="107.83" height="107.83"/><rect class="cls-1" x="110.83" y="218.66" width="107.83" height="107.83"/><rect class="cls-5" x="3" y="326.49" width="107.83" height="107.83"/><rect class="cls-6" x="110.83" y="326.49" width="107.83" height="107.83"/><rect class="cls-4" x="218.25" y="326.49" width="107.83" height="107.83"/><rect class="cls-1" x="325.84" y="434.32" width="107.83" height="107.83"/><rect class="cls-3" x="218.25" y="542.15" width="107.83" height="107.83"/><rect class="cls-5" x="110.83" y="543.09" width="107.83" height="107.83"/><rect class="cls-7" x="218.25" y="649.98" width="107.83" height="107.83"/><rect class="cls-4" x="433.28" y="649.38" width="107.83" height="107.83"/><rect class="cls-7" x="541.32" y="543.09" width="107.83" height="107.83"/><rect class="cls-8" x="323.77" y="222.15" width="107.83" height="107.83"/><path class="cls-9" d="M407.2,274.13a15.83,15.83,0,0,1,4,10.08,27.27,27.27,0,0,1-.55,5.47,31.08,31.08,0,0,1-2.73,7.89q-4.3,8.67-26.71,26.63-22.34-18-26.63-26.63a32.33,32.33,0,0,1-2.77-7.89,26,26,0,0,1-.59-5.47,16.16,16.16,0,0,1,4-10q3.87-4.65,11-5a14,14,0,0,1,11,5q3.91,4.38,4,5,0.16-.62,4-5a15.5,15.5,0,0,1,4.69-3.55,14.71,14.71,0,0,1,6.33-1.44q7.19,0.31,11,5v-0.08h0Z" transform="translate(-1.59 -16.62)"/></svg>