<svg id="Layer_2" data-name="Layer 2" xmlns="http://www.w3.org/2000/svg" viewBox="0 0 869.35 758.65"><defs><style>.cls-1,.cls-2,.cls-3,.cls-4,.cls-5,.cls-6{fill:none;stroke-miterlimit:10;}.cls-1{stroke:#925a66;}.cls-1,.cls-2,.cls-3,.cls-4,.cls-6{stroke-width:6px;}.cls-2{stroke:#655370;}.cls-3{stroke:#e8c381;}.cls-4{stroke:#ce7d66;}.cls-5,.cls-6{stroke:#fff;}.cls-5{stroke-width:7px;}</style></defs><title>bg-noheart</title><rect class="cls-1" x="111.33" y="3" width="107.83" height="107.83"/><rect class="cls-2" x="218.75" y="110.5" width="107.83" height="107.83"/><rect class="cls-3" x="218.75" y="218.33" width="107.83" height="107.83"/><rect class="cls-2" x="111.34" y="326.16" width="107.83" height="107.83"/><rect class="cls-2" x="326.34" y="326.16" width="107.83" height="107.83"/><rect class="cls-4" x="326.34" y="110.5" width="107.83" height="107.83"/><rect class="cls-4" x="326.34" y="218.33" width="107.83" height="107.83"/><rect class="cls-4" x="3.5" y="432.99" width="107.83" height="107.83"/><rect class="cls-5" x="433.99" y="110.5" width="107.83" height="107.83"/><rect class="cls-3" x="541.76" y="3" width="107.83" height="107.83"/><rect class="cls-6" x="649.59" y="110.88" width="107.83" height="107.83"/><rect class="cls-2" x="758.52" y="3" width="107.83" height="107.83"/><rect class="cls-5" x="3.5" y="111.08" width="107.83" height="107.83"/><rect class="cls-1" x="433.99" y="3" width="107.83" height="107.83"/><rect class="cls-4" x="3.51" y="219.16" width="107.83" height="107.83"/><rect class="cls-1" x="111.33" y="539.82" width="107.83" height="107.83"/><rect class="cls-3" x="111.33" y="647.82" width="107.83" height="107.83"/></svg>