<svg id="Layer_2" data-name="Layer 2" xmlns="http://www.w3.org/2000/svg" viewBox="0 0 2078.39 545.06"><defs><style>.cls-1,.cls-2,.cls-3,.cls-4,.cls-5,.cls-6,.cls-7{fill:none;stroke-miterlimit:10;opacity:0.2;}.cls-1{stroke:#655370;}.cls-1,.cls-2,.cls-3,.cls-4,.cls-5{stroke-width:6px;}.cls-2,.cls-7{stroke:#925a66;}.cls-3{stroke:#ce7d66;}.cls-4,.cls-6{stroke:#fff;}.cls-5{stroke:#e8c381;}.cls-6{stroke-width:7px;}.cls-7{stroke-width:5px;}</style></defs><title>bg-wide</title><rect class="cls-1" x="1859.73" y="434.23" width="107.83" height="107.83"/><rect class="cls-2" x="111.33" y="4.24" width="107.83" height="107.83"/><rect class="cls-3" x="1644.07" y="219.57" width="107.83" height="107.83"/><rect class="cls-4" x="1751.9" y="326.4" width="107.83" height="107.83"/><rect class="cls-4" x="1964.99" y="4.24" width="107.83" height="107.83"/><rect class="cls-1" x="218.75" y="111.74" width="107.83" height="107.83"/><rect class="cls-5" x="218.75" y="219.57" width="107.83" height="107.83"/><rect class="cls-1" x="111.34" y="327.4" width="107.83" height="107.83"/><rect class="cls-1" x="326.34" y="327.4" width="107.83" height="107.83"/><rect class="cls-3" x="326.34" y="111.74" width="107.83" height="107.83"/><rect class="cls-3" x="326.34" y="219.57" width="107.83" height="107.83"/><rect class="cls-3" x="3.5" y="434.23" width="107.83" height="107.83"/><rect class="cls-6" x="433.99" y="111.74" width="107.83" height="107.83"/><rect class="cls-2" x="1106.08" y="3" width="107.83" height="107.83"/><rect class="cls-5" x="541.76" y="4.24" width="107.83" height="107.83"/><rect class="cls-4" x="649.59" y="112.12" width="107.83" height="107.83"/><rect class="cls-1" x="758.52" y="4.24" width="107.83" height="107.83"/><rect class="cls-2" x="1964.99" y="112.12" width="107.83" height="107.83"/><rect class="cls-5" x="1213.74" y="3" width="107.83" height="107.83"/><rect class="cls-5" x="1536.24" y="4.24" width="107.83" height="107.83"/><rect class="cls-2" x="1859.73" y="219.57" width="107.83" height="107.83"/><rect class="cls-5" x="1967.56" y="326.4" width="107.83" height="107.83"/><rect class="cls-6" x="3.5" y="112.32" width="107.83" height="107.83"/><rect class="cls-4" x="1428.41" y="110.73" width="107" height="107"/><rect class="cls-3" x="1644.07" y="4.24" width="107.83" height="107.83"/><rect class="cls-1" x="1751.9" y="112.12" width="107.83" height="107.83"/><rect class="cls-3" x="865.18" y="110.32" width="107.83" height="107.83"/><rect class="cls-7" x="1321.41" y="110.73" width="107" height="107"/></svg>