<svg id="Layer_2" data-name="Layer 2" xmlns="http://www.w3.org/2000/svg" viewBox="0 0 760 1408.4"><defs><style>.cls-1,.cls-2,.cls-3,.cls-4,.cls-5,.cls-6{fill:none;stroke-miterlimit:10;isolation:isolate;}.cls-1{stroke:#925a66;}.cls-1,.cls-2,.cls-3,.cls-4,.cls-6{stroke-width:6px;}.cls-2,.cls-5{stroke:#fff;}.cls-3{stroke:#655370;}.cls-4{stroke:#ce7d66;}.cls-5{stroke-width:7px;}.cls-6{stroke:#e8c381;}</style></defs><title>bg-wide</title><rect class="cls-1" x="111.33" y="3" width="107.83" height="107.83"/><rect class="cls-2" x="326.34" y="327.1" width="107.83" height="107.83"/><rect class="cls-3" x="218.75" y="110.5" width="107.83" height="107.83"/><rect class="cls-4" x="326.34" y="110.5" width="107.83" height="107.83"/><rect class="cls-5" x="433.99" y="110.5" width="107.83" height="107.83"/><rect class="cls-6" x="541.76" y="3" width="107.83" height="107.83"/><rect class="cls-1" x="111.33" y="435.3" width="107.83" height="107.83"/><rect class="cls-5" x="3.5" y="111.08" width="107.83" height="107.83"/><rect class="cls-6" x="3.5" y="219.15" width="107.83" height="107.83"/><rect class="cls-3" x="218.75" y="434.93" width="107.83" height="107.83"/><rect class="cls-4" x="111.33" y="327.1" width="107.83" height="107.83"/><rect class="cls-6" x="218.75" y="542.76" width="107.83" height="107.83"/><rect class="cls-1" x="326.34" y="650.59" width="107.83" height="107.83"/><rect class="cls-2" x="111.33" y="650.59" width="107.83" height="107.83"/><rect class="cls-4" x="3.5" y="650.59" width="107.83" height="107.83"/><rect class="cls-3" x="111.33" y="758.42" width="107.83" height="107.83"/><rect class="cls-6" x="111.33" y="866.25" width="107.83" height="107.83"/><rect class="cls-1" x="3.5" y="974.08" width="107.83" height="107.83"/><rect class="cls-5" x="111.33" y="974.08" width="107.83" height="107.83"/><rect class="cls-3" x="218.75" y="974.08" width="107.83" height="107.83"/><rect class="cls-4" x="326.34" y="866.85" width="107.83" height="107.83"/><rect class="cls-6" x="326.34" y="1081.91" width="107.83" height="107.83"/><rect class="cls-4" x="218.75" y="1189.74" width="107.83" height="107.83"/><rect class="cls-1" x="111.33" y="1190.67" width="107.83" height="107.83"/><rect class="cls-2" x="218.75" y="1297.57" width="107.83" height="107.83"/><rect class="cls-3" x="649.17" y="3" width="107.83" height="107.83"/></svg>